ISO-10303-21;
HEADER;
FILE_DESCRIPTION(('FreeCAD Model'),'2;1');
FILE_NAME('Open CASCADE Shape Model','2025-11-04T09:08:01',(''),(''),
  'Open CASCADE STEP processor 7.9','FreeCAD','Unknown');
FILE_SCHEMA(('AUTOMOTIVE_DESIGN { 1 0 10303 214 1 1 1 1 }'));
ENDSEC;
DATA;
#1 = APPLICATION_PROTOCOL_DEFINITION('international standard',
  'automotive_design',2000,#2);
#2 = APPLICATION_CONTEXT(
  'core data for automotive mechanical design processes');
#3 = SHAPE_DEFINITION_REPRESENTATION(#4,#10);
#4 = PRODUCT_DEFINITION_SHAPE('','',#5);
#5 = PRODUCT_DEFINITION('design','',#6,#9);
#6 = PRODUCT_DEFINITION_FORMATION('','',#7);
#7 = PRODUCT('xMotorHolder','xMotorHolder','',(#8));
#8 = PRODUCT_CONTEXT('',#2,'mechanical');
#9 = PRODUCT_DEFINITION_CONTEXT('part definition',#2,'design');
#10 = ADVANCED_BREP_SHAPE_REPRESENTATION('',(#11,#15),#1276);
#11 = AXIS2_PLACEMENT_3D('',#12,#13,#14);
#12 = CARTESIAN_POINT('',(0.,0.,0.));
#13 = DIRECTION('',(0.,0.,1.));
#14 = DIRECTION('',(1.,0.,-0.));
#15 = MANIFOLD_SOLID_BREP('',#16);
#16 = CLOSED_SHELL('',(#17,#168,#209,#234,#258,#284,#347,#419,#475,#563,
    #588,#629,#654,#678,#704,#721,#733,#874,#898,#922,#939,#956,#980,
    #1011,#1028,#1056,#1075,#1087,#1104,#1121,#1133,#1145,#1162,#1179,
    #1196,#1213,#1230,#1247,#1264));
#17 = ADVANCED_FACE('',(#18,#68,#102,#113),#163,.T.);
#18 = FACE_BOUND('',#19,.T.);
#19 = EDGE_LOOP('',(#20,#30,#38,#46,#54,#62));
#20 = ORIENTED_EDGE('',*,*,#21,.F.);
#21 = EDGE_CURVE('',#22,#24,#26,.T.);
#22 = VERTEX_POINT('',#23);
#23 = CARTESIAN_POINT('',(-8.,68.9,13.));
#24 = VERTEX_POINT('',#25);
#25 = CARTESIAN_POINT('',(-8.,68.9,15.));
#26 = LINE('',#27,#28);
#27 = CARTESIAN_POINT('',(-8.,68.9,3.5));
#28 = VECTOR('',#29,1.);
#29 = DIRECTION('',(1.1E-16,0.,1.));
#30 = ORIENTED_EDGE('',*,*,#31,.F.);
#31 = EDGE_CURVE('',#32,#22,#34,.T.);
#32 = VERTEX_POINT('',#33);
#33 = CARTESIAN_POINT('',(-8.,68.9,7.));
#34 = LINE('',#35,#36);
#35 = CARTESIAN_POINT('',(-8.,68.9,7.));
#36 = VECTOR('',#37,1.);
#37 = DIRECTION('',(2.2E-16,0.,1.));
#38 = ORIENTED_EDGE('',*,*,#39,.F.);
#39 = EDGE_CURVE('',#40,#32,#42,.T.);
#40 = VERTEX_POINT('',#41);
#41 = CARTESIAN_POINT('',(-2.,68.9,7.));
#42 = LINE('',#43,#44);
#43 = CARTESIAN_POINT('',(-2.,68.9,7.));
#44 = VECTOR('',#45,1.);
#45 = DIRECTION('',(-1.,0.,2.2E-16));
#46 = ORIENTED_EDGE('',*,*,#47,.F.);
#47 = EDGE_CURVE('',#48,#40,#50,.T.);
#48 = VERTEX_POINT('',#49);
#49 = CARTESIAN_POINT('',(-2.,68.9,13.));
#50 = LINE('',#51,#52);
#51 = CARTESIAN_POINT('',(-2.,68.9,13.));
#52 = VECTOR('',#53,1.);
#53 = DIRECTION('',(-2.2E-16,0.,-1.));
#54 = ORIENTED_EDGE('',*,*,#55,.T.);
#55 = EDGE_CURVE('',#48,#56,#58,.T.);
#56 = VERTEX_POINT('',#57);
#57 = CARTESIAN_POINT('',(-2.,68.9,15.));
#58 = LINE('',#59,#60);
#59 = CARTESIAN_POINT('',(-2.,68.9,6.5));
#60 = VECTOR('',#61,1.);
#61 = DIRECTION('',(1.1E-16,0.,1.));
#62 = ORIENTED_EDGE('',*,*,#63,.F.);
#63 = EDGE_CURVE('',#24,#56,#64,.T.);
#64 = LINE('',#65,#66);
#65 = CARTESIAN_POINT('',(-8.,68.9,15.));
#66 = VECTOR('',#67,1.);
#67 = DIRECTION('',(1.,0.,-1.1E-16));
#68 = FACE_BOUND('',#69,.T.);
#69 = EDGE_LOOP('',(#70,#80,#88,#96));
#70 = ORIENTED_EDGE('',*,*,#71,.T.);
#71 = EDGE_CURVE('',#72,#74,#76,.T.);
#72 = VERTEX_POINT('',#73);
#73 = CARTESIAN_POINT('',(18.,68.9,-27.15));
#74 = VERTEX_POINT('',#75);
#75 = CARTESIAN_POINT('',(-16.,68.9,-27.15));
#76 = LINE('',#77,#78);
#77 = CARTESIAN_POINT('',(14.,68.9,-27.15));
#78 = VECTOR('',#79,1.);
#79 = DIRECTION('',(-1.,0.,6.7E-16));
#80 = ORIENTED_EDGE('',*,*,#81,.F.);
#81 = EDGE_CURVE('',#82,#74,#84,.T.);
#82 = VERTEX_POINT('',#83);
#83 = CARTESIAN_POINT('',(-16.,68.9,27.15));
#84 = LINE('',#85,#86);
#85 = CARTESIAN_POINT('',(-16.,68.9,27.15));
#86 = VECTOR('',#87,1.);
#87 = DIRECTION('',(-2.2E-16,0.,-1.));
#88 = ORIENTED_EDGE('',*,*,#89,.T.);
#89 = EDGE_CURVE('',#82,#90,#92,.T.);
#90 = VERTEX_POINT('',#91);
#91 = CARTESIAN_POINT('',(18.,68.9,27.15));
#92 = LINE('',#93,#94);
#93 = CARTESIAN_POINT('',(14.,68.9,27.15));
#94 = VECTOR('',#95,1.);
#95 = DIRECTION('',(1.,0.,-5.6E-16));
#96 = ORIENTED_EDGE('',*,*,#97,.F.);
#97 = EDGE_CURVE('',#72,#90,#98,.T.);
#98 = LINE('',#99,#100);
#99 = CARTESIAN_POINT('',(18.,68.9,-27.15));
#100 = VECTOR('',#101,1.);
#101 = DIRECTION('',(2.2E-16,0.,1.));
#102 = FACE_BOUND('',#103,.T.);
#103 = EDGE_LOOP('',(#104));
#104 = ORIENTED_EDGE('',*,*,#105,.F.);
#105 = EDGE_CURVE('',#106,#106,#108,.T.);
#106 = VERTEX_POINT('',#107);
#107 = CARTESIAN_POINT('',(-5.,68.9,-3.3));
#108 = CIRCLE('',#109,3.3);
#109 = AXIS2_PLACEMENT_3D('',#110,#111,#112);
#110 = CARTESIAN_POINT('',(-5.,68.9,2.455E-14));
#111 = DIRECTION('',(0.,1.,0.));
#112 = DIRECTION('',(-2.2E-16,0.,-1.));
#113 = FACE_BOUND('',#114,.T.);
#114 = EDGE_LOOP('',(#115,#125,#133,#141,#149,#157));
#115 = ORIENTED_EDGE('',*,*,#116,.F.);
#116 = EDGE_CURVE('',#117,#119,#121,.T.);
#117 = VERTEX_POINT('',#118);
#118 = CARTESIAN_POINT('',(-1.999999999959,68.9,-13.00000000004));
#119 = VERTEX_POINT('',#120);
#120 = CARTESIAN_POINT('',(-1.999999999959,68.9,-15.00000000004));
#121 = LINE('',#122,#123);
#122 = CARTESIAN_POINT('',(-1.999999999959,68.9,-3.49999999998));
#123 = VECTOR('',#124,1.);
#124 = DIRECTION('',(-1.1E-16,0.,-1.));
#125 = ORIENTED_EDGE('',*,*,#126,.F.);
#126 = EDGE_CURVE('',#127,#117,#129,.T.);
#127 = VERTEX_POINT('',#128);
#128 = CARTESIAN_POINT('',(-1.999999999959,68.9,-6.999999999959));
#129 = LINE('',#130,#131);
#130 = CARTESIAN_POINT('',(-1.999999999959,68.9,-6.999999999959));
#131 = VECTOR('',#132,1.);
#132 = DIRECTION('',(-2.2E-16,0.,-1.));
#133 = ORIENTED_EDGE('',*,*,#134,.F.);
#134 = EDGE_CURVE('',#135,#127,#137,.T.);
#135 = VERTEX_POINT('',#136);
#136 = CARTESIAN_POINT('',(-8.00000000004,68.9,-6.999999999959));
#137 = LINE('',#138,#139);
#138 = CARTESIAN_POINT('',(-8.00000000004,68.9,-6.999999999959));
#139 = VECTOR('',#140,1.);
#140 = DIRECTION('',(1.,0.,-2.2E-16));
#141 = ORIENTED_EDGE('',*,*,#142,.F.);
#142 = EDGE_CURVE('',#143,#135,#145,.T.);
#143 = VERTEX_POINT('',#144);
#144 = CARTESIAN_POINT('',(-8.00000000004,68.9,-13.00000000004));
#145 = LINE('',#146,#147);
#146 = CARTESIAN_POINT('',(-8.00000000004,68.9,-13.00000000004));
#147 = VECTOR('',#148,1.);
#148 = DIRECTION('',(2.2E-16,0.,1.));
#149 = ORIENTED_EDGE('',*,*,#150,.T.);
#150 = EDGE_CURVE('',#143,#151,#153,.T.);
#151 = VERTEX_POINT('',#152);
#152 = CARTESIAN_POINT('',(-8.00000000004,68.9,-15.00000000004));
#153 = LINE('',#154,#155);
#154 = CARTESIAN_POINT('',(-8.00000000004,68.9,-6.50000000002));
#155 = VECTOR('',#156,1.);
#156 = DIRECTION('',(-1.1E-16,0.,-1.));
#157 = ORIENTED_EDGE('',*,*,#158,.F.);
#158 = EDGE_CURVE('',#119,#151,#159,.T.);
#159 = LINE('',#160,#161);
#160 = CARTESIAN_POINT('',(-1.999999999959,68.9,-15.00000000004));
#161 = VECTOR('',#162,1.);
#162 = DIRECTION('',(-1.,0.,1.1E-16));
#163 = PLANE('',#164);
#164 = AXIS2_PLACEMENT_3D('',#165,#166,#167);
#165 = CARTESIAN_POINT('',(1.,68.9,4.372E-14));
#166 = DIRECTION('',(0.,1.,0.));
#167 = DIRECTION('',(-1.,0.,2.2E-16));
#168 = ADVANCED_FACE('',(#169),#204,.F.);
#169 = FACE_BOUND('',#170,.F.);
#170 = EDGE_LOOP('',(#171,#181,#188,#189,#190,#198));
#171 = ORIENTED_EDGE('',*,*,#172,.F.);
#172 = EDGE_CURVE('',#173,#175,#177,.T.);
#173 = VERTEX_POINT('',#174);
#174 = CARTESIAN_POINT('',(-8.,70.9,13.));
#175 = VERTEX_POINT('',#176);
#176 = CARTESIAN_POINT('',(-8.,76.9,13.));
#177 = LINE('',#178,#179);
#178 = CARTESIAN_POINT('',(-8.,68.9,13.));
#179 = VECTOR('',#180,1.);
#180 = DIRECTION('',(0.,1.,0.));
#181 = ORIENTED_EDGE('',*,*,#182,.F.);
#182 = EDGE_CURVE('',#24,#173,#183,.T.);
#183 = CIRCLE('',#184,2.);
#184 = AXIS2_PLACEMENT_3D('',#185,#186,#187);
#185 = CARTESIAN_POINT('',(-8.,70.9,15.));
#186 = DIRECTION('',(1.,0.,-1.1E-16));
#187 = DIRECTION('',(1.1E-16,0.,1.));
#188 = ORIENTED_EDGE('',*,*,#21,.F.);
#189 = ORIENTED_EDGE('',*,*,#31,.F.);
#190 = ORIENTED_EDGE('',*,*,#191,.T.);
#191 = EDGE_CURVE('',#32,#192,#194,.T.);
#192 = VERTEX_POINT('',#193);
#193 = CARTESIAN_POINT('',(-8.,76.9,7.));
#194 = LINE('',#195,#196);
#195 = CARTESIAN_POINT('',(-8.,68.9,7.));
#196 = VECTOR('',#197,1.);
#197 = DIRECTION('',(0.,1.,0.));
#198 = ORIENTED_EDGE('',*,*,#199,.T.);
#199 = EDGE_CURVE('',#192,#175,#200,.T.);
#200 = LINE('',#201,#202);
#201 = CARTESIAN_POINT('',(-8.,76.9,7.));
#202 = VECTOR('',#203,1.);
#203 = DIRECTION('',(2.2E-16,0.,1.));
#204 = PLANE('',#205);
#205 = AXIS2_PLACEMENT_3D('',#206,#207,#208);
#206 = CARTESIAN_POINT('',(-8.,68.9,7.));
#207 = DIRECTION('',(1.,0.,-1.1E-16));
#208 = DIRECTION('',(1.1E-16,0.,1.));
#209 = ADVANCED_FACE('',(#210),#229,.F.);
#210 = FACE_BOUND('',#211,.F.);
#211 = EDGE_LOOP('',(#212,#213,#221,#228));
#212 = ORIENTED_EDGE('',*,*,#182,.T.);
#213 = ORIENTED_EDGE('',*,*,#214,.T.);
#214 = EDGE_CURVE('',#173,#215,#217,.T.);
#215 = VERTEX_POINT('',#216);
#216 = CARTESIAN_POINT('',(-2.,70.9,13.));
#217 = LINE('',#218,#219);
#218 = CARTESIAN_POINT('',(-8.,70.9,13.));
#219 = VECTOR('',#220,1.);
#220 = DIRECTION('',(1.,0.,-1.1E-16));
#221 = ORIENTED_EDGE('',*,*,#222,.F.);
#222 = EDGE_CURVE('',#56,#215,#223,.T.);
#223 = CIRCLE('',#224,2.);
#224 = AXIS2_PLACEMENT_3D('',#225,#226,#227);
#225 = CARTESIAN_POINT('',(-2.,70.9,15.));
#226 = DIRECTION('',(1.,0.,-1.1E-16));
#227 = DIRECTION('',(1.1E-16,0.,1.));
#228 = ORIENTED_EDGE('',*,*,#63,.F.);
#229 = CYLINDRICAL_SURFACE('',#230,2.);
#230 = AXIS2_PLACEMENT_3D('',#231,#232,#233);
#231 = CARTESIAN_POINT('',(-8.,70.9,15.));
#232 = DIRECTION('',(1.,0.,-1.1E-16));
#233 = DIRECTION('',(0.,-1.,0.));
#234 = ADVANCED_FACE('',(#235),#253,.F.);
#235 = FACE_BOUND('',#236,.F.);
#236 = EDGE_LOOP('',(#237,#245,#251,#252));
#237 = ORIENTED_EDGE('',*,*,#238,.T.);
#238 = EDGE_CURVE('',#40,#239,#241,.T.);
#239 = VERTEX_POINT('',#240);
#240 = CARTESIAN_POINT('',(-2.,76.9,7.));
#241 = LINE('',#242,#243);
#242 = CARTESIAN_POINT('',(-2.,68.9,7.));
#243 = VECTOR('',#244,1.);
#244 = DIRECTION('',(0.,1.,0.));
#245 = ORIENTED_EDGE('',*,*,#246,.T.);
#246 = EDGE_CURVE('',#239,#192,#247,.T.);
#247 = LINE('',#248,#249);
#248 = CARTESIAN_POINT('',(-2.,76.9,7.));
#249 = VECTOR('',#250,1.);
#250 = DIRECTION('',(-1.,0.,2.2E-16));
#251 = ORIENTED_EDGE('',*,*,#191,.F.);
#252 = ORIENTED_EDGE('',*,*,#39,.F.);
#253 = PLANE('',#254);
#254 = AXIS2_PLACEMENT_3D('',#255,#256,#257);
#255 = CARTESIAN_POINT('',(-2.,68.9,7.));
#256 = DIRECTION('',(1.1E-16,0.,1.));
#257 = DIRECTION('',(-1.,0.,1.1E-16));
#258 = ADVANCED_FACE('',(#259),#279,.F.);
#259 = FACE_BOUND('',#260,.F.);
#260 = EDGE_LOOP('',(#261,#269,#275,#276,#277,#278));
#261 = ORIENTED_EDGE('',*,*,#262,.T.);
#262 = EDGE_CURVE('',#215,#263,#265,.T.);
#263 = VERTEX_POINT('',#264);
#264 = CARTESIAN_POINT('',(-2.,76.9,13.));
#265 = LINE('',#266,#267);
#266 = CARTESIAN_POINT('',(-2.,68.9,13.));
#267 = VECTOR('',#268,1.);
#268 = DIRECTION('',(0.,1.,0.));
#269 = ORIENTED_EDGE('',*,*,#270,.T.);
#270 = EDGE_CURVE('',#263,#239,#271,.T.);
#271 = LINE('',#272,#273);
#272 = CARTESIAN_POINT('',(-2.,76.9,13.));
#273 = VECTOR('',#274,1.);
#274 = DIRECTION('',(-2.2E-16,0.,-1.));
#275 = ORIENTED_EDGE('',*,*,#238,.F.);
#276 = ORIENTED_EDGE('',*,*,#47,.F.);
#277 = ORIENTED_EDGE('',*,*,#55,.T.);
#278 = ORIENTED_EDGE('',*,*,#222,.T.);
#279 = PLANE('',#280);
#280 = AXIS2_PLACEMENT_3D('',#281,#282,#283);
#281 = CARTESIAN_POINT('',(-2.,68.9,13.));
#282 = DIRECTION('',(-1.,0.,1.1E-16));
#283 = DIRECTION('',(-1.1E-16,0.,-1.));
#284 = ADVANCED_FACE('',(#285),#342,.T.);
#285 = FACE_BOUND('',#286,.T.);
#286 = EDGE_LOOP('',(#287,#297,#305,#313,#321,#327,#328,#336));
#287 = ORIENTED_EDGE('',*,*,#288,.T.);
#288 = EDGE_CURVE('',#289,#291,#293,.T.);
#289 = VERTEX_POINT('',#290);
#290 = CARTESIAN_POINT('',(14.,28.85,-27.15));
#291 = VERTEX_POINT('',#292);
#292 = CARTESIAN_POINT('',(14.,28.9,-27.15));
#293 = LINE('',#294,#295);
#294 = CARTESIAN_POINT('',(14.,22.85,-27.15));
#295 = VECTOR('',#296,1.);
#296 = DIRECTION('',(0.,1.,0.));
#297 = ORIENTED_EDGE('',*,*,#298,.T.);
#298 = EDGE_CURVE('',#291,#299,#301,.T.);
#299 = VERTEX_POINT('',#300);
#300 = CARTESIAN_POINT('',(4.,38.9,-27.15));
#301 = LINE('',#302,#303);
#302 = CARTESIAN_POINT('',(1.5,41.4,-27.15));
#303 = VECTOR('',#304,1.);
#304 = DIRECTION('',(-0.707106781187,0.707106781187,3.1E-16));
#305 = ORIENTED_EDGE('',*,*,#306,.T.);
#306 = EDGE_CURVE('',#299,#307,#309,.T.);
#307 = VERTEX_POINT('',#308);
#308 = CARTESIAN_POINT('',(-6.,38.9,-27.15));
#309 = LINE('',#310,#311);
#310 = CARTESIAN_POINT('',(14.,38.9,-27.15));
#311 = VECTOR('',#312,1.);
#312 = DIRECTION('',(-1.,0.,3.3E-16));
#313 = ORIENTED_EDGE('',*,*,#314,.F.);
#314 = EDGE_CURVE('',#315,#307,#317,.T.);
#315 = VERTEX_POINT('',#316);
#316 = CARTESIAN_POINT('',(-16.,48.9,-27.15));
#317 = LINE('',#318,#319);
#318 = CARTESIAN_POINT('',(-11.,43.9,-27.15));
#319 = VECTOR('',#320,1.);
#320 = DIRECTION('',(0.707106781187,-0.707106781187,-3.1E-16));
#321 = ORIENTED_EDGE('',*,*,#322,.F.);
#322 = EDGE_CURVE('',#74,#315,#323,.T.);
#323 = LINE('',#324,#325);
#324 = CARTESIAN_POINT('',(-16.,68.9,-27.15));
#325 = VECTOR('',#326,1.);
#326 = DIRECTION('',(0.,-1.,0.));
#327 = ORIENTED_EDGE('',*,*,#71,.F.);
#328 = ORIENTED_EDGE('',*,*,#329,.F.);
#329 = EDGE_CURVE('',#330,#72,#332,.T.);
#330 = VERTEX_POINT('',#331);
#331 = CARTESIAN_POINT('',(18.,28.85,-27.15));
#332 = LINE('',#333,#334);
#333 = CARTESIAN_POINT('',(18.,22.85,-27.15));
#334 = VECTOR('',#335,1.);
#335 = DIRECTION('',(0.,1.,0.));
#336 = ORIENTED_EDGE('',*,*,#337,.F.);
#337 = EDGE_CURVE('',#289,#330,#338,.T.);
#338 = LINE('',#339,#340);
#339 = CARTESIAN_POINT('',(14.,28.85,-27.15));
#340 = VECTOR('',#341,1.);
#341 = DIRECTION('',(1.,0.,-3.3E-16));
#342 = PLANE('',#343);
#343 = AXIS2_PLACEMENT_3D('',#344,#345,#346);
#344 = CARTESIAN_POINT('',(3.382470167073,51.942541370276,-27.15));
#345 = DIRECTION('',(-7.3E-16,0.,-1.));
#346 = DIRECTION('',(1.,0.,-7.3E-16));
#347 = ADVANCED_FACE('',(#348),#414,.F.);
#348 = FACE_BOUND('',#349,.F.);
#349 = EDGE_LOOP('',(#350,#358,#366,#374,#382,#390,#398,#406,#412,#413)
  );
#350 = ORIENTED_EDGE('',*,*,#351,.F.);
#351 = EDGE_CURVE('',#352,#82,#354,.T.);
#352 = VERTEX_POINT('',#353);
#353 = CARTESIAN_POINT('',(-16.,48.9,27.15));
#354 = LINE('',#355,#356);
#355 = CARTESIAN_POINT('',(-16.,38.9,27.15));
#356 = VECTOR('',#357,1.);
#357 = DIRECTION('',(0.,1.,0.));
#358 = ORIENTED_EDGE('',*,*,#359,.F.);
#359 = EDGE_CURVE('',#360,#352,#362,.T.);
#360 = VERTEX_POINT('',#361);
#361 = CARTESIAN_POINT('',(-16.,48.9,21.15));
#362 = LINE('',#363,#364);
#363 = CARTESIAN_POINT('',(-16.,48.9,21.15));
#364 = VECTOR('',#365,1.);
#365 = DIRECTION('',(4.4E-16,0.,1.));
#366 = ORIENTED_EDGE('',*,*,#367,.F.);
#367 = EDGE_CURVE('',#368,#360,#370,.T.);
#368 = VERTEX_POINT('',#369);
#369 = CARTESIAN_POINT('',(-16.,61.65,21.15));
#370 = LINE('',#371,#372);
#371 = CARTESIAN_POINT('',(-16.,61.65,21.15));
#372 = VECTOR('',#373,1.);
#373 = DIRECTION('',(0.,-1.,0.));
#374 = ORIENTED_EDGE('',*,*,#375,.F.);
#375 = EDGE_CURVE('',#376,#368,#378,.T.);
#376 = VERTEX_POINT('',#377);
#377 = CARTESIAN_POINT('',(-16.,65.15,17.65));
#378 = LINE('',#379,#380);
#379 = CARTESIAN_POINT('',(-16.,65.15,17.65));
#380 = VECTOR('',#381,1.);
#381 = DIRECTION('',(1.6E-16,-0.707106781187,0.707106781187));
#382 = ORIENTED_EDGE('',*,*,#383,.F.);
#383 = EDGE_CURVE('',#384,#376,#386,.T.);
#384 = VERTEX_POINT('',#385);
#385 = CARTESIAN_POINT('',(-16.,65.15,-17.65));
#386 = LINE('',#387,#388);
#387 = CARTESIAN_POINT('',(-16.,65.15,-17.65));
#388 = VECTOR('',#389,1.);
#389 = DIRECTION('',(2.2E-16,0.,1.));
#390 = ORIENTED_EDGE('',*,*,#391,.F.);
#391 = EDGE_CURVE('',#392,#384,#394,.T.);
#392 = VERTEX_POINT('',#393);
#393 = CARTESIAN_POINT('',(-16.,61.65,-21.15));
#394 = LINE('',#395,#396);
#395 = CARTESIAN_POINT('',(-16.,61.65,-21.15));
#396 = VECTOR('',#397,1.);
#397 = DIRECTION('',(1.6E-16,0.707106781187,0.707106781187));
#398 = ORIENTED_EDGE('',*,*,#399,.F.);
#399 = EDGE_CURVE('',#400,#392,#402,.T.);
#400 = VERTEX_POINT('',#401);
#401 = CARTESIAN_POINT('',(-16.,48.9,-21.15));
#402 = LINE('',#403,#404);
#403 = CARTESIAN_POINT('',(-16.,38.9,-21.15));
#404 = VECTOR('',#405,1.);
#405 = DIRECTION('',(0.,1.,0.));
#406 = ORIENTED_EDGE('',*,*,#407,.F.);
#407 = EDGE_CURVE('',#315,#400,#408,.T.);
#408 = LINE('',#409,#410);
#409 = CARTESIAN_POINT('',(-16.,48.9,-27.15));
#410 = VECTOR('',#411,1.);
#411 = DIRECTION('',(4.4E-16,0.,1.));
#412 = ORIENTED_EDGE('',*,*,#322,.F.);
#413 = ORIENTED_EDGE('',*,*,#81,.F.);
#414 = PLANE('',#415);
#415 = AXIS2_PLACEMENT_3D('',#416,#417,#418);
#416 = CARTESIAN_POINT('',(-16.,58.327349944655,5.684341886081E-14));
#417 = DIRECTION('',(1.,0.,-2.2E-16));
#418 = DIRECTION('',(2.2E-16,0.,1.));
#419 = ADVANCED_FACE('',(#420),#470,.T.);
#420 = FACE_BOUND('',#421,.T.);
#421 = EDGE_LOOP('',(#422,#432,#440,#446,#447,#448,#456,#464));
#422 = ORIENTED_EDGE('',*,*,#423,.T.);
#423 = EDGE_CURVE('',#424,#426,#428,.T.);
#424 = VERTEX_POINT('',#425);
#425 = CARTESIAN_POINT('',(14.,28.9,27.15));
#426 = VERTEX_POINT('',#427);
#427 = CARTESIAN_POINT('',(14.,28.85,27.15));
#428 = LINE('',#429,#430);
#429 = CARTESIAN_POINT('',(14.,68.9,27.15));
#430 = VECTOR('',#431,1.);
#431 = DIRECTION('',(0.,-1.,0.));
#432 = ORIENTED_EDGE('',*,*,#433,.T.);
#433 = EDGE_CURVE('',#426,#434,#436,.T.);
#434 = VERTEX_POINT('',#435);
#435 = CARTESIAN_POINT('',(18.,28.85,27.15));
#436 = LINE('',#437,#438);
#437 = CARTESIAN_POINT('',(14.,28.85,27.15));
#438 = VECTOR('',#439,1.);
#439 = DIRECTION('',(1.,0.,-3.3E-16));
#440 = ORIENTED_EDGE('',*,*,#441,.F.);
#441 = EDGE_CURVE('',#90,#434,#442,.T.);
#442 = LINE('',#443,#444);
#443 = CARTESIAN_POINT('',(18.,68.9,27.15));
#444 = VECTOR('',#445,1.);
#445 = DIRECTION('',(0.,-1.,0.));
#446 = ORIENTED_EDGE('',*,*,#89,.F.);
#447 = ORIENTED_EDGE('',*,*,#351,.F.);
#448 = ORIENTED_EDGE('',*,*,#449,.F.);
#449 = EDGE_CURVE('',#450,#352,#452,.T.);
#450 = VERTEX_POINT('',#451);
#451 = CARTESIAN_POINT('',(-6.,38.9,27.15));
#452 = LINE('',#453,#454);
#453 = CARTESIAN_POINT('',(-3.5,36.4,27.15));
#454 = VECTOR('',#455,1.);
#455 = DIRECTION('',(-0.707106781187,0.707106781187,3.1E-16));
#456 = ORIENTED_EDGE('',*,*,#457,.F.);
#457 = EDGE_CURVE('',#458,#450,#460,.T.);
#458 = VERTEX_POINT('',#459);
#459 = CARTESIAN_POINT('',(4.,38.9,27.15));
#460 = LINE('',#461,#462);
#461 = CARTESIAN_POINT('',(14.,38.9,27.15));
#462 = VECTOR('',#463,1.);
#463 = DIRECTION('',(-1.,0.,3.3E-16));
#464 = ORIENTED_EDGE('',*,*,#465,.T.);
#465 = EDGE_CURVE('',#458,#424,#466,.T.);
#466 = LINE('',#467,#468);
#467 = CARTESIAN_POINT('',(9.,33.9,27.15));
#468 = VECTOR('',#469,1.);
#469 = DIRECTION('',(0.707106781187,-0.707106781187,-3.1E-16));
#470 = PLANE('',#471);
#471 = AXIS2_PLACEMENT_3D('',#472,#473,#474);
#472 = CARTESIAN_POINT('',(3.382470167073,51.942541370276,27.15));
#473 = DIRECTION('',(7.5E-16,0.,1.));
#474 = DIRECTION('',(-1.,0.,7.5E-16));
#475 = ADVANCED_FACE('',(#476,#503,#514,#525,#536,#547),#558,.T.);
#476 = FACE_BOUND('',#477,.T.);
#477 = EDGE_LOOP('',(#478,#479,#487,#495,#501,#502));
#478 = ORIENTED_EDGE('',*,*,#441,.T.);
#479 = ORIENTED_EDGE('',*,*,#480,.T.);
#480 = EDGE_CURVE('',#434,#481,#483,.T.);
#481 = VERTEX_POINT('',#482);
#482 = CARTESIAN_POINT('',(18.,22.85,21.15));
#483 = LINE('',#484,#485);
#484 = CARTESIAN_POINT('',(18.,24.666944038847,22.966944038847));
#485 = VECTOR('',#486,1.);
#486 = DIRECTION('',(-8.E-17,-0.707106781187,-0.707106781187));
#487 = ORIENTED_EDGE('',*,*,#488,.T.);
#488 = EDGE_CURVE('',#481,#489,#491,.T.);
#489 = VERTEX_POINT('',#490);
#490 = CARTESIAN_POINT('',(18.,22.85,-21.15));
#491 = LINE('',#492,#493);
#492 = CARTESIAN_POINT('',(18.,22.85,27.15));
#493 = VECTOR('',#494,1.);
#494 = DIRECTION('',(-2.2E-16,0.,-1.));
#495 = ORIENTED_EDGE('',*,*,#496,.F.);
#496 = EDGE_CURVE('',#330,#489,#497,.T.);
#497 = LINE('',#498,#499);
#498 = CARTESIAN_POINT('',(18.,24.666944038847,-22.96694403884));
#499 = VECTOR('',#500,1.);
#500 = DIRECTION('',(8.E-17,-0.707106781187,0.707106781187));
#501 = ORIENTED_EDGE('',*,*,#329,.T.);
#502 = ORIENTED_EDGE('',*,*,#97,.T.);
#503 = FACE_BOUND('',#504,.F.);
#504 = EDGE_LOOP('',(#505));
#505 = ORIENTED_EDGE('',*,*,#506,.T.);
#506 = EDGE_CURVE('',#507,#507,#509,.T.);
#507 = VERTEX_POINT('',#508);
#508 = CARTESIAN_POINT('',(18.,44.,12.5));
#509 = CIRCLE('',#510,12.5);
#510 = AXIS2_PLACEMENT_3D('',#511,#512,#513);
#511 = CARTESIAN_POINT('',(18.,44.,3.552713678801E-14));
#512 = DIRECTION('',(1.,0.,-2.2E-16));
#513 = DIRECTION('',(2.2E-16,0.,1.));
#514 = FACE_BOUND('',#515,.F.);
#515 = EDGE_LOOP('',(#516));
#516 = ORIENTED_EDGE('',*,*,#517,.T.);
#517 = EDGE_CURVE('',#518,#518,#520,.T.);
#518 = VERTEX_POINT('',#519);
#519 = CARTESIAN_POINT('',(18.,59.5,-14.));
#520 = CIRCLE('',#521,1.5);
#521 = AXIS2_PLACEMENT_3D('',#522,#523,#524);
#522 = CARTESIAN_POINT('',(18.,59.5,-15.5));
#523 = DIRECTION('',(1.,0.,-2.2E-16));
#524 = DIRECTION('',(2.2E-16,0.,1.));
#525 = FACE_BOUND('',#526,.F.);
#526 = EDGE_LOOP('',(#527));
#527 = ORIENTED_EDGE('',*,*,#528,.T.);
#528 = EDGE_CURVE('',#529,#529,#531,.T.);
#529 = VERTEX_POINT('',#530);
#530 = CARTESIAN_POINT('',(18.,28.5,-14.));
#531 = CIRCLE('',#532,1.5);
#532 = AXIS2_PLACEMENT_3D('',#533,#534,#535);
#533 = CARTESIAN_POINT('',(18.,28.5,-15.5));
#534 = DIRECTION('',(1.,0.,-2.2E-16));
#535 = DIRECTION('',(2.2E-16,0.,1.));
#536 = FACE_BOUND('',#537,.F.);
#537 = EDGE_LOOP('',(#538));
#538 = ORIENTED_EDGE('',*,*,#539,.T.);
#539 = EDGE_CURVE('',#540,#540,#542,.T.);
#540 = VERTEX_POINT('',#541);
#541 = CARTESIAN_POINT('',(18.,59.5,17.));
#542 = CIRCLE('',#543,1.5);
#543 = AXIS2_PLACEMENT_3D('',#544,#545,#546);
#544 = CARTESIAN_POINT('',(18.,59.5,15.5));
#545 = DIRECTION('',(1.,0.,-2.2E-16));
#546 = DIRECTION('',(2.2E-16,0.,1.));
#547 = FACE_BOUND('',#548,.F.);
#548 = EDGE_LOOP('',(#549));
#549 = ORIENTED_EDGE('',*,*,#550,.T.);
#550 = EDGE_CURVE('',#551,#551,#553,.T.);
#551 = VERTEX_POINT('',#552);
#552 = CARTESIAN_POINT('',(18.,28.5,17.));
#553 = CIRCLE('',#554,1.5);
#554 = AXIS2_PLACEMENT_3D('',#555,#556,#557);
#555 = CARTESIAN_POINT('',(18.,28.5,15.5));
#556 = DIRECTION('',(1.,0.,-2.2E-16));
#557 = DIRECTION('',(2.2E-16,0.,1.));
#558 = PLANE('',#559);
#559 = AXIS2_PLACEMENT_3D('',#560,#561,#562);
#560 = CARTESIAN_POINT('',(18.,45.267776155389,3.552713678801E-14));
#561 = DIRECTION('',(1.,0.,-2.2E-16));
#562 = DIRECTION('',(2.2E-16,0.,1.));
#563 = ADVANCED_FACE('',(#564),#583,.F.);
#564 = FACE_BOUND('',#565,.T.);
#565 = EDGE_LOOP('',(#566,#574,#581,#582));
#566 = ORIENTED_EDGE('',*,*,#567,.F.);
#567 = EDGE_CURVE('',#568,#106,#570,.T.);
#568 = VERTEX_POINT('',#569);
#569 = CARTESIAN_POINT('',(-5.,68.55,-3.3));
#570 = LINE('',#571,#572);
#571 = CARTESIAN_POINT('',(-5.,68.55,-3.3));
#572 = VECTOR('',#573,1.);
#573 = DIRECTION('',(0.,1.,6.E-17));
#574 = ORIENTED_EDGE('',*,*,#575,.T.);
#575 = EDGE_CURVE('',#568,#568,#576,.T.);
#576 = CIRCLE('',#577,3.3);
#577 = AXIS2_PLACEMENT_3D('',#578,#579,#580);
#578 = CARTESIAN_POINT('',(-5.,68.55,2.13162820728E-14));
#579 = DIRECTION('',(0.,-1.,-0.));
#580 = DIRECTION('',(-2.2E-16,0.,-1.));
#581 = ORIENTED_EDGE('',*,*,#567,.T.);
#582 = ORIENTED_EDGE('',*,*,#105,.T.);
#583 = CYLINDRICAL_SURFACE('',#584,3.3);
#584 = AXIS2_PLACEMENT_3D('',#585,#586,#587);
#585 = CARTESIAN_POINT('',(-5.,68.55,2.13162820728E-14));
#586 = DIRECTION('',(0.,1.,0.));
#587 = DIRECTION('',(-2.2E-16,0.,-1.));
#588 = ADVANCED_FACE('',(#589),#624,.F.);
#589 = FACE_BOUND('',#590,.F.);
#590 = EDGE_LOOP('',(#591,#601,#608,#609,#610,#618));
#591 = ORIENTED_EDGE('',*,*,#592,.F.);
#592 = EDGE_CURVE('',#593,#595,#597,.T.);
#593 = VERTEX_POINT('',#594);
#594 = CARTESIAN_POINT('',(-1.999999999959,70.9,-13.00000000004));
#595 = VERTEX_POINT('',#596);
#596 = CARTESIAN_POINT('',(-1.999999999959,76.9,-13.00000000004));
#597 = LINE('',#598,#599);
#598 = CARTESIAN_POINT('',(-1.999999999959,68.9,-13.00000000004));
#599 = VECTOR('',#600,1.);
#600 = DIRECTION('',(0.,1.,0.));
#601 = ORIENTED_EDGE('',*,*,#602,.F.);
#602 = EDGE_CURVE('',#119,#593,#603,.T.);
#603 = CIRCLE('',#604,2.);
#604 = AXIS2_PLACEMENT_3D('',#605,#606,#607);
#605 = CARTESIAN_POINT('',(-1.999999999959,70.9,-15.00000000004));
#606 = DIRECTION('',(-1.,0.,1.1E-16));
#607 = DIRECTION('',(-1.1E-16,0.,-1.));
#608 = ORIENTED_EDGE('',*,*,#116,.F.);
#609 = ORIENTED_EDGE('',*,*,#126,.F.);
#610 = ORIENTED_EDGE('',*,*,#611,.T.);
#611 = EDGE_CURVE('',#127,#612,#614,.T.);
#612 = VERTEX_POINT('',#613);
#613 = CARTESIAN_POINT('',(-1.999999999959,76.9,-6.999999999959));
#614 = LINE('',#615,#616);
#615 = CARTESIAN_POINT('',(-1.999999999959,68.9,-6.999999999959));
#616 = VECTOR('',#617,1.);
#617 = DIRECTION('',(0.,1.,0.));
#618 = ORIENTED_EDGE('',*,*,#619,.T.);
#619 = EDGE_CURVE('',#612,#595,#620,.T.);
#620 = LINE('',#621,#622);
#621 = CARTESIAN_POINT('',(-1.999999999959,76.9,-6.999999999959));
#622 = VECTOR('',#623,1.);
#623 = DIRECTION('',(-2.2E-16,0.,-1.));
#624 = PLANE('',#625);
#625 = AXIS2_PLACEMENT_3D('',#626,#627,#628);
#626 = CARTESIAN_POINT('',(-1.999999999959,68.9,-6.999999999959));
#627 = DIRECTION('',(-1.,0.,1.1E-16));
#628 = DIRECTION('',(-1.1E-16,0.,-1.));
#629 = ADVANCED_FACE('',(#630),#649,.F.);
#630 = FACE_BOUND('',#631,.F.);
#631 = EDGE_LOOP('',(#632,#633,#641,#648));
#632 = ORIENTED_EDGE('',*,*,#602,.T.);
#633 = ORIENTED_EDGE('',*,*,#634,.T.);
#634 = EDGE_CURVE('',#593,#635,#637,.T.);
#635 = VERTEX_POINT('',#636);
#636 = CARTESIAN_POINT('',(-8.00000000004,70.9,-13.00000000004));
#637 = LINE('',#638,#639);
#638 = CARTESIAN_POINT('',(-1.999999999959,70.9,-13.00000000004));
#639 = VECTOR('',#640,1.);
#640 = DIRECTION('',(-1.,0.,1.1E-16));
#641 = ORIENTED_EDGE('',*,*,#642,.F.);
#642 = EDGE_CURVE('',#151,#635,#643,.T.);
#643 = CIRCLE('',#644,2.);
#644 = AXIS2_PLACEMENT_3D('',#645,#646,#647);
#645 = CARTESIAN_POINT('',(-8.00000000004,70.9,-15.00000000004));
#646 = DIRECTION('',(-1.,0.,1.1E-16));
#647 = DIRECTION('',(-1.1E-16,0.,-1.));
#648 = ORIENTED_EDGE('',*,*,#158,.F.);
#649 = CYLINDRICAL_SURFACE('',#650,2.);
#650 = AXIS2_PLACEMENT_3D('',#651,#652,#653);
#651 = CARTESIAN_POINT('',(-1.999999999959,70.9,-15.00000000004));
#652 = DIRECTION('',(-1.,0.,1.1E-16));
#653 = DIRECTION('',(-0.,-1.,0.));
#654 = ADVANCED_FACE('',(#655),#673,.F.);
#655 = FACE_BOUND('',#656,.F.);
#656 = EDGE_LOOP('',(#657,#665,#671,#672));
#657 = ORIENTED_EDGE('',*,*,#658,.T.);
#658 = EDGE_CURVE('',#135,#659,#661,.T.);
#659 = VERTEX_POINT('',#660);
#660 = CARTESIAN_POINT('',(-8.00000000004,76.9,-6.999999999959));
#661 = LINE('',#662,#663);
#662 = CARTESIAN_POINT('',(-8.00000000004,68.9,-6.999999999959));
#663 = VECTOR('',#664,1.);
#664 = DIRECTION('',(0.,1.,0.));
#665 = ORIENTED_EDGE('',*,*,#666,.T.);
#666 = EDGE_CURVE('',#659,#612,#667,.T.);
#667 = LINE('',#668,#669);
#668 = CARTESIAN_POINT('',(-8.00000000004,76.9,-6.999999999959));
#669 = VECTOR('',#670,1.);
#670 = DIRECTION('',(1.,0.,-2.2E-16));
#671 = ORIENTED_EDGE('',*,*,#611,.F.);
#672 = ORIENTED_EDGE('',*,*,#134,.F.);
#673 = PLANE('',#674);
#674 = AXIS2_PLACEMENT_3D('',#675,#676,#677);
#675 = CARTESIAN_POINT('',(-8.00000000004,68.9,-6.999999999959));
#676 = DIRECTION('',(-1.1E-16,0.,-1.));
#677 = DIRECTION('',(1.,0.,-1.1E-16));
#678 = ADVANCED_FACE('',(#679),#699,.F.);
#679 = FACE_BOUND('',#680,.F.);
#680 = EDGE_LOOP('',(#681,#689,#695,#696,#697,#698));
#681 = ORIENTED_EDGE('',*,*,#682,.T.);
#682 = EDGE_CURVE('',#635,#683,#685,.T.);
#683 = VERTEX_POINT('',#684);
#684 = CARTESIAN_POINT('',(-8.00000000004,76.9,-13.00000000004));
#685 = LINE('',#686,#687);
#686 = CARTESIAN_POINT('',(-8.00000000004,68.9,-13.00000000004));
#687 = VECTOR('',#688,1.);
#688 = DIRECTION('',(0.,1.,0.));
#689 = ORIENTED_EDGE('',*,*,#690,.T.);
#690 = EDGE_CURVE('',#683,#659,#691,.T.);
#691 = LINE('',#692,#693);
#692 = CARTESIAN_POINT('',(-8.00000000004,76.9,-13.00000000004));
#693 = VECTOR('',#694,1.);
#694 = DIRECTION('',(2.2E-16,0.,1.));
#695 = ORIENTED_EDGE('',*,*,#658,.F.);
#696 = ORIENTED_EDGE('',*,*,#142,.F.);
#697 = ORIENTED_EDGE('',*,*,#150,.T.);
#698 = ORIENTED_EDGE('',*,*,#642,.T.);
#699 = PLANE('',#700);
#700 = AXIS2_PLACEMENT_3D('',#701,#702,#703);
#701 = CARTESIAN_POINT('',(-8.00000000004,68.9,-13.00000000004));
#702 = DIRECTION('',(1.,0.,-1.1E-16));
#703 = DIRECTION('',(1.1E-16,0.,1.));
#704 = ADVANCED_FACE('',(#705),#716,.F.);
#705 = FACE_BOUND('',#706,.F.);
#706 = EDGE_LOOP('',(#707,#708,#714,#715));
#707 = ORIENTED_EDGE('',*,*,#172,.T.);
#708 = ORIENTED_EDGE('',*,*,#709,.T.);
#709 = EDGE_CURVE('',#175,#263,#710,.T.);
#710 = LINE('',#711,#712);
#711 = CARTESIAN_POINT('',(-8.,76.9,13.));
#712 = VECTOR('',#713,1.);
#713 = DIRECTION('',(1.,0.,-2.2E-16));
#714 = ORIENTED_EDGE('',*,*,#262,.F.);
#715 = ORIENTED_EDGE('',*,*,#214,.F.);
#716 = PLANE('',#717);
#717 = AXIS2_PLACEMENT_3D('',#718,#719,#720);
#718 = CARTESIAN_POINT('',(-8.,68.9,13.));
#719 = DIRECTION('',(-1.1E-16,0.,-1.));
#720 = DIRECTION('',(1.,0.,-1.1E-16));
#721 = ADVANCED_FACE('',(#722),#728,.T.);
#722 = FACE_BOUND('',#723,.T.);
#723 = EDGE_LOOP('',(#724,#725,#726,#727));
#724 = ORIENTED_EDGE('',*,*,#270,.T.);
#725 = ORIENTED_EDGE('',*,*,#246,.T.);
#726 = ORIENTED_EDGE('',*,*,#199,.T.);
#727 = ORIENTED_EDGE('',*,*,#709,.T.);
#728 = PLANE('',#729);
#729 = AXIS2_PLACEMENT_3D('',#730,#731,#732);
#730 = CARTESIAN_POINT('',(-5.,76.9,-6.754419246136E-11));
#731 = DIRECTION('',(0.,1.,0.));
#732 = DIRECTION('',(2.2E-16,0.,1.));
#733 = ADVANCED_FACE('',(#734,#814,#825,#836,#847,#858),#869,.F.);
#734 = FACE_BOUND('',#735,.F.);
#735 = EDGE_LOOP('',(#736,#737,#745,#753,#761,#769,#777,#785,#791,#792,
    #800,#808));
#736 = ORIENTED_EDGE('',*,*,#288,.T.);
#737 = ORIENTED_EDGE('',*,*,#738,.T.);
#738 = EDGE_CURVE('',#291,#739,#741,.T.);
#739 = VERTEX_POINT('',#740);
#740 = CARTESIAN_POINT('',(14.,28.9,-21.15));
#741 = LINE('',#742,#743);
#742 = CARTESIAN_POINT('',(14.,28.9,-27.15));
#743 = VECTOR('',#744,1.);
#744 = DIRECTION('',(4.4E-16,0.,1.));
#745 = ORIENTED_EDGE('',*,*,#746,.T.);
#746 = EDGE_CURVE('',#739,#747,#749,.T.);
#747 = VERTEX_POINT('',#748);
#748 = CARTESIAN_POINT('',(14.,61.65,-21.15));
#749 = LINE('',#750,#751);
#750 = CARTESIAN_POINT('',(14.,38.9,-21.15));
#751 = VECTOR('',#752,1.);
#752 = DIRECTION('',(0.,1.,0.));
#753 = ORIENTED_EDGE('',*,*,#754,.T.);
#754 = EDGE_CURVE('',#747,#755,#757,.T.);
#755 = VERTEX_POINT('',#756);
#756 = CARTESIAN_POINT('',(14.,65.15,-17.65));
#757 = LINE('',#758,#759);
#758 = CARTESIAN_POINT('',(14.,61.65,-21.15));
#759 = VECTOR('',#760,1.);
#760 = DIRECTION('',(1.6E-16,0.707106781187,0.707106781187));
#761 = ORIENTED_EDGE('',*,*,#762,.T.);
#762 = EDGE_CURVE('',#755,#763,#765,.T.);
#763 = VERTEX_POINT('',#764);
#764 = CARTESIAN_POINT('',(14.,65.15,17.65));
#765 = LINE('',#766,#767);
#766 = CARTESIAN_POINT('',(14.,65.15,-17.65));
#767 = VECTOR('',#768,1.);
#768 = DIRECTION('',(2.2E-16,0.,1.));
#769 = ORIENTED_EDGE('',*,*,#770,.T.);
#770 = EDGE_CURVE('',#763,#771,#773,.T.);
#771 = VERTEX_POINT('',#772);
#772 = CARTESIAN_POINT('',(14.,61.65,21.15));
#773 = LINE('',#774,#775);
#774 = CARTESIAN_POINT('',(14.,65.15,17.65));
#775 = VECTOR('',#776,1.);
#776 = DIRECTION('',(1.6E-16,-0.707106781187,0.707106781187));
#777 = ORIENTED_EDGE('',*,*,#778,.T.);
#778 = EDGE_CURVE('',#771,#779,#781,.T.);
#779 = VERTEX_POINT('',#780);
#780 = CARTESIAN_POINT('',(14.,28.9,21.15));
#781 = LINE('',#782,#783);
#782 = CARTESIAN_POINT('',(14.,53.458888077694,21.15));
#783 = VECTOR('',#784,1.);
#784 = DIRECTION('',(0.,-1.,0.));
#785 = ORIENTED_EDGE('',*,*,#786,.T.);
#786 = EDGE_CURVE('',#779,#424,#787,.T.);
#787 = LINE('',#788,#789);
#788 = CARTESIAN_POINT('',(14.,28.9,21.15));
#789 = VECTOR('',#790,1.);
#790 = DIRECTION('',(4.4E-16,0.,1.));
#791 = ORIENTED_EDGE('',*,*,#423,.T.);
#792 = ORIENTED_EDGE('',*,*,#793,.T.);
#793 = EDGE_CURVE('',#426,#794,#796,.T.);
#794 = VERTEX_POINT('',#795);
#795 = CARTESIAN_POINT('',(14.,22.85,21.15));
#796 = LINE('',#797,#798);
#797 = CARTESIAN_POINT('',(14.,24.666944038847,22.966944038847));
#798 = VECTOR('',#799,1.);
#799 = DIRECTION('',(-8.E-17,-0.707106781187,-0.707106781187));
#800 = ORIENTED_EDGE('',*,*,#801,.T.);
#801 = EDGE_CURVE('',#794,#802,#804,.T.);
#802 = VERTEX_POINT('',#803);
#803 = CARTESIAN_POINT('',(14.,22.85,-21.15));
#804 = LINE('',#805,#806);
#805 = CARTESIAN_POINT('',(14.,22.85,27.15));
#806 = VECTOR('',#807,1.);
#807 = DIRECTION('',(-2.2E-16,0.,-1.));
#808 = ORIENTED_EDGE('',*,*,#809,.F.);
#809 = EDGE_CURVE('',#289,#802,#810,.T.);
#810 = LINE('',#811,#812);
#811 = CARTESIAN_POINT('',(14.,24.666944038847,-22.96694403884));
#812 = VECTOR('',#813,1.);
#813 = DIRECTION('',(8.E-17,-0.707106781187,0.707106781187));
#814 = FACE_BOUND('',#815,.F.);
#815 = EDGE_LOOP('',(#816));
#816 = ORIENTED_EDGE('',*,*,#817,.F.);
#817 = EDGE_CURVE('',#818,#818,#820,.T.);
#818 = VERTEX_POINT('',#819);
#819 = CARTESIAN_POINT('',(14.,59.5,-14.));
#820 = CIRCLE('',#821,1.5);
#821 = AXIS2_PLACEMENT_3D('',#822,#823,#824);
#822 = CARTESIAN_POINT('',(14.,59.5,-15.5));
#823 = DIRECTION('',(1.,0.,-2.2E-16));
#824 = DIRECTION('',(2.2E-16,0.,1.));
#825 = FACE_BOUND('',#826,.F.);
#826 = EDGE_LOOP('',(#827));
#827 = ORIENTED_EDGE('',*,*,#828,.F.);
#828 = EDGE_CURVE('',#829,#829,#831,.T.);
#829 = VERTEX_POINT('',#830);
#830 = CARTESIAN_POINT('',(14.,59.5,17.));
#831 = CIRCLE('',#832,1.5);
#832 = AXIS2_PLACEMENT_3D('',#833,#834,#835);
#833 = CARTESIAN_POINT('',(14.,59.5,15.5));
#834 = DIRECTION('',(1.,0.,-2.2E-16));
#835 = DIRECTION('',(2.2E-16,0.,1.));
#836 = FACE_BOUND('',#837,.F.);
#837 = EDGE_LOOP('',(#838));
#838 = ORIENTED_EDGE('',*,*,#839,.F.);
#839 = EDGE_CURVE('',#840,#840,#842,.T.);
#840 = VERTEX_POINT('',#841);
#841 = CARTESIAN_POINT('',(14.,28.5,-14.));
#842 = CIRCLE('',#843,1.5);
#843 = AXIS2_PLACEMENT_3D('',#844,#845,#846);
#844 = CARTESIAN_POINT('',(14.,28.5,-15.5));
#845 = DIRECTION('',(1.,0.,-2.2E-16));
#846 = DIRECTION('',(2.2E-16,0.,1.));
#847 = FACE_BOUND('',#848,.F.);
#848 = EDGE_LOOP('',(#849));
#849 = ORIENTED_EDGE('',*,*,#850,.F.);
#850 = EDGE_CURVE('',#851,#851,#853,.T.);
#851 = VERTEX_POINT('',#852);
#852 = CARTESIAN_POINT('',(14.,44.,12.5));
#853 = CIRCLE('',#854,12.5);
#854 = AXIS2_PLACEMENT_3D('',#855,#856,#857);
#855 = CARTESIAN_POINT('',(14.,44.,3.552713678801E-14));
#856 = DIRECTION('',(1.,0.,-2.2E-16));
#857 = DIRECTION('',(2.2E-16,0.,1.));
#858 = FACE_BOUND('',#859,.F.);
#859 = EDGE_LOOP('',(#860));
#860 = ORIENTED_EDGE('',*,*,#861,.F.);
#861 = EDGE_CURVE('',#862,#862,#864,.T.);
#862 = VERTEX_POINT('',#863);
#863 = CARTESIAN_POINT('',(14.,28.5,17.));
#864 = CIRCLE('',#865,1.5);
#865 = AXIS2_PLACEMENT_3D('',#866,#867,#868);
#866 = CARTESIAN_POINT('',(14.,28.5,15.5));
#867 = DIRECTION('',(1.,0.,-2.2E-16));
#868 = DIRECTION('',(2.2E-16,0.,1.));
#869 = PLANE('',#870);
#870 = AXIS2_PLACEMENT_3D('',#871,#872,#873);
#871 = CARTESIAN_POINT('',(14.,45.267776155389,4.263256414561E-14));
#872 = DIRECTION('',(1.,0.,-2.2E-16));
#873 = DIRECTION('',(2.2E-16,0.,1.));
#874 = ADVANCED_FACE('',(#875),#893,.F.);
#875 = FACE_BOUND('',#876,.T.);
#876 = EDGE_LOOP('',(#877,#878,#879,#887));
#877 = ORIENTED_EDGE('',*,*,#298,.F.);
#878 = ORIENTED_EDGE('',*,*,#738,.T.);
#879 = ORIENTED_EDGE('',*,*,#880,.T.);
#880 = EDGE_CURVE('',#739,#881,#883,.T.);
#881 = VERTEX_POINT('',#882);
#882 = CARTESIAN_POINT('',(4.,38.9,-21.15));
#883 = LINE('',#884,#885);
#884 = CARTESIAN_POINT('',(9.,33.9,-21.15));
#885 = VECTOR('',#886,1.);
#886 = DIRECTION('',(-0.707106781187,0.707106781187,3.1E-16));
#887 = ORIENTED_EDGE('',*,*,#888,.F.);
#888 = EDGE_CURVE('',#299,#881,#889,.T.);
#889 = LINE('',#890,#891);
#890 = CARTESIAN_POINT('',(4.,38.9,-27.15));
#891 = VECTOR('',#892,1.);
#892 = DIRECTION('',(4.4E-16,0.,1.));
#893 = PLANE('',#894);
#894 = AXIS2_PLACEMENT_3D('',#895,#896,#897);
#895 = CARTESIAN_POINT('',(9.,33.9,-27.15));
#896 = DIRECTION('',(0.707106781187,0.707106781187,-1.6E-16));
#897 = DIRECTION('',(-3.331370849898E-16,1.068629150102E-16,-1.));
#898 = ADVANCED_FACE('',(#899),#917,.F.);
#899 = FACE_BOUND('',#900,.F.);
#900 = EDGE_LOOP('',(#901,#902,#910,#916));
#901 = ORIENTED_EDGE('',*,*,#306,.T.);
#902 = ORIENTED_EDGE('',*,*,#903,.T.);
#903 = EDGE_CURVE('',#307,#904,#906,.T.);
#904 = VERTEX_POINT('',#905);
#905 = CARTESIAN_POINT('',(-6.,38.9,-21.15));
#906 = LINE('',#907,#908);
#907 = CARTESIAN_POINT('',(-6.,38.9,-27.15));
#908 = VECTOR('',#909,1.);
#909 = DIRECTION('',(4.4E-16,0.,1.));
#910 = ORIENTED_EDGE('',*,*,#911,.F.);
#911 = EDGE_CURVE('',#881,#904,#912,.T.);
#912 = LINE('',#913,#914);
#913 = CARTESIAN_POINT('',(14.,38.9,-21.15));
#914 = VECTOR('',#915,1.);
#915 = DIRECTION('',(-1.,0.,3.3E-16));
#916 = ORIENTED_EDGE('',*,*,#888,.F.);
#917 = PLANE('',#918);
#918 = AXIS2_PLACEMENT_3D('',#919,#920,#921);
#919 = CARTESIAN_POINT('',(14.,38.9,-27.15));
#920 = DIRECTION('',(0.,1.,0.));
#921 = DIRECTION('',(3.3E-16,0.,1.));
#922 = ADVANCED_FACE('',(#923),#934,.T.);
#923 = FACE_BOUND('',#924,.F.);
#924 = EDGE_LOOP('',(#925,#926,#927,#933));
#925 = ORIENTED_EDGE('',*,*,#314,.F.);
#926 = ORIENTED_EDGE('',*,*,#407,.T.);
#927 = ORIENTED_EDGE('',*,*,#928,.T.);
#928 = EDGE_CURVE('',#400,#904,#929,.T.);
#929 = LINE('',#930,#931);
#930 = CARTESIAN_POINT('',(-3.5,36.4,-21.15));
#931 = VECTOR('',#932,1.);
#932 = DIRECTION('',(0.707106781187,-0.707106781187,-3.1E-16));
#933 = ORIENTED_EDGE('',*,*,#903,.F.);
#934 = PLANE('',#935);
#935 = AXIS2_PLACEMENT_3D('',#936,#937,#938);
#936 = CARTESIAN_POINT('',(-11.,43.9,-27.15));
#937 = DIRECTION('',(-0.707106781187,-0.707106781187,1.6E-16));
#938 = DIRECTION('',(-3.331370849898E-16,1.068629150102E-16,-1.));
#939 = ADVANCED_FACE('',(#940),#951,.T.);
#940 = FACE_BOUND('',#941,.T.);
#941 = EDGE_LOOP('',(#942,#943,#944,#945));
#942 = ORIENTED_EDGE('',*,*,#809,.F.);
#943 = ORIENTED_EDGE('',*,*,#337,.T.);
#944 = ORIENTED_EDGE('',*,*,#496,.T.);
#945 = ORIENTED_EDGE('',*,*,#946,.F.);
#946 = EDGE_CURVE('',#802,#489,#947,.T.);
#947 = LINE('',#948,#949);
#948 = CARTESIAN_POINT('',(14.,22.85,-21.15));
#949 = VECTOR('',#950,1.);
#950 = DIRECTION('',(1.,0.,-3.3E-16));
#951 = PLANE('',#952);
#952 = AXIS2_PLACEMENT_3D('',#953,#954,#955);
#953 = CARTESIAN_POINT('',(14.,25.85,-24.15));
#954 = DIRECTION('',(-1.6E-16,-0.707106781187,-0.707106781187));
#955 = DIRECTION('',(1.,5.686291501015E-17,-2.831370849898E-16));
#956 = ADVANCED_FACE('',(#957),#975,.T.);
#957 = FACE_BOUND('',#958,.T.);
#958 = EDGE_LOOP('',(#959,#967,#973,#974));
#959 = ORIENTED_EDGE('',*,*,#960,.F.);
#960 = EDGE_CURVE('',#961,#360,#963,.T.);
#961 = VERTEX_POINT('',#962);
#962 = CARTESIAN_POINT('',(-6.,38.9,21.15));
#963 = LINE('',#964,#965);
#964 = CARTESIAN_POINT('',(-9.1875,42.0875,21.15));
#965 = VECTOR('',#966,1.);
#966 = DIRECTION('',(-0.707106781187,0.707106781187,3.1E-16));
#967 = ORIENTED_EDGE('',*,*,#968,.T.);
#968 = EDGE_CURVE('',#961,#450,#969,.T.);
#969 = LINE('',#970,#971);
#970 = CARTESIAN_POINT('',(-6.,38.9,21.15));
#971 = VECTOR('',#972,1.);
#972 = DIRECTION('',(4.4E-16,0.,1.));
#973 = ORIENTED_EDGE('',*,*,#449,.T.);
#974 = ORIENTED_EDGE('',*,*,#359,.F.);
#975 = PLANE('',#976);
#976 = AXIS2_PLACEMENT_3D('',#977,#978,#979);
#977 = CARTESIAN_POINT('',(-11.,43.9,21.15));
#978 = DIRECTION('',(-0.707106781187,-0.707106781187,1.6E-16));
#979 = DIRECTION('',(3.331370849898E-16,-1.068629150102E-16,1.));
#980 = ADVANCED_FACE('',(#981),#1006,.F.);
#981 = FACE_BOUND('',#982,.F.);
#982 = EDGE_LOOP('',(#983,#991,#997,#998,#1004,#1005));
#983 = ORIENTED_EDGE('',*,*,#984,.F.);
#984 = EDGE_CURVE('',#985,#961,#987,.T.);
#985 = VERTEX_POINT('',#986);
#986 = CARTESIAN_POINT('',(4.,38.9,21.15));
#987 = LINE('',#988,#989);
#988 = CARTESIAN_POINT('',(14.,38.9,21.15));
#989 = VECTOR('',#990,1.);
#990 = DIRECTION('',(-1.,0.,3.3E-16));
#991 = ORIENTED_EDGE('',*,*,#992,.T.);
#992 = EDGE_CURVE('',#985,#779,#993,.T.);
#993 = LINE('',#994,#995);
#994 = CARTESIAN_POINT('',(3.3125,39.5875,21.15));
#995 = VECTOR('',#996,1.);
#996 = DIRECTION('',(0.707106781187,-0.707106781187,-3.1E-16));
#997 = ORIENTED_EDGE('',*,*,#778,.F.);
#998 = ORIENTED_EDGE('',*,*,#999,.T.);
#999 = EDGE_CURVE('',#771,#368,#1000,.T.);
#1000 = LINE('',#1001,#1002);
#1001 = CARTESIAN_POINT('',(14.,61.65,21.15));
#1002 = VECTOR('',#1003,1.);
#1003 = DIRECTION('',(-1.,0.,3.3E-16));
#1004 = ORIENTED_EDGE('',*,*,#367,.T.);
#1005 = ORIENTED_EDGE('',*,*,#960,.F.);
#1006 = PLANE('',#1007);
#1007 = AXIS2_PLACEMENT_3D('',#1008,#1009,#1010);
#1008 = CARTESIAN_POINT('',(14.,61.65,21.15));
#1009 = DIRECTION('',(3.3E-16,0.,1.));
#1010 = DIRECTION('',(0.,-1.,0.));
#1011 = ADVANCED_FACE('',(#1012),#1023,.F.);
#1012 = FACE_BOUND('',#1013,.F.);
#1013 = EDGE_LOOP('',(#1014,#1020,#1021,#1022));
#1014 = ORIENTED_EDGE('',*,*,#1015,.T.);
#1015 = EDGE_CURVE('',#763,#376,#1016,.T.);
#1016 = LINE('',#1017,#1018);
#1017 = CARTESIAN_POINT('',(14.,65.15,17.65));
#1018 = VECTOR('',#1019,1.);
#1019 = DIRECTION('',(-1.,0.,3.3E-16));
#1020 = ORIENTED_EDGE('',*,*,#375,.T.);
#1021 = ORIENTED_EDGE('',*,*,#999,.F.);
#1022 = ORIENTED_EDGE('',*,*,#770,.F.);
#1023 = PLANE('',#1024);
#1024 = AXIS2_PLACEMENT_3D('',#1025,#1026,#1027);
#1025 = CARTESIAN_POINT('',(14.,65.15,17.65));
#1026 = DIRECTION('',(2.4E-16,0.707106781187,0.707106781187));
#1027 = DIRECTION('',(2.4E-16,-0.707106781187,0.707106781187));
#1028 = ADVANCED_FACE('',(#1029,#1040),#1051,.F.);
#1029 = FACE_BOUND('',#1030,.F.);
#1030 = EDGE_LOOP('',(#1031,#1037,#1038,#1039));
#1031 = ORIENTED_EDGE('',*,*,#1032,.T.);
#1032 = EDGE_CURVE('',#755,#384,#1033,.T.);
#1033 = LINE('',#1034,#1035);
#1034 = CARTESIAN_POINT('',(14.,65.15,-17.65));
#1035 = VECTOR('',#1036,1.);
#1036 = DIRECTION('',(-1.,0.,3.3E-16));
#1037 = ORIENTED_EDGE('',*,*,#383,.T.);
#1038 = ORIENTED_EDGE('',*,*,#1015,.F.);
#1039 = ORIENTED_EDGE('',*,*,#762,.F.);
#1040 = FACE_BOUND('',#1041,.F.);
#1041 = EDGE_LOOP('',(#1042));
#1042 = ORIENTED_EDGE('',*,*,#1043,.T.);
#1043 = EDGE_CURVE('',#1044,#1044,#1046,.T.);
#1044 = VERTEX_POINT('',#1045);
#1045 = CARTESIAN_POINT('',(-5.,65.15,-6.7));
#1046 = CIRCLE('',#1047,6.7);
#1047 = AXIS2_PLACEMENT_3D('',#1048,#1049,#1050);
#1048 = CARTESIAN_POINT('',(-5.,65.15,2.13162820728E-14));
#1049 = DIRECTION('',(0.,-1.,-0.));
#1050 = DIRECTION('',(-2.2E-16,0.,-1.));
#1051 = PLANE('',#1052);
#1052 = AXIS2_PLACEMENT_3D('',#1053,#1054,#1055);
#1053 = CARTESIAN_POINT('',(14.,65.15,-17.65));
#1054 = DIRECTION('',(0.,1.,0.));
#1055 = DIRECTION('',(3.3E-16,0.,1.));
#1056 = ADVANCED_FACE('',(#1057),#1070,.F.);
#1057 = FACE_BOUND('',#1058,.F.);
#1058 = EDGE_LOOP('',(#1059,#1060,#1061,#1062,#1068,#1069));
#1059 = ORIENTED_EDGE('',*,*,#911,.T.);
#1060 = ORIENTED_EDGE('',*,*,#928,.F.);
#1061 = ORIENTED_EDGE('',*,*,#399,.T.);
#1062 = ORIENTED_EDGE('',*,*,#1063,.F.);
#1063 = EDGE_CURVE('',#747,#392,#1064,.T.);
#1064 = LINE('',#1065,#1066);
#1065 = CARTESIAN_POINT('',(14.,61.65,-21.15));
#1066 = VECTOR('',#1067,1.);
#1067 = DIRECTION('',(-1.,0.,3.3E-16));
#1068 = ORIENTED_EDGE('',*,*,#746,.F.);
#1069 = ORIENTED_EDGE('',*,*,#880,.T.);
#1070 = PLANE('',#1071);
#1071 = AXIS2_PLACEMENT_3D('',#1072,#1073,#1074);
#1072 = CARTESIAN_POINT('',(14.,38.9,-21.15));
#1073 = DIRECTION('',(-3.3E-16,0.,-1.));
#1074 = DIRECTION('',(0.,1.,0.));
#1075 = ADVANCED_FACE('',(#1076),#1082,.F.);
#1076 = FACE_BOUND('',#1077,.F.);
#1077 = EDGE_LOOP('',(#1078,#1079,#1080,#1081));
#1078 = ORIENTED_EDGE('',*,*,#1063,.T.);
#1079 = ORIENTED_EDGE('',*,*,#391,.T.);
#1080 = ORIENTED_EDGE('',*,*,#1032,.F.);
#1081 = ORIENTED_EDGE('',*,*,#754,.F.);
#1082 = PLANE('',#1083);
#1083 = AXIS2_PLACEMENT_3D('',#1084,#1085,#1086);
#1084 = CARTESIAN_POINT('',(14.,61.65,-21.15));
#1085 = DIRECTION('',(-2.4E-16,0.707106781187,-0.707106781187));
#1086 = DIRECTION('',(2.4E-16,0.707106781187,0.707106781187));
#1087 = ADVANCED_FACE('',(#1088),#1099,.T.);
#1088 = FACE_BOUND('',#1089,.F.);
#1089 = EDGE_LOOP('',(#1090,#1091,#1092,#1093));
#1090 = ORIENTED_EDGE('',*,*,#793,.F.);
#1091 = ORIENTED_EDGE('',*,*,#433,.T.);
#1092 = ORIENTED_EDGE('',*,*,#480,.T.);
#1093 = ORIENTED_EDGE('',*,*,#1094,.F.);
#1094 = EDGE_CURVE('',#794,#481,#1095,.T.);
#1095 = LINE('',#1096,#1097);
#1096 = CARTESIAN_POINT('',(14.,22.85,21.15));
#1097 = VECTOR('',#1098,1.);
#1098 = DIRECTION('',(1.,0.,-3.3E-16));
#1099 = PLANE('',#1100);
#1100 = AXIS2_PLACEMENT_3D('',#1101,#1102,#1103);
#1101 = CARTESIAN_POINT('',(14.,25.85,24.15));
#1102 = DIRECTION('',(1.6E-16,-0.707106781187,0.707106781187));
#1103 = DIRECTION('',(-1.,5.686291501015E-17,2.831370849898E-16));
#1104 = ADVANCED_FACE('',(#1105),#1116,.F.);
#1105 = FACE_BOUND('',#1106,.F.);
#1106 = EDGE_LOOP('',(#1107,#1108,#1109,#1110));
#1107 = ORIENTED_EDGE('',*,*,#984,.T.);
#1108 = ORIENTED_EDGE('',*,*,#968,.T.);
#1109 = ORIENTED_EDGE('',*,*,#457,.F.);
#1110 = ORIENTED_EDGE('',*,*,#1111,.F.);
#1111 = EDGE_CURVE('',#985,#458,#1112,.T.);
#1112 = LINE('',#1113,#1114);
#1113 = CARTESIAN_POINT('',(4.,38.9,21.15));
#1114 = VECTOR('',#1115,1.);
#1115 = DIRECTION('',(4.4E-16,0.,1.));
#1116 = PLANE('',#1117);
#1117 = AXIS2_PLACEMENT_3D('',#1118,#1119,#1120);
#1118 = CARTESIAN_POINT('',(14.,38.9,21.15));
#1119 = DIRECTION('',(0.,1.,0.));
#1120 = DIRECTION('',(3.3E-16,0.,1.));
#1121 = ADVANCED_FACE('',(#1122),#1128,.F.);
#1122 = FACE_BOUND('',#1123,.F.);
#1123 = EDGE_LOOP('',(#1124,#1125,#1126,#1127));
#1124 = ORIENTED_EDGE('',*,*,#465,.T.);
#1125 = ORIENTED_EDGE('',*,*,#786,.F.);
#1126 = ORIENTED_EDGE('',*,*,#992,.F.);
#1127 = ORIENTED_EDGE('',*,*,#1111,.T.);
#1128 = PLANE('',#1129);
#1129 = AXIS2_PLACEMENT_3D('',#1130,#1131,#1132);
#1130 = CARTESIAN_POINT('',(9.,33.9,21.15));
#1131 = DIRECTION('',(0.707106781187,0.707106781187,-1.6E-16));
#1132 = DIRECTION('',(3.331370849898E-16,-1.068629150102E-16,1.));
#1133 = ADVANCED_FACE('',(#1134),#1140,.F.);
#1134 = FACE_BOUND('',#1135,.F.);
#1135 = EDGE_LOOP('',(#1136,#1137,#1138,#1139));
#1136 = ORIENTED_EDGE('',*,*,#801,.F.);
#1137 = ORIENTED_EDGE('',*,*,#1094,.T.);
#1138 = ORIENTED_EDGE('',*,*,#488,.T.);
#1139 = ORIENTED_EDGE('',*,*,#946,.F.);
#1140 = PLANE('',#1141);
#1141 = AXIS2_PLACEMENT_3D('',#1142,#1143,#1144);
#1142 = CARTESIAN_POINT('',(14.,22.85,27.15));
#1143 = DIRECTION('',(0.,1.,0.));
#1144 = DIRECTION('',(-3.3E-16,0.,-1.));
#1145 = ADVANCED_FACE('',(#1146),#1157,.F.);
#1146 = FACE_BOUND('',#1147,.T.);
#1147 = EDGE_LOOP('',(#1148,#1154,#1155,#1156));
#1148 = ORIENTED_EDGE('',*,*,#1149,.T.);
#1149 = EDGE_CURVE('',#851,#507,#1150,.T.);
#1150 = LINE('',#1151,#1152);
#1151 = CARTESIAN_POINT('',(14.,44.,12.5));
#1152 = VECTOR('',#1153,1.);
#1153 = DIRECTION('',(1.,0.,-3.3E-16));
#1154 = ORIENTED_EDGE('',*,*,#506,.T.);
#1155 = ORIENTED_EDGE('',*,*,#1149,.F.);
#1156 = ORIENTED_EDGE('',*,*,#850,.F.);
#1157 = CYLINDRICAL_SURFACE('',#1158,12.5);
#1158 = AXIS2_PLACEMENT_3D('',#1159,#1160,#1161);
#1159 = CARTESIAN_POINT('',(14.,44.,3.287E-14));
#1160 = DIRECTION('',(-1.,0.,3.3E-16));
#1161 = DIRECTION('',(3.3E-16,0.,1.));
#1162 = ADVANCED_FACE('',(#1163),#1174,.F.);
#1163 = FACE_BOUND('',#1164,.T.);
#1164 = EDGE_LOOP('',(#1165,#1171,#1172,#1173));
#1165 = ORIENTED_EDGE('',*,*,#1166,.T.);
#1166 = EDGE_CURVE('',#818,#518,#1167,.T.);
#1167 = LINE('',#1168,#1169);
#1168 = CARTESIAN_POINT('',(14.,59.5,-14.));
#1169 = VECTOR('',#1170,1.);
#1170 = DIRECTION('',(1.,0.,-3.3E-16));
#1171 = ORIENTED_EDGE('',*,*,#517,.T.);
#1172 = ORIENTED_EDGE('',*,*,#1166,.F.);
#1173 = ORIENTED_EDGE('',*,*,#817,.F.);
#1174 = CYLINDRICAL_SURFACE('',#1175,1.5);
#1175 = AXIS2_PLACEMENT_3D('',#1176,#1177,#1178);
#1176 = CARTESIAN_POINT('',(14.,59.5,-15.5));
#1177 = DIRECTION('',(-1.,0.,3.3E-16));
#1178 = DIRECTION('',(3.3E-16,0.,1.));
#1179 = ADVANCED_FACE('',(#1180),#1191,.F.);
#1180 = FACE_BOUND('',#1181,.T.);
#1181 = EDGE_LOOP('',(#1182,#1188,#1189,#1190));
#1182 = ORIENTED_EDGE('',*,*,#1183,.T.);
#1183 = EDGE_CURVE('',#840,#529,#1184,.T.);
#1184 = LINE('',#1185,#1186);
#1185 = CARTESIAN_POINT('',(14.,28.5,-14.));
#1186 = VECTOR('',#1187,1.);
#1187 = DIRECTION('',(1.,0.,-3.3E-16));
#1188 = ORIENTED_EDGE('',*,*,#528,.T.);
#1189 = ORIENTED_EDGE('',*,*,#1183,.F.);
#1190 = ORIENTED_EDGE('',*,*,#839,.F.);
#1191 = CYLINDRICAL_SURFACE('',#1192,1.5);
#1192 = AXIS2_PLACEMENT_3D('',#1193,#1194,#1195);
#1193 = CARTESIAN_POINT('',(14.,28.5,-15.5));
#1194 = DIRECTION('',(-1.,0.,3.3E-16));
#1195 = DIRECTION('',(3.3E-16,0.,1.));
#1196 = ADVANCED_FACE('',(#1197),#1208,.F.);
#1197 = FACE_BOUND('',#1198,.T.);
#1198 = EDGE_LOOP('',(#1199,#1205,#1206,#1207));
#1199 = ORIENTED_EDGE('',*,*,#1200,.T.);
#1200 = EDGE_CURVE('',#829,#540,#1201,.T.);
#1201 = LINE('',#1202,#1203);
#1202 = CARTESIAN_POINT('',(14.,59.5,17.));
#1203 = VECTOR('',#1204,1.);
#1204 = DIRECTION('',(1.,0.,-3.3E-16));
#1205 = ORIENTED_EDGE('',*,*,#539,.T.);
#1206 = ORIENTED_EDGE('',*,*,#1200,.F.);
#1207 = ORIENTED_EDGE('',*,*,#828,.F.);
#1208 = CYLINDRICAL_SURFACE('',#1209,1.5);
#1209 = AXIS2_PLACEMENT_3D('',#1210,#1211,#1212);
#1210 = CARTESIAN_POINT('',(14.,59.5,15.5));
#1211 = DIRECTION('',(-1.,0.,3.3E-16));
#1212 = DIRECTION('',(3.3E-16,0.,1.));
#1213 = ADVANCED_FACE('',(#1214),#1225,.F.);
#1214 = FACE_BOUND('',#1215,.T.);
#1215 = EDGE_LOOP('',(#1216,#1222,#1223,#1224));
#1216 = ORIENTED_EDGE('',*,*,#1217,.T.);
#1217 = EDGE_CURVE('',#862,#551,#1218,.T.);
#1218 = LINE('',#1219,#1220);
#1219 = CARTESIAN_POINT('',(14.,28.5,17.));
#1220 = VECTOR('',#1221,1.);
#1221 = DIRECTION('',(1.,0.,-3.3E-16));
#1222 = ORIENTED_EDGE('',*,*,#550,.T.);
#1223 = ORIENTED_EDGE('',*,*,#1217,.F.);
#1224 = ORIENTED_EDGE('',*,*,#861,.F.);
#1225 = CYLINDRICAL_SURFACE('',#1226,1.5);
#1226 = AXIS2_PLACEMENT_3D('',#1227,#1228,#1229);
#1227 = CARTESIAN_POINT('',(14.,28.5,15.5));
#1228 = DIRECTION('',(-1.,0.,3.3E-16));
#1229 = DIRECTION('',(3.3E-16,0.,1.));
#1230 = ADVANCED_FACE('',(#1231),#1242,.F.);
#1231 = FACE_BOUND('',#1232,.T.);
#1232 = EDGE_LOOP('',(#1233,#1239,#1240,#1241));
#1233 = ORIENTED_EDGE('',*,*,#1234,.F.);
#1234 = EDGE_CURVE('',#1044,#568,#1235,.T.);
#1235 = LINE('',#1236,#1237);
#1236 = CARTESIAN_POINT('',(-5.,65.15,-6.7));
#1237 = VECTOR('',#1238,1.);
#1238 = DIRECTION('',(1.6E-16,0.707106781187,0.707106781187));
#1239 = ORIENTED_EDGE('',*,*,#1043,.T.);
#1240 = ORIENTED_EDGE('',*,*,#1234,.T.);
#1241 = ORIENTED_EDGE('',*,*,#575,.F.);
#1242 = CONICAL_SURFACE('',#1243,6.7,0.785398163397);
#1243 = AXIS2_PLACEMENT_3D('',#1244,#1245,#1246);
#1244 = CARTESIAN_POINT('',(-5.,65.15,2.13162820728E-14));
#1245 = DIRECTION('',(-0.,-1.,-0.));
#1246 = DIRECTION('',(-2.2E-16,0.,-1.));
#1247 = ADVANCED_FACE('',(#1248),#1259,.F.);
#1248 = FACE_BOUND('',#1249,.F.);
#1249 = EDGE_LOOP('',(#1250,#1251,#1257,#1258));
#1250 = ORIENTED_EDGE('',*,*,#592,.T.);
#1251 = ORIENTED_EDGE('',*,*,#1252,.T.);
#1252 = EDGE_CURVE('',#595,#683,#1253,.T.);
#1253 = LINE('',#1254,#1255);
#1254 = CARTESIAN_POINT('',(-1.999999999959,76.9,-13.00000000004));
#1255 = VECTOR('',#1256,1.);
#1256 = DIRECTION('',(-1.,0.,2.2E-16));
#1257 = ORIENTED_EDGE('',*,*,#682,.F.);
#1258 = ORIENTED_EDGE('',*,*,#634,.F.);
#1259 = PLANE('',#1260);
#1260 = AXIS2_PLACEMENT_3D('',#1261,#1262,#1263);
#1261 = CARTESIAN_POINT('',(-1.999999999959,68.9,-13.00000000004));
#1262 = DIRECTION('',(1.1E-16,0.,1.));
#1263 = DIRECTION('',(-1.,0.,1.1E-16));
#1264 = ADVANCED_FACE('',(#1265),#1271,.T.);
#1265 = FACE_BOUND('',#1266,.T.);
#1266 = EDGE_LOOP('',(#1267,#1268,#1269,#1270));
#1267 = ORIENTED_EDGE('',*,*,#619,.T.);
#1268 = ORIENTED_EDGE('',*,*,#1252,.T.);
#1269 = ORIENTED_EDGE('',*,*,#690,.T.);
#1270 = ORIENTED_EDGE('',*,*,#666,.T.);
#1271 = PLANE('',#1272);
#1272 = AXIS2_PLACEMENT_3D('',#1273,#1274,#1275);
#1273 = CARTESIAN_POINT('',(-5.,76.9,-6.754419246136E-11));
#1274 = DIRECTION('',(0.,1.,0.));
#1275 = DIRECTION('',(2.2E-16,0.,1.));
#1276 = ( GEOMETRIC_REPRESENTATION_CONTEXT(3) 
GLOBAL_UNCERTAINTY_ASSIGNED_CONTEXT((#1280)) 
GLOBAL_UNIT_ASSIGNED_CONTEXT((#1277,#1278,#1279)) REPRESENTATION_CONTEXT
('Context #1','3D Context with UNIT and UNCERTAINTY') );
#1277 = ( LENGTH_UNIT() NAMED_UNIT(*) SI_UNIT(.MILLI.,.METRE.) );
#1278 = ( NAMED_UNIT(*) PLANE_ANGLE_UNIT() SI_UNIT($,.RADIAN.) );
#1279 = ( NAMED_UNIT(*) SI_UNIT($,.STERADIAN.) SOLID_ANGLE_UNIT() );
#1280 = UNCERTAINTY_MEASURE_WITH_UNIT(LENGTH_MEASURE(2.E-05),#1277,
  'distance_accuracy_value','confusion accuracy');
#1281 = PRODUCT_RELATED_PRODUCT_CATEGORY('part',$,(#7));
#1282 = MECHANICAL_DESIGN_GEOMETRIC_PRESENTATION_REPRESENTATION('',(
    #1283),#1276);
#1283 = STYLED_ITEM('color',(#1284),#15);
#1284 = PRESENTATION_STYLE_ASSIGNMENT((#1285,#1291));
#1285 = SURFACE_STYLE_USAGE(.BOTH.,#1286);
#1286 = SURFACE_SIDE_STYLE('',(#1287));
#1287 = SURFACE_STYLE_FILL_AREA(#1288);
#1288 = FILL_AREA_STYLE('',(#1289));
#1289 = FILL_AREA_STYLE_COLOUR('',#1290);
#1290 = COLOUR_RGB('',0.447058818107,0.474509808674,0.501960817233);
#1291 = CURVE_STYLE('',#1292,POSITIVE_LENGTH_MEASURE(0.1),#1293);
#1292 = DRAUGHTING_PRE_DEFINED_CURVE_FONT('continuous');
#1293 = COLOUR_RGB('',9.803921802644E-02,9.803921802644E-02,
  9.803921802644E-02);
ENDSEC;
END-ISO-10303-21;
