ISO-10303-21;
HEADER;
FILE_DESCRIPTION(('FreeCAD Model'),'2;1');
FILE_NAME('Open CASCADE Shape Model','2025-11-04T09:09:07',(''),(''),
  'Open CASCADE STEP processor 7.9','FreeCAD','Unknown');
FILE_SCHEMA(('AUTOMOTIVE_DESIGN { 1 0 10303 214 1 1 1 1 }'));
ENDSEC;
DATA;
#1 = APPLICATION_PROTOCOL_DEFINITION('international standard',
  'automotive_design',2000,#2);
#2 = APPLICATION_CONTEXT(
  'core data for automotive mechanical design processes');
#3 = SHAPE_DEFINITION_REPRESENTATION(#4,#10);
#4 = PRODUCT_DEFINITION_SHAPE('','',#5);
#5 = PRODUCT_DEFINITION('design','',#6,#9);
#6 = PRODUCT_DEFINITION_FORMATION('','',#7);
#7 = PRODUCT('ToolheadAirDuct','ToolheadAirDuct','',(#8));
#8 = PRODUCT_CONTEXT('',#2,'mechanical');
#9 = PRODUCT_DEFINITION_CONTEXT('part definition',#2,'design');
#10 = ADVANCED_BREP_SHAPE_REPRESENTATION('',(#11,#15),#1030);
#11 = AXIS2_PLACEMENT_3D('',#12,#13,#14);
#12 = CARTESIAN_POINT('',(0.,0.,0.));
#13 = DIRECTION('',(0.,0.,1.));
#14 = DIRECTION('',(1.,0.,-0.));
#15 = MANIFOLD_SOLID_BREP('',#16);
#16 = CLOSED_SHELL('',(#17,#115,#168,#257,#279,#330,#397,#414,#453,#511,
    #546,#570,#598,#623,#640,#667,#691,#719,#750,#813,#835,#852,#880,
    #905,#930,#942,#954,#971,#988,#1000,#1012));
#17 = ADVANCED_FACE('',(#18),#110,.T.);
#18 = FACE_BOUND('',#19,.T.);
#19 = EDGE_LOOP('',(#20,#30,#38,#46,#54,#62,#70,#78,#86,#95,#103));
#20 = ORIENTED_EDGE('',*,*,#21,.F.);
#21 = EDGE_CURVE('',#22,#24,#26,.T.);
#22 = VERTEX_POINT('',#23);
#23 = CARTESIAN_POINT('',(27.5,-21.37,5.));
#24 = VERTEX_POINT('',#25);
#25 = CARTESIAN_POINT('',(37.5,-21.37,5.));
#26 = LINE('',#27,#28);
#27 = CARTESIAN_POINT('',(27.5,-21.37,5.));
#28 = VECTOR('',#29,1.);
#29 = DIRECTION('',(1.,-2.E-15,0.));
#30 = ORIENTED_EDGE('',*,*,#31,.F.);
#31 = EDGE_CURVE('',#32,#22,#34,.T.);
#32 = VERTEX_POINT('',#33);
#33 = CARTESIAN_POINT('',(27.5,-21.37,11.25));
#34 = LINE('',#35,#36);
#35 = CARTESIAN_POINT('',(27.5,-21.37,5.));
#36 = VECTOR('',#37,1.);
#37 = DIRECTION('',(-1.99E-14,-1.78E-15,-1.));
#38 = ORIENTED_EDGE('',*,*,#39,.T.);
#39 = EDGE_CURVE('',#32,#40,#42,.T.);
#40 = VERTEX_POINT('',#41);
#41 = CARTESIAN_POINT('',(26.65,-21.37,11.25));
#42 = LINE('',#43,#44);
#43 = CARTESIAN_POINT('',(27.5,-21.37,11.25));
#44 = VECTOR('',#45,1.);
#45 = DIRECTION('',(-1.,2.E-15,0.));
#46 = ORIENTED_EDGE('',*,*,#47,.T.);
#47 = EDGE_CURVE('',#40,#48,#50,.T.);
#48 = VERTEX_POINT('',#49);
#49 = CARTESIAN_POINT('',(26.65,-21.37,1.05));
#50 = LINE('',#51,#52);
#51 = CARTESIAN_POINT('',(26.65,-21.37,11.25));
#52 = VECTOR('',#53,1.);
#53 = DIRECTION('',(-0.,-1.77E-15,-1.));
#54 = ORIENTED_EDGE('',*,*,#55,.T.);
#55 = EDGE_CURVE('',#48,#56,#58,.T.);
#56 = VERTEX_POINT('',#57);
#57 = CARTESIAN_POINT('',(22.85,-21.37,1.05));
#58 = LINE('',#59,#60);
#59 = CARTESIAN_POINT('',(24.675,-21.37,1.05));
#60 = VECTOR('',#61,1.);
#61 = DIRECTION('',(-1.,0.,0.));
#62 = ORIENTED_EDGE('',*,*,#63,.F.);
#63 = EDGE_CURVE('',#64,#56,#66,.T.);
#64 = VERTEX_POINT('',#65);
#65 = CARTESIAN_POINT('',(22.85,-21.37,11.25));
#66 = LINE('',#67,#68);
#67 = CARTESIAN_POINT('',(22.85,-21.37,11.25));
#68 = VECTOR('',#69,1.);
#69 = DIRECTION('',(-0.,-1.77E-15,-1.));
#70 = ORIENTED_EDGE('',*,*,#71,.T.);
#71 = EDGE_CURVE('',#64,#72,#74,.T.);
#72 = VERTEX_POINT('',#73);
#73 = CARTESIAN_POINT('',(22.,-21.37,11.25));
#74 = LINE('',#75,#76);
#75 = CARTESIAN_POINT('',(23.,-21.37,11.25));
#76 = VECTOR('',#77,1.);
#77 = DIRECTION('',(-1.,2.E-15,-3.55E-15));
#78 = ORIENTED_EDGE('',*,*,#79,.T.);
#79 = EDGE_CURVE('',#72,#80,#82,.T.);
#80 = VERTEX_POINT('',#81);
#81 = CARTESIAN_POINT('',(22.,-21.37,-4.96989755919));
#82 = LINE('',#83,#84);
#83 = CARTESIAN_POINT('',(22.,-21.37,11.25));
#84 = VECTOR('',#85,1.);
#85 = DIRECTION('',(-4.E-30,-2.E-15,-1.));
#86 = ORIENTED_EDGE('',*,*,#87,.T.);
#87 = EDGE_CURVE('',#80,#88,#90,.T.);
#88 = VERTEX_POINT('',#89);
#89 = CARTESIAN_POINT('',(12.,-21.37,-7.75));
#90 = CIRCLE('',#91,19.375);
#91 = AXIS2_PLACEMENT_3D('',#92,#93,#94);
#92 = CARTESIAN_POINT('',(12.,-21.37,11.625));
#93 = DIRECTION('',(2.E-15,1.,-2.E-15));
#94 = DIRECTION('',(-1.,2.E-15,0.));
#95 = ORIENTED_EDGE('',*,*,#96,.F.);
#96 = EDGE_CURVE('',#97,#88,#99,.T.);
#97 = VERTEX_POINT('',#98);
#98 = CARTESIAN_POINT('',(12.,-21.37,-12.75));
#99 = LINE('',#100,#101);
#100 = CARTESIAN_POINT('',(12.,-21.37,-12.75));
#101 = VECTOR('',#102,1.);
#102 = DIRECTION('',(4.E-30,2.E-15,1.));
#103 = ORIENTED_EDGE('',*,*,#104,.F.);
#104 = EDGE_CURVE('',#24,#97,#105,.T.);
#105 = CIRCLE('',#106,27.191901408451);
#106 = AXIS2_PLACEMENT_3D('',#107,#108,#109);
#107 = CARTESIAN_POINT('',(12.,-21.37,14.441901408451));
#108 = DIRECTION('',(2.E-15,1.,-2.E-15));
#109 = DIRECTION('',(-1.,2.E-15,0.));
#110 = PLANE('',#111);
#111 = AXIS2_PLACEMENT_3D('',#112,#113,#114);
#112 = CARTESIAN_POINT('',(24.375610916809,-21.37,-0.221080046379));
#113 = DIRECTION('',(-2.03E-15,-1.,1.84E-15));
#114 = DIRECTION('',(-1.,2.03E-15,0.));
#115 = ADVANCED_FACE('',(#116,#141,#152),#163,.T.);
#116 = FACE_BOUND('',#117,.T.);
#117 = EDGE_LOOP('',(#118,#126,#127,#135));
#118 = ORIENTED_EDGE('',*,*,#119,.F.);
#119 = EDGE_CURVE('',#32,#120,#122,.T.);
#120 = VERTEX_POINT('',#121);
#121 = CARTESIAN_POINT('',(27.5,21.85,11.25));
#122 = LINE('',#123,#124);
#123 = CARTESIAN_POINT('',(27.5,-21.37,11.25));
#124 = VECTOR('',#125,1.);
#125 = DIRECTION('',(1.95E-15,1.,-1.78E-15));
#126 = ORIENTED_EDGE('',*,*,#31,.T.);
#127 = ORIENTED_EDGE('',*,*,#128,.T.);
#128 = EDGE_CURVE('',#22,#129,#131,.T.);
#129 = VERTEX_POINT('',#130);
#130 = CARTESIAN_POINT('',(27.5,21.85,5.));
#131 = LINE('',#132,#133);
#132 = CARTESIAN_POINT('',(27.5,-21.37,5.));
#133 = VECTOR('',#134,1.);
#134 = DIRECTION('',(1.95E-15,1.,-1.78E-15));
#135 = ORIENTED_EDGE('',*,*,#136,.T.);
#136 = EDGE_CURVE('',#129,#120,#137,.T.);
#137 = LINE('',#138,#139);
#138 = CARTESIAN_POINT('',(27.5,21.85,17.459971910112));
#139 = VECTOR('',#140,1.);
#140 = DIRECTION('',(0.,1.96E-15,1.));
#141 = FACE_BOUND('',#142,.T.);
#142 = EDGE_LOOP('',(#143));
#143 = ORIENTED_EDGE('',*,*,#144,.F.);
#144 = EDGE_CURVE('',#145,#145,#147,.T.);
#145 = VERTEX_POINT('',#146);
#146 = CARTESIAN_POINT('',(27.5,19.,7.75));
#147 = CIRCLE('',#148,1.5);
#148 = AXIS2_PLACEMENT_3D('',#149,#150,#151);
#149 = CARTESIAN_POINT('',(27.5,17.5,7.75));
#150 = DIRECTION('',(1.,-2.E-15,-4.E-15));
#151 = DIRECTION('',(2.E-15,1.,0.));
#152 = FACE_BOUND('',#153,.T.);
#153 = EDGE_LOOP('',(#154));
#154 = ORIENTED_EDGE('',*,*,#155,.F.);
#155 = EDGE_CURVE('',#156,#156,#158,.T.);
#156 = VERTEX_POINT('',#157);
#157 = CARTESIAN_POINT('',(27.5,-16.,7.75));
#158 = CIRCLE('',#159,1.5);
#159 = AXIS2_PLACEMENT_3D('',#160,#161,#162);
#160 = CARTESIAN_POINT('',(27.5,-17.5,7.75));
#161 = DIRECTION('',(1.,-2.E-15,-4.E-15));
#162 = DIRECTION('',(2.E-15,1.,0.));
#163 = PLANE('',#164);
#164 = AXIS2_PLACEMENT_3D('',#165,#166,#167);
#165 = CARTESIAN_POINT('',(27.5,0.24,5.625));
#166 = DIRECTION('',(1.,-1.97E-15,-4.25E-15));
#167 = DIRECTION('',(4.25E-15,0.,1.));
#168 = ADVANCED_FACE('',(#169),#252,.T.);
#169 = FACE_BOUND('',#170,.T.);
#170 = EDGE_LOOP('',(#171,#181,#190,#198,#206,#214,#222,#230,#236,#237,
    #245));
#171 = ORIENTED_EDGE('',*,*,#172,.T.);
#172 = EDGE_CURVE('',#173,#175,#177,.T.);
#173 = VERTEX_POINT('',#174);
#174 = CARTESIAN_POINT('',(12.,21.85,-12.75));
#175 = VERTEX_POINT('',#176);
#176 = CARTESIAN_POINT('',(12.,21.85,-7.75));
#177 = LINE('',#178,#179);
#178 = CARTESIAN_POINT('',(12.,21.85,8.584971910112));
#179 = VECTOR('',#180,1.);
#180 = DIRECTION('',(0.,1.96E-15,1.));
#181 = ORIENTED_EDGE('',*,*,#182,.T.);
#182 = EDGE_CURVE('',#175,#183,#185,.T.);
#183 = VERTEX_POINT('',#184);
#184 = CARTESIAN_POINT('',(22.,21.85,-4.96989755919));
#185 = CIRCLE('',#186,19.375);
#186 = AXIS2_PLACEMENT_3D('',#187,#188,#189);
#187 = CARTESIAN_POINT('',(12.,21.85,11.625));
#188 = DIRECTION('',(-1.95E-15,-1.,1.78E-15));
#189 = DIRECTION('',(-1.,1.95E-15,0.));
#190 = ORIENTED_EDGE('',*,*,#191,.F.);
#191 = EDGE_CURVE('',#192,#183,#194,.T.);
#192 = VERTEX_POINT('',#193);
#193 = CARTESIAN_POINT('',(22.,21.85,11.25));
#194 = LINE('',#195,#196);
#195 = CARTESIAN_POINT('',(22.,21.85,20.584971910113));
#196 = VECTOR('',#197,1.);
#197 = DIRECTION('',(-0.,-1.96E-15,-1.));
#198 = ORIENTED_EDGE('',*,*,#199,.F.);
#199 = EDGE_CURVE('',#200,#192,#202,.T.);
#200 = VERTEX_POINT('',#201);
#201 = CARTESIAN_POINT('',(22.85,21.85,11.25));
#202 = LINE('',#203,#204);
#203 = CARTESIAN_POINT('',(11.5,21.85,11.25));
#204 = VECTOR('',#205,1.);
#205 = DIRECTION('',(-1.,2.32E-15,-3.55E-15));
#206 = ORIENTED_EDGE('',*,*,#207,.T.);
#207 = EDGE_CURVE('',#200,#208,#210,.T.);
#208 = VERTEX_POINT('',#209);
#209 = CARTESIAN_POINT('',(22.85,21.85,1.05));
#210 = LINE('',#211,#212);
#211 = CARTESIAN_POINT('',(22.85,21.85,11.25));
#212 = VECTOR('',#213,1.);
#213 = DIRECTION('',(-0.,-1.77E-15,-1.));
#214 = ORIENTED_EDGE('',*,*,#215,.T.);
#215 = EDGE_CURVE('',#208,#216,#218,.T.);
#216 = VERTEX_POINT('',#217);
#217 = CARTESIAN_POINT('',(26.65,21.85,1.05));
#218 = LINE('',#219,#220);
#219 = CARTESIAN_POINT('',(26.575,21.85,1.05));
#220 = VECTOR('',#221,1.);
#221 = DIRECTION('',(1.,0.,0.));
#222 = ORIENTED_EDGE('',*,*,#223,.F.);
#223 = EDGE_CURVE('',#224,#216,#226,.T.);
#224 = VERTEX_POINT('',#225);
#225 = CARTESIAN_POINT('',(26.65,21.85,11.25));
#226 = LINE('',#227,#228);
#227 = CARTESIAN_POINT('',(26.65,21.85,11.25));
#228 = VECTOR('',#229,1.);
#229 = DIRECTION('',(-0.,-1.77E-15,-1.));
#230 = ORIENTED_EDGE('',*,*,#231,.F.);
#231 = EDGE_CURVE('',#120,#224,#232,.T.);
#232 = LINE('',#233,#234);
#233 = CARTESIAN_POINT('',(13.75,21.85,11.25));
#234 = VECTOR('',#235,1.);
#235 = DIRECTION('',(-1.,2.32E-15,0.));
#236 = ORIENTED_EDGE('',*,*,#136,.F.);
#237 = ORIENTED_EDGE('',*,*,#238,.T.);
#238 = EDGE_CURVE('',#129,#239,#241,.T.);
#239 = VERTEX_POINT('',#240);
#240 = CARTESIAN_POINT('',(37.5,21.85,5.));
#241 = LINE('',#242,#243);
#242 = CARTESIAN_POINT('',(13.75,21.85,5.));
#243 = VECTOR('',#244,1.);
#244 = DIRECTION('',(1.,-2.32E-15,0.));
#245 = ORIENTED_EDGE('',*,*,#246,.F.);
#246 = EDGE_CURVE('',#173,#239,#247,.T.);
#247 = CIRCLE('',#248,27.191901408451);
#248 = AXIS2_PLACEMENT_3D('',#249,#250,#251);
#249 = CARTESIAN_POINT('',(12.,21.85,14.441901408451));
#250 = DIRECTION('',(-1.95E-15,-1.,1.78E-15));
#251 = DIRECTION('',(-1.,1.95E-15,0.));
#252 = PLANE('',#253);
#253 = AXIS2_PLACEMENT_3D('',#254,#255,#256);
#254 = CARTESIAN_POINT('',(24.375610916809,21.85,-0.221080046379));
#255 = DIRECTION('',(1.88E-15,1.,-1.37E-15));
#256 = DIRECTION('',(1.,-1.88E-15,0.));
#257 = ADVANCED_FACE('',(#258),#274,.T.);
#258 = FACE_BOUND('',#259,.F.);
#259 = EDGE_LOOP('',(#260,#261,#267,#268));
#260 = ORIENTED_EDGE('',*,*,#104,.F.);
#261 = ORIENTED_EDGE('',*,*,#262,.T.);
#262 = EDGE_CURVE('',#24,#239,#263,.T.);
#263 = LINE('',#264,#265);
#264 = CARTESIAN_POINT('',(37.5,-21.37,5.));
#265 = VECTOR('',#266,1.);
#266 = DIRECTION('',(1.95E-15,1.,-1.78E-15));
#267 = ORIENTED_EDGE('',*,*,#246,.F.);
#268 = ORIENTED_EDGE('',*,*,#269,.F.);
#269 = EDGE_CURVE('',#97,#173,#270,.T.);
#270 = LINE('',#271,#272);
#271 = CARTESIAN_POINT('',(12.,-21.37,-12.75));
#272 = VECTOR('',#273,1.);
#273 = DIRECTION('',(1.95E-15,1.,-1.78E-15));
#274 = CYLINDRICAL_SURFACE('',#275,27.191901408451);
#275 = AXIS2_PLACEMENT_3D('',#276,#277,#278);
#276 = CARTESIAN_POINT('',(12.,-21.37,14.441901408451));
#277 = DIRECTION('',(-1.95E-15,-1.,1.78E-15));
#278 = DIRECTION('',(-1.,1.95E-15,0.));
#279 = ADVANCED_FACE('',(#280,#291),#325,.F.);
#280 = FACE_BOUND('',#281,.F.);
#281 = EDGE_LOOP('',(#282,#283,#284,#285));
#282 = ORIENTED_EDGE('',*,*,#96,.F.);
#283 = ORIENTED_EDGE('',*,*,#269,.T.);
#284 = ORIENTED_EDGE('',*,*,#172,.T.);
#285 = ORIENTED_EDGE('',*,*,#286,.F.);
#286 = EDGE_CURVE('',#88,#175,#287,.T.);
#287 = LINE('',#288,#289);
#288 = CARTESIAN_POINT('',(12.,-21.37,-7.75));
#289 = VECTOR('',#290,1.);
#290 = DIRECTION('',(1.95E-15,1.,-1.78E-15));
#291 = FACE_BOUND('',#292,.F.);
#292 = EDGE_LOOP('',(#293,#303,#311,#319));
#293 = ORIENTED_EDGE('',*,*,#294,.F.);
#294 = EDGE_CURVE('',#295,#297,#299,.T.);
#295 = VERTEX_POINT('',#296);
#296 = CARTESIAN_POINT('',(12.,20.85,-11.75));
#297 = VERTEX_POINT('',#298);
#298 = CARTESIAN_POINT('',(12.,20.85,-8.75));
#299 = LINE('',#300,#301);
#300 = CARTESIAN_POINT('',(12.,20.85,8.584971910112));
#301 = VECTOR('',#302,1.);
#302 = DIRECTION('',(-4.4E-16,1.52E-15,1.));
#303 = ORIENTED_EDGE('',*,*,#304,.F.);
#304 = EDGE_CURVE('',#305,#295,#307,.T.);
#305 = VERTEX_POINT('',#306);
#306 = CARTESIAN_POINT('',(12.,-20.37,-11.75));
#307 = LINE('',#308,#309);
#308 = CARTESIAN_POINT('',(12.,-21.37,-11.75));
#309 = VECTOR('',#310,1.);
#310 = DIRECTION('',(1.95E-15,1.,-1.78E-15));
#311 = ORIENTED_EDGE('',*,*,#312,.T.);
#312 = EDGE_CURVE('',#305,#313,#315,.T.);
#313 = VERTEX_POINT('',#314);
#314 = CARTESIAN_POINT('',(12.,-20.37,-8.75));
#315 = LINE('',#316,#317);
#316 = CARTESIAN_POINT('',(12.,-20.37,-12.75));
#317 = VECTOR('',#318,1.);
#318 = DIRECTION('',(0.,1.86E-15,1.));
#319 = ORIENTED_EDGE('',*,*,#320,.T.);
#320 = EDGE_CURVE('',#313,#297,#321,.T.);
#321 = LINE('',#322,#323);
#322 = CARTESIAN_POINT('',(12.,-21.37,-8.75));
#323 = VECTOR('',#324,1.);
#324 = DIRECTION('',(1.95E-15,1.,-1.78E-15));
#325 = PLANE('',#326);
#326 = AXIS2_PLACEMENT_3D('',#327,#328,#329);
#327 = CARTESIAN_POINT('',(12.,-21.37,-12.75));
#328 = DIRECTION('',(1.,-1.95E-15,0.));
#329 = DIRECTION('',(3.471E-30,1.78E-15,1.));
#330 = ADVANCED_FACE('',(#331),#392,.F.);
#331 = FACE_BOUND('',#332,.T.);
#332 = EDGE_LOOP('',(#333,#334,#343,#351,#360,#368,#377,#385));
#333 = ORIENTED_EDGE('',*,*,#304,.F.);
#334 = ORIENTED_EDGE('',*,*,#335,.T.);
#335 = EDGE_CURVE('',#305,#336,#338,.T.);
#336 = VERTEX_POINT('',#337);
#337 = CARTESIAN_POINT('',(36.020457830071,-20.37,4.));
#338 = CIRCLE('',#339,26.191901408451);
#339 = AXIS2_PLACEMENT_3D('',#340,#341,#342);
#340 = CARTESIAN_POINT('',(12.,-20.37,14.441901408451));
#341 = DIRECTION('',(-1.95E-15,-1.,1.78E-15));
#342 = DIRECTION('',(-1.,1.95E-15,0.));
#343 = ORIENTED_EDGE('',*,*,#344,.F.);
#344 = EDGE_CURVE('',#345,#336,#347,.T.);
#345 = VERTEX_POINT('',#346);
#346 = CARTESIAN_POINT('',(36.020457830071,-13.37,4.));
#347 = LINE('',#348,#349);
#348 = CARTESIAN_POINT('',(36.020457830071,-21.37,4.));
#349 = VECTOR('',#350,1.);
#350 = DIRECTION('',(-1.95E-15,-1.,1.78E-15));
#351 = ORIENTED_EDGE('',*,*,#352,.T.);
#352 = EDGE_CURVE('',#345,#353,#355,.T.);
#353 = VERTEX_POINT('',#354);
#354 = CARTESIAN_POINT('',(36.430845199933,-13.37,5.));
#355 = CIRCLE('',#356,26.191901408451);
#356 = AXIS2_PLACEMENT_3D('',#357,#358,#359);
#357 = CARTESIAN_POINT('',(12.,-13.37,14.441901408451));
#358 = DIRECTION('',(-1.95E-15,-1.,1.78E-15));
#359 = DIRECTION('',(-1.,1.95E-15,0.));
#360 = ORIENTED_EDGE('',*,*,#361,.F.);
#361 = EDGE_CURVE('',#362,#353,#364,.T.);
#362 = VERTEX_POINT('',#363);
#363 = CARTESIAN_POINT('',(36.430845199933,13.85,5.));
#364 = LINE('',#365,#366);
#365 = CARTESIAN_POINT('',(36.430845199933,-21.37,5.));
#366 = VECTOR('',#367,1.);
#367 = DIRECTION('',(-1.95E-15,-1.,1.78E-15));
#368 = ORIENTED_EDGE('',*,*,#369,.F.);
#369 = EDGE_CURVE('',#370,#362,#372,.T.);
#370 = VERTEX_POINT('',#371);
#371 = CARTESIAN_POINT('',(36.020457830071,13.85,4.));
#372 = CIRCLE('',#373,26.191901408451);
#373 = AXIS2_PLACEMENT_3D('',#374,#375,#376);
#374 = CARTESIAN_POINT('',(12.,13.85,14.441901408451));
#375 = DIRECTION('',(-1.95E-15,-1.,1.78E-15));
#376 = DIRECTION('',(-1.,1.95E-15,0.));
#377 = ORIENTED_EDGE('',*,*,#378,.F.);
#378 = EDGE_CURVE('',#379,#370,#381,.T.);
#379 = VERTEX_POINT('',#380);
#380 = CARTESIAN_POINT('',(36.020457830071,20.85,4.));
#381 = LINE('',#382,#383);
#382 = CARTESIAN_POINT('',(36.020457830071,-21.37,4.));
#383 = VECTOR('',#384,1.);
#384 = DIRECTION('',(-1.95E-15,-1.,1.78E-15));
#385 = ORIENTED_EDGE('',*,*,#386,.F.);
#386 = EDGE_CURVE('',#295,#379,#387,.T.);
#387 = CIRCLE('',#388,26.191901408451);
#388 = AXIS2_PLACEMENT_3D('',#389,#390,#391);
#389 = CARTESIAN_POINT('',(12.,20.85,14.441901408451));
#390 = DIRECTION('',(-1.95E-15,-1.,1.78E-15));
#391 = DIRECTION('',(-1.,1.95E-15,0.));
#392 = CYLINDRICAL_SURFACE('',#393,26.191901408451);
#393 = AXIS2_PLACEMENT_3D('',#394,#395,#396);
#394 = CARTESIAN_POINT('',(12.,-21.37,14.441901408451));
#395 = DIRECTION('',(-1.95E-15,-1.,1.78E-15));
#396 = DIRECTION('',(-1.,1.95E-15,0.));
#397 = ADVANCED_FACE('',(#398),#409,.F.);
#398 = FACE_BOUND('',#399,.T.);
#399 = EDGE_LOOP('',(#400,#401,#407,#408));
#400 = ORIENTED_EDGE('',*,*,#87,.F.);
#401 = ORIENTED_EDGE('',*,*,#402,.T.);
#402 = EDGE_CURVE('',#80,#183,#403,.T.);
#403 = LINE('',#404,#405);
#404 = CARTESIAN_POINT('',(22.,-21.37,-4.96989755919));
#405 = VECTOR('',#406,1.);
#406 = DIRECTION('',(1.95E-15,1.,-1.78E-15));
#407 = ORIENTED_EDGE('',*,*,#182,.F.);
#408 = ORIENTED_EDGE('',*,*,#286,.F.);
#409 = CYLINDRICAL_SURFACE('',#410,19.375);
#410 = AXIS2_PLACEMENT_3D('',#411,#412,#413);
#411 = CARTESIAN_POINT('',(12.,-21.37,11.625));
#412 = DIRECTION('',(-1.95E-15,-1.,1.78E-15));
#413 = DIRECTION('',(-1.,1.95E-15,0.));
#414 = ADVANCED_FACE('',(#415,#426,#437),#448,.T.);
#415 = FACE_BOUND('',#416,.T.);
#416 = EDGE_LOOP('',(#417,#418,#424,#425));
#417 = ORIENTED_EDGE('',*,*,#79,.F.);
#418 = ORIENTED_EDGE('',*,*,#419,.T.);
#419 = EDGE_CURVE('',#72,#192,#420,.T.);
#420 = LINE('',#421,#422);
#421 = CARTESIAN_POINT('',(22.,-21.37,11.25));
#422 = VECTOR('',#423,1.);
#423 = DIRECTION('',(1.95E-15,1.,-1.78E-15));
#424 = ORIENTED_EDGE('',*,*,#191,.T.);
#425 = ORIENTED_EDGE('',*,*,#402,.F.);
#426 = FACE_BOUND('',#427,.T.);
#427 = EDGE_LOOP('',(#428));
#428 = ORIENTED_EDGE('',*,*,#429,.T.);
#429 = EDGE_CURVE('',#430,#430,#432,.T.);
#430 = VERTEX_POINT('',#431);
#431 = CARTESIAN_POINT('',(22.,19.,7.75));
#432 = CIRCLE('',#433,1.5);
#433 = AXIS2_PLACEMENT_3D('',#434,#435,#436);
#434 = CARTESIAN_POINT('',(22.,17.5,7.75));
#435 = DIRECTION('',(1.,-2.E-15,-4.22E-15));
#436 = DIRECTION('',(2.E-15,1.,0.));
#437 = FACE_BOUND('',#438,.T.);
#438 = EDGE_LOOP('',(#439));
#439 = ORIENTED_EDGE('',*,*,#440,.T.);
#440 = EDGE_CURVE('',#441,#441,#443,.T.);
#441 = VERTEX_POINT('',#442);
#442 = CARTESIAN_POINT('',(22.,-16.,7.75));
#443 = CIRCLE('',#444,1.5);
#444 = AXIS2_PLACEMENT_3D('',#445,#446,#447);
#445 = CARTESIAN_POINT('',(22.,-17.5,7.75));
#446 = DIRECTION('',(1.,-2.E-15,-4.22E-15));
#447 = DIRECTION('',(2.E-15,1.,0.));
#448 = PLANE('',#449);
#449 = AXIS2_PLACEMENT_3D('',#450,#451,#452);
#450 = CARTESIAN_POINT('',(22.,-21.37,11.25));
#451 = DIRECTION('',(-1.,1.95E-15,0.));
#452 = DIRECTION('',(-3.471E-30,-1.78E-15,-1.));
#453 = ADVANCED_FACE('',(#454),#506,.T.);
#454 = FACE_BOUND('',#455,.T.);
#455 = EDGE_LOOP('',(#456,#457,#458,#459,#467,#475,#481,#482,#483,#484,
    #492,#500));
#456 = ORIENTED_EDGE('',*,*,#39,.F.);
#457 = ORIENTED_EDGE('',*,*,#119,.T.);
#458 = ORIENTED_EDGE('',*,*,#231,.T.);
#459 = ORIENTED_EDGE('',*,*,#460,.F.);
#460 = EDGE_CURVE('',#461,#224,#463,.T.);
#461 = VERTEX_POINT('',#462);
#462 = CARTESIAN_POINT('',(26.65,12.,11.25));
#463 = LINE('',#464,#465);
#464 = CARTESIAN_POINT('',(26.65,12.,11.25));
#465 = VECTOR('',#466,1.);
#466 = DIRECTION('',(0.,1.,-2.E-15));
#467 = ORIENTED_EDGE('',*,*,#468,.F.);
#468 = EDGE_CURVE('',#469,#461,#471,.T.);
#469 = VERTEX_POINT('',#470);
#470 = CARTESIAN_POINT('',(22.85,12.,11.25));
#471 = LINE('',#472,#473);
#472 = CARTESIAN_POINT('',(22.85,12.,11.25));
#473 = VECTOR('',#474,1.);
#474 = DIRECTION('',(1.,0.,0.));
#475 = ORIENTED_EDGE('',*,*,#476,.F.);
#476 = EDGE_CURVE('',#200,#469,#477,.T.);
#477 = LINE('',#478,#479);
#478 = CARTESIAN_POINT('',(22.85,21.85,11.25));
#479 = VECTOR('',#480,1.);
#480 = DIRECTION('',(0.,-1.,2.E-15));
#481 = ORIENTED_EDGE('',*,*,#199,.T.);
#482 = ORIENTED_EDGE('',*,*,#419,.F.);
#483 = ORIENTED_EDGE('',*,*,#71,.F.);
#484 = ORIENTED_EDGE('',*,*,#485,.F.);
#485 = EDGE_CURVE('',#486,#64,#488,.T.);
#486 = VERTEX_POINT('',#487);
#487 = CARTESIAN_POINT('',(22.85,-11.52,11.25));
#488 = LINE('',#489,#490);
#489 = CARTESIAN_POINT('',(22.85,-11.52,11.25));
#490 = VECTOR('',#491,1.);
#491 = DIRECTION('',(0.,-1.,2.E-15));
#492 = ORIENTED_EDGE('',*,*,#493,.F.);
#493 = EDGE_CURVE('',#494,#486,#496,.T.);
#494 = VERTEX_POINT('',#495);
#495 = CARTESIAN_POINT('',(26.65,-11.52,11.25));
#496 = LINE('',#497,#498);
#497 = CARTESIAN_POINT('',(26.65,-11.52,11.25));
#498 = VECTOR('',#499,1.);
#499 = DIRECTION('',(-1.,0.,0.));
#500 = ORIENTED_EDGE('',*,*,#501,.F.);
#501 = EDGE_CURVE('',#40,#494,#502,.T.);
#502 = LINE('',#503,#504);
#503 = CARTESIAN_POINT('',(26.65,-21.37,11.25));
#504 = VECTOR('',#505,1.);
#505 = DIRECTION('',(0.,1.,-2.E-15));
#506 = PLANE('',#507);
#507 = AXIS2_PLACEMENT_3D('',#508,#509,#510);
#508 = CARTESIAN_POINT('',(24.75,0.24,11.25));
#509 = DIRECTION('',(-5.3E-16,1.77E-15,1.));
#510 = DIRECTION('',(0.,1.,-1.77E-15));
#511 = ADVANCED_FACE('',(#512,#530),#541,.F.);
#512 = FACE_BOUND('',#513,.F.);
#513 = EDGE_LOOP('',(#514,#515,#523,#529));
#514 = ORIENTED_EDGE('',*,*,#485,.F.);
#515 = ORIENTED_EDGE('',*,*,#516,.T.);
#516 = EDGE_CURVE('',#486,#517,#519,.T.);
#517 = VERTEX_POINT('',#518);
#518 = CARTESIAN_POINT('',(22.85,-11.52,1.05));
#519 = LINE('',#520,#521);
#520 = CARTESIAN_POINT('',(22.85,-11.52,11.25));
#521 = VECTOR('',#522,1.);
#522 = DIRECTION('',(-0.,-1.77E-15,-1.));
#523 = ORIENTED_EDGE('',*,*,#524,.F.);
#524 = EDGE_CURVE('',#56,#517,#525,.T.);
#525 = LINE('',#526,#527);
#526 = CARTESIAN_POINT('',(22.85,-16.445,1.05));
#527 = VECTOR('',#528,1.);
#528 = DIRECTION('',(0.,1.,-1.78E-15));
#529 = ORIENTED_EDGE('',*,*,#63,.F.);
#530 = FACE_BOUND('',#531,.F.);
#531 = EDGE_LOOP('',(#532));
#532 = ORIENTED_EDGE('',*,*,#533,.T.);
#533 = EDGE_CURVE('',#534,#534,#536,.T.);
#534 = VERTEX_POINT('',#535);
#535 = CARTESIAN_POINT('',(22.85,-16.,7.75));
#536 = CIRCLE('',#537,1.5);
#537 = AXIS2_PLACEMENT_3D('',#538,#539,#540);
#538 = CARTESIAN_POINT('',(22.85,-17.5,7.75));
#539 = DIRECTION('',(1.,-2.E-15,-4.22E-15));
#540 = DIRECTION('',(2.E-15,1.,0.));
#541 = PLANE('',#542);
#542 = AXIS2_PLACEMENT_3D('',#543,#544,#545);
#543 = CARTESIAN_POINT('',(22.85,-11.52,11.25));
#544 = DIRECTION('',(-1.,0.,0.));
#545 = DIRECTION('',(0.,-1.,1.77E-15));
#546 = ADVANCED_FACE('',(#547),#565,.T.);
#547 = FACE_BOUND('',#548,.T.);
#548 = EDGE_LOOP('',(#549,#550,#558,#564));
#549 = ORIENTED_EDGE('',*,*,#55,.F.);
#550 = ORIENTED_EDGE('',*,*,#551,.F.);
#551 = EDGE_CURVE('',#552,#48,#554,.T.);
#552 = VERTEX_POINT('',#553);
#553 = CARTESIAN_POINT('',(26.65,-11.52,1.05));
#554 = LINE('',#555,#556);
#555 = CARTESIAN_POINT('',(26.65,-21.37,1.05));
#556 = VECTOR('',#557,1.);
#557 = DIRECTION('',(0.,-1.,1.78E-15));
#558 = ORIENTED_EDGE('',*,*,#559,.F.);
#559 = EDGE_CURVE('',#517,#552,#560,.T.);
#560 = LINE('',#561,#562);
#561 = CARTESIAN_POINT('',(26.575,-11.52,1.05));
#562 = VECTOR('',#563,1.);
#563 = DIRECTION('',(1.,0.,0.));
#564 = ORIENTED_EDGE('',*,*,#524,.F.);
#565 = PLANE('',#566);
#566 = AXIS2_PLACEMENT_3D('',#567,#568,#569);
#567 = CARTESIAN_POINT('',(26.5,-21.37,1.05));
#568 = DIRECTION('',(0.,1.78E-15,1.));
#569 = DIRECTION('',(-1.,1.95E-15,-3.471E-30));
#570 = ADVANCED_FACE('',(#571,#582),#593,.F.);
#571 = FACE_BOUND('',#572,.F.);
#572 = EDGE_LOOP('',(#573,#574,#575,#576));
#573 = ORIENTED_EDGE('',*,*,#501,.F.);
#574 = ORIENTED_EDGE('',*,*,#47,.T.);
#575 = ORIENTED_EDGE('',*,*,#551,.F.);
#576 = ORIENTED_EDGE('',*,*,#577,.F.);
#577 = EDGE_CURVE('',#494,#552,#578,.T.);
#578 = LINE('',#579,#580);
#579 = CARTESIAN_POINT('',(26.65,-11.52,11.25));
#580 = VECTOR('',#581,1.);
#581 = DIRECTION('',(-0.,-1.77E-15,-1.));
#582 = FACE_BOUND('',#583,.F.);
#583 = EDGE_LOOP('',(#584));
#584 = ORIENTED_EDGE('',*,*,#585,.F.);
#585 = EDGE_CURVE('',#586,#586,#588,.T.);
#586 = VERTEX_POINT('',#587);
#587 = CARTESIAN_POINT('',(26.65,-16.,7.75));
#588 = CIRCLE('',#589,1.5);
#589 = AXIS2_PLACEMENT_3D('',#590,#591,#592);
#590 = CARTESIAN_POINT('',(26.65,-17.5,7.75));
#591 = DIRECTION('',(1.,-2.E-15,-4.22E-15));
#592 = DIRECTION('',(2.E-15,1.,0.));
#593 = PLANE('',#594);
#594 = AXIS2_PLACEMENT_3D('',#595,#596,#597);
#595 = CARTESIAN_POINT('',(26.65,-21.37,11.25));
#596 = DIRECTION('',(1.,0.,0.));
#597 = DIRECTION('',(0.,1.,-1.77E-15));
#598 = ADVANCED_FACE('',(#599),#618,.F.);
#599 = FACE_BOUND('',#600,.F.);
#600 = EDGE_LOOP('',(#601,#609,#610,#611));
#601 = ORIENTED_EDGE('',*,*,#602,.F.);
#602 = EDGE_CURVE('',#145,#603,#605,.T.);
#603 = VERTEX_POINT('',#604);
#604 = CARTESIAN_POINT('',(26.65,19.,7.75));
#605 = LINE('',#606,#607);
#606 = CARTESIAN_POINT('',(27.5,19.,7.75));
#607 = VECTOR('',#608,1.);
#608 = DIRECTION('',(-1.,2.E-15,4.22E-15));
#609 = ORIENTED_EDGE('',*,*,#144,.F.);
#610 = ORIENTED_EDGE('',*,*,#602,.T.);
#611 = ORIENTED_EDGE('',*,*,#612,.T.);
#612 = EDGE_CURVE('',#603,#603,#613,.T.);
#613 = CIRCLE('',#614,1.5);
#614 = AXIS2_PLACEMENT_3D('',#615,#616,#617);
#615 = CARTESIAN_POINT('',(26.65,17.5,7.75));
#616 = DIRECTION('',(1.,-2.E-15,-4.22E-15));
#617 = DIRECTION('',(2.E-15,1.,0.));
#618 = CYLINDRICAL_SURFACE('',#619,1.5);
#619 = AXIS2_PLACEMENT_3D('',#620,#621,#622);
#620 = CARTESIAN_POINT('',(27.5,17.5,7.75));
#621 = DIRECTION('',(1.,-2.E-15,-4.22E-15));
#622 = DIRECTION('',(2.E-15,1.,0.));
#623 = ADVANCED_FACE('',(#624),#635,.F.);
#624 = FACE_BOUND('',#625,.F.);
#625 = EDGE_LOOP('',(#626,#632,#633,#634));
#626 = ORIENTED_EDGE('',*,*,#627,.F.);
#627 = EDGE_CURVE('',#156,#586,#628,.T.);
#628 = LINE('',#629,#630);
#629 = CARTESIAN_POINT('',(27.5,-16.,7.75));
#630 = VECTOR('',#631,1.);
#631 = DIRECTION('',(-1.,2.E-15,4.22E-15));
#632 = ORIENTED_EDGE('',*,*,#155,.F.);
#633 = ORIENTED_EDGE('',*,*,#627,.T.);
#634 = ORIENTED_EDGE('',*,*,#585,.T.);
#635 = CYLINDRICAL_SURFACE('',#636,1.5);
#636 = AXIS2_PLACEMENT_3D('',#637,#638,#639);
#637 = CARTESIAN_POINT('',(27.5,-17.5,7.75));
#638 = DIRECTION('',(1.,-2.E-15,-4.22E-15));
#639 = DIRECTION('',(2.E-15,1.,0.));
#640 = ADVANCED_FACE('',(#641,#659),#662,.F.);
#641 = FACE_BOUND('',#642,.F.);
#642 = EDGE_LOOP('',(#643,#644,#652,#658));
#643 = ORIENTED_EDGE('',*,*,#460,.F.);
#644 = ORIENTED_EDGE('',*,*,#645,.T.);
#645 = EDGE_CURVE('',#461,#646,#648,.T.);
#646 = VERTEX_POINT('',#647);
#647 = CARTESIAN_POINT('',(26.65,12.,1.05));
#648 = LINE('',#649,#650);
#649 = CARTESIAN_POINT('',(26.65,12.,11.25));
#650 = VECTOR('',#651,1.);
#651 = DIRECTION('',(-0.,-1.77E-15,-1.));
#652 = ORIENTED_EDGE('',*,*,#653,.F.);
#653 = EDGE_CURVE('',#216,#646,#654,.T.);
#654 = LINE('',#655,#656);
#655 = CARTESIAN_POINT('',(26.65,-4.685,1.05));
#656 = VECTOR('',#657,1.);
#657 = DIRECTION('',(0.,-1.,1.78E-15));
#658 = ORIENTED_EDGE('',*,*,#223,.F.);
#659 = FACE_BOUND('',#660,.F.);
#660 = EDGE_LOOP('',(#661));
#661 = ORIENTED_EDGE('',*,*,#612,.F.);
#662 = PLANE('',#663);
#663 = AXIS2_PLACEMENT_3D('',#664,#665,#666);
#664 = CARTESIAN_POINT('',(26.65,12.,11.25));
#665 = DIRECTION('',(1.,0.,0.));
#666 = DIRECTION('',(0.,1.,-1.77E-15));
#667 = ADVANCED_FACE('',(#668),#686,.T.);
#668 = FACE_BOUND('',#669,.T.);
#669 = EDGE_LOOP('',(#670,#678,#684,#685));
#670 = ORIENTED_EDGE('',*,*,#671,.F.);
#671 = EDGE_CURVE('',#672,#208,#674,.T.);
#672 = VERTEX_POINT('',#673);
#673 = CARTESIAN_POINT('',(22.85,12.,1.05));
#674 = LINE('',#675,#676);
#675 = CARTESIAN_POINT('',(22.85,0.24,1.05));
#676 = VECTOR('',#677,1.);
#677 = DIRECTION('',(0.,1.,-1.78E-15));
#678 = ORIENTED_EDGE('',*,*,#679,.F.);
#679 = EDGE_CURVE('',#646,#672,#680,.T.);
#680 = LINE('',#681,#682);
#681 = CARTESIAN_POINT('',(24.675,12.,1.05));
#682 = VECTOR('',#683,1.);
#683 = DIRECTION('',(-1.,0.,0.));
#684 = ORIENTED_EDGE('',*,*,#653,.F.);
#685 = ORIENTED_EDGE('',*,*,#215,.F.);
#686 = PLANE('',#687);
#687 = AXIS2_PLACEMENT_3D('',#688,#689,#690);
#688 = CARTESIAN_POINT('',(26.5,-21.37,1.05));
#689 = DIRECTION('',(0.,1.78E-15,1.));
#690 = DIRECTION('',(-1.,1.95E-15,-3.471E-30));
#691 = ADVANCED_FACE('',(#692,#703),#714,.F.);
#692 = FACE_BOUND('',#693,.F.);
#693 = EDGE_LOOP('',(#694,#695,#696,#697));
#694 = ORIENTED_EDGE('',*,*,#476,.F.);
#695 = ORIENTED_EDGE('',*,*,#207,.T.);
#696 = ORIENTED_EDGE('',*,*,#671,.F.);
#697 = ORIENTED_EDGE('',*,*,#698,.F.);
#698 = EDGE_CURVE('',#469,#672,#699,.T.);
#699 = LINE('',#700,#701);
#700 = CARTESIAN_POINT('',(22.85,12.,11.25));
#701 = VECTOR('',#702,1.);
#702 = DIRECTION('',(-0.,-1.77E-15,-1.));
#703 = FACE_BOUND('',#704,.F.);
#704 = EDGE_LOOP('',(#705));
#705 = ORIENTED_EDGE('',*,*,#706,.T.);
#706 = EDGE_CURVE('',#707,#707,#709,.T.);
#707 = VERTEX_POINT('',#708);
#708 = CARTESIAN_POINT('',(22.85,19.,7.75));
#709 = CIRCLE('',#710,1.5);
#710 = AXIS2_PLACEMENT_3D('',#711,#712,#713);
#711 = CARTESIAN_POINT('',(22.85,17.5,7.75));
#712 = DIRECTION('',(1.,-2.E-15,-4.22E-15));
#713 = DIRECTION('',(2.E-15,1.,0.));
#714 = PLANE('',#715);
#715 = AXIS2_PLACEMENT_3D('',#716,#717,#718);
#716 = CARTESIAN_POINT('',(22.85,21.85,11.25));
#717 = DIRECTION('',(-1.,0.,0.));
#718 = DIRECTION('',(0.,-1.,1.77E-15));
#719 = ADVANCED_FACE('',(#720),#745,.T.);
#720 = FACE_BOUND('',#721,.T.);
#721 = EDGE_LOOP('',(#722,#730,#738,#744));
#722 = ORIENTED_EDGE('',*,*,#723,.F.);
#723 = EDGE_CURVE('',#724,#362,#726,.T.);
#724 = VERTEX_POINT('',#725);
#725 = CARTESIAN_POINT('',(28.5,13.85,5.));
#726 = LINE('',#727,#728);
#727 = CARTESIAN_POINT('',(28.5,13.85,5.));
#728 = VECTOR('',#729,1.);
#729 = DIRECTION('',(1.,0.,0.));
#730 = ORIENTED_EDGE('',*,*,#731,.T.);
#731 = EDGE_CURVE('',#724,#732,#734,.T.);
#732 = VERTEX_POINT('',#733);
#733 = CARTESIAN_POINT('',(28.5,13.85,4.));
#734 = LINE('',#735,#736);
#735 = CARTESIAN_POINT('',(28.5,13.85,5.));
#736 = VECTOR('',#737,1.);
#737 = DIRECTION('',(-0.,-1.78E-15,-1.));
#738 = ORIENTED_EDGE('',*,*,#739,.T.);
#739 = EDGE_CURVE('',#732,#370,#740,.T.);
#740 = LINE('',#741,#742);
#741 = CARTESIAN_POINT('',(28.5,13.85,4.));
#742 = VECTOR('',#743,1.);
#743 = DIRECTION('',(1.,0.,0.));
#744 = ORIENTED_EDGE('',*,*,#369,.T.);
#745 = PLANE('',#746);
#746 = AXIS2_PLACEMENT_3D('',#747,#748,#749);
#747 = CARTESIAN_POINT('',(28.5,13.85,5.));
#748 = DIRECTION('',(0.,-1.,1.78E-15));
#749 = DIRECTION('',(1.,0.,0.));
#750 = ADVANCED_FACE('',(#751),#808,.T.);
#751 = FACE_BOUND('',#752,.T.);
#752 = EDGE_LOOP('',(#753,#761,#769,#777,#785,#793,#801,#807));
#753 = ORIENTED_EDGE('',*,*,#754,.F.);
#754 = EDGE_CURVE('',#755,#724,#757,.T.);
#755 = VERTEX_POINT('',#756);
#756 = CARTESIAN_POINT('',(28.5,-13.37,5.));
#757 = LINE('',#758,#759);
#758 = CARTESIAN_POINT('',(28.5,-21.37,5.));
#759 = VECTOR('',#760,1.);
#760 = DIRECTION('',(1.95E-15,1.,-1.78E-15));
#761 = ORIENTED_EDGE('',*,*,#762,.T.);
#762 = EDGE_CURVE('',#755,#763,#765,.T.);
#763 = VERTEX_POINT('',#764);
#764 = CARTESIAN_POINT('',(28.5,-13.37,4.));
#765 = LINE('',#766,#767);
#766 = CARTESIAN_POINT('',(28.5,-13.37,5.));
#767 = VECTOR('',#768,1.);
#768 = DIRECTION('',(-0.,-1.78E-15,-1.));
#769 = ORIENTED_EDGE('',*,*,#770,.T.);
#770 = EDGE_CURVE('',#763,#771,#773,.T.);
#771 = VERTEX_POINT('',#772);
#772 = CARTESIAN_POINT('',(28.5,-20.37,4.));
#773 = LINE('',#774,#775);
#774 = CARTESIAN_POINT('',(28.5,-13.37,4.));
#775 = VECTOR('',#776,1.);
#776 = DIRECTION('',(0.,-1.,2.E-15));
#777 = ORIENTED_EDGE('',*,*,#778,.F.);
#778 = EDGE_CURVE('',#779,#771,#781,.T.);
#779 = VERTEX_POINT('',#780);
#780 = CARTESIAN_POINT('',(28.5,-20.37,3.8E-14));
#781 = LINE('',#782,#783);
#782 = CARTESIAN_POINT('',(28.5,-20.37,-1.995499305718));
#783 = VECTOR('',#784,1.);
#784 = DIRECTION('',(0.,1.86E-15,1.));
#785 = ORIENTED_EDGE('',*,*,#786,.T.);
#786 = EDGE_CURVE('',#779,#787,#789,.T.);
#787 = VERTEX_POINT('',#788);
#788 = CARTESIAN_POINT('',(28.5,20.85,-4.9E-14));
#789 = LINE('',#790,#791);
#790 = CARTESIAN_POINT('',(28.5,-21.37,4.068E-14));
#791 = VECTOR('',#792,1.);
#792 = DIRECTION('',(1.95E-15,1.,-1.78E-15));
#793 = ORIENTED_EDGE('',*,*,#794,.T.);
#794 = EDGE_CURVE('',#787,#795,#797,.T.);
#795 = VERTEX_POINT('',#796);
#796 = CARTESIAN_POINT('',(28.5,20.85,4.));
#797 = LINE('',#798,#799);
#798 = CARTESIAN_POINT('',(28.5,20.85,14.959971910112));
#799 = VECTOR('',#800,1.);
#800 = DIRECTION('',(0.,1.96E-15,1.));
#801 = ORIENTED_EDGE('',*,*,#802,.T.);
#802 = EDGE_CURVE('',#795,#732,#803,.T.);
#803 = LINE('',#804,#805);
#804 = CARTESIAN_POINT('',(28.5,20.85,4.));
#805 = VECTOR('',#806,1.);
#806 = DIRECTION('',(0.,-1.,2.E-15));
#807 = ORIENTED_EDGE('',*,*,#731,.F.);
#808 = PLANE('',#809);
#809 = AXIS2_PLACEMENT_3D('',#810,#811,#812);
#810 = CARTESIAN_POINT('',(28.5,-21.37,4.068E-14));
#811 = DIRECTION('',(1.,-1.95E-15,0.));
#812 = DIRECTION('',(3.471E-30,1.78E-15,1.));
#813 = ADVANCED_FACE('',(#814),#830,.T.);
#814 = FACE_BOUND('',#815,.T.);
#815 = EDGE_LOOP('',(#816,#822,#823,#829));
#816 = ORIENTED_EDGE('',*,*,#817,.F.);
#817 = EDGE_CURVE('',#353,#755,#818,.T.);
#818 = LINE('',#819,#820);
#819 = CARTESIAN_POINT('',(36.430845199933,-13.37,5.));
#820 = VECTOR('',#821,1.);
#821 = DIRECTION('',(-1.,0.,0.));
#822 = ORIENTED_EDGE('',*,*,#352,.F.);
#823 = ORIENTED_EDGE('',*,*,#824,.T.);
#824 = EDGE_CURVE('',#345,#763,#825,.T.);
#825 = LINE('',#826,#827);
#826 = CARTESIAN_POINT('',(36.430845199933,-13.37,4.));
#827 = VECTOR('',#828,1.);
#828 = DIRECTION('',(-1.,0.,0.));
#829 = ORIENTED_EDGE('',*,*,#762,.F.);
#830 = PLANE('',#831);
#831 = AXIS2_PLACEMENT_3D('',#832,#833,#834);
#832 = CARTESIAN_POINT('',(36.430845199933,-13.37,5.));
#833 = DIRECTION('',(0.,1.,-1.78E-15));
#834 = DIRECTION('',(-1.,0.,0.));
#835 = ADVANCED_FACE('',(#836),#847,.F.);
#836 = FACE_BOUND('',#837,.F.);
#837 = EDGE_LOOP('',(#838,#844,#845,#846));
#838 = ORIENTED_EDGE('',*,*,#839,.T.);
#839 = EDGE_CURVE('',#379,#795,#840,.T.);
#840 = LINE('',#841,#842);
#841 = CARTESIAN_POINT('',(36.430845199933,20.85,4.));
#842 = VECTOR('',#843,1.);
#843 = DIRECTION('',(-1.,0.,0.));
#844 = ORIENTED_EDGE('',*,*,#802,.T.);
#845 = ORIENTED_EDGE('',*,*,#739,.T.);
#846 = ORIENTED_EDGE('',*,*,#378,.F.);
#847 = PLANE('',#848);
#848 = AXIS2_PLACEMENT_3D('',#849,#850,#851);
#849 = CARTESIAN_POINT('',(32.465422599967,0.24,4.));
#850 = DIRECTION('',(0.,1.79E-15,1.));
#851 = DIRECTION('',(0.,1.,-1.79E-15));
#852 = ADVANCED_FACE('',(#853),#875,.F.);
#853 = FACE_BOUND('',#854,.F.);
#854 = EDGE_LOOP('',(#855,#856,#857,#866,#873,#874));
#855 = ORIENTED_EDGE('',*,*,#386,.F.);
#856 = ORIENTED_EDGE('',*,*,#294,.T.);
#857 = ORIENTED_EDGE('',*,*,#858,.T.);
#858 = EDGE_CURVE('',#297,#859,#861,.T.);
#859 = VERTEX_POINT('',#860);
#860 = CARTESIAN_POINT('',(28.3,20.85,-0.6));
#861 = CIRCLE('',#862,20.375);
#862 = AXIS2_PLACEMENT_3D('',#863,#864,#865);
#863 = CARTESIAN_POINT('',(12.,20.85,11.625));
#864 = DIRECTION('',(-1.95E-15,-1.,1.78E-15));
#865 = DIRECTION('',(-1.,1.95E-15,0.));
#866 = ORIENTED_EDGE('',*,*,#867,.F.);
#867 = EDGE_CURVE('',#787,#859,#868,.T.);
#868 = CIRCLE('',#869,1.);
#869 = AXIS2_PLACEMENT_3D('',#870,#871,#872);
#870 = CARTESIAN_POINT('',(27.5,20.85,-7.866E-14));
#871 = DIRECTION('',(4.14E-15,1.,-2.79E-15));
#872 = DIRECTION('',(1.1E-16,2.79E-15,1.));
#873 = ORIENTED_EDGE('',*,*,#794,.T.);
#874 = ORIENTED_EDGE('',*,*,#839,.F.);
#875 = PLANE('',#876);
#876 = AXIS2_PLACEMENT_3D('',#877,#878,#879);
#877 = CARTESIAN_POINT('',(-1.366E-13,20.85,29.919943820225));
#878 = DIRECTION('',(2.32E-15,1.,-1.96E-15));
#879 = DIRECTION('',(1.,-2.32E-15,2.2E-16));
#880 = ADVANCED_FACE('',(#881),#900,.T.);
#881 = FACE_BOUND('',#882,.T.);
#882 = EDGE_LOOP('',(#883,#891,#892,#893));
#883 = ORIENTED_EDGE('',*,*,#884,.T.);
#884 = EDGE_CURVE('',#885,#859,#887,.T.);
#885 = VERTEX_POINT('',#886);
#886 = CARTESIAN_POINT('',(28.3,-20.37,-0.6));
#887 = LINE('',#888,#889);
#888 = CARTESIAN_POINT('',(28.3,-21.37,-0.6));
#889 = VECTOR('',#890,1.);
#890 = DIRECTION('',(1.95E-15,1.,-1.78E-15));
#891 = ORIENTED_EDGE('',*,*,#867,.F.);
#892 = ORIENTED_EDGE('',*,*,#786,.F.);
#893 = ORIENTED_EDGE('',*,*,#894,.T.);
#894 = EDGE_CURVE('',#779,#885,#895,.T.);
#895 = CIRCLE('',#896,1.);
#896 = AXIS2_PLACEMENT_3D('',#897,#898,#899);
#897 = CARTESIAN_POINT('',(27.5,-20.37,3.629E-14));
#898 = DIRECTION('',(4.14E-15,1.,-2.79E-15));
#899 = DIRECTION('',(1.1E-16,2.79E-15,1.));
#900 = CYLINDRICAL_SURFACE('',#901,1.);
#901 = AXIS2_PLACEMENT_3D('',#902,#903,#904);
#902 = CARTESIAN_POINT('',(27.5,-21.37,3.908E-14));
#903 = DIRECTION('',(4.14E-15,1.,-2.79E-15));
#904 = DIRECTION('',(1.1E-16,2.79E-15,1.));
#905 = ADVANCED_FACE('',(#906),#925,.T.);
#906 = FACE_BOUND('',#907,.T.);
#907 = EDGE_LOOP('',(#908,#909,#915,#916,#917,#924));
#908 = ORIENTED_EDGE('',*,*,#778,.T.);
#909 = ORIENTED_EDGE('',*,*,#910,.T.);
#910 = EDGE_CURVE('',#771,#336,#911,.T.);
#911 = LINE('',#912,#913);
#912 = CARTESIAN_POINT('',(28.5,-20.37,4.));
#913 = VECTOR('',#914,1.);
#914 = DIRECTION('',(1.,0.,0.));
#915 = ORIENTED_EDGE('',*,*,#335,.F.);
#916 = ORIENTED_EDGE('',*,*,#312,.T.);
#917 = ORIENTED_EDGE('',*,*,#918,.T.);
#918 = EDGE_CURVE('',#313,#885,#919,.T.);
#919 = CIRCLE('',#920,20.375);
#920 = AXIS2_PLACEMENT_3D('',#921,#922,#923);
#921 = CARTESIAN_POINT('',(12.,-20.37,11.625));
#922 = DIRECTION('',(-1.95E-15,-1.,1.78E-15));
#923 = DIRECTION('',(-1.,1.95E-15,0.));
#924 = ORIENTED_EDGE('',*,*,#894,.F.);
#925 = PLANE('',#926);
#926 = AXIS2_PLACEMENT_3D('',#927,#928,#929);
#927 = CARTESIAN_POINT('',(24.774282430584,-20.37,-3.990998611436));
#928 = DIRECTION('',(2.05E-15,1.,-1.86E-15));
#929 = DIRECTION('',(1.,-2.05E-15,0.));
#930 = ADVANCED_FACE('',(#931),#937,.F.);
#931 = FACE_BOUND('',#932,.F.);
#932 = EDGE_LOOP('',(#933,#934,#935,#936));
#933 = ORIENTED_EDGE('',*,*,#770,.T.);
#934 = ORIENTED_EDGE('',*,*,#910,.T.);
#935 = ORIENTED_EDGE('',*,*,#344,.F.);
#936 = ORIENTED_EDGE('',*,*,#824,.T.);
#937 = PLANE('',#938);
#938 = AXIS2_PLACEMENT_3D('',#939,#940,#941);
#939 = CARTESIAN_POINT('',(32.465422599967,0.24,4.));
#940 = DIRECTION('',(0.,1.79E-15,1.));
#941 = DIRECTION('',(0.,1.,-1.79E-15));
#942 = ADVANCED_FACE('',(#943),#949,.T.);
#943 = FACE_BOUND('',#944,.F.);
#944 = EDGE_LOOP('',(#945,#946,#947,#948));
#945 = ORIENTED_EDGE('',*,*,#320,.F.);
#946 = ORIENTED_EDGE('',*,*,#918,.T.);
#947 = ORIENTED_EDGE('',*,*,#884,.T.);
#948 = ORIENTED_EDGE('',*,*,#858,.F.);
#949 = CYLINDRICAL_SURFACE('',#950,20.375);
#950 = AXIS2_PLACEMENT_3D('',#951,#952,#953);
#951 = CARTESIAN_POINT('',(12.,-21.37,11.625));
#952 = DIRECTION('',(-1.95E-15,-1.,1.78E-15));
#953 = DIRECTION('',(-1.,1.95E-15,0.));
#954 = ADVANCED_FACE('',(#955),#966,.F.);
#955 = FACE_BOUND('',#956,.F.);
#956 = EDGE_LOOP('',(#957,#958,#964,#965));
#957 = ORIENTED_EDGE('',*,*,#706,.F.);
#958 = ORIENTED_EDGE('',*,*,#959,.T.);
#959 = EDGE_CURVE('',#707,#430,#960,.T.);
#960 = LINE('',#961,#962);
#961 = CARTESIAN_POINT('',(27.5,19.,7.75));
#962 = VECTOR('',#963,1.);
#963 = DIRECTION('',(-1.,2.E-15,4.22E-15));
#964 = ORIENTED_EDGE('',*,*,#429,.T.);
#965 = ORIENTED_EDGE('',*,*,#959,.F.);
#966 = CYLINDRICAL_SURFACE('',#967,1.5);
#967 = AXIS2_PLACEMENT_3D('',#968,#969,#970);
#968 = CARTESIAN_POINT('',(27.5,17.5,7.75));
#969 = DIRECTION('',(1.,-2.E-15,-4.22E-15));
#970 = DIRECTION('',(2.E-15,1.,0.));
#971 = ADVANCED_FACE('',(#972),#983,.F.);
#972 = FACE_BOUND('',#973,.F.);
#973 = EDGE_LOOP('',(#974,#975,#981,#982));
#974 = ORIENTED_EDGE('',*,*,#533,.F.);
#975 = ORIENTED_EDGE('',*,*,#976,.T.);
#976 = EDGE_CURVE('',#534,#441,#977,.T.);
#977 = LINE('',#978,#979);
#978 = CARTESIAN_POINT('',(27.5,-16.,7.75));
#979 = VECTOR('',#980,1.);
#980 = DIRECTION('',(-1.,2.E-15,4.22E-15));
#981 = ORIENTED_EDGE('',*,*,#440,.T.);
#982 = ORIENTED_EDGE('',*,*,#976,.F.);
#983 = CYLINDRICAL_SURFACE('',#984,1.5);
#984 = AXIS2_PLACEMENT_3D('',#985,#986,#987);
#985 = CARTESIAN_POINT('',(27.5,-17.5,7.75));
#986 = DIRECTION('',(1.,-2.E-15,-4.22E-15));
#987 = DIRECTION('',(2.E-15,1.,0.));
#988 = ADVANCED_FACE('',(#989),#995,.F.);
#989 = FACE_BOUND('',#990,.F.);
#990 = EDGE_LOOP('',(#991,#992,#993,#994));
#991 = ORIENTED_EDGE('',*,*,#493,.F.);
#992 = ORIENTED_EDGE('',*,*,#577,.T.);
#993 = ORIENTED_EDGE('',*,*,#559,.F.);
#994 = ORIENTED_EDGE('',*,*,#516,.F.);
#995 = PLANE('',#996);
#996 = AXIS2_PLACEMENT_3D('',#997,#998,#999);
#997 = CARTESIAN_POINT('',(26.65,-11.52,11.25));
#998 = DIRECTION('',(0.,1.,-1.77E-15));
#999 = DIRECTION('',(-1.,0.,0.));
#1000 = ADVANCED_FACE('',(#1001),#1007,.F.);
#1001 = FACE_BOUND('',#1002,.F.);
#1002 = EDGE_LOOP('',(#1003,#1004,#1005,#1006));
#1003 = ORIENTED_EDGE('',*,*,#468,.F.);
#1004 = ORIENTED_EDGE('',*,*,#698,.T.);
#1005 = ORIENTED_EDGE('',*,*,#679,.F.);
#1006 = ORIENTED_EDGE('',*,*,#645,.F.);
#1007 = PLANE('',#1008);
#1008 = AXIS2_PLACEMENT_3D('',#1009,#1010,#1011);
#1009 = CARTESIAN_POINT('',(22.85,12.,11.25));
#1010 = DIRECTION('',(0.,-1.,1.77E-15));
#1011 = DIRECTION('',(1.,0.,0.));
#1012 = ADVANCED_FACE('',(#1013,#1019),#1025,.F.);
#1013 = FACE_BOUND('',#1014,.T.);
#1014 = EDGE_LOOP('',(#1015,#1016,#1017,#1018));
#1015 = ORIENTED_EDGE('',*,*,#21,.T.);
#1016 = ORIENTED_EDGE('',*,*,#262,.T.);
#1017 = ORIENTED_EDGE('',*,*,#238,.F.);
#1018 = ORIENTED_EDGE('',*,*,#128,.F.);
#1019 = FACE_BOUND('',#1020,.F.);
#1020 = EDGE_LOOP('',(#1021,#1022,#1023,#1024));
#1021 = ORIENTED_EDGE('',*,*,#817,.F.);
#1022 = ORIENTED_EDGE('',*,*,#361,.F.);
#1023 = ORIENTED_EDGE('',*,*,#723,.F.);
#1024 = ORIENTED_EDGE('',*,*,#754,.F.);
#1025 = PLANE('',#1026);
#1026 = AXIS2_PLACEMENT_3D('',#1027,#1028,#1029);
#1027 = CARTESIAN_POINT('',(27.5,-21.37,5.));
#1028 = DIRECTION('',(-0.,-1.78E-15,-1.));
#1029 = DIRECTION('',(1.,-1.95E-15,3.471E-30));
#1030 = ( GEOMETRIC_REPRESENTATION_CONTEXT(3) 
GLOBAL_UNCERTAINTY_ASSIGNED_CONTEXT((#1034)) 
GLOBAL_UNIT_ASSIGNED_CONTEXT((#1031,#1032,#1033)) REPRESENTATION_CONTEXT
('Context #1','3D Context with UNIT and UNCERTAINTY') );
#1031 = ( LENGTH_UNIT() NAMED_UNIT(*) SI_UNIT(.MILLI.,.METRE.) );
#1032 = ( NAMED_UNIT(*) PLANE_ANGLE_UNIT() SI_UNIT($,.RADIAN.) );
#1033 = ( NAMED_UNIT(*) SI_UNIT($,.STERADIAN.) SOLID_ANGLE_UNIT() );
#1034 = UNCERTAINTY_MEASURE_WITH_UNIT(LENGTH_MEASURE(1.E-06),#1031,
  'distance_accuracy_value','confusion accuracy');
#1035 = PRODUCT_RELATED_PRODUCT_CATEGORY('part',$,(#7));
#1036 = MECHANICAL_DESIGN_GEOMETRIC_PRESENTATION_REPRESENTATION('',(
    #1037),#1030);
#1037 = STYLED_ITEM('color',(#1038),#15);
#1038 = PRESENTATION_STYLE_ASSIGNMENT((#1039,#1045));
#1039 = SURFACE_STYLE_USAGE(.BOTH.,#1040);
#1040 = SURFACE_SIDE_STYLE('',(#1041));
#1041 = SURFACE_STYLE_FILL_AREA(#1042);
#1042 = FILL_AREA_STYLE('',(#1043));
#1043 = FILL_AREA_STYLE_COLOUR('',#1044);
#1044 = COLOUR_RGB('',0.447058818107,0.474509808674,0.501960817233);
#1045 = CURVE_STYLE('',#1046,POSITIVE_LENGTH_MEASURE(0.1),#1047);
#1046 = DRAUGHTING_PRE_DEFINED_CURVE_FONT('continuous');
#1047 = COLOUR_RGB('',9.803921802644E-02,9.803921802644E-02,
  9.803921802644E-02);
ENDSEC;
END-ISO-10303-21;
