ISO-10303-21;
HEADER;
FILE_DESCRIPTION(('FreeCAD Model'),'2;1');
FILE_NAME('Open CASCADE Shape Model','2025-11-04T09:14:57',(''),(''),
  'Open CASCADE STEP processor 7.9','FreeCAD','Unknown');
FILE_SCHEMA(('AUTOMOTIVE_DESIGN { 1 0 10303 214 1 1 1 1 }'));
ENDSEC;
DATA;
#1 = APPLICATION_PROTOCOL_DEFINITION('international standard',
  'automotive_design',2000,#2);
#2 = APPLICATION_CONTEXT(
  'core data for automotive mechanical design processes');
#3 = SHAPE_DEFINITION_REPRESENTATION(#4,#10);
#4 = PRODUCT_DEFINITION_SHAPE('','',#5);
#5 = PRODUCT_DEFINITION('design','',#6,#9);
#6 = PRODUCT_DEFINITION_FORMATION('','',#7);
#7 = PRODUCT('ElectronicsCase','ElectronicsCase','',(#8));
#8 = PRODUCT_CONTEXT('',#2,'mechanical');
#9 = PRODUCT_DEFINITION_CONTEXT('part definition',#2,'design');
#10 = ADVANCED_BREP_SHAPE_REPRESENTATION('',(#11,#15),#2144);
#11 = AXIS2_PLACEMENT_3D('',#12,#13,#14);
#12 = CARTESIAN_POINT('',(0.,0.,0.));
#13 = DIRECTION('',(0.,0.,1.));
#14 = DIRECTION('',(1.,0.,-0.));
#15 = MANIFOLD_SOLID_BREP('',#16);
#16 = CLOSED_SHELL('',(#17,#145,#324,#403,#443,#476,#501,#526,#551,#576,
    #601,#626,#651,#676,#702,#733,#757,#781,#806,#830,#848,#879,#903,
    #927,#952,#976,#994,#1019,#1044,#1069,#1094,#1119,#1144,#1169,#1194,
    #1219,#1303,#1320,#1387,#1407,#1427,#1447,#1467,#1487,#1507,#1527,
    #1547,#1564,#1581,#1598,#1615,#1635,#1655,#1675,#1695,#1715,#1732,
    #1749,#1766,#1783,#1800,#1825,#1850,#1875,#1900,#1925,#1950,#1975,
    #2000,#2018,#2036,#2054,#2072,#2090,#2108,#2126));
#17 = ADVANCED_FACE('',(#18,#52,#63,#74,#85,#96,#107,#118,#129),#140,.F.
  );
#18 = FACE_BOUND('',#19,.F.);
#19 = EDGE_LOOP('',(#20,#30,#38,#46));
#20 = ORIENTED_EDGE('',*,*,#21,.T.);
#21 = EDGE_CURVE('',#22,#24,#26,.T.);
#22 = VERTEX_POINT('',#23);
#23 = CARTESIAN_POINT('',(-6.,-74.,0.));
#24 = VERTEX_POINT('',#25);
#25 = CARTESIAN_POINT('',(-6.,0.,0.));
#26 = LINE('',#27,#28);
#27 = CARTESIAN_POINT('',(-6.,-74.,0.));
#28 = VECTOR('',#29,1.);
#29 = DIRECTION('',(0.,1.,0.));
#30 = ORIENTED_EDGE('',*,*,#31,.T.);
#31 = EDGE_CURVE('',#24,#32,#34,.T.);
#32 = VERTEX_POINT('',#33);
#33 = CARTESIAN_POINT('',(-170.,0.,0.));
#34 = LINE('',#35,#36);
#35 = CARTESIAN_POINT('',(0.,0.,0.));
#36 = VECTOR('',#37,1.);
#37 = DIRECTION('',(-1.,0.,0.));
#38 = ORIENTED_EDGE('',*,*,#39,.T.);
#39 = EDGE_CURVE('',#32,#40,#42,.T.);
#40 = VERTEX_POINT('',#41);
#41 = CARTESIAN_POINT('',(-170.,-74.,0.));
#42 = LINE('',#43,#44);
#43 = CARTESIAN_POINT('',(-170.,0.,0.));
#44 = VECTOR('',#45,1.);
#45 = DIRECTION('',(0.,-1.,0.));
#46 = ORIENTED_EDGE('',*,*,#47,.T.);
#47 = EDGE_CURVE('',#40,#22,#48,.T.);
#48 = LINE('',#49,#50);
#49 = CARTESIAN_POINT('',(-170.,-74.,0.));
#50 = VECTOR('',#51,1.);
#51 = DIRECTION('',(1.,0.,0.));
#52 = FACE_BOUND('',#53,.F.);
#53 = EDGE_LOOP('',(#54));
#54 = ORIENTED_EDGE('',*,*,#55,.T.);
#55 = EDGE_CURVE('',#56,#56,#58,.T.);
#56 = VERTEX_POINT('',#57);
#57 = CARTESIAN_POINT('',(-163.1,-59.,0.));
#58 = CIRCLE('',#59,3.);
#59 = AXIS2_PLACEMENT_3D('',#60,#61,#62);
#60 = CARTESIAN_POINT('',(-166.1,-59.,0.));
#61 = DIRECTION('',(0.,0.,-1.));
#62 = DIRECTION('',(1.,0.,0.));
#63 = FACE_BOUND('',#64,.F.);
#64 = EDGE_LOOP('',(#65));
#65 = ORIENTED_EDGE('',*,*,#66,.T.);
#66 = EDGE_CURVE('',#67,#67,#69,.T.);
#67 = VERTEX_POINT('',#68);
#68 = CARTESIAN_POINT('',(-118.,-59.,0.));
#69 = CIRCLE('',#70,3.);
#70 = AXIS2_PLACEMENT_3D('',#71,#72,#73);
#71 = CARTESIAN_POINT('',(-121.,-59.,0.));
#72 = DIRECTION('',(0.,0.,-1.));
#73 = DIRECTION('',(1.,0.,0.));
#74 = FACE_BOUND('',#75,.F.);
#75 = EDGE_LOOP('',(#76));
#76 = ORIENTED_EDGE('',*,*,#77,.T.);
#77 = EDGE_CURVE('',#78,#78,#80,.T.);
#78 = VERTEX_POINT('',#79);
#79 = CARTESIAN_POINT('',(-96.,-59.,0.));
#80 = CIRCLE('',#81,3.);
#81 = AXIS2_PLACEMENT_3D('',#82,#83,#84);
#82 = CARTESIAN_POINT('',(-99.,-59.,0.));
#83 = DIRECTION('',(0.,0.,-1.));
#84 = DIRECTION('',(1.,0.,0.));
#85 = FACE_BOUND('',#86,.F.);
#86 = EDGE_LOOP('',(#87));
#87 = ORIENTED_EDGE('',*,*,#88,.T.);
#88 = EDGE_CURVE('',#89,#89,#91,.T.);
#89 = VERTEX_POINT('',#90);
#90 = CARTESIAN_POINT('',(-38.,-59.,0.));
#91 = CIRCLE('',#92,3.);
#92 = AXIS2_PLACEMENT_3D('',#93,#94,#95);
#93 = CARTESIAN_POINT('',(-41.,-59.,0.));
#94 = DIRECTION('',(0.,0.,-1.));
#95 = DIRECTION('',(1.,0.,0.));
#96 = FACE_BOUND('',#97,.F.);
#97 = EDGE_LOOP('',(#98));
#98 = ORIENTED_EDGE('',*,*,#99,.T.);
#99 = EDGE_CURVE('',#100,#100,#102,.T.);
#100 = VERTEX_POINT('',#101);
#101 = CARTESIAN_POINT('',(-163.1,-9.1,0.));
#102 = CIRCLE('',#103,3.);
#103 = AXIS2_PLACEMENT_3D('',#104,#105,#106);
#104 = CARTESIAN_POINT('',(-166.1,-9.1,0.));
#105 = DIRECTION('',(0.,0.,-1.));
#106 = DIRECTION('',(1.,0.,0.));
#107 = FACE_BOUND('',#108,.F.);
#108 = EDGE_LOOP('',(#109));
#109 = ORIENTED_EDGE('',*,*,#110,.T.);
#110 = EDGE_CURVE('',#111,#111,#113,.T.);
#111 = VERTEX_POINT('',#112);
#112 = CARTESIAN_POINT('',(-118.,-9.1,0.));
#113 = CIRCLE('',#114,3.);
#114 = AXIS2_PLACEMENT_3D('',#115,#116,#117);
#115 = CARTESIAN_POINT('',(-121.,-9.1,0.));
#116 = DIRECTION('',(0.,0.,-1.));
#117 = DIRECTION('',(1.,0.,0.));
#118 = FACE_BOUND('',#119,.F.);
#119 = EDGE_LOOP('',(#120));
#120 = ORIENTED_EDGE('',*,*,#121,.T.);
#121 = EDGE_CURVE('',#122,#122,#124,.T.);
#122 = VERTEX_POINT('',#123);
#123 = CARTESIAN_POINT('',(-96.,-10.,0.));
#124 = CIRCLE('',#125,3.);
#125 = AXIS2_PLACEMENT_3D('',#126,#127,#128);
#126 = CARTESIAN_POINT('',(-99.,-10.,0.));
#127 = DIRECTION('',(0.,0.,-1.));
#128 = DIRECTION('',(1.,0.,0.));
#129 = FACE_BOUND('',#130,.F.);
#130 = EDGE_LOOP('',(#131));
#131 = ORIENTED_EDGE('',*,*,#132,.T.);
#132 = EDGE_CURVE('',#133,#133,#135,.T.);
#133 = VERTEX_POINT('',#134);
#134 = CARTESIAN_POINT('',(-38.,-10.,0.));
#135 = CIRCLE('',#136,3.);
#136 = AXIS2_PLACEMENT_3D('',#137,#138,#139);
#137 = CARTESIAN_POINT('',(-41.,-10.,0.));
#138 = DIRECTION('',(0.,0.,-1.));
#139 = DIRECTION('',(1.,0.,0.));
#140 = PLANE('',#141);
#141 = AXIS2_PLACEMENT_3D('',#142,#143,#144);
#142 = CARTESIAN_POINT('',(-85.,-40.,0.));
#143 = DIRECTION('',(0.,0.,1.));
#144 = DIRECTION('',(1.,0.,0.));
#145 = ADVANCED_FACE('',(#146,#171,#223,#275,#286,#297,#308),#319,.T.);
#146 = FACE_BOUND('',#147,.T.);
#147 = EDGE_LOOP('',(#148,#149,#157,#165));
#148 = ORIENTED_EDGE('',*,*,#21,.T.);
#149 = ORIENTED_EDGE('',*,*,#150,.T.);
#150 = EDGE_CURVE('',#24,#151,#153,.T.);
#151 = VERTEX_POINT('',#152);
#152 = CARTESIAN_POINT('',(-6.,0.,-40.));
#153 = LINE('',#154,#155);
#154 = CARTESIAN_POINT('',(-6.,0.,0.));
#155 = VECTOR('',#156,1.);
#156 = DIRECTION('',(0.,0.,-1.));
#157 = ORIENTED_EDGE('',*,*,#158,.F.);
#158 = EDGE_CURVE('',#159,#151,#161,.T.);
#159 = VERTEX_POINT('',#160);
#160 = CARTESIAN_POINT('',(-6.,-74.,-40.));
#161 = LINE('',#162,#163);
#162 = CARTESIAN_POINT('',(-6.,-74.,-40.));
#163 = VECTOR('',#164,1.);
#164 = DIRECTION('',(0.,1.,0.));
#165 = ORIENTED_EDGE('',*,*,#166,.F.);
#166 = EDGE_CURVE('',#22,#159,#167,.T.);
#167 = LINE('',#168,#169);
#168 = CARTESIAN_POINT('',(-6.,-74.,-32.));
#169 = VECTOR('',#170,1.);
#170 = DIRECTION('',(-0.,-0.,-1.));
#171 = FACE_BOUND('',#172,.T.);
#172 = EDGE_LOOP('',(#173,#183,#191,#199,#208,#216));
#173 = ORIENTED_EDGE('',*,*,#174,.T.);
#174 = EDGE_CURVE('',#175,#177,#179,.T.);
#175 = VERTEX_POINT('',#176);
#176 = CARTESIAN_POINT('',(-6.,-69.,-4.));
#177 = VERTEX_POINT('',#178);
#178 = CARTESIAN_POINT('',(-6.,-69.,-25.));
#179 = LINE('',#180,#181);
#180 = CARTESIAN_POINT('',(-6.,-69.,-1.));
#181 = VECTOR('',#182,1.);
#182 = DIRECTION('',(0.,0.,-1.));
#183 = ORIENTED_EDGE('',*,*,#184,.T.);
#184 = EDGE_CURVE('',#177,#185,#187,.T.);
#185 = VERTEX_POINT('',#186);
#186 = CARTESIAN_POINT('',(-6.,-45.,-25.));
#187 = LINE('',#188,#189);
#188 = CARTESIAN_POINT('',(-6.,-69.,-25.));
#189 = VECTOR('',#190,1.);
#190 = DIRECTION('',(0.,1.,0.));
#191 = ORIENTED_EDGE('',*,*,#192,.T.);
#192 = EDGE_CURVE('',#185,#193,#195,.T.);
#193 = VERTEX_POINT('',#194);
#194 = CARTESIAN_POINT('',(-6.,-45.,-4.));
#195 = LINE('',#196,#197);
#196 = CARTESIAN_POINT('',(-6.,-45.,-25.));
#197 = VECTOR('',#198,1.);
#198 = DIRECTION('',(0.,0.,1.));
#199 = ORIENTED_EDGE('',*,*,#200,.F.);
#200 = EDGE_CURVE('',#201,#193,#203,.T.);
#201 = VERTEX_POINT('',#202);
#202 = CARTESIAN_POINT('',(-6.,-48.,-1.));
#203 = CIRCLE('',#204,3.);
#204 = AXIS2_PLACEMENT_3D('',#205,#206,#207);
#205 = CARTESIAN_POINT('',(-6.,-45.,-1.));
#206 = DIRECTION('',(1.,0.,0.));
#207 = DIRECTION('',(0.,1.,0.));
#208 = ORIENTED_EDGE('',*,*,#209,.T.);
#209 = EDGE_CURVE('',#201,#210,#212,.T.);
#210 = VERTEX_POINT('',#211);
#211 = CARTESIAN_POINT('',(-6.,-66.,-1.));
#212 = LINE('',#213,#214);
#213 = CARTESIAN_POINT('',(-6.,-45.,-1.));
#214 = VECTOR('',#215,1.);
#215 = DIRECTION('',(0.,-1.,0.));
#216 = ORIENTED_EDGE('',*,*,#217,.F.);
#217 = EDGE_CURVE('',#175,#210,#218,.T.);
#218 = CIRCLE('',#219,3.);
#219 = AXIS2_PLACEMENT_3D('',#220,#221,#222);
#220 = CARTESIAN_POINT('',(-6.,-69.,-1.));
#221 = DIRECTION('',(1.,0.,0.));
#222 = DIRECTION('',(0.,1.,0.));
#223 = FACE_BOUND('',#224,.T.);
#224 = EDGE_LOOP('',(#225,#235,#243,#251,#260,#268));
#225 = ORIENTED_EDGE('',*,*,#226,.T.);
#226 = EDGE_CURVE('',#227,#229,#231,.T.);
#227 = VERTEX_POINT('',#228);
#228 = CARTESIAN_POINT('',(-6.,-35.,-4.));
#229 = VERTEX_POINT('',#230);
#230 = CARTESIAN_POINT('',(-6.,-35.,-25.));
#231 = LINE('',#232,#233);
#232 = CARTESIAN_POINT('',(-6.,-35.,-1.));
#233 = VECTOR('',#234,1.);
#234 = DIRECTION('',(0.,0.,-1.));
#235 = ORIENTED_EDGE('',*,*,#236,.T.);
#236 = EDGE_CURVE('',#229,#237,#239,.T.);
#237 = VERTEX_POINT('',#238);
#238 = CARTESIAN_POINT('',(-6.,-11.,-25.));
#239 = LINE('',#240,#241);
#240 = CARTESIAN_POINT('',(-6.,-35.,-25.));
#241 = VECTOR('',#242,1.);
#242 = DIRECTION('',(0.,1.,0.));
#243 = ORIENTED_EDGE('',*,*,#244,.T.);
#244 = EDGE_CURVE('',#237,#245,#247,.T.);
#245 = VERTEX_POINT('',#246);
#246 = CARTESIAN_POINT('',(-6.,-11.,-4.));
#247 = LINE('',#248,#249);
#248 = CARTESIAN_POINT('',(-6.,-11.,-25.));
#249 = VECTOR('',#250,1.);
#250 = DIRECTION('',(0.,0.,1.));
#251 = ORIENTED_EDGE('',*,*,#252,.F.);
#252 = EDGE_CURVE('',#253,#245,#255,.T.);
#253 = VERTEX_POINT('',#254);
#254 = CARTESIAN_POINT('',(-6.,-14.,-1.));
#255 = CIRCLE('',#256,3.);
#256 = AXIS2_PLACEMENT_3D('',#257,#258,#259);
#257 = CARTESIAN_POINT('',(-6.,-11.,-1.));
#258 = DIRECTION('',(1.,0.,0.));
#259 = DIRECTION('',(0.,1.,0.));
#260 = ORIENTED_EDGE('',*,*,#261,.T.);
#261 = EDGE_CURVE('',#253,#262,#264,.T.);
#262 = VERTEX_POINT('',#263);
#263 = CARTESIAN_POINT('',(-6.,-32.,-1.));
#264 = LINE('',#265,#266);
#265 = CARTESIAN_POINT('',(-6.,-11.,-1.));
#266 = VECTOR('',#267,1.);
#267 = DIRECTION('',(0.,-1.,0.));
#268 = ORIENTED_EDGE('',*,*,#269,.F.);
#269 = EDGE_CURVE('',#227,#262,#270,.T.);
#270 = CIRCLE('',#271,3.);
#271 = AXIS2_PLACEMENT_3D('',#272,#273,#274);
#272 = CARTESIAN_POINT('',(-6.,-35.,-1.));
#273 = DIRECTION('',(1.,0.,0.));
#274 = DIRECTION('',(0.,1.,0.));
#275 = FACE_BOUND('',#276,.T.);
#276 = EDGE_LOOP('',(#277));
#277 = ORIENTED_EDGE('',*,*,#278,.F.);
#278 = EDGE_CURVE('',#279,#279,#281,.T.);
#279 = VERTEX_POINT('',#280);
#280 = CARTESIAN_POINT('',(-6.,-35.,-1.685720517649));
#281 = CIRCLE('',#282,0.685720517649);
#282 = AXIS2_PLACEMENT_3D('',#283,#284,#285);
#283 = CARTESIAN_POINT('',(-6.,-35.,-1.));
#284 = DIRECTION('',(-1.,-0.,-0.));
#285 = DIRECTION('',(0.,0.,-1.));
#286 = FACE_BOUND('',#287,.T.);
#287 = EDGE_LOOP('',(#288));
#288 = ORIENTED_EDGE('',*,*,#289,.F.);
#289 = EDGE_CURVE('',#290,#290,#292,.T.);
#290 = VERTEX_POINT('',#291);
#291 = CARTESIAN_POINT('',(-6.,-45.,-1.685720517649));
#292 = CIRCLE('',#293,0.685720517649);
#293 = AXIS2_PLACEMENT_3D('',#294,#295,#296);
#294 = CARTESIAN_POINT('',(-6.,-45.,-1.));
#295 = DIRECTION('',(-1.,-0.,-0.));
#296 = DIRECTION('',(0.,0.,-1.));
#297 = FACE_BOUND('',#298,.T.);
#298 = EDGE_LOOP('',(#299));
#299 = ORIENTED_EDGE('',*,*,#300,.F.);
#300 = EDGE_CURVE('',#301,#301,#303,.T.);
#301 = VERTEX_POINT('',#302);
#302 = CARTESIAN_POINT('',(-6.,-69.,-1.685720517649));
#303 = CIRCLE('',#304,0.685720517649);
#304 = AXIS2_PLACEMENT_3D('',#305,#306,#307);
#305 = CARTESIAN_POINT('',(-6.,-69.,-1.));
#306 = DIRECTION('',(-1.,-0.,-0.));
#307 = DIRECTION('',(0.,0.,-1.));
#308 = FACE_BOUND('',#309,.T.);
#309 = EDGE_LOOP('',(#310));
#310 = ORIENTED_EDGE('',*,*,#311,.F.);
#311 = EDGE_CURVE('',#312,#312,#314,.T.);
#312 = VERTEX_POINT('',#313);
#313 = CARTESIAN_POINT('',(-6.,-11.,-1.685720517649));
#314 = CIRCLE('',#315,0.685720517649);
#315 = AXIS2_PLACEMENT_3D('',#316,#317,#318);
#316 = CARTESIAN_POINT('',(-6.,-11.,-1.));
#317 = DIRECTION('',(-1.,-0.,-0.));
#318 = DIRECTION('',(0.,0.,-1.));
#319 = PLANE('',#320);
#320 = AXIS2_PLACEMENT_3D('',#321,#322,#323);
#321 = CARTESIAN_POINT('',(-6.,-37.,-20.));
#322 = DIRECTION('',(-1.,-0.,-0.));
#323 = DIRECTION('',(0.,0.,-1.));
#324 = ADVANCED_FACE('',(#325,#343,#354,#365,#376,#387),#398,.T.);
#325 = FACE_BOUND('',#326,.T.);
#326 = EDGE_LOOP('',(#327,#328,#329,#337));
#327 = ORIENTED_EDGE('',*,*,#47,.T.);
#328 = ORIENTED_EDGE('',*,*,#166,.T.);
#329 = ORIENTED_EDGE('',*,*,#330,.F.);
#330 = EDGE_CURVE('',#331,#159,#333,.T.);
#331 = VERTEX_POINT('',#332);
#332 = CARTESIAN_POINT('',(-170.,-74.,-40.));
#333 = LINE('',#334,#335);
#334 = CARTESIAN_POINT('',(-170.,-74.,-40.));
#335 = VECTOR('',#336,1.);
#336 = DIRECTION('',(1.,0.,0.));
#337 = ORIENTED_EDGE('',*,*,#338,.F.);
#338 = EDGE_CURVE('',#40,#331,#339,.T.);
#339 = LINE('',#340,#341);
#340 = CARTESIAN_POINT('',(-170.,-74.,-32.));
#341 = VECTOR('',#342,1.);
#342 = DIRECTION('',(-0.,-0.,-1.));
#343 = FACE_BOUND('',#344,.T.);
#344 = EDGE_LOOP('',(#345));
#345 = ORIENTED_EDGE('',*,*,#346,.F.);
#346 = EDGE_CURVE('',#347,#347,#349,.T.);
#347 = VERTEX_POINT('',#348);
#348 = CARTESIAN_POINT('',(-159.,-74.,-6.));
#349 = CIRCLE('',#350,3.);
#350 = AXIS2_PLACEMENT_3D('',#351,#352,#353);
#351 = CARTESIAN_POINT('',(-162.,-74.,-6.));
#352 = DIRECTION('',(0.,1.,-2.2E-16));
#353 = DIRECTION('',(1.,0.,0.));
#354 = FACE_BOUND('',#355,.T.);
#355 = EDGE_LOOP('',(#356));
#356 = ORIENTED_EDGE('',*,*,#357,.F.);
#357 = EDGE_CURVE('',#358,#358,#360,.T.);
#358 = VERTEX_POINT('',#359);
#359 = CARTESIAN_POINT('',(-124.,-74.,-6.));
#360 = CIRCLE('',#361,3.);
#361 = AXIS2_PLACEMENT_3D('',#362,#363,#364);
#362 = CARTESIAN_POINT('',(-127.,-74.,-6.));
#363 = DIRECTION('',(0.,1.,-2.2E-16));
#364 = DIRECTION('',(1.,0.,0.));
#365 = FACE_BOUND('',#366,.T.);
#366 = EDGE_LOOP('',(#367));
#367 = ORIENTED_EDGE('',*,*,#368,.F.);
#368 = EDGE_CURVE('',#369,#369,#371,.T.);
#369 = VERTEX_POINT('',#370);
#370 = CARTESIAN_POINT('',(-89.,-74.,-6.));
#371 = CIRCLE('',#372,3.);
#372 = AXIS2_PLACEMENT_3D('',#373,#374,#375);
#373 = CARTESIAN_POINT('',(-92.,-74.,-6.));
#374 = DIRECTION('',(0.,1.,-2.2E-16));
#375 = DIRECTION('',(1.,0.,0.));
#376 = FACE_BOUND('',#377,.T.);
#377 = EDGE_LOOP('',(#378));
#378 = ORIENTED_EDGE('',*,*,#379,.F.);
#379 = EDGE_CURVE('',#380,#380,#382,.T.);
#380 = VERTEX_POINT('',#381);
#381 = CARTESIAN_POINT('',(-54.,-74.,-6.));
#382 = CIRCLE('',#383,3.);
#383 = AXIS2_PLACEMENT_3D('',#384,#385,#386);
#384 = CARTESIAN_POINT('',(-57.,-74.,-6.));
#385 = DIRECTION('',(0.,1.,-2.2E-16));
#386 = DIRECTION('',(1.,0.,0.));
#387 = FACE_BOUND('',#388,.T.);
#388 = EDGE_LOOP('',(#389));
#389 = ORIENTED_EDGE('',*,*,#390,.F.);
#390 = EDGE_CURVE('',#391,#391,#393,.T.);
#391 = VERTEX_POINT('',#392);
#392 = CARTESIAN_POINT('',(-19.,-74.,-6.));
#393 = CIRCLE('',#394,3.);
#394 = AXIS2_PLACEMENT_3D('',#395,#396,#397);
#395 = CARTESIAN_POINT('',(-22.,-74.,-6.));
#396 = DIRECTION('',(0.,1.,-2.2E-16));
#397 = DIRECTION('',(1.,0.,0.));
#398 = PLANE('',#399);
#399 = AXIS2_PLACEMENT_3D('',#400,#401,#402);
#400 = CARTESIAN_POINT('',(-88.,-74.,-20.));
#401 = DIRECTION('',(0.,1.,0.));
#402 = DIRECTION('',(0.,0.,1.));
#403 = ADVANCED_FACE('',(#404),#438,.T.);
#404 = FACE_BOUND('',#405,.T.);
#405 = EDGE_LOOP('',(#406,#416,#422,#423,#424,#432));
#406 = ORIENTED_EDGE('',*,*,#407,.T.);
#407 = EDGE_CURVE('',#408,#410,#412,.T.);
#408 = VERTEX_POINT('',#409);
#409 = CARTESIAN_POINT('',(0.,0.,4.));
#410 = VERTEX_POINT('',#411);
#411 = CARTESIAN_POINT('',(0.,0.,-40.));
#412 = LINE('',#413,#414);
#413 = CARTESIAN_POINT('',(0.,0.,0.));
#414 = VECTOR('',#415,1.);
#415 = DIRECTION('',(0.,0.,-1.));
#416 = ORIENTED_EDGE('',*,*,#417,.F.);
#417 = EDGE_CURVE('',#151,#410,#418,.T.);
#418 = LINE('',#419,#420);
#419 = CARTESIAN_POINT('',(-6.,0.,-40.));
#420 = VECTOR('',#421,1.);
#421 = DIRECTION('',(1.,0.,0.));
#422 = ORIENTED_EDGE('',*,*,#150,.F.);
#423 = ORIENTED_EDGE('',*,*,#31,.T.);
#424 = ORIENTED_EDGE('',*,*,#425,.T.);
#425 = EDGE_CURVE('',#32,#426,#428,.T.);
#426 = VERTEX_POINT('',#427);
#427 = CARTESIAN_POINT('',(-170.,0.,4.));
#428 = LINE('',#429,#430);
#429 = CARTESIAN_POINT('',(-170.,0.,0.));
#430 = VECTOR('',#431,1.);
#431 = DIRECTION('',(0.,0.,1.));
#432 = ORIENTED_EDGE('',*,*,#433,.F.);
#433 = EDGE_CURVE('',#408,#426,#434,.T.);
#434 = LINE('',#435,#436);
#435 = CARTESIAN_POINT('',(0.,0.,4.));
#436 = VECTOR('',#437,1.);
#437 = DIRECTION('',(-1.,0.,0.));
#438 = PLANE('',#439);
#439 = AXIS2_PLACEMENT_3D('',#440,#441,#442);
#440 = CARTESIAN_POINT('',(-69.67289719626,0.,-2.672897196262));
#441 = DIRECTION('',(0.,1.,0.));
#442 = DIRECTION('',(0.,0.,1.));
#443 = ADVANCED_FACE('',(#444),#471,.T.);
#444 = FACE_BOUND('',#445,.T.);
#445 = EDGE_LOOP('',(#446,#447,#448,#449,#457,#465));
#446 = ORIENTED_EDGE('',*,*,#425,.F.);
#447 = ORIENTED_EDGE('',*,*,#39,.T.);
#448 = ORIENTED_EDGE('',*,*,#338,.T.);
#449 = ORIENTED_EDGE('',*,*,#450,.F.);
#450 = EDGE_CURVE('',#451,#331,#453,.T.);
#451 = VERTEX_POINT('',#452);
#452 = CARTESIAN_POINT('',(-170.,-80.,-40.));
#453 = LINE('',#454,#455);
#454 = CARTESIAN_POINT('',(-170.,-80.,-40.));
#455 = VECTOR('',#456,1.);
#456 = DIRECTION('',(0.,1.,0.));
#457 = ORIENTED_EDGE('',*,*,#458,.F.);
#458 = EDGE_CURVE('',#459,#451,#461,.T.);
#459 = VERTEX_POINT('',#460);
#460 = CARTESIAN_POINT('',(-170.,-80.,4.));
#461 = LINE('',#462,#463);
#462 = CARTESIAN_POINT('',(-170.,-80.,-32.));
#463 = VECTOR('',#464,1.);
#464 = DIRECTION('',(-0.,-0.,-1.));
#465 = ORIENTED_EDGE('',*,*,#466,.F.);
#466 = EDGE_CURVE('',#426,#459,#467,.T.);
#467 = LINE('',#468,#469);
#468 = CARTESIAN_POINT('',(-170.,0.,4.));
#469 = VECTOR('',#470,1.);
#470 = DIRECTION('',(0.,-1.,0.));
#471 = PLANE('',#472);
#472 = AXIS2_PLACEMENT_3D('',#473,#474,#475);
#473 = CARTESIAN_POINT('',(-170.,-51.93548387096,-6.064516129032));
#474 = DIRECTION('',(-1.,-0.,-0.));
#475 = DIRECTION('',(0.,0.,-1.));
#476 = ADVANCED_FACE('',(#477),#496,.T.);
#477 = FACE_BOUND('',#478,.F.);
#478 = EDGE_LOOP('',(#479,#487,#494,#495));
#479 = ORIENTED_EDGE('',*,*,#480,.T.);
#480 = EDGE_CURVE('',#56,#481,#483,.T.);
#481 = VERTEX_POINT('',#482);
#482 = CARTESIAN_POINT('',(-163.1,-59.,-4.));
#483 = LINE('',#484,#485);
#484 = CARTESIAN_POINT('',(-163.1,-59.,0.));
#485 = VECTOR('',#486,1.);
#486 = DIRECTION('',(0.,0.,-1.));
#487 = ORIENTED_EDGE('',*,*,#488,.T.);
#488 = EDGE_CURVE('',#481,#481,#489,.T.);
#489 = CIRCLE('',#490,3.);
#490 = AXIS2_PLACEMENT_3D('',#491,#492,#493);
#491 = CARTESIAN_POINT('',(-166.1,-59.,-4.));
#492 = DIRECTION('',(0.,0.,-1.));
#493 = DIRECTION('',(1.,0.,0.));
#494 = ORIENTED_EDGE('',*,*,#480,.F.);
#495 = ORIENTED_EDGE('',*,*,#55,.F.);
#496 = CYLINDRICAL_SURFACE('',#497,3.);
#497 = AXIS2_PLACEMENT_3D('',#498,#499,#500);
#498 = CARTESIAN_POINT('',(-166.1,-59.,0.));
#499 = DIRECTION('',(0.,0.,1.));
#500 = DIRECTION('',(1.,0.,0.));
#501 = ADVANCED_FACE('',(#502),#521,.T.);
#502 = FACE_BOUND('',#503,.F.);
#503 = EDGE_LOOP('',(#504,#512,#519,#520));
#504 = ORIENTED_EDGE('',*,*,#505,.T.);
#505 = EDGE_CURVE('',#67,#506,#508,.T.);
#506 = VERTEX_POINT('',#507);
#507 = CARTESIAN_POINT('',(-118.,-59.,-4.));
#508 = LINE('',#509,#510);
#509 = CARTESIAN_POINT('',(-118.,-59.,0.));
#510 = VECTOR('',#511,1.);
#511 = DIRECTION('',(0.,0.,-1.));
#512 = ORIENTED_EDGE('',*,*,#513,.T.);
#513 = EDGE_CURVE('',#506,#506,#514,.T.);
#514 = CIRCLE('',#515,3.);
#515 = AXIS2_PLACEMENT_3D('',#516,#517,#518);
#516 = CARTESIAN_POINT('',(-121.,-59.,-4.));
#517 = DIRECTION('',(0.,0.,-1.));
#518 = DIRECTION('',(1.,0.,0.));
#519 = ORIENTED_EDGE('',*,*,#505,.F.);
#520 = ORIENTED_EDGE('',*,*,#66,.F.);
#521 = CYLINDRICAL_SURFACE('',#522,3.);
#522 = AXIS2_PLACEMENT_3D('',#523,#524,#525);
#523 = CARTESIAN_POINT('',(-121.,-59.,0.));
#524 = DIRECTION('',(0.,0.,1.));
#525 = DIRECTION('',(1.,0.,0.));
#526 = ADVANCED_FACE('',(#527),#546,.T.);
#527 = FACE_BOUND('',#528,.F.);
#528 = EDGE_LOOP('',(#529,#537,#544,#545));
#529 = ORIENTED_EDGE('',*,*,#530,.T.);
#530 = EDGE_CURVE('',#78,#531,#533,.T.);
#531 = VERTEX_POINT('',#532);
#532 = CARTESIAN_POINT('',(-96.,-59.,-4.));
#533 = LINE('',#534,#535);
#534 = CARTESIAN_POINT('',(-96.,-59.,0.));
#535 = VECTOR('',#536,1.);
#536 = DIRECTION('',(0.,0.,-1.));
#537 = ORIENTED_EDGE('',*,*,#538,.T.);
#538 = EDGE_CURVE('',#531,#531,#539,.T.);
#539 = CIRCLE('',#540,3.);
#540 = AXIS2_PLACEMENT_3D('',#541,#542,#543);
#541 = CARTESIAN_POINT('',(-99.,-59.,-4.));
#542 = DIRECTION('',(0.,0.,-1.));
#543 = DIRECTION('',(1.,0.,0.));
#544 = ORIENTED_EDGE('',*,*,#530,.F.);
#545 = ORIENTED_EDGE('',*,*,#77,.F.);
#546 = CYLINDRICAL_SURFACE('',#547,3.);
#547 = AXIS2_PLACEMENT_3D('',#548,#549,#550);
#548 = CARTESIAN_POINT('',(-99.,-59.,0.));
#549 = DIRECTION('',(0.,0.,1.));
#550 = DIRECTION('',(1.,0.,0.));
#551 = ADVANCED_FACE('',(#552),#571,.T.);
#552 = FACE_BOUND('',#553,.F.);
#553 = EDGE_LOOP('',(#554,#562,#569,#570));
#554 = ORIENTED_EDGE('',*,*,#555,.T.);
#555 = EDGE_CURVE('',#89,#556,#558,.T.);
#556 = VERTEX_POINT('',#557);
#557 = CARTESIAN_POINT('',(-38.,-59.,-4.));
#558 = LINE('',#559,#560);
#559 = CARTESIAN_POINT('',(-38.,-59.,0.));
#560 = VECTOR('',#561,1.);
#561 = DIRECTION('',(0.,0.,-1.));
#562 = ORIENTED_EDGE('',*,*,#563,.T.);
#563 = EDGE_CURVE('',#556,#556,#564,.T.);
#564 = CIRCLE('',#565,3.);
#565 = AXIS2_PLACEMENT_3D('',#566,#567,#568);
#566 = CARTESIAN_POINT('',(-41.,-59.,-4.));
#567 = DIRECTION('',(0.,0.,-1.));
#568 = DIRECTION('',(1.,0.,0.));
#569 = ORIENTED_EDGE('',*,*,#555,.F.);
#570 = ORIENTED_EDGE('',*,*,#88,.F.);
#571 = CYLINDRICAL_SURFACE('',#572,3.);
#572 = AXIS2_PLACEMENT_3D('',#573,#574,#575);
#573 = CARTESIAN_POINT('',(-41.,-59.,0.));
#574 = DIRECTION('',(0.,0.,1.));
#575 = DIRECTION('',(1.,0.,0.));
#576 = ADVANCED_FACE('',(#577),#596,.T.);
#577 = FACE_BOUND('',#578,.F.);
#578 = EDGE_LOOP('',(#579,#587,#594,#595));
#579 = ORIENTED_EDGE('',*,*,#580,.T.);
#580 = EDGE_CURVE('',#100,#581,#583,.T.);
#581 = VERTEX_POINT('',#582);
#582 = CARTESIAN_POINT('',(-163.1,-9.1,-4.));
#583 = LINE('',#584,#585);
#584 = CARTESIAN_POINT('',(-163.1,-9.1,0.));
#585 = VECTOR('',#586,1.);
#586 = DIRECTION('',(0.,0.,-1.));
#587 = ORIENTED_EDGE('',*,*,#588,.T.);
#588 = EDGE_CURVE('',#581,#581,#589,.T.);
#589 = CIRCLE('',#590,3.);
#590 = AXIS2_PLACEMENT_3D('',#591,#592,#593);
#591 = CARTESIAN_POINT('',(-166.1,-9.1,-4.));
#592 = DIRECTION('',(0.,0.,-1.));
#593 = DIRECTION('',(1.,0.,0.));
#594 = ORIENTED_EDGE('',*,*,#580,.F.);
#595 = ORIENTED_EDGE('',*,*,#99,.F.);
#596 = CYLINDRICAL_SURFACE('',#597,3.);
#597 = AXIS2_PLACEMENT_3D('',#598,#599,#600);
#598 = CARTESIAN_POINT('',(-166.1,-9.1,0.));
#599 = DIRECTION('',(0.,0.,1.));
#600 = DIRECTION('',(1.,0.,0.));
#601 = ADVANCED_FACE('',(#602),#621,.T.);
#602 = FACE_BOUND('',#603,.F.);
#603 = EDGE_LOOP('',(#604,#612,#619,#620));
#604 = ORIENTED_EDGE('',*,*,#605,.T.);
#605 = EDGE_CURVE('',#111,#606,#608,.T.);
#606 = VERTEX_POINT('',#607);
#607 = CARTESIAN_POINT('',(-118.,-9.1,-4.));
#608 = LINE('',#609,#610);
#609 = CARTESIAN_POINT('',(-118.,-9.1,0.));
#610 = VECTOR('',#611,1.);
#611 = DIRECTION('',(0.,0.,-1.));
#612 = ORIENTED_EDGE('',*,*,#613,.T.);
#613 = EDGE_CURVE('',#606,#606,#614,.T.);
#614 = CIRCLE('',#615,3.);
#615 = AXIS2_PLACEMENT_3D('',#616,#617,#618);
#616 = CARTESIAN_POINT('',(-121.,-9.1,-4.));
#617 = DIRECTION('',(0.,0.,-1.));
#618 = DIRECTION('',(1.,0.,0.));
#619 = ORIENTED_EDGE('',*,*,#605,.F.);
#620 = ORIENTED_EDGE('',*,*,#110,.F.);
#621 = CYLINDRICAL_SURFACE('',#622,3.);
#622 = AXIS2_PLACEMENT_3D('',#623,#624,#625);
#623 = CARTESIAN_POINT('',(-121.,-9.1,0.));
#624 = DIRECTION('',(0.,0.,1.));
#625 = DIRECTION('',(1.,0.,0.));
#626 = ADVANCED_FACE('',(#627),#646,.T.);
#627 = FACE_BOUND('',#628,.F.);
#628 = EDGE_LOOP('',(#629,#637,#644,#645));
#629 = ORIENTED_EDGE('',*,*,#630,.T.);
#630 = EDGE_CURVE('',#122,#631,#633,.T.);
#631 = VERTEX_POINT('',#632);
#632 = CARTESIAN_POINT('',(-96.,-10.,-4.));
#633 = LINE('',#634,#635);
#634 = CARTESIAN_POINT('',(-96.,-10.,0.));
#635 = VECTOR('',#636,1.);
#636 = DIRECTION('',(0.,0.,-1.));
#637 = ORIENTED_EDGE('',*,*,#638,.T.);
#638 = EDGE_CURVE('',#631,#631,#639,.T.);
#639 = CIRCLE('',#640,3.);
#640 = AXIS2_PLACEMENT_3D('',#641,#642,#643);
#641 = CARTESIAN_POINT('',(-99.,-10.,-4.));
#642 = DIRECTION('',(0.,0.,-1.));
#643 = DIRECTION('',(1.,0.,0.));
#644 = ORIENTED_EDGE('',*,*,#630,.F.);
#645 = ORIENTED_EDGE('',*,*,#121,.F.);
#646 = CYLINDRICAL_SURFACE('',#647,3.);
#647 = AXIS2_PLACEMENT_3D('',#648,#649,#650);
#648 = CARTESIAN_POINT('',(-99.,-10.,0.));
#649 = DIRECTION('',(0.,0.,1.));
#650 = DIRECTION('',(1.,0.,0.));
#651 = ADVANCED_FACE('',(#652),#671,.T.);
#652 = FACE_BOUND('',#653,.F.);
#653 = EDGE_LOOP('',(#654,#662,#669,#670));
#654 = ORIENTED_EDGE('',*,*,#655,.T.);
#655 = EDGE_CURVE('',#133,#656,#658,.T.);
#656 = VERTEX_POINT('',#657);
#657 = CARTESIAN_POINT('',(-38.,-10.,-4.));
#658 = LINE('',#659,#660);
#659 = CARTESIAN_POINT('',(-38.,-10.,0.));
#660 = VECTOR('',#661,1.);
#661 = DIRECTION('',(0.,0.,-1.));
#662 = ORIENTED_EDGE('',*,*,#663,.T.);
#663 = EDGE_CURVE('',#656,#656,#664,.T.);
#664 = CIRCLE('',#665,3.);
#665 = AXIS2_PLACEMENT_3D('',#666,#667,#668);
#666 = CARTESIAN_POINT('',(-41.,-10.,-4.));
#667 = DIRECTION('',(0.,0.,-1.));
#668 = DIRECTION('',(1.,0.,0.));
#669 = ORIENTED_EDGE('',*,*,#655,.F.);
#670 = ORIENTED_EDGE('',*,*,#132,.F.);
#671 = CYLINDRICAL_SURFACE('',#672,3.);
#672 = AXIS2_PLACEMENT_3D('',#673,#674,#675);
#673 = CARTESIAN_POINT('',(-41.,-10.,0.));
#674 = DIRECTION('',(0.,0.,1.));
#675 = DIRECTION('',(1.,0.,0.));
#676 = ADVANCED_FACE('',(#677),#697,.F.);
#677 = FACE_BOUND('',#678,.T.);
#678 = EDGE_LOOP('',(#679,#680,#681,#682,#683,#691));
#679 = ORIENTED_EDGE('',*,*,#450,.T.);
#680 = ORIENTED_EDGE('',*,*,#330,.T.);
#681 = ORIENTED_EDGE('',*,*,#158,.T.);
#682 = ORIENTED_EDGE('',*,*,#417,.T.);
#683 = ORIENTED_EDGE('',*,*,#684,.T.);
#684 = EDGE_CURVE('',#410,#685,#687,.T.);
#685 = VERTEX_POINT('',#686);
#686 = CARTESIAN_POINT('',(0.,-80.,-40.));
#687 = LINE('',#688,#689);
#688 = CARTESIAN_POINT('',(0.,0.,-40.));
#689 = VECTOR('',#690,1.);
#690 = DIRECTION('',(0.,-1.,0.));
#691 = ORIENTED_EDGE('',*,*,#692,.T.);
#692 = EDGE_CURVE('',#685,#451,#693,.T.);
#693 = LINE('',#694,#695);
#694 = CARTESIAN_POINT('',(0.,-80.,-40.));
#695 = VECTOR('',#696,1.);
#696 = DIRECTION('',(-1.,0.,0.));
#697 = PLANE('',#698);
#698 = AXIS2_PLACEMENT_3D('',#699,#700,#701);
#699 = CARTESIAN_POINT('',(-60.728,-64.272,-40.));
#700 = DIRECTION('',(0.,0.,1.));
#701 = DIRECTION('',(1.,0.,0.));
#702 = ADVANCED_FACE('',(#703),#728,.F.);
#703 = FACE_BOUND('',#704,.F.);
#704 = EDGE_LOOP('',(#705,#715,#721,#722));
#705 = ORIENTED_EDGE('',*,*,#706,.F.);
#706 = EDGE_CURVE('',#707,#709,#711,.T.);
#707 = VERTEX_POINT('',#708);
#708 = CARTESIAN_POINT('',(0.,-69.,-4.));
#709 = VERTEX_POINT('',#710);
#710 = CARTESIAN_POINT('',(0.,-69.,-25.));
#711 = LINE('',#712,#713);
#712 = CARTESIAN_POINT('',(0.,-69.,-1.));
#713 = VECTOR('',#714,1.);
#714 = DIRECTION('',(0.,0.,-1.));
#715 = ORIENTED_EDGE('',*,*,#716,.F.);
#716 = EDGE_CURVE('',#175,#707,#717,.T.);
#717 = LINE('',#718,#719);
#718 = CARTESIAN_POINT('',(0.,-69.,-4.));
#719 = VECTOR('',#720,1.);
#720 = DIRECTION('',(1.,0.,0.));
#721 = ORIENTED_EDGE('',*,*,#174,.T.);
#722 = ORIENTED_EDGE('',*,*,#723,.F.);
#723 = EDGE_CURVE('',#709,#177,#724,.T.);
#724 = LINE('',#725,#726);
#725 = CARTESIAN_POINT('',(0.,-69.,-25.));
#726 = VECTOR('',#727,1.);
#727 = DIRECTION('',(-1.,-0.,-0.));
#728 = PLANE('',#729);
#729 = AXIS2_PLACEMENT_3D('',#730,#731,#732);
#730 = CARTESIAN_POINT('',(0.,-69.,-1.));
#731 = DIRECTION('',(0.,-1.,0.));
#732 = DIRECTION('',(0.,0.,-1.));
#733 = ADVANCED_FACE('',(#734),#752,.F.);
#734 = FACE_BOUND('',#735,.F.);
#735 = EDGE_LOOP('',(#736,#737,#738,#746));
#736 = ORIENTED_EDGE('',*,*,#723,.T.);
#737 = ORIENTED_EDGE('',*,*,#184,.T.);
#738 = ORIENTED_EDGE('',*,*,#739,.F.);
#739 = EDGE_CURVE('',#740,#185,#742,.T.);
#740 = VERTEX_POINT('',#741);
#741 = CARTESIAN_POINT('',(0.,-45.,-25.));
#742 = LINE('',#743,#744);
#743 = CARTESIAN_POINT('',(0.,-45.,-25.));
#744 = VECTOR('',#745,1.);
#745 = DIRECTION('',(-1.,-0.,-0.));
#746 = ORIENTED_EDGE('',*,*,#747,.F.);
#747 = EDGE_CURVE('',#709,#740,#748,.T.);
#748 = LINE('',#749,#750);
#749 = CARTESIAN_POINT('',(0.,-69.,-25.));
#750 = VECTOR('',#751,1.);
#751 = DIRECTION('',(0.,1.,0.));
#752 = PLANE('',#753);
#753 = AXIS2_PLACEMENT_3D('',#754,#755,#756);
#754 = CARTESIAN_POINT('',(0.,-69.,-25.));
#755 = DIRECTION('',(0.,0.,-1.));
#756 = DIRECTION('',(0.,1.,0.));
#757 = ADVANCED_FACE('',(#758),#776,.F.);
#758 = FACE_BOUND('',#759,.F.);
#759 = EDGE_LOOP('',(#760,#768,#769,#770));
#760 = ORIENTED_EDGE('',*,*,#761,.F.);
#761 = EDGE_CURVE('',#740,#762,#764,.T.);
#762 = VERTEX_POINT('',#763);
#763 = CARTESIAN_POINT('',(0.,-45.,-4.));
#764 = LINE('',#765,#766);
#765 = CARTESIAN_POINT('',(0.,-45.,-25.));
#766 = VECTOR('',#767,1.);
#767 = DIRECTION('',(0.,0.,1.));
#768 = ORIENTED_EDGE('',*,*,#739,.T.);
#769 = ORIENTED_EDGE('',*,*,#192,.T.);
#770 = ORIENTED_EDGE('',*,*,#771,.T.);
#771 = EDGE_CURVE('',#193,#762,#772,.T.);
#772 = LINE('',#773,#774);
#773 = CARTESIAN_POINT('',(0.,-45.,-4.));
#774 = VECTOR('',#775,1.);
#775 = DIRECTION('',(1.,0.,0.));
#776 = PLANE('',#777);
#777 = AXIS2_PLACEMENT_3D('',#778,#779,#780);
#778 = CARTESIAN_POINT('',(0.,-45.,-25.));
#779 = DIRECTION('',(0.,1.,0.));
#780 = DIRECTION('',(0.,0.,1.));
#781 = ADVANCED_FACE('',(#782),#801,.T.);
#782 = FACE_BOUND('',#783,.T.);
#783 = EDGE_LOOP('',(#784,#793,#799,#800));
#784 = ORIENTED_EDGE('',*,*,#785,.F.);
#785 = EDGE_CURVE('',#786,#762,#788,.T.);
#786 = VERTEX_POINT('',#787);
#787 = CARTESIAN_POINT('',(0.,-48.,-1.));
#788 = CIRCLE('',#789,3.);
#789 = AXIS2_PLACEMENT_3D('',#790,#791,#792);
#790 = CARTESIAN_POINT('',(0.,-45.,-1.));
#791 = DIRECTION('',(1.,0.,0.));
#792 = DIRECTION('',(0.,1.,0.));
#793 = ORIENTED_EDGE('',*,*,#794,.F.);
#794 = EDGE_CURVE('',#201,#786,#795,.T.);
#795 = LINE('',#796,#797);
#796 = CARTESIAN_POINT('',(0.,-48.,-1.));
#797 = VECTOR('',#798,1.);
#798 = DIRECTION('',(1.,0.,0.));
#799 = ORIENTED_EDGE('',*,*,#200,.T.);
#800 = ORIENTED_EDGE('',*,*,#771,.T.);
#801 = CYLINDRICAL_SURFACE('',#802,3.);
#802 = AXIS2_PLACEMENT_3D('',#803,#804,#805);
#803 = CARTESIAN_POINT('',(0.,-45.,-1.));
#804 = DIRECTION('',(1.,0.,0.));
#805 = DIRECTION('',(0.,1.,0.));
#806 = ADVANCED_FACE('',(#807),#825,.F.);
#807 = FACE_BOUND('',#808,.F.);
#808 = EDGE_LOOP('',(#809,#817,#818,#819));
#809 = ORIENTED_EDGE('',*,*,#810,.F.);
#810 = EDGE_CURVE('',#786,#811,#813,.T.);
#811 = VERTEX_POINT('',#812);
#812 = CARTESIAN_POINT('',(0.,-66.,-1.));
#813 = LINE('',#814,#815);
#814 = CARTESIAN_POINT('',(0.,-45.,-1.));
#815 = VECTOR('',#816,1.);
#816 = DIRECTION('',(0.,-1.,0.));
#817 = ORIENTED_EDGE('',*,*,#794,.F.);
#818 = ORIENTED_EDGE('',*,*,#209,.T.);
#819 = ORIENTED_EDGE('',*,*,#820,.F.);
#820 = EDGE_CURVE('',#811,#210,#821,.T.);
#821 = LINE('',#822,#823);
#822 = CARTESIAN_POINT('',(0.,-66.,-1.));
#823 = VECTOR('',#824,1.);
#824 = DIRECTION('',(-1.,-0.,-0.));
#825 = PLANE('',#826);
#826 = AXIS2_PLACEMENT_3D('',#827,#828,#829);
#827 = CARTESIAN_POINT('',(0.,-45.,-1.));
#828 = DIRECTION('',(0.,0.,1.));
#829 = DIRECTION('',(0.,-1.,0.));
#830 = ADVANCED_FACE('',(#831),#843,.T.);
#831 = FACE_BOUND('',#832,.T.);
#832 = EDGE_LOOP('',(#833,#834,#841,#842));
#833 = ORIENTED_EDGE('',*,*,#820,.F.);
#834 = ORIENTED_EDGE('',*,*,#835,.F.);
#835 = EDGE_CURVE('',#707,#811,#836,.T.);
#836 = CIRCLE('',#837,3.);
#837 = AXIS2_PLACEMENT_3D('',#838,#839,#840);
#838 = CARTESIAN_POINT('',(0.,-69.,-1.));
#839 = DIRECTION('',(1.,0.,0.));
#840 = DIRECTION('',(0.,1.,0.));
#841 = ORIENTED_EDGE('',*,*,#716,.F.);
#842 = ORIENTED_EDGE('',*,*,#217,.T.);
#843 = CYLINDRICAL_SURFACE('',#844,3.);
#844 = AXIS2_PLACEMENT_3D('',#845,#846,#847);
#845 = CARTESIAN_POINT('',(0.,-69.,-1.));
#846 = DIRECTION('',(1.,0.,0.));
#847 = DIRECTION('',(0.,1.,0.));
#848 = ADVANCED_FACE('',(#849),#874,.F.);
#849 = FACE_BOUND('',#850,.F.);
#850 = EDGE_LOOP('',(#851,#861,#867,#868));
#851 = ORIENTED_EDGE('',*,*,#852,.F.);
#852 = EDGE_CURVE('',#853,#855,#857,.T.);
#853 = VERTEX_POINT('',#854);
#854 = CARTESIAN_POINT('',(0.,-35.,-4.));
#855 = VERTEX_POINT('',#856);
#856 = CARTESIAN_POINT('',(0.,-35.,-25.));
#857 = LINE('',#858,#859);
#858 = CARTESIAN_POINT('',(0.,-35.,-1.));
#859 = VECTOR('',#860,1.);
#860 = DIRECTION('',(0.,0.,-1.));
#861 = ORIENTED_EDGE('',*,*,#862,.F.);
#862 = EDGE_CURVE('',#227,#853,#863,.T.);
#863 = LINE('',#864,#865);
#864 = CARTESIAN_POINT('',(0.,-35.,-4.));
#865 = VECTOR('',#866,1.);
#866 = DIRECTION('',(1.,0.,0.));
#867 = ORIENTED_EDGE('',*,*,#226,.T.);
#868 = ORIENTED_EDGE('',*,*,#869,.F.);
#869 = EDGE_CURVE('',#855,#229,#870,.T.);
#870 = LINE('',#871,#872);
#871 = CARTESIAN_POINT('',(0.,-35.,-25.));
#872 = VECTOR('',#873,1.);
#873 = DIRECTION('',(-1.,-0.,-0.));
#874 = PLANE('',#875);
#875 = AXIS2_PLACEMENT_3D('',#876,#877,#878);
#876 = CARTESIAN_POINT('',(0.,-35.,-1.));
#877 = DIRECTION('',(0.,-1.,0.));
#878 = DIRECTION('',(0.,0.,-1.));
#879 = ADVANCED_FACE('',(#880),#898,.F.);
#880 = FACE_BOUND('',#881,.F.);
#881 = EDGE_LOOP('',(#882,#883,#884,#892));
#882 = ORIENTED_EDGE('',*,*,#869,.T.);
#883 = ORIENTED_EDGE('',*,*,#236,.T.);
#884 = ORIENTED_EDGE('',*,*,#885,.F.);
#885 = EDGE_CURVE('',#886,#237,#888,.T.);
#886 = VERTEX_POINT('',#887);
#887 = CARTESIAN_POINT('',(0.,-11.,-25.));
#888 = LINE('',#889,#890);
#889 = CARTESIAN_POINT('',(0.,-11.,-25.));
#890 = VECTOR('',#891,1.);
#891 = DIRECTION('',(-1.,-0.,-0.));
#892 = ORIENTED_EDGE('',*,*,#893,.F.);
#893 = EDGE_CURVE('',#855,#886,#894,.T.);
#894 = LINE('',#895,#896);
#895 = CARTESIAN_POINT('',(0.,-35.,-25.));
#896 = VECTOR('',#897,1.);
#897 = DIRECTION('',(0.,1.,0.));
#898 = PLANE('',#899);
#899 = AXIS2_PLACEMENT_3D('',#900,#901,#902);
#900 = CARTESIAN_POINT('',(0.,-35.,-25.));
#901 = DIRECTION('',(0.,0.,-1.));
#902 = DIRECTION('',(0.,1.,0.));
#903 = ADVANCED_FACE('',(#904),#922,.F.);
#904 = FACE_BOUND('',#905,.F.);
#905 = EDGE_LOOP('',(#906,#914,#915,#916));
#906 = ORIENTED_EDGE('',*,*,#907,.F.);
#907 = EDGE_CURVE('',#886,#908,#910,.T.);
#908 = VERTEX_POINT('',#909);
#909 = CARTESIAN_POINT('',(0.,-11.,-4.));
#910 = LINE('',#911,#912);
#911 = CARTESIAN_POINT('',(0.,-11.,-25.));
#912 = VECTOR('',#913,1.);
#913 = DIRECTION('',(0.,0.,1.));
#914 = ORIENTED_EDGE('',*,*,#885,.T.);
#915 = ORIENTED_EDGE('',*,*,#244,.T.);
#916 = ORIENTED_EDGE('',*,*,#917,.T.);
#917 = EDGE_CURVE('',#245,#908,#918,.T.);
#918 = LINE('',#919,#920);
#919 = CARTESIAN_POINT('',(0.,-11.,-4.));
#920 = VECTOR('',#921,1.);
#921 = DIRECTION('',(1.,0.,0.));
#922 = PLANE('',#923);
#923 = AXIS2_PLACEMENT_3D('',#924,#925,#926);
#924 = CARTESIAN_POINT('',(0.,-11.,-25.));
#925 = DIRECTION('',(0.,1.,0.));
#926 = DIRECTION('',(0.,0.,1.));
#927 = ADVANCED_FACE('',(#928),#947,.T.);
#928 = FACE_BOUND('',#929,.T.);
#929 = EDGE_LOOP('',(#930,#939,#945,#946));
#930 = ORIENTED_EDGE('',*,*,#931,.F.);
#931 = EDGE_CURVE('',#932,#908,#934,.T.);
#932 = VERTEX_POINT('',#933);
#933 = CARTESIAN_POINT('',(0.,-14.,-1.));
#934 = CIRCLE('',#935,3.);
#935 = AXIS2_PLACEMENT_3D('',#936,#937,#938);
#936 = CARTESIAN_POINT('',(0.,-11.,-1.));
#937 = DIRECTION('',(1.,0.,0.));
#938 = DIRECTION('',(0.,1.,0.));
#939 = ORIENTED_EDGE('',*,*,#940,.F.);
#940 = EDGE_CURVE('',#253,#932,#941,.T.);
#941 = LINE('',#942,#943);
#942 = CARTESIAN_POINT('',(0.,-14.,-1.));
#943 = VECTOR('',#944,1.);
#944 = DIRECTION('',(1.,0.,0.));
#945 = ORIENTED_EDGE('',*,*,#252,.T.);
#946 = ORIENTED_EDGE('',*,*,#917,.T.);
#947 = CYLINDRICAL_SURFACE('',#948,3.);
#948 = AXIS2_PLACEMENT_3D('',#949,#950,#951);
#949 = CARTESIAN_POINT('',(0.,-11.,-1.));
#950 = DIRECTION('',(1.,0.,0.));
#951 = DIRECTION('',(0.,1.,0.));
#952 = ADVANCED_FACE('',(#953),#971,.F.);
#953 = FACE_BOUND('',#954,.F.);
#954 = EDGE_LOOP('',(#955,#963,#964,#965));
#955 = ORIENTED_EDGE('',*,*,#956,.F.);
#956 = EDGE_CURVE('',#932,#957,#959,.T.);
#957 = VERTEX_POINT('',#958);
#958 = CARTESIAN_POINT('',(0.,-32.,-1.));
#959 = LINE('',#960,#961);
#960 = CARTESIAN_POINT('',(0.,-11.,-1.));
#961 = VECTOR('',#962,1.);
#962 = DIRECTION('',(0.,-1.,0.));
#963 = ORIENTED_EDGE('',*,*,#940,.F.);
#964 = ORIENTED_EDGE('',*,*,#261,.T.);
#965 = ORIENTED_EDGE('',*,*,#966,.F.);
#966 = EDGE_CURVE('',#957,#262,#967,.T.);
#967 = LINE('',#968,#969);
#968 = CARTESIAN_POINT('',(0.,-32.,-1.));
#969 = VECTOR('',#970,1.);
#970 = DIRECTION('',(-1.,-0.,-0.));
#971 = PLANE('',#972);
#972 = AXIS2_PLACEMENT_3D('',#973,#974,#975);
#973 = CARTESIAN_POINT('',(0.,-11.,-1.));
#974 = DIRECTION('',(0.,0.,1.));
#975 = DIRECTION('',(0.,-1.,0.));
#976 = ADVANCED_FACE('',(#977),#989,.T.);
#977 = FACE_BOUND('',#978,.T.);
#978 = EDGE_LOOP('',(#979,#980,#987,#988));
#979 = ORIENTED_EDGE('',*,*,#966,.F.);
#980 = ORIENTED_EDGE('',*,*,#981,.F.);
#981 = EDGE_CURVE('',#853,#957,#982,.T.);
#982 = CIRCLE('',#983,3.);
#983 = AXIS2_PLACEMENT_3D('',#984,#985,#986);
#984 = CARTESIAN_POINT('',(0.,-35.,-1.));
#985 = DIRECTION('',(1.,0.,0.));
#986 = DIRECTION('',(0.,1.,0.));
#987 = ORIENTED_EDGE('',*,*,#862,.F.);
#988 = ORIENTED_EDGE('',*,*,#269,.T.);
#989 = CYLINDRICAL_SURFACE('',#990,3.);
#990 = AXIS2_PLACEMENT_3D('',#991,#992,#993);
#991 = CARTESIAN_POINT('',(0.,-35.,-1.));
#992 = DIRECTION('',(1.,0.,0.));
#993 = DIRECTION('',(0.,1.,0.));
#994 = ADVANCED_FACE('',(#995),#1014,.F.);
#995 = FACE_BOUND('',#996,.T.);
#996 = EDGE_LOOP('',(#997,#1005,#1012,#1013));
#997 = ORIENTED_EDGE('',*,*,#998,.F.);
#998 = EDGE_CURVE('',#999,#279,#1001,.T.);
#999 = VERTEX_POINT('',#1000);
#1000 = CARTESIAN_POINT('',(-5.,-35.,-3.35));
#1001 = LINE('',#1002,#1003);
#1002 = CARTESIAN_POINT('',(-5.,-35.,-3.35));
#1003 = VECTOR('',#1004,1.);
#1004 = DIRECTION('',(-0.51503807491,0.,0.857167300702));
#1005 = ORIENTED_EDGE('',*,*,#1006,.T.);
#1006 = EDGE_CURVE('',#999,#999,#1007,.T.);
#1007 = CIRCLE('',#1008,2.35);
#1008 = AXIS2_PLACEMENT_3D('',#1009,#1010,#1011);
#1009 = CARTESIAN_POINT('',(-5.,-35.,-1.));
#1010 = DIRECTION('',(1.,-0.,0.));
#1011 = DIRECTION('',(0.,0.,-1.));
#1012 = ORIENTED_EDGE('',*,*,#998,.T.);
#1013 = ORIENTED_EDGE('',*,*,#278,.T.);
#1014 = CONICAL_SURFACE('',#1015,2.35,1.029744258677);
#1015 = AXIS2_PLACEMENT_3D('',#1016,#1017,#1018);
#1016 = CARTESIAN_POINT('',(-5.,-35.,-1.));
#1017 = DIRECTION('',(1.,0.,0.));
#1018 = DIRECTION('',(0.,0.,-1.));
#1019 = ADVANCED_FACE('',(#1020),#1039,.F.);
#1020 = FACE_BOUND('',#1021,.T.);
#1021 = EDGE_LOOP('',(#1022,#1030,#1037,#1038));
#1022 = ORIENTED_EDGE('',*,*,#1023,.F.);
#1023 = EDGE_CURVE('',#1024,#290,#1026,.T.);
#1024 = VERTEX_POINT('',#1025);
#1025 = CARTESIAN_POINT('',(-5.,-45.,-3.35));
#1026 = LINE('',#1027,#1028);
#1027 = CARTESIAN_POINT('',(-5.,-45.,-3.35));
#1028 = VECTOR('',#1029,1.);
#1029 = DIRECTION('',(-0.51503807491,0.,0.857167300702));
#1030 = ORIENTED_EDGE('',*,*,#1031,.T.);
#1031 = EDGE_CURVE('',#1024,#1024,#1032,.T.);
#1032 = CIRCLE('',#1033,2.35);
#1033 = AXIS2_PLACEMENT_3D('',#1034,#1035,#1036);
#1034 = CARTESIAN_POINT('',(-5.,-45.,-1.));
#1035 = DIRECTION('',(1.,-0.,0.));
#1036 = DIRECTION('',(0.,0.,-1.));
#1037 = ORIENTED_EDGE('',*,*,#1023,.T.);
#1038 = ORIENTED_EDGE('',*,*,#289,.T.);
#1039 = CONICAL_SURFACE('',#1040,2.35,1.029744258677);
#1040 = AXIS2_PLACEMENT_3D('',#1041,#1042,#1043);
#1041 = CARTESIAN_POINT('',(-5.,-45.,-1.));
#1042 = DIRECTION('',(1.,0.,0.));
#1043 = DIRECTION('',(0.,0.,-1.));
#1044 = ADVANCED_FACE('',(#1045),#1064,.F.);
#1045 = FACE_BOUND('',#1046,.T.);
#1046 = EDGE_LOOP('',(#1047,#1055,#1062,#1063));
#1047 = ORIENTED_EDGE('',*,*,#1048,.F.);
#1048 = EDGE_CURVE('',#1049,#301,#1051,.T.);
#1049 = VERTEX_POINT('',#1050);
#1050 = CARTESIAN_POINT('',(-5.,-69.,-3.35));
#1051 = LINE('',#1052,#1053);
#1052 = CARTESIAN_POINT('',(-5.,-69.,-3.35));
#1053 = VECTOR('',#1054,1.);
#1054 = DIRECTION('',(-0.51503807491,0.,0.857167300702));
#1055 = ORIENTED_EDGE('',*,*,#1056,.T.);
#1056 = EDGE_CURVE('',#1049,#1049,#1057,.T.);
#1057 = CIRCLE('',#1058,2.35);
#1058 = AXIS2_PLACEMENT_3D('',#1059,#1060,#1061);
#1059 = CARTESIAN_POINT('',(-5.,-69.,-1.));
#1060 = DIRECTION('',(1.,-0.,0.));
#1061 = DIRECTION('',(0.,0.,-1.));
#1062 = ORIENTED_EDGE('',*,*,#1048,.T.);
#1063 = ORIENTED_EDGE('',*,*,#300,.T.);
#1064 = CONICAL_SURFACE('',#1065,2.35,1.029744258677);
#1065 = AXIS2_PLACEMENT_3D('',#1066,#1067,#1068);
#1066 = CARTESIAN_POINT('',(-5.,-69.,-1.));
#1067 = DIRECTION('',(1.,0.,0.));
#1068 = DIRECTION('',(0.,0.,-1.));
#1069 = ADVANCED_FACE('',(#1070),#1089,.F.);
#1070 = FACE_BOUND('',#1071,.T.);
#1071 = EDGE_LOOP('',(#1072,#1080,#1087,#1088));
#1072 = ORIENTED_EDGE('',*,*,#1073,.F.);
#1073 = EDGE_CURVE('',#1074,#312,#1076,.T.);
#1074 = VERTEX_POINT('',#1075);
#1075 = CARTESIAN_POINT('',(-5.,-11.,-3.35));
#1076 = LINE('',#1077,#1078);
#1077 = CARTESIAN_POINT('',(-5.,-11.,-3.35));
#1078 = VECTOR('',#1079,1.);
#1079 = DIRECTION('',(-0.51503807491,0.,0.857167300702));
#1080 = ORIENTED_EDGE('',*,*,#1081,.T.);
#1081 = EDGE_CURVE('',#1074,#1074,#1082,.T.);
#1082 = CIRCLE('',#1083,2.35);
#1083 = AXIS2_PLACEMENT_3D('',#1084,#1085,#1086);
#1084 = CARTESIAN_POINT('',(-5.,-11.,-1.));
#1085 = DIRECTION('',(1.,-0.,0.));
#1086 = DIRECTION('',(0.,0.,-1.));
#1087 = ORIENTED_EDGE('',*,*,#1073,.T.);
#1088 = ORIENTED_EDGE('',*,*,#311,.T.);
#1089 = CONICAL_SURFACE('',#1090,2.35,1.029744258677);
#1090 = AXIS2_PLACEMENT_3D('',#1091,#1092,#1093);
#1091 = CARTESIAN_POINT('',(-5.,-11.,-1.));
#1092 = DIRECTION('',(1.,0.,0.));
#1093 = DIRECTION('',(0.,0.,-1.));
#1094 = ADVANCED_FACE('',(#1095),#1114,.F.);
#1095 = FACE_BOUND('',#1096,.T.);
#1096 = EDGE_LOOP('',(#1097,#1105,#1106,#1107));
#1097 = ORIENTED_EDGE('',*,*,#1098,.F.);
#1098 = EDGE_CURVE('',#347,#1099,#1101,.T.);
#1099 = VERTEX_POINT('',#1100);
#1100 = CARTESIAN_POINT('',(-159.,-77.4,-6.));
#1101 = LINE('',#1102,#1103);
#1102 = CARTESIAN_POINT('',(-159.,-74.,-6.));
#1103 = VECTOR('',#1104,1.);
#1104 = DIRECTION('',(0.,-1.,2.2E-16));
#1105 = ORIENTED_EDGE('',*,*,#346,.T.);
#1106 = ORIENTED_EDGE('',*,*,#1098,.T.);
#1107 = ORIENTED_EDGE('',*,*,#1108,.F.);
#1108 = EDGE_CURVE('',#1099,#1099,#1109,.T.);
#1109 = CIRCLE('',#1110,3.);
#1110 = AXIS2_PLACEMENT_3D('',#1111,#1112,#1113);
#1111 = CARTESIAN_POINT('',(-162.,-77.4,-6.));
#1112 = DIRECTION('',(0.,1.,-2.2E-16));
#1113 = DIRECTION('',(1.,0.,0.));
#1114 = CYLINDRICAL_SURFACE('',#1115,3.);
#1115 = AXIS2_PLACEMENT_3D('',#1116,#1117,#1118);
#1116 = CARTESIAN_POINT('',(-162.,-74.,-6.));
#1117 = DIRECTION('',(0.,-1.,2.2E-16));
#1118 = DIRECTION('',(1.,0.,0.));
#1119 = ADVANCED_FACE('',(#1120),#1139,.F.);
#1120 = FACE_BOUND('',#1121,.T.);
#1121 = EDGE_LOOP('',(#1122,#1130,#1131,#1132));
#1122 = ORIENTED_EDGE('',*,*,#1123,.F.);
#1123 = EDGE_CURVE('',#358,#1124,#1126,.T.);
#1124 = VERTEX_POINT('',#1125);
#1125 = CARTESIAN_POINT('',(-124.,-77.4,-6.));
#1126 = LINE('',#1127,#1128);
#1127 = CARTESIAN_POINT('',(-124.,-74.,-6.));
#1128 = VECTOR('',#1129,1.);
#1129 = DIRECTION('',(0.,-1.,2.2E-16));
#1130 = ORIENTED_EDGE('',*,*,#357,.T.);
#1131 = ORIENTED_EDGE('',*,*,#1123,.T.);
#1132 = ORIENTED_EDGE('',*,*,#1133,.F.);
#1133 = EDGE_CURVE('',#1124,#1124,#1134,.T.);
#1134 = CIRCLE('',#1135,3.);
#1135 = AXIS2_PLACEMENT_3D('',#1136,#1137,#1138);
#1136 = CARTESIAN_POINT('',(-127.,-77.4,-6.));
#1137 = DIRECTION('',(0.,1.,-2.2E-16));
#1138 = DIRECTION('',(1.,0.,0.));
#1139 = CYLINDRICAL_SURFACE('',#1140,3.);
#1140 = AXIS2_PLACEMENT_3D('',#1141,#1142,#1143);
#1141 = CARTESIAN_POINT('',(-127.,-74.,-6.));
#1142 = DIRECTION('',(0.,-1.,2.2E-16));
#1143 = DIRECTION('',(1.,0.,0.));
#1144 = ADVANCED_FACE('',(#1145),#1164,.F.);
#1145 = FACE_BOUND('',#1146,.T.);
#1146 = EDGE_LOOP('',(#1147,#1155,#1156,#1157));
#1147 = ORIENTED_EDGE('',*,*,#1148,.F.);
#1148 = EDGE_CURVE('',#369,#1149,#1151,.T.);
#1149 = VERTEX_POINT('',#1150);
#1150 = CARTESIAN_POINT('',(-89.,-77.4,-6.));
#1151 = LINE('',#1152,#1153);
#1152 = CARTESIAN_POINT('',(-89.,-74.,-6.));
#1153 = VECTOR('',#1154,1.);
#1154 = DIRECTION('',(0.,-1.,2.2E-16));
#1155 = ORIENTED_EDGE('',*,*,#368,.T.);
#1156 = ORIENTED_EDGE('',*,*,#1148,.T.);
#1157 = ORIENTED_EDGE('',*,*,#1158,.F.);
#1158 = EDGE_CURVE('',#1149,#1149,#1159,.T.);
#1159 = CIRCLE('',#1160,3.);
#1160 = AXIS2_PLACEMENT_3D('',#1161,#1162,#1163);
#1161 = CARTESIAN_POINT('',(-92.,-77.4,-6.));
#1162 = DIRECTION('',(0.,1.,-2.2E-16));
#1163 = DIRECTION('',(1.,0.,0.));
#1164 = CYLINDRICAL_SURFACE('',#1165,3.);
#1165 = AXIS2_PLACEMENT_3D('',#1166,#1167,#1168);
#1166 = CARTESIAN_POINT('',(-92.,-74.,-6.));
#1167 = DIRECTION('',(0.,-1.,2.2E-16));
#1168 = DIRECTION('',(1.,0.,0.));
#1169 = ADVANCED_FACE('',(#1170),#1189,.F.);
#1170 = FACE_BOUND('',#1171,.T.);
#1171 = EDGE_LOOP('',(#1172,#1180,#1181,#1182));
#1172 = ORIENTED_EDGE('',*,*,#1173,.F.);
#1173 = EDGE_CURVE('',#380,#1174,#1176,.T.);
#1174 = VERTEX_POINT('',#1175);
#1175 = CARTESIAN_POINT('',(-54.,-77.4,-6.));
#1176 = LINE('',#1177,#1178);
#1177 = CARTESIAN_POINT('',(-54.,-74.,-6.));
#1178 = VECTOR('',#1179,1.);
#1179 = DIRECTION('',(0.,-1.,2.2E-16));
#1180 = ORIENTED_EDGE('',*,*,#379,.T.);
#1181 = ORIENTED_EDGE('',*,*,#1173,.T.);
#1182 = ORIENTED_EDGE('',*,*,#1183,.F.);
#1183 = EDGE_CURVE('',#1174,#1174,#1184,.T.);
#1184 = CIRCLE('',#1185,3.);
#1185 = AXIS2_PLACEMENT_3D('',#1186,#1187,#1188);
#1186 = CARTESIAN_POINT('',(-57.,-77.4,-6.));
#1187 = DIRECTION('',(0.,1.,-2.2E-16));
#1188 = DIRECTION('',(1.,0.,0.));
#1189 = CYLINDRICAL_SURFACE('',#1190,3.);
#1190 = AXIS2_PLACEMENT_3D('',#1191,#1192,#1193);
#1191 = CARTESIAN_POINT('',(-57.,-74.,-6.));
#1192 = DIRECTION('',(0.,-1.,2.2E-16));
#1193 = DIRECTION('',(1.,0.,0.));
#1194 = ADVANCED_FACE('',(#1195),#1214,.F.);
#1195 = FACE_BOUND('',#1196,.T.);
#1196 = EDGE_LOOP('',(#1197,#1205,#1206,#1207));
#1197 = ORIENTED_EDGE('',*,*,#1198,.F.);
#1198 = EDGE_CURVE('',#391,#1199,#1201,.T.);
#1199 = VERTEX_POINT('',#1200);
#1200 = CARTESIAN_POINT('',(-19.,-77.4,-6.));
#1201 = LINE('',#1202,#1203);
#1202 = CARTESIAN_POINT('',(-19.,-74.,-6.));
#1203 = VECTOR('',#1204,1.);
#1204 = DIRECTION('',(0.,-1.,2.2E-16));
#1205 = ORIENTED_EDGE('',*,*,#390,.T.);
#1206 = ORIENTED_EDGE('',*,*,#1198,.T.);
#1207 = ORIENTED_EDGE('',*,*,#1208,.F.);
#1208 = EDGE_CURVE('',#1199,#1199,#1209,.T.);
#1209 = CIRCLE('',#1210,3.);
#1210 = AXIS2_PLACEMENT_3D('',#1211,#1212,#1213);
#1211 = CARTESIAN_POINT('',(-22.,-77.4,-6.));
#1212 = DIRECTION('',(0.,1.,-2.2E-16));
#1213 = DIRECTION('',(1.,0.,0.));
#1214 = CYLINDRICAL_SURFACE('',#1215,3.);
#1215 = AXIS2_PLACEMENT_3D('',#1216,#1217,#1218);
#1216 = CARTESIAN_POINT('',(-22.,-74.,-6.));
#1217 = DIRECTION('',(0.,-1.,2.2E-16));
#1218 = DIRECTION('',(1.,0.,0.));
#1219 = ADVANCED_FACE('',(#1220,#1238,#1246,#1254,#1265,#1276,#1287),
  #1298,.T.);
#1220 = FACE_BOUND('',#1221,.T.);
#1221 = EDGE_LOOP('',(#1222,#1230,#1231,#1232));
#1222 = ORIENTED_EDGE('',*,*,#1223,.F.);
#1223 = EDGE_CURVE('',#685,#1224,#1226,.T.);
#1224 = VERTEX_POINT('',#1225);
#1225 = CARTESIAN_POINT('',(0.,-80.,4.));
#1226 = LINE('',#1227,#1228);
#1227 = CARTESIAN_POINT('',(0.,-80.,0.));
#1228 = VECTOR('',#1229,1.);
#1229 = DIRECTION('',(0.,0.,1.));
#1230 = ORIENTED_EDGE('',*,*,#684,.F.);
#1231 = ORIENTED_EDGE('',*,*,#407,.F.);
#1232 = ORIENTED_EDGE('',*,*,#1233,.F.);
#1233 = EDGE_CURVE('',#1224,#408,#1234,.T.);
#1234 = LINE('',#1235,#1236);
#1235 = CARTESIAN_POINT('',(0.,-80.,4.));
#1236 = VECTOR('',#1237,1.);
#1237 = DIRECTION('',(0.,1.,0.));
#1238 = FACE_BOUND('',#1239,.T.);
#1239 = EDGE_LOOP('',(#1240,#1241,#1242,#1243,#1244,#1245));
#1240 = ORIENTED_EDGE('',*,*,#747,.F.);
#1241 = ORIENTED_EDGE('',*,*,#706,.F.);
#1242 = ORIENTED_EDGE('',*,*,#835,.T.);
#1243 = ORIENTED_EDGE('',*,*,#810,.F.);
#1244 = ORIENTED_EDGE('',*,*,#785,.T.);
#1245 = ORIENTED_EDGE('',*,*,#761,.F.);
#1246 = FACE_BOUND('',#1247,.T.);
#1247 = EDGE_LOOP('',(#1248,#1249,#1250,#1251,#1252,#1253));
#1248 = ORIENTED_EDGE('',*,*,#893,.F.);
#1249 = ORIENTED_EDGE('',*,*,#852,.F.);
#1250 = ORIENTED_EDGE('',*,*,#981,.T.);
#1251 = ORIENTED_EDGE('',*,*,#956,.F.);
#1252 = ORIENTED_EDGE('',*,*,#931,.T.);
#1253 = ORIENTED_EDGE('',*,*,#907,.F.);
#1254 = FACE_BOUND('',#1255,.T.);
#1255 = EDGE_LOOP('',(#1256));
#1256 = ORIENTED_EDGE('',*,*,#1257,.F.);
#1257 = EDGE_CURVE('',#1258,#1258,#1260,.T.);
#1258 = VERTEX_POINT('',#1259);
#1259 = CARTESIAN_POINT('',(0.,-35.,-3.35));
#1260 = CIRCLE('',#1261,2.35);
#1261 = AXIS2_PLACEMENT_3D('',#1262,#1263,#1264);
#1262 = CARTESIAN_POINT('',(0.,-35.,-1.));
#1263 = DIRECTION('',(1.,-0.,0.));
#1264 = DIRECTION('',(0.,0.,-1.));
#1265 = FACE_BOUND('',#1266,.T.);
#1266 = EDGE_LOOP('',(#1267));
#1267 = ORIENTED_EDGE('',*,*,#1268,.F.);
#1268 = EDGE_CURVE('',#1269,#1269,#1271,.T.);
#1269 = VERTEX_POINT('',#1270);
#1270 = CARTESIAN_POINT('',(0.,-45.,-3.35));
#1271 = CIRCLE('',#1272,2.35);
#1272 = AXIS2_PLACEMENT_3D('',#1273,#1274,#1275);
#1273 = CARTESIAN_POINT('',(0.,-45.,-1.));
#1274 = DIRECTION('',(1.,-0.,0.));
#1275 = DIRECTION('',(0.,0.,-1.));
#1276 = FACE_BOUND('',#1277,.T.);
#1277 = EDGE_LOOP('',(#1278));
#1278 = ORIENTED_EDGE('',*,*,#1279,.F.);
#1279 = EDGE_CURVE('',#1280,#1280,#1282,.T.);
#1280 = VERTEX_POINT('',#1281);
#1281 = CARTESIAN_POINT('',(0.,-11.,-3.35));
#1282 = CIRCLE('',#1283,2.35);
#1283 = AXIS2_PLACEMENT_3D('',#1284,#1285,#1286);
#1284 = CARTESIAN_POINT('',(0.,-11.,-1.));
#1285 = DIRECTION('',(1.,-0.,0.));
#1286 = DIRECTION('',(0.,0.,-1.));
#1287 = FACE_BOUND('',#1288,.T.);
#1288 = EDGE_LOOP('',(#1289));
#1289 = ORIENTED_EDGE('',*,*,#1290,.F.);
#1290 = EDGE_CURVE('',#1291,#1291,#1293,.T.);
#1291 = VERTEX_POINT('',#1292);
#1292 = CARTESIAN_POINT('',(0.,-69.,-3.35));
#1293 = CIRCLE('',#1294,2.35);
#1294 = AXIS2_PLACEMENT_3D('',#1295,#1296,#1297);
#1295 = CARTESIAN_POINT('',(0.,-69.,-1.));
#1296 = DIRECTION('',(1.,-0.,0.));
#1297 = DIRECTION('',(0.,0.,-1.));
#1298 = PLANE('',#1299);
#1299 = AXIS2_PLACEMENT_3D('',#1300,#1301,#1302);
#1300 = CARTESIAN_POINT('',(0.,-40.,-18.));
#1301 = DIRECTION('',(1.,0.,0.));
#1302 = DIRECTION('',(0.,0.,1.));
#1303 = ADVANCED_FACE('',(#1304),#1315,.T.);
#1304 = FACE_BOUND('',#1305,.T.);
#1305 = EDGE_LOOP('',(#1306,#1307,#1308,#1309));
#1306 = ORIENTED_EDGE('',*,*,#1233,.T.);
#1307 = ORIENTED_EDGE('',*,*,#433,.T.);
#1308 = ORIENTED_EDGE('',*,*,#466,.T.);
#1309 = ORIENTED_EDGE('',*,*,#1310,.T.);
#1310 = EDGE_CURVE('',#459,#1224,#1311,.T.);
#1311 = LINE('',#1312,#1313);
#1312 = CARTESIAN_POINT('',(-170.,-80.,4.));
#1313 = VECTOR('',#1314,1.);
#1314 = DIRECTION('',(1.,0.,0.));
#1315 = PLANE('',#1316);
#1316 = AXIS2_PLACEMENT_3D('',#1317,#1318,#1319);
#1317 = CARTESIAN_POINT('',(-85.,-40.,4.));
#1318 = DIRECTION('',(0.,0.,1.));
#1319 = DIRECTION('',(1.,0.,0.));
#1320 = ADVANCED_FACE('',(#1321,#1327,#1338,#1349,#1360,#1371),#1382,.T.
  );
#1321 = FACE_BOUND('',#1322,.T.);
#1322 = EDGE_LOOP('',(#1323,#1324,#1325,#1326));
#1323 = ORIENTED_EDGE('',*,*,#458,.T.);
#1324 = ORIENTED_EDGE('',*,*,#692,.F.);
#1325 = ORIENTED_EDGE('',*,*,#1223,.T.);
#1326 = ORIENTED_EDGE('',*,*,#1310,.F.);
#1327 = FACE_BOUND('',#1328,.T.);
#1328 = EDGE_LOOP('',(#1329));
#1329 = ORIENTED_EDGE('',*,*,#1330,.F.);
#1330 = EDGE_CURVE('',#1331,#1331,#1333,.T.);
#1331 = VERTEX_POINT('',#1332);
#1332 = CARTESIAN_POINT('',(-160.3,-80.,-6.));
#1333 = CIRCLE('',#1334,1.7);
#1334 = AXIS2_PLACEMENT_3D('',#1335,#1336,#1337);
#1335 = CARTESIAN_POINT('',(-162.,-80.,-6.));
#1336 = DIRECTION('',(0.,-1.,2.2E-16));
#1337 = DIRECTION('',(1.,0.,0.));
#1338 = FACE_BOUND('',#1339,.T.);
#1339 = EDGE_LOOP('',(#1340));
#1340 = ORIENTED_EDGE('',*,*,#1341,.F.);
#1341 = EDGE_CURVE('',#1342,#1342,#1344,.T.);
#1342 = VERTEX_POINT('',#1343);
#1343 = CARTESIAN_POINT('',(-125.3,-80.,-6.));
#1344 = CIRCLE('',#1345,1.7);
#1345 = AXIS2_PLACEMENT_3D('',#1346,#1347,#1348);
#1346 = CARTESIAN_POINT('',(-127.,-80.,-6.));
#1347 = DIRECTION('',(0.,-1.,2.2E-16));
#1348 = DIRECTION('',(1.,0.,0.));
#1349 = FACE_BOUND('',#1350,.T.);
#1350 = EDGE_LOOP('',(#1351));
#1351 = ORIENTED_EDGE('',*,*,#1352,.F.);
#1352 = EDGE_CURVE('',#1353,#1353,#1355,.T.);
#1353 = VERTEX_POINT('',#1354);
#1354 = CARTESIAN_POINT('',(-90.3,-80.,-6.));
#1355 = CIRCLE('',#1356,1.7);
#1356 = AXIS2_PLACEMENT_3D('',#1357,#1358,#1359);
#1357 = CARTESIAN_POINT('',(-92.,-80.,-6.));
#1358 = DIRECTION('',(0.,-1.,2.2E-16));
#1359 = DIRECTION('',(1.,0.,0.));
#1360 = FACE_BOUND('',#1361,.T.);
#1361 = EDGE_LOOP('',(#1362));
#1362 = ORIENTED_EDGE('',*,*,#1363,.F.);
#1363 = EDGE_CURVE('',#1364,#1364,#1366,.T.);
#1364 = VERTEX_POINT('',#1365);
#1365 = CARTESIAN_POINT('',(-55.3,-80.,-6.));
#1366 = CIRCLE('',#1367,1.7);
#1367 = AXIS2_PLACEMENT_3D('',#1368,#1369,#1370);
#1368 = CARTESIAN_POINT('',(-57.,-80.,-6.));
#1369 = DIRECTION('',(0.,-1.,2.2E-16));
#1370 = DIRECTION('',(1.,0.,0.));
#1371 = FACE_BOUND('',#1372,.T.);
#1372 = EDGE_LOOP('',(#1373));
#1373 = ORIENTED_EDGE('',*,*,#1374,.F.);
#1374 = EDGE_CURVE('',#1375,#1375,#1377,.T.);
#1375 = VERTEX_POINT('',#1376);
#1376 = CARTESIAN_POINT('',(-20.3,-80.,-6.));
#1377 = CIRCLE('',#1378,1.7);
#1378 = AXIS2_PLACEMENT_3D('',#1379,#1380,#1381);
#1379 = CARTESIAN_POINT('',(-22.,-80.,-6.));
#1380 = DIRECTION('',(0.,-1.,2.2E-16));
#1381 = DIRECTION('',(1.,0.,0.));
#1382 = PLANE('',#1383);
#1383 = AXIS2_PLACEMENT_3D('',#1384,#1385,#1386);
#1384 = CARTESIAN_POINT('',(-85.,-80.,-18.));
#1385 = DIRECTION('',(-0.,-1.,-0.));
#1386 = DIRECTION('',(0.,0.,-1.));
#1387 = ADVANCED_FACE('',(#1388,#1391),#1402,.F.);
#1388 = FACE_BOUND('',#1389,.F.);
#1389 = EDGE_LOOP('',(#1390));
#1390 = ORIENTED_EDGE('',*,*,#488,.F.);
#1391 = FACE_BOUND('',#1392,.F.);
#1392 = EDGE_LOOP('',(#1393));
#1393 = ORIENTED_EDGE('',*,*,#1394,.T.);
#1394 = EDGE_CURVE('',#1395,#1395,#1397,.T.);
#1395 = VERTEX_POINT('',#1396);
#1396 = CARTESIAN_POINT('',(-168.45,-59.,-4.));
#1397 = CIRCLE('',#1398,2.35);
#1398 = AXIS2_PLACEMENT_3D('',#1399,#1400,#1401);
#1399 = CARTESIAN_POINT('',(-166.1,-59.,-4.));
#1400 = DIRECTION('',(0.,0.,-1.));
#1401 = DIRECTION('',(-1.,0.,0.));
#1402 = PLANE('',#1403);
#1403 = AXIS2_PLACEMENT_3D('',#1404,#1405,#1406);
#1404 = CARTESIAN_POINT('',(-106.775,-34.275,-4.));
#1405 = DIRECTION('',(0.,0.,1.));
#1406 = DIRECTION('',(1.,0.,0.));
#1407 = ADVANCED_FACE('',(#1408,#1411),#1422,.F.);
#1408 = FACE_BOUND('',#1409,.F.);
#1409 = EDGE_LOOP('',(#1410));
#1410 = ORIENTED_EDGE('',*,*,#513,.F.);
#1411 = FACE_BOUND('',#1412,.F.);
#1412 = EDGE_LOOP('',(#1413));
#1413 = ORIENTED_EDGE('',*,*,#1414,.T.);
#1414 = EDGE_CURVE('',#1415,#1415,#1417,.T.);
#1415 = VERTEX_POINT('',#1416);
#1416 = CARTESIAN_POINT('',(-123.35,-59.,-4.));
#1417 = CIRCLE('',#1418,2.35);
#1418 = AXIS2_PLACEMENT_3D('',#1419,#1420,#1421);
#1419 = CARTESIAN_POINT('',(-121.,-59.,-4.));
#1420 = DIRECTION('',(0.,0.,-1.));
#1421 = DIRECTION('',(-1.,0.,0.));
#1422 = PLANE('',#1423);
#1423 = AXIS2_PLACEMENT_3D('',#1424,#1425,#1426);
#1424 = CARTESIAN_POINT('',(-106.775,-34.275,-4.));
#1425 = DIRECTION('',(0.,0.,1.));
#1426 = DIRECTION('',(1.,0.,0.));
#1427 = ADVANCED_FACE('',(#1428,#1431),#1442,.F.);
#1428 = FACE_BOUND('',#1429,.F.);
#1429 = EDGE_LOOP('',(#1430));
#1430 = ORIENTED_EDGE('',*,*,#538,.F.);
#1431 = FACE_BOUND('',#1432,.F.);
#1432 = EDGE_LOOP('',(#1433));
#1433 = ORIENTED_EDGE('',*,*,#1434,.T.);
#1434 = EDGE_CURVE('',#1435,#1435,#1437,.T.);
#1435 = VERTEX_POINT('',#1436);
#1436 = CARTESIAN_POINT('',(-101.35,-59.,-4.));
#1437 = CIRCLE('',#1438,2.35);
#1438 = AXIS2_PLACEMENT_3D('',#1439,#1440,#1441);
#1439 = CARTESIAN_POINT('',(-99.,-59.,-4.));
#1440 = DIRECTION('',(0.,0.,-1.));
#1441 = DIRECTION('',(-1.,0.,0.));
#1442 = PLANE('',#1443);
#1443 = AXIS2_PLACEMENT_3D('',#1444,#1445,#1446);
#1444 = CARTESIAN_POINT('',(-106.775,-34.275,-4.));
#1445 = DIRECTION('',(0.,0.,1.));
#1446 = DIRECTION('',(1.,0.,0.));
#1447 = ADVANCED_FACE('',(#1448,#1451),#1462,.F.);
#1448 = FACE_BOUND('',#1449,.F.);
#1449 = EDGE_LOOP('',(#1450));
#1450 = ORIENTED_EDGE('',*,*,#563,.F.);
#1451 = FACE_BOUND('',#1452,.F.);
#1452 = EDGE_LOOP('',(#1453));
#1453 = ORIENTED_EDGE('',*,*,#1454,.T.);
#1454 = EDGE_CURVE('',#1455,#1455,#1457,.T.);
#1455 = VERTEX_POINT('',#1456);
#1456 = CARTESIAN_POINT('',(-43.35,-59.,-4.));
#1457 = CIRCLE('',#1458,2.35);
#1458 = AXIS2_PLACEMENT_3D('',#1459,#1460,#1461);
#1459 = CARTESIAN_POINT('',(-41.,-59.,-4.));
#1460 = DIRECTION('',(0.,0.,-1.));
#1461 = DIRECTION('',(-1.,0.,0.));
#1462 = PLANE('',#1463);
#1463 = AXIS2_PLACEMENT_3D('',#1464,#1465,#1466);
#1464 = CARTESIAN_POINT('',(-106.775,-34.275,-4.));
#1465 = DIRECTION('',(0.,0.,1.));
#1466 = DIRECTION('',(1.,0.,0.));
#1467 = ADVANCED_FACE('',(#1468,#1471),#1482,.F.);
#1468 = FACE_BOUND('',#1469,.F.);
#1469 = EDGE_LOOP('',(#1470));
#1470 = ORIENTED_EDGE('',*,*,#588,.F.);
#1471 = FACE_BOUND('',#1472,.F.);
#1472 = EDGE_LOOP('',(#1473));
#1473 = ORIENTED_EDGE('',*,*,#1474,.T.);
#1474 = EDGE_CURVE('',#1475,#1475,#1477,.T.);
#1475 = VERTEX_POINT('',#1476);
#1476 = CARTESIAN_POINT('',(-168.45,-9.1,-4.));
#1477 = CIRCLE('',#1478,2.35);
#1478 = AXIS2_PLACEMENT_3D('',#1479,#1480,#1481);
#1479 = CARTESIAN_POINT('',(-166.1,-9.1,-4.));
#1480 = DIRECTION('',(0.,0.,-1.));
#1481 = DIRECTION('',(-1.,0.,0.));
#1482 = PLANE('',#1483);
#1483 = AXIS2_PLACEMENT_3D('',#1484,#1485,#1486);
#1484 = CARTESIAN_POINT('',(-106.775,-34.275,-4.));
#1485 = DIRECTION('',(0.,0.,1.));
#1486 = DIRECTION('',(1.,0.,0.));
#1487 = ADVANCED_FACE('',(#1488,#1491),#1502,.F.);
#1488 = FACE_BOUND('',#1489,.F.);
#1489 = EDGE_LOOP('',(#1490));
#1490 = ORIENTED_EDGE('',*,*,#613,.F.);
#1491 = FACE_BOUND('',#1492,.F.);
#1492 = EDGE_LOOP('',(#1493));
#1493 = ORIENTED_EDGE('',*,*,#1494,.T.);
#1494 = EDGE_CURVE('',#1495,#1495,#1497,.T.);
#1495 = VERTEX_POINT('',#1496);
#1496 = CARTESIAN_POINT('',(-123.35,-9.1,-4.));
#1497 = CIRCLE('',#1498,2.35);
#1498 = AXIS2_PLACEMENT_3D('',#1499,#1500,#1501);
#1499 = CARTESIAN_POINT('',(-121.,-9.1,-4.));
#1500 = DIRECTION('',(0.,0.,-1.));
#1501 = DIRECTION('',(-1.,0.,0.));
#1502 = PLANE('',#1503);
#1503 = AXIS2_PLACEMENT_3D('',#1504,#1505,#1506);
#1504 = CARTESIAN_POINT('',(-106.775,-34.275,-4.));
#1505 = DIRECTION('',(0.,0.,1.));
#1506 = DIRECTION('',(1.,0.,0.));
#1507 = ADVANCED_FACE('',(#1508,#1511),#1522,.F.);
#1508 = FACE_BOUND('',#1509,.F.);
#1509 = EDGE_LOOP('',(#1510));
#1510 = ORIENTED_EDGE('',*,*,#638,.F.);
#1511 = FACE_BOUND('',#1512,.F.);
#1512 = EDGE_LOOP('',(#1513));
#1513 = ORIENTED_EDGE('',*,*,#1514,.T.);
#1514 = EDGE_CURVE('',#1515,#1515,#1517,.T.);
#1515 = VERTEX_POINT('',#1516);
#1516 = CARTESIAN_POINT('',(-101.35,-10.,-4.));
#1517 = CIRCLE('',#1518,2.35);
#1518 = AXIS2_PLACEMENT_3D('',#1519,#1520,#1521);
#1519 = CARTESIAN_POINT('',(-99.,-10.,-4.));
#1520 = DIRECTION('',(0.,0.,-1.));
#1521 = DIRECTION('',(-1.,0.,0.));
#1522 = PLANE('',#1523);
#1523 = AXIS2_PLACEMENT_3D('',#1524,#1525,#1526);
#1524 = CARTESIAN_POINT('',(-106.775,-34.275,-4.));
#1525 = DIRECTION('',(0.,0.,1.));
#1526 = DIRECTION('',(1.,0.,0.));
#1527 = ADVANCED_FACE('',(#1528,#1531),#1542,.F.);
#1528 = FACE_BOUND('',#1529,.F.);
#1529 = EDGE_LOOP('',(#1530));
#1530 = ORIENTED_EDGE('',*,*,#663,.F.);
#1531 = FACE_BOUND('',#1532,.F.);
#1532 = EDGE_LOOP('',(#1533));
#1533 = ORIENTED_EDGE('',*,*,#1534,.T.);
#1534 = EDGE_CURVE('',#1535,#1535,#1537,.T.);
#1535 = VERTEX_POINT('',#1536);
#1536 = CARTESIAN_POINT('',(-43.35,-10.,-4.));
#1537 = CIRCLE('',#1538,2.35);
#1538 = AXIS2_PLACEMENT_3D('',#1539,#1540,#1541);
#1539 = CARTESIAN_POINT('',(-41.,-10.,-4.));
#1540 = DIRECTION('',(0.,0.,-1.));
#1541 = DIRECTION('',(-1.,0.,0.));
#1542 = PLANE('',#1543);
#1543 = AXIS2_PLACEMENT_3D('',#1544,#1545,#1546);
#1544 = CARTESIAN_POINT('',(-106.775,-34.275,-4.));
#1545 = DIRECTION('',(0.,0.,1.));
#1546 = DIRECTION('',(1.,0.,0.));
#1547 = ADVANCED_FACE('',(#1548),#1559,.F.);
#1548 = FACE_BOUND('',#1549,.T.);
#1549 = EDGE_LOOP('',(#1550,#1556,#1557,#1558));
#1550 = ORIENTED_EDGE('',*,*,#1551,.F.);
#1551 = EDGE_CURVE('',#1258,#999,#1552,.T.);
#1552 = LINE('',#1553,#1554);
#1553 = CARTESIAN_POINT('',(0.,-35.,-3.35));
#1554 = VECTOR('',#1555,1.);
#1555 = DIRECTION('',(-1.,0.,9.E-17));
#1556 = ORIENTED_EDGE('',*,*,#1257,.T.);
#1557 = ORIENTED_EDGE('',*,*,#1551,.T.);
#1558 = ORIENTED_EDGE('',*,*,#1006,.F.);
#1559 = CYLINDRICAL_SURFACE('',#1560,2.35);
#1560 = AXIS2_PLACEMENT_3D('',#1561,#1562,#1563);
#1561 = CARTESIAN_POINT('',(0.,-35.,-1.));
#1562 = DIRECTION('',(-1.,-0.,-0.));
#1563 = DIRECTION('',(0.,0.,-1.));
#1564 = ADVANCED_FACE('',(#1565),#1576,.F.);
#1565 = FACE_BOUND('',#1566,.T.);
#1566 = EDGE_LOOP('',(#1567,#1573,#1574,#1575));
#1567 = ORIENTED_EDGE('',*,*,#1568,.F.);
#1568 = EDGE_CURVE('',#1269,#1024,#1569,.T.);
#1569 = LINE('',#1570,#1571);
#1570 = CARTESIAN_POINT('',(0.,-45.,-3.35));
#1571 = VECTOR('',#1572,1.);
#1572 = DIRECTION('',(-1.,0.,9.E-17));
#1573 = ORIENTED_EDGE('',*,*,#1268,.T.);
#1574 = ORIENTED_EDGE('',*,*,#1568,.T.);
#1575 = ORIENTED_EDGE('',*,*,#1031,.F.);
#1576 = CYLINDRICAL_SURFACE('',#1577,2.35);
#1577 = AXIS2_PLACEMENT_3D('',#1578,#1579,#1580);
#1578 = CARTESIAN_POINT('',(0.,-45.,-1.));
#1579 = DIRECTION('',(-1.,-0.,-0.));
#1580 = DIRECTION('',(0.,0.,-1.));
#1581 = ADVANCED_FACE('',(#1582),#1593,.F.);
#1582 = FACE_BOUND('',#1583,.T.);
#1583 = EDGE_LOOP('',(#1584,#1590,#1591,#1592));
#1584 = ORIENTED_EDGE('',*,*,#1585,.F.);
#1585 = EDGE_CURVE('',#1291,#1049,#1586,.T.);
#1586 = LINE('',#1587,#1588);
#1587 = CARTESIAN_POINT('',(0.,-69.,-3.35));
#1588 = VECTOR('',#1589,1.);
#1589 = DIRECTION('',(-1.,0.,9.E-17));
#1590 = ORIENTED_EDGE('',*,*,#1290,.T.);
#1591 = ORIENTED_EDGE('',*,*,#1585,.T.);
#1592 = ORIENTED_EDGE('',*,*,#1056,.F.);
#1593 = CYLINDRICAL_SURFACE('',#1594,2.35);
#1594 = AXIS2_PLACEMENT_3D('',#1595,#1596,#1597);
#1595 = CARTESIAN_POINT('',(0.,-69.,-1.));
#1596 = DIRECTION('',(-1.,-0.,-0.));
#1597 = DIRECTION('',(0.,0.,-1.));
#1598 = ADVANCED_FACE('',(#1599),#1610,.F.);
#1599 = FACE_BOUND('',#1600,.T.);
#1600 = EDGE_LOOP('',(#1601,#1607,#1608,#1609));
#1601 = ORIENTED_EDGE('',*,*,#1602,.F.);
#1602 = EDGE_CURVE('',#1280,#1074,#1603,.T.);
#1603 = LINE('',#1604,#1605);
#1604 = CARTESIAN_POINT('',(0.,-11.,-3.35));
#1605 = VECTOR('',#1606,1.);
#1606 = DIRECTION('',(-1.,0.,9.E-17));
#1607 = ORIENTED_EDGE('',*,*,#1279,.T.);
#1608 = ORIENTED_EDGE('',*,*,#1602,.T.);
#1609 = ORIENTED_EDGE('',*,*,#1081,.F.);
#1610 = CYLINDRICAL_SURFACE('',#1611,2.35);
#1611 = AXIS2_PLACEMENT_3D('',#1612,#1613,#1614);
#1612 = CARTESIAN_POINT('',(0.,-11.,-1.));
#1613 = DIRECTION('',(-1.,-0.,-0.));
#1614 = DIRECTION('',(0.,0.,-1.));
#1615 = ADVANCED_FACE('',(#1616,#1619),#1630,.T.);
#1616 = FACE_BOUND('',#1617,.T.);
#1617 = EDGE_LOOP('',(#1618));
#1618 = ORIENTED_EDGE('',*,*,#1108,.T.);
#1619 = FACE_BOUND('',#1620,.T.);
#1620 = EDGE_LOOP('',(#1621));
#1621 = ORIENTED_EDGE('',*,*,#1622,.F.);
#1622 = EDGE_CURVE('',#1623,#1623,#1625,.T.);
#1623 = VERTEX_POINT('',#1624);
#1624 = CARTESIAN_POINT('',(-160.3,-77.4,-6.));
#1625 = CIRCLE('',#1626,1.7);
#1626 = AXIS2_PLACEMENT_3D('',#1627,#1628,#1629);
#1627 = CARTESIAN_POINT('',(-162.,-77.4,-6.));
#1628 = DIRECTION('',(0.,1.,-2.2E-16));
#1629 = DIRECTION('',(1.,0.,0.));
#1630 = PLANE('',#1631);
#1631 = AXIS2_PLACEMENT_3D('',#1632,#1633,#1634);
#1632 = CARTESIAN_POINT('',(-162.,-77.4,-6.));
#1633 = DIRECTION('',(0.,1.,-2.2E-16));
#1634 = DIRECTION('',(1.,0.,0.));
#1635 = ADVANCED_FACE('',(#1636,#1639),#1650,.T.);
#1636 = FACE_BOUND('',#1637,.T.);
#1637 = EDGE_LOOP('',(#1638));
#1638 = ORIENTED_EDGE('',*,*,#1133,.T.);
#1639 = FACE_BOUND('',#1640,.T.);
#1640 = EDGE_LOOP('',(#1641));
#1641 = ORIENTED_EDGE('',*,*,#1642,.F.);
#1642 = EDGE_CURVE('',#1643,#1643,#1645,.T.);
#1643 = VERTEX_POINT('',#1644);
#1644 = CARTESIAN_POINT('',(-125.3,-77.4,-6.));
#1645 = CIRCLE('',#1646,1.7);
#1646 = AXIS2_PLACEMENT_3D('',#1647,#1648,#1649);
#1647 = CARTESIAN_POINT('',(-127.,-77.4,-6.));
#1648 = DIRECTION('',(0.,1.,-2.2E-16));
#1649 = DIRECTION('',(1.,0.,0.));
#1650 = PLANE('',#1651);
#1651 = AXIS2_PLACEMENT_3D('',#1652,#1653,#1654);
#1652 = CARTESIAN_POINT('',(-127.,-77.4,-6.));
#1653 = DIRECTION('',(0.,1.,-2.2E-16));
#1654 = DIRECTION('',(1.,0.,0.));
#1655 = ADVANCED_FACE('',(#1656,#1659),#1670,.T.);
#1656 = FACE_BOUND('',#1657,.T.);
#1657 = EDGE_LOOP('',(#1658));
#1658 = ORIENTED_EDGE('',*,*,#1158,.T.);
#1659 = FACE_BOUND('',#1660,.T.);
#1660 = EDGE_LOOP('',(#1661));
#1661 = ORIENTED_EDGE('',*,*,#1662,.F.);
#1662 = EDGE_CURVE('',#1663,#1663,#1665,.T.);
#1663 = VERTEX_POINT('',#1664);
#1664 = CARTESIAN_POINT('',(-90.3,-77.4,-6.));
#1665 = CIRCLE('',#1666,1.7);
#1666 = AXIS2_PLACEMENT_3D('',#1667,#1668,#1669);
#1667 = CARTESIAN_POINT('',(-92.,-77.4,-6.));
#1668 = DIRECTION('',(0.,1.,-2.2E-16));
#1669 = DIRECTION('',(1.,0.,0.));
#1670 = PLANE('',#1671);
#1671 = AXIS2_PLACEMENT_3D('',#1672,#1673,#1674);
#1672 = CARTESIAN_POINT('',(-92.,-77.4,-6.));
#1673 = DIRECTION('',(0.,1.,-2.2E-16));
#1674 = DIRECTION('',(1.,0.,0.));
#1675 = ADVANCED_FACE('',(#1676,#1679),#1690,.T.);
#1676 = FACE_BOUND('',#1677,.T.);
#1677 = EDGE_LOOP('',(#1678));
#1678 = ORIENTED_EDGE('',*,*,#1183,.T.);
#1679 = FACE_BOUND('',#1680,.T.);
#1680 = EDGE_LOOP('',(#1681));
#1681 = ORIENTED_EDGE('',*,*,#1682,.F.);
#1682 = EDGE_CURVE('',#1683,#1683,#1685,.T.);
#1683 = VERTEX_POINT('',#1684);
#1684 = CARTESIAN_POINT('',(-55.3,-77.4,-6.));
#1685 = CIRCLE('',#1686,1.7);
#1686 = AXIS2_PLACEMENT_3D('',#1687,#1688,#1689);
#1687 = CARTESIAN_POINT('',(-57.,-77.4,-6.));
#1688 = DIRECTION('',(0.,1.,-2.2E-16));
#1689 = DIRECTION('',(1.,0.,0.));
#1690 = PLANE('',#1691);
#1691 = AXIS2_PLACEMENT_3D('',#1692,#1693,#1694);
#1692 = CARTESIAN_POINT('',(-57.,-77.4,-6.));
#1693 = DIRECTION('',(0.,1.,-2.2E-16));
#1694 = DIRECTION('',(1.,0.,0.));
#1695 = ADVANCED_FACE('',(#1696,#1699),#1710,.T.);
#1696 = FACE_BOUND('',#1697,.T.);
#1697 = EDGE_LOOP('',(#1698));
#1698 = ORIENTED_EDGE('',*,*,#1208,.T.);
#1699 = FACE_BOUND('',#1700,.T.);
#1700 = EDGE_LOOP('',(#1701));
#1701 = ORIENTED_EDGE('',*,*,#1702,.F.);
#1702 = EDGE_CURVE('',#1703,#1703,#1705,.T.);
#1703 = VERTEX_POINT('',#1704);
#1704 = CARTESIAN_POINT('',(-20.3,-77.4,-6.));
#1705 = CIRCLE('',#1706,1.7);
#1706 = AXIS2_PLACEMENT_3D('',#1707,#1708,#1709);
#1707 = CARTESIAN_POINT('',(-22.,-77.4,-6.));
#1708 = DIRECTION('',(0.,1.,-2.2E-16));
#1709 = DIRECTION('',(1.,0.,0.));
#1710 = PLANE('',#1711);
#1711 = AXIS2_PLACEMENT_3D('',#1712,#1713,#1714);
#1712 = CARTESIAN_POINT('',(-22.,-77.4,-6.));
#1713 = DIRECTION('',(0.,1.,-2.2E-16));
#1714 = DIRECTION('',(1.,0.,0.));
#1715 = ADVANCED_FACE('',(#1716),#1727,.F.);
#1716 = FACE_BOUND('',#1717,.T.);
#1717 = EDGE_LOOP('',(#1718,#1724,#1725,#1726));
#1718 = ORIENTED_EDGE('',*,*,#1719,.F.);
#1719 = EDGE_CURVE('',#1623,#1331,#1720,.T.);
#1720 = LINE('',#1721,#1722);
#1721 = CARTESIAN_POINT('',(-160.3,-77.4,-6.));
#1722 = VECTOR('',#1723,1.);
#1723 = DIRECTION('',(-6.E-17,-1.,2.2E-16));
#1724 = ORIENTED_EDGE('',*,*,#1622,.T.);
#1725 = ORIENTED_EDGE('',*,*,#1719,.T.);
#1726 = ORIENTED_EDGE('',*,*,#1330,.T.);
#1727 = CYLINDRICAL_SURFACE('',#1728,1.7);
#1728 = AXIS2_PLACEMENT_3D('',#1729,#1730,#1731);
#1729 = CARTESIAN_POINT('',(-162.,-77.4,-6.));
#1730 = DIRECTION('',(0.,-1.,2.2E-16));
#1731 = DIRECTION('',(1.,0.,0.));
#1732 = ADVANCED_FACE('',(#1733),#1744,.F.);
#1733 = FACE_BOUND('',#1734,.T.);
#1734 = EDGE_LOOP('',(#1735,#1741,#1742,#1743));
#1735 = ORIENTED_EDGE('',*,*,#1736,.F.);
#1736 = EDGE_CURVE('',#1643,#1342,#1737,.T.);
#1737 = LINE('',#1738,#1739);
#1738 = CARTESIAN_POINT('',(-125.3,-77.4,-6.));
#1739 = VECTOR('',#1740,1.);
#1740 = DIRECTION('',(-6.E-17,-1.,2.2E-16));
#1741 = ORIENTED_EDGE('',*,*,#1642,.T.);
#1742 = ORIENTED_EDGE('',*,*,#1736,.T.);
#1743 = ORIENTED_EDGE('',*,*,#1341,.T.);
#1744 = CYLINDRICAL_SURFACE('',#1745,1.7);
#1745 = AXIS2_PLACEMENT_3D('',#1746,#1747,#1748);
#1746 = CARTESIAN_POINT('',(-127.,-77.4,-6.));
#1747 = DIRECTION('',(0.,-1.,2.2E-16));
#1748 = DIRECTION('',(1.,0.,0.));
#1749 = ADVANCED_FACE('',(#1750),#1761,.F.);
#1750 = FACE_BOUND('',#1751,.T.);
#1751 = EDGE_LOOP('',(#1752,#1758,#1759,#1760));
#1752 = ORIENTED_EDGE('',*,*,#1753,.F.);
#1753 = EDGE_CURVE('',#1663,#1353,#1754,.T.);
#1754 = LINE('',#1755,#1756);
#1755 = CARTESIAN_POINT('',(-90.3,-77.4,-6.));
#1756 = VECTOR('',#1757,1.);
#1757 = DIRECTION('',(-6.E-17,-1.,2.2E-16));
#1758 = ORIENTED_EDGE('',*,*,#1662,.T.);
#1759 = ORIENTED_EDGE('',*,*,#1753,.T.);
#1760 = ORIENTED_EDGE('',*,*,#1352,.T.);
#1761 = CYLINDRICAL_SURFACE('',#1762,1.7);
#1762 = AXIS2_PLACEMENT_3D('',#1763,#1764,#1765);
#1763 = CARTESIAN_POINT('',(-92.,-77.4,-6.));
#1764 = DIRECTION('',(0.,-1.,2.2E-16));
#1765 = DIRECTION('',(1.,0.,0.));
#1766 = ADVANCED_FACE('',(#1767),#1778,.F.);
#1767 = FACE_BOUND('',#1768,.T.);
#1768 = EDGE_LOOP('',(#1769,#1775,#1776,#1777));
#1769 = ORIENTED_EDGE('',*,*,#1770,.F.);
#1770 = EDGE_CURVE('',#1683,#1364,#1771,.T.);
#1771 = LINE('',#1772,#1773);
#1772 = CARTESIAN_POINT('',(-55.3,-77.4,-6.));
#1773 = VECTOR('',#1774,1.);
#1774 = DIRECTION('',(-6.E-17,-1.,2.2E-16));
#1775 = ORIENTED_EDGE('',*,*,#1682,.T.);
#1776 = ORIENTED_EDGE('',*,*,#1770,.T.);
#1777 = ORIENTED_EDGE('',*,*,#1363,.T.);
#1778 = CYLINDRICAL_SURFACE('',#1779,1.7);
#1779 = AXIS2_PLACEMENT_3D('',#1780,#1781,#1782);
#1780 = CARTESIAN_POINT('',(-57.,-77.4,-6.));
#1781 = DIRECTION('',(0.,-1.,2.2E-16));
#1782 = DIRECTION('',(1.,0.,0.));
#1783 = ADVANCED_FACE('',(#1784),#1795,.F.);
#1784 = FACE_BOUND('',#1785,.T.);
#1785 = EDGE_LOOP('',(#1786,#1792,#1793,#1794));
#1786 = ORIENTED_EDGE('',*,*,#1787,.F.);
#1787 = EDGE_CURVE('',#1703,#1375,#1788,.T.);
#1788 = LINE('',#1789,#1790);
#1789 = CARTESIAN_POINT('',(-20.3,-77.4,-6.));
#1790 = VECTOR('',#1791,1.);
#1791 = DIRECTION('',(-6.E-17,-1.,2.2E-16));
#1792 = ORIENTED_EDGE('',*,*,#1702,.T.);
#1793 = ORIENTED_EDGE('',*,*,#1787,.T.);
#1794 = ORIENTED_EDGE('',*,*,#1374,.T.);
#1795 = CYLINDRICAL_SURFACE('',#1796,1.7);
#1796 = AXIS2_PLACEMENT_3D('',#1797,#1798,#1799);
#1797 = CARTESIAN_POINT('',(-22.,-77.4,-6.));
#1798 = DIRECTION('',(0.,-1.,2.2E-16));
#1799 = DIRECTION('',(1.,0.,0.));
#1800 = ADVANCED_FACE('',(#1801),#1820,.F.);
#1801 = FACE_BOUND('',#1802,.T.);
#1802 = EDGE_LOOP('',(#1803,#1811,#1812,#1813));
#1803 = ORIENTED_EDGE('',*,*,#1804,.F.);
#1804 = EDGE_CURVE('',#1395,#1805,#1807,.T.);
#1805 = VERTEX_POINT('',#1806);
#1806 = CARTESIAN_POINT('',(-168.45,-59.,1.));
#1807 = LINE('',#1808,#1809);
#1808 = CARTESIAN_POINT('',(-168.45,-59.,-4.));
#1809 = VECTOR('',#1810,1.);
#1810 = DIRECTION('',(9.E-17,0.,1.));
#1811 = ORIENTED_EDGE('',*,*,#1394,.T.);
#1812 = ORIENTED_EDGE('',*,*,#1804,.T.);
#1813 = ORIENTED_EDGE('',*,*,#1814,.F.);
#1814 = EDGE_CURVE('',#1805,#1805,#1815,.T.);
#1815 = CIRCLE('',#1816,2.35);
#1816 = AXIS2_PLACEMENT_3D('',#1817,#1818,#1819);
#1817 = CARTESIAN_POINT('',(-166.1,-59.,1.));
#1818 = DIRECTION('',(0.,0.,-1.));
#1819 = DIRECTION('',(-1.,0.,0.));
#1820 = CYLINDRICAL_SURFACE('',#1821,2.35);
#1821 = AXIS2_PLACEMENT_3D('',#1822,#1823,#1824);
#1822 = CARTESIAN_POINT('',(-166.1,-59.,-4.));
#1823 = DIRECTION('',(0.,0.,1.));
#1824 = DIRECTION('',(-1.,0.,0.));
#1825 = ADVANCED_FACE('',(#1826),#1845,.F.);
#1826 = FACE_BOUND('',#1827,.T.);
#1827 = EDGE_LOOP('',(#1828,#1836,#1837,#1838));
#1828 = ORIENTED_EDGE('',*,*,#1829,.F.);
#1829 = EDGE_CURVE('',#1415,#1830,#1832,.T.);
#1830 = VERTEX_POINT('',#1831);
#1831 = CARTESIAN_POINT('',(-123.35,-59.,1.));
#1832 = LINE('',#1833,#1834);
#1833 = CARTESIAN_POINT('',(-123.35,-59.,-4.));
#1834 = VECTOR('',#1835,1.);
#1835 = DIRECTION('',(9.E-17,0.,1.));
#1836 = ORIENTED_EDGE('',*,*,#1414,.T.);
#1837 = ORIENTED_EDGE('',*,*,#1829,.T.);
#1838 = ORIENTED_EDGE('',*,*,#1839,.F.);
#1839 = EDGE_CURVE('',#1830,#1830,#1840,.T.);
#1840 = CIRCLE('',#1841,2.35);
#1841 = AXIS2_PLACEMENT_3D('',#1842,#1843,#1844);
#1842 = CARTESIAN_POINT('',(-121.,-59.,1.));
#1843 = DIRECTION('',(0.,0.,-1.));
#1844 = DIRECTION('',(-1.,0.,0.));
#1845 = CYLINDRICAL_SURFACE('',#1846,2.35);
#1846 = AXIS2_PLACEMENT_3D('',#1847,#1848,#1849);
#1847 = CARTESIAN_POINT('',(-121.,-59.,-4.));
#1848 = DIRECTION('',(0.,0.,1.));
#1849 = DIRECTION('',(-1.,0.,0.));
#1850 = ADVANCED_FACE('',(#1851),#1870,.F.);
#1851 = FACE_BOUND('',#1852,.T.);
#1852 = EDGE_LOOP('',(#1853,#1861,#1862,#1863));
#1853 = ORIENTED_EDGE('',*,*,#1854,.F.);
#1854 = EDGE_CURVE('',#1435,#1855,#1857,.T.);
#1855 = VERTEX_POINT('',#1856);
#1856 = CARTESIAN_POINT('',(-101.35,-59.,1.));
#1857 = LINE('',#1858,#1859);
#1858 = CARTESIAN_POINT('',(-101.35,-59.,-4.));
#1859 = VECTOR('',#1860,1.);
#1860 = DIRECTION('',(9.E-17,0.,1.));
#1861 = ORIENTED_EDGE('',*,*,#1434,.T.);
#1862 = ORIENTED_EDGE('',*,*,#1854,.T.);
#1863 = ORIENTED_EDGE('',*,*,#1864,.F.);
#1864 = EDGE_CURVE('',#1855,#1855,#1865,.T.);
#1865 = CIRCLE('',#1866,2.35);
#1866 = AXIS2_PLACEMENT_3D('',#1867,#1868,#1869);
#1867 = CARTESIAN_POINT('',(-99.,-59.,1.));
#1868 = DIRECTION('',(0.,0.,-1.));
#1869 = DIRECTION('',(-1.,0.,0.));
#1870 = CYLINDRICAL_SURFACE('',#1871,2.35);
#1871 = AXIS2_PLACEMENT_3D('',#1872,#1873,#1874);
#1872 = CARTESIAN_POINT('',(-99.,-59.,-4.));
#1873 = DIRECTION('',(0.,0.,1.));
#1874 = DIRECTION('',(-1.,0.,0.));
#1875 = ADVANCED_FACE('',(#1876),#1895,.F.);
#1876 = FACE_BOUND('',#1877,.T.);
#1877 = EDGE_LOOP('',(#1878,#1886,#1887,#1888));
#1878 = ORIENTED_EDGE('',*,*,#1879,.F.);
#1879 = EDGE_CURVE('',#1455,#1880,#1882,.T.);
#1880 = VERTEX_POINT('',#1881);
#1881 = CARTESIAN_POINT('',(-43.35,-59.,1.));
#1882 = LINE('',#1883,#1884);
#1883 = CARTESIAN_POINT('',(-43.35,-59.,-4.));
#1884 = VECTOR('',#1885,1.);
#1885 = DIRECTION('',(9.E-17,0.,1.));
#1886 = ORIENTED_EDGE('',*,*,#1454,.T.);
#1887 = ORIENTED_EDGE('',*,*,#1879,.T.);
#1888 = ORIENTED_EDGE('',*,*,#1889,.F.);
#1889 = EDGE_CURVE('',#1880,#1880,#1890,.T.);
#1890 = CIRCLE('',#1891,2.35);
#1891 = AXIS2_PLACEMENT_3D('',#1892,#1893,#1894);
#1892 = CARTESIAN_POINT('',(-41.,-59.,1.));
#1893 = DIRECTION('',(0.,0.,-1.));
#1894 = DIRECTION('',(-1.,0.,0.));
#1895 = CYLINDRICAL_SURFACE('',#1896,2.35);
#1896 = AXIS2_PLACEMENT_3D('',#1897,#1898,#1899);
#1897 = CARTESIAN_POINT('',(-41.,-59.,-4.));
#1898 = DIRECTION('',(0.,0.,1.));
#1899 = DIRECTION('',(-1.,0.,0.));
#1900 = ADVANCED_FACE('',(#1901),#1920,.F.);
#1901 = FACE_BOUND('',#1902,.T.);
#1902 = EDGE_LOOP('',(#1903,#1911,#1912,#1913));
#1903 = ORIENTED_EDGE('',*,*,#1904,.F.);
#1904 = EDGE_CURVE('',#1475,#1905,#1907,.T.);
#1905 = VERTEX_POINT('',#1906);
#1906 = CARTESIAN_POINT('',(-168.45,-9.1,1.));
#1907 = LINE('',#1908,#1909);
#1908 = CARTESIAN_POINT('',(-168.45,-9.1,-4.));
#1909 = VECTOR('',#1910,1.);
#1910 = DIRECTION('',(9.E-17,0.,1.));
#1911 = ORIENTED_EDGE('',*,*,#1474,.T.);
#1912 = ORIENTED_EDGE('',*,*,#1904,.T.);
#1913 = ORIENTED_EDGE('',*,*,#1914,.F.);
#1914 = EDGE_CURVE('',#1905,#1905,#1915,.T.);
#1915 = CIRCLE('',#1916,2.35);
#1916 = AXIS2_PLACEMENT_3D('',#1917,#1918,#1919);
#1917 = CARTESIAN_POINT('',(-166.1,-9.1,1.));
#1918 = DIRECTION('',(0.,0.,-1.));
#1919 = DIRECTION('',(-1.,0.,0.));
#1920 = CYLINDRICAL_SURFACE('',#1921,2.35);
#1921 = AXIS2_PLACEMENT_3D('',#1922,#1923,#1924);
#1922 = CARTESIAN_POINT('',(-166.1,-9.1,-4.));
#1923 = DIRECTION('',(0.,0.,1.));
#1924 = DIRECTION('',(-1.,0.,0.));
#1925 = ADVANCED_FACE('',(#1926),#1945,.F.);
#1926 = FACE_BOUND('',#1927,.T.);
#1927 = EDGE_LOOP('',(#1928,#1936,#1937,#1938));
#1928 = ORIENTED_EDGE('',*,*,#1929,.F.);
#1929 = EDGE_CURVE('',#1495,#1930,#1932,.T.);
#1930 = VERTEX_POINT('',#1931);
#1931 = CARTESIAN_POINT('',(-123.35,-9.1,1.));
#1932 = LINE('',#1933,#1934);
#1933 = CARTESIAN_POINT('',(-123.35,-9.1,-4.));
#1934 = VECTOR('',#1935,1.);
#1935 = DIRECTION('',(9.E-17,0.,1.));
#1936 = ORIENTED_EDGE('',*,*,#1494,.T.);
#1937 = ORIENTED_EDGE('',*,*,#1929,.T.);
#1938 = ORIENTED_EDGE('',*,*,#1939,.F.);
#1939 = EDGE_CURVE('',#1930,#1930,#1940,.T.);
#1940 = CIRCLE('',#1941,2.35);
#1941 = AXIS2_PLACEMENT_3D('',#1942,#1943,#1944);
#1942 = CARTESIAN_POINT('',(-121.,-9.1,1.));
#1943 = DIRECTION('',(0.,0.,-1.));
#1944 = DIRECTION('',(-1.,0.,0.));
#1945 = CYLINDRICAL_SURFACE('',#1946,2.35);
#1946 = AXIS2_PLACEMENT_3D('',#1947,#1948,#1949);
#1947 = CARTESIAN_POINT('',(-121.,-9.1,-4.));
#1948 = DIRECTION('',(0.,0.,1.));
#1949 = DIRECTION('',(-1.,0.,0.));
#1950 = ADVANCED_FACE('',(#1951),#1970,.F.);
#1951 = FACE_BOUND('',#1952,.T.);
#1952 = EDGE_LOOP('',(#1953,#1961,#1962,#1963));
#1953 = ORIENTED_EDGE('',*,*,#1954,.F.);
#1954 = EDGE_CURVE('',#1515,#1955,#1957,.T.);
#1955 = VERTEX_POINT('',#1956);
#1956 = CARTESIAN_POINT('',(-101.35,-10.,1.));
#1957 = LINE('',#1958,#1959);
#1958 = CARTESIAN_POINT('',(-101.35,-10.,-4.));
#1959 = VECTOR('',#1960,1.);
#1960 = DIRECTION('',(9.E-17,0.,1.));
#1961 = ORIENTED_EDGE('',*,*,#1514,.T.);
#1962 = ORIENTED_EDGE('',*,*,#1954,.T.);
#1963 = ORIENTED_EDGE('',*,*,#1964,.F.);
#1964 = EDGE_CURVE('',#1955,#1955,#1965,.T.);
#1965 = CIRCLE('',#1966,2.35);
#1966 = AXIS2_PLACEMENT_3D('',#1967,#1968,#1969);
#1967 = CARTESIAN_POINT('',(-99.,-10.,1.));
#1968 = DIRECTION('',(0.,0.,-1.));
#1969 = DIRECTION('',(-1.,0.,0.));
#1970 = CYLINDRICAL_SURFACE('',#1971,2.35);
#1971 = AXIS2_PLACEMENT_3D('',#1972,#1973,#1974);
#1972 = CARTESIAN_POINT('',(-99.,-10.,-4.));
#1973 = DIRECTION('',(0.,0.,1.));
#1974 = DIRECTION('',(-1.,0.,0.));
#1975 = ADVANCED_FACE('',(#1976),#1995,.F.);
#1976 = FACE_BOUND('',#1977,.T.);
#1977 = EDGE_LOOP('',(#1978,#1986,#1987,#1988));
#1978 = ORIENTED_EDGE('',*,*,#1979,.F.);
#1979 = EDGE_CURVE('',#1535,#1980,#1982,.T.);
#1980 = VERTEX_POINT('',#1981);
#1981 = CARTESIAN_POINT('',(-43.35,-10.,1.));
#1982 = LINE('',#1983,#1984);
#1983 = CARTESIAN_POINT('',(-43.35,-10.,-4.));
#1984 = VECTOR('',#1985,1.);
#1985 = DIRECTION('',(9.E-17,0.,1.));
#1986 = ORIENTED_EDGE('',*,*,#1534,.T.);
#1987 = ORIENTED_EDGE('',*,*,#1979,.T.);
#1988 = ORIENTED_EDGE('',*,*,#1989,.F.);
#1989 = EDGE_CURVE('',#1980,#1980,#1990,.T.);
#1990 = CIRCLE('',#1991,2.35);
#1991 = AXIS2_PLACEMENT_3D('',#1992,#1993,#1994);
#1992 = CARTESIAN_POINT('',(-41.,-10.,1.));
#1993 = DIRECTION('',(0.,0.,-1.));
#1994 = DIRECTION('',(-1.,0.,0.));
#1995 = CYLINDRICAL_SURFACE('',#1996,2.35);
#1996 = AXIS2_PLACEMENT_3D('',#1997,#1998,#1999);
#1997 = CARTESIAN_POINT('',(-41.,-10.,-4.));
#1998 = DIRECTION('',(0.,0.,1.));
#1999 = DIRECTION('',(-1.,0.,0.));
#2000 = ADVANCED_FACE('',(#2001),#2013,.F.);
#2001 = FACE_BOUND('',#2002,.T.);
#2002 = EDGE_LOOP('',(#2003,#2004,#2012));
#2003 = ORIENTED_EDGE('',*,*,#1814,.T.);
#2004 = ORIENTED_EDGE('',*,*,#2005,.T.);
#2005 = EDGE_CURVE('',#1805,#2006,#2008,.T.);
#2006 = VERTEX_POINT('',#2007);
#2007 = CARTESIAN_POINT('',(-166.1,-59.,2.412022454715));
#2008 = LINE('',#2009,#2010);
#2009 = CARTESIAN_POINT('',(-168.45,-59.,1.));
#2010 = VECTOR('',#2011,1.);
#2011 = DIRECTION('',(0.857167300702,0.,0.51503807491));
#2012 = ORIENTED_EDGE('',*,*,#2005,.F.);
#2013 = CONICAL_SURFACE('',#2014,2.35,1.029744258677);
#2014 = AXIS2_PLACEMENT_3D('',#2015,#2016,#2017);
#2015 = CARTESIAN_POINT('',(-166.1,-59.,1.));
#2016 = DIRECTION('',(-0.,-0.,-1.));
#2017 = DIRECTION('',(-1.,0.,0.));
#2018 = ADVANCED_FACE('',(#2019),#2031,.F.);
#2019 = FACE_BOUND('',#2020,.T.);
#2020 = EDGE_LOOP('',(#2021,#2022,#2030));
#2021 = ORIENTED_EDGE('',*,*,#1839,.T.);
#2022 = ORIENTED_EDGE('',*,*,#2023,.T.);
#2023 = EDGE_CURVE('',#1830,#2024,#2026,.T.);
#2024 = VERTEX_POINT('',#2025);
#2025 = CARTESIAN_POINT('',(-121.,-59.,2.412022454715));
#2026 = LINE('',#2027,#2028);
#2027 = CARTESIAN_POINT('',(-123.35,-59.,1.));
#2028 = VECTOR('',#2029,1.);
#2029 = DIRECTION('',(0.857167300702,0.,0.51503807491));
#2030 = ORIENTED_EDGE('',*,*,#2023,.F.);
#2031 = CONICAL_SURFACE('',#2032,2.35,1.029744258677);
#2032 = AXIS2_PLACEMENT_3D('',#2033,#2034,#2035);
#2033 = CARTESIAN_POINT('',(-121.,-59.,1.));
#2034 = DIRECTION('',(-0.,-0.,-1.));
#2035 = DIRECTION('',(-1.,0.,0.));
#2036 = ADVANCED_FACE('',(#2037),#2049,.F.);
#2037 = FACE_BOUND('',#2038,.T.);
#2038 = EDGE_LOOP('',(#2039,#2040,#2048));
#2039 = ORIENTED_EDGE('',*,*,#1864,.T.);
#2040 = ORIENTED_EDGE('',*,*,#2041,.T.);
#2041 = EDGE_CURVE('',#1855,#2042,#2044,.T.);
#2042 = VERTEX_POINT('',#2043);
#2043 = CARTESIAN_POINT('',(-99.,-59.,2.412022454715));
#2044 = LINE('',#2045,#2046);
#2045 = CARTESIAN_POINT('',(-101.35,-59.,1.));
#2046 = VECTOR('',#2047,1.);
#2047 = DIRECTION('',(0.857167300702,0.,0.51503807491));
#2048 = ORIENTED_EDGE('',*,*,#2041,.F.);
#2049 = CONICAL_SURFACE('',#2050,2.35,1.029744258677);
#2050 = AXIS2_PLACEMENT_3D('',#2051,#2052,#2053);
#2051 = CARTESIAN_POINT('',(-99.,-59.,1.));
#2052 = DIRECTION('',(-0.,-0.,-1.));
#2053 = DIRECTION('',(-1.,0.,0.));
#2054 = ADVANCED_FACE('',(#2055),#2067,.F.);
#2055 = FACE_BOUND('',#2056,.T.);
#2056 = EDGE_LOOP('',(#2057,#2058,#2066));
#2057 = ORIENTED_EDGE('',*,*,#1889,.T.);
#2058 = ORIENTED_EDGE('',*,*,#2059,.T.);
#2059 = EDGE_CURVE('',#1880,#2060,#2062,.T.);
#2060 = VERTEX_POINT('',#2061);
#2061 = CARTESIAN_POINT('',(-41.,-59.,2.412022454715));
#2062 = LINE('',#2063,#2064);
#2063 = CARTESIAN_POINT('',(-43.35,-59.,1.));
#2064 = VECTOR('',#2065,1.);
#2065 = DIRECTION('',(0.857167300702,0.,0.51503807491));
#2066 = ORIENTED_EDGE('',*,*,#2059,.F.);
#2067 = CONICAL_SURFACE('',#2068,2.35,1.029744258677);
#2068 = AXIS2_PLACEMENT_3D('',#2069,#2070,#2071);
#2069 = CARTESIAN_POINT('',(-41.,-59.,1.));
#2070 = DIRECTION('',(-0.,-0.,-1.));
#2071 = DIRECTION('',(-1.,0.,0.));
#2072 = ADVANCED_FACE('',(#2073),#2085,.F.);
#2073 = FACE_BOUND('',#2074,.T.);
#2074 = EDGE_LOOP('',(#2075,#2076,#2084));
#2075 = ORIENTED_EDGE('',*,*,#1914,.T.);
#2076 = ORIENTED_EDGE('',*,*,#2077,.T.);
#2077 = EDGE_CURVE('',#1905,#2078,#2080,.T.);
#2078 = VERTEX_POINT('',#2079);
#2079 = CARTESIAN_POINT('',(-166.1,-9.1,2.412022454715));
#2080 = LINE('',#2081,#2082);
#2081 = CARTESIAN_POINT('',(-168.45,-9.1,1.));
#2082 = VECTOR('',#2083,1.);
#2083 = DIRECTION('',(0.857167300702,0.,0.51503807491));
#2084 = ORIENTED_EDGE('',*,*,#2077,.F.);
#2085 = CONICAL_SURFACE('',#2086,2.35,1.029744258677);
#2086 = AXIS2_PLACEMENT_3D('',#2087,#2088,#2089);
#2087 = CARTESIAN_POINT('',(-166.1,-9.1,1.));
#2088 = DIRECTION('',(-0.,-0.,-1.));
#2089 = DIRECTION('',(-1.,0.,0.));
#2090 = ADVANCED_FACE('',(#2091),#2103,.F.);
#2091 = FACE_BOUND('',#2092,.T.);
#2092 = EDGE_LOOP('',(#2093,#2094,#2102));
#2093 = ORIENTED_EDGE('',*,*,#1939,.T.);
#2094 = ORIENTED_EDGE('',*,*,#2095,.T.);
#2095 = EDGE_CURVE('',#1930,#2096,#2098,.T.);
#2096 = VERTEX_POINT('',#2097);
#2097 = CARTESIAN_POINT('',(-121.,-9.1,2.412022454715));
#2098 = LINE('',#2099,#2100);
#2099 = CARTESIAN_POINT('',(-123.35,-9.1,1.));
#2100 = VECTOR('',#2101,1.);
#2101 = DIRECTION('',(0.857167300702,0.,0.51503807491));
#2102 = ORIENTED_EDGE('',*,*,#2095,.F.);
#2103 = CONICAL_SURFACE('',#2104,2.35,1.029744258677);
#2104 = AXIS2_PLACEMENT_3D('',#2105,#2106,#2107);
#2105 = CARTESIAN_POINT('',(-121.,-9.1,1.));
#2106 = DIRECTION('',(-0.,-0.,-1.));
#2107 = DIRECTION('',(-1.,0.,0.));
#2108 = ADVANCED_FACE('',(#2109),#2121,.F.);
#2109 = FACE_BOUND('',#2110,.T.);
#2110 = EDGE_LOOP('',(#2111,#2112,#2120));
#2111 = ORIENTED_EDGE('',*,*,#1964,.T.);
#2112 = ORIENTED_EDGE('',*,*,#2113,.T.);
#2113 = EDGE_CURVE('',#1955,#2114,#2116,.T.);
#2114 = VERTEX_POINT('',#2115);
#2115 = CARTESIAN_POINT('',(-99.,-10.,2.412022454715));
#2116 = LINE('',#2117,#2118);
#2117 = CARTESIAN_POINT('',(-101.35,-10.,1.));
#2118 = VECTOR('',#2119,1.);
#2119 = DIRECTION('',(0.857167300702,0.,0.51503807491));
#2120 = ORIENTED_EDGE('',*,*,#2113,.F.);
#2121 = CONICAL_SURFACE('',#2122,2.35,1.029744258677);
#2122 = AXIS2_PLACEMENT_3D('',#2123,#2124,#2125);
#2123 = CARTESIAN_POINT('',(-99.,-10.,1.));
#2124 = DIRECTION('',(-0.,-0.,-1.));
#2125 = DIRECTION('',(-1.,0.,0.));
#2126 = ADVANCED_FACE('',(#2127),#2139,.F.);
#2127 = FACE_BOUND('',#2128,.T.);
#2128 = EDGE_LOOP('',(#2129,#2130,#2138));
#2129 = ORIENTED_EDGE('',*,*,#1989,.T.);
#2130 = ORIENTED_EDGE('',*,*,#2131,.T.);
#2131 = EDGE_CURVE('',#1980,#2132,#2134,.T.);
#2132 = VERTEX_POINT('',#2133);
#2133 = CARTESIAN_POINT('',(-41.,-10.,2.412022454715));
#2134 = LINE('',#2135,#2136);
#2135 = CARTESIAN_POINT('',(-43.35,-10.,1.));
#2136 = VECTOR('',#2137,1.);
#2137 = DIRECTION('',(0.857167300702,0.,0.51503807491));
#2138 = ORIENTED_EDGE('',*,*,#2131,.F.);
#2139 = CONICAL_SURFACE('',#2140,2.35,1.029744258677);
#2140 = AXIS2_PLACEMENT_3D('',#2141,#2142,#2143);
#2141 = CARTESIAN_POINT('',(-41.,-10.,1.));
#2142 = DIRECTION('',(-0.,-0.,-1.));
#2143 = DIRECTION('',(-1.,0.,0.));
#2144 = ( GEOMETRIC_REPRESENTATION_CONTEXT(3) 
GLOBAL_UNCERTAINTY_ASSIGNED_CONTEXT((#2148)) 
GLOBAL_UNIT_ASSIGNED_CONTEXT((#2145,#2146,#2147)) REPRESENTATION_CONTEXT
('Context #1','3D Context with UNIT and UNCERTAINTY') );
#2145 = ( LENGTH_UNIT() NAMED_UNIT(*) SI_UNIT(.MILLI.,.METRE.) );
#2146 = ( NAMED_UNIT(*) PLANE_ANGLE_UNIT() SI_UNIT($,.RADIAN.) );
#2147 = ( NAMED_UNIT(*) SI_UNIT($,.STERADIAN.) SOLID_ANGLE_UNIT() );
#2148 = UNCERTAINTY_MEASURE_WITH_UNIT(LENGTH_MEASURE(1.E-07),#2145,
  'distance_accuracy_value','confusion accuracy');
#2149 = PRODUCT_RELATED_PRODUCT_CATEGORY('part',$,(#7));
#2150 = MECHANICAL_DESIGN_GEOMETRIC_PRESENTATION_REPRESENTATION('',(
    #2151),#2144);
#2151 = STYLED_ITEM('color',(#2152),#15);
#2152 = PRESENTATION_STYLE_ASSIGNMENT((#2153,#2159));
#2153 = SURFACE_STYLE_USAGE(.BOTH.,#2154);
#2154 = SURFACE_SIDE_STYLE('',(#2155));
#2155 = SURFACE_STYLE_FILL_AREA(#2156);
#2156 = FILL_AREA_STYLE('',(#2157));
#2157 = FILL_AREA_STYLE_COLOUR('',#2158);
#2158 = COLOUR_RGB('',0.447058818107,0.474509808674,0.501960817233);
#2159 = CURVE_STYLE('',#2160,POSITIVE_LENGTH_MEASURE(0.1),#2161);
#2160 = DRAUGHTING_PRE_DEFINED_CURVE_FONT('continuous');
#2161 = COLOUR_RGB('',9.803921802644E-02,9.803921802644E-02,
  9.803921802644E-02);
ENDSEC;
END-ISO-10303-21;
