ISO-10303-21;
HEADER;
FILE_DESCRIPTION(('FreeCAD Model'),'2;1');
FILE_NAME('Open CASCADE Shape Model','2025-11-04T09:14:31',(''),(''),
  'Open CASCADE STEP processor 7.9','FreeCAD','Unknown');
FILE_SCHEMA(('AUTOMOTIVE_DESIGN { 1 0 10303 214 1 1 1 1 }'));
ENDSEC;
DATA;
#1 = APPLICATION_PROTOCOL_DEFINITION('international standard',
  'automotive_design',2000,#2);
#2 = APPLICATION_CONTEXT(
  'core data for automotive mechanical design processes');
#3 = SHAPE_DEFINITION_REPRESENTATION(#4,#10);
#4 = PRODUCT_DEFINITION_SHAPE('','',#5);
#5 = PRODUCT_DEFINITION('design','',#6,#9);
#6 = PRODUCT_DEFINITION_FORMATION('','',#7);
#7 = PRODUCT('RubberFeet','RubberFeet','',(#8));
#8 = PRODUCT_CONTEXT('',#2,'mechanical');
#9 = PRODUCT_DEFINITION_CONTEXT('part definition',#2,'design');
#10 = ADVANCED_BREP_SHAPE_REPRESENTATION('',(#11,#15),#563);
#11 = AXIS2_PLACEMENT_3D('',#12,#13,#14);
#12 = CARTESIAN_POINT('',(0.,0.,0.));
#13 = DIRECTION('',(0.,0.,1.));
#14 = DIRECTION('',(1.,0.,-0.));
#15 = MANIFOLD_SOLID_BREP('',#16);
#16 = CLOSED_SHELL('',(#17,#68,#99,#130,#161,#192,#223,#254,#278,#309,
    #340,#380,#402,#422,#447,#467,#492,#501,#523,#543));
#17 = ADVANCED_FACE('',(#18,#52),#63,.T.);
#18 = FACE_BOUND('',#19,.T.);
#19 = EDGE_LOOP('',(#20,#30,#38,#46));
#20 = ORIENTED_EDGE('',*,*,#21,.T.);
#21 = EDGE_CURVE('',#22,#24,#26,.T.);
#22 = VERTEX_POINT('',#23);
#23 = CARTESIAN_POINT('',(-14.,-10.,4.));
#24 = VERTEX_POINT('',#25);
#25 = CARTESIAN_POINT('',(14.,-10.,4.));
#26 = LINE('',#27,#28);
#27 = CARTESIAN_POINT('',(-14.,-10.,4.));
#28 = VECTOR('',#29,1.);
#29 = DIRECTION('',(1.,0.,0.));
#30 = ORIENTED_EDGE('',*,*,#31,.T.);
#31 = EDGE_CURVE('',#24,#32,#34,.T.);
#32 = VERTEX_POINT('',#33);
#33 = CARTESIAN_POINT('',(14.,10.,4.));
#34 = LINE('',#35,#36);
#35 = CARTESIAN_POINT('',(14.,-10.,4.));
#36 = VECTOR('',#37,1.);
#37 = DIRECTION('',(0.,1.,0.));
#38 = ORIENTED_EDGE('',*,*,#39,.T.);
#39 = EDGE_CURVE('',#32,#40,#42,.T.);
#40 = VERTEX_POINT('',#41);
#41 = CARTESIAN_POINT('',(-14.,10.,4.));
#42 = LINE('',#43,#44);
#43 = CARTESIAN_POINT('',(14.,10.,4.));
#44 = VECTOR('',#45,1.);
#45 = DIRECTION('',(-1.,0.,0.));
#46 = ORIENTED_EDGE('',*,*,#47,.T.);
#47 = EDGE_CURVE('',#40,#22,#48,.T.);
#48 = LINE('',#49,#50);
#49 = CARTESIAN_POINT('',(-14.,10.,4.));
#50 = VECTOR('',#51,1.);
#51 = DIRECTION('',(0.,-1.,0.));
#52 = FACE_BOUND('',#53,.T.);
#53 = EDGE_LOOP('',(#54));
#54 = ORIENTED_EDGE('',*,*,#55,.F.);
#55 = EDGE_CURVE('',#56,#56,#58,.T.);
#56 = VERTEX_POINT('',#57);
#57 = CARTESIAN_POINT('',(9.650045345896,0.,4.));
#58 = CIRCLE('',#59,9.650045345896);
#59 = AXIS2_PLACEMENT_3D('',#60,#61,#62);
#60 = CARTESIAN_POINT('',(0.,0.,4.));
#61 = DIRECTION('',(0.,0.,1.));
#62 = DIRECTION('',(1.,0.,0.));
#63 = PLANE('',#64);
#64 = AXIS2_PLACEMENT_3D('',#65,#66,#67);
#65 = CARTESIAN_POINT('',(0.,0.,4.));
#66 = DIRECTION('',(0.,0.,1.));
#67 = DIRECTION('',(1.,0.,0.));
#68 = ADVANCED_FACE('',(#69),#94,.T.);
#69 = FACE_BOUND('',#70,.T.);
#70 = EDGE_LOOP('',(#71,#79,#87,#93));
#71 = ORIENTED_EDGE('',*,*,#72,.F.);
#72 = EDGE_CURVE('',#73,#40,#75,.T.);
#73 = VERTEX_POINT('',#74);
#74 = CARTESIAN_POINT('',(-14.,10.,-13.));
#75 = LINE('',#76,#77);
#76 = CARTESIAN_POINT('',(-14.,10.,0.));
#77 = VECTOR('',#78,1.);
#78 = DIRECTION('',(0.,0.,1.));
#79 = ORIENTED_EDGE('',*,*,#80,.F.);
#80 = EDGE_CURVE('',#81,#73,#83,.T.);
#81 = VERTEX_POINT('',#82);
#82 = CARTESIAN_POINT('',(-14.,-10.,-13.));
#83 = LINE('',#84,#85);
#84 = CARTESIAN_POINT('',(-14.,-10.,-13.));
#85 = VECTOR('',#86,1.);
#86 = DIRECTION('',(0.,1.,-2.2E-16));
#87 = ORIENTED_EDGE('',*,*,#88,.F.);
#88 = EDGE_CURVE('',#22,#81,#89,.T.);
#89 = LINE('',#90,#91);
#90 = CARTESIAN_POINT('',(-14.,-10.,0.));
#91 = VECTOR('',#92,1.);
#92 = DIRECTION('',(0.,-2.2E-16,-1.));
#93 = ORIENTED_EDGE('',*,*,#47,.F.);
#94 = PLANE('',#95);
#95 = AXIS2_PLACEMENT_3D('',#96,#97,#98);
#96 = CARTESIAN_POINT('',(-14.,-1.15E-15,-4.5));
#97 = DIRECTION('',(-1.,-0.,-0.));
#98 = DIRECTION('',(0.,0.,-1.));
#99 = ADVANCED_FACE('',(#100),#125,.T.);
#100 = FACE_BOUND('',#101,.T.);
#101 = EDGE_LOOP('',(#102,#110,#111,#119));
#102 = ORIENTED_EDGE('',*,*,#103,.F.);
#103 = EDGE_CURVE('',#81,#104,#106,.T.);
#104 = VERTEX_POINT('',#105);
#105 = CARTESIAN_POINT('',(-7.6,-10.,-13.));
#106 = LINE('',#107,#108);
#107 = CARTESIAN_POINT('',(-14.,-10.,-13.));
#108 = VECTOR('',#109,1.);
#109 = DIRECTION('',(1.,0.,0.));
#110 = ORIENTED_EDGE('',*,*,#80,.T.);
#111 = ORIENTED_EDGE('',*,*,#112,.F.);
#112 = EDGE_CURVE('',#113,#73,#115,.T.);
#113 = VERTEX_POINT('',#114);
#114 = CARTESIAN_POINT('',(-7.6,10.,-13.));
#115 = LINE('',#116,#117);
#116 = CARTESIAN_POINT('',(0.,10.,-13.));
#117 = VECTOR('',#118,1.);
#118 = DIRECTION('',(-1.,0.,0.));
#119 = ORIENTED_EDGE('',*,*,#120,.F.);
#120 = EDGE_CURVE('',#104,#113,#121,.T.);
#121 = LINE('',#122,#123);
#122 = CARTESIAN_POINT('',(-7.6,-10.,-13.));
#123 = VECTOR('',#124,1.);
#124 = DIRECTION('',(0.,1.,-2.2E-16));
#125 = PLANE('',#126);
#126 = AXIS2_PLACEMENT_3D('',#127,#128,#129);
#127 = CARTESIAN_POINT('',(-14.,-10.,-13.));
#128 = DIRECTION('',(0.,-2.2E-16,-1.));
#129 = DIRECTION('',(1.,0.,0.));
#130 = ADVANCED_FACE('',(#131),#156,.T.);
#131 = FACE_BOUND('',#132,.T.);
#132 = EDGE_LOOP('',(#133,#141,#142,#150));
#133 = ORIENTED_EDGE('',*,*,#134,.F.);
#134 = EDGE_CURVE('',#104,#135,#137,.T.);
#135 = VERTEX_POINT('',#136);
#136 = CARTESIAN_POINT('',(-7.6,-10.,-7.));
#137 = LINE('',#138,#139);
#138 = CARTESIAN_POINT('',(-7.6,-10.,-13.));
#139 = VECTOR('',#140,1.);
#140 = DIRECTION('',(0.,0.,1.));
#141 = ORIENTED_EDGE('',*,*,#120,.T.);
#142 = ORIENTED_EDGE('',*,*,#143,.F.);
#143 = EDGE_CURVE('',#144,#113,#146,.T.);
#144 = VERTEX_POINT('',#145);
#145 = CARTESIAN_POINT('',(-7.6,10.,-7.));
#146 = LINE('',#147,#148);
#147 = CARTESIAN_POINT('',(-7.6,10.,-6.5));
#148 = VECTOR('',#149,1.);
#149 = DIRECTION('',(0.,0.,-1.));
#150 = ORIENTED_EDGE('',*,*,#151,.F.);
#151 = EDGE_CURVE('',#135,#144,#152,.T.);
#152 = LINE('',#153,#154);
#153 = CARTESIAN_POINT('',(-7.6,-10.,-7.));
#154 = VECTOR('',#155,1.);
#155 = DIRECTION('',(0.,1.,-2.2E-16));
#156 = PLANE('',#157);
#157 = AXIS2_PLACEMENT_3D('',#158,#159,#160);
#158 = CARTESIAN_POINT('',(-7.6,-10.,-13.));
#159 = DIRECTION('',(1.,0.,0.));
#160 = DIRECTION('',(0.,2.2E-16,1.));
#161 = ADVANCED_FACE('',(#162),#187,.T.);
#162 = FACE_BOUND('',#163,.T.);
#163 = EDGE_LOOP('',(#164,#172,#173,#181));
#164 = ORIENTED_EDGE('',*,*,#165,.F.);
#165 = EDGE_CURVE('',#135,#166,#168,.T.);
#166 = VERTEX_POINT('',#167);
#167 = CARTESIAN_POINT('',(-10.6,-10.,-7.));
#168 = LINE('',#169,#170);
#169 = CARTESIAN_POINT('',(-7.6,-10.,-7.));
#170 = VECTOR('',#171,1.);
#171 = DIRECTION('',(-1.,0.,0.));
#172 = ORIENTED_EDGE('',*,*,#151,.T.);
#173 = ORIENTED_EDGE('',*,*,#174,.F.);
#174 = EDGE_CURVE('',#175,#144,#177,.T.);
#175 = VERTEX_POINT('',#176);
#176 = CARTESIAN_POINT('',(-10.6,10.,-7.));
#177 = LINE('',#178,#179);
#178 = CARTESIAN_POINT('',(3.2,10.,-7.));
#179 = VECTOR('',#180,1.);
#180 = DIRECTION('',(1.,0.,0.));
#181 = ORIENTED_EDGE('',*,*,#182,.F.);
#182 = EDGE_CURVE('',#166,#175,#183,.T.);
#183 = LINE('',#184,#185);
#184 = CARTESIAN_POINT('',(-10.6,-10.,-7.));
#185 = VECTOR('',#186,1.);
#186 = DIRECTION('',(0.,1.,-2.2E-16));
#187 = PLANE('',#188);
#188 = AXIS2_PLACEMENT_3D('',#189,#190,#191);
#189 = CARTESIAN_POINT('',(-7.6,-10.,-7.));
#190 = DIRECTION('',(0.,2.2E-16,1.));
#191 = DIRECTION('',(-1.,0.,0.));
#192 = ADVANCED_FACE('',(#193),#218,.T.);
#193 = FACE_BOUND('',#194,.T.);
#194 = EDGE_LOOP('',(#195,#203,#204,#212));
#195 = ORIENTED_EDGE('',*,*,#196,.F.);
#196 = EDGE_CURVE('',#166,#197,#199,.T.);
#197 = VERTEX_POINT('',#198);
#198 = CARTESIAN_POINT('',(-10.6,-10.,0.));
#199 = LINE('',#200,#201);
#200 = CARTESIAN_POINT('',(-10.6,-10.,-7.));
#201 = VECTOR('',#202,1.);
#202 = DIRECTION('',(0.,0.,1.));
#203 = ORIENTED_EDGE('',*,*,#182,.T.);
#204 = ORIENTED_EDGE('',*,*,#205,.F.);
#205 = EDGE_CURVE('',#206,#175,#208,.T.);
#206 = VERTEX_POINT('',#207);
#207 = CARTESIAN_POINT('',(-10.6,10.,-4.E-15));
#208 = LINE('',#209,#210);
#209 = CARTESIAN_POINT('',(-10.6,10.,-3.5));
#210 = VECTOR('',#211,1.);
#211 = DIRECTION('',(0.,0.,-1.));
#212 = ORIENTED_EDGE('',*,*,#213,.F.);
#213 = EDGE_CURVE('',#197,#206,#214,.T.);
#214 = LINE('',#215,#216);
#215 = CARTESIAN_POINT('',(-10.6,-10.,0.));
#216 = VECTOR('',#217,1.);
#217 = DIRECTION('',(0.,1.,-2.2E-16));
#218 = PLANE('',#219);
#219 = AXIS2_PLACEMENT_3D('',#220,#221,#222);
#220 = CARTESIAN_POINT('',(-10.6,-10.,-7.));
#221 = DIRECTION('',(1.,0.,0.));
#222 = DIRECTION('',(0.,2.2E-16,1.));
#223 = ADVANCED_FACE('',(#224),#249,.T.);
#224 = FACE_BOUND('',#225,.T.);
#225 = EDGE_LOOP('',(#226,#234,#242,#248));
#226 = ORIENTED_EDGE('',*,*,#227,.F.);
#227 = EDGE_CURVE('',#228,#206,#230,.T.);
#228 = VERTEX_POINT('',#229);
#229 = CARTESIAN_POINT('',(10.6,10.,-4.E-15));
#230 = LINE('',#231,#232);
#231 = CARTESIAN_POINT('',(14.,10.,0.));
#232 = VECTOR('',#233,1.);
#233 = DIRECTION('',(-1.,0.,0.));
#234 = ORIENTED_EDGE('',*,*,#235,.F.);
#235 = EDGE_CURVE('',#236,#228,#238,.T.);
#236 = VERTEX_POINT('',#237);
#237 = CARTESIAN_POINT('',(10.6,-10.,0.));
#238 = LINE('',#239,#240);
#239 = CARTESIAN_POINT('',(10.6,-10.,0.));
#240 = VECTOR('',#241,1.);
#241 = DIRECTION('',(0.,1.,-2.2E-16));
#242 = ORIENTED_EDGE('',*,*,#243,.F.);
#243 = EDGE_CURVE('',#197,#236,#244,.T.);
#244 = LINE('',#245,#246);
#245 = CARTESIAN_POINT('',(-14.,-10.,0.));
#246 = VECTOR('',#247,1.);
#247 = DIRECTION('',(1.,0.,0.));
#248 = ORIENTED_EDGE('',*,*,#213,.T.);
#249 = PLANE('',#250);
#250 = AXIS2_PLACEMENT_3D('',#251,#252,#253);
#251 = CARTESIAN_POINT('',(0.,0.,0.));
#252 = DIRECTION('',(-0.,-0.,-1.));
#253 = DIRECTION('',(-1.,0.,0.));
#254 = ADVANCED_FACE('',(#255),#273,.T.);
#255 = FACE_BOUND('',#256,.T.);
#256 = EDGE_LOOP('',(#257,#258,#265,#272));
#257 = ORIENTED_EDGE('',*,*,#55,.T.);
#258 = ORIENTED_EDGE('',*,*,#259,.T.);
#259 = EDGE_CURVE('',#56,#260,#262,.T.);
#260 = VERTEX_POINT('',#261);
#261 = CARTESIAN_POINT('',(7.900272075378,0.,24.));
#262 = B_SPLINE_CURVE_WITH_KNOTS('',1,(#263,#264),.UNSPECIFIED.,.F.,.F.,
  (2,2),(0.,1.),.PIECEWISE_BEZIER_KNOTS.);
#263 = CARTESIAN_POINT('',(10.,0.,0.));
#264 = CARTESIAN_POINT('',(7.900272075378,0.,24.));
#265 = ORIENTED_EDGE('',*,*,#266,.F.);
#266 = EDGE_CURVE('',#260,#260,#267,.T.);
#267 = CIRCLE('',#268,7.900272075378);
#268 = AXIS2_PLACEMENT_3D('',#269,#270,#271);
#269 = CARTESIAN_POINT('',(0.,0.,24.));
#270 = DIRECTION('',(0.,0.,1.));
#271 = DIRECTION('',(1.,0.,0.));
#272 = ORIENTED_EDGE('',*,*,#259,.F.);
#273 = CONICAL_SURFACE('',#274,10.,8.726646259972E-02);
#274 = AXIS2_PLACEMENT_3D('',#275,#276,#277);
#275 = CARTESIAN_POINT('',(0.,0.,0.));
#276 = DIRECTION('',(-0.,-0.,-1.));
#277 = DIRECTION('',(1.,0.,0.));
#278 = ADVANCED_FACE('',(#279),#304,.T.);
#279 = FACE_BOUND('',#280,.F.);
#280 = EDGE_LOOP('',(#281,#289,#297,#303));
#281 = ORIENTED_EDGE('',*,*,#282,.F.);
#282 = EDGE_CURVE('',#283,#236,#285,.T.);
#283 = VERTEX_POINT('',#284);
#284 = CARTESIAN_POINT('',(10.6,-10.,-7.));
#285 = LINE('',#286,#287);
#286 = CARTESIAN_POINT('',(10.6,-10.,-7.));
#287 = VECTOR('',#288,1.);
#288 = DIRECTION('',(0.,0.,1.));
#289 = ORIENTED_EDGE('',*,*,#290,.T.);
#290 = EDGE_CURVE('',#283,#291,#293,.T.);
#291 = VERTEX_POINT('',#292);
#292 = CARTESIAN_POINT('',(10.6,10.,-7.));
#293 = LINE('',#294,#295);
#294 = CARTESIAN_POINT('',(10.6,-10.,-7.));
#295 = VECTOR('',#296,1.);
#296 = DIRECTION('',(0.,1.,-2.2E-16));
#297 = ORIENTED_EDGE('',*,*,#298,.F.);
#298 = EDGE_CURVE('',#228,#291,#299,.T.);
#299 = LINE('',#300,#301);
#300 = CARTESIAN_POINT('',(10.6,10.,-3.5));
#301 = VECTOR('',#302,1.);
#302 = DIRECTION('',(-0.,-0.,-1.));
#303 = ORIENTED_EDGE('',*,*,#235,.F.);
#304 = PLANE('',#305);
#305 = AXIS2_PLACEMENT_3D('',#306,#307,#308);
#306 = CARTESIAN_POINT('',(10.6,-10.,-7.));
#307 = DIRECTION('',(-1.,-0.,-0.));
#308 = DIRECTION('',(0.,-2.2E-16,-1.));
#309 = ADVANCED_FACE('',(#310),#335,.T.);
#310 = FACE_BOUND('',#311,.F.);
#311 = EDGE_LOOP('',(#312,#320,#328,#334));
#312 = ORIENTED_EDGE('',*,*,#313,.F.);
#313 = EDGE_CURVE('',#314,#283,#316,.T.);
#314 = VERTEX_POINT('',#315);
#315 = CARTESIAN_POINT('',(7.6,-10.,-7.));
#316 = LINE('',#317,#318);
#317 = CARTESIAN_POINT('',(7.6,-10.,-7.));
#318 = VECTOR('',#319,1.);
#319 = DIRECTION('',(1.,0.,0.));
#320 = ORIENTED_EDGE('',*,*,#321,.T.);
#321 = EDGE_CURVE('',#314,#322,#324,.T.);
#322 = VERTEX_POINT('',#323);
#323 = CARTESIAN_POINT('',(7.6,10.,-7.));
#324 = LINE('',#325,#326);
#325 = CARTESIAN_POINT('',(7.6,-10.,-7.));
#326 = VECTOR('',#327,1.);
#327 = DIRECTION('',(0.,1.,-2.2E-16));
#328 = ORIENTED_EDGE('',*,*,#329,.F.);
#329 = EDGE_CURVE('',#291,#322,#330,.T.);
#330 = LINE('',#331,#332);
#331 = CARTESIAN_POINT('',(-3.2,10.,-7.));
#332 = VECTOR('',#333,1.);
#333 = DIRECTION('',(-1.,-0.,-0.));
#334 = ORIENTED_EDGE('',*,*,#290,.F.);
#335 = PLANE('',#336);
#336 = AXIS2_PLACEMENT_3D('',#337,#338,#339);
#337 = CARTESIAN_POINT('',(7.6,-10.,-7.));
#338 = DIRECTION('',(0.,2.2E-16,1.));
#339 = DIRECTION('',(-1.,0.,0.));
#340 = ADVANCED_FACE('',(#341),#375,.T.);
#341 = FACE_BOUND('',#342,.F.);
#342 = EDGE_LOOP('',(#343,#353,#361,#369));
#343 = ORIENTED_EDGE('',*,*,#344,.F.);
#344 = EDGE_CURVE('',#345,#347,#349,.T.);
#345 = VERTEX_POINT('',#346);
#346 = CARTESIAN_POINT('',(14.,-10.,-13.));
#347 = VERTEX_POINT('',#348);
#348 = CARTESIAN_POINT('',(7.6,-10.,-13.));
#349 = LINE('',#350,#351);
#350 = CARTESIAN_POINT('',(14.,-10.,-13.));
#351 = VECTOR('',#352,1.);
#352 = DIRECTION('',(-1.,0.,-0.));
#353 = ORIENTED_EDGE('',*,*,#354,.T.);
#354 = EDGE_CURVE('',#345,#355,#357,.T.);
#355 = VERTEX_POINT('',#356);
#356 = CARTESIAN_POINT('',(14.,10.,-13.));
#357 = LINE('',#358,#359);
#358 = CARTESIAN_POINT('',(14.,-10.,-13.));
#359 = VECTOR('',#360,1.);
#360 = DIRECTION('',(0.,1.,-2.2E-16));
#361 = ORIENTED_EDGE('',*,*,#362,.F.);
#362 = EDGE_CURVE('',#363,#355,#365,.T.);
#363 = VERTEX_POINT('',#364);
#364 = CARTESIAN_POINT('',(7.6,10.,-13.));
#365 = LINE('',#366,#367);
#366 = CARTESIAN_POINT('',(0.,10.,-13.));
#367 = VECTOR('',#368,1.);
#368 = DIRECTION('',(1.,0.,0.));
#369 = ORIENTED_EDGE('',*,*,#370,.F.);
#370 = EDGE_CURVE('',#347,#363,#371,.T.);
#371 = LINE('',#372,#373);
#372 = CARTESIAN_POINT('',(7.6,-10.,-13.));
#373 = VECTOR('',#374,1.);
#374 = DIRECTION('',(0.,1.,-2.2E-16));
#375 = PLANE('',#376);
#376 = AXIS2_PLACEMENT_3D('',#377,#378,#379);
#377 = CARTESIAN_POINT('',(14.,-10.,-13.));
#378 = DIRECTION('',(-0.,-2.2E-16,-1.));
#379 = DIRECTION('',(1.,0.,0.));
#380 = ADVANCED_FACE('',(#381),#397,.T.);
#381 = FACE_BOUND('',#382,.F.);
#382 = EDGE_LOOP('',(#383,#389,#390,#396));
#383 = ORIENTED_EDGE('',*,*,#384,.F.);
#384 = EDGE_CURVE('',#347,#314,#385,.T.);
#385 = LINE('',#386,#387);
#386 = CARTESIAN_POINT('',(7.6,-10.,-13.));
#387 = VECTOR('',#388,1.);
#388 = DIRECTION('',(0.,0.,1.));
#389 = ORIENTED_EDGE('',*,*,#370,.T.);
#390 = ORIENTED_EDGE('',*,*,#391,.F.);
#391 = EDGE_CURVE('',#322,#363,#392,.T.);
#392 = LINE('',#393,#394);
#393 = CARTESIAN_POINT('',(7.6,10.,-6.5));
#394 = VECTOR('',#395,1.);
#395 = DIRECTION('',(-0.,-0.,-1.));
#396 = ORIENTED_EDGE('',*,*,#321,.F.);
#397 = PLANE('',#398);
#398 = AXIS2_PLACEMENT_3D('',#399,#400,#401);
#399 = CARTESIAN_POINT('',(7.6,-10.,-13.));
#400 = DIRECTION('',(-1.,-0.,-0.));
#401 = DIRECTION('',(0.,-2.2E-16,-1.));
#402 = ADVANCED_FACE('',(#403,#406),#417,.T.);
#403 = FACE_BOUND('',#404,.T.);
#404 = EDGE_LOOP('',(#405));
#405 = ORIENTED_EDGE('',*,*,#266,.T.);
#406 = FACE_BOUND('',#407,.T.);
#407 = EDGE_LOOP('',(#408));
#408 = ORIENTED_EDGE('',*,*,#409,.F.);
#409 = EDGE_CURVE('',#410,#410,#412,.T.);
#410 = VERTEX_POINT('',#411);
#411 = CARTESIAN_POINT('',(3.05,0.,24.));
#412 = CIRCLE('',#413,3.05);
#413 = AXIS2_PLACEMENT_3D('',#414,#415,#416);
#414 = CARTESIAN_POINT('',(0.,0.,24.));
#415 = DIRECTION('',(0.,0.,1.));
#416 = DIRECTION('',(1.,0.,0.));
#417 = PLANE('',#418);
#418 = AXIS2_PLACEMENT_3D('',#419,#420,#421);
#419 = CARTESIAN_POINT('',(0.,0.,24.));
#420 = DIRECTION('',(0.,0.,1.));
#421 = DIRECTION('',(1.,0.,0.));
#422 = ADVANCED_FACE('',(#423),#442,.F.);
#423 = FACE_BOUND('',#424,.T.);
#424 = EDGE_LOOP('',(#425,#433,#434,#435));
#425 = ORIENTED_EDGE('',*,*,#426,.F.);
#426 = EDGE_CURVE('',#410,#427,#429,.T.);
#427 = VERTEX_POINT('',#428);
#428 = CARTESIAN_POINT('',(3.05,0.,14.));
#429 = LINE('',#430,#431);
#430 = CARTESIAN_POINT('',(3.05,0.,24.));
#431 = VECTOR('',#432,1.);
#432 = DIRECTION('',(0.,0.,-1.));
#433 = ORIENTED_EDGE('',*,*,#409,.T.);
#434 = ORIENTED_EDGE('',*,*,#426,.T.);
#435 = ORIENTED_EDGE('',*,*,#436,.F.);
#436 = EDGE_CURVE('',#427,#427,#437,.T.);
#437 = CIRCLE('',#438,3.05);
#438 = AXIS2_PLACEMENT_3D('',#439,#440,#441);
#439 = CARTESIAN_POINT('',(0.,0.,14.));
#440 = DIRECTION('',(0.,0.,1.));
#441 = DIRECTION('',(1.,0.,0.));
#442 = CYLINDRICAL_SURFACE('',#443,3.05);
#443 = AXIS2_PLACEMENT_3D('',#444,#445,#446);
#444 = CARTESIAN_POINT('',(0.,0.,24.));
#445 = DIRECTION('',(-0.,-0.,-1.));
#446 = DIRECTION('',(1.,0.,0.));
#447 = ADVANCED_FACE('',(#448,#451),#462,.T.);
#448 = FACE_BOUND('',#449,.T.);
#449 = EDGE_LOOP('',(#450));
#450 = ORIENTED_EDGE('',*,*,#436,.T.);
#451 = FACE_BOUND('',#452,.T.);
#452 = EDGE_LOOP('',(#453));
#453 = ORIENTED_EDGE('',*,*,#454,.F.);
#454 = EDGE_CURVE('',#455,#455,#457,.T.);
#455 = VERTEX_POINT('',#456);
#456 = CARTESIAN_POINT('',(1.7,0.,14.));
#457 = CIRCLE('',#458,1.7);
#458 = AXIS2_PLACEMENT_3D('',#459,#460,#461);
#459 = CARTESIAN_POINT('',(0.,0.,14.));
#460 = DIRECTION('',(0.,0.,1.));
#461 = DIRECTION('',(1.,0.,0.));
#462 = PLANE('',#463);
#463 = AXIS2_PLACEMENT_3D('',#464,#465,#466);
#464 = CARTESIAN_POINT('',(0.,0.,14.));
#465 = DIRECTION('',(0.,0.,1.));
#466 = DIRECTION('',(1.,0.,0.));
#467 = ADVANCED_FACE('',(#468),#487,.F.);
#468 = FACE_BOUND('',#469,.T.);
#469 = EDGE_LOOP('',(#470,#471,#479,#486));
#470 = ORIENTED_EDGE('',*,*,#454,.T.);
#471 = ORIENTED_EDGE('',*,*,#472,.T.);
#472 = EDGE_CURVE('',#455,#473,#475,.T.);
#473 = VERTEX_POINT('',#474);
#474 = CARTESIAN_POINT('',(1.7,0.,4.));
#475 = LINE('',#476,#477);
#476 = CARTESIAN_POINT('',(1.7,0.,14.));
#477 = VECTOR('',#478,1.);
#478 = DIRECTION('',(-6.E-17,0.,-1.));
#479 = ORIENTED_EDGE('',*,*,#480,.T.);
#480 = EDGE_CURVE('',#473,#473,#481,.T.);
#481 = CIRCLE('',#482,1.7);
#482 = AXIS2_PLACEMENT_3D('',#483,#484,#485);
#483 = CARTESIAN_POINT('',(0.,0.,4.));
#484 = DIRECTION('',(0.,0.,-1.));
#485 = DIRECTION('',(1.,0.,0.));
#486 = ORIENTED_EDGE('',*,*,#472,.F.);
#487 = CYLINDRICAL_SURFACE('',#488,1.7);
#488 = AXIS2_PLACEMENT_3D('',#489,#490,#491);
#489 = CARTESIAN_POINT('',(0.,0.,14.));
#490 = DIRECTION('',(-0.,-0.,-1.));
#491 = DIRECTION('',(1.,0.,0.));
#492 = ADVANCED_FACE('',(#493),#496,.T.);
#493 = FACE_BOUND('',#494,.T.);
#494 = EDGE_LOOP('',(#495));
#495 = ORIENTED_EDGE('',*,*,#480,.F.);
#496 = PLANE('',#497);
#497 = AXIS2_PLACEMENT_3D('',#498,#499,#500);
#498 = CARTESIAN_POINT('',(0.,0.,4.));
#499 = DIRECTION('',(0.,0.,1.));
#500 = DIRECTION('',(1.,0.,0.));
#501 = ADVANCED_FACE('',(#502),#518,.T.);
#502 = FACE_BOUND('',#503,.T.);
#503 = EDGE_LOOP('',(#504,#510,#511,#517));
#504 = ORIENTED_EDGE('',*,*,#505,.F.);
#505 = EDGE_CURVE('',#345,#24,#506,.T.);
#506 = LINE('',#507,#508);
#507 = CARTESIAN_POINT('',(14.,-10.,0.));
#508 = VECTOR('',#509,1.);
#509 = DIRECTION('',(0.,0.,1.));
#510 = ORIENTED_EDGE('',*,*,#354,.T.);
#511 = ORIENTED_EDGE('',*,*,#512,.T.);
#512 = EDGE_CURVE('',#355,#32,#513,.T.);
#513 = LINE('',#514,#515);
#514 = CARTESIAN_POINT('',(14.,10.,0.));
#515 = VECTOR('',#516,1.);
#516 = DIRECTION('',(0.,0.,1.));
#517 = ORIENTED_EDGE('',*,*,#31,.F.);
#518 = PLANE('',#519);
#519 = AXIS2_PLACEMENT_3D('',#520,#521,#522);
#520 = CARTESIAN_POINT('',(14.,-1.54E-15,-4.5));
#521 = DIRECTION('',(1.,0.,0.));
#522 = DIRECTION('',(0.,0.,1.));
#523 = ADVANCED_FACE('',(#524),#538,.T.);
#524 = FACE_BOUND('',#525,.T.);
#525 = EDGE_LOOP('',(#526,#527,#528,#529,#530,#531,#532,#533,#534,#535,
    #536,#537));
#526 = ORIENTED_EDGE('',*,*,#88,.T.);
#527 = ORIENTED_EDGE('',*,*,#103,.T.);
#528 = ORIENTED_EDGE('',*,*,#134,.T.);
#529 = ORIENTED_EDGE('',*,*,#165,.T.);
#530 = ORIENTED_EDGE('',*,*,#196,.T.);
#531 = ORIENTED_EDGE('',*,*,#243,.T.);
#532 = ORIENTED_EDGE('',*,*,#282,.F.);
#533 = ORIENTED_EDGE('',*,*,#313,.F.);
#534 = ORIENTED_EDGE('',*,*,#384,.F.);
#535 = ORIENTED_EDGE('',*,*,#344,.F.);
#536 = ORIENTED_EDGE('',*,*,#505,.T.);
#537 = ORIENTED_EDGE('',*,*,#21,.F.);
#538 = PLANE('',#539);
#539 = AXIS2_PLACEMENT_3D('',#540,#541,#542);
#540 = CARTESIAN_POINT('',(0.,-10.,-3.26875));
#541 = DIRECTION('',(-0.,-1.,-0.));
#542 = DIRECTION('',(0.,0.,-1.));
#543 = ADVANCED_FACE('',(#544),#558,.T.);
#544 = FACE_BOUND('',#545,.T.);
#545 = EDGE_LOOP('',(#546,#547,#548,#549,#550,#551,#552,#553,#554,#555,
    #556,#557));
#546 = ORIENTED_EDGE('',*,*,#512,.F.);
#547 = ORIENTED_EDGE('',*,*,#362,.F.);
#548 = ORIENTED_EDGE('',*,*,#391,.F.);
#549 = ORIENTED_EDGE('',*,*,#329,.F.);
#550 = ORIENTED_EDGE('',*,*,#298,.F.);
#551 = ORIENTED_EDGE('',*,*,#227,.T.);
#552 = ORIENTED_EDGE('',*,*,#205,.T.);
#553 = ORIENTED_EDGE('',*,*,#174,.T.);
#554 = ORIENTED_EDGE('',*,*,#143,.T.);
#555 = ORIENTED_EDGE('',*,*,#112,.T.);
#556 = ORIENTED_EDGE('',*,*,#72,.T.);
#557 = ORIENTED_EDGE('',*,*,#39,.F.);
#558 = PLANE('',#559);
#559 = AXIS2_PLACEMENT_3D('',#560,#561,#562);
#560 = CARTESIAN_POINT('',(-4.4E-16,10.,-3.26875));
#561 = DIRECTION('',(0.,1.,0.));
#562 = DIRECTION('',(0.,-0.,1.));
#563 = ( GEOMETRIC_REPRESENTATION_CONTEXT(3) 
GLOBAL_UNCERTAINTY_ASSIGNED_CONTEXT((#567)) GLOBAL_UNIT_ASSIGNED_CONTEXT
((#564,#565,#566)) REPRESENTATION_CONTEXT('Context #1',
  '3D Context with UNIT and UNCERTAINTY') );
#564 = ( LENGTH_UNIT() NAMED_UNIT(*) SI_UNIT(.MILLI.,.METRE.) );
#565 = ( NAMED_UNIT(*) PLANE_ANGLE_UNIT() SI_UNIT($,.RADIAN.) );
#566 = ( NAMED_UNIT(*) SI_UNIT($,.STERADIAN.) SOLID_ANGLE_UNIT() );
#567 = UNCERTAINTY_MEASURE_WITH_UNIT(LENGTH_MEASURE(2.E-07),#564,
  'distance_accuracy_value','confusion accuracy');
#568 = PRODUCT_RELATED_PRODUCT_CATEGORY('part',$,(#7));
#569 = MECHANICAL_DESIGN_GEOMETRIC_PRESENTATION_REPRESENTATION('',(#570)
  ,#563);
#570 = STYLED_ITEM('color',(#571),#15);
#571 = PRESENTATION_STYLE_ASSIGNMENT((#572,#578));
#572 = SURFACE_STYLE_USAGE(.BOTH.,#573);
#573 = SURFACE_SIDE_STYLE('',(#574));
#574 = SURFACE_STYLE_FILL_AREA(#575);
#575 = FILL_AREA_STYLE('',(#576));
#576 = FILL_AREA_STYLE_COLOUR('',#577);
#577 = COLOUR_RGB('',0.,0.333333345507,1.);
#578 = CURVE_STYLE('',#579,POSITIVE_LENGTH_MEASURE(0.1),#580);
#579 = DRAUGHTING_PRE_DEFINED_CURVE_FONT('continuous');
#580 = COLOUR_RGB('',9.803921802644E-02,9.803921802644E-02,
  9.803921802644E-02);
ENDSEC;
END-ISO-10303-21;
