ISO-10303-21;
HEADER;
FILE_DESCRIPTION(('FreeCAD Model'),'2;1');
FILE_NAME('Open CASCADE Shape Model','2025-11-04T09:14:41',(''),(''),
  'Open CASCADE STEP processor 7.9','FreeCAD','Unknown');
FILE_SCHEMA(('AUTOMOTIVE_DESIGN { 1 0 10303 214 1 1 1 1 }'));
ENDSEC;
DATA;
#1 = APPLICATION_PROTOCOL_DEFINITION('international standard',
  'automotive_design',2000,#2);
#2 = APPLICATION_CONTEXT(
  'core data for automotive mechanical design processes');
#3 = SHAPE_DEFINITION_REPRESENTATION(#4,#10);
#4 = PRODUCT_DEFINITION_SHAPE('','',#5);
#5 = PRODUCT_DEFINITION('design','',#6,#9);
#6 = PRODUCT_DEFINITION_FORMATION('','',#7);
#7 = PRODUCT('Top Motor Mount','Top Motor Mount','',(#8));
#8 = PRODUCT_CONTEXT('',#2,'mechanical');
#9 = PRODUCT_DEFINITION_CONTEXT('part definition',#2,'design');
#10 = ADVANCED_BREP_SHAPE_REPRESENTATION('',(#11,#15),#1609);
#11 = AXIS2_PLACEMENT_3D('',#12,#13,#14);
#12 = CARTESIAN_POINT('',(0.,0.,0.));
#13 = DIRECTION('',(0.,0.,1.));
#14 = DIRECTION('',(1.,0.,-0.));
#15 = MANIFOLD_SOLID_BREP('',#16);
#16 = CLOSED_SHELL('',(#17,#57,#90,#123,#156,#187,#220,#267,#298,#329,
    #379,#412,#445,#478,#502,#692,#717,#742,#767,#799,#832,#852,#876,
    #913,#930,#947,#959,#991,#1016,#1041,#1065,#1090,#1115,#1140,#1165,
    #1190,#1215,#1232,#1284,#1317,#1337,#1353,#1386,#1406,#1422,#1455,
    #1475,#1491,#1551,#1576,#1593));
#17 = ADVANCED_FACE('',(#18),#52,.T.);
#18 = FACE_BOUND('',#19,.T.);
#19 = EDGE_LOOP('',(#20,#30,#38,#46));
#20 = ORIENTED_EDGE('',*,*,#21,.T.);
#21 = EDGE_CURVE('',#22,#24,#26,.T.);
#22 = VERTEX_POINT('',#23);
#23 = CARTESIAN_POINT('',(4.,65.15,-5.3));
#24 = VERTEX_POINT('',#25);
#25 = CARTESIAN_POINT('',(-2.,65.15,-5.3));
#26 = LINE('',#27,#28);
#27 = CARTESIAN_POINT('',(4.,65.15,-5.3));
#28 = VECTOR('',#29,1.);
#29 = DIRECTION('',(-1.,0.,3.3E-16));
#30 = ORIENTED_EDGE('',*,*,#31,.T.);
#31 = EDGE_CURVE('',#24,#32,#34,.T.);
#32 = VERTEX_POINT('',#33);
#33 = CARTESIAN_POINT('',(-2.,65.15,5.3));
#34 = LINE('',#35,#36);
#35 = CARTESIAN_POINT('',(-2.,65.15,-5.3));
#36 = VECTOR('',#37,1.);
#37 = DIRECTION('',(2.2E-16,0.,1.));
#38 = ORIENTED_EDGE('',*,*,#39,.F.);
#39 = EDGE_CURVE('',#40,#32,#42,.T.);
#40 = VERTEX_POINT('',#41);
#41 = CARTESIAN_POINT('',(4.,65.15,5.3));
#42 = LINE('',#43,#44);
#43 = CARTESIAN_POINT('',(4.,65.15,5.3));
#44 = VECTOR('',#45,1.);
#45 = DIRECTION('',(-1.,0.,3.3E-16));
#46 = ORIENTED_EDGE('',*,*,#47,.F.);
#47 = EDGE_CURVE('',#22,#40,#48,.T.);
#48 = LINE('',#49,#50);
#49 = CARTESIAN_POINT('',(4.,65.15,-5.3));
#50 = VECTOR('',#51,1.);
#51 = DIRECTION('',(2.2E-16,0.,1.));
#52 = PLANE('',#53);
#53 = AXIS2_PLACEMENT_3D('',#54,#55,#56);
#54 = CARTESIAN_POINT('',(4.,65.15,-5.3));
#55 = DIRECTION('',(0.,1.,0.));
#56 = DIRECTION('',(3.3E-16,0.,1.));
#57 = ADVANCED_FACE('',(#58),#85,.T.);
#58 = FACE_BOUND('',#59,.F.);
#59 = EDGE_LOOP('',(#60,#70,#77,#78));
#60 = ORIENTED_EDGE('',*,*,#61,.T.);
#61 = EDGE_CURVE('',#62,#64,#66,.T.);
#62 = VERTEX_POINT('',#63);
#63 = CARTESIAN_POINT('',(4.,60.25,10.2));
#64 = VERTEX_POINT('',#65);
#65 = CARTESIAN_POINT('',(-2.,60.25,10.2));
#66 = LINE('',#67,#68);
#67 = CARTESIAN_POINT('',(4.,60.25,10.2));
#68 = VECTOR('',#69,1.);
#69 = DIRECTION('',(-1.,0.,3.3E-16));
#70 = ORIENTED_EDGE('',*,*,#71,.T.);
#71 = EDGE_CURVE('',#64,#32,#72,.T.);
#72 = CIRCLE('',#73,4.9);
#73 = AXIS2_PLACEMENT_3D('',#74,#75,#76);
#74 = CARTESIAN_POINT('',(-2.,60.25,5.3));
#75 = DIRECTION('',(-1.,0.,2.2E-16));
#76 = DIRECTION('',(2.2E-16,0.,1.));
#77 = ORIENTED_EDGE('',*,*,#39,.F.);
#78 = ORIENTED_EDGE('',*,*,#79,.F.);
#79 = EDGE_CURVE('',#62,#40,#80,.T.);
#80 = CIRCLE('',#81,4.9);
#81 = AXIS2_PLACEMENT_3D('',#82,#83,#84);
#82 = CARTESIAN_POINT('',(4.,60.25,5.3));
#83 = DIRECTION('',(-1.,0.,2.2E-16));
#84 = DIRECTION('',(2.2E-16,0.,1.));
#85 = CYLINDRICAL_SURFACE('',#86,4.9);
#86 = AXIS2_PLACEMENT_3D('',#87,#88,#89);
#87 = CARTESIAN_POINT('',(4.,60.25,5.3));
#88 = DIRECTION('',(1.,0.,-3.3E-16));
#89 = DIRECTION('',(3.3E-16,0.,1.));
#90 = ADVANCED_FACE('',(#91),#118,.F.);
#91 = FACE_BOUND('',#92,.T.);
#92 = EDGE_LOOP('',(#93,#94,#103,#111));
#93 = ORIENTED_EDGE('',*,*,#61,.T.);
#94 = ORIENTED_EDGE('',*,*,#95,.T.);
#95 = EDGE_CURVE('',#64,#96,#98,.T.);
#96 = VERTEX_POINT('',#97);
#97 = CARTESIAN_POINT('',(-2.,51.45,19.));
#98 = CIRCLE('',#99,8.8);
#99 = AXIS2_PLACEMENT_3D('',#100,#101,#102);
#100 = CARTESIAN_POINT('',(-2.,60.25,19.));
#101 = DIRECTION('',(-1.,0.,2.2E-16));
#102 = DIRECTION('',(2.2E-16,0.,1.));
#103 = ORIENTED_EDGE('',*,*,#104,.F.);
#104 = EDGE_CURVE('',#105,#96,#107,.T.);
#105 = VERTEX_POINT('',#106);
#106 = CARTESIAN_POINT('',(4.,51.45,19.));
#107 = LINE('',#108,#109);
#108 = CARTESIAN_POINT('',(4.,51.45,19.));
#109 = VECTOR('',#110,1.);
#110 = DIRECTION('',(-1.,0.,3.3E-16));
#111 = ORIENTED_EDGE('',*,*,#112,.F.);
#112 = EDGE_CURVE('',#62,#105,#113,.T.);
#113 = CIRCLE('',#114,8.8);
#114 = AXIS2_PLACEMENT_3D('',#115,#116,#117);
#115 = CARTESIAN_POINT('',(4.,60.25,19.));
#116 = DIRECTION('',(-1.,0.,2.2E-16));
#117 = DIRECTION('',(2.2E-16,0.,1.));
#118 = CYLINDRICAL_SURFACE('',#119,8.8);
#119 = AXIS2_PLACEMENT_3D('',#120,#121,#122);
#120 = CARTESIAN_POINT('',(4.,60.25,19.));
#121 = DIRECTION('',(1.,0.,-3.3E-16));
#122 = DIRECTION('',(3.3E-16,0.,1.));
#123 = ADVANCED_FACE('',(#124),#151,.T.);
#124 = FACE_BOUND('',#125,.F.);
#125 = EDGE_LOOP('',(#126,#136,#143,#144));
#126 = ORIENTED_EDGE('',*,*,#127,.T.);
#127 = EDGE_CURVE('',#128,#130,#132,.T.);
#128 = VERTEX_POINT('',#129);
#129 = CARTESIAN_POINT('',(4.,43.,27.45));
#130 = VERTEX_POINT('',#131);
#131 = CARTESIAN_POINT('',(-2.,43.,27.45));
#132 = LINE('',#133,#134);
#133 = CARTESIAN_POINT('',(4.,43.,27.45));
#134 = VECTOR('',#135,1.);
#135 = DIRECTION('',(-1.,0.,3.3E-16));
#136 = ORIENTED_EDGE('',*,*,#137,.T.);
#137 = EDGE_CURVE('',#130,#96,#138,.T.);
#138 = CIRCLE('',#139,8.45);
#139 = AXIS2_PLACEMENT_3D('',#140,#141,#142);
#140 = CARTESIAN_POINT('',(-2.,43.,19.));
#141 = DIRECTION('',(-1.,0.,2.2E-16));
#142 = DIRECTION('',(2.2E-16,0.,1.));
#143 = ORIENTED_EDGE('',*,*,#104,.F.);
#144 = ORIENTED_EDGE('',*,*,#145,.F.);
#145 = EDGE_CURVE('',#128,#105,#146,.T.);
#146 = CIRCLE('',#147,8.45);
#147 = AXIS2_PLACEMENT_3D('',#148,#149,#150);
#148 = CARTESIAN_POINT('',(4.,43.,19.));
#149 = DIRECTION('',(-1.,0.,2.2E-16));
#150 = DIRECTION('',(2.2E-16,0.,1.));
#151 = CYLINDRICAL_SURFACE('',#152,8.45);
#152 = AXIS2_PLACEMENT_3D('',#153,#154,#155);
#153 = CARTESIAN_POINT('',(4.,43.,19.));
#154 = DIRECTION('',(1.,0.,-3.3E-16));
#155 = DIRECTION('',(3.3E-16,0.,1.));
#156 = ADVANCED_FACE('',(#157),#182,.T.);
#157 = FACE_BOUND('',#158,.T.);
#158 = EDGE_LOOP('',(#159,#160,#168,#176));
#159 = ORIENTED_EDGE('',*,*,#127,.T.);
#160 = ORIENTED_EDGE('',*,*,#161,.T.);
#161 = EDGE_CURVE('',#130,#162,#164,.T.);
#162 = VERTEX_POINT('',#163);
#163 = CARTESIAN_POINT('',(-2.,28.5,27.45));
#164 = LINE('',#165,#166);
#165 = CARTESIAN_POINT('',(-2.,43.,27.45));
#166 = VECTOR('',#167,1.);
#167 = DIRECTION('',(0.,-1.,0.));
#168 = ORIENTED_EDGE('',*,*,#169,.F.);
#169 = EDGE_CURVE('',#170,#162,#172,.T.);
#170 = VERTEX_POINT('',#171);
#171 = CARTESIAN_POINT('',(4.,28.5,27.45));
#172 = LINE('',#173,#174);
#173 = CARTESIAN_POINT('',(4.,28.5,27.45));
#174 = VECTOR('',#175,1.);
#175 = DIRECTION('',(-1.,0.,3.3E-16));
#176 = ORIENTED_EDGE('',*,*,#177,.F.);
#177 = EDGE_CURVE('',#128,#170,#178,.T.);
#178 = LINE('',#179,#180);
#179 = CARTESIAN_POINT('',(4.,43.,27.45));
#180 = VECTOR('',#181,1.);
#181 = DIRECTION('',(0.,-1.,0.));
#182 = PLANE('',#183);
#183 = AXIS2_PLACEMENT_3D('',#184,#185,#186);
#184 = CARTESIAN_POINT('',(4.,43.,27.45));
#185 = DIRECTION('',(3.3E-16,0.,1.));
#186 = DIRECTION('',(0.,-1.,0.));
#187 = ADVANCED_FACE('',(#188),#215,.T.);
#188 = FACE_BOUND('',#189,.F.);
#189 = EDGE_LOOP('',(#190,#200,#207,#208));
#190 = ORIENTED_EDGE('',*,*,#191,.T.);
#191 = EDGE_CURVE('',#192,#194,#196,.T.);
#192 = VERTEX_POINT('',#193);
#193 = CARTESIAN_POINT('',(4.,20.05,19.));
#194 = VERTEX_POINT('',#195);
#195 = CARTESIAN_POINT('',(-2.,20.05,19.));
#196 = LINE('',#197,#198);
#197 = CARTESIAN_POINT('',(4.,20.05,19.));
#198 = VECTOR('',#199,1.);
#199 = DIRECTION('',(-1.,0.,3.3E-16));
#200 = ORIENTED_EDGE('',*,*,#201,.T.);
#201 = EDGE_CURVE('',#194,#162,#202,.T.);
#202 = CIRCLE('',#203,8.45);
#203 = AXIS2_PLACEMENT_3D('',#204,#205,#206);
#204 = CARTESIAN_POINT('',(-2.,28.5,19.));
#205 = DIRECTION('',(-1.,0.,2.2E-16));
#206 = DIRECTION('',(2.2E-16,0.,1.));
#207 = ORIENTED_EDGE('',*,*,#169,.F.);
#208 = ORIENTED_EDGE('',*,*,#209,.F.);
#209 = EDGE_CURVE('',#192,#170,#210,.T.);
#210 = CIRCLE('',#211,8.45);
#211 = AXIS2_PLACEMENT_3D('',#212,#213,#214);
#212 = CARTESIAN_POINT('',(4.,28.5,19.));
#213 = DIRECTION('',(-1.,0.,2.2E-16));
#214 = DIRECTION('',(2.2E-16,0.,1.));
#215 = CYLINDRICAL_SURFACE('',#216,8.45);
#216 = AXIS2_PLACEMENT_3D('',#217,#218,#219);
#217 = CARTESIAN_POINT('',(4.,28.5,19.));
#218 = DIRECTION('',(1.,0.,-3.3E-16));
#219 = DIRECTION('',(3.3E-16,0.,1.));
#220 = ADVANCED_FACE('',(#221),#262,.F.);
#221 = FACE_BOUND('',#222,.F.);
#222 = EDGE_LOOP('',(#223,#231,#239,#247,#255,#261));
#223 = ORIENTED_EDGE('',*,*,#224,.F.);
#224 = EDGE_CURVE('',#225,#192,#227,.T.);
#225 = VERTEX_POINT('',#226);
#226 = CARTESIAN_POINT('',(4.,20.05,-2.5));
#227 = LINE('',#228,#229);
#228 = CARTESIAN_POINT('',(4.,20.05,-2.5));
#229 = VECTOR('',#230,1.);
#230 = DIRECTION('',(2.2E-16,0.,1.));
#231 = ORIENTED_EDGE('',*,*,#232,.T.);
#232 = EDGE_CURVE('',#225,#233,#235,.T.);
#233 = VERTEX_POINT('',#234);
#234 = CARTESIAN_POINT('',(1.5,20.05,-2.5));
#235 = LINE('',#236,#237);
#236 = CARTESIAN_POINT('',(4.,20.05,-2.5));
#237 = VECTOR('',#238,1.);
#238 = DIRECTION('',(-1.,0.,3.3E-16));
#239 = ORIENTED_EDGE('',*,*,#240,.T.);
#240 = EDGE_CURVE('',#233,#241,#243,.T.);
#241 = VERTEX_POINT('',#242);
#242 = CARTESIAN_POINT('',(1.5,20.05,3.));
#243 = LINE('',#244,#245);
#244 = CARTESIAN_POINT('',(1.5,20.05,-3.));
#245 = VECTOR('',#246,1.);
#246 = DIRECTION('',(2.2E-16,0.,1.));
#247 = ORIENTED_EDGE('',*,*,#248,.T.);
#248 = EDGE_CURVE('',#241,#249,#251,.T.);
#249 = VERTEX_POINT('',#250);
#250 = CARTESIAN_POINT('',(-2.,20.05,3.));
#251 = LINE('',#252,#253);
#252 = CARTESIAN_POINT('',(1.5,20.05,3.));
#253 = VECTOR('',#254,1.);
#254 = DIRECTION('',(-1.,0.,2.2E-16));
#255 = ORIENTED_EDGE('',*,*,#256,.T.);
#256 = EDGE_CURVE('',#249,#194,#257,.T.);
#257 = LINE('',#258,#259);
#258 = CARTESIAN_POINT('',(-2.,20.05,-2.5));
#259 = VECTOR('',#260,1.);
#260 = DIRECTION('',(2.2E-16,0.,1.));
#261 = ORIENTED_EDGE('',*,*,#191,.F.);
#262 = PLANE('',#263);
#263 = AXIS2_PLACEMENT_3D('',#264,#265,#266);
#264 = CARTESIAN_POINT('',(4.,20.05,-2.5));
#265 = DIRECTION('',(0.,1.,0.));
#266 = DIRECTION('',(3.3E-16,0.,1.));
#267 = ADVANCED_FACE('',(#268),#293,.F.);
#268 = FACE_BOUND('',#269,.F.);
#269 = EDGE_LOOP('',(#270,#278,#286,#292));
#270 = ORIENTED_EDGE('',*,*,#271,.T.);
#271 = EDGE_CURVE('',#241,#272,#274,.T.);
#272 = VERTEX_POINT('',#273);
#273 = CARTESIAN_POINT('',(1.5,10.05,3.));
#274 = LINE('',#275,#276);
#275 = CARTESIAN_POINT('',(1.5,20.05,3.));
#276 = VECTOR('',#277,1.);
#277 = DIRECTION('',(0.,-1.,0.));
#278 = ORIENTED_EDGE('',*,*,#279,.T.);
#279 = EDGE_CURVE('',#272,#280,#282,.T.);
#280 = VERTEX_POINT('',#281);
#281 = CARTESIAN_POINT('',(-2.,10.05,3.));
#282 = LINE('',#283,#284);
#283 = CARTESIAN_POINT('',(1.5,10.05,3.));
#284 = VECTOR('',#285,1.);
#285 = DIRECTION('',(-1.,0.,2.2E-16));
#286 = ORIENTED_EDGE('',*,*,#287,.F.);
#287 = EDGE_CURVE('',#249,#280,#288,.T.);
#288 = LINE('',#289,#290);
#289 = CARTESIAN_POINT('',(-2.,20.05,3.));
#290 = VECTOR('',#291,1.);
#291 = DIRECTION('',(0.,-1.,0.));
#292 = ORIENTED_EDGE('',*,*,#248,.F.);
#293 = PLANE('',#294);
#294 = AXIS2_PLACEMENT_3D('',#295,#296,#297);
#295 = CARTESIAN_POINT('',(1.5,20.05,3.));
#296 = DIRECTION('',(-1.1E-16,-0.,-1.));
#297 = DIRECTION('',(-1.,0.,1.1E-16));
#298 = ADVANCED_FACE('',(#299),#324,.F.);
#299 = FACE_BOUND('',#300,.T.);
#300 = EDGE_LOOP('',(#301,#309,#310,#318));
#301 = ORIENTED_EDGE('',*,*,#302,.T.);
#302 = EDGE_CURVE('',#303,#272,#305,.T.);
#303 = VERTEX_POINT('',#304);
#304 = CARTESIAN_POINT('',(1.5,10.05,-3.));
#305 = LINE('',#306,#307);
#306 = CARTESIAN_POINT('',(1.5,10.05,-3.));
#307 = VECTOR('',#308,1.);
#308 = DIRECTION('',(2.2E-16,0.,1.));
#309 = ORIENTED_EDGE('',*,*,#279,.T.);
#310 = ORIENTED_EDGE('',*,*,#311,.T.);
#311 = EDGE_CURVE('',#280,#312,#314,.T.);
#312 = VERTEX_POINT('',#313);
#313 = CARTESIAN_POINT('',(-2.,10.05,-3.));
#314 = LINE('',#315,#316);
#315 = CARTESIAN_POINT('',(-2.,10.05,3.));
#316 = VECTOR('',#317,1.);
#317 = DIRECTION('',(-2.2E-16,-0.,-1.));
#318 = ORIENTED_EDGE('',*,*,#319,.T.);
#319 = EDGE_CURVE('',#312,#303,#320,.T.);
#320 = LINE('',#321,#322);
#321 = CARTESIAN_POINT('',(-2.,10.05,-3.));
#322 = VECTOR('',#323,1.);
#323 = DIRECTION('',(1.,0.,-2.2E-16));
#324 = PLANE('',#325);
#325 = AXIS2_PLACEMENT_3D('',#326,#327,#328);
#326 = CARTESIAN_POINT('',(-0.25,10.05,3.552713678801E-14));
#327 = DIRECTION('',(0.,1.,0.));
#328 = DIRECTION('',(2.2E-16,0.,1.));
#329 = ADVANCED_FACE('',(#330),#374,.T.);
#330 = FACE_BOUND('',#331,.F.);
#331 = EDGE_LOOP('',(#332,#341,#349,#358,#366,#373));
#332 = ORIENTED_EDGE('',*,*,#333,.F.);
#333 = EDGE_CURVE('',#334,#225,#336,.T.);
#334 = VERTEX_POINT('',#335);
#335 = CARTESIAN_POINT('',(4.,28.5,-10.95));
#336 = CIRCLE('',#337,8.45);
#337 = AXIS2_PLACEMENT_3D('',#338,#339,#340);
#338 = CARTESIAN_POINT('',(4.,28.5,-2.5));
#339 = DIRECTION('',(-1.,0.,2.2E-16));
#340 = DIRECTION('',(2.2E-16,0.,1.));
#341 = ORIENTED_EDGE('',*,*,#342,.T.);
#342 = EDGE_CURVE('',#334,#343,#345,.T.);
#343 = VERTEX_POINT('',#344);
#344 = CARTESIAN_POINT('',(-2.,28.5,-10.95));
#345 = LINE('',#346,#347);
#346 = CARTESIAN_POINT('',(4.,28.5,-10.95));
#347 = VECTOR('',#348,1.);
#348 = DIRECTION('',(-1.,0.,3.3E-16));
#349 = ORIENTED_EDGE('',*,*,#350,.T.);
#350 = EDGE_CURVE('',#343,#351,#353,.T.);
#351 = VERTEX_POINT('',#352);
#352 = CARTESIAN_POINT('',(-2.,20.064805870639,-3.));
#353 = CIRCLE('',#354,8.45);
#354 = AXIS2_PLACEMENT_3D('',#355,#356,#357);
#355 = CARTESIAN_POINT('',(-2.,28.5,-2.5));
#356 = DIRECTION('',(-1.,0.,2.2E-16));
#357 = DIRECTION('',(2.2E-16,0.,1.));
#358 = ORIENTED_EDGE('',*,*,#359,.T.);
#359 = EDGE_CURVE('',#351,#360,#362,.T.);
#360 = VERTEX_POINT('',#361);
#361 = CARTESIAN_POINT('',(1.5,20.064805870639,-3.));
#362 = LINE('',#363,#364);
#363 = CARTESIAN_POINT('',(4.,20.064805870639,-3.));
#364 = VECTOR('',#365,1.);
#365 = DIRECTION('',(1.,0.,-4.4E-16));
#366 = ORIENTED_EDGE('',*,*,#367,.F.);
#367 = EDGE_CURVE('',#233,#360,#368,.T.);
#368 = CIRCLE('',#369,8.45);
#369 = AXIS2_PLACEMENT_3D('',#370,#371,#372);
#370 = CARTESIAN_POINT('',(1.5,28.5,-2.5));
#371 = DIRECTION('',(1.,0.,-4.4E-16));
#372 = DIRECTION('',(4.4E-16,0.,1.));
#373 = ORIENTED_EDGE('',*,*,#232,.F.);
#374 = CYLINDRICAL_SURFACE('',#375,8.45);
#375 = AXIS2_PLACEMENT_3D('',#376,#377,#378);
#376 = CARTESIAN_POINT('',(4.,28.5,-2.5));
#377 = DIRECTION('',(1.,0.,-3.3E-16));
#378 = DIRECTION('',(3.3E-16,0.,1.));
#379 = ADVANCED_FACE('',(#380),#407,.F.);
#380 = FACE_BOUND('',#381,.T.);
#381 = EDGE_LOOP('',(#382,#383,#392,#400));
#382 = ORIENTED_EDGE('',*,*,#342,.T.);
#383 = ORIENTED_EDGE('',*,*,#384,.T.);
#384 = EDGE_CURVE('',#343,#385,#387,.T.);
#385 = VERTEX_POINT('',#386);
#386 = CARTESIAN_POINT('',(-2.,34.55,-17.));
#387 = CIRCLE('',#388,6.05);
#388 = AXIS2_PLACEMENT_3D('',#389,#390,#391);
#389 = CARTESIAN_POINT('',(-2.,28.5,-17.));
#390 = DIRECTION('',(-1.,0.,2.2E-16));
#391 = DIRECTION('',(2.2E-16,0.,1.));
#392 = ORIENTED_EDGE('',*,*,#393,.F.);
#393 = EDGE_CURVE('',#394,#385,#396,.T.);
#394 = VERTEX_POINT('',#395);
#395 = CARTESIAN_POINT('',(4.,34.55,-17.));
#396 = LINE('',#397,#398);
#397 = CARTESIAN_POINT('',(4.,34.55,-17.));
#398 = VECTOR('',#399,1.);
#399 = DIRECTION('',(-1.,0.,3.3E-16));
#400 = ORIENTED_EDGE('',*,*,#401,.F.);
#401 = EDGE_CURVE('',#334,#394,#402,.T.);
#402 = CIRCLE('',#403,6.05);
#403 = AXIS2_PLACEMENT_3D('',#404,#405,#406);
#404 = CARTESIAN_POINT('',(4.,28.5,-17.));
#405 = DIRECTION('',(-1.,0.,2.2E-16));
#406 = DIRECTION('',(2.2E-16,0.,1.));
#407 = CYLINDRICAL_SURFACE('',#408,6.05);
#408 = AXIS2_PLACEMENT_3D('',#409,#410,#411);
#409 = CARTESIAN_POINT('',(4.,28.5,-17.));
#410 = DIRECTION('',(1.,0.,-3.3E-16));
#411 = DIRECTION('',(3.3E-16,0.,1.));
#412 = ADVANCED_FACE('',(#413),#440,.T.);
#413 = FACE_BOUND('',#414,.F.);
#414 = EDGE_LOOP('',(#415,#425,#432,#433));
#415 = ORIENTED_EDGE('',*,*,#416,.T.);
#416 = EDGE_CURVE('',#417,#419,#421,.T.);
#417 = VERTEX_POINT('',#418);
#418 = CARTESIAN_POINT('',(4.,53.45,-17.));
#419 = VERTEX_POINT('',#420);
#420 = CARTESIAN_POINT('',(-2.,53.45,-17.));
#421 = LINE('',#422,#423);
#422 = CARTESIAN_POINT('',(4.,53.45,-17.));
#423 = VECTOR('',#424,1.);
#424 = DIRECTION('',(-1.,0.,3.3E-16));
#425 = ORIENTED_EDGE('',*,*,#426,.T.);
#426 = EDGE_CURVE('',#419,#385,#427,.T.);
#427 = CIRCLE('',#428,9.45);
#428 = AXIS2_PLACEMENT_3D('',#429,#430,#431);
#429 = CARTESIAN_POINT('',(-2.,44.,-17.));
#430 = DIRECTION('',(-1.,0.,2.2E-16));
#431 = DIRECTION('',(2.2E-16,0.,1.));
#432 = ORIENTED_EDGE('',*,*,#393,.F.);
#433 = ORIENTED_EDGE('',*,*,#434,.F.);
#434 = EDGE_CURVE('',#417,#394,#435,.T.);
#435 = CIRCLE('',#436,9.45);
#436 = AXIS2_PLACEMENT_3D('',#437,#438,#439);
#437 = CARTESIAN_POINT('',(4.,44.,-17.));
#438 = DIRECTION('',(-1.,0.,2.2E-16));
#439 = DIRECTION('',(2.2E-16,0.,1.));
#440 = CYLINDRICAL_SURFACE('',#441,9.45);
#441 = AXIS2_PLACEMENT_3D('',#442,#443,#444);
#442 = CARTESIAN_POINT('',(4.,44.,-17.));
#443 = DIRECTION('',(1.,0.,-3.3E-16));
#444 = DIRECTION('',(3.3E-16,0.,1.));
#445 = ADVANCED_FACE('',(#446),#473,.F.);
#446 = FACE_BOUND('',#447,.T.);
#447 = EDGE_LOOP('',(#448,#449,#458,#466));
#448 = ORIENTED_EDGE('',*,*,#416,.T.);
#449 = ORIENTED_EDGE('',*,*,#450,.T.);
#450 = EDGE_CURVE('',#419,#451,#453,.T.);
#451 = VERTEX_POINT('',#452);
#452 = CARTESIAN_POINT('',(-2.,60.25,-10.2));
#453 = CIRCLE('',#454,6.8);
#454 = AXIS2_PLACEMENT_3D('',#455,#456,#457);
#455 = CARTESIAN_POINT('',(-2.,60.25,-17.));
#456 = DIRECTION('',(-1.,0.,2.2E-16));
#457 = DIRECTION('',(2.2E-16,0.,1.));
#458 = ORIENTED_EDGE('',*,*,#459,.F.);
#459 = EDGE_CURVE('',#460,#451,#462,.T.);
#460 = VERTEX_POINT('',#461);
#461 = CARTESIAN_POINT('',(4.,60.25,-10.2));
#462 = LINE('',#463,#464);
#463 = CARTESIAN_POINT('',(4.,60.25,-10.2));
#464 = VECTOR('',#465,1.);
#465 = DIRECTION('',(-1.,0.,3.3E-16));
#466 = ORIENTED_EDGE('',*,*,#467,.F.);
#467 = EDGE_CURVE('',#417,#460,#468,.T.);
#468 = CIRCLE('',#469,6.8);
#469 = AXIS2_PLACEMENT_3D('',#470,#471,#472);
#470 = CARTESIAN_POINT('',(4.,60.25,-17.));
#471 = DIRECTION('',(-1.,0.,2.2E-16));
#472 = DIRECTION('',(2.2E-16,0.,1.));
#473 = CYLINDRICAL_SURFACE('',#474,6.8);
#474 = AXIS2_PLACEMENT_3D('',#475,#476,#477);
#475 = CARTESIAN_POINT('',(4.,60.25,-17.));
#476 = DIRECTION('',(1.,0.,-3.3E-16));
#477 = DIRECTION('',(3.3E-16,0.,1.));
#478 = ADVANCED_FACE('',(#479),#497,.T.);
#479 = FACE_BOUND('',#480,.F.);
#480 = EDGE_LOOP('',(#481,#482,#489,#490));
#481 = ORIENTED_EDGE('',*,*,#21,.T.);
#482 = ORIENTED_EDGE('',*,*,#483,.T.);
#483 = EDGE_CURVE('',#24,#451,#484,.T.);
#484 = CIRCLE('',#485,4.9);
#485 = AXIS2_PLACEMENT_3D('',#486,#487,#488);
#486 = CARTESIAN_POINT('',(-2.,60.25,-5.3));
#487 = DIRECTION('',(-1.,0.,2.2E-16));
#488 = DIRECTION('',(2.2E-16,0.,1.));
#489 = ORIENTED_EDGE('',*,*,#459,.F.);
#490 = ORIENTED_EDGE('',*,*,#491,.F.);
#491 = EDGE_CURVE('',#22,#460,#492,.T.);
#492 = CIRCLE('',#493,4.9);
#493 = AXIS2_PLACEMENT_3D('',#494,#495,#496);
#494 = CARTESIAN_POINT('',(4.,60.25,-5.3));
#495 = DIRECTION('',(-1.,0.,2.2E-16));
#496 = DIRECTION('',(2.2E-16,0.,1.));
#497 = CYLINDRICAL_SURFACE('',#498,4.9);
#498 = AXIS2_PLACEMENT_3D('',#499,#500,#501);
#499 = CARTESIAN_POINT('',(4.,60.25,-5.3));
#500 = DIRECTION('',(1.,0.,-3.3E-16));
#501 = DIRECTION('',(3.3E-16,0.,1.));
#502 = ADVANCED_FACE('',(#503,#517,#616,#627,#638,#676),#687,.T.);
#503 = FACE_BOUND('',#504,.T.);
#504 = EDGE_LOOP('',(#505,#506,#507,#508,#509,#510,#511,#512,#513,#514,
    #515,#516));
#505 = ORIENTED_EDGE('',*,*,#47,.T.);
#506 = ORIENTED_EDGE('',*,*,#79,.F.);
#507 = ORIENTED_EDGE('',*,*,#112,.T.);
#508 = ORIENTED_EDGE('',*,*,#145,.F.);
#509 = ORIENTED_EDGE('',*,*,#177,.T.);
#510 = ORIENTED_EDGE('',*,*,#209,.F.);
#511 = ORIENTED_EDGE('',*,*,#224,.F.);
#512 = ORIENTED_EDGE('',*,*,#333,.F.);
#513 = ORIENTED_EDGE('',*,*,#401,.T.);
#514 = ORIENTED_EDGE('',*,*,#434,.F.);
#515 = ORIENTED_EDGE('',*,*,#467,.T.);
#516 = ORIENTED_EDGE('',*,*,#491,.F.);
#517 = FACE_BOUND('',#518,.T.);
#518 = EDGE_LOOP('',(#519,#530,#538,#547,#556,#565,#574,#583,#592,#600,
    #609));
#519 = ORIENTED_EDGE('',*,*,#520,.F.);
#520 = EDGE_CURVE('',#521,#523,#525,.T.);
#521 = VERTEX_POINT('',#522);
#522 = CARTESIAN_POINT('',(4.,38.,-19.25));
#523 = VERTEX_POINT('',#524);
#524 = CARTESIAN_POINT('',(4.,50.,-19.25));
#525 = CIRCLE('',#526,6.);
#526 = AXIS2_PLACEMENT_3D('',#527,#528,#529);
#527 = CARTESIAN_POINT('',(4.,44.,-19.25));
#528 = DIRECTION('',(1.,0.,-2.2E-16));
#529 = DIRECTION('',(2.2E-16,0.,1.));
#530 = ORIENTED_EDGE('',*,*,#531,.T.);
#531 = EDGE_CURVE('',#521,#532,#534,.T.);
#532 = VERTEX_POINT('',#533);
#533 = CARTESIAN_POINT('',(4.,38.,-15.80348062927));
#534 = LINE('',#535,#536);
#535 = CARTESIAN_POINT('',(4.,38.,-19.25));
#536 = VECTOR('',#537,1.);
#537 = DIRECTION('',(2.2E-16,0.,1.));
#538 = ORIENTED_EDGE('',*,*,#539,.F.);
#539 = EDGE_CURVE('',#540,#532,#542,.T.);
#540 = VERTEX_POINT('',#541);
#541 = CARTESIAN_POINT('',(4.,42.046875,-12.34646924162));
#542 = CIRCLE('',#543,3.5);
#543 = AXIS2_PLACEMENT_3D('',#544,#545,#546);
#544 = CARTESIAN_POINT('',(4.,41.5,-15.80348062927));
#545 = DIRECTION('',(1.,0.,-2.2E-16));
#546 = DIRECTION('',(2.2E-16,0.,1.));
#547 = ORIENTED_EDGE('',*,*,#548,.T.);
#548 = EDGE_CURVE('',#540,#549,#551,.T.);
#549 = VERTEX_POINT('',#550);
#550 = CARTESIAN_POINT('',(4.,44.,12.5));
#551 = CIRCLE('',#552,12.5);
#552 = AXIS2_PLACEMENT_3D('',#553,#554,#555);
#553 = CARTESIAN_POINT('',(4.,44.,4.263256414561E-14));
#554 = DIRECTION('',(1.,0.,-2.2E-16));
#555 = DIRECTION('',(2.2E-16,0.,1.));
#556 = ORIENTED_EDGE('',*,*,#557,.F.);
#557 = EDGE_CURVE('',#558,#549,#560,.T.);
#558 = VERTEX_POINT('',#559);
#559 = CARTESIAN_POINT('',(4.,44.,23.22450937697));
#560 = CIRCLE('',#561,5.362254688485);
#561 = AXIS2_PLACEMENT_3D('',#562,#563,#564);
#562 = CARTESIAN_POINT('',(4.,44.,17.862254688485));
#563 = DIRECTION('',(1.,0.,-2.2E-16));
#564 = DIRECTION('',(2.2E-16,0.,1.));
#565 = ORIENTED_EDGE('',*,*,#566,.F.);
#566 = EDGE_CURVE('',#567,#558,#569,.T.);
#567 = VERTEX_POINT('',#568);
#568 = CARTESIAN_POINT('',(4.,49.940162760527,17.889709835749));
#569 = CIRCLE('',#570,5.97450937697);
#570 = AXIS2_PLACEMENT_3D('',#571,#572,#573);
#571 = CARTESIAN_POINT('',(4.,44.,17.25));
#572 = DIRECTION('',(1.,0.,-2.2E-16));
#573 = DIRECTION('',(2.2E-16,0.,1.));
#574 = ORIENTED_EDGE('',*,*,#575,.T.);
#575 = EDGE_CURVE('',#567,#576,#578,.T.);
#576 = VERTEX_POINT('',#577);
#577 = CARTESIAN_POINT('',(4.,58.575452407502,8.766653601401));
#578 = CIRCLE('',#579,10.369449751711);
#579 = AXIS2_PLACEMENT_3D('',#580,#581,#582);
#580 = CARTESIAN_POINT('',(4.,60.25,19.));
#581 = DIRECTION('',(1.,0.,-2.2E-16));
#582 = DIRECTION('',(2.2E-16,0.,1.));
#583 = ORIENTED_EDGE('',*,*,#584,.F.);
#584 = EDGE_CURVE('',#585,#576,#587,.T.);
#585 = VERTEX_POINT('',#586);
#586 = CARTESIAN_POINT('',(4.,63.9,2.5));
#587 = CIRCLE('',#588,6.35);
#588 = AXIS2_PLACEMENT_3D('',#589,#590,#591);
#589 = CARTESIAN_POINT('',(4.,57.55,2.5));
#590 = DIRECTION('',(1.,0.,-2.2E-16));
#591 = DIRECTION('',(2.2E-16,0.,1.));
#592 = ORIENTED_EDGE('',*,*,#593,.F.);
#593 = EDGE_CURVE('',#594,#585,#596,.T.);
#594 = VERTEX_POINT('',#595);
#595 = CARTESIAN_POINT('',(4.,63.9,-2.5));
#596 = LINE('',#597,#598);
#597 = CARTESIAN_POINT('',(4.,63.9,-2.5));
#598 = VECTOR('',#599,1.);
#599 = DIRECTION('',(2.2E-16,0.,1.));
#600 = ORIENTED_EDGE('',*,*,#601,.F.);
#601 = EDGE_CURVE('',#602,#594,#604,.T.);
#602 = VERTEX_POINT('',#603);
#603 = CARTESIAN_POINT('',(4.,58.720790569313,-8.741133666475));
#604 = CIRCLE('',#605,6.35);
#605 = AXIS2_PLACEMENT_3D('',#606,#607,#608);
#606 = CARTESIAN_POINT('',(4.,57.55,-2.5));
#607 = DIRECTION('',(1.,0.,-2.2E-16));
#608 = DIRECTION('',(2.2E-16,0.,1.));
#609 = ORIENTED_EDGE('',*,*,#610,.T.);
#610 = EDGE_CURVE('',#602,#523,#611,.T.);
#611 = CIRCLE('',#612,10.692176258993);
#612 = AXIS2_PLACEMENT_3D('',#613,#614,#615);
#613 = CARTESIAN_POINT('',(4.,60.692176258993,-19.25));
#614 = DIRECTION('',(1.,0.,-2.2E-16));
#615 = DIRECTION('',(2.2E-16,0.,1.));
#616 = FACE_BOUND('',#617,.T.);
#617 = EDGE_LOOP('',(#618));
#618 = ORIENTED_EDGE('',*,*,#619,.T.);
#619 = EDGE_CURVE('',#620,#620,#622,.T.);
#620 = VERTEX_POINT('',#621);
#621 = CARTESIAN_POINT('',(4.,44.,11.625));
#622 = CIRCLE('',#623,11.625);
#623 = AXIS2_PLACEMENT_3D('',#624,#625,#626);
#624 = CARTESIAN_POINT('',(4.,44.,5.684341886081E-14));
#625 = DIRECTION('',(-1.,0.,2.2E-16));
#626 = DIRECTION('',(2.2E-16,0.,1.));
#627 = FACE_BOUND('',#628,.T.);
#628 = EDGE_LOOP('',(#629));
#629 = ORIENTED_EDGE('',*,*,#630,.F.);
#630 = EDGE_CURVE('',#631,#631,#633,.T.);
#631 = VERTEX_POINT('',#632);
#632 = CARTESIAN_POINT('',(4.,28.5,-1.));
#633 = CIRCLE('',#634,1.5);
#634 = AXIS2_PLACEMENT_3D('',#635,#636,#637);
#635 = CARTESIAN_POINT('',(4.,28.5,-2.5));
#636 = DIRECTION('',(1.,0.,-3.3E-16));
#637 = DIRECTION('',(3.3E-16,0.,1.));
#638 = FACE_BOUND('',#639,.T.);
#639 = EDGE_LOOP('',(#640,#651,#660,#669));
#640 = ORIENTED_EDGE('',*,*,#641,.F.);
#641 = EDGE_CURVE('',#642,#644,#646,.T.);
#642 = VERTEX_POINT('',#643);
#643 = CARTESIAN_POINT('',(4.,26.089001297166,9.48969347118));
#644 = VERTEX_POINT('',#645);
#645 = CARTESIAN_POINT('',(4.,26.089001297166,4.51030652882));
#646 = CIRCLE('',#647,3.25);
#647 = AXIS2_PLACEMENT_3D('',#648,#649,#650);
#648 = CARTESIAN_POINT('',(4.,24.,7.));
#649 = DIRECTION('',(1.,0.,-2.2E-16));
#650 = DIRECTION('',(2.2E-16,0.,1.));
#651 = ORIENTED_EDGE('',*,*,#652,.T.);
#652 = EDGE_CURVE('',#642,#653,#655,.T.);
#653 = VERTEX_POINT('',#654);
#654 = CARTESIAN_POINT('',(4.,28.574143726253,9.217540743562));
#655 = CIRCLE('',#656,2.25);
#656 = AXIS2_PLACEMENT_3D('',#657,#658,#659);
#657 = CARTESIAN_POINT('',(4.,27.535232964435,11.213327412767));
#658 = DIRECTION('',(1.,0.,-2.2E-16));
#659 = DIRECTION('',(2.2E-16,0.,1.));
#660 = ORIENTED_EDGE('',*,*,#661,.F.);
#661 = EDGE_CURVE('',#662,#653,#664,.T.);
#662 = VERTEX_POINT('',#663);
#663 = CARTESIAN_POINT('',(4.,28.574143726253,4.782459256439));
#664 = CIRCLE('',#665,2.5);
#665 = AXIS2_PLACEMENT_3D('',#666,#667,#668);
#666 = CARTESIAN_POINT('',(4.,29.728489017163,7.));
#667 = DIRECTION('',(1.,0.,-2.2E-16));
#668 = DIRECTION('',(2.2E-16,0.,1.));
#669 = ORIENTED_EDGE('',*,*,#670,.T.);
#670 = EDGE_CURVE('',#662,#644,#671,.T.);
#671 = CIRCLE('',#672,2.25);
#672 = AXIS2_PLACEMENT_3D('',#673,#674,#675);
#673 = CARTESIAN_POINT('',(4.,27.535232964435,2.786672587233));
#674 = DIRECTION('',(1.,0.,-2.2E-16));
#675 = DIRECTION('',(2.2E-16,0.,1.));
#676 = FACE_BOUND('',#677,.T.);
#677 = EDGE_LOOP('',(#678));
#678 = ORIENTED_EDGE('',*,*,#679,.F.);
#679 = EDGE_CURVE('',#680,#680,#682,.T.);
#680 = VERTEX_POINT('',#681);
#681 = CARTESIAN_POINT('',(4.,28.5,20.5));
#682 = CIRCLE('',#683,1.5);
#683 = AXIS2_PLACEMENT_3D('',#684,#685,#686);
#684 = CARTESIAN_POINT('',(4.,28.5,19.));
#685 = DIRECTION('',(1.,0.,-3.3E-16));
#686 = DIRECTION('',(3.3E-16,0.,1.));
#687 = PLANE('',#688);
#688 = AXIS2_PLACEMENT_3D('',#689,#690,#691);
#689 = CARTESIAN_POINT('',(4.,42.024593975473,1.785689008837));
#690 = DIRECTION('',(1.,0.,-2.2E-16));
#691 = DIRECTION('',(2.2E-16,0.,1.));
#692 = ADVANCED_FACE('',(#693),#712,.F.);
#693 = FACE_BOUND('',#694,.T.);
#694 = EDGE_LOOP('',(#695,#703,#710,#711));
#695 = ORIENTED_EDGE('',*,*,#696,.T.);
#696 = EDGE_CURVE('',#620,#697,#699,.T.);
#697 = VERTEX_POINT('',#698);
#698 = CARTESIAN_POINT('',(-2.,44.,11.625));
#699 = LINE('',#700,#701);
#700 = CARTESIAN_POINT('',(4.,44.,11.625));
#701 = VECTOR('',#702,1.);
#702 = DIRECTION('',(-1.,0.,3.3E-16));
#703 = ORIENTED_EDGE('',*,*,#704,.T.);
#704 = EDGE_CURVE('',#697,#697,#705,.T.);
#705 = CIRCLE('',#706,11.625);
#706 = AXIS2_PLACEMENT_3D('',#707,#708,#709);
#707 = CARTESIAN_POINT('',(-2.,44.,5.684341886081E-14));
#708 = DIRECTION('',(-1.,0.,2.2E-16));
#709 = DIRECTION('',(2.2E-16,0.,1.));
#710 = ORIENTED_EDGE('',*,*,#696,.F.);
#711 = ORIENTED_EDGE('',*,*,#619,.F.);
#712 = CYLINDRICAL_SURFACE('',#713,11.625);
#713 = AXIS2_PLACEMENT_3D('',#714,#715,#716);
#714 = CARTESIAN_POINT('',(4.,44.,5.16E-14));
#715 = DIRECTION('',(1.,0.,-3.3E-16));
#716 = DIRECTION('',(3.3E-16,0.,1.));
#717 = ADVANCED_FACE('',(#718),#737,.F.);
#718 = FACE_BOUND('',#719,.T.);
#719 = EDGE_LOOP('',(#720,#728,#735,#736));
#720 = ORIENTED_EDGE('',*,*,#721,.F.);
#721 = EDGE_CURVE('',#722,#631,#724,.T.);
#722 = VERTEX_POINT('',#723);
#723 = CARTESIAN_POINT('',(-2.,28.5,-1.));
#724 = LINE('',#725,#726);
#725 = CARTESIAN_POINT('',(-2.,28.5,-1.));
#726 = VECTOR('',#727,1.);
#727 = DIRECTION('',(1.,0.,-4.E-16));
#728 = ORIENTED_EDGE('',*,*,#729,.T.);
#729 = EDGE_CURVE('',#722,#722,#730,.T.);
#730 = CIRCLE('',#731,1.5);
#731 = AXIS2_PLACEMENT_3D('',#732,#733,#734);
#732 = CARTESIAN_POINT('',(-2.,28.5,-2.5));
#733 = DIRECTION('',(-1.,0.,3.3E-16));
#734 = DIRECTION('',(3.3E-16,0.,1.));
#735 = ORIENTED_EDGE('',*,*,#721,.T.);
#736 = ORIENTED_EDGE('',*,*,#630,.T.);
#737 = CYLINDRICAL_SURFACE('',#738,1.5);
#738 = AXIS2_PLACEMENT_3D('',#739,#740,#741);
#739 = CARTESIAN_POINT('',(-2.,28.5,-2.5));
#740 = DIRECTION('',(1.,0.,-3.3E-16));
#741 = DIRECTION('',(3.3E-16,0.,1.));
#742 = ADVANCED_FACE('',(#743),#762,.F.);
#743 = FACE_BOUND('',#744,.T.);
#744 = EDGE_LOOP('',(#745,#753,#760,#761));
#745 = ORIENTED_EDGE('',*,*,#746,.F.);
#746 = EDGE_CURVE('',#747,#680,#749,.T.);
#747 = VERTEX_POINT('',#748);
#748 = CARTESIAN_POINT('',(-2.,28.5,20.5));
#749 = LINE('',#750,#751);
#750 = CARTESIAN_POINT('',(-2.,28.5,20.5));
#751 = VECTOR('',#752,1.);
#752 = DIRECTION('',(1.,0.,-4.E-16));
#753 = ORIENTED_EDGE('',*,*,#754,.T.);
#754 = EDGE_CURVE('',#747,#747,#755,.T.);
#755 = CIRCLE('',#756,1.5);
#756 = AXIS2_PLACEMENT_3D('',#757,#758,#759);
#757 = CARTESIAN_POINT('',(-2.,28.5,19.));
#758 = DIRECTION('',(-1.,0.,3.3E-16));
#759 = DIRECTION('',(3.3E-16,0.,1.));
#760 = ORIENTED_EDGE('',*,*,#746,.T.);
#761 = ORIENTED_EDGE('',*,*,#679,.T.);
#762 = CYLINDRICAL_SURFACE('',#763,1.5);
#763 = AXIS2_PLACEMENT_3D('',#764,#765,#766);
#764 = CARTESIAN_POINT('',(-2.,28.5,19.));
#765 = DIRECTION('',(1.,0.,-3.3E-16));
#766 = DIRECTION('',(3.3E-16,0.,1.));
#767 = ADVANCED_FACE('',(#768),#794,.T.);
#768 = FACE_BOUND('',#769,.F.);
#769 = EDGE_LOOP('',(#770,#778,#787,#793));
#770 = ORIENTED_EDGE('',*,*,#771,.T.);
#771 = EDGE_CURVE('',#642,#772,#774,.T.);
#772 = VERTEX_POINT('',#773);
#773 = CARTESIAN_POINT('',(13.5,26.089001297166,9.48969347118));
#774 = LINE('',#775,#776);
#775 = CARTESIAN_POINT('',(4.,26.089001297166,9.48969347118));
#776 = VECTOR('',#777,1.);
#777 = DIRECTION('',(1.,0.,-3.3E-16));
#778 = ORIENTED_EDGE('',*,*,#779,.T.);
#779 = EDGE_CURVE('',#772,#780,#782,.T.);
#780 = VERTEX_POINT('',#781);
#781 = CARTESIAN_POINT('',(13.5,26.089001297166,4.51030652882));
#782 = CIRCLE('',#783,3.25);
#783 = AXIS2_PLACEMENT_3D('',#784,#785,#786);
#784 = CARTESIAN_POINT('',(13.5,24.,7.));
#785 = DIRECTION('',(1.,0.,-2.2E-16));
#786 = DIRECTION('',(2.2E-16,0.,1.));
#787 = ORIENTED_EDGE('',*,*,#788,.F.);
#788 = EDGE_CURVE('',#644,#780,#789,.T.);
#789 = LINE('',#790,#791);
#790 = CARTESIAN_POINT('',(4.,26.089001297166,4.51030652882));
#791 = VECTOR('',#792,1.);
#792 = DIRECTION('',(1.,0.,-3.3E-16));
#793 = ORIENTED_EDGE('',*,*,#641,.F.);
#794 = CYLINDRICAL_SURFACE('',#795,3.25);
#795 = AXIS2_PLACEMENT_3D('',#796,#797,#798);
#796 = CARTESIAN_POINT('',(4.,24.,7.));
#797 = DIRECTION('',(-1.,0.,3.3E-16));
#798 = DIRECTION('',(3.3E-16,0.,1.));
#799 = ADVANCED_FACE('',(#800),#827,.F.);
#800 = FACE_BOUND('',#801,.T.);
#801 = EDGE_LOOP('',(#802,#812,#819,#820));
#802 = ORIENTED_EDGE('',*,*,#803,.F.);
#803 = EDGE_CURVE('',#804,#806,#808,.T.);
#804 = VERTEX_POINT('',#805);
#805 = CARTESIAN_POINT('',(-2.,24.,10.));
#806 = VERTEX_POINT('',#807);
#807 = CARTESIAN_POINT('',(1.4,24.,10.));
#808 = LINE('',#809,#810);
#809 = CARTESIAN_POINT('',(-2.,24.,10.));
#810 = VECTOR('',#811,1.);
#811 = DIRECTION('',(1.,0.,-3.5E-16));
#812 = ORIENTED_EDGE('',*,*,#813,.T.);
#813 = EDGE_CURVE('',#804,#804,#814,.T.);
#814 = CIRCLE('',#815,3.);
#815 = AXIS2_PLACEMENT_3D('',#816,#817,#818);
#816 = CARTESIAN_POINT('',(-2.,24.,7.));
#817 = DIRECTION('',(-1.,0.,3.3E-16));
#818 = DIRECTION('',(3.3E-16,0.,1.));
#819 = ORIENTED_EDGE('',*,*,#803,.T.);
#820 = ORIENTED_EDGE('',*,*,#821,.F.);
#821 = EDGE_CURVE('',#806,#806,#822,.T.);
#822 = CIRCLE('',#823,3.);
#823 = AXIS2_PLACEMENT_3D('',#824,#825,#826);
#824 = CARTESIAN_POINT('',(1.4,24.,7.));
#825 = DIRECTION('',(-1.,0.,3.3E-16));
#826 = DIRECTION('',(3.3E-16,0.,1.));
#827 = CYLINDRICAL_SURFACE('',#828,3.);
#828 = AXIS2_PLACEMENT_3D('',#829,#830,#831);
#829 = CARTESIAN_POINT('',(-2.,24.,7.));
#830 = DIRECTION('',(1.,0.,-3.3E-16));
#831 = DIRECTION('',(3.3E-16,0.,1.));
#832 = ADVANCED_FACE('',(#833,#836),#847,.T.);
#833 = FACE_BOUND('',#834,.T.);
#834 = EDGE_LOOP('',(#835));
#835 = ORIENTED_EDGE('',*,*,#821,.T.);
#836 = FACE_BOUND('',#837,.T.);
#837 = EDGE_LOOP('',(#838));
#838 = ORIENTED_EDGE('',*,*,#839,.F.);
#839 = EDGE_CURVE('',#840,#840,#842,.T.);
#840 = VERTEX_POINT('',#841);
#841 = CARTESIAN_POINT('',(1.4,24.,8.7));
#842 = CIRCLE('',#843,1.7);
#843 = AXIS2_PLACEMENT_3D('',#844,#845,#846);
#844 = CARTESIAN_POINT('',(1.4,24.,7.));
#845 = DIRECTION('',(-1.,0.,4.4E-16));
#846 = DIRECTION('',(4.4E-16,0.,1.));
#847 = PLANE('',#848);
#848 = AXIS2_PLACEMENT_3D('',#849,#850,#851);
#849 = CARTESIAN_POINT('',(1.4,24.,7.));
#850 = DIRECTION('',(-1.,0.,3.3E-16));
#851 = DIRECTION('',(3.3E-16,0.,1.));
#852 = ADVANCED_FACE('',(#853),#871,.F.);
#853 = FACE_BOUND('',#854,.T.);
#854 = EDGE_LOOP('',(#855,#856,#863,#870));
#855 = ORIENTED_EDGE('',*,*,#839,.T.);
#856 = ORIENTED_EDGE('',*,*,#857,.F.);
#857 = EDGE_CURVE('',#858,#840,#860,.T.);
#858 = VERTEX_POINT('',#859);
#859 = CARTESIAN_POINT('',(13.5,24.,8.7));
#860 = B_SPLINE_CURVE_WITH_KNOTS('',1,(#861,#862),.UNSPECIFIED.,.F.,.F.,
  (2,2),(-9.5,2.6),.PIECEWISE_BEZIER_KNOTS.);
#861 = CARTESIAN_POINT('',(13.5,24.,8.7));
#862 = CARTESIAN_POINT('',(1.4,24.,8.7));
#863 = ORIENTED_EDGE('',*,*,#864,.T.);
#864 = EDGE_CURVE('',#858,#858,#865,.T.);
#865 = CIRCLE('',#866,1.7);
#866 = AXIS2_PLACEMENT_3D('',#867,#868,#869);
#867 = CARTESIAN_POINT('',(13.5,24.,7.));
#868 = DIRECTION('',(1.,0.,-3.3E-16));
#869 = DIRECTION('',(3.3E-16,0.,1.));
#870 = ORIENTED_EDGE('',*,*,#857,.T.);
#871 = CYLINDRICAL_SURFACE('',#872,1.7);
#872 = AXIS2_PLACEMENT_3D('',#873,#874,#875);
#873 = CARTESIAN_POINT('',(4.,24.,7.));
#874 = DIRECTION('',(-1.,0.,3.3E-16));
#875 = DIRECTION('',(3.3E-16,0.,1.));
#876 = ADVANCED_FACE('',(#877,#905),#908,.T.);
#877 = FACE_BOUND('',#878,.T.);
#878 = EDGE_LOOP('',(#879,#880,#889,#898));
#879 = ORIENTED_EDGE('',*,*,#779,.T.);
#880 = ORIENTED_EDGE('',*,*,#881,.F.);
#881 = EDGE_CURVE('',#882,#780,#884,.T.);
#882 = VERTEX_POINT('',#883);
#883 = CARTESIAN_POINT('',(13.5,28.574143726253,4.782459256439));
#884 = CIRCLE('',#885,2.25);
#885 = AXIS2_PLACEMENT_3D('',#886,#887,#888);
#886 = CARTESIAN_POINT('',(13.5,27.535232964435,2.786672587233));
#887 = DIRECTION('',(1.,0.,-2.2E-16));
#888 = DIRECTION('',(2.2E-16,0.,1.));
#889 = ORIENTED_EDGE('',*,*,#890,.T.);
#890 = EDGE_CURVE('',#882,#891,#893,.T.);
#891 = VERTEX_POINT('',#892);
#892 = CARTESIAN_POINT('',(13.5,28.574143726253,9.217540743562));
#893 = CIRCLE('',#894,2.5);
#894 = AXIS2_PLACEMENT_3D('',#895,#896,#897);
#895 = CARTESIAN_POINT('',(13.5,29.728489017163,7.));
#896 = DIRECTION('',(1.,0.,-2.2E-16));
#897 = DIRECTION('',(2.2E-16,0.,1.));
#898 = ORIENTED_EDGE('',*,*,#899,.F.);
#899 = EDGE_CURVE('',#772,#891,#900,.T.);
#900 = CIRCLE('',#901,2.25);
#901 = AXIS2_PLACEMENT_3D('',#902,#903,#904);
#902 = CARTESIAN_POINT('',(13.5,27.535232964435,11.213327412767));
#903 = DIRECTION('',(1.,0.,-2.2E-16));
#904 = DIRECTION('',(2.2E-16,0.,1.));
#905 = FACE_BOUND('',#906,.F.);
#906 = EDGE_LOOP('',(#907));
#907 = ORIENTED_EDGE('',*,*,#864,.T.);
#908 = PLANE('',#909);
#909 = AXIS2_PLACEMENT_3D('',#910,#911,#912);
#910 = CARTESIAN_POINT('',(13.5,45.691751077825,0.573010304185));
#911 = DIRECTION('',(1.,0.,-2.2E-16));
#912 = DIRECTION('',(2.2E-16,0.,1.));
#913 = ADVANCED_FACE('',(#914),#925,.F.);
#914 = FACE_BOUND('',#915,.T.);
#915 = EDGE_LOOP('',(#916,#922,#923,#924));
#916 = ORIENTED_EDGE('',*,*,#917,.T.);
#917 = EDGE_CURVE('',#662,#882,#918,.T.);
#918 = LINE('',#919,#920);
#919 = CARTESIAN_POINT('',(4.,28.574143726253,4.782459256439));
#920 = VECTOR('',#921,1.);
#921 = DIRECTION('',(1.,0.,-3.3E-16));
#922 = ORIENTED_EDGE('',*,*,#881,.T.);
#923 = ORIENTED_EDGE('',*,*,#788,.F.);
#924 = ORIENTED_EDGE('',*,*,#670,.F.);
#925 = CYLINDRICAL_SURFACE('',#926,2.25);
#926 = AXIS2_PLACEMENT_3D('',#927,#928,#929);
#927 = CARTESIAN_POINT('',(4.,27.535232964435,2.786672587233));
#928 = DIRECTION('',(-1.,0.,3.3E-16));
#929 = DIRECTION('',(3.3E-16,0.,1.));
#930 = ADVANCED_FACE('',(#931),#942,.T.);
#931 = FACE_BOUND('',#932,.F.);
#932 = EDGE_LOOP('',(#933,#934,#935,#941));
#933 = ORIENTED_EDGE('',*,*,#917,.T.);
#934 = ORIENTED_EDGE('',*,*,#890,.T.);
#935 = ORIENTED_EDGE('',*,*,#936,.F.);
#936 = EDGE_CURVE('',#653,#891,#937,.T.);
#937 = LINE('',#938,#939);
#938 = CARTESIAN_POINT('',(4.,28.574143726253,9.217540743562));
#939 = VECTOR('',#940,1.);
#940 = DIRECTION('',(1.,0.,-3.3E-16));
#941 = ORIENTED_EDGE('',*,*,#661,.F.);
#942 = CYLINDRICAL_SURFACE('',#943,2.5);
#943 = AXIS2_PLACEMENT_3D('',#944,#945,#946);
#944 = CARTESIAN_POINT('',(4.,29.728489017163,7.));
#945 = DIRECTION('',(-1.,0.,3.3E-16));
#946 = DIRECTION('',(3.3E-16,0.,1.));
#947 = ADVANCED_FACE('',(#948),#954,.F.);
#948 = FACE_BOUND('',#949,.T.);
#949 = EDGE_LOOP('',(#950,#951,#952,#953));
#950 = ORIENTED_EDGE('',*,*,#771,.T.);
#951 = ORIENTED_EDGE('',*,*,#899,.T.);
#952 = ORIENTED_EDGE('',*,*,#936,.F.);
#953 = ORIENTED_EDGE('',*,*,#652,.F.);
#954 = CYLINDRICAL_SURFACE('',#955,2.25);
#955 = AXIS2_PLACEMENT_3D('',#956,#957,#958);
#956 = CARTESIAN_POINT('',(4.,27.535232964435,11.213327412767));
#957 = DIRECTION('',(-1.,0.,3.3E-16));
#958 = DIRECTION('',(3.3E-16,0.,1.));
#959 = ADVANCED_FACE('',(#960),#986,.T.);
#960 = FACE_BOUND('',#961,.F.);
#961 = EDGE_LOOP('',(#962,#970,#979,#985));
#962 = ORIENTED_EDGE('',*,*,#963,.T.);
#963 = EDGE_CURVE('',#521,#964,#966,.T.);
#964 = VERTEX_POINT('',#965);
#965 = CARTESIAN_POINT('',(13.5,38.,-19.25));
#966 = LINE('',#967,#968);
#967 = CARTESIAN_POINT('',(4.,38.,-19.25));
#968 = VECTOR('',#969,1.);
#969 = DIRECTION('',(1.,0.,-3.3E-16));
#970 = ORIENTED_EDGE('',*,*,#971,.T.);
#971 = EDGE_CURVE('',#964,#972,#974,.T.);
#972 = VERTEX_POINT('',#973);
#973 = CARTESIAN_POINT('',(13.5,50.,-19.25));
#974 = CIRCLE('',#975,6.);
#975 = AXIS2_PLACEMENT_3D('',#976,#977,#978);
#976 = CARTESIAN_POINT('',(13.5,44.,-19.25));
#977 = DIRECTION('',(1.,0.,-2.2E-16));
#978 = DIRECTION('',(2.2E-16,0.,1.));
#979 = ORIENTED_EDGE('',*,*,#980,.F.);
#980 = EDGE_CURVE('',#523,#972,#981,.T.);
#981 = LINE('',#982,#983);
#982 = CARTESIAN_POINT('',(4.,50.,-19.25));
#983 = VECTOR('',#984,1.);
#984 = DIRECTION('',(1.,0.,-3.3E-16));
#985 = ORIENTED_EDGE('',*,*,#520,.F.);
#986 = CYLINDRICAL_SURFACE('',#987,6.);
#987 = AXIS2_PLACEMENT_3D('',#988,#989,#990);
#988 = CARTESIAN_POINT('',(4.,44.,-19.25));
#989 = DIRECTION('',(-1.,0.,3.3E-16));
#990 = DIRECTION('',(3.3E-16,0.,1.));
#991 = ADVANCED_FACE('',(#992),#1011,.F.);
#992 = FACE_BOUND('',#993,.T.);
#993 = EDGE_LOOP('',(#994,#1002,#1009,#1010));
#994 = ORIENTED_EDGE('',*,*,#995,.T.);
#995 = EDGE_CURVE('',#602,#996,#998,.T.);
#996 = VERTEX_POINT('',#997);
#997 = CARTESIAN_POINT('',(13.5,58.720790569313,-8.741133666475));
#998 = LINE('',#999,#1000);
#999 = CARTESIAN_POINT('',(4.,58.720790569313,-8.741133666475));
#1000 = VECTOR('',#1001,1.);
#1001 = DIRECTION('',(1.,0.,-3.3E-16));
#1002 = ORIENTED_EDGE('',*,*,#1003,.T.);
#1003 = EDGE_CURVE('',#996,#972,#1004,.T.);
#1004 = CIRCLE('',#1005,10.692176258993);
#1005 = AXIS2_PLACEMENT_3D('',#1006,#1007,#1008);
#1006 = CARTESIAN_POINT('',(13.5,60.692176258993,-19.25));
#1007 = DIRECTION('',(1.,0.,-2.2E-16));
#1008 = DIRECTION('',(2.2E-16,0.,1.));
#1009 = ORIENTED_EDGE('',*,*,#980,.F.);
#1010 = ORIENTED_EDGE('',*,*,#610,.F.);
#1011 = CYLINDRICAL_SURFACE('',#1012,10.692176258993);
#1012 = AXIS2_PLACEMENT_3D('',#1013,#1014,#1015);
#1013 = CARTESIAN_POINT('',(4.,60.692176258993,-19.25));
#1014 = DIRECTION('',(-1.,0.,3.3E-16));
#1015 = DIRECTION('',(3.3E-16,0.,1.));
#1016 = ADVANCED_FACE('',(#1017),#1036,.T.);
#1017 = FACE_BOUND('',#1018,.F.);
#1018 = EDGE_LOOP('',(#1019,#1020,#1029,#1035));
#1019 = ORIENTED_EDGE('',*,*,#995,.T.);
#1020 = ORIENTED_EDGE('',*,*,#1021,.T.);
#1021 = EDGE_CURVE('',#996,#1022,#1024,.T.);
#1022 = VERTEX_POINT('',#1023);
#1023 = CARTESIAN_POINT('',(13.5,63.9,-2.5));
#1024 = CIRCLE('',#1025,6.35);
#1025 = AXIS2_PLACEMENT_3D('',#1026,#1027,#1028);
#1026 = CARTESIAN_POINT('',(13.5,57.55,-2.5));
#1027 = DIRECTION('',(1.,0.,-2.2E-16));
#1028 = DIRECTION('',(2.2E-16,0.,1.));
#1029 = ORIENTED_EDGE('',*,*,#1030,.F.);
#1030 = EDGE_CURVE('',#594,#1022,#1031,.T.);
#1031 = LINE('',#1032,#1033);
#1032 = CARTESIAN_POINT('',(4.,63.9,-2.5));
#1033 = VECTOR('',#1034,1.);
#1034 = DIRECTION('',(1.,0.,-3.3E-16));
#1035 = ORIENTED_EDGE('',*,*,#601,.F.);
#1036 = CYLINDRICAL_SURFACE('',#1037,6.35);
#1037 = AXIS2_PLACEMENT_3D('',#1038,#1039,#1040);
#1038 = CARTESIAN_POINT('',(4.,57.55,-2.5));
#1039 = DIRECTION('',(-1.,0.,3.3E-16));
#1040 = DIRECTION('',(3.3E-16,0.,1.));
#1041 = ADVANCED_FACE('',(#1042),#1060,.F.);
#1042 = FACE_BOUND('',#1043,.F.);
#1043 = EDGE_LOOP('',(#1044,#1045,#1053,#1059));
#1044 = ORIENTED_EDGE('',*,*,#1030,.T.);
#1045 = ORIENTED_EDGE('',*,*,#1046,.T.);
#1046 = EDGE_CURVE('',#1022,#1047,#1049,.T.);
#1047 = VERTEX_POINT('',#1048);
#1048 = CARTESIAN_POINT('',(13.5,63.9,2.5));
#1049 = LINE('',#1050,#1051);
#1050 = CARTESIAN_POINT('',(13.5,63.9,-2.5));
#1051 = VECTOR('',#1052,1.);
#1052 = DIRECTION('',(2.2E-16,0.,1.));
#1053 = ORIENTED_EDGE('',*,*,#1054,.F.);
#1054 = EDGE_CURVE('',#585,#1047,#1055,.T.);
#1055 = LINE('',#1056,#1057);
#1056 = CARTESIAN_POINT('',(4.,63.9,2.5));
#1057 = VECTOR('',#1058,1.);
#1058 = DIRECTION('',(1.,0.,-3.3E-16));
#1059 = ORIENTED_EDGE('',*,*,#593,.F.);
#1060 = PLANE('',#1061);
#1061 = AXIS2_PLACEMENT_3D('',#1062,#1063,#1064);
#1062 = CARTESIAN_POINT('',(4.,63.9,-2.5));
#1063 = DIRECTION('',(0.,-1.,0.));
#1064 = DIRECTION('',(3.3E-16,0.,1.));
#1065 = ADVANCED_FACE('',(#1066),#1085,.T.);
#1066 = FACE_BOUND('',#1067,.F.);
#1067 = EDGE_LOOP('',(#1068,#1069,#1078,#1084));
#1068 = ORIENTED_EDGE('',*,*,#1054,.T.);
#1069 = ORIENTED_EDGE('',*,*,#1070,.T.);
#1070 = EDGE_CURVE('',#1047,#1071,#1073,.T.);
#1071 = VERTEX_POINT('',#1072);
#1072 = CARTESIAN_POINT('',(13.5,58.575452407502,8.766653601401));
#1073 = CIRCLE('',#1074,6.35);
#1074 = AXIS2_PLACEMENT_3D('',#1075,#1076,#1077);
#1075 = CARTESIAN_POINT('',(13.5,57.55,2.5));
#1076 = DIRECTION('',(1.,0.,-2.2E-16));
#1077 = DIRECTION('',(2.2E-16,0.,1.));
#1078 = ORIENTED_EDGE('',*,*,#1079,.F.);
#1079 = EDGE_CURVE('',#576,#1071,#1080,.T.);
#1080 = LINE('',#1081,#1082);
#1081 = CARTESIAN_POINT('',(4.,58.575452407502,8.766653601401));
#1082 = VECTOR('',#1083,1.);
#1083 = DIRECTION('',(1.,0.,-3.3E-16));
#1084 = ORIENTED_EDGE('',*,*,#584,.F.);
#1085 = CYLINDRICAL_SURFACE('',#1086,6.35);
#1086 = AXIS2_PLACEMENT_3D('',#1087,#1088,#1089);
#1087 = CARTESIAN_POINT('',(4.,57.55,2.5));
#1088 = DIRECTION('',(-1.,0.,3.3E-16));
#1089 = DIRECTION('',(3.3E-16,0.,1.));
#1090 = ADVANCED_FACE('',(#1091),#1110,.F.);
#1091 = FACE_BOUND('',#1092,.T.);
#1092 = EDGE_LOOP('',(#1093,#1101,#1108,#1109));
#1093 = ORIENTED_EDGE('',*,*,#1094,.T.);
#1094 = EDGE_CURVE('',#567,#1095,#1097,.T.);
#1095 = VERTEX_POINT('',#1096);
#1096 = CARTESIAN_POINT('',(13.5,49.940162760527,17.889709835749));
#1097 = LINE('',#1098,#1099);
#1098 = CARTESIAN_POINT('',(4.,49.940162760527,17.889709835749));
#1099 = VECTOR('',#1100,1.);
#1100 = DIRECTION('',(1.,0.,-3.3E-16));
#1101 = ORIENTED_EDGE('',*,*,#1102,.T.);
#1102 = EDGE_CURVE('',#1095,#1071,#1103,.T.);
#1103 = CIRCLE('',#1104,10.369449751711);
#1104 = AXIS2_PLACEMENT_3D('',#1105,#1106,#1107);
#1105 = CARTESIAN_POINT('',(13.5,60.25,19.));
#1106 = DIRECTION('',(1.,0.,-2.2E-16));
#1107 = DIRECTION('',(2.2E-16,0.,1.));
#1108 = ORIENTED_EDGE('',*,*,#1079,.F.);
#1109 = ORIENTED_EDGE('',*,*,#575,.F.);
#1110 = CYLINDRICAL_SURFACE('',#1111,10.369449751711);
#1111 = AXIS2_PLACEMENT_3D('',#1112,#1113,#1114);
#1112 = CARTESIAN_POINT('',(4.,60.25,19.));
#1113 = DIRECTION('',(-1.,0.,3.3E-16));
#1114 = DIRECTION('',(3.3E-16,0.,1.));
#1115 = ADVANCED_FACE('',(#1116),#1135,.T.);
#1116 = FACE_BOUND('',#1117,.F.);
#1117 = EDGE_LOOP('',(#1118,#1119,#1128,#1134));
#1118 = ORIENTED_EDGE('',*,*,#1094,.T.);
#1119 = ORIENTED_EDGE('',*,*,#1120,.T.);
#1120 = EDGE_CURVE('',#1095,#1121,#1123,.T.);
#1121 = VERTEX_POINT('',#1122);
#1122 = CARTESIAN_POINT('',(13.5,44.,23.22450937697));
#1123 = CIRCLE('',#1124,5.97450937697);
#1124 = AXIS2_PLACEMENT_3D('',#1125,#1126,#1127);
#1125 = CARTESIAN_POINT('',(13.5,44.,17.25));
#1126 = DIRECTION('',(1.,0.,-2.2E-16));
#1127 = DIRECTION('',(2.2E-16,0.,1.));
#1128 = ORIENTED_EDGE('',*,*,#1129,.F.);
#1129 = EDGE_CURVE('',#558,#1121,#1130,.T.);
#1130 = LINE('',#1131,#1132);
#1131 = CARTESIAN_POINT('',(4.,44.,23.22450937697));
#1132 = VECTOR('',#1133,1.);
#1133 = DIRECTION('',(1.,0.,-3.3E-16));
#1134 = ORIENTED_EDGE('',*,*,#566,.F.);
#1135 = CYLINDRICAL_SURFACE('',#1136,5.97450937697);
#1136 = AXIS2_PLACEMENT_3D('',#1137,#1138,#1139);
#1137 = CARTESIAN_POINT('',(4.,44.,17.25));
#1138 = DIRECTION('',(-1.,0.,3.3E-16));
#1139 = DIRECTION('',(3.3E-16,0.,1.));
#1140 = ADVANCED_FACE('',(#1141),#1160,.T.);
#1141 = FACE_BOUND('',#1142,.F.);
#1142 = EDGE_LOOP('',(#1143,#1144,#1153,#1159));
#1143 = ORIENTED_EDGE('',*,*,#1129,.T.);
#1144 = ORIENTED_EDGE('',*,*,#1145,.T.);
#1145 = EDGE_CURVE('',#1121,#1146,#1148,.T.);
#1146 = VERTEX_POINT('',#1147);
#1147 = CARTESIAN_POINT('',(13.5,44.,12.5));
#1148 = CIRCLE('',#1149,5.362254688485);
#1149 = AXIS2_PLACEMENT_3D('',#1150,#1151,#1152);
#1150 = CARTESIAN_POINT('',(13.5,44.,17.862254688485));
#1151 = DIRECTION('',(1.,0.,-2.2E-16));
#1152 = DIRECTION('',(2.2E-16,0.,1.));
#1153 = ORIENTED_EDGE('',*,*,#1154,.F.);
#1154 = EDGE_CURVE('',#549,#1146,#1155,.T.);
#1155 = LINE('',#1156,#1157);
#1156 = CARTESIAN_POINT('',(4.,44.,12.5));
#1157 = VECTOR('',#1158,1.);
#1158 = DIRECTION('',(1.,0.,-3.3E-16));
#1159 = ORIENTED_EDGE('',*,*,#557,.F.);
#1160 = CYLINDRICAL_SURFACE('',#1161,5.362254688485);
#1161 = AXIS2_PLACEMENT_3D('',#1162,#1163,#1164);
#1162 = CARTESIAN_POINT('',(4.,44.,17.862254688485));
#1163 = DIRECTION('',(-1.,0.,3.3E-16));
#1164 = DIRECTION('',(3.3E-16,0.,1.));
#1165 = ADVANCED_FACE('',(#1166),#1185,.F.);
#1166 = FACE_BOUND('',#1167,.T.);
#1167 = EDGE_LOOP('',(#1168,#1176,#1183,#1184));
#1168 = ORIENTED_EDGE('',*,*,#1169,.T.);
#1169 = EDGE_CURVE('',#540,#1170,#1172,.T.);
#1170 = VERTEX_POINT('',#1171);
#1171 = CARTESIAN_POINT('',(13.5,42.046875,-12.34646924162));
#1172 = LINE('',#1173,#1174);
#1173 = CARTESIAN_POINT('',(4.,42.046875,-12.34646924162));
#1174 = VECTOR('',#1175,1.);
#1175 = DIRECTION('',(1.,0.,-3.3E-16));
#1176 = ORIENTED_EDGE('',*,*,#1177,.T.);
#1177 = EDGE_CURVE('',#1170,#1146,#1178,.T.);
#1178 = CIRCLE('',#1179,12.5);
#1179 = AXIS2_PLACEMENT_3D('',#1180,#1181,#1182);
#1180 = CARTESIAN_POINT('',(13.5,44.,3.552713678801E-14));
#1181 = DIRECTION('',(1.,0.,-2.2E-16));
#1182 = DIRECTION('',(2.2E-16,0.,1.));
#1183 = ORIENTED_EDGE('',*,*,#1154,.F.);
#1184 = ORIENTED_EDGE('',*,*,#548,.F.);
#1185 = CYLINDRICAL_SURFACE('',#1186,12.5);
#1186 = AXIS2_PLACEMENT_3D('',#1187,#1188,#1189);
#1187 = CARTESIAN_POINT('',(4.,44.,3.465E-14));
#1188 = DIRECTION('',(-1.,0.,3.3E-16));
#1189 = DIRECTION('',(3.3E-16,0.,1.));
#1190 = ADVANCED_FACE('',(#1191),#1210,.T.);
#1191 = FACE_BOUND('',#1192,.F.);
#1192 = EDGE_LOOP('',(#1193,#1194,#1203,#1209));
#1193 = ORIENTED_EDGE('',*,*,#1169,.T.);
#1194 = ORIENTED_EDGE('',*,*,#1195,.T.);
#1195 = EDGE_CURVE('',#1170,#1196,#1198,.T.);
#1196 = VERTEX_POINT('',#1197);
#1197 = CARTESIAN_POINT('',(13.5,38.,-15.80348062927));
#1198 = CIRCLE('',#1199,3.5);
#1199 = AXIS2_PLACEMENT_3D('',#1200,#1201,#1202);
#1200 = CARTESIAN_POINT('',(13.5,41.5,-15.80348062927));
#1201 = DIRECTION('',(1.,0.,-2.2E-16));
#1202 = DIRECTION('',(2.2E-16,0.,1.));
#1203 = ORIENTED_EDGE('',*,*,#1204,.F.);
#1204 = EDGE_CURVE('',#532,#1196,#1205,.T.);
#1205 = LINE('',#1206,#1207);
#1206 = CARTESIAN_POINT('',(4.,38.,-15.80348062927));
#1207 = VECTOR('',#1208,1.);
#1208 = DIRECTION('',(1.,0.,-3.3E-16));
#1209 = ORIENTED_EDGE('',*,*,#539,.F.);
#1210 = CYLINDRICAL_SURFACE('',#1211,3.5);
#1211 = AXIS2_PLACEMENT_3D('',#1212,#1213,#1214);
#1212 = CARTESIAN_POINT('',(4.,41.5,-15.80348062927));
#1213 = DIRECTION('',(-1.,0.,3.3E-16));
#1214 = DIRECTION('',(3.3E-16,0.,1.));
#1215 = ADVANCED_FACE('',(#1216),#1227,.T.);
#1216 = FACE_BOUND('',#1217,.T.);
#1217 = EDGE_LOOP('',(#1218,#1219,#1225,#1226));
#1218 = ORIENTED_EDGE('',*,*,#963,.T.);
#1219 = ORIENTED_EDGE('',*,*,#1220,.T.);
#1220 = EDGE_CURVE('',#964,#1196,#1221,.T.);
#1221 = LINE('',#1222,#1223);
#1222 = CARTESIAN_POINT('',(13.5,38.,-19.25));
#1223 = VECTOR('',#1224,1.);
#1224 = DIRECTION('',(2.2E-16,0.,1.));
#1225 = ORIENTED_EDGE('',*,*,#1204,.F.);
#1226 = ORIENTED_EDGE('',*,*,#531,.F.);
#1227 = PLANE('',#1228);
#1228 = AXIS2_PLACEMENT_3D('',#1229,#1230,#1231);
#1229 = CARTESIAN_POINT('',(4.,38.,-19.25));
#1230 = DIRECTION('',(0.,-1.,0.));
#1231 = DIRECTION('',(3.3E-16,0.,1.));
#1232 = ADVANCED_FACE('',(#1233,#1246,#1257,#1268),#1279,.T.);
#1233 = FACE_BOUND('',#1234,.T.);
#1234 = EDGE_LOOP('',(#1235,#1236,#1237,#1238,#1239,#1240,#1241,#1242,
    #1243,#1244,#1245));
#1235 = ORIENTED_EDGE('',*,*,#971,.T.);
#1236 = ORIENTED_EDGE('',*,*,#1003,.F.);
#1237 = ORIENTED_EDGE('',*,*,#1021,.T.);
#1238 = ORIENTED_EDGE('',*,*,#1046,.T.);
#1239 = ORIENTED_EDGE('',*,*,#1070,.T.);
#1240 = ORIENTED_EDGE('',*,*,#1102,.F.);
#1241 = ORIENTED_EDGE('',*,*,#1120,.T.);
#1242 = ORIENTED_EDGE('',*,*,#1145,.T.);
#1243 = ORIENTED_EDGE('',*,*,#1177,.F.);
#1244 = ORIENTED_EDGE('',*,*,#1195,.T.);
#1245 = ORIENTED_EDGE('',*,*,#1220,.F.);
#1246 = FACE_BOUND('',#1247,.F.);
#1247 = EDGE_LOOP('',(#1248));
#1248 = ORIENTED_EDGE('',*,*,#1249,.T.);
#1249 = EDGE_CURVE('',#1250,#1250,#1252,.T.);
#1250 = VERTEX_POINT('',#1251);
#1251 = CARTESIAN_POINT('',(13.5,60.25,1.7));
#1252 = CIRCLE('',#1253,1.7);
#1253 = AXIS2_PLACEMENT_3D('',#1254,#1255,#1256);
#1254 = CARTESIAN_POINT('',(13.5,60.25,3.082E-14));
#1255 = DIRECTION('',(1.,0.,-3.3E-16));
#1256 = DIRECTION('',(3.3E-16,0.,1.));
#1257 = FACE_BOUND('',#1258,.F.);
#1258 = EDGE_LOOP('',(#1259));
#1259 = ORIENTED_EDGE('',*,*,#1260,.T.);
#1260 = EDGE_CURVE('',#1261,#1261,#1263,.T.);
#1261 = VERTEX_POINT('',#1262);
#1262 = CARTESIAN_POINT('',(13.5,44.,18.95));
#1263 = CIRCLE('',#1264,1.7);
#1264 = AXIS2_PLACEMENT_3D('',#1265,#1266,#1267);
#1265 = CARTESIAN_POINT('',(13.5,44.,17.25));
#1266 = DIRECTION('',(1.,0.,-3.3E-16));
#1267 = DIRECTION('',(3.3E-16,0.,1.));
#1268 = FACE_BOUND('',#1269,.F.);
#1269 = EDGE_LOOP('',(#1270));
#1270 = ORIENTED_EDGE('',*,*,#1271,.T.);
#1271 = EDGE_CURVE('',#1272,#1272,#1274,.T.);
#1272 = VERTEX_POINT('',#1273);
#1273 = CARTESIAN_POINT('',(13.5,44.,-17.55));
#1274 = CIRCLE('',#1275,1.7);
#1275 = AXIS2_PLACEMENT_3D('',#1276,#1277,#1278);
#1276 = CARTESIAN_POINT('',(13.5,44.,-19.25));
#1277 = DIRECTION('',(1.,0.,-3.3E-16));
#1278 = DIRECTION('',(3.3E-16,0.,1.));
#1279 = PLANE('',#1280);
#1280 = AXIS2_PLACEMENT_3D('',#1281,#1282,#1283);
#1281 = CARTESIAN_POINT('',(13.5,45.691751077825,0.573010304185));
#1282 = DIRECTION('',(1.,0.,-2.2E-16));
#1283 = DIRECTION('',(2.2E-16,0.,1.));
#1284 = ADVANCED_FACE('',(#1285),#1312,.F.);
#1285 = FACE_BOUND('',#1286,.T.);
#1286 = EDGE_LOOP('',(#1287,#1297,#1304,#1305));
#1287 = ORIENTED_EDGE('',*,*,#1288,.F.);
#1288 = EDGE_CURVE('',#1289,#1291,#1293,.T.);
#1289 = VERTEX_POINT('',#1290);
#1290 = CARTESIAN_POINT('',(-2.,60.25,3.));
#1291 = VERTEX_POINT('',#1292);
#1292 = CARTESIAN_POINT('',(1.4,60.25,3.));
#1293 = LINE('',#1294,#1295);
#1294 = CARTESIAN_POINT('',(-2.,60.25,3.));
#1295 = VECTOR('',#1296,1.);
#1296 = DIRECTION('',(1.,0.,-3.5E-16));
#1297 = ORIENTED_EDGE('',*,*,#1298,.T.);
#1298 = EDGE_CURVE('',#1289,#1289,#1299,.T.);
#1299 = CIRCLE('',#1300,3.);
#1300 = AXIS2_PLACEMENT_3D('',#1301,#1302,#1303);
#1301 = CARTESIAN_POINT('',(-2.,60.25,2.84217094304E-14));
#1302 = DIRECTION('',(-1.,0.,3.3E-16));
#1303 = DIRECTION('',(3.3E-16,0.,1.));
#1304 = ORIENTED_EDGE('',*,*,#1288,.T.);
#1305 = ORIENTED_EDGE('',*,*,#1306,.F.);
#1306 = EDGE_CURVE('',#1291,#1291,#1307,.T.);
#1307 = CIRCLE('',#1308,3.);
#1308 = AXIS2_PLACEMENT_3D('',#1309,#1310,#1311);
#1309 = CARTESIAN_POINT('',(1.4,60.25,2.84217094304E-14));
#1310 = DIRECTION('',(-1.,0.,3.3E-16));
#1311 = DIRECTION('',(3.3E-16,0.,1.));
#1312 = CYLINDRICAL_SURFACE('',#1313,3.);
#1313 = AXIS2_PLACEMENT_3D('',#1314,#1315,#1316);
#1314 = CARTESIAN_POINT('',(-2.,60.25,2.84217094304E-14));
#1315 = DIRECTION('',(1.,0.,-3.3E-16));
#1316 = DIRECTION('',(3.3E-16,0.,1.));
#1317 = ADVANCED_FACE('',(#1318,#1321),#1332,.T.);
#1318 = FACE_BOUND('',#1319,.T.);
#1319 = EDGE_LOOP('',(#1320));
#1320 = ORIENTED_EDGE('',*,*,#1306,.T.);
#1321 = FACE_BOUND('',#1322,.T.);
#1322 = EDGE_LOOP('',(#1323));
#1323 = ORIENTED_EDGE('',*,*,#1324,.F.);
#1324 = EDGE_CURVE('',#1325,#1325,#1327,.T.);
#1325 = VERTEX_POINT('',#1326);
#1326 = CARTESIAN_POINT('',(1.4,60.25,1.7));
#1327 = CIRCLE('',#1328,1.7);
#1328 = AXIS2_PLACEMENT_3D('',#1329,#1330,#1331);
#1329 = CARTESIAN_POINT('',(1.4,60.25,3.513E-14));
#1330 = DIRECTION('',(-1.,0.,4.4E-16));
#1331 = DIRECTION('',(4.4E-16,0.,1.));
#1332 = PLANE('',#1333);
#1333 = AXIS2_PLACEMENT_3D('',#1334,#1335,#1336);
#1334 = CARTESIAN_POINT('',(1.4,60.25,2.84217094304E-14));
#1335 = DIRECTION('',(-1.,0.,3.3E-16));
#1336 = DIRECTION('',(3.3E-16,0.,1.));
#1337 = ADVANCED_FACE('',(#1338),#1348,.F.);
#1338 = FACE_BOUND('',#1339,.T.);
#1339 = EDGE_LOOP('',(#1340,#1341,#1346,#1347));
#1340 = ORIENTED_EDGE('',*,*,#1324,.T.);
#1341 = ORIENTED_EDGE('',*,*,#1342,.F.);
#1342 = EDGE_CURVE('',#1250,#1325,#1343,.T.);
#1343 = B_SPLINE_CURVE_WITH_KNOTS('',1,(#1344,#1345),.UNSPECIFIED.,.F.,
  .F.,(2,2),(-9.5,2.6),.PIECEWISE_BEZIER_KNOTS.);
#1344 = CARTESIAN_POINT('',(13.5,60.25,1.7));
#1345 = CARTESIAN_POINT('',(1.4,60.25,1.7));
#1346 = ORIENTED_EDGE('',*,*,#1249,.T.);
#1347 = ORIENTED_EDGE('',*,*,#1342,.T.);
#1348 = CYLINDRICAL_SURFACE('',#1349,1.7);
#1349 = AXIS2_PLACEMENT_3D('',#1350,#1351,#1352);
#1350 = CARTESIAN_POINT('',(4.,60.25,3.398E-14));
#1351 = DIRECTION('',(-1.,0.,3.3E-16));
#1352 = DIRECTION('',(3.3E-16,0.,1.));
#1353 = ADVANCED_FACE('',(#1354),#1381,.F.);
#1354 = FACE_BOUND('',#1355,.T.);
#1355 = EDGE_LOOP('',(#1356,#1366,#1373,#1374));
#1356 = ORIENTED_EDGE('',*,*,#1357,.F.);
#1357 = EDGE_CURVE('',#1358,#1360,#1362,.T.);
#1358 = VERTEX_POINT('',#1359);
#1359 = CARTESIAN_POINT('',(-2.,44.,20.25));
#1360 = VERTEX_POINT('',#1361);
#1361 = CARTESIAN_POINT('',(1.4,44.,20.25));
#1362 = LINE('',#1363,#1364);
#1363 = CARTESIAN_POINT('',(-2.,44.,20.25));
#1364 = VECTOR('',#1365,1.);
#1365 = DIRECTION('',(1.,0.,-3.5E-16));
#1366 = ORIENTED_EDGE('',*,*,#1367,.T.);
#1367 = EDGE_CURVE('',#1358,#1358,#1368,.T.);
#1368 = CIRCLE('',#1369,3.);
#1369 = AXIS2_PLACEMENT_3D('',#1370,#1371,#1372);
#1370 = CARTESIAN_POINT('',(-2.,44.,17.25));
#1371 = DIRECTION('',(-1.,0.,3.3E-16));
#1372 = DIRECTION('',(3.3E-16,0.,1.));
#1373 = ORIENTED_EDGE('',*,*,#1357,.T.);
#1374 = ORIENTED_EDGE('',*,*,#1375,.F.);
#1375 = EDGE_CURVE('',#1360,#1360,#1376,.T.);
#1376 = CIRCLE('',#1377,3.);
#1377 = AXIS2_PLACEMENT_3D('',#1378,#1379,#1380);
#1378 = CARTESIAN_POINT('',(1.4,44.,17.25));
#1379 = DIRECTION('',(-1.,0.,3.3E-16));
#1380 = DIRECTION('',(3.3E-16,0.,1.));
#1381 = CYLINDRICAL_SURFACE('',#1382,3.);
#1382 = AXIS2_PLACEMENT_3D('',#1383,#1384,#1385);
#1383 = CARTESIAN_POINT('',(-2.,44.,17.25));
#1384 = DIRECTION('',(1.,0.,-3.3E-16));
#1385 = DIRECTION('',(3.3E-16,0.,1.));
#1386 = ADVANCED_FACE('',(#1387,#1390),#1401,.T.);
#1387 = FACE_BOUND('',#1388,.T.);
#1388 = EDGE_LOOP('',(#1389));
#1389 = ORIENTED_EDGE('',*,*,#1375,.T.);
#1390 = FACE_BOUND('',#1391,.T.);
#1391 = EDGE_LOOP('',(#1392));
#1392 = ORIENTED_EDGE('',*,*,#1393,.F.);
#1393 = EDGE_CURVE('',#1394,#1394,#1396,.T.);
#1394 = VERTEX_POINT('',#1395);
#1395 = CARTESIAN_POINT('',(1.4,44.,18.95));
#1396 = CIRCLE('',#1397,1.7);
#1397 = AXIS2_PLACEMENT_3D('',#1398,#1399,#1400);
#1398 = CARTESIAN_POINT('',(1.4,44.,17.25));
#1399 = DIRECTION('',(-1.,0.,4.4E-16));
#1400 = DIRECTION('',(4.4E-16,0.,1.));
#1401 = PLANE('',#1402);
#1402 = AXIS2_PLACEMENT_3D('',#1403,#1404,#1405);
#1403 = CARTESIAN_POINT('',(1.4,44.,17.25));
#1404 = DIRECTION('',(-1.,0.,3.3E-16));
#1405 = DIRECTION('',(3.3E-16,0.,1.));
#1406 = ADVANCED_FACE('',(#1407),#1417,.F.);
#1407 = FACE_BOUND('',#1408,.T.);
#1408 = EDGE_LOOP('',(#1409,#1410,#1415,#1416));
#1409 = ORIENTED_EDGE('',*,*,#1393,.T.);
#1410 = ORIENTED_EDGE('',*,*,#1411,.F.);
#1411 = EDGE_CURVE('',#1261,#1394,#1412,.T.);
#1412 = B_SPLINE_CURVE_WITH_KNOTS('',1,(#1413,#1414),.UNSPECIFIED.,.F.,
  .F.,(2,2),(-9.5,2.6),.PIECEWISE_BEZIER_KNOTS.);
#1413 = CARTESIAN_POINT('',(13.5,44.,18.95));
#1414 = CARTESIAN_POINT('',(1.4,44.,18.95));
#1415 = ORIENTED_EDGE('',*,*,#1260,.T.);
#1416 = ORIENTED_EDGE('',*,*,#1411,.T.);
#1417 = CYLINDRICAL_SURFACE('',#1418,1.7);
#1418 = AXIS2_PLACEMENT_3D('',#1419,#1420,#1421);
#1419 = CARTESIAN_POINT('',(4.,44.,17.25));
#1420 = DIRECTION('',(-1.,0.,3.3E-16));
#1421 = DIRECTION('',(3.3E-16,0.,1.));
#1422 = ADVANCED_FACE('',(#1423),#1450,.F.);
#1423 = FACE_BOUND('',#1424,.T.);
#1424 = EDGE_LOOP('',(#1425,#1435,#1442,#1443));
#1425 = ORIENTED_EDGE('',*,*,#1426,.F.);
#1426 = EDGE_CURVE('',#1427,#1429,#1431,.T.);
#1427 = VERTEX_POINT('',#1428);
#1428 = CARTESIAN_POINT('',(-2.,44.,-16.25));
#1429 = VERTEX_POINT('',#1430);
#1430 = CARTESIAN_POINT('',(1.4,44.,-16.25));
#1431 = LINE('',#1432,#1433);
#1432 = CARTESIAN_POINT('',(-2.,44.,-16.25));
#1433 = VECTOR('',#1434,1.);
#1434 = DIRECTION('',(1.,0.,-3.5E-16));
#1435 = ORIENTED_EDGE('',*,*,#1436,.T.);
#1436 = EDGE_CURVE('',#1427,#1427,#1437,.T.);
#1437 = CIRCLE('',#1438,3.);
#1438 = AXIS2_PLACEMENT_3D('',#1439,#1440,#1441);
#1439 = CARTESIAN_POINT('',(-2.,44.,-19.25));
#1440 = DIRECTION('',(-1.,0.,3.3E-16));
#1441 = DIRECTION('',(3.3E-16,0.,1.));
#1442 = ORIENTED_EDGE('',*,*,#1426,.T.);
#1443 = ORIENTED_EDGE('',*,*,#1444,.F.);
#1444 = EDGE_CURVE('',#1429,#1429,#1445,.T.);
#1445 = CIRCLE('',#1446,3.);
#1446 = AXIS2_PLACEMENT_3D('',#1447,#1448,#1449);
#1447 = CARTESIAN_POINT('',(1.4,44.,-19.25));
#1448 = DIRECTION('',(-1.,0.,3.3E-16));
#1449 = DIRECTION('',(3.3E-16,0.,1.));
#1450 = CYLINDRICAL_SURFACE('',#1451,3.);
#1451 = AXIS2_PLACEMENT_3D('',#1452,#1453,#1454);
#1452 = CARTESIAN_POINT('',(-2.,44.,-19.25));
#1453 = DIRECTION('',(1.,0.,-3.3E-16));
#1454 = DIRECTION('',(3.3E-16,0.,1.));
#1455 = ADVANCED_FACE('',(#1456,#1459),#1470,.T.);
#1456 = FACE_BOUND('',#1457,.T.);
#1457 = EDGE_LOOP('',(#1458));
#1458 = ORIENTED_EDGE('',*,*,#1444,.T.);
#1459 = FACE_BOUND('',#1460,.T.);
#1460 = EDGE_LOOP('',(#1461));
#1461 = ORIENTED_EDGE('',*,*,#1462,.F.);
#1462 = EDGE_CURVE('',#1463,#1463,#1465,.T.);
#1463 = VERTEX_POINT('',#1464);
#1464 = CARTESIAN_POINT('',(1.4,44.,-17.55));
#1465 = CIRCLE('',#1466,1.7);
#1466 = AXIS2_PLACEMENT_3D('',#1467,#1468,#1469);
#1467 = CARTESIAN_POINT('',(1.4,44.,-19.25));
#1468 = DIRECTION('',(-1.,0.,4.4E-16));
#1469 = DIRECTION('',(4.4E-16,0.,1.));
#1470 = PLANE('',#1471);
#1471 = AXIS2_PLACEMENT_3D('',#1472,#1473,#1474);
#1472 = CARTESIAN_POINT('',(1.4,44.,-19.25));
#1473 = DIRECTION('',(-1.,0.,3.3E-16));
#1474 = DIRECTION('',(3.3E-16,0.,1.));
#1475 = ADVANCED_FACE('',(#1476),#1486,.F.);
#1476 = FACE_BOUND('',#1477,.T.);
#1477 = EDGE_LOOP('',(#1478,#1479,#1484,#1485));
#1478 = ORIENTED_EDGE('',*,*,#1462,.T.);
#1479 = ORIENTED_EDGE('',*,*,#1480,.F.);
#1480 = EDGE_CURVE('',#1272,#1463,#1481,.T.);
#1481 = B_SPLINE_CURVE_WITH_KNOTS('',1,(#1482,#1483),.UNSPECIFIED.,.F.,
  .F.,(2,2),(-9.5,2.6),.PIECEWISE_BEZIER_KNOTS.);
#1482 = CARTESIAN_POINT('',(13.5,44.,-17.55));
#1483 = CARTESIAN_POINT('',(1.4,44.,-17.55));
#1484 = ORIENTED_EDGE('',*,*,#1271,.T.);
#1485 = ORIENTED_EDGE('',*,*,#1480,.T.);
#1486 = CYLINDRICAL_SURFACE('',#1487,1.7);
#1487 = AXIS2_PLACEMENT_3D('',#1488,#1489,#1490);
#1488 = CARTESIAN_POINT('',(4.,44.,-19.25));
#1489 = DIRECTION('',(-1.,0.,3.3E-16));
#1490 = DIRECTION('',(3.3E-16,0.,1.));
#1491 = ADVANCED_FACE('',(#1492,#1514,#1517,#1520,#1523,#1526,#1529,
    #1540,#1543),#1546,.T.);
#1492 = FACE_BOUND('',#1493,.T.);
#1493 = EDGE_LOOP('',(#1494,#1495,#1496,#1497,#1498,#1499,#1500,#1506,
    #1507,#1508,#1509,#1510,#1511,#1512,#1513));
#1494 = ORIENTED_EDGE('',*,*,#31,.F.);
#1495 = ORIENTED_EDGE('',*,*,#483,.T.);
#1496 = ORIENTED_EDGE('',*,*,#450,.F.);
#1497 = ORIENTED_EDGE('',*,*,#426,.T.);
#1498 = ORIENTED_EDGE('',*,*,#384,.F.);
#1499 = ORIENTED_EDGE('',*,*,#350,.T.);
#1500 = ORIENTED_EDGE('',*,*,#1501,.F.);
#1501 = EDGE_CURVE('',#312,#351,#1502,.T.);
#1502 = LINE('',#1503,#1504);
#1503 = CARTESIAN_POINT('',(-2.,20.05,-3.));
#1504 = VECTOR('',#1505,1.);
#1505 = DIRECTION('',(0.,1.,0.));
#1506 = ORIENTED_EDGE('',*,*,#311,.F.);
#1507 = ORIENTED_EDGE('',*,*,#287,.F.);
#1508 = ORIENTED_EDGE('',*,*,#256,.T.);
#1509 = ORIENTED_EDGE('',*,*,#201,.T.);
#1510 = ORIENTED_EDGE('',*,*,#161,.F.);
#1511 = ORIENTED_EDGE('',*,*,#137,.T.);
#1512 = ORIENTED_EDGE('',*,*,#95,.F.);
#1513 = ORIENTED_EDGE('',*,*,#71,.T.);
#1514 = FACE_BOUND('',#1515,.T.);
#1515 = EDGE_LOOP('',(#1516));
#1516 = ORIENTED_EDGE('',*,*,#704,.F.);
#1517 = FACE_BOUND('',#1518,.T.);
#1518 = EDGE_LOOP('',(#1519));
#1519 = ORIENTED_EDGE('',*,*,#1367,.F.);
#1520 = FACE_BOUND('',#1521,.T.);
#1521 = EDGE_LOOP('',(#1522));
#1522 = ORIENTED_EDGE('',*,*,#1436,.F.);
#1523 = FACE_BOUND('',#1524,.T.);
#1524 = EDGE_LOOP('',(#1525));
#1525 = ORIENTED_EDGE('',*,*,#1298,.F.);
#1526 = FACE_BOUND('',#1527,.T.);
#1527 = EDGE_LOOP('',(#1528));
#1528 = ORIENTED_EDGE('',*,*,#813,.F.);
#1529 = FACE_BOUND('',#1530,.T.);
#1530 = EDGE_LOOP('',(#1531));
#1531 = ORIENTED_EDGE('',*,*,#1532,.F.);
#1532 = EDGE_CURVE('',#1533,#1533,#1535,.T.);
#1533 = VERTEX_POINT('',#1534);
#1534 = CARTESIAN_POINT('',(-2.,15.05,1.5));
#1535 = CIRCLE('',#1536,1.5);
#1536 = AXIS2_PLACEMENT_3D('',#1537,#1538,#1539);
#1537 = CARTESIAN_POINT('',(-2.,15.05,3.552713678801E-14));
#1538 = DIRECTION('',(-1.,0.,2.2E-16));
#1539 = DIRECTION('',(2.2E-16,0.,1.));
#1540 = FACE_BOUND('',#1541,.T.);
#1541 = EDGE_LOOP('',(#1542));
#1542 = ORIENTED_EDGE('',*,*,#729,.F.);
#1543 = FACE_BOUND('',#1544,.T.);
#1544 = EDGE_LOOP('',(#1545));
#1545 = ORIENTED_EDGE('',*,*,#754,.F.);
#1546 = PLANE('',#1547);
#1547 = AXIS2_PLACEMENT_3D('',#1548,#1549,#1550);
#1548 = CARTESIAN_POINT('',(-2.,38.095960291804,2.1777947066));
#1549 = DIRECTION('',(-1.,0.,2.2E-16));
#1550 = DIRECTION('',(2.2E-16,0.,1.));
#1551 = ADVANCED_FACE('',(#1552),#1571,.F.);
#1552 = FACE_BOUND('',#1553,.F.);
#1553 = EDGE_LOOP('',(#1554,#1555,#1563,#1570));
#1554 = ORIENTED_EDGE('',*,*,#1532,.F.);
#1555 = ORIENTED_EDGE('',*,*,#1556,.T.);
#1556 = EDGE_CURVE('',#1533,#1557,#1559,.T.);
#1557 = VERTEX_POINT('',#1558);
#1558 = CARTESIAN_POINT('',(1.5,15.05,1.5));
#1559 = LINE('',#1560,#1561);
#1560 = CARTESIAN_POINT('',(-2.,15.05,1.5));
#1561 = VECTOR('',#1562,1.);
#1562 = DIRECTION('',(1.,0.,-3.3E-16));
#1563 = ORIENTED_EDGE('',*,*,#1564,.T.);
#1564 = EDGE_CURVE('',#1557,#1557,#1565,.T.);
#1565 = CIRCLE('',#1566,1.5);
#1566 = AXIS2_PLACEMENT_3D('',#1567,#1568,#1569);
#1567 = CARTESIAN_POINT('',(1.5,15.05,3.548E-14));
#1568 = DIRECTION('',(-1.,0.,3.3E-16));
#1569 = DIRECTION('',(3.3E-16,0.,1.));
#1570 = ORIENTED_EDGE('',*,*,#1556,.F.);
#1571 = CYLINDRICAL_SURFACE('',#1572,1.5);
#1572 = AXIS2_PLACEMENT_3D('',#1573,#1574,#1575);
#1573 = CARTESIAN_POINT('',(-2.,15.05,3.665E-14));
#1574 = DIRECTION('',(-1.,0.,3.3E-16));
#1575 = DIRECTION('',(3.3E-16,0.,1.));
#1576 = ADVANCED_FACE('',(#1577),#1588,.T.);
#1577 = FACE_BOUND('',#1578,.T.);
#1578 = EDGE_LOOP('',(#1579,#1580,#1581,#1587));
#1579 = ORIENTED_EDGE('',*,*,#1501,.T.);
#1580 = ORIENTED_EDGE('',*,*,#359,.T.);
#1581 = ORIENTED_EDGE('',*,*,#1582,.F.);
#1582 = EDGE_CURVE('',#303,#360,#1583,.T.);
#1583 = LINE('',#1584,#1585);
#1584 = CARTESIAN_POINT('',(1.5,20.05,-3.));
#1585 = VECTOR('',#1586,1.);
#1586 = DIRECTION('',(0.,1.,0.));
#1587 = ORIENTED_EDGE('',*,*,#319,.F.);
#1588 = PLANE('',#1589);
#1589 = AXIS2_PLACEMENT_3D('',#1590,#1591,#1592);
#1590 = CARTESIAN_POINT('',(-0.25,15.05740293532,-3.));
#1591 = DIRECTION('',(-2.2E-16,-0.,-1.));
#1592 = DIRECTION('',(1.,0.,-2.2E-16));
#1593 = ADVANCED_FACE('',(#1594,#1601),#1604,.T.);
#1594 = FACE_BOUND('',#1595,.T.);
#1595 = EDGE_LOOP('',(#1596,#1597,#1598,#1599,#1600));
#1596 = ORIENTED_EDGE('',*,*,#1582,.T.);
#1597 = ORIENTED_EDGE('',*,*,#367,.F.);
#1598 = ORIENTED_EDGE('',*,*,#240,.T.);
#1599 = ORIENTED_EDGE('',*,*,#271,.T.);
#1600 = ORIENTED_EDGE('',*,*,#302,.F.);
#1601 = FACE_BOUND('',#1602,.T.);
#1602 = EDGE_LOOP('',(#1603));
#1603 = ORIENTED_EDGE('',*,*,#1564,.T.);
#1604 = PLANE('',#1605);
#1605 = AXIS2_PLACEMENT_3D('',#1606,#1607,#1608);
#1606 = CARTESIAN_POINT('',(1.5,15.052441536173,-1.412815486401E-03));
#1607 = DIRECTION('',(1.,-0.,-2.2E-16));
#1608 = DIRECTION('',(-2.2E-16,0.,-1.));
#1609 = ( GEOMETRIC_REPRESENTATION_CONTEXT(3) 
GLOBAL_UNCERTAINTY_ASSIGNED_CONTEXT((#1613)) 
GLOBAL_UNIT_ASSIGNED_CONTEXT((#1610,#1611,#1612)) REPRESENTATION_CONTEXT
('Context #1','3D Context with UNIT and UNCERTAINTY') );
#1610 = ( LENGTH_UNIT() NAMED_UNIT(*) SI_UNIT(.MILLI.,.METRE.) );
#1611 = ( NAMED_UNIT(*) PLANE_ANGLE_UNIT() SI_UNIT($,.RADIAN.) );
#1612 = ( NAMED_UNIT(*) SI_UNIT($,.STERADIAN.) SOLID_ANGLE_UNIT() );
#1613 = UNCERTAINTY_MEASURE_WITH_UNIT(LENGTH_MEASURE(1.E-06),#1610,
  'distance_accuracy_value','confusion accuracy');
#1614 = PRODUCT_RELATED_PRODUCT_CATEGORY('part',$,(#7));
#1615 = MECHANICAL_DESIGN_GEOMETRIC_PRESENTATION_REPRESENTATION('',(
    #1616),#1609);
#1616 = STYLED_ITEM('color',(#1617),#15);
#1617 = PRESENTATION_STYLE_ASSIGNMENT((#1618,#1624));
#1618 = SURFACE_STYLE_USAGE(.BOTH.,#1619);
#1619 = SURFACE_SIDE_STYLE('',(#1620));
#1620 = SURFACE_STYLE_FILL_AREA(#1621);
#1621 = FILL_AREA_STYLE('',(#1622));
#1622 = FILL_AREA_STYLE_COLOUR('',#1623);
#1623 = COLOUR_RGB('',0.101960784187,0.513725522276,0.83137256512);
#1624 = CURVE_STYLE('',#1625,POSITIVE_LENGTH_MEASURE(0.1),#1626);
#1625 = DRAUGHTING_PRE_DEFINED_CURVE_FONT('continuous');
#1626 = COLOUR_RGB('',9.803921802644E-02,9.803921802644E-02,
  9.803921802644E-02);
ENDSEC;
END-ISO-10303-21;
