ISO-10303-21;
HEADER;
FILE_DESCRIPTION(('FreeCAD Model'),'2;1');
FILE_NAME('Open CASCADE Shape Model','2025-11-04T09:15:37',(''),(''),
  'Open CASCADE STEP processor 7.9','FreeCAD','Unknown');
FILE_SCHEMA(('AUTOMOTIVE_DESIGN { 1 0 10303 214 1 1 1 1 }'));
ENDSEC;
DATA;
#1 = APPLICATION_PROTOCOL_DEFINITION('international standard',
  'automotive_design',2000,#2);
#2 = APPLICATION_CONTEXT(
  'core data for automotive mechanical design processes');
#3 = SHAPE_DEFINITION_REPRESENTATION(#4,#10);
#4 = PRODUCT_DEFINITION_SHAPE('','',#5);
#5 = PRODUCT_DEFINITION('design','',#6,#9);
#6 = PRODUCT_DEFINITION_FORMATION('','',#7);
#7 = PRODUCT('Bed spacer','Bed spacer','',(#8));
#8 = PRODUCT_CONTEXT('',#2,'mechanical');
#9 = PRODUCT_DEFINITION_CONTEXT('part definition',#2,'design');
#10 = ADVANCED_BREP_SHAPE_REPRESENTATION('',(#11,#15),#445);
#11 = AXIS2_PLACEMENT_3D('',#12,#13,#14);
#12 = CARTESIAN_POINT('',(0.,0.,0.));
#13 = DIRECTION('',(0.,0.,1.));
#14 = DIRECTION('',(1.,0.,-0.));
#15 = MANIFOLD_SOLID_BREP('',#16);
#16 = CLOSED_SHELL('',(#17,#57,#88,#119,#141,#183,#214,#247,#269,#311,
    #342,#375,#397,#421));
#17 = ADVANCED_FACE('',(#18),#52,.F.);
#18 = FACE_BOUND('',#19,.F.);
#19 = EDGE_LOOP('',(#20,#30,#38,#46));
#20 = ORIENTED_EDGE('',*,*,#21,.T.);
#21 = EDGE_CURVE('',#22,#24,#26,.T.);
#22 = VERTEX_POINT('',#23);
#23 = CARTESIAN_POINT('',(13.5,-111.9,-18.));
#24 = VERTEX_POINT('',#25);
#25 = CARTESIAN_POINT('',(13.5,-111.9,-12.));
#26 = LINE('',#27,#28);
#27 = CARTESIAN_POINT('',(13.5,-111.9,-18.));
#28 = VECTOR('',#29,1.);
#29 = DIRECTION('',(1.2E-16,0.,1.));
#30 = ORIENTED_EDGE('',*,*,#31,.T.);
#31 = EDGE_CURVE('',#24,#32,#34,.T.);
#32 = VERTEX_POINT('',#33);
#33 = CARTESIAN_POINT('',(13.5,-83.,-12.));
#34 = LINE('',#35,#36);
#35 = CARTESIAN_POINT('',(13.5,-111.9,-12.));
#36 = VECTOR('',#37,1.);
#37 = DIRECTION('',(0.,1.,0.));
#38 = ORIENTED_EDGE('',*,*,#39,.F.);
#39 = EDGE_CURVE('',#40,#32,#42,.T.);
#40 = VERTEX_POINT('',#41);
#41 = CARTESIAN_POINT('',(13.5,-83.,-18.));
#42 = LINE('',#43,#44);
#43 = CARTESIAN_POINT('',(13.5,-83.,-18.));
#44 = VECTOR('',#45,1.);
#45 = DIRECTION('',(1.2E-16,0.,1.));
#46 = ORIENTED_EDGE('',*,*,#47,.F.);
#47 = EDGE_CURVE('',#22,#40,#48,.T.);
#48 = LINE('',#49,#50);
#49 = CARTESIAN_POINT('',(13.5,-111.9,-18.));
#50 = VECTOR('',#51,1.);
#51 = DIRECTION('',(0.,1.,0.));
#52 = PLANE('',#53);
#53 = AXIS2_PLACEMENT_3D('',#54,#55,#56);
#54 = CARTESIAN_POINT('',(13.5,-111.9,-18.));
#55 = DIRECTION('',(-1.,0.,1.2E-16));
#56 = DIRECTION('',(0.,1.,0.));
#57 = ADVANCED_FACE('',(#58),#83,.F.);
#58 = FACE_BOUND('',#59,.F.);
#59 = EDGE_LOOP('',(#60,#61,#69,#77));
#60 = ORIENTED_EDGE('',*,*,#39,.T.);
#61 = ORIENTED_EDGE('',*,*,#62,.T.);
#62 = EDGE_CURVE('',#32,#63,#65,.T.);
#63 = VERTEX_POINT('',#64);
#64 = CARTESIAN_POINT('',(-13.5,-83.,-12.));
#65 = LINE('',#66,#67);
#66 = CARTESIAN_POINT('',(13.5,-83.,-12.));
#67 = VECTOR('',#68,1.);
#68 = DIRECTION('',(-1.,0.,0.));
#69 = ORIENTED_EDGE('',*,*,#70,.F.);
#70 = EDGE_CURVE('',#71,#63,#73,.T.);
#71 = VERTEX_POINT('',#72);
#72 = CARTESIAN_POINT('',(-13.5,-83.,-18.));
#73 = LINE('',#74,#75);
#74 = CARTESIAN_POINT('',(-13.5,-83.,-18.));
#75 = VECTOR('',#76,1.);
#76 = DIRECTION('',(1.2E-16,0.,1.));
#77 = ORIENTED_EDGE('',*,*,#78,.F.);
#78 = EDGE_CURVE('',#40,#71,#79,.T.);
#79 = LINE('',#80,#81);
#80 = CARTESIAN_POINT('',(13.5,-83.,-18.));
#81 = VECTOR('',#82,1.);
#82 = DIRECTION('',(-1.,0.,0.));
#83 = PLANE('',#84);
#84 = AXIS2_PLACEMENT_3D('',#85,#86,#87);
#85 = CARTESIAN_POINT('',(13.5,-83.,-18.));
#86 = DIRECTION('',(-0.,-1.,0.));
#87 = DIRECTION('',(-1.,0.,1.2E-16));
#88 = ADVANCED_FACE('',(#89),#114,.F.);
#89 = FACE_BOUND('',#90,.F.);
#90 = EDGE_LOOP('',(#91,#92,#100,#108));
#91 = ORIENTED_EDGE('',*,*,#70,.T.);
#92 = ORIENTED_EDGE('',*,*,#93,.T.);
#93 = EDGE_CURVE('',#63,#94,#96,.T.);
#94 = VERTEX_POINT('',#95);
#95 = CARTESIAN_POINT('',(-13.5,-111.9,-12.));
#96 = LINE('',#97,#98);
#97 = CARTESIAN_POINT('',(-13.5,-83.,-12.));
#98 = VECTOR('',#99,1.);
#99 = DIRECTION('',(0.,-1.,0.));
#100 = ORIENTED_EDGE('',*,*,#101,.F.);
#101 = EDGE_CURVE('',#102,#94,#104,.T.);
#102 = VERTEX_POINT('',#103);
#103 = CARTESIAN_POINT('',(-13.5,-111.9,-18.));
#104 = LINE('',#105,#106);
#105 = CARTESIAN_POINT('',(-13.5,-111.9,-18.));
#106 = VECTOR('',#107,1.);
#107 = DIRECTION('',(1.2E-16,0.,1.));
#108 = ORIENTED_EDGE('',*,*,#109,.F.);
#109 = EDGE_CURVE('',#71,#102,#110,.T.);
#110 = LINE('',#111,#112);
#111 = CARTESIAN_POINT('',(-13.5,-83.,-18.));
#112 = VECTOR('',#113,1.);
#113 = DIRECTION('',(0.,-1.,0.));
#114 = PLANE('',#115);
#115 = AXIS2_PLACEMENT_3D('',#116,#117,#118);
#116 = CARTESIAN_POINT('',(-13.5,-83.,-18.));
#117 = DIRECTION('',(1.,0.,-1.2E-16));
#118 = DIRECTION('',(0.,-1.,0.));
#119 = ADVANCED_FACE('',(#120),#136,.F.);
#120 = FACE_BOUND('',#121,.F.);
#121 = EDGE_LOOP('',(#122,#123,#129,#130));
#122 = ORIENTED_EDGE('',*,*,#101,.T.);
#123 = ORIENTED_EDGE('',*,*,#124,.T.);
#124 = EDGE_CURVE('',#94,#24,#125,.T.);
#125 = LINE('',#126,#127);
#126 = CARTESIAN_POINT('',(-13.5,-111.9,-12.));
#127 = VECTOR('',#128,1.);
#128 = DIRECTION('',(1.,0.,0.));
#129 = ORIENTED_EDGE('',*,*,#21,.F.);
#130 = ORIENTED_EDGE('',*,*,#131,.F.);
#131 = EDGE_CURVE('',#102,#22,#132,.T.);
#132 = LINE('',#133,#134);
#133 = CARTESIAN_POINT('',(-13.5,-111.9,-18.));
#134 = VECTOR('',#135,1.);
#135 = DIRECTION('',(1.,0.,0.));
#136 = PLANE('',#137);
#137 = AXIS2_PLACEMENT_3D('',#138,#139,#140);
#138 = CARTESIAN_POINT('',(-13.5,-111.9,-18.));
#139 = DIRECTION('',(0.,1.,0.));
#140 = DIRECTION('',(1.,0.,-1.2E-16));
#141 = ADVANCED_FACE('',(#142),#178,.F.);
#142 = FACE_BOUND('',#143,.T.);
#143 = EDGE_LOOP('',(#144,#154,#163,#171));
#144 = ORIENTED_EDGE('',*,*,#145,.T.);
#145 = EDGE_CURVE('',#146,#148,#150,.T.);
#146 = VERTEX_POINT('',#147);
#147 = CARTESIAN_POINT('',(-12.,-104.95,-18.));
#148 = VERTEX_POINT('',#149);
#149 = CARTESIAN_POINT('',(-12.,-104.95,-12.));
#150 = LINE('',#151,#152);
#151 = CARTESIAN_POINT('',(-12.,-104.95,-18.));
#152 = VECTOR('',#153,1.);
#153 = DIRECTION('',(1.2E-16,0.,1.));
#154 = ORIENTED_EDGE('',*,*,#155,.T.);
#155 = EDGE_CURVE('',#148,#156,#158,.T.);
#156 = VERTEX_POINT('',#157);
#157 = CARTESIAN_POINT('',(-8.,-104.95,-12.));
#158 = CIRCLE('',#159,2.);
#159 = AXIS2_PLACEMENT_3D('',#160,#161,#162);
#160 = CARTESIAN_POINT('',(-10.,-104.95,-12.));
#161 = DIRECTION('',(0.,0.,1.));
#162 = DIRECTION('',(-1.,0.,0.));
#163 = ORIENTED_EDGE('',*,*,#164,.F.);
#164 = EDGE_CURVE('',#165,#156,#167,.T.);
#165 = VERTEX_POINT('',#166);
#166 = CARTESIAN_POINT('',(-8.,-104.95,-18.));
#167 = LINE('',#168,#169);
#168 = CARTESIAN_POINT('',(-8.,-104.95,-18.));
#169 = VECTOR('',#170,1.);
#170 = DIRECTION('',(1.2E-16,0.,1.));
#171 = ORIENTED_EDGE('',*,*,#172,.F.);
#172 = EDGE_CURVE('',#146,#165,#173,.T.);
#173 = CIRCLE('',#174,2.);
#174 = AXIS2_PLACEMENT_3D('',#175,#176,#177);
#175 = CARTESIAN_POINT('',(-10.,-104.95,-18.));
#176 = DIRECTION('',(0.,0.,1.));
#177 = DIRECTION('',(-1.,0.,0.));
#178 = CYLINDRICAL_SURFACE('',#179,2.);
#179 = AXIS2_PLACEMENT_3D('',#180,#181,#182);
#180 = CARTESIAN_POINT('',(-10.,-104.95,-18.));
#181 = DIRECTION('',(-1.2E-16,0.,-1.));
#182 = DIRECTION('',(-1.,0.,1.2E-16));
#183 = ADVANCED_FACE('',(#184),#209,.T.);
#184 = FACE_BOUND('',#185,.T.);
#185 = EDGE_LOOP('',(#186,#187,#195,#203));
#186 = ORIENTED_EDGE('',*,*,#164,.T.);
#187 = ORIENTED_EDGE('',*,*,#188,.T.);
#188 = EDGE_CURVE('',#156,#189,#191,.T.);
#189 = VERTEX_POINT('',#190);
#190 = CARTESIAN_POINT('',(-8.,-89.95,-12.));
#191 = LINE('',#192,#193);
#192 = CARTESIAN_POINT('',(-8.,-104.95,-12.));
#193 = VECTOR('',#194,1.);
#194 = DIRECTION('',(0.,1.,0.));
#195 = ORIENTED_EDGE('',*,*,#196,.F.);
#196 = EDGE_CURVE('',#197,#189,#199,.T.);
#197 = VERTEX_POINT('',#198);
#198 = CARTESIAN_POINT('',(-8.,-89.95,-18.));
#199 = LINE('',#200,#201);
#200 = CARTESIAN_POINT('',(-8.,-89.95,-18.));
#201 = VECTOR('',#202,1.);
#202 = DIRECTION('',(1.2E-16,0.,1.));
#203 = ORIENTED_EDGE('',*,*,#204,.F.);
#204 = EDGE_CURVE('',#165,#197,#205,.T.);
#205 = LINE('',#206,#207);
#206 = CARTESIAN_POINT('',(-8.,-104.95,-18.));
#207 = VECTOR('',#208,1.);
#208 = DIRECTION('',(0.,1.,0.));
#209 = PLANE('',#210);
#210 = AXIS2_PLACEMENT_3D('',#211,#212,#213);
#211 = CARTESIAN_POINT('',(-8.,-104.95,-18.));
#212 = DIRECTION('',(-1.,0.,1.2E-16));
#213 = DIRECTION('',(0.,1.,0.));
#214 = ADVANCED_FACE('',(#215),#242,.F.);
#215 = FACE_BOUND('',#216,.T.);
#216 = EDGE_LOOP('',(#217,#218,#227,#235));
#217 = ORIENTED_EDGE('',*,*,#196,.T.);
#218 = ORIENTED_EDGE('',*,*,#219,.T.);
#219 = EDGE_CURVE('',#189,#220,#222,.T.);
#220 = VERTEX_POINT('',#221);
#221 = CARTESIAN_POINT('',(-12.,-89.95,-12.));
#222 = CIRCLE('',#223,2.);
#223 = AXIS2_PLACEMENT_3D('',#224,#225,#226);
#224 = CARTESIAN_POINT('',(-10.,-89.95,-12.));
#225 = DIRECTION('',(0.,0.,1.));
#226 = DIRECTION('',(-1.,0.,0.));
#227 = ORIENTED_EDGE('',*,*,#228,.F.);
#228 = EDGE_CURVE('',#229,#220,#231,.T.);
#229 = VERTEX_POINT('',#230);
#230 = CARTESIAN_POINT('',(-12.,-89.95,-18.));
#231 = LINE('',#232,#233);
#232 = CARTESIAN_POINT('',(-12.,-89.95,-18.));
#233 = VECTOR('',#234,1.);
#234 = DIRECTION('',(1.2E-16,0.,1.));
#235 = ORIENTED_EDGE('',*,*,#236,.F.);
#236 = EDGE_CURVE('',#197,#229,#237,.T.);
#237 = CIRCLE('',#238,2.);
#238 = AXIS2_PLACEMENT_3D('',#239,#240,#241);
#239 = CARTESIAN_POINT('',(-10.,-89.95,-18.));
#240 = DIRECTION('',(0.,0.,1.));
#241 = DIRECTION('',(-1.,0.,0.));
#242 = CYLINDRICAL_SURFACE('',#243,2.);
#243 = AXIS2_PLACEMENT_3D('',#244,#245,#246);
#244 = CARTESIAN_POINT('',(-10.,-89.95,-18.));
#245 = DIRECTION('',(-1.2E-16,0.,-1.));
#246 = DIRECTION('',(-1.,0.,1.2E-16));
#247 = ADVANCED_FACE('',(#248),#264,.F.);
#248 = FACE_BOUND('',#249,.F.);
#249 = EDGE_LOOP('',(#250,#251,#257,#258));
#250 = ORIENTED_EDGE('',*,*,#145,.T.);
#251 = ORIENTED_EDGE('',*,*,#252,.T.);
#252 = EDGE_CURVE('',#148,#220,#253,.T.);
#253 = LINE('',#254,#255);
#254 = CARTESIAN_POINT('',(-12.,-104.95,-12.));
#255 = VECTOR('',#256,1.);
#256 = DIRECTION('',(0.,1.,0.));
#257 = ORIENTED_EDGE('',*,*,#228,.F.);
#258 = ORIENTED_EDGE('',*,*,#259,.F.);
#259 = EDGE_CURVE('',#146,#229,#260,.T.);
#260 = LINE('',#261,#262);
#261 = CARTESIAN_POINT('',(-12.,-104.95,-18.));
#262 = VECTOR('',#263,1.);
#263 = DIRECTION('',(0.,1.,0.));
#264 = PLANE('',#265);
#265 = AXIS2_PLACEMENT_3D('',#266,#267,#268);
#266 = CARTESIAN_POINT('',(-12.,-104.95,-18.));
#267 = DIRECTION('',(-1.,0.,1.2E-16));
#268 = DIRECTION('',(0.,1.,0.));
#269 = ADVANCED_FACE('',(#270),#306,.F.);
#270 = FACE_BOUND('',#271,.T.);
#271 = EDGE_LOOP('',(#272,#282,#291,#299));
#272 = ORIENTED_EDGE('',*,*,#273,.T.);
#273 = EDGE_CURVE('',#274,#276,#278,.T.);
#274 = VERTEX_POINT('',#275);
#275 = CARTESIAN_POINT('',(8.,-104.95,-18.));
#276 = VERTEX_POINT('',#277);
#277 = CARTESIAN_POINT('',(8.,-104.95,-12.));
#278 = LINE('',#279,#280);
#279 = CARTESIAN_POINT('',(8.,-104.95,-18.));
#280 = VECTOR('',#281,1.);
#281 = DIRECTION('',(1.2E-16,0.,1.));
#282 = ORIENTED_EDGE('',*,*,#283,.T.);
#283 = EDGE_CURVE('',#276,#284,#286,.T.);
#284 = VERTEX_POINT('',#285);
#285 = CARTESIAN_POINT('',(12.,-104.95,-12.));
#286 = CIRCLE('',#287,2.);
#287 = AXIS2_PLACEMENT_3D('',#288,#289,#290);
#288 = CARTESIAN_POINT('',(10.,-104.95,-12.));
#289 = DIRECTION('',(0.,0.,1.));
#290 = DIRECTION('',(-1.,0.,0.));
#291 = ORIENTED_EDGE('',*,*,#292,.F.);
#292 = EDGE_CURVE('',#293,#284,#295,.T.);
#293 = VERTEX_POINT('',#294);
#294 = CARTESIAN_POINT('',(12.,-104.95,-18.));
#295 = LINE('',#296,#297);
#296 = CARTESIAN_POINT('',(12.,-104.95,-18.));
#297 = VECTOR('',#298,1.);
#298 = DIRECTION('',(1.2E-16,0.,1.));
#299 = ORIENTED_EDGE('',*,*,#300,.F.);
#300 = EDGE_CURVE('',#274,#293,#301,.T.);
#301 = CIRCLE('',#302,2.);
#302 = AXIS2_PLACEMENT_3D('',#303,#304,#305);
#303 = CARTESIAN_POINT('',(10.,-104.95,-18.));
#304 = DIRECTION('',(0.,0.,1.));
#305 = DIRECTION('',(-1.,0.,0.));
#306 = CYLINDRICAL_SURFACE('',#307,2.);
#307 = AXIS2_PLACEMENT_3D('',#308,#309,#310);
#308 = CARTESIAN_POINT('',(10.,-104.95,-18.));
#309 = DIRECTION('',(-1.2E-16,0.,-1.));
#310 = DIRECTION('',(-1.,0.,1.2E-16));
#311 = ADVANCED_FACE('',(#312),#337,.T.);
#312 = FACE_BOUND('',#313,.T.);
#313 = EDGE_LOOP('',(#314,#315,#323,#331));
#314 = ORIENTED_EDGE('',*,*,#292,.T.);
#315 = ORIENTED_EDGE('',*,*,#316,.T.);
#316 = EDGE_CURVE('',#284,#317,#319,.T.);
#317 = VERTEX_POINT('',#318);
#318 = CARTESIAN_POINT('',(12.,-89.95,-12.));
#319 = LINE('',#320,#321);
#320 = CARTESIAN_POINT('',(12.,-104.95,-12.));
#321 = VECTOR('',#322,1.);
#322 = DIRECTION('',(0.,1.,0.));
#323 = ORIENTED_EDGE('',*,*,#324,.F.);
#324 = EDGE_CURVE('',#325,#317,#327,.T.);
#325 = VERTEX_POINT('',#326);
#326 = CARTESIAN_POINT('',(12.,-89.95,-18.));
#327 = LINE('',#328,#329);
#328 = CARTESIAN_POINT('',(12.,-89.95,-18.));
#329 = VECTOR('',#330,1.);
#330 = DIRECTION('',(1.2E-16,0.,1.));
#331 = ORIENTED_EDGE('',*,*,#332,.F.);
#332 = EDGE_CURVE('',#293,#325,#333,.T.);
#333 = LINE('',#334,#335);
#334 = CARTESIAN_POINT('',(12.,-104.95,-18.));
#335 = VECTOR('',#336,1.);
#336 = DIRECTION('',(0.,1.,0.));
#337 = PLANE('',#338);
#338 = AXIS2_PLACEMENT_3D('',#339,#340,#341);
#339 = CARTESIAN_POINT('',(12.,-104.95,-18.));
#340 = DIRECTION('',(-1.,0.,1.2E-16));
#341 = DIRECTION('',(0.,1.,0.));
#342 = ADVANCED_FACE('',(#343),#370,.F.);
#343 = FACE_BOUND('',#344,.T.);
#344 = EDGE_LOOP('',(#345,#346,#355,#363));
#345 = ORIENTED_EDGE('',*,*,#324,.T.);
#346 = ORIENTED_EDGE('',*,*,#347,.T.);
#347 = EDGE_CURVE('',#317,#348,#350,.T.);
#348 = VERTEX_POINT('',#349);
#349 = CARTESIAN_POINT('',(8.,-89.95,-12.));
#350 = CIRCLE('',#351,2.);
#351 = AXIS2_PLACEMENT_3D('',#352,#353,#354);
#352 = CARTESIAN_POINT('',(10.,-89.95,-12.));
#353 = DIRECTION('',(0.,0.,1.));
#354 = DIRECTION('',(-1.,0.,0.));
#355 = ORIENTED_EDGE('',*,*,#356,.F.);
#356 = EDGE_CURVE('',#357,#348,#359,.T.);
#357 = VERTEX_POINT('',#358);
#358 = CARTESIAN_POINT('',(8.,-89.95,-18.));
#359 = LINE('',#360,#361);
#360 = CARTESIAN_POINT('',(8.,-89.95,-18.));
#361 = VECTOR('',#362,1.);
#362 = DIRECTION('',(1.2E-16,0.,1.));
#363 = ORIENTED_EDGE('',*,*,#364,.F.);
#364 = EDGE_CURVE('',#325,#357,#365,.T.);
#365 = CIRCLE('',#366,2.);
#366 = AXIS2_PLACEMENT_3D('',#367,#368,#369);
#367 = CARTESIAN_POINT('',(10.,-89.95,-18.));
#368 = DIRECTION('',(0.,0.,1.));
#369 = DIRECTION('',(-1.,0.,0.));
#370 = CYLINDRICAL_SURFACE('',#371,2.);
#371 = AXIS2_PLACEMENT_3D('',#372,#373,#374);
#372 = CARTESIAN_POINT('',(10.,-89.95,-18.));
#373 = DIRECTION('',(-1.2E-16,0.,-1.));
#374 = DIRECTION('',(-1.,0.,1.2E-16));
#375 = ADVANCED_FACE('',(#376),#392,.F.);
#376 = FACE_BOUND('',#377,.F.);
#377 = EDGE_LOOP('',(#378,#379,#385,#386));
#378 = ORIENTED_EDGE('',*,*,#273,.T.);
#379 = ORIENTED_EDGE('',*,*,#380,.T.);
#380 = EDGE_CURVE('',#276,#348,#381,.T.);
#381 = LINE('',#382,#383);
#382 = CARTESIAN_POINT('',(8.,-104.95,-12.));
#383 = VECTOR('',#384,1.);
#384 = DIRECTION('',(0.,1.,0.));
#385 = ORIENTED_EDGE('',*,*,#356,.F.);
#386 = ORIENTED_EDGE('',*,*,#387,.F.);
#387 = EDGE_CURVE('',#274,#357,#388,.T.);
#388 = LINE('',#389,#390);
#389 = CARTESIAN_POINT('',(8.,-104.95,-18.));
#390 = VECTOR('',#391,1.);
#391 = DIRECTION('',(0.,1.,0.));
#392 = PLANE('',#393);
#393 = AXIS2_PLACEMENT_3D('',#394,#395,#396);
#394 = CARTESIAN_POINT('',(8.,-104.95,-18.));
#395 = DIRECTION('',(-1.,0.,1.2E-16));
#396 = DIRECTION('',(0.,1.,0.));
#397 = ADVANCED_FACE('',(#398,#404,#410),#416,.F.);
#398 = FACE_BOUND('',#399,.F.);
#399 = EDGE_LOOP('',(#400,#401,#402,#403));
#400 = ORIENTED_EDGE('',*,*,#47,.T.);
#401 = ORIENTED_EDGE('',*,*,#78,.T.);
#402 = ORIENTED_EDGE('',*,*,#109,.T.);
#403 = ORIENTED_EDGE('',*,*,#131,.T.);
#404 = FACE_BOUND('',#405,.T.);
#405 = EDGE_LOOP('',(#406,#407,#408,#409));
#406 = ORIENTED_EDGE('',*,*,#172,.T.);
#407 = ORIENTED_EDGE('',*,*,#204,.T.);
#408 = ORIENTED_EDGE('',*,*,#236,.T.);
#409 = ORIENTED_EDGE('',*,*,#259,.F.);
#410 = FACE_BOUND('',#411,.T.);
#411 = EDGE_LOOP('',(#412,#413,#414,#415));
#412 = ORIENTED_EDGE('',*,*,#300,.T.);
#413 = ORIENTED_EDGE('',*,*,#332,.T.);
#414 = ORIENTED_EDGE('',*,*,#364,.T.);
#415 = ORIENTED_EDGE('',*,*,#387,.F.);
#416 = PLANE('',#417);
#417 = AXIS2_PLACEMENT_3D('',#418,#419,#420);
#418 = CARTESIAN_POINT('',(8.24E-15,-97.45,-18.));
#419 = DIRECTION('',(0.,0.,1.));
#420 = DIRECTION('',(1.,0.,0.));
#421 = ADVANCED_FACE('',(#422,#428,#434),#440,.T.);
#422 = FACE_BOUND('',#423,.T.);
#423 = EDGE_LOOP('',(#424,#425,#426,#427));
#424 = ORIENTED_EDGE('',*,*,#31,.T.);
#425 = ORIENTED_EDGE('',*,*,#62,.T.);
#426 = ORIENTED_EDGE('',*,*,#93,.T.);
#427 = ORIENTED_EDGE('',*,*,#124,.T.);
#428 = FACE_BOUND('',#429,.F.);
#429 = EDGE_LOOP('',(#430,#431,#432,#433));
#430 = ORIENTED_EDGE('',*,*,#155,.T.);
#431 = ORIENTED_EDGE('',*,*,#188,.T.);
#432 = ORIENTED_EDGE('',*,*,#219,.T.);
#433 = ORIENTED_EDGE('',*,*,#252,.F.);
#434 = FACE_BOUND('',#435,.F.);
#435 = EDGE_LOOP('',(#436,#437,#438,#439));
#436 = ORIENTED_EDGE('',*,*,#283,.T.);
#437 = ORIENTED_EDGE('',*,*,#316,.T.);
#438 = ORIENTED_EDGE('',*,*,#347,.T.);
#439 = ORIENTED_EDGE('',*,*,#380,.F.);
#440 = PLANE('',#441);
#441 = AXIS2_PLACEMENT_3D('',#442,#443,#444);
#442 = CARTESIAN_POINT('',(7.24E-15,-97.45,-12.));
#443 = DIRECTION('',(0.,0.,1.));
#444 = DIRECTION('',(1.,0.,0.));
#445 = ( GEOMETRIC_REPRESENTATION_CONTEXT(3) 
GLOBAL_UNCERTAINTY_ASSIGNED_CONTEXT((#449)) GLOBAL_UNIT_ASSIGNED_CONTEXT
((#446,#447,#448)) REPRESENTATION_CONTEXT('Context #1',
  '3D Context with UNIT and UNCERTAINTY') );
#446 = ( LENGTH_UNIT() NAMED_UNIT(*) SI_UNIT(.MILLI.,.METRE.) );
#447 = ( NAMED_UNIT(*) PLANE_ANGLE_UNIT() SI_UNIT($,.RADIAN.) );
#448 = ( NAMED_UNIT(*) SI_UNIT($,.STERADIAN.) SOLID_ANGLE_UNIT() );
#449 = UNCERTAINTY_MEASURE_WITH_UNIT(LENGTH_MEASURE(1.E-07),#446,
  'distance_accuracy_value','confusion accuracy');
#450 = PRODUCT_RELATED_PRODUCT_CATEGORY('part',$,(#7));
#451 = MECHANICAL_DESIGN_GEOMETRIC_PRESENTATION_REPRESENTATION('',(#452)
  ,#445);
#452 = STYLED_ITEM('color',(#453),#15);
#453 = PRESENTATION_STYLE_ASSIGNMENT((#454,#460));
#454 = SURFACE_STYLE_USAGE(.BOTH.,#455);
#455 = SURFACE_SIDE_STYLE('',(#456));
#456 = SURFACE_STYLE_FILL_AREA(#457);
#457 = FILL_AREA_STYLE('',(#458));
#458 = FILL_AREA_STYLE_COLOUR('',#459);
#459 = COLOUR_RGB('',0.666666687201,0.,1.);
#460 = CURVE_STYLE('',#461,POSITIVE_LENGTH_MEASURE(0.1),#462);
#461 = DRAUGHTING_PRE_DEFINED_CURVE_FONT('continuous');
#462 = COLOUR_RGB('',9.803921802644E-02,9.803921802644E-02,
  9.803921802644E-02);
ENDSEC;
END-ISO-10303-21;
