ISO-10303-21;
HEADER;
FILE_DESCRIPTION(('FreeCAD Model'),'2;1');
FILE_NAME('Open CASCADE Shape Model','2025-11-04T09:08:40',(''),(''),
  'Open CASCADE STEP processor 7.9','FreeCAD','Unknown');
FILE_SCHEMA(('AUTOMOTIVE_DESIGN { 1 0 10303 214 1 1 1 1 }'));
ENDSEC;
DATA;
#1 = APPLICATION_PROTOCOL_DEFINITION('international standard',
  'automotive_design',2000,#2);
#2 = APPLICATION_CONTEXT(
  'core data for automotive mechanical design processes');
#3 = SHAPE_DEFINITION_REPRESENTATION(#4,#10);
#4 = PRODUCT_DEFINITION_SHAPE('','',#5);
#5 = PRODUCT_DEFINITION('design','',#6,#9);
#6 = PRODUCT_DEFINITION_FORMATION('','',#7);
#7 = PRODUCT('Support','Support','',(#8));
#8 = PRODUCT_CONTEXT('',#2,'mechanical');
#9 = PRODUCT_DEFINITION_CONTEXT('part definition',#2,'design');
#10 = ADVANCED_BREP_SHAPE_REPRESENTATION('',(#11,#15),#1524);
#11 = AXIS2_PLACEMENT_3D('',#12,#13,#14);
#12 = CARTESIAN_POINT('',(0.,0.,0.));
#13 = DIRECTION('',(0.,0.,1.));
#14 = DIRECTION('',(1.,0.,-0.));
#15 = MANIFOLD_SOLID_BREP('',#16);
#16 = CLOSED_SHELL('',(#17,#228,#275,#291,#308,#333,#373,#413,#437,#477,
    #517,#549,#573,#589,#615,#639,#679,#695,#712,#737,#793,#825,#849,
    #865,#891,#908,#933,#1069,#1086,#1098,#1132,#1163,#1187,#1211,#1256,
    #1280,#1304,#1321,#1352,#1376,#1400,#1417,#1434,#1446,#1467,#1488,
    #1506));
#17 = ADVANCED_FACE('',(#18,#212),#223,.T.);
#18 = FACE_BOUND('',#19,.T.);
#19 = EDGE_LOOP('',(#20,#30,#38,#46,#54,#62,#70,#78,#86,#94,#102,#110,
    #118,#126,#134,#142,#150,#158,#166,#174,#182,#190,#198,#206));
#20 = ORIENTED_EDGE('',*,*,#21,.F.);
#21 = EDGE_CURVE('',#22,#24,#26,.T.);
#22 = VERTEX_POINT('',#23);
#23 = CARTESIAN_POINT('',(-9.6,-300.,22.5));
#24 = VERTEX_POINT('',#25);
#25 = CARTESIAN_POINT('',(-9.,-300.,22.5));
#26 = LINE('',#27,#28);
#27 = CARTESIAN_POINT('',(-10.,-300.,22.5));
#28 = VECTOR('',#29,1.);
#29 = DIRECTION('',(1.,0.,0.));
#30 = ORIENTED_EDGE('',*,*,#31,.T.);
#31 = EDGE_CURVE('',#22,#32,#34,.T.);
#32 = VERTEX_POINT('',#33);
#33 = CARTESIAN_POINT('',(-9.6,-300.,33.5));
#34 = LINE('',#35,#36);
#35 = CARTESIAN_POINT('',(-9.6,-300.,22.5));
#36 = VECTOR('',#37,1.);
#37 = DIRECTION('',(0.,-1.22E-15,1.));
#38 = ORIENTED_EDGE('',*,*,#39,.F.);
#39 = EDGE_CURVE('',#40,#32,#42,.T.);
#40 = VERTEX_POINT('',#41);
#41 = CARTESIAN_POINT('',(-9.,-300.,33.5));
#42 = LINE('',#43,#44);
#43 = CARTESIAN_POINT('',(-6.,-300.,33.5));
#44 = VECTOR('',#45,1.);
#45 = DIRECTION('',(-1.,0.,0.));
#46 = ORIENTED_EDGE('',*,*,#47,.F.);
#47 = EDGE_CURVE('',#48,#40,#50,.T.);
#48 = VERTEX_POINT('',#49);
#49 = CARTESIAN_POINT('',(-9.,-300.,32.5));
#50 = LINE('',#51,#52);
#51 = CARTESIAN_POINT('',(-9.,-300.,33.5));
#52 = VECTOR('',#53,1.);
#53 = DIRECTION('',(0.,-4.4E-16,1.));
#54 = ORIENTED_EDGE('',*,*,#55,.F.);
#55 = EDGE_CURVE('',#56,#48,#58,.T.);
#56 = VERTEX_POINT('',#57);
#57 = CARTESIAN_POINT('',(-6.,-300.,32.5));
#58 = LINE('',#59,#60);
#59 = CARTESIAN_POINT('',(-6.,-300.,32.5));
#60 = VECTOR('',#61,1.);
#61 = DIRECTION('',(-1.,0.,0.));
#62 = ORIENTED_EDGE('',*,*,#63,.F.);
#63 = EDGE_CURVE('',#64,#56,#66,.T.);
#64 = VERTEX_POINT('',#65);
#65 = CARTESIAN_POINT('',(-6.,-300.,35.75));
#66 = LINE('',#67,#68);
#67 = CARTESIAN_POINT('',(-6.,-300.,15.602930267062));
#68 = VECTOR('',#69,1.);
#69 = DIRECTION('',(0.,1.17E-15,-1.));
#70 = ORIENTED_EDGE('',*,*,#71,.F.);
#71 = EDGE_CURVE('',#72,#64,#74,.T.);
#72 = VERTEX_POINT('',#73);
#73 = CARTESIAN_POINT('',(6.,-300.,35.75));
#74 = LINE('',#75,#76);
#75 = CARTESIAN_POINT('',(-5.,-300.,35.75));
#76 = VECTOR('',#77,1.);
#77 = DIRECTION('',(-1.,0.,-7.1E-16));
#78 = ORIENTED_EDGE('',*,*,#79,.T.);
#79 = EDGE_CURVE('',#72,#80,#82,.T.);
#80 = VERTEX_POINT('',#81);
#81 = CARTESIAN_POINT('',(6.,-300.,32.5));
#82 = LINE('',#83,#84);
#83 = CARTESIAN_POINT('',(6.,-300.,35.75));
#84 = VECTOR('',#85,1.);
#85 = DIRECTION('',(0.,6.7E-16,-1.));
#86 = ORIENTED_EDGE('',*,*,#87,.F.);
#87 = EDGE_CURVE('',#88,#80,#90,.T.);
#88 = VERTEX_POINT('',#89);
#89 = CARTESIAN_POINT('',(9.,-300.,32.5));
#90 = LINE('',#91,#92);
#91 = CARTESIAN_POINT('',(8.,-300.,32.5));
#92 = VECTOR('',#93,1.);
#93 = DIRECTION('',(-1.,0.,0.));
#94 = ORIENTED_EDGE('',*,*,#95,.T.);
#95 = EDGE_CURVE('',#88,#96,#98,.T.);
#96 = VERTEX_POINT('',#97);
#97 = CARTESIAN_POINT('',(9.,-300.,33.5));
#98 = LINE('',#99,#100);
#99 = CARTESIAN_POINT('',(9.,-300.,33.5));
#100 = VECTOR('',#101,1.);
#101 = DIRECTION('',(0.,-4.4E-16,1.));
#102 = ORIENTED_EDGE('',*,*,#103,.F.);
#103 = EDGE_CURVE('',#104,#96,#106,.T.);
#104 = VERTEX_POINT('',#105);
#105 = CARTESIAN_POINT('',(9.6,-300.,33.5));
#106 = LINE('',#107,#108);
#107 = CARTESIAN_POINT('',(10.,-300.,33.5));
#108 = VECTOR('',#109,1.);
#109 = DIRECTION('',(-1.,0.,0.));
#110 = ORIENTED_EDGE('',*,*,#111,.T.);
#111 = EDGE_CURVE('',#104,#112,#114,.T.);
#112 = VERTEX_POINT('',#113);
#113 = CARTESIAN_POINT('',(9.6,-300.,22.5));
#114 = LINE('',#115,#116);
#115 = CARTESIAN_POINT('',(9.6,-300.,33.5));
#116 = VECTOR('',#117,1.);
#117 = DIRECTION('',(0.,1.22E-15,-1.));
#118 = ORIENTED_EDGE('',*,*,#119,.F.);
#119 = EDGE_CURVE('',#120,#112,#122,.T.);
#120 = VERTEX_POINT('',#121);
#121 = CARTESIAN_POINT('',(9.,-300.,22.5));
#122 = LINE('',#123,#124);
#123 = CARTESIAN_POINT('',(6.,-300.,22.5));
#124 = VECTOR('',#125,1.);
#125 = DIRECTION('',(1.,0.,0.));
#126 = ORIENTED_EDGE('',*,*,#127,.T.);
#127 = EDGE_CURVE('',#120,#128,#130,.T.);
#128 = VERTEX_POINT('',#129);
#129 = CARTESIAN_POINT('',(9.,-300.,23.5));
#130 = LINE('',#131,#132);
#131 = CARTESIAN_POINT('',(9.,-300.,10.));
#132 = VECTOR('',#133,1.);
#133 = DIRECTION('',(0.,-4.4E-16,1.));
#134 = ORIENTED_EDGE('',*,*,#135,.F.);
#135 = EDGE_CURVE('',#136,#128,#138,.T.);
#136 = VERTEX_POINT('',#137);
#137 = CARTESIAN_POINT('',(6.,-300.,23.5));
#138 = LINE('',#139,#140);
#139 = CARTESIAN_POINT('',(6.,-300.,23.5));
#140 = VECTOR('',#141,1.);
#141 = DIRECTION('',(1.,0.,0.));
#142 = ORIENTED_EDGE('',*,*,#143,.F.);
#143 = EDGE_CURVE('',#144,#136,#146,.T.);
#144 = VERTEX_POINT('',#145);
#145 = CARTESIAN_POINT('',(6.,-300.,10.));
#146 = LINE('',#147,#148);
#147 = CARTESIAN_POINT('',(6.,-300.,28.477930267062));
#148 = VECTOR('',#149,1.);
#149 = DIRECTION('',(0.,-1.17E-15,1.));
#150 = ORIENTED_EDGE('',*,*,#151,.F.);
#151 = EDGE_CURVE('',#152,#144,#154,.T.);
#152 = VERTEX_POINT('',#153);
#153 = CARTESIAN_POINT('',(3.,-300.,10.));
#154 = LINE('',#155,#156);
#155 = CARTESIAN_POINT('',(5.,-300.,10.));
#156 = VECTOR('',#157,1.);
#157 = DIRECTION('',(1.,0.,0.));
#158 = ORIENTED_EDGE('',*,*,#159,.F.);
#159 = EDGE_CURVE('',#160,#152,#162,.T.);
#160 = VERTEX_POINT('',#161);
#161 = CARTESIAN_POINT('',(3.,-300.,19.));
#162 = LINE('',#163,#164);
#163 = CARTESIAN_POINT('',(3.,-300.,11.4375));
#164 = VECTOR('',#165,1.);
#165 = DIRECTION('',(0.,6.7E-16,-1.));
#166 = ORIENTED_EDGE('',*,*,#167,.F.);
#167 = EDGE_CURVE('',#168,#160,#170,.T.);
#168 = VERTEX_POINT('',#169);
#169 = CARTESIAN_POINT('',(-3.,-300.,19.));
#170 = LINE('',#171,#172);
#171 = CARTESIAN_POINT('',(1.5,-300.,19.));
#172 = VECTOR('',#173,1.);
#173 = DIRECTION('',(1.,0.,0.));
#174 = ORIENTED_EDGE('',*,*,#175,.F.);
#175 = EDGE_CURVE('',#176,#168,#178,.T.);
#176 = VERTEX_POINT('',#177);
#177 = CARTESIAN_POINT('',(-3.,-300.,10.));
#178 = LINE('',#179,#180);
#179 = CARTESIAN_POINT('',(-3.,-300.,15.9375));
#180 = VECTOR('',#181,1.);
#181 = DIRECTION('',(-5.E-17,-6.7E-16,1.));
#182 = ORIENTED_EDGE('',*,*,#183,.F.);
#183 = EDGE_CURVE('',#184,#176,#186,.T.);
#184 = VERTEX_POINT('',#185);
#185 = CARTESIAN_POINT('',(-6.,-300.,10.));
#186 = LINE('',#187,#188);
#187 = CARTESIAN_POINT('',(-1.5,-300.,10.));
#188 = VECTOR('',#189,1.);
#189 = DIRECTION('',(1.,0.,0.));
#190 = ORIENTED_EDGE('',*,*,#191,.T.);
#191 = EDGE_CURVE('',#184,#192,#194,.T.);
#192 = VERTEX_POINT('',#193);
#193 = CARTESIAN_POINT('',(-6.,-300.,23.5));
#194 = LINE('',#195,#196);
#195 = CARTESIAN_POINT('',(-6.,-300.,10.));
#196 = VECTOR('',#197,1.);
#197 = DIRECTION('',(0.,-6.7E-16,1.));
#198 = ORIENTED_EDGE('',*,*,#199,.F.);
#199 = EDGE_CURVE('',#200,#192,#202,.T.);
#200 = VERTEX_POINT('',#201);
#201 = CARTESIAN_POINT('',(-9.,-300.,23.5));
#202 = LINE('',#203,#204);
#203 = CARTESIAN_POINT('',(-8.,-300.,23.5));
#204 = VECTOR('',#205,1.);
#205 = DIRECTION('',(1.,0.,0.));
#206 = ORIENTED_EDGE('',*,*,#207,.F.);
#207 = EDGE_CURVE('',#24,#200,#208,.T.);
#208 = LINE('',#209,#210);
#209 = CARTESIAN_POINT('',(-9.,-300.,10.));
#210 = VECTOR('',#211,1.);
#211 = DIRECTION('',(0.,-4.4E-16,1.));
#212 = FACE_BOUND('',#213,.T.);
#213 = EDGE_LOOP('',(#214));
#214 = ORIENTED_EDGE('',*,*,#215,.T.);
#215 = EDGE_CURVE('',#216,#216,#218,.T.);
#216 = VERTEX_POINT('',#217);
#217 = CARTESIAN_POINT('',(1.75,-300.,28.));
#218 = CIRCLE('',#219,1.75);
#219 = AXIS2_PLACEMENT_3D('',#220,#221,#222);
#220 = CARTESIAN_POINT('',(0.,-300.,28.));
#221 = DIRECTION('',(0.,-1.,1.1E-16));
#222 = DIRECTION('',(1.,0.,0.));
#223 = PLANE('',#224);
#224 = AXIS2_PLACEMENT_3D('',#225,#226,#227);
#225 = CARTESIAN_POINT('',(-3.7E-16,-300.,21.205860534125));
#226 = DIRECTION('',(0.,1.,9.5E-16));
#227 = DIRECTION('',(0.,9.5E-16,-1.));
#228 = ADVANCED_FACE('',(#229),#270,.T.);
#229 = FACE_BOUND('',#230,.T.);
#230 = EDGE_LOOP('',(#231,#239,#240,#248,#256,#264));
#231 = ORIENTED_EDGE('',*,*,#232,.F.);
#232 = EDGE_CURVE('',#22,#233,#235,.T.);
#233 = VERTEX_POINT('',#234);
#234 = CARTESIAN_POINT('',(-9.6,-267.,22.5));
#235 = LINE('',#236,#237);
#236 = CARTESIAN_POINT('',(-9.6,-300.,22.5));
#237 = VECTOR('',#238,1.);
#238 = DIRECTION('',(0.,1.,1.22E-15));
#239 = ORIENTED_EDGE('',*,*,#21,.T.);
#240 = ORIENTED_EDGE('',*,*,#241,.T.);
#241 = EDGE_CURVE('',#24,#242,#244,.T.);
#242 = VERTEX_POINT('',#243);
#243 = CARTESIAN_POINT('',(-8.,-299.,22.5));
#244 = LINE('',#245,#246);
#245 = CARTESIAN_POINT('',(-9.,-300.,22.5));
#246 = VECTOR('',#247,1.);
#247 = DIRECTION('',(0.707106781187,0.707106781187,8.6E-16));
#248 = ORIENTED_EDGE('',*,*,#249,.T.);
#249 = EDGE_CURVE('',#242,#250,#252,.T.);
#250 = VERTEX_POINT('',#251);
#251 = CARTESIAN_POINT('',(-6.,-299.,22.5));
#252 = LINE('',#253,#254);
#253 = CARTESIAN_POINT('',(-8.,-299.,22.5));
#254 = VECTOR('',#255,1.);
#255 = DIRECTION('',(1.,0.,0.));
#256 = ORIENTED_EDGE('',*,*,#257,.T.);
#257 = EDGE_CURVE('',#250,#258,#260,.T.);
#258 = VERTEX_POINT('',#259);
#259 = CARTESIAN_POINT('',(-6.,-267.,22.5));
#260 = LINE('',#261,#262);
#261 = CARTESIAN_POINT('',(-6.,-283.5,22.5));
#262 = VECTOR('',#263,1.);
#263 = DIRECTION('',(0.,1.,3.3E-16));
#264 = ORIENTED_EDGE('',*,*,#265,.F.);
#265 = EDGE_CURVE('',#233,#258,#266,.T.);
#266 = LINE('',#267,#268);
#267 = CARTESIAN_POINT('',(-5.,-267.,22.5));
#268 = VECTOR('',#269,1.);
#269 = DIRECTION('',(1.,0.,0.));
#270 = PLANE('',#271);
#271 = AXIS2_PLACEMENT_3D('',#272,#273,#274);
#272 = CARTESIAN_POINT('',(-8.030063752972,-283.3382795043,22.5));
#273 = DIRECTION('',(-3.69E-15,-9.1E-16,1.));
#274 = DIRECTION('',(-1.,0.,-3.69E-15));
#275 = ADVANCED_FACE('',(#276),#286,.T.);
#276 = FACE_BOUND('',#277,.F.);
#277 = EDGE_LOOP('',(#278,#279,#285));
#278 = ORIENTED_EDGE('',*,*,#241,.T.);
#279 = ORIENTED_EDGE('',*,*,#280,.T.);
#280 = EDGE_CURVE('',#242,#200,#281,.T.);
#281 = LINE('',#282,#283);
#282 = CARTESIAN_POINT('',(-6.25,-297.25,20.75));
#283 = VECTOR('',#284,1.);
#284 = DIRECTION('',(-0.57735026919,-0.57735026919,0.57735026919));
#285 = ORIENTED_EDGE('',*,*,#207,.F.);
#286 = PLANE('',#287);
#287 = AXIS2_PLACEMENT_3D('',#288,#289,#290);
#288 = CARTESIAN_POINT('',(-8.5,-299.5,10.));
#289 = DIRECTION('',(-0.707106781187,0.707106781187,6.6E-16));
#290 = DIRECTION('',(-2.466904755831E-16,6.866904755831E-16,-1.));
#291 = ADVANCED_FACE('',(#292),#303,.T.);
#292 = FACE_BOUND('',#293,.F.);
#293 = EDGE_LOOP('',(#294,#295,#296,#302));
#294 = ORIENTED_EDGE('',*,*,#280,.F.);
#295 = ORIENTED_EDGE('',*,*,#249,.T.);
#296 = ORIENTED_EDGE('',*,*,#297,.T.);
#297 = EDGE_CURVE('',#250,#192,#298,.T.);
#298 = LINE('',#299,#300);
#299 = CARTESIAN_POINT('',(-6.,-296.375,19.875));
#300 = VECTOR('',#301,1.);
#301 = DIRECTION('',(0.,-0.707106781187,0.707106781187));
#302 = ORIENTED_EDGE('',*,*,#199,.F.);
#303 = PLANE('',#304);
#304 = AXIS2_PLACEMENT_3D('',#305,#306,#307);
#305 = CARTESIAN_POINT('',(-8.,-299.5,23.));
#306 = DIRECTION('',(0.,0.707106781187,0.707106781187));
#307 = DIRECTION('',(-1.,0.,0.));
#308 = ADVANCED_FACE('',(#309),#328,.T.);
#309 = FACE_BOUND('',#310,.T.);
#310 = EDGE_LOOP('',(#311,#312,#320,#326,#327));
#311 = ORIENTED_EDGE('',*,*,#191,.F.);
#312 = ORIENTED_EDGE('',*,*,#313,.T.);
#313 = EDGE_CURVE('',#184,#314,#316,.T.);
#314 = VERTEX_POINT('',#315);
#315 = CARTESIAN_POINT('',(-6.,-267.,10.));
#316 = LINE('',#317,#318);
#317 = CARTESIAN_POINT('',(-6.,-300.,10.));
#318 = VECTOR('',#319,1.);
#319 = DIRECTION('',(0.,1.,3.3E-16));
#320 = ORIENTED_EDGE('',*,*,#321,.T.);
#321 = EDGE_CURVE('',#314,#258,#322,.T.);
#322 = LINE('',#323,#324);
#323 = CARTESIAN_POINT('',(-6.,-267.,11.5));
#324 = VECTOR('',#325,1.);
#325 = DIRECTION('',(0.,-5.6E-16,1.));
#326 = ORIENTED_EDGE('',*,*,#257,.F.);
#327 = ORIENTED_EDGE('',*,*,#297,.T.);
#328 = PLANE('',#329);
#329 = AXIS2_PLACEMENT_3D('',#330,#331,#332);
#330 = CARTESIAN_POINT('',(-6.,-300.,10.));
#331 = DIRECTION('',(1.,0.,0.));
#332 = DIRECTION('',(0.,-3.3E-16,1.));
#333 = ADVANCED_FACE('',(#334),#368,.F.);
#334 = FACE_BOUND('',#335,.F.);
#335 = EDGE_LOOP('',(#336,#344,#352,#360,#366,#367));
#336 = ORIENTED_EDGE('',*,*,#337,.T.);
#337 = EDGE_CURVE('',#314,#338,#340,.T.);
#338 = VERTEX_POINT('',#339);
#339 = CARTESIAN_POINT('',(-10.,-267.,10.));
#340 = LINE('',#341,#342);
#341 = CARTESIAN_POINT('',(-3.,-267.,10.));
#342 = VECTOR('',#343,1.);
#343 = DIRECTION('',(-1.,0.,0.));
#344 = ORIENTED_EDGE('',*,*,#345,.F.);
#345 = EDGE_CURVE('',#346,#338,#348,.T.);
#346 = VERTEX_POINT('',#347);
#347 = CARTESIAN_POINT('',(-10.,-260.,10.));
#348 = LINE('',#349,#350);
#349 = CARTESIAN_POINT('',(-10.,-260.,10.));
#350 = VECTOR('',#351,1.);
#351 = DIRECTION('',(0.,-1.,-3.3E-16));
#352 = ORIENTED_EDGE('',*,*,#353,.F.);
#353 = EDGE_CURVE('',#354,#346,#356,.T.);
#354 = VERTEX_POINT('',#355);
#355 = CARTESIAN_POINT('',(-3.,-260.,10.));
#356 = LINE('',#357,#358);
#357 = CARTESIAN_POINT('',(-3.,-260.,10.));
#358 = VECTOR('',#359,1.);
#359 = DIRECTION('',(-1.,0.,0.));
#360 = ORIENTED_EDGE('',*,*,#361,.T.);
#361 = EDGE_CURVE('',#354,#176,#362,.T.);
#362 = LINE('',#363,#364);
#363 = CARTESIAN_POINT('',(-3.,-260.,10.));
#364 = VECTOR('',#365,1.);
#365 = DIRECTION('',(0.,-1.,-3.3E-16));
#366 = ORIENTED_EDGE('',*,*,#183,.F.);
#367 = ORIENTED_EDGE('',*,*,#313,.T.);
#368 = PLANE('',#369);
#369 = AXIS2_PLACEMENT_3D('',#370,#371,#372);
#370 = CARTESIAN_POINT('',(-3.,-260.,10.));
#371 = DIRECTION('',(0.,3.3E-16,-1.));
#372 = DIRECTION('',(-1.,0.,0.));
#373 = ADVANCED_FACE('',(#374),#408,.T.);
#374 = FACE_BOUND('',#375,.T.);
#375 = EDGE_LOOP('',(#376,#384,#385,#386,#394,#402));
#376 = ORIENTED_EDGE('',*,*,#377,.T.);
#377 = EDGE_CURVE('',#378,#354,#380,.T.);
#378 = VERTEX_POINT('',#379);
#379 = CARTESIAN_POINT('',(-3.,-260.,7.));
#380 = LINE('',#381,#382);
#381 = CARTESIAN_POINT('',(-3.,-260.,13.));
#382 = VECTOR('',#383,1.);
#383 = DIRECTION('',(0.,-5.6E-16,1.));
#384 = ORIENTED_EDGE('',*,*,#361,.T.);
#385 = ORIENTED_EDGE('',*,*,#175,.T.);
#386 = ORIENTED_EDGE('',*,*,#387,.F.);
#387 = EDGE_CURVE('',#388,#168,#390,.T.);
#388 = VERTEX_POINT('',#389);
#389 = CARTESIAN_POINT('',(-3.,-252.,19.));
#390 = LINE('',#391,#392);
#391 = CARTESIAN_POINT('',(-3.,-260.,19.));
#392 = VECTOR('',#393,1.);
#393 = DIRECTION('',(0.,-1.,-3.3E-16));
#394 = ORIENTED_EDGE('',*,*,#395,.F.);
#395 = EDGE_CURVE('',#396,#388,#398,.T.);
#396 = VERTEX_POINT('',#397);
#397 = CARTESIAN_POINT('',(-3.,-252.,7.));
#398 = LINE('',#399,#400);
#399 = CARTESIAN_POINT('',(-3.,-252.,7.));
#400 = VECTOR('',#401,1.);
#401 = DIRECTION('',(0.,-5.6E-16,1.));
#402 = ORIENTED_EDGE('',*,*,#403,.F.);
#403 = EDGE_CURVE('',#378,#396,#404,.T.);
#404 = LINE('',#405,#406);
#405 = CARTESIAN_POINT('',(-3.,-260.,7.));
#406 = VECTOR('',#407,1.);
#407 = DIRECTION('',(0.,1.,3.3E-16));
#408 = PLANE('',#409);
#409 = AXIS2_PLACEMENT_3D('',#410,#411,#412);
#410 = CARTESIAN_POINT('',(-3.,-275.,14.));
#411 = DIRECTION('',(-1.,0.,0.));
#412 = DIRECTION('',(0.,-1.,-2.2E-16));
#413 = ADVANCED_FACE('',(#414),#432,.T.);
#414 = FACE_BOUND('',#415,.T.);
#415 = EDGE_LOOP('',(#416,#417,#418,#426));
#416 = ORIENTED_EDGE('',*,*,#387,.T.);
#417 = ORIENTED_EDGE('',*,*,#167,.T.);
#418 = ORIENTED_EDGE('',*,*,#419,.T.);
#419 = EDGE_CURVE('',#160,#420,#422,.T.);
#420 = VERTEX_POINT('',#421);
#421 = CARTESIAN_POINT('',(3.,-252.,19.));
#422 = LINE('',#423,#424);
#423 = CARTESIAN_POINT('',(3.,-260.,19.));
#424 = VECTOR('',#425,1.);
#425 = DIRECTION('',(0.,1.,7.8E-16));
#426 = ORIENTED_EDGE('',*,*,#427,.F.);
#427 = EDGE_CURVE('',#388,#420,#428,.T.);
#428 = LINE('',#429,#430);
#429 = CARTESIAN_POINT('',(-3.,-252.,19.));
#430 = VECTOR('',#431,1.);
#431 = DIRECTION('',(1.,0.,0.));
#432 = PLANE('',#433);
#433 = AXIS2_PLACEMENT_3D('',#434,#435,#436);
#434 = CARTESIAN_POINT('',(0.,-276.,19.));
#435 = DIRECTION('',(0.,-2.2E-16,1.));
#436 = DIRECTION('',(0.,-1.,-2.2E-16));
#437 = ADVANCED_FACE('',(#438),#472,.T.);
#438 = FACE_BOUND('',#439,.T.);
#439 = EDGE_LOOP('',(#440,#450,#458,#464,#465,#466));
#440 = ORIENTED_EDGE('',*,*,#441,.T.);
#441 = EDGE_CURVE('',#442,#444,#446,.T.);
#442 = VERTEX_POINT('',#443);
#443 = CARTESIAN_POINT('',(3.,-260.,10.));
#444 = VERTEX_POINT('',#445);
#445 = CARTESIAN_POINT('',(3.,-260.,7.));
#446 = LINE('',#447,#448);
#447 = CARTESIAN_POINT('',(3.,-260.,13.));
#448 = VECTOR('',#449,1.);
#449 = DIRECTION('',(0.,5.6E-16,-1.));
#450 = ORIENTED_EDGE('',*,*,#451,.T.);
#451 = EDGE_CURVE('',#444,#452,#454,.T.);
#452 = VERTEX_POINT('',#453);
#453 = CARTESIAN_POINT('',(3.,-252.,7.));
#454 = LINE('',#455,#456);
#455 = CARTESIAN_POINT('',(3.,-260.,7.));
#456 = VECTOR('',#457,1.);
#457 = DIRECTION('',(0.,1.,3.3E-16));
#458 = ORIENTED_EDGE('',*,*,#459,.T.);
#459 = EDGE_CURVE('',#452,#420,#460,.T.);
#460 = LINE('',#461,#462);
#461 = CARTESIAN_POINT('',(3.,-252.,13.));
#462 = VECTOR('',#463,1.);
#463 = DIRECTION('',(0.,-5.6E-16,1.));
#464 = ORIENTED_EDGE('',*,*,#419,.F.);
#465 = ORIENTED_EDGE('',*,*,#159,.T.);
#466 = ORIENTED_EDGE('',*,*,#467,.F.);
#467 = EDGE_CURVE('',#442,#152,#468,.T.);
#468 = LINE('',#469,#470);
#469 = CARTESIAN_POINT('',(3.,-260.,10.));
#470 = VECTOR('',#471,1.);
#471 = DIRECTION('',(0.,-1.,-3.3E-16));
#472 = PLANE('',#473);
#473 = AXIS2_PLACEMENT_3D('',#474,#475,#476);
#474 = CARTESIAN_POINT('',(3.,-275.,14.));
#475 = DIRECTION('',(1.,0.,0.));
#476 = DIRECTION('',(0.,1.,2.2E-16));
#477 = ADVANCED_FACE('',(#478),#512,.F.);
#478 = FACE_BOUND('',#479,.F.);
#479 = EDGE_LOOP('',(#480,#490,#498,#504,#505,#506));
#480 = ORIENTED_EDGE('',*,*,#481,.T.);
#481 = EDGE_CURVE('',#482,#484,#486,.T.);
#482 = VERTEX_POINT('',#483);
#483 = CARTESIAN_POINT('',(10.,-260.,10.));
#484 = VERTEX_POINT('',#485);
#485 = CARTESIAN_POINT('',(10.,-267.,10.));
#486 = LINE('',#487,#488);
#487 = CARTESIAN_POINT('',(10.,-260.,10.));
#488 = VECTOR('',#489,1.);
#489 = DIRECTION('',(0.,-1.,-3.3E-16));
#490 = ORIENTED_EDGE('',*,*,#491,.F.);
#491 = EDGE_CURVE('',#492,#484,#494,.T.);
#492 = VERTEX_POINT('',#493);
#493 = CARTESIAN_POINT('',(6.,-267.,10.));
#494 = LINE('',#495,#496);
#495 = CARTESIAN_POINT('',(3.,-267.,10.));
#496 = VECTOR('',#497,1.);
#497 = DIRECTION('',(1.,0.,0.));
#498 = ORIENTED_EDGE('',*,*,#499,.F.);
#499 = EDGE_CURVE('',#144,#492,#500,.T.);
#500 = LINE('',#501,#502);
#501 = CARTESIAN_POINT('',(6.,-300.,10.));
#502 = VECTOR('',#503,1.);
#503 = DIRECTION('',(0.,1.,3.3E-16));
#504 = ORIENTED_EDGE('',*,*,#151,.F.);
#505 = ORIENTED_EDGE('',*,*,#467,.F.);
#506 = ORIENTED_EDGE('',*,*,#507,.F.);
#507 = EDGE_CURVE('',#482,#442,#508,.T.);
#508 = LINE('',#509,#510);
#509 = CARTESIAN_POINT('',(10.,-260.,10.));
#510 = VECTOR('',#511,1.);
#511 = DIRECTION('',(-1.,0.,0.));
#512 = PLANE('',#513);
#513 = AXIS2_PLACEMENT_3D('',#514,#515,#516);
#514 = CARTESIAN_POINT('',(10.,-260.,10.));
#515 = DIRECTION('',(0.,3.3E-16,-1.));
#516 = DIRECTION('',(-1.,0.,0.));
#517 = ADVANCED_FACE('',(#518),#544,.T.);
#518 = FACE_BOUND('',#519,.T.);
#519 = EDGE_LOOP('',(#520,#530,#536,#537,#538));
#520 = ORIENTED_EDGE('',*,*,#521,.F.);
#521 = EDGE_CURVE('',#522,#524,#526,.T.);
#522 = VERTEX_POINT('',#523);
#523 = CARTESIAN_POINT('',(6.,-267.,22.5));
#524 = VERTEX_POINT('',#525);
#525 = CARTESIAN_POINT('',(6.,-299.,22.5));
#526 = LINE('',#527,#528);
#527 = CARTESIAN_POINT('',(6.,-283.5,22.5));
#528 = VECTOR('',#529,1.);
#529 = DIRECTION('',(0.,-1.,-3.3E-16));
#530 = ORIENTED_EDGE('',*,*,#531,.T.);
#531 = EDGE_CURVE('',#522,#492,#532,.T.);
#532 = LINE('',#533,#534);
#533 = CARTESIAN_POINT('',(6.,-267.,24.375));
#534 = VECTOR('',#535,1.);
#535 = DIRECTION('',(0.,5.6E-16,-1.));
#536 = ORIENTED_EDGE('',*,*,#499,.F.);
#537 = ORIENTED_EDGE('',*,*,#143,.T.);
#538 = ORIENTED_EDGE('',*,*,#539,.F.);
#539 = EDGE_CURVE('',#524,#136,#540,.T.);
#540 = LINE('',#541,#542);
#541 = CARTESIAN_POINT('',(6.,-302.8125,26.3125));
#542 = VECTOR('',#543,1.);
#543 = DIRECTION('',(0.,-0.707106781187,0.707106781187));
#544 = PLANE('',#545);
#545 = AXIS2_PLACEMENT_3D('',#546,#547,#548);
#546 = CARTESIAN_POINT('',(6.,-300.,35.75));
#547 = DIRECTION('',(-1.,0.,0.));
#548 = DIRECTION('',(0.,3.3E-16,-1.));
#549 = ADVANCED_FACE('',(#550),#568,.T.);
#550 = FACE_BOUND('',#551,.F.);
#551 = EDGE_LOOP('',(#552,#553,#561,#567));
#552 = ORIENTED_EDGE('',*,*,#539,.F.);
#553 = ORIENTED_EDGE('',*,*,#554,.T.);
#554 = EDGE_CURVE('',#524,#555,#557,.T.);
#555 = VERTEX_POINT('',#556);
#556 = CARTESIAN_POINT('',(8.,-299.,22.5));
#557 = LINE('',#558,#559);
#558 = CARTESIAN_POINT('',(6.,-299.,22.5));
#559 = VECTOR('',#560,1.);
#560 = DIRECTION('',(1.,0.,0.));
#561 = ORIENTED_EDGE('',*,*,#562,.T.);
#562 = EDGE_CURVE('',#555,#128,#563,.T.);
#563 = LINE('',#564,#565);
#564 = CARTESIAN_POINT('',(5.916666666667,-296.9166666666,
    20.416666666667));
#565 = VECTOR('',#566,1.);
#566 = DIRECTION('',(0.57735026919,-0.57735026919,0.57735026919));
#567 = ORIENTED_EDGE('',*,*,#135,.F.);
#568 = PLANE('',#569);
#569 = AXIS2_PLACEMENT_3D('',#570,#571,#572);
#570 = CARTESIAN_POINT('',(6.,-299.5,23.));
#571 = DIRECTION('',(0.,0.707106781187,0.707106781187));
#572 = DIRECTION('',(-1.,0.,0.));
#573 = ADVANCED_FACE('',(#574),#584,.F.);
#574 = FACE_BOUND('',#575,.T.);
#575 = EDGE_LOOP('',(#576,#582,#583));
#576 = ORIENTED_EDGE('',*,*,#577,.T.);
#577 = EDGE_CURVE('',#120,#555,#578,.T.);
#578 = LINE('',#579,#580);
#579 = CARTESIAN_POINT('',(8.,-299.,22.5));
#580 = VECTOR('',#581,1.);
#581 = DIRECTION('',(-0.707106781187,0.707106781187,8.6E-16));
#582 = ORIENTED_EDGE('',*,*,#562,.T.);
#583 = ORIENTED_EDGE('',*,*,#127,.F.);
#584 = PLANE('',#585);
#585 = AXIS2_PLACEMENT_3D('',#586,#587,#588);
#586 = CARTESIAN_POINT('',(8.5,-299.5,10.));
#587 = DIRECTION('',(-0.707106781187,-0.707106781187,-6.5E-16));
#588 = DIRECTION('',(2.396194077713E-16,6.796194077713E-16,-1.));
#589 = ADVANCED_FACE('',(#590),#610,.T.);
#590 = FACE_BOUND('',#591,.T.);
#591 = EDGE_LOOP('',(#592,#593,#594,#602,#608,#609));
#592 = ORIENTED_EDGE('',*,*,#577,.F.);
#593 = ORIENTED_EDGE('',*,*,#119,.T.);
#594 = ORIENTED_EDGE('',*,*,#595,.T.);
#595 = EDGE_CURVE('',#112,#596,#598,.T.);
#596 = VERTEX_POINT('',#597);
#597 = CARTESIAN_POINT('',(9.6,-267.,22.5));
#598 = LINE('',#599,#600);
#599 = CARTESIAN_POINT('',(9.6,-300.,22.5));
#600 = VECTOR('',#601,1.);
#601 = DIRECTION('',(0.,1.,1.22E-15));
#602 = ORIENTED_EDGE('',*,*,#603,.T.);
#603 = EDGE_CURVE('',#596,#522,#604,.T.);
#604 = LINE('',#605,#606);
#605 = CARTESIAN_POINT('',(8.,-267.,22.5));
#606 = VECTOR('',#607,1.);
#607 = DIRECTION('',(-1.,0.,0.));
#608 = ORIENTED_EDGE('',*,*,#521,.T.);
#609 = ORIENTED_EDGE('',*,*,#554,.T.);
#610 = PLANE('',#611);
#611 = AXIS2_PLACEMENT_3D('',#612,#613,#614);
#612 = CARTESIAN_POINT('',(8.030063752972,-283.3382795043,22.5));
#613 = DIRECTION('',(3.28E-15,-9.2E-16,1.));
#614 = DIRECTION('',(-1.,0.,3.28E-15));
#615 = ADVANCED_FACE('',(#616),#634,.T.);
#616 = FACE_BOUND('',#617,.T.);
#617 = EDGE_LOOP('',(#618,#619,#627,#633));
#618 = ORIENTED_EDGE('',*,*,#111,.F.);
#619 = ORIENTED_EDGE('',*,*,#620,.T.);
#620 = EDGE_CURVE('',#104,#621,#623,.T.);
#621 = VERTEX_POINT('',#622);
#622 = CARTESIAN_POINT('',(9.6,-267.,33.5));
#623 = LINE('',#624,#625);
#624 = CARTESIAN_POINT('',(9.6,-300.,33.5));
#625 = VECTOR('',#626,1.);
#626 = DIRECTION('',(0.,1.,1.22E-15));
#627 = ORIENTED_EDGE('',*,*,#628,.T.);
#628 = EDGE_CURVE('',#621,#596,#629,.T.);
#629 = LINE('',#630,#631);
#630 = CARTESIAN_POINT('',(9.6,-267.,34.0625));
#631 = VECTOR('',#632,1.);
#632 = DIRECTION('',(0.,1.85E-15,-1.));
#633 = ORIENTED_EDGE('',*,*,#595,.F.);
#634 = PLANE('',#635);
#635 = AXIS2_PLACEMENT_3D('',#636,#637,#638);
#636 = CARTESIAN_POINT('',(9.6,-300.,33.5));
#637 = DIRECTION('',(-1.,0.,0.));
#638 = DIRECTION('',(0.,1.22E-15,-1.));
#639 = ADVANCED_FACE('',(#640),#674,.T.);
#640 = FACE_BOUND('',#641,.T.);
#641 = EDGE_LOOP('',(#642,#643,#644,#652,#660,#668));
#642 = ORIENTED_EDGE('',*,*,#620,.F.);
#643 = ORIENTED_EDGE('',*,*,#103,.T.);
#644 = ORIENTED_EDGE('',*,*,#645,.F.);
#645 = EDGE_CURVE('',#646,#96,#648,.T.);
#646 = VERTEX_POINT('',#647);
#647 = CARTESIAN_POINT('',(8.,-299.,33.5));
#648 = LINE('',#649,#650);
#649 = CARTESIAN_POINT('',(9.,-300.,33.5));
#650 = VECTOR('',#651,1.);
#651 = DIRECTION('',(0.707106781187,-0.707106781187,-8.6E-16));
#652 = ORIENTED_EDGE('',*,*,#653,.T.);
#653 = EDGE_CURVE('',#646,#654,#656,.T.);
#654 = VERTEX_POINT('',#655);
#655 = CARTESIAN_POINT('',(6.,-299.,33.5));
#656 = LINE('',#657,#658);
#657 = CARTESIAN_POINT('',(8.,-299.,33.5));
#658 = VECTOR('',#659,1.);
#659 = DIRECTION('',(-1.,0.,0.));
#660 = ORIENTED_EDGE('',*,*,#661,.T.);
#661 = EDGE_CURVE('',#654,#662,#664,.T.);
#662 = VERTEX_POINT('',#663);
#663 = CARTESIAN_POINT('',(6.,-267.,33.5));
#664 = LINE('',#665,#666);
#665 = CARTESIAN_POINT('',(6.,-283.5,33.5));
#666 = VECTOR('',#667,1.);
#667 = DIRECTION('',(0.,1.,3.3E-16));
#668 = ORIENTED_EDGE('',*,*,#669,.F.);
#669 = EDGE_CURVE('',#621,#662,#670,.T.);
#670 = LINE('',#671,#672);
#671 = CARTESIAN_POINT('',(5.,-267.,33.5));
#672 = VECTOR('',#673,1.);
#673 = DIRECTION('',(-1.,0.,0.));
#674 = PLANE('',#675);
#675 = AXIS2_PLACEMENT_3D('',#676,#677,#678);
#676 = CARTESIAN_POINT('',(8.030063752972,-283.3382795043,33.5));
#677 = DIRECTION('',(-5.19E-15,8.9E-16,-1.));
#678 = DIRECTION('',(1.,0.,-5.19E-15));
#679 = ADVANCED_FACE('',(#680),#690,.F.);
#680 = FACE_BOUND('',#681,.T.);
#681 = EDGE_LOOP('',(#682,#688,#689));
#682 = ORIENTED_EDGE('',*,*,#683,.F.);
#683 = EDGE_CURVE('',#646,#88,#684,.T.);
#684 = LINE('',#685,#686);
#685 = CARTESIAN_POINT('',(8.333333333333,-299.3333333333,
    33.166666666667));
#686 = VECTOR('',#687,1.);
#687 = DIRECTION('',(0.57735026919,-0.57735026919,-0.57735026919));
#688 = ORIENTED_EDGE('',*,*,#645,.T.);
#689 = ORIENTED_EDGE('',*,*,#95,.F.);
#690 = PLANE('',#691);
#691 = AXIS2_PLACEMENT_3D('',#692,#693,#694);
#692 = CARTESIAN_POINT('',(8.5,-299.5,33.5));
#693 = DIRECTION('',(-0.707106781187,-0.707106781187,-6.5E-16));
#694 = DIRECTION('',(2.396194077713E-16,6.796194077713E-16,-1.));
#695 = ADVANCED_FACE('',(#696),#707,.T.);
#696 = FACE_BOUND('',#697,.F.);
#697 = EDGE_LOOP('',(#698,#699,#700,#706));
#698 = ORIENTED_EDGE('',*,*,#683,.F.);
#699 = ORIENTED_EDGE('',*,*,#653,.T.);
#700 = ORIENTED_EDGE('',*,*,#701,.T.);
#701 = EDGE_CURVE('',#654,#80,#702,.T.);
#702 = LINE('',#703,#704);
#703 = CARTESIAN_POINT('',(6.,-298.9375,33.5625));
#704 = VECTOR('',#705,1.);
#705 = DIRECTION('',(0.,-0.707106781187,-0.707106781187));
#706 = ORIENTED_EDGE('',*,*,#87,.F.);
#707 = PLANE('',#708);
#708 = AXIS2_PLACEMENT_3D('',#709,#710,#711);
#709 = CARTESIAN_POINT('',(8.,-299.5,33.));
#710 = DIRECTION('',(0.,0.707106781187,-0.707106781187));
#711 = DIRECTION('',(1.,0.,0.));
#712 = ADVANCED_FACE('',(#713),#732,.T.);
#713 = FACE_BOUND('',#714,.T.);
#714 = EDGE_LOOP('',(#715,#716,#724,#730,#731));
#715 = ORIENTED_EDGE('',*,*,#79,.F.);
#716 = ORIENTED_EDGE('',*,*,#717,.T.);
#717 = EDGE_CURVE('',#72,#718,#720,.T.);
#718 = VERTEX_POINT('',#719);
#719 = CARTESIAN_POINT('',(6.,-267.,35.75));
#720 = LINE('',#721,#722);
#721 = CARTESIAN_POINT('',(6.,-300.,35.75));
#722 = VECTOR('',#723,1.);
#723 = DIRECTION('',(0.,1.,3.3E-16));
#724 = ORIENTED_EDGE('',*,*,#725,.T.);
#725 = EDGE_CURVE('',#718,#662,#726,.T.);
#726 = LINE('',#727,#728);
#727 = CARTESIAN_POINT('',(6.,-267.,24.375));
#728 = VECTOR('',#729,1.);
#729 = DIRECTION('',(0.,5.6E-16,-1.));
#730 = ORIENTED_EDGE('',*,*,#661,.F.);
#731 = ORIENTED_EDGE('',*,*,#701,.T.);
#732 = PLANE('',#733);
#733 = AXIS2_PLACEMENT_3D('',#734,#735,#736);
#734 = CARTESIAN_POINT('',(6.,-300.,35.75));
#735 = DIRECTION('',(-1.,0.,0.));
#736 = DIRECTION('',(0.,3.3E-16,-1.));
#737 = ADVANCED_FACE('',(#738),#788,.T.);
#738 = FACE_BOUND('',#739,.T.);
#739 = EDGE_LOOP('',(#740,#750,#756,#757,#758,#766,#774,#782));
#740 = ORIENTED_EDGE('',*,*,#741,.T.);
#741 = EDGE_CURVE('',#742,#744,#746,.T.);
#742 = VERTEX_POINT('',#743);
#743 = CARTESIAN_POINT('',(10.,-310.,35.75));
#744 = VERTEX_POINT('',#745);
#745 = CARTESIAN_POINT('',(10.,-267.,35.75));
#746 = LINE('',#747,#748);
#747 = CARTESIAN_POINT('',(10.,-300.,35.75));
#748 = VECTOR('',#749,1.);
#749 = DIRECTION('',(0.,1.,1.22E-15));
#750 = ORIENTED_EDGE('',*,*,#751,.F.);
#751 = EDGE_CURVE('',#718,#744,#752,.T.);
#752 = LINE('',#753,#754);
#753 = CARTESIAN_POINT('',(3.,-267.,35.75));
#754 = VECTOR('',#755,1.);
#755 = DIRECTION('',(1.,0.,0.));
#756 = ORIENTED_EDGE('',*,*,#717,.F.);
#757 = ORIENTED_EDGE('',*,*,#71,.T.);
#758 = ORIENTED_EDGE('',*,*,#759,.T.);
#759 = EDGE_CURVE('',#64,#760,#762,.T.);
#760 = VERTEX_POINT('',#761);
#761 = CARTESIAN_POINT('',(-6.,-267.,35.75));
#762 = LINE('',#763,#764);
#763 = CARTESIAN_POINT('',(-6.,-300.,35.75));
#764 = VECTOR('',#765,1.);
#765 = DIRECTION('',(0.,1.,3.3E-16));
#766 = ORIENTED_EDGE('',*,*,#767,.F.);
#767 = EDGE_CURVE('',#768,#760,#770,.T.);
#768 = VERTEX_POINT('',#769);
#769 = CARTESIAN_POINT('',(-10.,-267.,35.75));
#770 = LINE('',#771,#772);
#771 = CARTESIAN_POINT('',(-4.,-267.,35.75));
#772 = VECTOR('',#773,1.);
#773 = DIRECTION('',(1.,0.,0.));
#774 = ORIENTED_EDGE('',*,*,#775,.F.);
#775 = EDGE_CURVE('',#776,#768,#778,.T.);
#776 = VERTEX_POINT('',#777);
#777 = CARTESIAN_POINT('',(-10.,-310.,35.75));
#778 = LINE('',#779,#780);
#779 = CARTESIAN_POINT('',(-10.,-300.,35.75));
#780 = VECTOR('',#781,1.);
#781 = DIRECTION('',(0.,1.,1.22E-15));
#782 = ORIENTED_EDGE('',*,*,#783,.F.);
#783 = EDGE_CURVE('',#742,#776,#784,.T.);
#784 = LINE('',#785,#786);
#785 = CARTESIAN_POINT('',(10.,-310.,35.75));
#786 = VECTOR('',#787,1.);
#787 = DIRECTION('',(-1.,0.,0.));
#788 = PLANE('',#789);
#789 = AXIS2_PLACEMENT_3D('',#790,#791,#792);
#790 = CARTESIAN_POINT('',(-8.1E-16,-288.84375,35.75));
#791 = DIRECTION('',(0.,-9.6E-16,1.));
#792 = DIRECTION('',(0.,-1.,-9.6E-16));
#793 = ADVANCED_FACE('',(#794),#820,.T.);
#794 = FACE_BOUND('',#795,.T.);
#795 = EDGE_LOOP('',(#796,#806,#812,#813,#814));
#796 = ORIENTED_EDGE('',*,*,#797,.F.);
#797 = EDGE_CURVE('',#798,#800,#802,.T.);
#798 = VERTEX_POINT('',#799);
#799 = CARTESIAN_POINT('',(-6.,-267.,33.5));
#800 = VERTEX_POINT('',#801);
#801 = CARTESIAN_POINT('',(-6.,-299.,33.5));
#802 = LINE('',#803,#804);
#803 = CARTESIAN_POINT('',(-6.,-283.5,33.5));
#804 = VECTOR('',#805,1.);
#805 = DIRECTION('',(0.,-1.,-3.3E-16));
#806 = ORIENTED_EDGE('',*,*,#807,.T.);
#807 = EDGE_CURVE('',#798,#760,#808,.T.);
#808 = LINE('',#809,#810);
#809 = CARTESIAN_POINT('',(-6.,-267.,11.5));
#810 = VECTOR('',#811,1.);
#811 = DIRECTION('',(0.,-5.6E-16,1.));
#812 = ORIENTED_EDGE('',*,*,#759,.F.);
#813 = ORIENTED_EDGE('',*,*,#63,.T.);
#814 = ORIENTED_EDGE('',*,*,#815,.F.);
#815 = EDGE_CURVE('',#800,#56,#816,.T.);
#816 = LINE('',#817,#818);
#817 = CARTESIAN_POINT('',(-6.,-305.375,27.125));
#818 = VECTOR('',#819,1.);
#819 = DIRECTION('',(0.,-0.707106781187,-0.707106781187));
#820 = PLANE('',#821);
#821 = AXIS2_PLACEMENT_3D('',#822,#823,#824);
#822 = CARTESIAN_POINT('',(-6.,-300.,10.));
#823 = DIRECTION('',(1.,0.,0.));
#824 = DIRECTION('',(0.,-3.3E-16,1.));
#825 = ADVANCED_FACE('',(#826),#844,.T.);
#826 = FACE_BOUND('',#827,.F.);
#827 = EDGE_LOOP('',(#828,#829,#837,#843));
#828 = ORIENTED_EDGE('',*,*,#815,.F.);
#829 = ORIENTED_EDGE('',*,*,#830,.T.);
#830 = EDGE_CURVE('',#800,#831,#833,.T.);
#831 = VERTEX_POINT('',#832);
#832 = CARTESIAN_POINT('',(-8.,-299.,33.5));
#833 = LINE('',#834,#835);
#834 = CARTESIAN_POINT('',(-6.,-299.,33.5));
#835 = VECTOR('',#836,1.);
#836 = DIRECTION('',(-1.,0.,0.));
#837 = ORIENTED_EDGE('',*,*,#838,.T.);
#838 = EDGE_CURVE('',#831,#48,#839,.T.);
#839 = LINE('',#840,#841);
#840 = CARTESIAN_POINT('',(-8.,-299.,33.5));
#841 = VECTOR('',#842,1.);
#842 = DIRECTION('',(-0.57735026919,-0.57735026919,-0.57735026919));
#843 = ORIENTED_EDGE('',*,*,#55,.F.);
#844 = PLANE('',#845);
#845 = AXIS2_PLACEMENT_3D('',#846,#847,#848);
#846 = CARTESIAN_POINT('',(-6.,-299.5,33.));
#847 = DIRECTION('',(0.,0.707106781187,-0.707106781187));
#848 = DIRECTION('',(1.,0.,0.));
#849 = ADVANCED_FACE('',(#850),#860,.T.);
#850 = FACE_BOUND('',#851,.F.);
#851 = EDGE_LOOP('',(#852,#853,#859));
#852 = ORIENTED_EDGE('',*,*,#838,.F.);
#853 = ORIENTED_EDGE('',*,*,#854,.T.);
#854 = EDGE_CURVE('',#831,#40,#855,.T.);
#855 = LINE('',#856,#857);
#856 = CARTESIAN_POINT('',(-8.,-299.,33.5));
#857 = VECTOR('',#858,1.);
#858 = DIRECTION('',(-0.707106781187,-0.707106781187,-8.6E-16));
#859 = ORIENTED_EDGE('',*,*,#47,.F.);
#860 = PLANE('',#861);
#861 = AXIS2_PLACEMENT_3D('',#862,#863,#864);
#862 = CARTESIAN_POINT('',(-8.5,-299.5,33.5));
#863 = DIRECTION('',(-0.707106781187,0.707106781187,6.6E-16));
#864 = DIRECTION('',(-2.466904755831E-16,6.866904755831E-16,-1.));
#865 = ADVANCED_FACE('',(#866),#886,.T.);
#866 = FACE_BOUND('',#867,.T.);
#867 = EDGE_LOOP('',(#868,#869,#870,#878,#884,#885));
#868 = ORIENTED_EDGE('',*,*,#854,.T.);
#869 = ORIENTED_EDGE('',*,*,#39,.T.);
#870 = ORIENTED_EDGE('',*,*,#871,.T.);
#871 = EDGE_CURVE('',#32,#872,#874,.T.);
#872 = VERTEX_POINT('',#873);
#873 = CARTESIAN_POINT('',(-9.6,-267.,33.5));
#874 = LINE('',#875,#876);
#875 = CARTESIAN_POINT('',(-9.6,-300.,33.5));
#876 = VECTOR('',#877,1.);
#877 = DIRECTION('',(0.,1.,1.22E-15));
#878 = ORIENTED_EDGE('',*,*,#879,.T.);
#879 = EDGE_CURVE('',#872,#798,#880,.T.);
#880 = LINE('',#881,#882);
#881 = CARTESIAN_POINT('',(-8.,-267.,33.5));
#882 = VECTOR('',#883,1.);
#883 = DIRECTION('',(1.,0.,0.));
#884 = ORIENTED_EDGE('',*,*,#797,.T.);
#885 = ORIENTED_EDGE('',*,*,#830,.T.);
#886 = PLANE('',#887);
#887 = AXIS2_PLACEMENT_3D('',#888,#889,#890);
#888 = CARTESIAN_POINT('',(-8.030063752972,-283.3382795043,33.5));
#889 = DIRECTION('',(5.19E-15,8.9E-16,-1.));
#890 = DIRECTION('',(1.,0.,5.19E-15));
#891 = ADVANCED_FACE('',(#892),#903,.T.);
#892 = FACE_BOUND('',#893,.T.);
#893 = EDGE_LOOP('',(#894,#895,#896,#902));
#894 = ORIENTED_EDGE('',*,*,#31,.F.);
#895 = ORIENTED_EDGE('',*,*,#232,.T.);
#896 = ORIENTED_EDGE('',*,*,#897,.T.);
#897 = EDGE_CURVE('',#233,#872,#898,.T.);
#898 = LINE('',#899,#900);
#899 = CARTESIAN_POINT('',(-9.6,-267.,28.5625));
#900 = VECTOR('',#901,1.);
#901 = DIRECTION('',(0.,-1.85E-15,1.));
#902 = ORIENTED_EDGE('',*,*,#871,.F.);
#903 = PLANE('',#904);
#904 = AXIS2_PLACEMENT_3D('',#905,#906,#907);
#905 = CARTESIAN_POINT('',(-9.6,-300.,22.5));
#906 = DIRECTION('',(1.,0.,0.));
#907 = DIRECTION('',(0.,-1.22E-15,1.));
#908 = ADVANCED_FACE('',(#909),#928,.F.);
#909 = FACE_BOUND('',#910,.F.);
#910 = EDGE_LOOP('',(#911,#920,#926,#927));
#911 = ORIENTED_EDGE('',*,*,#912,.F.);
#912 = EDGE_CURVE('',#913,#913,#915,.T.);
#913 = VERTEX_POINT('',#914);
#914 = CARTESIAN_POINT('',(1.75,-310.,28.));
#915 = CIRCLE('',#916,1.75);
#916 = AXIS2_PLACEMENT_3D('',#917,#918,#919);
#917 = CARTESIAN_POINT('',(0.,-310.,28.));
#918 = DIRECTION('',(0.,-1.,-2.2E-16));
#919 = DIRECTION('',(1.,0.,0.));
#920 = ORIENTED_EDGE('',*,*,#921,.T.);
#921 = EDGE_CURVE('',#913,#216,#922,.T.);
#922 = LINE('',#923,#924);
#923 = CARTESIAN_POINT('',(1.75,-310.,28.));
#924 = VECTOR('',#925,1.);
#925 = DIRECTION('',(0.,1.,-1.1E-16));
#926 = ORIENTED_EDGE('',*,*,#215,.T.);
#927 = ORIENTED_EDGE('',*,*,#921,.F.);
#928 = CYLINDRICAL_SURFACE('',#929,1.75);
#929 = AXIS2_PLACEMENT_3D('',#930,#931,#932);
#930 = CARTESIAN_POINT('',(0.,-310.,28.));
#931 = DIRECTION('',(0.,-1.,1.1E-16));
#932 = DIRECTION('',(1.,0.,0.));
#933 = ADVANCED_FACE('',(#934),#1064,.T.);
#934 = FACE_BOUND('',#935,.T.);
#935 = EDGE_LOOP('',(#936,#937,#945,#953,#961,#969,#977,#985,#993,#1001,
    #1009,#1017,#1025,#1033,#1041,#1049,#1055,#1056,#1057,#1063));
#936 = ORIENTED_EDGE('',*,*,#507,.F.);
#937 = ORIENTED_EDGE('',*,*,#938,.F.);
#938 = EDGE_CURVE('',#939,#482,#941,.T.);
#939 = VERTEX_POINT('',#940);
#940 = CARTESIAN_POINT('',(10.,-260.,3.));
#941 = LINE('',#942,#943);
#942 = CARTESIAN_POINT('',(10.,-260.,-10.));
#943 = VECTOR('',#944,1.);
#944 = DIRECTION('',(0.,-2.2E-16,1.));
#945 = ORIENTED_EDGE('',*,*,#946,.F.);
#946 = EDGE_CURVE('',#947,#939,#949,.T.);
#947 = VERTEX_POINT('',#948);
#948 = CARTESIAN_POINT('',(7.,-260.,3.));
#949 = LINE('',#950,#951);
#950 = CARTESIAN_POINT('',(7.,-260.,3.));
#951 = VECTOR('',#952,1.);
#952 = DIRECTION('',(1.,0.,0.));
#953 = ORIENTED_EDGE('',*,*,#954,.F.);
#954 = EDGE_CURVE('',#955,#947,#957,.T.);
#955 = VERTEX_POINT('',#956);
#956 = CARTESIAN_POINT('',(7.,-260.,-3.));
#957 = LINE('',#958,#959);
#958 = CARTESIAN_POINT('',(7.,-260.,-3.));
#959 = VECTOR('',#960,1.);
#960 = DIRECTION('',(0.,-2.2E-16,1.));
#961 = ORIENTED_EDGE('',*,*,#962,.F.);
#962 = EDGE_CURVE('',#963,#955,#965,.T.);
#963 = VERTEX_POINT('',#964);
#964 = CARTESIAN_POINT('',(10.,-260.,-3.));
#965 = LINE('',#966,#967);
#966 = CARTESIAN_POINT('',(13.,-260.,-3.));
#967 = VECTOR('',#968,1.);
#968 = DIRECTION('',(-1.,0.,0.));
#969 = ORIENTED_EDGE('',*,*,#970,.F.);
#970 = EDGE_CURVE('',#971,#963,#973,.T.);
#971 = VERTEX_POINT('',#972);
#972 = CARTESIAN_POINT('',(10.,-260.,-10.));
#973 = LINE('',#974,#975);
#974 = CARTESIAN_POINT('',(10.,-260.,-10.));
#975 = VECTOR('',#976,1.);
#976 = DIRECTION('',(0.,-2.2E-16,1.));
#977 = ORIENTED_EDGE('',*,*,#978,.F.);
#978 = EDGE_CURVE('',#979,#971,#981,.T.);
#979 = VERTEX_POINT('',#980);
#980 = CARTESIAN_POINT('',(3.,-260.,-10.));
#981 = LINE('',#982,#983);
#982 = CARTESIAN_POINT('',(-10.,-260.,-10.));
#983 = VECTOR('',#984,1.);
#984 = DIRECTION('',(1.,0.,0.));
#985 = ORIENTED_EDGE('',*,*,#986,.F.);
#986 = EDGE_CURVE('',#987,#979,#989,.T.);
#987 = VERTEX_POINT('',#988);
#988 = CARTESIAN_POINT('',(3.,-260.,-7.));
#989 = LINE('',#990,#991);
#990 = CARTESIAN_POINT('',(3.,-260.,-7.));
#991 = VECTOR('',#992,1.);
#992 = DIRECTION('',(0.,2.2E-16,-1.));
#993 = ORIENTED_EDGE('',*,*,#994,.F.);
#994 = EDGE_CURVE('',#995,#987,#997,.T.);
#995 = VERTEX_POINT('',#996);
#996 = CARTESIAN_POINT('',(-3.,-260.,-7.));
#997 = LINE('',#998,#999);
#998 = CARTESIAN_POINT('',(-3.,-260.,-7.));
#999 = VECTOR('',#1000,1.);
#1000 = DIRECTION('',(1.,0.,0.));
#1001 = ORIENTED_EDGE('',*,*,#1002,.F.);
#1002 = EDGE_CURVE('',#1003,#995,#1005,.T.);
#1003 = VERTEX_POINT('',#1004);
#1004 = CARTESIAN_POINT('',(-3.,-260.,-10.));
#1005 = LINE('',#1006,#1007);
#1006 = CARTESIAN_POINT('',(-3.,-260.,-13.));
#1007 = VECTOR('',#1008,1.);
#1008 = DIRECTION('',(0.,-2.2E-16,1.));
#1009 = ORIENTED_EDGE('',*,*,#1010,.F.);
#1010 = EDGE_CURVE('',#1011,#1003,#1013,.T.);
#1011 = VERTEX_POINT('',#1012);
#1012 = CARTESIAN_POINT('',(-10.,-260.,-10.));
#1013 = LINE('',#1014,#1015);
#1014 = CARTESIAN_POINT('',(-10.,-260.,-10.));
#1015 = VECTOR('',#1016,1.);
#1016 = DIRECTION('',(1.,0.,0.));
#1017 = ORIENTED_EDGE('',*,*,#1018,.F.);
#1018 = EDGE_CURVE('',#1019,#1011,#1021,.T.);
#1019 = VERTEX_POINT('',#1020);
#1020 = CARTESIAN_POINT('',(-10.,-260.,-3.));
#1021 = LINE('',#1022,#1023);
#1022 = CARTESIAN_POINT('',(-10.,-260.,35.75));
#1023 = VECTOR('',#1024,1.);
#1024 = DIRECTION('',(0.,2.2E-16,-1.));
#1025 = ORIENTED_EDGE('',*,*,#1026,.F.);
#1026 = EDGE_CURVE('',#1027,#1019,#1029,.T.);
#1027 = VERTEX_POINT('',#1028);
#1028 = CARTESIAN_POINT('',(-7.,-260.,-3.));
#1029 = LINE('',#1030,#1031);
#1030 = CARTESIAN_POINT('',(-7.,-260.,-3.));
#1031 = VECTOR('',#1032,1.);
#1032 = DIRECTION('',(-1.,0.,0.));
#1033 = ORIENTED_EDGE('',*,*,#1034,.F.);
#1034 = EDGE_CURVE('',#1035,#1027,#1037,.T.);
#1035 = VERTEX_POINT('',#1036);
#1036 = CARTESIAN_POINT('',(-7.,-260.,3.));
#1037 = LINE('',#1038,#1039);
#1038 = CARTESIAN_POINT('',(-7.,-260.,3.));
#1039 = VECTOR('',#1040,1.);
#1040 = DIRECTION('',(0.,2.2E-16,-1.));
#1041 = ORIENTED_EDGE('',*,*,#1042,.F.);
#1042 = EDGE_CURVE('',#1043,#1035,#1045,.T.);
#1043 = VERTEX_POINT('',#1044);
#1044 = CARTESIAN_POINT('',(-10.,-260.,3.));
#1045 = LINE('',#1046,#1047);
#1046 = CARTESIAN_POINT('',(-13.,-260.,3.));
#1047 = VECTOR('',#1048,1.);
#1048 = DIRECTION('',(1.,0.,0.));
#1049 = ORIENTED_EDGE('',*,*,#1050,.F.);
#1050 = EDGE_CURVE('',#346,#1043,#1051,.T.);
#1051 = LINE('',#1052,#1053);
#1052 = CARTESIAN_POINT('',(-10.,-260.,35.75));
#1053 = VECTOR('',#1054,1.);
#1054 = DIRECTION('',(0.,2.2E-16,-1.));
#1055 = ORIENTED_EDGE('',*,*,#353,.F.);
#1056 = ORIENTED_EDGE('',*,*,#377,.F.);
#1057 = ORIENTED_EDGE('',*,*,#1058,.F.);
#1058 = EDGE_CURVE('',#444,#378,#1059,.T.);
#1059 = LINE('',#1060,#1061);
#1060 = CARTESIAN_POINT('',(3.,-260.,7.));
#1061 = VECTOR('',#1062,1.);
#1062 = DIRECTION('',(-1.,0.,0.));
#1063 = ORIENTED_EDGE('',*,*,#441,.F.);
#1064 = PLANE('',#1065);
#1065 = AXIS2_PLACEMENT_3D('',#1066,#1067,#1068);
#1066 = CARTESIAN_POINT('',(0.,-260.,12.875));
#1067 = DIRECTION('',(0.,1.,2.2E-16));
#1068 = DIRECTION('',(0.,-2.2E-16,1.));
#1069 = ADVANCED_FACE('',(#1070),#1081,.T.);
#1070 = FACE_BOUND('',#1071,.T.);
#1071 = EDGE_LOOP('',(#1072,#1073,#1074,#1080));
#1072 = ORIENTED_EDGE('',*,*,#427,.T.);
#1073 = ORIENTED_EDGE('',*,*,#459,.F.);
#1074 = ORIENTED_EDGE('',*,*,#1075,.T.);
#1075 = EDGE_CURVE('',#452,#396,#1076,.T.);
#1076 = LINE('',#1077,#1078);
#1077 = CARTESIAN_POINT('',(3.,-252.,7.));
#1078 = VECTOR('',#1079,1.);
#1079 = DIRECTION('',(-1.,0.,0.));
#1080 = ORIENTED_EDGE('',*,*,#395,.T.);
#1081 = PLANE('',#1082);
#1082 = AXIS2_PLACEMENT_3D('',#1083,#1084,#1085);
#1083 = CARTESIAN_POINT('',(0.,-252.,13.));
#1084 = DIRECTION('',(0.,1.,2.2E-16));
#1085 = DIRECTION('',(1.,0.,0.));
#1086 = ADVANCED_FACE('',(#1087),#1093,.F.);
#1087 = FACE_BOUND('',#1088,.F.);
#1088 = EDGE_LOOP('',(#1089,#1090,#1091,#1092));
#1089 = ORIENTED_EDGE('',*,*,#451,.T.);
#1090 = ORIENTED_EDGE('',*,*,#1075,.T.);
#1091 = ORIENTED_EDGE('',*,*,#403,.F.);
#1092 = ORIENTED_EDGE('',*,*,#1058,.F.);
#1093 = PLANE('',#1094);
#1094 = AXIS2_PLACEMENT_3D('',#1095,#1096,#1097);
#1095 = CARTESIAN_POINT('',(3.,-260.,7.));
#1096 = DIRECTION('',(0.,-3.3E-16,1.));
#1097 = DIRECTION('',(-1.,0.,0.));
#1098 = ADVANCED_FACE('',(#1099,#1124),#1127,.F.);
#1099 = FACE_BOUND('',#1100,.F.);
#1100 = EDGE_LOOP('',(#1101,#1102,#1110,#1118));
#1101 = ORIENTED_EDGE('',*,*,#783,.F.);
#1102 = ORIENTED_EDGE('',*,*,#1103,.F.);
#1103 = EDGE_CURVE('',#1104,#742,#1106,.T.);
#1104 = VERTEX_POINT('',#1105);
#1105 = CARTESIAN_POINT('',(10.,-310.,-10.));
#1106 = LINE('',#1107,#1108);
#1107 = CARTESIAN_POINT('',(10.,-310.,-10.));
#1108 = VECTOR('',#1109,1.);
#1109 = DIRECTION('',(0.,-2.2E-16,1.));
#1110 = ORIENTED_EDGE('',*,*,#1111,.F.);
#1111 = EDGE_CURVE('',#1112,#1104,#1114,.T.);
#1112 = VERTEX_POINT('',#1113);
#1113 = CARTESIAN_POINT('',(-10.,-310.,-10.));
#1114 = LINE('',#1115,#1116);
#1115 = CARTESIAN_POINT('',(-10.,-310.,-10.));
#1116 = VECTOR('',#1117,1.);
#1117 = DIRECTION('',(1.,0.,0.));
#1118 = ORIENTED_EDGE('',*,*,#1119,.F.);
#1119 = EDGE_CURVE('',#776,#1112,#1120,.T.);
#1120 = LINE('',#1121,#1122);
#1121 = CARTESIAN_POINT('',(-10.,-310.,35.75));
#1122 = VECTOR('',#1123,1.);
#1123 = DIRECTION('',(0.,2.2E-16,-1.));
#1124 = FACE_BOUND('',#1125,.F.);
#1125 = EDGE_LOOP('',(#1126));
#1126 = ORIENTED_EDGE('',*,*,#912,.T.);
#1127 = PLANE('',#1128);
#1128 = AXIS2_PLACEMENT_3D('',#1129,#1130,#1131);
#1129 = CARTESIAN_POINT('',(0.,-310.,12.875));
#1130 = DIRECTION('',(0.,1.,2.2E-16));
#1131 = DIRECTION('',(0.,-2.2E-16,1.));
#1132 = ADVANCED_FACE('',(#1133),#1158,.F.);
#1133 = FACE_BOUND('',#1134,.F.);
#1134 = EDGE_LOOP('',(#1135,#1136,#1144,#1152));
#1135 = ORIENTED_EDGE('',*,*,#1042,.F.);
#1136 = ORIENTED_EDGE('',*,*,#1137,.T.);
#1137 = EDGE_CURVE('',#1043,#1138,#1140,.T.);
#1138 = VERTEX_POINT('',#1139);
#1139 = CARTESIAN_POINT('',(-10.,-252.,3.));
#1140 = LINE('',#1141,#1142);
#1141 = CARTESIAN_POINT('',(-10.,-260.,3.));
#1142 = VECTOR('',#1143,1.);
#1143 = DIRECTION('',(0.,1.,2.2E-16));
#1144 = ORIENTED_EDGE('',*,*,#1145,.T.);
#1145 = EDGE_CURVE('',#1138,#1146,#1148,.T.);
#1146 = VERTEX_POINT('',#1147);
#1147 = CARTESIAN_POINT('',(-7.,-252.,3.));
#1148 = LINE('',#1149,#1150);
#1149 = CARTESIAN_POINT('',(-13.,-252.,3.));
#1150 = VECTOR('',#1151,1.);
#1151 = DIRECTION('',(1.,0.,0.));
#1152 = ORIENTED_EDGE('',*,*,#1153,.F.);
#1153 = EDGE_CURVE('',#1035,#1146,#1154,.T.);
#1154 = LINE('',#1155,#1156);
#1155 = CARTESIAN_POINT('',(-7.,-260.,3.));
#1156 = VECTOR('',#1157,1.);
#1157 = DIRECTION('',(0.,1.,3.3E-16));
#1158 = PLANE('',#1159);
#1159 = AXIS2_PLACEMENT_3D('',#1160,#1161,#1162);
#1160 = CARTESIAN_POINT('',(-13.,-260.,3.));
#1161 = DIRECTION('',(0.,3.3E-16,-1.));
#1162 = DIRECTION('',(1.,0.,0.));
#1163 = ADVANCED_FACE('',(#1164),#1182,.F.);
#1164 = FACE_BOUND('',#1165,.F.);
#1165 = EDGE_LOOP('',(#1166,#1167,#1175,#1181));
#1166 = ORIENTED_EDGE('',*,*,#1153,.T.);
#1167 = ORIENTED_EDGE('',*,*,#1168,.T.);
#1168 = EDGE_CURVE('',#1146,#1169,#1171,.T.);
#1169 = VERTEX_POINT('',#1170);
#1170 = CARTESIAN_POINT('',(-7.,-252.,-3.));
#1171 = LINE('',#1172,#1173);
#1172 = CARTESIAN_POINT('',(-7.,-252.,3.));
#1173 = VECTOR('',#1174,1.);
#1174 = DIRECTION('',(0.,2.2E-16,-1.));
#1175 = ORIENTED_EDGE('',*,*,#1176,.F.);
#1176 = EDGE_CURVE('',#1027,#1169,#1177,.T.);
#1177 = LINE('',#1178,#1179);
#1178 = CARTESIAN_POINT('',(-7.,-260.,-3.));
#1179 = VECTOR('',#1180,1.);
#1180 = DIRECTION('',(0.,1.,3.3E-16));
#1181 = ORIENTED_EDGE('',*,*,#1034,.F.);
#1182 = PLANE('',#1183);
#1183 = AXIS2_PLACEMENT_3D('',#1184,#1185,#1186);
#1184 = CARTESIAN_POINT('',(-7.,-260.,3.));
#1185 = DIRECTION('',(-1.,0.,0.));
#1186 = DIRECTION('',(0.,3.3E-16,-1.));
#1187 = ADVANCED_FACE('',(#1188),#1206,.F.);
#1188 = FACE_BOUND('',#1189,.F.);
#1189 = EDGE_LOOP('',(#1190,#1191,#1192,#1200));
#1190 = ORIENTED_EDGE('',*,*,#1026,.F.);
#1191 = ORIENTED_EDGE('',*,*,#1176,.T.);
#1192 = ORIENTED_EDGE('',*,*,#1193,.T.);
#1193 = EDGE_CURVE('',#1169,#1194,#1196,.T.);
#1194 = VERTEX_POINT('',#1195);
#1195 = CARTESIAN_POINT('',(-10.,-252.,-3.));
#1196 = LINE('',#1197,#1198);
#1197 = CARTESIAN_POINT('',(-7.,-252.,-3.));
#1198 = VECTOR('',#1199,1.);
#1199 = DIRECTION('',(-1.,0.,0.));
#1200 = ORIENTED_EDGE('',*,*,#1201,.F.);
#1201 = EDGE_CURVE('',#1019,#1194,#1202,.T.);
#1202 = LINE('',#1203,#1204);
#1203 = CARTESIAN_POINT('',(-10.,-260.,-3.));
#1204 = VECTOR('',#1205,1.);
#1205 = DIRECTION('',(0.,1.,2.2E-16));
#1206 = PLANE('',#1207);
#1207 = AXIS2_PLACEMENT_3D('',#1208,#1209,#1210);
#1208 = CARTESIAN_POINT('',(-7.,-260.,-3.));
#1209 = DIRECTION('',(0.,-3.3E-16,1.));
#1210 = DIRECTION('',(-1.,0.,0.));
#1211 = ADVANCED_FACE('',(#1212),#1251,.T.);
#1212 = FACE_BOUND('',#1213,.T.);
#1213 = EDGE_LOOP('',(#1214,#1220,#1221,#1229,#1237,#1243,#1244,#1250));
#1214 = ORIENTED_EDGE('',*,*,#1215,.F.);
#1215 = EDGE_CURVE('',#1011,#1112,#1216,.T.);
#1216 = LINE('',#1217,#1218);
#1217 = CARTESIAN_POINT('',(-10.,-260.,-10.));
#1218 = VECTOR('',#1219,1.);
#1219 = DIRECTION('',(0.,-1.,-3.3E-16));
#1220 = ORIENTED_EDGE('',*,*,#1010,.T.);
#1221 = ORIENTED_EDGE('',*,*,#1222,.T.);
#1222 = EDGE_CURVE('',#1003,#1223,#1225,.T.);
#1223 = VERTEX_POINT('',#1224);
#1224 = CARTESIAN_POINT('',(-3.,-252.,-10.));
#1225 = LINE('',#1226,#1227);
#1226 = CARTESIAN_POINT('',(-3.,-260.,-10.));
#1227 = VECTOR('',#1228,1.);
#1228 = DIRECTION('',(0.,1.,2.2E-16));
#1229 = ORIENTED_EDGE('',*,*,#1230,.F.);
#1230 = EDGE_CURVE('',#1231,#1223,#1233,.T.);
#1231 = VERTEX_POINT('',#1232);
#1232 = CARTESIAN_POINT('',(3.,-252.,-10.));
#1233 = LINE('',#1234,#1235);
#1234 = CARTESIAN_POINT('',(-1.5,-252.,-10.));
#1235 = VECTOR('',#1236,1.);
#1236 = DIRECTION('',(-1.,0.,0.));
#1237 = ORIENTED_EDGE('',*,*,#1238,.F.);
#1238 = EDGE_CURVE('',#979,#1231,#1239,.T.);
#1239 = LINE('',#1240,#1241);
#1240 = CARTESIAN_POINT('',(3.,-260.,-10.));
#1241 = VECTOR('',#1242,1.);
#1242 = DIRECTION('',(0.,1.,2.2E-16));
#1243 = ORIENTED_EDGE('',*,*,#978,.T.);
#1244 = ORIENTED_EDGE('',*,*,#1245,.T.);
#1245 = EDGE_CURVE('',#971,#1104,#1246,.T.);
#1246 = LINE('',#1247,#1248);
#1247 = CARTESIAN_POINT('',(10.,-270.,-10.));
#1248 = VECTOR('',#1249,1.);
#1249 = DIRECTION('',(0.,-1.,-5.6E-16));
#1250 = ORIENTED_EDGE('',*,*,#1111,.F.);
#1251 = PLANE('',#1252);
#1252 = AXIS2_PLACEMENT_3D('',#1253,#1254,#1255);
#1253 = CARTESIAN_POINT('',(0.,-281.7179487179,-10.));
#1254 = DIRECTION('',(0.,5.4E-16,-1.));
#1255 = DIRECTION('',(0.,1.,5.4E-16));
#1256 = ADVANCED_FACE('',(#1257),#1275,.F.);
#1257 = FACE_BOUND('',#1258,.F.);
#1258 = EDGE_LOOP('',(#1259,#1260,#1261,#1269));
#1259 = ORIENTED_EDGE('',*,*,#1002,.F.);
#1260 = ORIENTED_EDGE('',*,*,#1222,.T.);
#1261 = ORIENTED_EDGE('',*,*,#1262,.T.);
#1262 = EDGE_CURVE('',#1223,#1263,#1265,.T.);
#1263 = VERTEX_POINT('',#1264);
#1264 = CARTESIAN_POINT('',(-3.,-252.,-7.));
#1265 = LINE('',#1266,#1267);
#1266 = CARTESIAN_POINT('',(-3.,-252.,-13.));
#1267 = VECTOR('',#1268,1.);
#1268 = DIRECTION('',(0.,-2.2E-16,1.));
#1269 = ORIENTED_EDGE('',*,*,#1270,.F.);
#1270 = EDGE_CURVE('',#995,#1263,#1271,.T.);
#1271 = LINE('',#1272,#1273);
#1272 = CARTESIAN_POINT('',(-3.,-260.,-7.));
#1273 = VECTOR('',#1274,1.);
#1274 = DIRECTION('',(0.,1.,3.3E-16));
#1275 = PLANE('',#1276);
#1276 = AXIS2_PLACEMENT_3D('',#1277,#1278,#1279);
#1277 = CARTESIAN_POINT('',(-3.,-260.,-13.));
#1278 = DIRECTION('',(1.,0.,0.));
#1279 = DIRECTION('',(0.,-3.3E-16,1.));
#1280 = ADVANCED_FACE('',(#1281),#1299,.F.);
#1281 = FACE_BOUND('',#1282,.F.);
#1282 = EDGE_LOOP('',(#1283,#1284,#1292,#1298));
#1283 = ORIENTED_EDGE('',*,*,#1270,.T.);
#1284 = ORIENTED_EDGE('',*,*,#1285,.T.);
#1285 = EDGE_CURVE('',#1263,#1286,#1288,.T.);
#1286 = VERTEX_POINT('',#1287);
#1287 = CARTESIAN_POINT('',(3.,-252.,-7.));
#1288 = LINE('',#1289,#1290);
#1289 = CARTESIAN_POINT('',(-3.,-252.,-7.));
#1290 = VECTOR('',#1291,1.);
#1291 = DIRECTION('',(1.,0.,0.));
#1292 = ORIENTED_EDGE('',*,*,#1293,.F.);
#1293 = EDGE_CURVE('',#987,#1286,#1294,.T.);
#1294 = LINE('',#1295,#1296);
#1295 = CARTESIAN_POINT('',(3.,-260.,-7.));
#1296 = VECTOR('',#1297,1.);
#1297 = DIRECTION('',(0.,1.,3.3E-16));
#1298 = ORIENTED_EDGE('',*,*,#994,.F.);
#1299 = PLANE('',#1300);
#1300 = AXIS2_PLACEMENT_3D('',#1301,#1302,#1303);
#1301 = CARTESIAN_POINT('',(-3.,-260.,-7.));
#1302 = DIRECTION('',(0.,3.3E-16,-1.));
#1303 = DIRECTION('',(1.,0.,0.));
#1304 = ADVANCED_FACE('',(#1305),#1316,.F.);
#1305 = FACE_BOUND('',#1306,.F.);
#1306 = EDGE_LOOP('',(#1307,#1308,#1309,#1315));
#1307 = ORIENTED_EDGE('',*,*,#986,.F.);
#1308 = ORIENTED_EDGE('',*,*,#1293,.T.);
#1309 = ORIENTED_EDGE('',*,*,#1310,.T.);
#1310 = EDGE_CURVE('',#1286,#1231,#1311,.T.);
#1311 = LINE('',#1312,#1313);
#1312 = CARTESIAN_POINT('',(3.,-252.,-7.));
#1313 = VECTOR('',#1314,1.);
#1314 = DIRECTION('',(0.,2.2E-16,-1.));
#1315 = ORIENTED_EDGE('',*,*,#1238,.F.);
#1316 = PLANE('',#1317);
#1317 = AXIS2_PLACEMENT_3D('',#1318,#1319,#1320);
#1318 = CARTESIAN_POINT('',(3.,-260.,-7.));
#1319 = DIRECTION('',(-1.,0.,0.));
#1320 = DIRECTION('',(0.,3.3E-16,-1.));
#1321 = ADVANCED_FACE('',(#1322),#1347,.F.);
#1322 = FACE_BOUND('',#1323,.F.);
#1323 = EDGE_LOOP('',(#1324,#1325,#1333,#1341));
#1324 = ORIENTED_EDGE('',*,*,#962,.F.);
#1325 = ORIENTED_EDGE('',*,*,#1326,.T.);
#1326 = EDGE_CURVE('',#963,#1327,#1329,.T.);
#1327 = VERTEX_POINT('',#1328);
#1328 = CARTESIAN_POINT('',(10.,-252.,-3.));
#1329 = LINE('',#1330,#1331);
#1330 = CARTESIAN_POINT('',(10.,-260.,-3.));
#1331 = VECTOR('',#1332,1.);
#1332 = DIRECTION('',(0.,1.,2.2E-16));
#1333 = ORIENTED_EDGE('',*,*,#1334,.T.);
#1334 = EDGE_CURVE('',#1327,#1335,#1337,.T.);
#1335 = VERTEX_POINT('',#1336);
#1336 = CARTESIAN_POINT('',(7.,-252.,-3.));
#1337 = LINE('',#1338,#1339);
#1338 = CARTESIAN_POINT('',(13.,-252.,-3.));
#1339 = VECTOR('',#1340,1.);
#1340 = DIRECTION('',(-1.,0.,0.));
#1341 = ORIENTED_EDGE('',*,*,#1342,.F.);
#1342 = EDGE_CURVE('',#955,#1335,#1343,.T.);
#1343 = LINE('',#1344,#1345);
#1344 = CARTESIAN_POINT('',(7.,-260.,-3.));
#1345 = VECTOR('',#1346,1.);
#1346 = DIRECTION('',(0.,1.,3.3E-16));
#1347 = PLANE('',#1348);
#1348 = AXIS2_PLACEMENT_3D('',#1349,#1350,#1351);
#1349 = CARTESIAN_POINT('',(13.,-260.,-3.));
#1350 = DIRECTION('',(0.,-3.3E-16,1.));
#1351 = DIRECTION('',(-1.,0.,0.));
#1352 = ADVANCED_FACE('',(#1353),#1371,.F.);
#1353 = FACE_BOUND('',#1354,.F.);
#1354 = EDGE_LOOP('',(#1355,#1356,#1364,#1370));
#1355 = ORIENTED_EDGE('',*,*,#1342,.T.);
#1356 = ORIENTED_EDGE('',*,*,#1357,.T.);
#1357 = EDGE_CURVE('',#1335,#1358,#1360,.T.);
#1358 = VERTEX_POINT('',#1359);
#1359 = CARTESIAN_POINT('',(7.,-252.,3.));
#1360 = LINE('',#1361,#1362);
#1361 = CARTESIAN_POINT('',(7.,-252.,-3.));
#1362 = VECTOR('',#1363,1.);
#1363 = DIRECTION('',(0.,-2.2E-16,1.));
#1364 = ORIENTED_EDGE('',*,*,#1365,.F.);
#1365 = EDGE_CURVE('',#947,#1358,#1366,.T.);
#1366 = LINE('',#1367,#1368);
#1367 = CARTESIAN_POINT('',(7.,-260.,3.));
#1368 = VECTOR('',#1369,1.);
#1369 = DIRECTION('',(0.,1.,3.3E-16));
#1370 = ORIENTED_EDGE('',*,*,#954,.F.);
#1371 = PLANE('',#1372);
#1372 = AXIS2_PLACEMENT_3D('',#1373,#1374,#1375);
#1373 = CARTESIAN_POINT('',(7.,-260.,-3.));
#1374 = DIRECTION('',(1.,0.,0.));
#1375 = DIRECTION('',(0.,-3.3E-16,1.));
#1376 = ADVANCED_FACE('',(#1377),#1395,.F.);
#1377 = FACE_BOUND('',#1378,.F.);
#1378 = EDGE_LOOP('',(#1379,#1380,#1381,#1389));
#1379 = ORIENTED_EDGE('',*,*,#946,.F.);
#1380 = ORIENTED_EDGE('',*,*,#1365,.T.);
#1381 = ORIENTED_EDGE('',*,*,#1382,.T.);
#1382 = EDGE_CURVE('',#1358,#1383,#1385,.T.);
#1383 = VERTEX_POINT('',#1384);
#1384 = CARTESIAN_POINT('',(10.,-252.,3.));
#1385 = LINE('',#1386,#1387);
#1386 = CARTESIAN_POINT('',(7.,-252.,3.));
#1387 = VECTOR('',#1388,1.);
#1388 = DIRECTION('',(1.,0.,0.));
#1389 = ORIENTED_EDGE('',*,*,#1390,.F.);
#1390 = EDGE_CURVE('',#939,#1383,#1391,.T.);
#1391 = LINE('',#1392,#1393);
#1392 = CARTESIAN_POINT('',(10.,-260.,3.));
#1393 = VECTOR('',#1394,1.);
#1394 = DIRECTION('',(0.,1.,2.2E-16));
#1395 = PLANE('',#1396);
#1396 = AXIS2_PLACEMENT_3D('',#1397,#1398,#1399);
#1397 = CARTESIAN_POINT('',(7.,-260.,3.));
#1398 = DIRECTION('',(0.,3.3E-16,-1.));
#1399 = DIRECTION('',(1.,0.,0.));
#1400 = ADVANCED_FACE('',(#1401),#1412,.T.);
#1401 = FACE_BOUND('',#1402,.T.);
#1402 = EDGE_LOOP('',(#1403,#1409,#1410,#1411));
#1403 = ORIENTED_EDGE('',*,*,#1404,.T.);
#1404 = EDGE_CURVE('',#1194,#1138,#1405,.T.);
#1405 = LINE('',#1406,#1407);
#1406 = CARTESIAN_POINT('',(-10.,-252.,1.5));
#1407 = VECTOR('',#1408,1.);
#1408 = DIRECTION('',(0.,-2.2E-16,1.));
#1409 = ORIENTED_EDGE('',*,*,#1145,.T.);
#1410 = ORIENTED_EDGE('',*,*,#1168,.T.);
#1411 = ORIENTED_EDGE('',*,*,#1193,.T.);
#1412 = PLANE('',#1413);
#1413 = AXIS2_PLACEMENT_3D('',#1414,#1415,#1416);
#1414 = CARTESIAN_POINT('',(0.,-252.,1.705302565824E-13));
#1415 = DIRECTION('',(0.,1.,2.2E-16));
#1416 = DIRECTION('',(0.,-2.2E-16,1.));
#1417 = ADVANCED_FACE('',(#1418),#1429,.T.);
#1418 = FACE_BOUND('',#1419,.T.);
#1419 = EDGE_LOOP('',(#1420,#1421,#1422,#1428));
#1420 = ORIENTED_EDGE('',*,*,#1357,.T.);
#1421 = ORIENTED_EDGE('',*,*,#1382,.T.);
#1422 = ORIENTED_EDGE('',*,*,#1423,.T.);
#1423 = EDGE_CURVE('',#1383,#1327,#1424,.T.);
#1424 = LINE('',#1425,#1426);
#1425 = CARTESIAN_POINT('',(10.,-252.,-1.5));
#1426 = VECTOR('',#1427,1.);
#1427 = DIRECTION('',(0.,2.2E-16,-1.));
#1428 = ORIENTED_EDGE('',*,*,#1334,.T.);
#1429 = PLANE('',#1430);
#1430 = AXIS2_PLACEMENT_3D('',#1431,#1432,#1433);
#1431 = CARTESIAN_POINT('',(0.,-252.,1.705302565824E-13));
#1432 = DIRECTION('',(0.,1.,2.2E-16));
#1433 = DIRECTION('',(0.,-2.2E-16,1.));
#1434 = ADVANCED_FACE('',(#1435),#1441,.T.);
#1435 = FACE_BOUND('',#1436,.T.);
#1436 = EDGE_LOOP('',(#1437,#1438,#1439,#1440));
#1437 = ORIENTED_EDGE('',*,*,#1262,.T.);
#1438 = ORIENTED_EDGE('',*,*,#1285,.T.);
#1439 = ORIENTED_EDGE('',*,*,#1310,.T.);
#1440 = ORIENTED_EDGE('',*,*,#1230,.T.);
#1441 = PLANE('',#1442);
#1442 = AXIS2_PLACEMENT_3D('',#1443,#1444,#1445);
#1443 = CARTESIAN_POINT('',(0.,-252.,1.705302565824E-13));
#1444 = DIRECTION('',(0.,1.,2.2E-16));
#1445 = DIRECTION('',(0.,-2.2E-16,1.));
#1446 = ADVANCED_FACE('',(#1447),#1462,.T.);
#1447 = FACE_BOUND('',#1448,.T.);
#1448 = EDGE_LOOP('',(#1449,#1455,#1456,#1457,#1458,#1459,#1460,#1461));
#1449 = ORIENTED_EDGE('',*,*,#1450,.T.);
#1450 = EDGE_CURVE('',#338,#768,#1451,.T.);
#1451 = LINE('',#1452,#1453);
#1452 = CARTESIAN_POINT('',(-10.,-267.,11.5));
#1453 = VECTOR('',#1454,1.);
#1454 = DIRECTION('',(0.,-1.E-15,1.));
#1455 = ORIENTED_EDGE('',*,*,#767,.T.);
#1456 = ORIENTED_EDGE('',*,*,#807,.F.);
#1457 = ORIENTED_EDGE('',*,*,#879,.F.);
#1458 = ORIENTED_EDGE('',*,*,#897,.F.);
#1459 = ORIENTED_EDGE('',*,*,#265,.T.);
#1460 = ORIENTED_EDGE('',*,*,#321,.F.);
#1461 = ORIENTED_EDGE('',*,*,#337,.T.);
#1462 = PLANE('',#1463);
#1463 = AXIS2_PLACEMENT_3D('',#1464,#1465,#1466);
#1464 = CARTESIAN_POINT('',(-8.572113943028,-267.,23.428223388306));
#1465 = DIRECTION('',(1.74E-15,1.,7.8E-16));
#1466 = DIRECTION('',(1.,-1.74E-15,0.));
#1467 = ADVANCED_FACE('',(#1468),#1483,.T.);
#1468 = FACE_BOUND('',#1469,.T.);
#1469 = EDGE_LOOP('',(#1470,#1471,#1472,#1473,#1474,#1475,#1476,#1477));
#1470 = ORIENTED_EDGE('',*,*,#491,.F.);
#1471 = ORIENTED_EDGE('',*,*,#531,.F.);
#1472 = ORIENTED_EDGE('',*,*,#603,.F.);
#1473 = ORIENTED_EDGE('',*,*,#628,.F.);
#1474 = ORIENTED_EDGE('',*,*,#669,.T.);
#1475 = ORIENTED_EDGE('',*,*,#725,.F.);
#1476 = ORIENTED_EDGE('',*,*,#751,.T.);
#1477 = ORIENTED_EDGE('',*,*,#1478,.T.);
#1478 = EDGE_CURVE('',#744,#484,#1479,.T.);
#1479 = LINE('',#1480,#1481);
#1480 = CARTESIAN_POINT('',(10.,-267.,24.375));
#1481 = VECTOR('',#1482,1.);
#1482 = DIRECTION('',(0.,1.E-15,-1.));
#1483 = PLANE('',#1484);
#1484 = AXIS2_PLACEMENT_3D('',#1485,#1486,#1487);
#1485 = CARTESIAN_POINT('',(8.572113943028,-267.,23.428223388306));
#1486 = DIRECTION('',(-1.33E-15,1.,9.9E-16));
#1487 = DIRECTION('',(1.,1.33E-15,0.));
#1488 = ADVANCED_FACE('',(#1489),#1501,.T.);
#1489 = FACE_BOUND('',#1490,.T.);
#1490 = EDGE_LOOP('',(#1491,#1492,#1493,#1494,#1495,#1496,#1497,#1498,
    #1499,#1500));
#1491 = ORIENTED_EDGE('',*,*,#775,.T.);
#1492 = ORIENTED_EDGE('',*,*,#1450,.F.);
#1493 = ORIENTED_EDGE('',*,*,#345,.F.);
#1494 = ORIENTED_EDGE('',*,*,#1050,.T.);
#1495 = ORIENTED_EDGE('',*,*,#1137,.T.);
#1496 = ORIENTED_EDGE('',*,*,#1404,.F.);
#1497 = ORIENTED_EDGE('',*,*,#1201,.F.);
#1498 = ORIENTED_EDGE('',*,*,#1018,.T.);
#1499 = ORIENTED_EDGE('',*,*,#1215,.T.);
#1500 = ORIENTED_EDGE('',*,*,#1119,.F.);
#1501 = PLANE('',#1502);
#1502 = AXIS2_PLACEMENT_3D('',#1503,#1504,#1505);
#1503 = CARTESIAN_POINT('',(-10.,-283.4012048192,11.013554216867));
#1504 = DIRECTION('',(-1.,-0.,0.));
#1505 = DIRECTION('',(0.,-1.,-2.2E-16));
#1506 = ADVANCED_FACE('',(#1507),#1519,.T.);
#1507 = FACE_BOUND('',#1508,.T.);
#1508 = EDGE_LOOP('',(#1509,#1510,#1511,#1512,#1513,#1514,#1515,#1516,
    #1517,#1518));
#1509 = ORIENTED_EDGE('',*,*,#1245,.F.);
#1510 = ORIENTED_EDGE('',*,*,#970,.T.);
#1511 = ORIENTED_EDGE('',*,*,#1326,.T.);
#1512 = ORIENTED_EDGE('',*,*,#1423,.F.);
#1513 = ORIENTED_EDGE('',*,*,#1390,.F.);
#1514 = ORIENTED_EDGE('',*,*,#938,.T.);
#1515 = ORIENTED_EDGE('',*,*,#481,.T.);
#1516 = ORIENTED_EDGE('',*,*,#1478,.F.);
#1517 = ORIENTED_EDGE('',*,*,#741,.F.);
#1518 = ORIENTED_EDGE('',*,*,#1103,.F.);
#1519 = PLANE('',#1520);
#1520 = AXIS2_PLACEMENT_3D('',#1521,#1522,#1523);
#1521 = CARTESIAN_POINT('',(10.,-283.4012048192,11.013554216867));
#1522 = DIRECTION('',(1.,0.,0.));
#1523 = DIRECTION('',(-0.,1.,2.2E-16));
#1524 = ( GEOMETRIC_REPRESENTATION_CONTEXT(3) 
GLOBAL_UNCERTAINTY_ASSIGNED_CONTEXT((#1528)) 
GLOBAL_UNIT_ASSIGNED_CONTEXT((#1525,#1526,#1527)) REPRESENTATION_CONTEXT
('Context #1','3D Context with UNIT and UNCERTAINTY') );
#1525 = ( LENGTH_UNIT() NAMED_UNIT(*) SI_UNIT(.MILLI.,.METRE.) );
#1526 = ( NAMED_UNIT(*) PLANE_ANGLE_UNIT() SI_UNIT($,.RADIAN.) );
#1527 = ( NAMED_UNIT(*) SI_UNIT($,.STERADIAN.) SOLID_ANGLE_UNIT() );
#1528 = UNCERTAINTY_MEASURE_WITH_UNIT(LENGTH_MEASURE(1.E-04),#1525,
  'distance_accuracy_value','confusion accuracy');
#1529 = PRODUCT_RELATED_PRODUCT_CATEGORY('part',$,(#7));
#1530 = MECHANICAL_DESIGN_GEOMETRIC_PRESENTATION_REPRESENTATION('',(
    #1531),#1524);
#1531 = STYLED_ITEM('color',(#1532),#15);
#1532 = PRESENTATION_STYLE_ASSIGNMENT((#1533,#1539));
#1533 = SURFACE_STYLE_USAGE(.BOTH.,#1534);
#1534 = SURFACE_SIDE_STYLE('',(#1535));
#1535 = SURFACE_STYLE_FILL_AREA(#1536);
#1536 = FILL_AREA_STYLE('',(#1537));
#1537 = FILL_AREA_STYLE_COLOUR('',#1538);
#1538 = COLOUR_RGB('',0.447058818107,0.474509808674,0.501960817233);
#1539 = CURVE_STYLE('',#1540,POSITIVE_LENGTH_MEASURE(0.1),#1541);
#1540 = DRAUGHTING_PRE_DEFINED_CURVE_FONT('continuous');
#1541 = COLOUR_RGB('',9.803921802644E-02,9.803921802644E-02,
  9.803921802644E-02);
ENDSEC;
END-ISO-10303-21;
