ISO-10303-21;
HEADER;
FILE_DESCRIPTION(('FreeCAD Model'),'2;1');
FILE_NAME('Open CASCADE Shape Model','2025-11-04T09:13:38',(''),(''),
  'Open CASCADE STEP processor 7.9','FreeCAD','Unknown');
FILE_SCHEMA(('AUTOMOTIVE_DESIGN { 1 0 10303 214 1 1 1 1 }'));
ENDSEC;
DATA;
#1 = APPLICATION_PROTOCOL_DEFINITION('international standard',
  'automotive_design',2000,#2);
#2 = APPLICATION_CONTEXT(
  'core data for automotive mechanical design processes');
#3 = SHAPE_DEFINITION_REPRESENTATION(#4,#10);
#4 = PRODUCT_DEFINITION_SHAPE('','',#5);
#5 = PRODUCT_DEFINITION('design','',#6,#9);
#6 = PRODUCT_DEFINITION_FORMATION('','',#7);
#7 = PRODUCT('ToolheadSupport','ToolheadSupport','',(#8));
#8 = PRODUCT_CONTEXT('',#2,'mechanical');
#9 = PRODUCT_DEFINITION_CONTEXT('part definition',#2,'design');
#10 = ADVANCED_BREP_SHAPE_REPRESENTATION('',(#11,#15),#1373);
#11 = AXIS2_PLACEMENT_3D('',#12,#13,#14);
#12 = CARTESIAN_POINT('',(0.,0.,0.));
#13 = DIRECTION('',(0.,0.,1.));
#14 = DIRECTION('',(1.,0.,-0.));
#15 = MANIFOLD_SOLID_BREP('',#16);
#16 = CLOSED_SHELL('',(#17,#287,#318,#343,#408,#463,#480,#527,#582,#599,
    #624,#648,#672,#730,#747,#764,#791,#818,#845,#872,#886,#915,#1002,
    #1019,#1051,#1076,#1101,#1115,#1132,#1157,#1182,#1206,#1230,#1254,
    #1278,#1295,#1320,#1345));
#17 = ADVANCED_FACE('',(#18,#166,#195,#224,#253),#282,.T.);
#18 = FACE_BOUND('',#19,.T.);
#19 = EDGE_LOOP('',(#20,#30,#39,#47,#55,#63,#72,#80,#88,#96,#104,#112,
    #120,#128,#136,#144,#152,#160));
#20 = ORIENTED_EDGE('',*,*,#21,.T.);
#21 = EDGE_CURVE('',#22,#24,#26,.T.);
#22 = VERTEX_POINT('',#23);
#23 = CARTESIAN_POINT('',(-7.49999999999,-115.9,-10.75));
#24 = VERTEX_POINT('',#25);
#25 = CARTESIAN_POINT('',(-7.49999999999,-114.2063545633,-10.75));
#26 = LINE('',#27,#28);
#27 = CARTESIAN_POINT('',(-7.49999999999,-115.9,-10.75));
#28 = VECTOR('',#29,1.);
#29 = DIRECTION('',(0.,1.,-2.2E-16));
#30 = ORIENTED_EDGE('',*,*,#31,.F.);
#31 = EDGE_CURVE('',#32,#24,#34,.T.);
#32 = VERTEX_POINT('',#33);
#33 = CARTESIAN_POINT('',(-9.49999999999,-112.2063545633,-10.75));
#34 = CIRCLE('',#35,2.);
#35 = AXIS2_PLACEMENT_3D('',#36,#37,#38);
#36 = CARTESIAN_POINT('',(-9.49999999999,-114.2063545633,-10.75));
#37 = DIRECTION('',(0.,0.,-1.));
#38 = DIRECTION('',(0.,1.,0.));
#39 = ORIENTED_EDGE('',*,*,#40,.F.);
#40 = EDGE_CURVE('',#41,#32,#43,.T.);
#41 = VERTEX_POINT('',#42);
#42 = CARTESIAN_POINT('',(-10.,-112.2063545633,-10.75));
#43 = LINE('',#44,#45);
#44 = CARTESIAN_POINT('',(-10.,-112.2063545633,-10.75));
#45 = VECTOR('',#46,1.);
#46 = DIRECTION('',(1.,0.,0.));
#47 = ORIENTED_EDGE('',*,*,#48,.F.);
#48 = EDGE_CURVE('',#49,#41,#51,.T.);
#49 = VERTEX_POINT('',#50);
#50 = CARTESIAN_POINT('',(-10.,-82.69364543662,-10.75));
#51 = LINE('',#52,#53);
#52 = CARTESIAN_POINT('',(-10.,-82.69364543662,-10.75));
#53 = VECTOR('',#54,1.);
#54 = DIRECTION('',(0.,-1.,0.));
#55 = ORIENTED_EDGE('',*,*,#56,.T.);
#56 = EDGE_CURVE('',#49,#57,#59,.T.);
#57 = VERTEX_POINT('',#58);
#58 = CARTESIAN_POINT('',(-9.49999999999,-82.69364543662,-10.75));
#59 = LINE('',#60,#61);
#60 = CARTESIAN_POINT('',(-10.,-82.69364543662,-10.75));
#61 = VECTOR('',#62,1.);
#62 = DIRECTION('',(1.,0.,0.));
#63 = ORIENTED_EDGE('',*,*,#64,.F.);
#64 = EDGE_CURVE('',#65,#57,#67,.T.);
#65 = VERTEX_POINT('',#66);
#66 = CARTESIAN_POINT('',(-7.49999999999,-80.69364543662,-10.75));
#67 = CIRCLE('',#68,2.);
#68 = AXIS2_PLACEMENT_3D('',#69,#70,#71);
#69 = CARTESIAN_POINT('',(-9.49999999999,-80.69364543662,-10.75));
#70 = DIRECTION('',(0.,0.,-1.));
#71 = DIRECTION('',(0.,1.,0.));
#72 = ORIENTED_EDGE('',*,*,#73,.T.);
#73 = EDGE_CURVE('',#65,#74,#76,.T.);
#74 = VERTEX_POINT('',#75);
#75 = CARTESIAN_POINT('',(-7.49999999999,-79.,-10.75));
#76 = LINE('',#77,#78);
#77 = CARTESIAN_POINT('',(-7.49999999999,-115.9,-10.75));
#78 = VECTOR('',#79,1.);
#79 = DIRECTION('',(0.,1.,-2.2E-16));
#80 = ORIENTED_EDGE('',*,*,#81,.T.);
#81 = EDGE_CURVE('',#74,#82,#84,.T.);
#82 = VERTEX_POINT('',#83);
#83 = CARTESIAN_POINT('',(-3.5,-79.,-10.75));
#84 = LINE('',#85,#86);
#85 = CARTESIAN_POINT('',(-6.75,-79.,-10.75));
#86 = VECTOR('',#87,1.);
#87 = DIRECTION('',(1.,0.,0.));
#88 = ORIENTED_EDGE('',*,*,#89,.F.);
#89 = EDGE_CURVE('',#90,#82,#92,.T.);
#90 = VERTEX_POINT('',#91);
#91 = CARTESIAN_POINT('',(-3.5,-82.69364543662,-10.75));
#92 = LINE('',#93,#94);
#93 = CARTESIAN_POINT('',(-3.5,-115.9,-10.75));
#94 = VECTOR('',#95,1.);
#95 = DIRECTION('',(0.,1.,-2.2E-16));
#96 = ORIENTED_EDGE('',*,*,#97,.T.);
#97 = EDGE_CURVE('',#90,#98,#100,.T.);
#98 = VERTEX_POINT('',#99);
#99 = CARTESIAN_POINT('',(3.5,-82.69364543662,-10.75));
#100 = LINE('',#101,#102);
#101 = CARTESIAN_POINT('',(-10.,-82.69364543662,-10.75));
#102 = VECTOR('',#103,1.);
#103 = DIRECTION('',(1.,0.,0.));
#104 = ORIENTED_EDGE('',*,*,#105,.T.);
#105 = EDGE_CURVE('',#98,#106,#108,.T.);
#106 = VERTEX_POINT('',#107);
#107 = CARTESIAN_POINT('',(3.5,-79.,-10.75));
#108 = LINE('',#109,#110);
#109 = CARTESIAN_POINT('',(3.5,-115.9,-10.75));
#110 = VECTOR('',#111,1.);
#111 = DIRECTION('',(0.,1.,-2.2E-16));
#112 = ORIENTED_EDGE('',*,*,#113,.T.);
#113 = EDGE_CURVE('',#106,#114,#116,.T.);
#114 = VERTEX_POINT('',#115);
#115 = CARTESIAN_POINT('',(10.,-79.,-10.75));
#116 = LINE('',#117,#118);
#117 = CARTESIAN_POINT('',(7.5,-79.,-10.75));
#118 = VECTOR('',#119,1.);
#119 = DIRECTION('',(1.,0.,0.));
#120 = ORIENTED_EDGE('',*,*,#121,.T.);
#121 = EDGE_CURVE('',#114,#122,#124,.T.);
#122 = VERTEX_POINT('',#123);
#123 = CARTESIAN_POINT('',(10.,-115.9,-10.75));
#124 = LINE('',#125,#126);
#125 = CARTESIAN_POINT('',(10.,-106.675,-10.75));
#126 = VECTOR('',#127,1.);
#127 = DIRECTION('',(0.,-1.,2.2E-16));
#128 = ORIENTED_EDGE('',*,*,#129,.T.);
#129 = EDGE_CURVE('',#122,#130,#132,.T.);
#130 = VERTEX_POINT('',#131);
#131 = CARTESIAN_POINT('',(3.5,-115.9,-10.75));
#132 = LINE('',#133,#134);
#133 = CARTESIAN_POINT('',(7.5,-115.9,-10.75));
#134 = VECTOR('',#135,1.);
#135 = DIRECTION('',(-1.,0.,0.));
#136 = ORIENTED_EDGE('',*,*,#137,.T.);
#137 = EDGE_CURVE('',#130,#138,#140,.T.);
#138 = VERTEX_POINT('',#139);
#139 = CARTESIAN_POINT('',(3.5,-112.2063545633,-10.75));
#140 = LINE('',#141,#142);
#141 = CARTESIAN_POINT('',(3.5,-115.9,-10.75));
#142 = VECTOR('',#143,1.);
#143 = DIRECTION('',(0.,1.,-2.2E-16));
#144 = ORIENTED_EDGE('',*,*,#145,.F.);
#145 = EDGE_CURVE('',#146,#138,#148,.T.);
#146 = VERTEX_POINT('',#147);
#147 = CARTESIAN_POINT('',(-3.5,-112.2063545633,-10.75));
#148 = LINE('',#149,#150);
#149 = CARTESIAN_POINT('',(-10.,-112.2063545633,-10.75));
#150 = VECTOR('',#151,1.);
#151 = DIRECTION('',(1.,0.,0.));
#152 = ORIENTED_EDGE('',*,*,#153,.F.);
#153 = EDGE_CURVE('',#154,#146,#156,.T.);
#154 = VERTEX_POINT('',#155);
#155 = CARTESIAN_POINT('',(-3.5,-115.9,-10.75));
#156 = LINE('',#157,#158);
#157 = CARTESIAN_POINT('',(-3.5,-115.9,-10.75));
#158 = VECTOR('',#159,1.);
#159 = DIRECTION('',(0.,1.,-2.2E-16));
#160 = ORIENTED_EDGE('',*,*,#161,.T.);
#161 = EDGE_CURVE('',#154,#22,#162,.T.);
#162 = LINE('',#163,#164);
#163 = CARTESIAN_POINT('',(-3.5,-115.9,-10.75));
#164 = VECTOR('',#165,1.);
#165 = DIRECTION('',(-1.,0.,0.));
#166 = FACE_BOUND('',#167,.T.);
#167 = EDGE_LOOP('',(#168,#179,#188));
#168 = ORIENTED_EDGE('',*,*,#169,.F.);
#169 = EDGE_CURVE('',#170,#172,#174,.T.);
#170 = VERTEX_POINT('',#171);
#171 = CARTESIAN_POINT('',(7.5,-94.15,-10.75));
#172 = VERTEX_POINT('',#173);
#173 = CARTESIAN_POINT('',(7.5,-90.75,-10.75));
#174 = CIRCLE('',#175,1.7);
#175 = AXIS2_PLACEMENT_3D('',#176,#177,#178);
#176 = CARTESIAN_POINT('',(7.5,-92.45,-10.75));
#177 = DIRECTION('',(0.,0.,-1.));
#178 = DIRECTION('',(1.,0.,0.));
#179 = ORIENTED_EDGE('',*,*,#180,.F.);
#180 = EDGE_CURVE('',#181,#170,#183,.T.);
#181 = VERTEX_POINT('',#182);
#182 = CARTESIAN_POINT('',(9.2,-92.45,-10.75));
#183 = CIRCLE('',#184,1.7);
#184 = AXIS2_PLACEMENT_3D('',#185,#186,#187);
#185 = CARTESIAN_POINT('',(7.5,-92.45,-10.75));
#186 = DIRECTION('',(0.,0.,-1.));
#187 = DIRECTION('',(1.,0.,0.));
#188 = ORIENTED_EDGE('',*,*,#189,.F.);
#189 = EDGE_CURVE('',#172,#181,#190,.T.);
#190 = CIRCLE('',#191,1.7);
#191 = AXIS2_PLACEMENT_3D('',#192,#193,#194);
#192 = CARTESIAN_POINT('',(7.5,-92.45,-10.75));
#193 = DIRECTION('',(0.,0.,-1.));
#194 = DIRECTION('',(1.,0.,0.));
#195 = FACE_BOUND('',#196,.T.);
#196 = EDGE_LOOP('',(#197,#208,#217));
#197 = ORIENTED_EDGE('',*,*,#198,.F.);
#198 = EDGE_CURVE('',#199,#201,#203,.T.);
#199 = VERTEX_POINT('',#200);
#200 = CARTESIAN_POINT('',(-7.49999999999,-90.75,-10.75));
#201 = VERTEX_POINT('',#202);
#202 = CARTESIAN_POINT('',(-5.8,-92.45,-10.75));
#203 = CIRCLE('',#204,1.7);
#204 = AXIS2_PLACEMENT_3D('',#205,#206,#207);
#205 = CARTESIAN_POINT('',(-7.5,-92.45,-10.75));
#206 = DIRECTION('',(0.,0.,-1.));
#207 = DIRECTION('',(1.,0.,0.));
#208 = ORIENTED_EDGE('',*,*,#209,.F.);
#209 = EDGE_CURVE('',#210,#199,#212,.T.);
#210 = VERTEX_POINT('',#211);
#211 = CARTESIAN_POINT('',(-7.49999999999,-94.15,-10.75));
#212 = CIRCLE('',#213,1.7);
#213 = AXIS2_PLACEMENT_3D('',#214,#215,#216);
#214 = CARTESIAN_POINT('',(-7.5,-92.45,-10.75));
#215 = DIRECTION('',(0.,0.,-1.));
#216 = DIRECTION('',(1.,0.,0.));
#217 = ORIENTED_EDGE('',*,*,#218,.F.);
#218 = EDGE_CURVE('',#201,#210,#219,.T.);
#219 = CIRCLE('',#220,1.7);
#220 = AXIS2_PLACEMENT_3D('',#221,#222,#223);
#221 = CARTESIAN_POINT('',(-7.5,-92.45,-10.75));
#222 = DIRECTION('',(0.,0.,-1.));
#223 = DIRECTION('',(1.,0.,0.));
#224 = FACE_BOUND('',#225,.T.);
#225 = EDGE_LOOP('',(#226,#237,#246));
#226 = ORIENTED_EDGE('',*,*,#227,.F.);
#227 = EDGE_CURVE('',#228,#230,#232,.T.);
#228 = VERTEX_POINT('',#229);
#229 = CARTESIAN_POINT('',(7.5,-104.15,-10.75));
#230 = VERTEX_POINT('',#231);
#231 = CARTESIAN_POINT('',(7.5,-100.75,-10.75));
#232 = CIRCLE('',#233,1.7);
#233 = AXIS2_PLACEMENT_3D('',#234,#235,#236);
#234 = CARTESIAN_POINT('',(7.5,-102.45,-10.75));
#235 = DIRECTION('',(0.,0.,-1.));
#236 = DIRECTION('',(1.,0.,0.));
#237 = ORIENTED_EDGE('',*,*,#238,.F.);
#238 = EDGE_CURVE('',#239,#228,#241,.T.);
#239 = VERTEX_POINT('',#240);
#240 = CARTESIAN_POINT('',(9.2,-102.45,-10.75));
#241 = CIRCLE('',#242,1.7);
#242 = AXIS2_PLACEMENT_3D('',#243,#244,#245);
#243 = CARTESIAN_POINT('',(7.5,-102.45,-10.75));
#244 = DIRECTION('',(0.,0.,-1.));
#245 = DIRECTION('',(1.,0.,0.));
#246 = ORIENTED_EDGE('',*,*,#247,.F.);
#247 = EDGE_CURVE('',#230,#239,#248,.T.);
#248 = CIRCLE('',#249,1.7);
#249 = AXIS2_PLACEMENT_3D('',#250,#251,#252);
#250 = CARTESIAN_POINT('',(7.5,-102.45,-10.75));
#251 = DIRECTION('',(0.,0.,-1.));
#252 = DIRECTION('',(1.,0.,0.));
#253 = FACE_BOUND('',#254,.T.);
#254 = EDGE_LOOP('',(#255,#266,#275));
#255 = ORIENTED_EDGE('',*,*,#256,.F.);
#256 = EDGE_CURVE('',#257,#259,#261,.T.);
#257 = VERTEX_POINT('',#258);
#258 = CARTESIAN_POINT('',(-7.49999999999,-100.75,-10.75));
#259 = VERTEX_POINT('',#260);
#260 = CARTESIAN_POINT('',(-5.8,-102.45,-10.75));
#261 = CIRCLE('',#262,1.7);
#262 = AXIS2_PLACEMENT_3D('',#263,#264,#265);
#263 = CARTESIAN_POINT('',(-7.5,-102.45,-10.75));
#264 = DIRECTION('',(0.,0.,-1.));
#265 = DIRECTION('',(1.,0.,0.));
#266 = ORIENTED_EDGE('',*,*,#267,.F.);
#267 = EDGE_CURVE('',#268,#257,#270,.T.);
#268 = VERTEX_POINT('',#269);
#269 = CARTESIAN_POINT('',(-7.49999999999,-104.15,-10.75));
#270 = CIRCLE('',#271,1.7);
#271 = AXIS2_PLACEMENT_3D('',#272,#273,#274);
#272 = CARTESIAN_POINT('',(-7.5,-102.45,-10.75));
#273 = DIRECTION('',(0.,0.,-1.));
#274 = DIRECTION('',(1.,0.,0.));
#275 = ORIENTED_EDGE('',*,*,#276,.F.);
#276 = EDGE_CURVE('',#259,#268,#277,.T.);
#277 = CIRCLE('',#278,1.7);
#278 = AXIS2_PLACEMENT_3D('',#279,#280,#281);
#279 = CARTESIAN_POINT('',(-7.5,-102.45,-10.75));
#280 = DIRECTION('',(0.,0.,-1.));
#281 = DIRECTION('',(1.,0.,0.));
#282 = PLANE('',#283);
#283 = AXIS2_PLACEMENT_3D('',#284,#285,#286);
#284 = CARTESIAN_POINT('',(0.143638244296,-97.45,-10.75));
#285 = DIRECTION('',(-0.,-0.,-1.));
#286 = DIRECTION('',(-1.,0.,0.));
#287 = ADVANCED_FACE('',(#288),#313,.F.);
#288 = FACE_BOUND('',#289,.F.);
#289 = EDGE_LOOP('',(#290,#300,#306,#307));
#290 = ORIENTED_EDGE('',*,*,#291,.F.);
#291 = EDGE_CURVE('',#292,#294,#296,.T.);
#292 = VERTEX_POINT('',#293);
#293 = CARTESIAN_POINT('',(-7.49999999999,-115.9,-20.75));
#294 = VERTEX_POINT('',#295);
#295 = CARTESIAN_POINT('',(-7.49999999999,-114.2063545633,-20.75));
#296 = LINE('',#297,#298);
#297 = CARTESIAN_POINT('',(-7.49999999999,-115.9,-20.75));
#298 = VECTOR('',#299,1.);
#299 = DIRECTION('',(0.,1.,-2.2E-16));
#300 = ORIENTED_EDGE('',*,*,#301,.F.);
#301 = EDGE_CURVE('',#22,#292,#302,.T.);
#302 = LINE('',#303,#304);
#303 = CARTESIAN_POINT('',(-7.49999999999,-115.9,-10.75));
#304 = VECTOR('',#305,1.);
#305 = DIRECTION('',(0.,0.,-1.));
#306 = ORIENTED_EDGE('',*,*,#21,.T.);
#307 = ORIENTED_EDGE('',*,*,#308,.T.);
#308 = EDGE_CURVE('',#24,#294,#309,.T.);
#309 = LINE('',#310,#311);
#310 = CARTESIAN_POINT('',(-7.49999999999,-114.2063545633,-10.75));
#311 = VECTOR('',#312,1.);
#312 = DIRECTION('',(0.,0.,-1.));
#313 = PLANE('',#314);
#314 = AXIS2_PLACEMENT_3D('',#315,#316,#317);
#315 = CARTESIAN_POINT('',(-7.49999999999,-115.9,-10.75));
#316 = DIRECTION('',(-1.,0.,0.));
#317 = DIRECTION('',(-0.,-2.2E-16,-1.));
#318 = ADVANCED_FACE('',(#319),#338,.T.);
#319 = FACE_BOUND('',#320,.T.);
#320 = EDGE_LOOP('',(#321,#322,#323,#332));
#321 = ORIENTED_EDGE('',*,*,#31,.T.);
#322 = ORIENTED_EDGE('',*,*,#308,.T.);
#323 = ORIENTED_EDGE('',*,*,#324,.F.);
#324 = EDGE_CURVE('',#325,#294,#327,.T.);
#325 = VERTEX_POINT('',#326);
#326 = CARTESIAN_POINT('',(-9.49999999999,-112.2063545633,-20.75));
#327 = CIRCLE('',#328,2.);
#328 = AXIS2_PLACEMENT_3D('',#329,#330,#331);
#329 = CARTESIAN_POINT('',(-9.49999999999,-114.2063545633,-20.75));
#330 = DIRECTION('',(0.,0.,-1.));
#331 = DIRECTION('',(0.,1.,0.));
#332 = ORIENTED_EDGE('',*,*,#333,.F.);
#333 = EDGE_CURVE('',#32,#325,#334,.T.);
#334 = LINE('',#335,#336);
#335 = CARTESIAN_POINT('',(-9.49999999999,-112.2063545633,-10.75));
#336 = VECTOR('',#337,1.);
#337 = DIRECTION('',(0.,0.,-1.));
#338 = CYLINDRICAL_SURFACE('',#339,2.);
#339 = AXIS2_PLACEMENT_3D('',#340,#341,#342);
#340 = CARTESIAN_POINT('',(-9.49999999999,-114.2063545633,-10.75));
#341 = DIRECTION('',(0.,0.,-1.));
#342 = DIRECTION('',(0.,1.,0.));
#343 = ADVANCED_FACE('',(#344,#385),#403,.F.);
#344 = FACE_BOUND('',#345,.F.);
#345 = EDGE_LOOP('',(#346,#354,#355,#363,#371,#379));
#346 = ORIENTED_EDGE('',*,*,#347,.F.);
#347 = EDGE_CURVE('',#122,#348,#350,.T.);
#348 = VERTEX_POINT('',#349);
#349 = CARTESIAN_POINT('',(10.,-115.9,-6.75));
#350 = LINE('',#351,#352);
#351 = CARTESIAN_POINT('',(10.,-115.9,-6.75));
#352 = VECTOR('',#353,1.);
#353 = DIRECTION('',(0.,0.,1.));
#354 = ORIENTED_EDGE('',*,*,#129,.T.);
#355 = ORIENTED_EDGE('',*,*,#356,.T.);
#356 = EDGE_CURVE('',#130,#357,#359,.T.);
#357 = VERTEX_POINT('',#358);
#358 = CARTESIAN_POINT('',(3.5,-115.9,-20.25));
#359 = LINE('',#360,#361);
#360 = CARTESIAN_POINT('',(3.5,-115.9,-10.75));
#361 = VECTOR('',#362,1.);
#362 = DIRECTION('',(0.,0.,-1.));
#363 = ORIENTED_EDGE('',*,*,#364,.F.);
#364 = EDGE_CURVE('',#365,#357,#367,.T.);
#365 = VERTEX_POINT('',#366);
#366 = CARTESIAN_POINT('',(-10.,-115.9,-33.75));
#367 = LINE('',#368,#369);
#368 = CARTESIAN_POINT('',(1.75,-115.9,-22.));
#369 = VECTOR('',#370,1.);
#370 = DIRECTION('',(0.707106781187,0.,0.707106781187));
#371 = ORIENTED_EDGE('',*,*,#372,.F.);
#372 = EDGE_CURVE('',#373,#365,#375,.T.);
#373 = VERTEX_POINT('',#374);
#374 = CARTESIAN_POINT('',(-10.,-115.9,-6.75));
#375 = LINE('',#376,#377);
#376 = CARTESIAN_POINT('',(-10.,-115.9,-6.75));
#377 = VECTOR('',#378,1.);
#378 = DIRECTION('',(0.,0.,-1.));
#379 = ORIENTED_EDGE('',*,*,#380,.T.);
#380 = EDGE_CURVE('',#373,#348,#381,.T.);
#381 = LINE('',#382,#383);
#382 = CARTESIAN_POINT('',(-10.,-115.9,-6.75));
#383 = VECTOR('',#384,1.);
#384 = DIRECTION('',(1.,0.,0.));
#385 = FACE_BOUND('',#386,.F.);
#386 = EDGE_LOOP('',(#387,#395,#396,#397));
#387 = ORIENTED_EDGE('',*,*,#388,.T.);
#388 = EDGE_CURVE('',#389,#154,#391,.T.);
#389 = VERTEX_POINT('',#390);
#390 = CARTESIAN_POINT('',(-3.5,-115.9,-20.75));
#391 = LINE('',#392,#393);
#392 = CARTESIAN_POINT('',(-3.5,-115.9,-20.75));
#393 = VECTOR('',#394,1.);
#394 = DIRECTION('',(0.,0.,1.));
#395 = ORIENTED_EDGE('',*,*,#161,.T.);
#396 = ORIENTED_EDGE('',*,*,#301,.T.);
#397 = ORIENTED_EDGE('',*,*,#398,.T.);
#398 = EDGE_CURVE('',#292,#389,#399,.T.);
#399 = LINE('',#400,#401);
#400 = CARTESIAN_POINT('',(-7.49999999999,-115.9,-20.75));
#401 = VECTOR('',#402,1.);
#402 = DIRECTION('',(1.,0.,0.));
#403 = PLANE('',#404);
#404 = AXIS2_PLACEMENT_3D('',#405,#406,#407);
#405 = CARTESIAN_POINT('',(-10.,-115.9,-6.75));
#406 = DIRECTION('',(0.,1.,0.));
#407 = DIRECTION('',(0.,0.,-1.));
#408 = ADVANCED_FACE('',(#409),#458,.F.);
#409 = FACE_BOUND('',#410,.F.);
#410 = EDGE_LOOP('',(#411,#412,#420,#428,#434,#435,#443,#451,#457));
#411 = ORIENTED_EDGE('',*,*,#40,.F.);
#412 = ORIENTED_EDGE('',*,*,#413,.F.);
#413 = EDGE_CURVE('',#414,#41,#416,.T.);
#414 = VERTEX_POINT('',#415);
#415 = CARTESIAN_POINT('',(-10.,-112.2063545633,-33.75));
#416 = LINE('',#417,#418);
#417 = CARTESIAN_POINT('',(-10.,-112.2063545633,-33.75));
#418 = VECTOR('',#419,1.);
#419 = DIRECTION('',(0.,0.,1.));
#420 = ORIENTED_EDGE('',*,*,#421,.T.);
#421 = EDGE_CURVE('',#414,#422,#424,.T.);
#422 = VERTEX_POINT('',#423);
#423 = CARTESIAN_POINT('',(3.5,-112.2063545633,-20.25));
#424 = LINE('',#425,#426);
#425 = CARTESIAN_POINT('',(-5.,-112.2063545633,-28.75));
#426 = VECTOR('',#427,1.);
#427 = DIRECTION('',(0.707106781187,0.,0.707106781187));
#428 = ORIENTED_EDGE('',*,*,#429,.F.);
#429 = EDGE_CURVE('',#138,#422,#430,.T.);
#430 = LINE('',#431,#432);
#431 = CARTESIAN_POINT('',(3.5,-112.2063545633,-22.25));
#432 = VECTOR('',#433,1.);
#433 = DIRECTION('',(0.,0.,-1.));
#434 = ORIENTED_EDGE('',*,*,#145,.F.);
#435 = ORIENTED_EDGE('',*,*,#436,.F.);
#436 = EDGE_CURVE('',#437,#146,#439,.T.);
#437 = VERTEX_POINT('',#438);
#438 = CARTESIAN_POINT('',(-3.5,-112.2063545633,-20.75));
#439 = LINE('',#440,#441);
#440 = CARTESIAN_POINT('',(-3.5,-112.2063545633,-27.25));
#441 = VECTOR('',#442,1.);
#442 = DIRECTION('',(0.,0.,1.));
#443 = ORIENTED_EDGE('',*,*,#444,.F.);
#444 = EDGE_CURVE('',#445,#437,#447,.T.);
#445 = VERTEX_POINT('',#446);
#446 = CARTESIAN_POINT('',(-7.49999999999,-112.2063545633,-20.75));
#447 = LINE('',#448,#449);
#448 = CARTESIAN_POINT('',(-8.749999999995,-112.2063545633,-20.75));
#449 = VECTOR('',#450,1.);
#450 = DIRECTION('',(1.,0.,0.));
#451 = ORIENTED_EDGE('',*,*,#452,.T.);
#452 = EDGE_CURVE('',#445,#325,#453,.T.);
#453 = LINE('',#454,#455);
#454 = CARTESIAN_POINT('',(-8.749999999995,-112.2063545633,-20.75));
#455 = VECTOR('',#456,1.);
#456 = DIRECTION('',(-1.,-0.,-0.));
#457 = ORIENTED_EDGE('',*,*,#333,.F.);
#458 = PLANE('',#459);
#459 = AXIS2_PLACEMENT_3D('',#460,#461,#462);
#460 = CARTESIAN_POINT('',(-10.,-112.2063545633,-33.75));
#461 = DIRECTION('',(0.,-1.,0.));
#462 = DIRECTION('',(0.,0.,1.));
#463 = ADVANCED_FACE('',(#464),#475,.F.);
#464 = FACE_BOUND('',#465,.F.);
#465 = EDGE_LOOP('',(#466,#467,#473,#474));
#466 = ORIENTED_EDGE('',*,*,#388,.F.);
#467 = ORIENTED_EDGE('',*,*,#468,.T.);
#468 = EDGE_CURVE('',#389,#437,#469,.T.);
#469 = LINE('',#470,#471);
#470 = CARTESIAN_POINT('',(-3.5,-115.9,-20.75));
#471 = VECTOR('',#472,1.);
#472 = DIRECTION('',(0.,1.,-2.2E-16));
#473 = ORIENTED_EDGE('',*,*,#436,.T.);
#474 = ORIENTED_EDGE('',*,*,#153,.F.);
#475 = PLANE('',#476);
#476 = AXIS2_PLACEMENT_3D('',#477,#478,#479);
#477 = CARTESIAN_POINT('',(-3.5,-115.9,-20.75));
#478 = DIRECTION('',(1.,0.,0.));
#479 = DIRECTION('',(0.,2.2E-16,1.));
#480 = ADVANCED_FACE('',(#481,#500,#511),#522,.T.);
#481 = FACE_BOUND('',#482,.T.);
#482 = EDGE_LOOP('',(#483,#492,#498,#499));
#483 = ORIENTED_EDGE('',*,*,#484,.T.);
#484 = EDGE_CURVE('',#414,#485,#487,.T.);
#485 = VERTEX_POINT('',#486);
#486 = CARTESIAN_POINT('',(-10.,-82.69364543662,-33.75));
#487 = CIRCLE('',#488,20.);
#488 = AXIS2_PLACEMENT_3D('',#489,#490,#491);
#489 = CARTESIAN_POINT('',(-10.,-97.45,-47.25));
#490 = DIRECTION('',(-1.,0.,0.));
#491 = DIRECTION('',(0.,-1.,0.));
#492 = ORIENTED_EDGE('',*,*,#493,.T.);
#493 = EDGE_CURVE('',#485,#49,#494,.T.);
#494 = LINE('',#495,#496);
#495 = CARTESIAN_POINT('',(-10.,-82.69364543662,-33.75));
#496 = VECTOR('',#497,1.);
#497 = DIRECTION('',(0.,0.,1.));
#498 = ORIENTED_EDGE('',*,*,#48,.T.);
#499 = ORIENTED_EDGE('',*,*,#413,.F.);
#500 = FACE_BOUND('',#501,.T.);
#501 = EDGE_LOOP('',(#502));
#502 = ORIENTED_EDGE('',*,*,#503,.F.);
#503 = EDGE_CURVE('',#504,#504,#506,.T.);
#504 = VERTEX_POINT('',#505);
#505 = CARTESIAN_POINT('',(-10.,-87.4,-20.75));
#506 = CIRCLE('',#507,2.35);
#507 = AXIS2_PLACEMENT_3D('',#508,#509,#510);
#508 = CARTESIAN_POINT('',(-10.,-89.75,-20.75));
#509 = DIRECTION('',(1.,0.,0.));
#510 = DIRECTION('',(0.,1.,0.));
#511 = FACE_BOUND('',#512,.T.);
#512 = EDGE_LOOP('',(#513));
#513 = ORIENTED_EDGE('',*,*,#514,.F.);
#514 = EDGE_CURVE('',#515,#515,#517,.T.);
#515 = VERTEX_POINT('',#516);
#516 = CARTESIAN_POINT('',(-10.,-102.8,-20.75));
#517 = CIRCLE('',#518,2.35);
#518 = AXIS2_PLACEMENT_3D('',#519,#520,#521);
#519 = CARTESIAN_POINT('',(-10.,-105.15,-20.75));
#520 = DIRECTION('',(1.,0.,0.));
#521 = DIRECTION('',(0.,1.,0.));
#522 = PLANE('',#523);
#523 = AXIS2_PLACEMENT_3D('',#524,#525,#526);
#524 = CARTESIAN_POINT('',(-10.,-97.45,-19.74953760175));
#525 = DIRECTION('',(1.,0.,0.));
#526 = DIRECTION('',(0.,0.,1.));
#527 = ADVANCED_FACE('',(#528),#577,.T.);
#528 = FACE_BOUND('',#529,.T.);
#529 = EDGE_LOOP('',(#530,#531,#532,#540,#546,#547,#555,#563,#571));
#530 = ORIENTED_EDGE('',*,*,#56,.F.);
#531 = ORIENTED_EDGE('',*,*,#493,.F.);
#532 = ORIENTED_EDGE('',*,*,#533,.T.);
#533 = EDGE_CURVE('',#485,#534,#536,.T.);
#534 = VERTEX_POINT('',#535);
#535 = CARTESIAN_POINT('',(3.5,-82.69364543662,-20.25));
#536 = LINE('',#537,#538);
#537 = CARTESIAN_POINT('',(-5.,-82.69364543662,-28.75));
#538 = VECTOR('',#539,1.);
#539 = DIRECTION('',(0.707106781187,0.,0.707106781187));
#540 = ORIENTED_EDGE('',*,*,#541,.F.);
#541 = EDGE_CURVE('',#98,#534,#542,.T.);
#542 = LINE('',#543,#544);
#543 = CARTESIAN_POINT('',(3.5,-82.69364543662,-22.25));
#544 = VECTOR('',#545,1.);
#545 = DIRECTION('',(0.,0.,-1.));
#546 = ORIENTED_EDGE('',*,*,#97,.F.);
#547 = ORIENTED_EDGE('',*,*,#548,.F.);
#548 = EDGE_CURVE('',#549,#90,#551,.T.);
#549 = VERTEX_POINT('',#550);
#550 = CARTESIAN_POINT('',(-3.5,-82.69364543662,-20.75));
#551 = LINE('',#552,#553);
#552 = CARTESIAN_POINT('',(-3.5,-82.69364543662,-27.25));
#553 = VECTOR('',#554,1.);
#554 = DIRECTION('',(0.,0.,1.));
#555 = ORIENTED_EDGE('',*,*,#556,.F.);
#556 = EDGE_CURVE('',#557,#549,#559,.T.);
#557 = VERTEX_POINT('',#558);
#558 = CARTESIAN_POINT('',(-7.49999999999,-82.69364543662,-20.75));
#559 = LINE('',#560,#561);
#560 = CARTESIAN_POINT('',(-8.749999999995,-82.69364543662,-20.75));
#561 = VECTOR('',#562,1.);
#562 = DIRECTION('',(1.,0.,0.));
#563 = ORIENTED_EDGE('',*,*,#564,.T.);
#564 = EDGE_CURVE('',#557,#565,#567,.T.);
#565 = VERTEX_POINT('',#566);
#566 = CARTESIAN_POINT('',(-9.49999999999,-82.69364543662,-20.75));
#567 = LINE('',#568,#569);
#568 = CARTESIAN_POINT('',(-8.749999999995,-82.69364543662,-20.75));
#569 = VECTOR('',#570,1.);
#570 = DIRECTION('',(-1.,-0.,-0.));
#571 = ORIENTED_EDGE('',*,*,#572,.F.);
#572 = EDGE_CURVE('',#57,#565,#573,.T.);
#573 = LINE('',#574,#575);
#574 = CARTESIAN_POINT('',(-9.49999999999,-82.69364543662,-10.75));
#575 = VECTOR('',#576,1.);
#576 = DIRECTION('',(0.,0.,-1.));
#577 = PLANE('',#578);
#578 = AXIS2_PLACEMENT_3D('',#579,#580,#581);
#579 = CARTESIAN_POINT('',(-10.,-82.69364543662,-33.75));
#580 = DIRECTION('',(0.,-1.,0.));
#581 = DIRECTION('',(0.,0.,1.));
#582 = ADVANCED_FACE('',(#583),#594,.F.);
#583 = FACE_BOUND('',#584,.F.);
#584 = EDGE_LOOP('',(#585,#586,#587,#588));
#585 = ORIENTED_EDGE('',*,*,#356,.F.);
#586 = ORIENTED_EDGE('',*,*,#137,.T.);
#587 = ORIENTED_EDGE('',*,*,#429,.T.);
#588 = ORIENTED_EDGE('',*,*,#589,.T.);
#589 = EDGE_CURVE('',#422,#357,#590,.T.);
#590 = LINE('',#591,#592);
#591 = CARTESIAN_POINT('',(3.5,-114.0531772816,-20.25));
#592 = VECTOR('',#593,1.);
#593 = DIRECTION('',(0.,-1.,0.));
#594 = PLANE('',#595);
#595 = AXIS2_PLACEMENT_3D('',#596,#597,#598);
#596 = CARTESIAN_POINT('',(3.5,-115.9,-10.75));
#597 = DIRECTION('',(-1.,0.,0.));
#598 = DIRECTION('',(-0.,-2.2E-16,-1.));
#599 = ADVANCED_FACE('',(#600),#619,.T.);
#600 = FACE_BOUND('',#601,.T.);
#601 = EDGE_LOOP('',(#602,#603,#604,#613));
#602 = ORIENTED_EDGE('',*,*,#64,.T.);
#603 = ORIENTED_EDGE('',*,*,#572,.T.);
#604 = ORIENTED_EDGE('',*,*,#605,.F.);
#605 = EDGE_CURVE('',#606,#565,#608,.T.);
#606 = VERTEX_POINT('',#607);
#607 = CARTESIAN_POINT('',(-7.49999999999,-80.69364543662,-20.75));
#608 = CIRCLE('',#609,2.);
#609 = AXIS2_PLACEMENT_3D('',#610,#611,#612);
#610 = CARTESIAN_POINT('',(-9.49999999999,-80.69364543662,-20.75));
#611 = DIRECTION('',(0.,0.,-1.));
#612 = DIRECTION('',(0.,1.,0.));
#613 = ORIENTED_EDGE('',*,*,#614,.F.);
#614 = EDGE_CURVE('',#65,#606,#615,.T.);
#615 = LINE('',#616,#617);
#616 = CARTESIAN_POINT('',(-7.49999999999,-80.69364543662,-10.75));
#617 = VECTOR('',#618,1.);
#618 = DIRECTION('',(0.,0.,-1.));
#619 = CYLINDRICAL_SURFACE('',#620,2.);
#620 = AXIS2_PLACEMENT_3D('',#621,#622,#623);
#621 = CARTESIAN_POINT('',(-9.49999999999,-80.69364543662,-10.75));
#622 = DIRECTION('',(0.,0.,-1.));
#623 = DIRECTION('',(1.,0.,0.));
#624 = ADVANCED_FACE('',(#625),#643,.F.);
#625 = FACE_BOUND('',#626,.F.);
#626 = EDGE_LOOP('',(#627,#635,#636,#637));
#627 = ORIENTED_EDGE('',*,*,#628,.F.);
#628 = EDGE_CURVE('',#606,#629,#631,.T.);
#629 = VERTEX_POINT('',#630);
#630 = CARTESIAN_POINT('',(-7.49999999999,-79.,-20.75));
#631 = LINE('',#632,#633);
#632 = CARTESIAN_POINT('',(-7.49999999999,-115.9,-20.75));
#633 = VECTOR('',#634,1.);
#634 = DIRECTION('',(0.,1.,-2.2E-16));
#635 = ORIENTED_EDGE('',*,*,#614,.F.);
#636 = ORIENTED_EDGE('',*,*,#73,.T.);
#637 = ORIENTED_EDGE('',*,*,#638,.F.);
#638 = EDGE_CURVE('',#629,#74,#639,.T.);
#639 = LINE('',#640,#641);
#640 = CARTESIAN_POINT('',(-7.49999999999,-79.,-8.75));
#641 = VECTOR('',#642,1.);
#642 = DIRECTION('',(0.,0.,1.));
#643 = PLANE('',#644);
#644 = AXIS2_PLACEMENT_3D('',#645,#646,#647);
#645 = CARTESIAN_POINT('',(-7.49999999999,-115.9,-10.75));
#646 = DIRECTION('',(-1.,0.,0.));
#647 = DIRECTION('',(-0.,-2.2E-16,-1.));
#648 = ADVANCED_FACE('',(#649),#667,.T.);
#649 = FACE_BOUND('',#650,.T.);
#650 = EDGE_LOOP('',(#651,#652,#653,#661));
#651 = ORIENTED_EDGE('',*,*,#347,.F.);
#652 = ORIENTED_EDGE('',*,*,#121,.F.);
#653 = ORIENTED_EDGE('',*,*,#654,.T.);
#654 = EDGE_CURVE('',#114,#655,#657,.T.);
#655 = VERTEX_POINT('',#656);
#656 = CARTESIAN_POINT('',(10.,-79.,-6.75));
#657 = LINE('',#658,#659);
#658 = CARTESIAN_POINT('',(10.,-79.,-6.75));
#659 = VECTOR('',#660,1.);
#660 = DIRECTION('',(0.,0.,1.));
#661 = ORIENTED_EDGE('',*,*,#662,.F.);
#662 = EDGE_CURVE('',#348,#655,#663,.T.);
#663 = LINE('',#664,#665);
#664 = CARTESIAN_POINT('',(10.,-97.45,-6.75));
#665 = VECTOR('',#666,1.);
#666 = DIRECTION('',(0.,1.,0.));
#667 = PLANE('',#668);
#668 = AXIS2_PLACEMENT_3D('',#669,#670,#671);
#669 = CARTESIAN_POINT('',(10.,-97.45,-16.87374965526));
#670 = DIRECTION('',(1.,0.,0.));
#671 = DIRECTION('',(0.,0.,1.));
#672 = ADVANCED_FACE('',(#673,#707),#725,.T.);
#673 = FACE_BOUND('',#674,.T.);
#674 = EDGE_LOOP('',(#675,#676,#677,#685,#693,#701));
#675 = ORIENTED_EDGE('',*,*,#654,.F.);
#676 = ORIENTED_EDGE('',*,*,#113,.F.);
#677 = ORIENTED_EDGE('',*,*,#678,.F.);
#678 = EDGE_CURVE('',#679,#106,#681,.T.);
#679 = VERTEX_POINT('',#680);
#680 = CARTESIAN_POINT('',(3.5,-79.,-20.25));
#681 = LINE('',#682,#683);
#682 = CARTESIAN_POINT('',(3.5,-79.,-8.75));
#683 = VECTOR('',#684,1.);
#684 = DIRECTION('',(0.,0.,1.));
#685 = ORIENTED_EDGE('',*,*,#686,.F.);
#686 = EDGE_CURVE('',#687,#679,#689,.T.);
#687 = VERTEX_POINT('',#688);
#688 = CARTESIAN_POINT('',(-10.,-79.,-33.75));
#689 = LINE('',#690,#691);
#690 = CARTESIAN_POINT('',(1.75,-79.,-22.));
#691 = VECTOR('',#692,1.);
#692 = DIRECTION('',(0.707106781187,0.,0.707106781187));
#693 = ORIENTED_EDGE('',*,*,#694,.F.);
#694 = EDGE_CURVE('',#695,#687,#697,.T.);
#695 = VERTEX_POINT('',#696);
#696 = CARTESIAN_POINT('',(-10.,-79.,-6.75));
#697 = LINE('',#698,#699);
#698 = CARTESIAN_POINT('',(-10.,-79.,-6.75));
#699 = VECTOR('',#700,1.);
#700 = DIRECTION('',(0.,0.,-1.));
#701 = ORIENTED_EDGE('',*,*,#702,.T.);
#702 = EDGE_CURVE('',#695,#655,#703,.T.);
#703 = LINE('',#704,#705);
#704 = CARTESIAN_POINT('',(-10.,-79.,-6.75));
#705 = VECTOR('',#706,1.);
#706 = DIRECTION('',(1.,0.,0.));
#707 = FACE_BOUND('',#708,.T.);
#708 = EDGE_LOOP('',(#709,#710,#711,#719));
#709 = ORIENTED_EDGE('',*,*,#81,.F.);
#710 = ORIENTED_EDGE('',*,*,#638,.F.);
#711 = ORIENTED_EDGE('',*,*,#712,.F.);
#712 = EDGE_CURVE('',#713,#629,#715,.T.);
#713 = VERTEX_POINT('',#714);
#714 = CARTESIAN_POINT('',(-3.5,-79.,-20.75));
#715 = LINE('',#716,#717);
#716 = CARTESIAN_POINT('',(-8.749999999995,-79.,-20.75));
#717 = VECTOR('',#718,1.);
#718 = DIRECTION('',(-1.,0.,0.));
#719 = ORIENTED_EDGE('',*,*,#720,.F.);
#720 = EDGE_CURVE('',#82,#713,#721,.T.);
#721 = LINE('',#722,#723);
#722 = CARTESIAN_POINT('',(-3.5,-79.,-13.75));
#723 = VECTOR('',#724,1.);
#724 = DIRECTION('',(0.,0.,-1.));
#725 = PLANE('',#726);
#726 = AXIS2_PLACEMENT_3D('',#727,#728,#729);
#727 = CARTESIAN_POINT('',(-10.,-79.,-6.75));
#728 = DIRECTION('',(0.,1.,0.));
#729 = DIRECTION('',(0.,0.,-1.));
#730 = ADVANCED_FACE('',(#731),#742,.F.);
#731 = FACE_BOUND('',#732,.F.);
#732 = EDGE_LOOP('',(#733,#734,#740,#741));
#733 = ORIENTED_EDGE('',*,*,#548,.F.);
#734 = ORIENTED_EDGE('',*,*,#735,.T.);
#735 = EDGE_CURVE('',#549,#713,#736,.T.);
#736 = LINE('',#737,#738);
#737 = CARTESIAN_POINT('',(-3.5,-115.9,-20.75));
#738 = VECTOR('',#739,1.);
#739 = DIRECTION('',(0.,1.,-2.2E-16));
#740 = ORIENTED_EDGE('',*,*,#720,.F.);
#741 = ORIENTED_EDGE('',*,*,#89,.F.);
#742 = PLANE('',#743);
#743 = AXIS2_PLACEMENT_3D('',#744,#745,#746);
#744 = CARTESIAN_POINT('',(-3.5,-115.9,-20.75));
#745 = DIRECTION('',(1.,0.,0.));
#746 = DIRECTION('',(0.,2.2E-16,1.));
#747 = ADVANCED_FACE('',(#748),#759,.F.);
#748 = FACE_BOUND('',#749,.F.);
#749 = EDGE_LOOP('',(#750,#751,#752,#753));
#750 = ORIENTED_EDGE('',*,*,#541,.F.);
#751 = ORIENTED_EDGE('',*,*,#105,.T.);
#752 = ORIENTED_EDGE('',*,*,#678,.F.);
#753 = ORIENTED_EDGE('',*,*,#754,.F.);
#754 = EDGE_CURVE('',#534,#679,#755,.T.);
#755 = LINE('',#756,#757);
#756 = CARTESIAN_POINT('',(3.5,-99.29682271831,-20.25));
#757 = VECTOR('',#758,1.);
#758 = DIRECTION('',(0.,1.,0.));
#759 = PLANE('',#760);
#760 = AXIS2_PLACEMENT_3D('',#761,#762,#763);
#761 = CARTESIAN_POINT('',(3.5,-115.9,-10.75));
#762 = DIRECTION('',(-1.,0.,0.));
#763 = DIRECTION('',(-0.,-2.2E-16,-1.));
#764 = ADVANCED_FACE('',(#765),#786,.F.);
#765 = FACE_BOUND('',#766,.T.);
#766 = EDGE_LOOP('',(#767,#776,#782,#783,#784,#785));
#767 = ORIENTED_EDGE('',*,*,#768,.F.);
#768 = EDGE_CURVE('',#769,#769,#771,.T.);
#769 = VERTEX_POINT('',#770);
#770 = CARTESIAN_POINT('',(9.2,-92.45,-6.75));
#771 = CIRCLE('',#772,1.7);
#772 = AXIS2_PLACEMENT_3D('',#773,#774,#775);
#773 = CARTESIAN_POINT('',(7.5,-92.45,-6.75));
#774 = DIRECTION('',(0.,0.,-1.));
#775 = DIRECTION('',(1.,0.,0.));
#776 = ORIENTED_EDGE('',*,*,#777,.T.);
#777 = EDGE_CURVE('',#769,#181,#778,.T.);
#778 = LINE('',#779,#780);
#779 = CARTESIAN_POINT('',(9.2,-92.45,-6.75));
#780 = VECTOR('',#781,1.);
#781 = DIRECTION('',(0.,0.,-1.));
#782 = ORIENTED_EDGE('',*,*,#180,.T.);
#783 = ORIENTED_EDGE('',*,*,#169,.T.);
#784 = ORIENTED_EDGE('',*,*,#189,.T.);
#785 = ORIENTED_EDGE('',*,*,#777,.F.);
#786 = CYLINDRICAL_SURFACE('',#787,1.7);
#787 = AXIS2_PLACEMENT_3D('',#788,#789,#790);
#788 = CARTESIAN_POINT('',(7.5,-92.45,-6.75));
#789 = DIRECTION('',(0.,0.,1.));
#790 = DIRECTION('',(1.,0.,0.));
#791 = ADVANCED_FACE('',(#792),#813,.F.);
#792 = FACE_BOUND('',#793,.T.);
#793 = EDGE_LOOP('',(#794,#803,#809,#810,#811,#812));
#794 = ORIENTED_EDGE('',*,*,#795,.F.);
#795 = EDGE_CURVE('',#796,#796,#798,.T.);
#796 = VERTEX_POINT('',#797);
#797 = CARTESIAN_POINT('',(-5.8,-92.45,-6.75));
#798 = CIRCLE('',#799,1.7);
#799 = AXIS2_PLACEMENT_3D('',#800,#801,#802);
#800 = CARTESIAN_POINT('',(-7.5,-92.45,-6.75));
#801 = DIRECTION('',(0.,0.,-1.));
#802 = DIRECTION('',(1.,0.,0.));
#803 = ORIENTED_EDGE('',*,*,#804,.T.);
#804 = EDGE_CURVE('',#796,#201,#805,.T.);
#805 = LINE('',#806,#807);
#806 = CARTESIAN_POINT('',(-5.8,-92.45,-6.75));
#807 = VECTOR('',#808,1.);
#808 = DIRECTION('',(0.,0.,-1.));
#809 = ORIENTED_EDGE('',*,*,#218,.T.);
#810 = ORIENTED_EDGE('',*,*,#209,.T.);
#811 = ORIENTED_EDGE('',*,*,#198,.T.);
#812 = ORIENTED_EDGE('',*,*,#804,.F.);
#813 = CYLINDRICAL_SURFACE('',#814,1.7);
#814 = AXIS2_PLACEMENT_3D('',#815,#816,#817);
#815 = CARTESIAN_POINT('',(-7.5,-92.45,-6.75));
#816 = DIRECTION('',(0.,0.,1.));
#817 = DIRECTION('',(1.,0.,0.));
#818 = ADVANCED_FACE('',(#819),#840,.F.);
#819 = FACE_BOUND('',#820,.T.);
#820 = EDGE_LOOP('',(#821,#830,#836,#837,#838,#839));
#821 = ORIENTED_EDGE('',*,*,#822,.F.);
#822 = EDGE_CURVE('',#823,#823,#825,.T.);
#823 = VERTEX_POINT('',#824);
#824 = CARTESIAN_POINT('',(9.2,-102.45,-6.75));
#825 = CIRCLE('',#826,1.7);
#826 = AXIS2_PLACEMENT_3D('',#827,#828,#829);
#827 = CARTESIAN_POINT('',(7.5,-102.45,-6.75));
#828 = DIRECTION('',(0.,0.,-1.));
#829 = DIRECTION('',(1.,0.,0.));
#830 = ORIENTED_EDGE('',*,*,#831,.T.);
#831 = EDGE_CURVE('',#823,#239,#832,.T.);
#832 = LINE('',#833,#834);
#833 = CARTESIAN_POINT('',(9.2,-102.45,-6.75));
#834 = VECTOR('',#835,1.);
#835 = DIRECTION('',(0.,0.,-1.));
#836 = ORIENTED_EDGE('',*,*,#238,.T.);
#837 = ORIENTED_EDGE('',*,*,#227,.T.);
#838 = ORIENTED_EDGE('',*,*,#247,.T.);
#839 = ORIENTED_EDGE('',*,*,#831,.F.);
#840 = CYLINDRICAL_SURFACE('',#841,1.7);
#841 = AXIS2_PLACEMENT_3D('',#842,#843,#844);
#842 = CARTESIAN_POINT('',(7.5,-102.45,-6.75));
#843 = DIRECTION('',(0.,0.,1.));
#844 = DIRECTION('',(1.,0.,0.));
#845 = ADVANCED_FACE('',(#846),#867,.F.);
#846 = FACE_BOUND('',#847,.T.);
#847 = EDGE_LOOP('',(#848,#857,#863,#864,#865,#866));
#848 = ORIENTED_EDGE('',*,*,#849,.F.);
#849 = EDGE_CURVE('',#850,#850,#852,.T.);
#850 = VERTEX_POINT('',#851);
#851 = CARTESIAN_POINT('',(-5.8,-102.45,-6.75));
#852 = CIRCLE('',#853,1.7);
#853 = AXIS2_PLACEMENT_3D('',#854,#855,#856);
#854 = CARTESIAN_POINT('',(-7.5,-102.45,-6.75));
#855 = DIRECTION('',(0.,0.,-1.));
#856 = DIRECTION('',(1.,0.,0.));
#857 = ORIENTED_EDGE('',*,*,#858,.T.);
#858 = EDGE_CURVE('',#850,#259,#859,.T.);
#859 = LINE('',#860,#861);
#860 = CARTESIAN_POINT('',(-5.8,-102.45,-6.75));
#861 = VECTOR('',#862,1.);
#862 = DIRECTION('',(0.,0.,-1.));
#863 = ORIENTED_EDGE('',*,*,#276,.T.);
#864 = ORIENTED_EDGE('',*,*,#267,.T.);
#865 = ORIENTED_EDGE('',*,*,#256,.T.);
#866 = ORIENTED_EDGE('',*,*,#858,.F.);
#867 = CYLINDRICAL_SURFACE('',#868,1.7);
#868 = AXIS2_PLACEMENT_3D('',#869,#870,#871);
#869 = CARTESIAN_POINT('',(-7.5,-102.45,-6.75));
#870 = DIRECTION('',(0.,0.,1.));
#871 = DIRECTION('',(1.,0.,0.));
#872 = ADVANCED_FACE('',(#873),#881,.F.);
#873 = FACE_BOUND('',#874,.F.);
#874 = EDGE_LOOP('',(#875,#876,#877,#878,#879,#880));
#875 = ORIENTED_EDGE('',*,*,#291,.T.);
#876 = ORIENTED_EDGE('',*,*,#324,.F.);
#877 = ORIENTED_EDGE('',*,*,#452,.F.);
#878 = ORIENTED_EDGE('',*,*,#444,.T.);
#879 = ORIENTED_EDGE('',*,*,#468,.F.);
#880 = ORIENTED_EDGE('',*,*,#398,.F.);
#881 = PLANE('',#882);
#882 = AXIS2_PLACEMENT_3D('',#883,#884,#885);
#883 = CARTESIAN_POINT('',(-7.49999999999,-115.9,-20.75));
#884 = DIRECTION('',(0.,-2.2E-16,-1.));
#885 = DIRECTION('',(1.,0.,0.));
#886 = ADVANCED_FACE('',(#887,#898,#901,#904,#907),#910,.T.);
#887 = FACE_BOUND('',#888,.T.);
#888 = EDGE_LOOP('',(#889,#895,#896,#897));
#889 = ORIENTED_EDGE('',*,*,#890,.T.);
#890 = EDGE_CURVE('',#695,#373,#891,.T.);
#891 = LINE('',#892,#893);
#892 = CARTESIAN_POINT('',(-10.,-111.9,-6.75));
#893 = VECTOR('',#894,1.);
#894 = DIRECTION('',(0.,-1.,0.));
#895 = ORIENTED_EDGE('',*,*,#380,.T.);
#896 = ORIENTED_EDGE('',*,*,#662,.T.);
#897 = ORIENTED_EDGE('',*,*,#702,.F.);
#898 = FACE_BOUND('',#899,.T.);
#899 = EDGE_LOOP('',(#900));
#900 = ORIENTED_EDGE('',*,*,#795,.T.);
#901 = FACE_BOUND('',#902,.T.);
#902 = EDGE_LOOP('',(#903));
#903 = ORIENTED_EDGE('',*,*,#768,.T.);
#904 = FACE_BOUND('',#905,.T.);
#905 = EDGE_LOOP('',(#906));
#906 = ORIENTED_EDGE('',*,*,#822,.T.);
#907 = FACE_BOUND('',#908,.T.);
#908 = EDGE_LOOP('',(#909));
#909 = ORIENTED_EDGE('',*,*,#849,.T.);
#910 = PLANE('',#911);
#911 = AXIS2_PLACEMENT_3D('',#912,#913,#914);
#912 = CARTESIAN_POINT('',(-8.7E-16,-97.45,-6.75));
#913 = DIRECTION('',(0.,0.,1.));
#914 = DIRECTION('',(1.,0.,0.));
#915 = ADVANCED_FACE('',(#916,#975,#986),#997,.T.);
#916 = FACE_BOUND('',#917,.T.);
#917 = EDGE_LOOP('',(#918,#926,#934,#942,#950,#958,#966,#972,#973,#974)
  );
#918 = ORIENTED_EDGE('',*,*,#919,.F.);
#919 = EDGE_CURVE('',#920,#687,#922,.T.);
#920 = VERTEX_POINT('',#921);
#921 = CARTESIAN_POINT('',(-10.,-72.95,-33.75));
#922 = LINE('',#923,#924);
#923 = CARTESIAN_POINT('',(-10.,-69.95,-33.75));
#924 = VECTOR('',#925,1.);
#925 = DIRECTION('',(0.,-1.,0.));
#926 = ORIENTED_EDGE('',*,*,#927,.T.);
#927 = EDGE_CURVE('',#920,#928,#930,.T.);
#928 = VERTEX_POINT('',#929);
#929 = CARTESIAN_POINT('',(-10.,-69.95,-30.75));
#930 = LINE('',#931,#932);
#931 = CARTESIAN_POINT('',(-10.,-74.82488440043,-35.62488440043));
#932 = VECTOR('',#933,1.);
#933 = DIRECTION('',(0.,0.707106781187,0.707106781187));
#934 = ORIENTED_EDGE('',*,*,#935,.F.);
#935 = EDGE_CURVE('',#936,#928,#938,.T.);
#936 = VERTEX_POINT('',#937);
#937 = CARTESIAN_POINT('',(-10.,-69.95,-3.75));
#938 = LINE('',#939,#940);
#939 = CARTESIAN_POINT('',(-10.,-69.95,-3.75));
#940 = VECTOR('',#941,1.);
#941 = DIRECTION('',(0.,0.,-1.));
#942 = ORIENTED_EDGE('',*,*,#943,.F.);
#943 = EDGE_CURVE('',#944,#936,#946,.T.);
#944 = VERTEX_POINT('',#945);
#945 = CARTESIAN_POINT('',(-10.,-124.95,-3.75));
#946 = LINE('',#947,#948);
#947 = CARTESIAN_POINT('',(-10.,-124.95,-3.75));
#948 = VECTOR('',#949,1.);
#949 = DIRECTION('',(0.,1.,0.));
#950 = ORIENTED_EDGE('',*,*,#951,.F.);
#951 = EDGE_CURVE('',#952,#944,#954,.T.);
#952 = VERTEX_POINT('',#953);
#953 = CARTESIAN_POINT('',(-10.,-124.95,-30.75));
#954 = LINE('',#955,#956);
#955 = CARTESIAN_POINT('',(-10.,-124.95,-33.75));
#956 = VECTOR('',#957,1.);
#957 = DIRECTION('',(0.,0.,1.));
#958 = ORIENTED_EDGE('',*,*,#959,.F.);
#959 = EDGE_CURVE('',#960,#952,#962,.T.);
#960 = VERTEX_POINT('',#961);
#961 = CARTESIAN_POINT('',(-10.,-121.95,-33.75));
#962 = LINE('',#963,#964);
#963 = CARTESIAN_POINT('',(-10.,-120.0751155995,-35.62488440043));
#964 = VECTOR('',#965,1.);
#965 = DIRECTION('',(0.,-0.707106781187,0.707106781187));
#966 = ORIENTED_EDGE('',*,*,#967,.F.);
#967 = EDGE_CURVE('',#365,#960,#968,.T.);
#968 = LINE('',#969,#970);
#969 = CARTESIAN_POINT('',(-10.,-69.95,-33.75));
#970 = VECTOR('',#971,1.);
#971 = DIRECTION('',(0.,-1.,0.));
#972 = ORIENTED_EDGE('',*,*,#372,.F.);
#973 = ORIENTED_EDGE('',*,*,#890,.F.);
#974 = ORIENTED_EDGE('',*,*,#694,.T.);
#975 = FACE_BOUND('',#976,.T.);
#976 = EDGE_LOOP('',(#977));
#977 = ORIENTED_EDGE('',*,*,#978,.T.);
#978 = EDGE_CURVE('',#979,#979,#981,.T.);
#979 = VERTEX_POINT('',#980);
#980 = CARTESIAN_POINT('',(-10.,-76.95,-30.65));
#981 = CIRCLE('',#982,1.5);
#982 = AXIS2_PLACEMENT_3D('',#983,#984,#985);
#983 = CARTESIAN_POINT('',(-10.,-75.45,-30.65));
#984 = DIRECTION('',(-1.,0.,0.));
#985 = DIRECTION('',(0.,-1.,0.));
#986 = FACE_BOUND('',#987,.T.);
#987 = EDGE_LOOP('',(#988));
#988 = ORIENTED_EDGE('',*,*,#989,.T.);
#989 = EDGE_CURVE('',#990,#990,#992,.T.);
#990 = VERTEX_POINT('',#991);
#991 = CARTESIAN_POINT('',(-10.,-120.95,-30.65));
#992 = CIRCLE('',#993,1.5);
#993 = AXIS2_PLACEMENT_3D('',#994,#995,#996);
#994 = CARTESIAN_POINT('',(-10.,-119.45,-30.65));
#995 = DIRECTION('',(-1.,0.,0.));
#996 = DIRECTION('',(0.,-1.,0.));
#997 = PLANE('',#998);
#998 = AXIS2_PLACEMENT_3D('',#999,#1000,#1001);
#999 = CARTESIAN_POINT('',(-10.,-97.45,-19.74953760175));
#1000 = DIRECTION('',(1.,0.,0.));
#1001 = DIRECTION('',(0.,0.,1.));
#1002 = ADVANCED_FACE('',(#1003),#1014,.T.);
#1003 = FACE_BOUND('',#1004,.F.);
#1004 = EDGE_LOOP('',(#1005,#1006,#1012,#1013));
#1005 = ORIENTED_EDGE('',*,*,#421,.F.);
#1006 = ORIENTED_EDGE('',*,*,#1007,.T.);
#1007 = EDGE_CURVE('',#414,#365,#1008,.T.);
#1008 = LINE('',#1009,#1010);
#1009 = CARTESIAN_POINT('',(-10.,-112.2063545633,-33.75));
#1010 = VECTOR('',#1011,1.);
#1011 = DIRECTION('',(0.,-1.,0.));
#1012 = ORIENTED_EDGE('',*,*,#364,.T.);
#1013 = ORIENTED_EDGE('',*,*,#589,.F.);
#1014 = PLANE('',#1015);
#1015 = AXIS2_PLACEMENT_3D('',#1016,#1017,#1018);
#1016 = CARTESIAN_POINT('',(0.,-112.2063545633,-23.75));
#1017 = DIRECTION('',(0.707106781187,0.,-0.707106781187));
#1018 = DIRECTION('',(0.,1.,0.));
#1019 = ADVANCED_FACE('',(#1020),#1046,.F.);
#1020 = FACE_BOUND('',#1021,.F.);
#1021 = EDGE_LOOP('',(#1022,#1033,#1039,#1040));
#1022 = ORIENTED_EDGE('',*,*,#1023,.F.);
#1023 = EDGE_CURVE('',#1024,#1026,#1028,.T.);
#1024 = VERTEX_POINT('',#1025);
#1025 = CARTESIAN_POINT('',(-14.,-112.2063545633,-33.75));
#1026 = VERTEX_POINT('',#1027);
#1027 = CARTESIAN_POINT('',(-14.,-82.69364543662,-33.75));
#1028 = CIRCLE('',#1029,20.);
#1029 = AXIS2_PLACEMENT_3D('',#1030,#1031,#1032);
#1030 = CARTESIAN_POINT('',(-14.,-97.45,-47.25));
#1031 = DIRECTION('',(-1.,0.,0.));
#1032 = DIRECTION('',(0.,-1.,0.));
#1033 = ORIENTED_EDGE('',*,*,#1034,.T.);
#1034 = EDGE_CURVE('',#1024,#414,#1035,.T.);
#1035 = LINE('',#1036,#1037);
#1036 = CARTESIAN_POINT('',(-14.,-112.2063545633,-33.75));
#1037 = VECTOR('',#1038,1.);
#1038 = DIRECTION('',(1.,0.,0.));
#1039 = ORIENTED_EDGE('',*,*,#484,.T.);
#1040 = ORIENTED_EDGE('',*,*,#1041,.F.);
#1041 = EDGE_CURVE('',#1026,#485,#1042,.T.);
#1042 = LINE('',#1043,#1044);
#1043 = CARTESIAN_POINT('',(-14.,-82.69364543662,-33.75));
#1044 = VECTOR('',#1045,1.);
#1045 = DIRECTION('',(1.,0.,0.));
#1046 = CYLINDRICAL_SURFACE('',#1047,20.);
#1047 = AXIS2_PLACEMENT_3D('',#1048,#1049,#1050);
#1048 = CARTESIAN_POINT('',(-14.,-97.45,-47.25));
#1049 = DIRECTION('',(-1.,0.,0.));
#1050 = DIRECTION('',(0.,-1.,0.));
#1051 = ADVANCED_FACE('',(#1052),#1071,.F.);
#1052 = FACE_BOUND('',#1053,.F.);
#1053 = EDGE_LOOP('',(#1054,#1055,#1063,#1070));
#1054 = ORIENTED_EDGE('',*,*,#503,.F.);
#1055 = ORIENTED_EDGE('',*,*,#1056,.T.);
#1056 = EDGE_CURVE('',#504,#1057,#1059,.T.);
#1057 = VERTEX_POINT('',#1058);
#1058 = CARTESIAN_POINT('',(-14.,-87.4,-20.75));
#1059 = LINE('',#1060,#1061);
#1060 = CARTESIAN_POINT('',(-10.,-87.4,-20.75));
#1061 = VECTOR('',#1062,1.);
#1062 = DIRECTION('',(-1.,-0.,-0.));
#1063 = ORIENTED_EDGE('',*,*,#1064,.T.);
#1064 = EDGE_CURVE('',#1057,#1057,#1065,.T.);
#1065 = CIRCLE('',#1066,2.35);
#1066 = AXIS2_PLACEMENT_3D('',#1067,#1068,#1069);
#1067 = CARTESIAN_POINT('',(-14.,-89.75,-20.75));
#1068 = DIRECTION('',(1.,0.,0.));
#1069 = DIRECTION('',(0.,1.,0.));
#1070 = ORIENTED_EDGE('',*,*,#1056,.F.);
#1071 = CYLINDRICAL_SURFACE('',#1072,2.35);
#1072 = AXIS2_PLACEMENT_3D('',#1073,#1074,#1075);
#1073 = CARTESIAN_POINT('',(-10.,-89.75,-20.75));
#1074 = DIRECTION('',(1.,0.,0.));
#1075 = DIRECTION('',(0.,1.,0.));
#1076 = ADVANCED_FACE('',(#1077),#1096,.F.);
#1077 = FACE_BOUND('',#1078,.F.);
#1078 = EDGE_LOOP('',(#1079,#1080,#1088,#1095));
#1079 = ORIENTED_EDGE('',*,*,#514,.F.);
#1080 = ORIENTED_EDGE('',*,*,#1081,.T.);
#1081 = EDGE_CURVE('',#515,#1082,#1084,.T.);
#1082 = VERTEX_POINT('',#1083);
#1083 = CARTESIAN_POINT('',(-14.,-102.8,-20.75));
#1084 = LINE('',#1085,#1086);
#1085 = CARTESIAN_POINT('',(-10.,-102.8,-20.75));
#1086 = VECTOR('',#1087,1.);
#1087 = DIRECTION('',(-1.,-0.,-0.));
#1088 = ORIENTED_EDGE('',*,*,#1089,.T.);
#1089 = EDGE_CURVE('',#1082,#1082,#1090,.T.);
#1090 = CIRCLE('',#1091,2.35);
#1091 = AXIS2_PLACEMENT_3D('',#1092,#1093,#1094);
#1092 = CARTESIAN_POINT('',(-14.,-105.15,-20.75));
#1093 = DIRECTION('',(1.,0.,0.));
#1094 = DIRECTION('',(0.,1.,0.));
#1095 = ORIENTED_EDGE('',*,*,#1081,.F.);
#1096 = CYLINDRICAL_SURFACE('',#1097,2.35);
#1097 = AXIS2_PLACEMENT_3D('',#1098,#1099,#1100);
#1098 = CARTESIAN_POINT('',(-10.,-105.15,-20.75));
#1099 = DIRECTION('',(1.,0.,0.));
#1100 = DIRECTION('',(0.,1.,0.));
#1101 = ADVANCED_FACE('',(#1102),#1110,.F.);
#1102 = FACE_BOUND('',#1103,.F.);
#1103 = EDGE_LOOP('',(#1104,#1105,#1106,#1107,#1108,#1109));
#1104 = ORIENTED_EDGE('',*,*,#628,.T.);
#1105 = ORIENTED_EDGE('',*,*,#712,.F.);
#1106 = ORIENTED_EDGE('',*,*,#735,.F.);
#1107 = ORIENTED_EDGE('',*,*,#556,.F.);
#1108 = ORIENTED_EDGE('',*,*,#564,.T.);
#1109 = ORIENTED_EDGE('',*,*,#605,.F.);
#1110 = PLANE('',#1111);
#1111 = AXIS2_PLACEMENT_3D('',#1112,#1113,#1114);
#1112 = CARTESIAN_POINT('',(-7.49999999999,-115.9,-20.75));
#1113 = DIRECTION('',(0.,-2.2E-16,-1.));
#1114 = DIRECTION('',(1.,0.,0.));
#1115 = ADVANCED_FACE('',(#1116),#1127,.T.);
#1116 = FACE_BOUND('',#1117,.T.);
#1117 = EDGE_LOOP('',(#1118,#1119,#1125,#1126));
#1118 = ORIENTED_EDGE('',*,*,#533,.F.);
#1119 = ORIENTED_EDGE('',*,*,#1120,.T.);
#1120 = EDGE_CURVE('',#485,#687,#1121,.T.);
#1121 = LINE('',#1122,#1123);
#1122 = CARTESIAN_POINT('',(-10.,-82.69364543662,-33.75));
#1123 = VECTOR('',#1124,1.);
#1124 = DIRECTION('',(0.,1.,0.));
#1125 = ORIENTED_EDGE('',*,*,#686,.T.);
#1126 = ORIENTED_EDGE('',*,*,#754,.F.);
#1127 = PLANE('',#1128);
#1128 = AXIS2_PLACEMENT_3D('',#1129,#1130,#1131);
#1129 = CARTESIAN_POINT('',(0.,-82.69364543662,-23.75));
#1130 = DIRECTION('',(0.707106781187,0.,-0.707106781187));
#1131 = DIRECTION('',(0.,1.,0.));
#1132 = ADVANCED_FACE('',(#1133),#1152,.T.);
#1133 = FACE_BOUND('',#1134,.T.);
#1134 = EDGE_LOOP('',(#1135,#1136,#1137,#1145,#1151));
#1135 = ORIENTED_EDGE('',*,*,#1120,.F.);
#1136 = ORIENTED_EDGE('',*,*,#1041,.F.);
#1137 = ORIENTED_EDGE('',*,*,#1138,.F.);
#1138 = EDGE_CURVE('',#1139,#1026,#1141,.T.);
#1139 = VERTEX_POINT('',#1140);
#1140 = CARTESIAN_POINT('',(-14.,-72.95,-33.75));
#1141 = LINE('',#1142,#1143);
#1142 = CARTESIAN_POINT('',(-14.,-69.95,-33.75));
#1143 = VECTOR('',#1144,1.);
#1144 = DIRECTION('',(0.,-1.,0.));
#1145 = ORIENTED_EDGE('',*,*,#1146,.F.);
#1146 = EDGE_CURVE('',#920,#1139,#1147,.T.);
#1147 = LINE('',#1148,#1149);
#1148 = CARTESIAN_POINT('',(-10.,-72.95,-33.75));
#1149 = VECTOR('',#1150,1.);
#1150 = DIRECTION('',(-1.,0.,0.));
#1151 = ORIENTED_EDGE('',*,*,#919,.T.);
#1152 = PLANE('',#1153);
#1153 = AXIS2_PLACEMENT_3D('',#1154,#1155,#1156);
#1154 = CARTESIAN_POINT('',(-3.792930171508,-79.61475288982,-33.75));
#1155 = DIRECTION('',(-0.,-0.,-1.));
#1156 = DIRECTION('',(-1.,0.,0.));
#1157 = ADVANCED_FACE('',(#1158),#1177,.T.);
#1158 = FACE_BOUND('',#1159,.T.);
#1159 = EDGE_LOOP('',(#1160,#1161,#1162,#1170,#1176));
#1160 = ORIENTED_EDGE('',*,*,#1007,.T.);
#1161 = ORIENTED_EDGE('',*,*,#967,.T.);
#1162 = ORIENTED_EDGE('',*,*,#1163,.T.);
#1163 = EDGE_CURVE('',#960,#1164,#1166,.T.);
#1164 = VERTEX_POINT('',#1165);
#1165 = CARTESIAN_POINT('',(-14.,-121.95,-33.75));
#1166 = LINE('',#1167,#1168);
#1167 = CARTESIAN_POINT('',(-10.,-121.95,-33.75));
#1168 = VECTOR('',#1169,1.);
#1169 = DIRECTION('',(-1.,0.,0.));
#1170 = ORIENTED_EDGE('',*,*,#1171,.F.);
#1171 = EDGE_CURVE('',#1024,#1164,#1172,.T.);
#1172 = LINE('',#1173,#1174);
#1173 = CARTESIAN_POINT('',(-14.,-69.95,-33.75));
#1174 = VECTOR('',#1175,1.);
#1175 = DIRECTION('',(0.,-1.,0.));
#1176 = ORIENTED_EDGE('',*,*,#1034,.T.);
#1177 = PLANE('',#1178);
#1178 = AXIS2_PLACEMENT_3D('',#1179,#1180,#1181);
#1179 = CARTESIAN_POINT('',(-3.792930171508,-115.2852471101,-33.75));
#1180 = DIRECTION('',(-0.,-0.,-1.));
#1181 = DIRECTION('',(-1.,0.,0.));
#1182 = ADVANCED_FACE('',(#1183),#1201,.T.);
#1183 = FACE_BOUND('',#1184,.F.);
#1184 = EDGE_LOOP('',(#1185,#1186,#1187,#1195));
#1185 = ORIENTED_EDGE('',*,*,#959,.F.);
#1186 = ORIENTED_EDGE('',*,*,#1163,.T.);
#1187 = ORIENTED_EDGE('',*,*,#1188,.T.);
#1188 = EDGE_CURVE('',#1164,#1189,#1191,.T.);
#1189 = VERTEX_POINT('',#1190);
#1190 = CARTESIAN_POINT('',(-14.,-124.95,-30.75));
#1191 = LINE('',#1192,#1193);
#1192 = CARTESIAN_POINT('',(-14.,-120.0751155995,-35.62488440043));
#1193 = VECTOR('',#1194,1.);
#1194 = DIRECTION('',(0.,-0.707106781187,0.707106781187));
#1195 = ORIENTED_EDGE('',*,*,#1196,.F.);
#1196 = EDGE_CURVE('',#952,#1189,#1197,.T.);
#1197 = LINE('',#1198,#1199);
#1198 = CARTESIAN_POINT('',(-10.,-124.95,-30.75));
#1199 = VECTOR('',#1200,1.);
#1200 = DIRECTION('',(-1.,0.,0.));
#1201 = PLANE('',#1202);
#1202 = AXIS2_PLACEMENT_3D('',#1203,#1204,#1205);
#1203 = CARTESIAN_POINT('',(-10.,-123.45,-32.25));
#1204 = DIRECTION('',(0.,-0.707106781187,-0.707106781187));
#1205 = DIRECTION('',(1.,0.,0.));
#1206 = ADVANCED_FACE('',(#1207),#1225,.F.);
#1207 = FACE_BOUND('',#1208,.F.);
#1208 = EDGE_LOOP('',(#1209,#1210,#1211,#1219));
#1209 = ORIENTED_EDGE('',*,*,#951,.F.);
#1210 = ORIENTED_EDGE('',*,*,#1196,.T.);
#1211 = ORIENTED_EDGE('',*,*,#1212,.T.);
#1212 = EDGE_CURVE('',#1189,#1213,#1215,.T.);
#1213 = VERTEX_POINT('',#1214);
#1214 = CARTESIAN_POINT('',(-14.,-124.95,-3.75));
#1215 = LINE('',#1216,#1217);
#1216 = CARTESIAN_POINT('',(-14.,-124.95,-33.75));
#1217 = VECTOR('',#1218,1.);
#1218 = DIRECTION('',(0.,0.,1.));
#1219 = ORIENTED_EDGE('',*,*,#1220,.F.);
#1220 = EDGE_CURVE('',#944,#1213,#1221,.T.);
#1221 = LINE('',#1222,#1223);
#1222 = CARTESIAN_POINT('',(-10.,-124.95,-3.75));
#1223 = VECTOR('',#1224,1.);
#1224 = DIRECTION('',(-1.,0.,0.));
#1225 = PLANE('',#1226);
#1226 = AXIS2_PLACEMENT_3D('',#1227,#1228,#1229);
#1227 = CARTESIAN_POINT('',(-10.,-124.95,-33.75));
#1228 = DIRECTION('',(0.,1.,0.));
#1229 = DIRECTION('',(0.,0.,1.));
#1230 = ADVANCED_FACE('',(#1231),#1249,.F.);
#1231 = FACE_BOUND('',#1232,.F.);
#1232 = EDGE_LOOP('',(#1233,#1234,#1242,#1248));
#1233 = ORIENTED_EDGE('',*,*,#1220,.T.);
#1234 = ORIENTED_EDGE('',*,*,#1235,.T.);
#1235 = EDGE_CURVE('',#1213,#1236,#1238,.T.);
#1236 = VERTEX_POINT('',#1237);
#1237 = CARTESIAN_POINT('',(-14.,-69.95,-3.75));
#1238 = LINE('',#1239,#1240);
#1239 = CARTESIAN_POINT('',(-14.,-124.95,-3.75));
#1240 = VECTOR('',#1241,1.);
#1241 = DIRECTION('',(0.,1.,0.));
#1242 = ORIENTED_EDGE('',*,*,#1243,.F.);
#1243 = EDGE_CURVE('',#936,#1236,#1244,.T.);
#1244 = LINE('',#1245,#1246);
#1245 = CARTESIAN_POINT('',(-10.,-69.95,-3.75));
#1246 = VECTOR('',#1247,1.);
#1247 = DIRECTION('',(-1.,0.,0.));
#1248 = ORIENTED_EDGE('',*,*,#943,.F.);
#1249 = PLANE('',#1250);
#1250 = AXIS2_PLACEMENT_3D('',#1251,#1252,#1253);
#1251 = CARTESIAN_POINT('',(-10.,-124.95,-3.75));
#1252 = DIRECTION('',(0.,0.,-1.));
#1253 = DIRECTION('',(0.,1.,0.));
#1254 = ADVANCED_FACE('',(#1255),#1273,.F.);
#1255 = FACE_BOUND('',#1256,.F.);
#1256 = EDGE_LOOP('',(#1257,#1258,#1259,#1267));
#1257 = ORIENTED_EDGE('',*,*,#935,.F.);
#1258 = ORIENTED_EDGE('',*,*,#1243,.T.);
#1259 = ORIENTED_EDGE('',*,*,#1260,.T.);
#1260 = EDGE_CURVE('',#1236,#1261,#1263,.T.);
#1261 = VERTEX_POINT('',#1262);
#1262 = CARTESIAN_POINT('',(-14.,-69.95,-30.75));
#1263 = LINE('',#1264,#1265);
#1264 = CARTESIAN_POINT('',(-14.,-69.95,-3.75));
#1265 = VECTOR('',#1266,1.);
#1266 = DIRECTION('',(0.,0.,-1.));
#1267 = ORIENTED_EDGE('',*,*,#1268,.F.);
#1268 = EDGE_CURVE('',#928,#1261,#1269,.T.);
#1269 = LINE('',#1270,#1271);
#1270 = CARTESIAN_POINT('',(-10.,-69.95,-30.75));
#1271 = VECTOR('',#1272,1.);
#1272 = DIRECTION('',(-1.,0.,0.));
#1273 = PLANE('',#1274);
#1274 = AXIS2_PLACEMENT_3D('',#1275,#1276,#1277);
#1275 = CARTESIAN_POINT('',(-10.,-69.95,-3.75));
#1276 = DIRECTION('',(-0.,-1.,-0.));
#1277 = DIRECTION('',(0.,0.,-1.));
#1278 = ADVANCED_FACE('',(#1279),#1290,.T.);
#1279 = FACE_BOUND('',#1280,.T.);
#1280 = EDGE_LOOP('',(#1281,#1282,#1283,#1289));
#1281 = ORIENTED_EDGE('',*,*,#927,.F.);
#1282 = ORIENTED_EDGE('',*,*,#1146,.T.);
#1283 = ORIENTED_EDGE('',*,*,#1284,.T.);
#1284 = EDGE_CURVE('',#1139,#1261,#1285,.T.);
#1285 = LINE('',#1286,#1287);
#1286 = CARTESIAN_POINT('',(-14.,-74.82488440043,-35.62488440043));
#1287 = VECTOR('',#1288,1.);
#1288 = DIRECTION('',(0.,0.707106781187,0.707106781187));
#1289 = ORIENTED_EDGE('',*,*,#1268,.F.);
#1290 = PLANE('',#1291);
#1291 = AXIS2_PLACEMENT_3D('',#1292,#1293,#1294);
#1292 = CARTESIAN_POINT('',(-10.,-71.45,-32.25));
#1293 = DIRECTION('',(0.,0.707106781187,-0.707106781187));
#1294 = DIRECTION('',(-1.,0.,0.));
#1295 = ADVANCED_FACE('',(#1296),#1315,.F.);
#1296 = FACE_BOUND('',#1297,.T.);
#1297 = EDGE_LOOP('',(#1298,#1306,#1313,#1314));
#1298 = ORIENTED_EDGE('',*,*,#1299,.T.);
#1299 = EDGE_CURVE('',#979,#1300,#1302,.T.);
#1300 = VERTEX_POINT('',#1301);
#1301 = CARTESIAN_POINT('',(-14.,-76.95,-30.65));
#1302 = LINE('',#1303,#1304);
#1303 = CARTESIAN_POINT('',(-10.,-76.95,-30.65));
#1304 = VECTOR('',#1305,1.);
#1305 = DIRECTION('',(-1.,0.,0.));
#1306 = ORIENTED_EDGE('',*,*,#1307,.T.);
#1307 = EDGE_CURVE('',#1300,#1300,#1308,.T.);
#1308 = CIRCLE('',#1309,1.5);
#1309 = AXIS2_PLACEMENT_3D('',#1310,#1311,#1312);
#1310 = CARTESIAN_POINT('',(-14.,-75.45,-30.65));
#1311 = DIRECTION('',(-1.,0.,0.));
#1312 = DIRECTION('',(0.,-1.,0.));
#1313 = ORIENTED_EDGE('',*,*,#1299,.F.);
#1314 = ORIENTED_EDGE('',*,*,#978,.F.);
#1315 = CYLINDRICAL_SURFACE('',#1316,1.5);
#1316 = AXIS2_PLACEMENT_3D('',#1317,#1318,#1319);
#1317 = CARTESIAN_POINT('',(-10.,-75.45,-30.65));
#1318 = DIRECTION('',(1.,0.,0.));
#1319 = DIRECTION('',(0.,-1.,0.));
#1320 = ADVANCED_FACE('',(#1321),#1340,.F.);
#1321 = FACE_BOUND('',#1322,.T.);
#1322 = EDGE_LOOP('',(#1323,#1331,#1338,#1339));
#1323 = ORIENTED_EDGE('',*,*,#1324,.T.);
#1324 = EDGE_CURVE('',#990,#1325,#1327,.T.);
#1325 = VERTEX_POINT('',#1326);
#1326 = CARTESIAN_POINT('',(-14.,-120.95,-30.65));
#1327 = LINE('',#1328,#1329);
#1328 = CARTESIAN_POINT('',(-10.,-120.95,-30.65));
#1329 = VECTOR('',#1330,1.);
#1330 = DIRECTION('',(-1.,0.,0.));
#1331 = ORIENTED_EDGE('',*,*,#1332,.T.);
#1332 = EDGE_CURVE('',#1325,#1325,#1333,.T.);
#1333 = CIRCLE('',#1334,1.5);
#1334 = AXIS2_PLACEMENT_3D('',#1335,#1336,#1337);
#1335 = CARTESIAN_POINT('',(-14.,-119.45,-30.65));
#1336 = DIRECTION('',(-1.,0.,0.));
#1337 = DIRECTION('',(0.,-1.,0.));
#1338 = ORIENTED_EDGE('',*,*,#1324,.F.);
#1339 = ORIENTED_EDGE('',*,*,#989,.F.);
#1340 = CYLINDRICAL_SURFACE('',#1341,1.5);
#1341 = AXIS2_PLACEMENT_3D('',#1342,#1343,#1344);
#1342 = CARTESIAN_POINT('',(-10.,-119.45,-30.65));
#1343 = DIRECTION('',(1.,0.,0.));
#1344 = DIRECTION('',(0.,-1.,0.));
#1345 = ADVANCED_FACE('',(#1346,#1356,#1359,#1362,#1365),#1368,.F.);
#1346 = FACE_BOUND('',#1347,.F.);
#1347 = EDGE_LOOP('',(#1348,#1349,#1350,#1351,#1352,#1353,#1354,#1355));
#1348 = ORIENTED_EDGE('',*,*,#1138,.F.);
#1349 = ORIENTED_EDGE('',*,*,#1284,.T.);
#1350 = ORIENTED_EDGE('',*,*,#1260,.F.);
#1351 = ORIENTED_EDGE('',*,*,#1235,.F.);
#1352 = ORIENTED_EDGE('',*,*,#1212,.F.);
#1353 = ORIENTED_EDGE('',*,*,#1188,.F.);
#1354 = ORIENTED_EDGE('',*,*,#1171,.F.);
#1355 = ORIENTED_EDGE('',*,*,#1023,.T.);
#1356 = FACE_BOUND('',#1357,.F.);
#1357 = EDGE_LOOP('',(#1358));
#1358 = ORIENTED_EDGE('',*,*,#1307,.T.);
#1359 = FACE_BOUND('',#1360,.F.);
#1360 = EDGE_LOOP('',(#1361));
#1361 = ORIENTED_EDGE('',*,*,#1064,.F.);
#1362 = FACE_BOUND('',#1363,.F.);
#1363 = EDGE_LOOP('',(#1364));
#1364 = ORIENTED_EDGE('',*,*,#1332,.T.);
#1365 = FACE_BOUND('',#1366,.F.);
#1366 = EDGE_LOOP('',(#1367));
#1367 = ORIENTED_EDGE('',*,*,#1089,.F.);
#1368 = PLANE('',#1369);
#1369 = AXIS2_PLACEMENT_3D('',#1370,#1371,#1372);
#1370 = CARTESIAN_POINT('',(-14.,-97.45,-19.74953760175));
#1371 = DIRECTION('',(1.,0.,0.));
#1372 = DIRECTION('',(0.,0.,1.));
#1373 = ( GEOMETRIC_REPRESENTATION_CONTEXT(3) 
GLOBAL_UNCERTAINTY_ASSIGNED_CONTEXT((#1377)) 
GLOBAL_UNIT_ASSIGNED_CONTEXT((#1374,#1375,#1376)) REPRESENTATION_CONTEXT
('Context #1','3D Context with UNIT and UNCERTAINTY') );
#1374 = ( LENGTH_UNIT() NAMED_UNIT(*) SI_UNIT(.MILLI.,.METRE.) );
#1375 = ( NAMED_UNIT(*) PLANE_ANGLE_UNIT() SI_UNIT($,.RADIAN.) );
#1376 = ( NAMED_UNIT(*) SI_UNIT($,.STERADIAN.) SOLID_ANGLE_UNIT() );
#1377 = UNCERTAINTY_MEASURE_WITH_UNIT(LENGTH_MEASURE(5.E-05),#1374,
  'distance_accuracy_value','confusion accuracy');
#1378 = PRODUCT_RELATED_PRODUCT_CATEGORY('part',$,(#7));
#1379 = MECHANICAL_DESIGN_GEOMETRIC_PRESENTATION_REPRESENTATION('',(
    #1380),#1373);
#1380 = STYLED_ITEM('color',(#1381),#15);
#1381 = PRESENTATION_STYLE_ASSIGNMENT((#1382,#1388));
#1382 = SURFACE_STYLE_USAGE(.BOTH.,#1383);
#1383 = SURFACE_SIDE_STYLE('',(#1384));
#1384 = SURFACE_STYLE_FILL_AREA(#1385);
#1385 = FILL_AREA_STYLE('',(#1386));
#1386 = FILL_AREA_STYLE_COLOUR('',#1387);
#1387 = COLOUR_RGB('',0.666666687201,0.,1.);
#1388 = CURVE_STYLE('',#1389,POSITIVE_LENGTH_MEASURE(0.1),#1390);
#1389 = DRAUGHTING_PRE_DEFINED_CURVE_FONT('continuous');
#1390 = COLOUR_RGB('',9.803921802644E-02,9.803921802644E-02,
  9.803921802644E-02);
ENDSEC;
END-ISO-10303-21;
