ISO-10303-21;
HEADER;
FILE_DESCRIPTION(('FreeCAD Model'),'2;1');
FILE_NAME('Open CASCADE Shape Model','2025-11-04T09:08:09',(''),(''),
  'Open CASCADE STEP processor 7.9','FreeCAD','Unknown');
FILE_SCHEMA(('AUTOMOTIVE_DESIGN { 1 0 10303 214 1 1 1 1 }'));
ENDSEC;
DATA;
#1 = APPLICATION_PROTOCOL_DEFINITION('international standard',
  'automotive_design',2000,#2);
#2 = APPLICATION_CONTEXT(
  'core data for automotive mechanical design processes');
#3 = SHAPE_DEFINITION_REPRESENTATION(#4,#10);
#4 = PRODUCT_DEFINITION_SHAPE('','',#5);
#5 = PRODUCT_DEFINITION('design','',#6,#9);
#6 = PRODUCT_DEFINITION_FORMATION('','',#7);
#7 = PRODUCT('BearingHolder','BearingHolder','',(#8));
#8 = PRODUCT_CONTEXT('',#2,'mechanical');
#9 = PRODUCT_DEFINITION_CONTEXT('part definition',#2,'design');
#10 = ADVANCED_BREP_SHAPE_REPRESENTATION('',(#11,#15),#1068);
#11 = AXIS2_PLACEMENT_3D('',#12,#13,#14);
#12 = CARTESIAN_POINT('',(0.,0.,0.));
#13 = DIRECTION('',(0.,0.,1.));
#14 = DIRECTION('',(1.,0.,-0.));
#15 = MANIFOLD_SOLID_BREP('',#16);
#16 = CLOSED_SHELL('',(#17,#75,#108,#134,#160,#314,#372,#389,#408,#441,
    #458,#482,#515,#539,#563,#587,#611,#635,#659,#683,#707,#731,#755,
    #779,#796,#827,#868,#915,#949,#966,#994,#1006,#1031,#1056));
#17 = ADVANCED_FACE('',(#18),#70,.F.);
#18 = FACE_BOUND('',#19,.F.);
#19 = EDGE_LOOP('',(#20,#30,#39,#47,#55,#63));
#20 = ORIENTED_EDGE('',*,*,#21,.T.);
#21 = EDGE_CURVE('',#22,#24,#26,.T.);
#22 = VERTEX_POINT('',#23);
#23 = CARTESIAN_POINT('',(-1.,-281.,45.954451150103));
#24 = VERTEX_POINT('',#25);
#25 = CARTESIAN_POINT('',(-1.,-289.,45.954451150103));
#26 = LINE('',#27,#28);
#27 = CARTESIAN_POINT('',(-1.,-280.,45.954451150103));
#28 = VECTOR('',#29,1.);
#29 = DIRECTION('',(0.,-1.,2.2E-16));
#30 = ORIENTED_EDGE('',*,*,#31,.F.);
#31 = EDGE_CURVE('',#32,#24,#34,.T.);
#32 = VERTEX_POINT('',#33);
#33 = CARTESIAN_POINT('',(-1.,-290.,46.958260743101));
#34 = HYPERBOLA('',#35,1.,1.);
#35 = AXIS2_PLACEMENT_3D('',#36,#37,#38);
#36 = CARTESIAN_POINT('',(-1.,-278.,35.));
#37 = DIRECTION('',(1.,0.,0.));
#38 = DIRECTION('',(0.,-1.,0.));
#39 = ORIENTED_EDGE('',*,*,#40,.T.);
#40 = EDGE_CURVE('',#32,#41,#43,.T.);
#41 = VERTEX_POINT('',#42);
#42 = CARTESIAN_POINT('',(-1.,-290.,48.964240043769));
#43 = LINE('',#44,#45);
#44 = CARTESIAN_POINT('',(-1.,-290.,45.954451150103));
#45 = VECTOR('',#46,1.);
#46 = DIRECTION('',(0.,0.,1.));
#47 = ORIENTED_EDGE('',*,*,#48,.F.);
#48 = EDGE_CURVE('',#49,#41,#51,.T.);
#49 = VERTEX_POINT('',#50);
#50 = CARTESIAN_POINT('',(-1.,-280.,48.964240043769));
#51 = LINE('',#52,#53);
#52 = CARTESIAN_POINT('',(-1.,-280.,48.964240043769));
#53 = VECTOR('',#54,1.);
#54 = DIRECTION('',(0.,-1.,2.2E-16));
#55 = ORIENTED_EDGE('',*,*,#56,.F.);
#56 = EDGE_CURVE('',#57,#49,#59,.T.);
#57 = VERTEX_POINT('',#58);
#58 = CARTESIAN_POINT('',(-1.,-280.,46.958260743101));
#59 = LINE('',#60,#61);
#60 = CARTESIAN_POINT('',(-1.,-280.,45.954451150103));
#61 = VECTOR('',#62,1.);
#62 = DIRECTION('',(0.,0.,1.));
#63 = ORIENTED_EDGE('',*,*,#64,.F.);
#64 = EDGE_CURVE('',#22,#57,#65,.T.);
#65 = HYPERBOLA('',#66,1.,1.);
#66 = AXIS2_PLACEMENT_3D('',#67,#68,#69);
#67 = CARTESIAN_POINT('',(-1.,-292.,35.));
#68 = DIRECTION('',(1.,0.,0.));
#69 = DIRECTION('',(-0.,1.,0.));
#70 = PLANE('',#71);
#71 = AXIS2_PLACEMENT_3D('',#72,#73,#74);
#72 = CARTESIAN_POINT('',(-1.,-280.,45.954451150103));
#73 = DIRECTION('',(-1.,0.,0.));
#74 = DIRECTION('',(0.,2.2E-16,1.));
#75 = ADVANCED_FACE('',(#76),#103,.F.);
#76 = FACE_BOUND('',#77,.T.);
#77 = EDGE_LOOP('',(#78,#79,#88,#96));
#78 = ORIENTED_EDGE('',*,*,#21,.T.);
#79 = ORIENTED_EDGE('',*,*,#80,.T.);
#80 = EDGE_CURVE('',#24,#81,#83,.T.);
#81 = VERTEX_POINT('',#82);
#82 = CARTESIAN_POINT('',(1.,-289.,45.954451150103));
#83 = CIRCLE('',#84,11.);
#84 = AXIS2_PLACEMENT_3D('',#85,#86,#87);
#85 = CARTESIAN_POINT('',(0.,-289.,35.));
#86 = DIRECTION('',(-0.,-1.,0.));
#87 = DIRECTION('',(-9.090909090911E-02,0.,0.995859195464));
#88 = ORIENTED_EDGE('',*,*,#89,.F.);
#89 = EDGE_CURVE('',#90,#81,#92,.T.);
#90 = VERTEX_POINT('',#91);
#91 = CARTESIAN_POINT('',(1.,-281.,45.954451150103));
#92 = LINE('',#93,#94);
#93 = CARTESIAN_POINT('',(1.,-280.,45.954451150103));
#94 = VECTOR('',#95,1.);
#95 = DIRECTION('',(0.,-1.,2.2E-16));
#96 = ORIENTED_EDGE('',*,*,#97,.F.);
#97 = EDGE_CURVE('',#22,#90,#98,.T.);
#98 = CIRCLE('',#99,11.);
#99 = AXIS2_PLACEMENT_3D('',#100,#101,#102);
#100 = CARTESIAN_POINT('',(-0.,-281.,35.));
#101 = DIRECTION('',(-0.,-1.,0.));
#102 = DIRECTION('',(-9.090909090911E-02,0.,0.995859195464));
#103 = CYLINDRICAL_SURFACE('',#104,11.);
#104 = AXIS2_PLACEMENT_3D('',#105,#106,#107);
#105 = CARTESIAN_POINT('',(0.,-280.,35.));
#106 = DIRECTION('',(0.,1.,-2.2E-16));
#107 = DIRECTION('',(1.,0.,0.));
#108 = ADVANCED_FACE('',(#109),#129,.F.);
#109 = FACE_BOUND('',#110,.T.);
#110 = EDGE_LOOP('',(#111,#112,#113,#122));
#111 = ORIENTED_EDGE('',*,*,#64,.F.);
#112 = ORIENTED_EDGE('',*,*,#97,.T.);
#113 = ORIENTED_EDGE('',*,*,#114,.T.);
#114 = EDGE_CURVE('',#90,#115,#117,.T.);
#115 = VERTEX_POINT('',#116);
#116 = CARTESIAN_POINT('',(1.,-280.,46.958260743101));
#117 = HYPERBOLA('',#118,1.,1.);
#118 = AXIS2_PLACEMENT_3D('',#119,#120,#121);
#119 = CARTESIAN_POINT('',(1.,-292.,35.));
#120 = DIRECTION('',(1.,0.,0.));
#121 = DIRECTION('',(-0.,1.,0.));
#122 = ORIENTED_EDGE('',*,*,#123,.F.);
#123 = EDGE_CURVE('',#57,#115,#124,.T.);
#124 = CIRCLE('',#125,12.);
#125 = AXIS2_PLACEMENT_3D('',#126,#127,#128);
#126 = CARTESIAN_POINT('',(-0.,-280.,35.));
#127 = DIRECTION('',(-0.,-1.,0.));
#128 = DIRECTION('',(-9.090909090911E-02,0.,0.995859195464));
#129 = CONICAL_SURFACE('',#130,11.,0.785398163397);
#130 = AXIS2_PLACEMENT_3D('',#131,#132,#133);
#131 = CARTESIAN_POINT('',(-0.,-281.,35.));
#132 = DIRECTION('',(0.,1.,0.));
#133 = DIRECTION('',(-9.090909090911E-02,0.,0.995859195464));
#134 = ADVANCED_FACE('',(#135),#155,.F.);
#135 = FACE_BOUND('',#136,.T.);
#136 = EDGE_LOOP('',(#137,#138,#147,#154));
#137 = ORIENTED_EDGE('',*,*,#31,.F.);
#138 = ORIENTED_EDGE('',*,*,#139,.T.);
#139 = EDGE_CURVE('',#32,#140,#142,.T.);
#140 = VERTEX_POINT('',#141);
#141 = CARTESIAN_POINT('',(1.,-290.,46.958260743101));
#142 = CIRCLE('',#143,12.);
#143 = AXIS2_PLACEMENT_3D('',#144,#145,#146);
#144 = CARTESIAN_POINT('',(0.,-290.,35.));
#145 = DIRECTION('',(-0.,-1.,0.));
#146 = DIRECTION('',(-9.090909090911E-02,0.,0.995859195464));
#147 = ORIENTED_EDGE('',*,*,#148,.T.);
#148 = EDGE_CURVE('',#140,#81,#149,.T.);
#149 = HYPERBOLA('',#150,1.,1.);
#150 = AXIS2_PLACEMENT_3D('',#151,#152,#153);
#151 = CARTESIAN_POINT('',(1.,-278.,35.));
#152 = DIRECTION('',(1.,0.,0.));
#153 = DIRECTION('',(0.,-1.,0.));
#154 = ORIENTED_EDGE('',*,*,#80,.F.);
#155 = CONICAL_SURFACE('',#156,11.,0.785398163397);
#156 = AXIS2_PLACEMENT_3D('',#157,#158,#159);
#157 = CARTESIAN_POINT('',(0.,-289.,35.));
#158 = DIRECTION('',(-0.,-1.,-0.));
#159 = DIRECTION('',(-9.090909090911E-02,0.,0.995859195464));
#160 = ADVANCED_FACE('',(#161),#309,.T.);
#161 = FACE_BOUND('',#162,.T.);
#162 = EDGE_LOOP('',(#163,#164,#165,#173,#182,#190,#198,#206,#214,#222,
    #230,#238,#246,#254,#262,#270,#278,#286,#294,#302));
#163 = ORIENTED_EDGE('',*,*,#56,.F.);
#164 = ORIENTED_EDGE('',*,*,#123,.T.);
#165 = ORIENTED_EDGE('',*,*,#166,.T.);
#166 = EDGE_CURVE('',#115,#167,#169,.T.);
#167 = VERTEX_POINT('',#168);
#168 = CARTESIAN_POINT('',(1.,-280.,48.964240043769));
#169 = LINE('',#170,#171);
#170 = CARTESIAN_POINT('',(1.,-280.,45.954451150103));
#171 = VECTOR('',#172,1.);
#172 = DIRECTION('',(0.,0.,1.));
#173 = ORIENTED_EDGE('',*,*,#174,.F.);
#174 = EDGE_CURVE('',#175,#167,#177,.T.);
#175 = VERTEX_POINT('',#176);
#176 = CARTESIAN_POINT('',(14.,-280.,35.));
#177 = CIRCLE('',#178,14.);
#178 = AXIS2_PLACEMENT_3D('',#179,#180,#181);
#179 = CARTESIAN_POINT('',(0.,-280.,35.));
#180 = DIRECTION('',(0.,-1.,0.));
#181 = DIRECTION('',(1.,0.,0.));
#182 = ORIENTED_EDGE('',*,*,#183,.F.);
#183 = EDGE_CURVE('',#184,#175,#186,.T.);
#184 = VERTEX_POINT('',#185);
#185 = CARTESIAN_POINT('',(14.,-280.,-3.));
#186 = LINE('',#187,#188);
#187 = CARTESIAN_POINT('',(14.,-280.,-3.));
#188 = VECTOR('',#189,1.);
#189 = DIRECTION('',(0.,0.,1.));
#190 = ORIENTED_EDGE('',*,*,#191,.F.);
#191 = EDGE_CURVE('',#192,#184,#194,.T.);
#192 = VERTEX_POINT('',#193);
#193 = CARTESIAN_POINT('',(7.2,-280.,-3.));
#194 = LINE('',#195,#196);
#195 = CARTESIAN_POINT('',(7.2,-280.,-3.));
#196 = VECTOR('',#197,1.);
#197 = DIRECTION('',(1.,0.,0.));
#198 = ORIENTED_EDGE('',*,*,#199,.F.);
#199 = EDGE_CURVE('',#200,#192,#202,.T.);
#200 = VERTEX_POINT('',#201);
#201 = CARTESIAN_POINT('',(7.2,-280.,3.));
#202 = LINE('',#203,#204);
#203 = CARTESIAN_POINT('',(7.2,-280.,3.));
#204 = VECTOR('',#205,1.);
#205 = DIRECTION('',(0.,0.,-1.));
#206 = ORIENTED_EDGE('',*,*,#207,.F.);
#207 = EDGE_CURVE('',#208,#200,#210,.T.);
#208 = VERTEX_POINT('',#209);
#209 = CARTESIAN_POINT('',(10.2,-280.,3.));
#210 = LINE('',#211,#212);
#211 = CARTESIAN_POINT('',(10.2,-280.,3.));
#212 = VECTOR('',#213,1.);
#213 = DIRECTION('',(-1.,0.,0.));
#214 = ORIENTED_EDGE('',*,*,#215,.F.);
#215 = EDGE_CURVE('',#216,#208,#218,.T.);
#216 = VERTEX_POINT('',#217);
#217 = CARTESIAN_POINT('',(10.2,-280.,10.2));
#218 = LINE('',#219,#220);
#219 = CARTESIAN_POINT('',(10.2,-280.,10.2));
#220 = VECTOR('',#221,1.);
#221 = DIRECTION('',(0.,0.,-1.));
#222 = ORIENTED_EDGE('',*,*,#223,.F.);
#223 = EDGE_CURVE('',#224,#216,#226,.T.);
#224 = VERTEX_POINT('',#225);
#225 = CARTESIAN_POINT('',(3.,-280.,10.2));
#226 = LINE('',#227,#228);
#227 = CARTESIAN_POINT('',(3.,-280.,10.2));
#228 = VECTOR('',#229,1.);
#229 = DIRECTION('',(1.,0.,0.));
#230 = ORIENTED_EDGE('',*,*,#231,.F.);
#231 = EDGE_CURVE('',#232,#224,#234,.T.);
#232 = VERTEX_POINT('',#233);
#233 = CARTESIAN_POINT('',(3.,-280.,7.2));
#234 = LINE('',#235,#236);
#235 = CARTESIAN_POINT('',(3.,-280.,7.2));
#236 = VECTOR('',#237,1.);
#237 = DIRECTION('',(0.,0.,1.));
#238 = ORIENTED_EDGE('',*,*,#239,.F.);
#239 = EDGE_CURVE('',#240,#232,#242,.T.);
#240 = VERTEX_POINT('',#241);
#241 = CARTESIAN_POINT('',(-3.,-280.,7.2));
#242 = LINE('',#243,#244);
#243 = CARTESIAN_POINT('',(-3.,-280.,7.2));
#244 = VECTOR('',#245,1.);
#245 = DIRECTION('',(1.,0.,0.));
#246 = ORIENTED_EDGE('',*,*,#247,.F.);
#247 = EDGE_CURVE('',#248,#240,#250,.T.);
#248 = VERTEX_POINT('',#249);
#249 = CARTESIAN_POINT('',(-3.,-280.,10.2));
#250 = LINE('',#251,#252);
#251 = CARTESIAN_POINT('',(-3.,-280.,10.2));
#252 = VECTOR('',#253,1.);
#253 = DIRECTION('',(0.,0.,-1.));
#254 = ORIENTED_EDGE('',*,*,#255,.F.);
#255 = EDGE_CURVE('',#256,#248,#258,.T.);
#256 = VERTEX_POINT('',#257);
#257 = CARTESIAN_POINT('',(-10.2,-280.,10.2));
#258 = LINE('',#259,#260);
#259 = CARTESIAN_POINT('',(-10.2,-280.,10.2));
#260 = VECTOR('',#261,1.);
#261 = DIRECTION('',(1.,0.,0.));
#262 = ORIENTED_EDGE('',*,*,#263,.F.);
#263 = EDGE_CURVE('',#264,#256,#266,.T.);
#264 = VERTEX_POINT('',#265);
#265 = CARTESIAN_POINT('',(-10.2,-280.,3.));
#266 = LINE('',#267,#268);
#267 = CARTESIAN_POINT('',(-10.2,-280.,3.));
#268 = VECTOR('',#269,1.);
#269 = DIRECTION('',(0.,0.,1.));
#270 = ORIENTED_EDGE('',*,*,#271,.F.);
#271 = EDGE_CURVE('',#272,#264,#274,.T.);
#272 = VERTEX_POINT('',#273);
#273 = CARTESIAN_POINT('',(-7.2,-280.,3.));
#274 = LINE('',#275,#276);
#275 = CARTESIAN_POINT('',(-7.2,-280.,3.));
#276 = VECTOR('',#277,1.);
#277 = DIRECTION('',(-1.,0.,0.));
#278 = ORIENTED_EDGE('',*,*,#279,.F.);
#279 = EDGE_CURVE('',#280,#272,#282,.T.);
#280 = VERTEX_POINT('',#281);
#281 = CARTESIAN_POINT('',(-7.2,-280.,-3.));
#282 = LINE('',#283,#284);
#283 = CARTESIAN_POINT('',(-7.2,-280.,-3.));
#284 = VECTOR('',#285,1.);
#285 = DIRECTION('',(0.,0.,1.));
#286 = ORIENTED_EDGE('',*,*,#287,.F.);
#287 = EDGE_CURVE('',#288,#280,#290,.T.);
#288 = VERTEX_POINT('',#289);
#289 = CARTESIAN_POINT('',(-14.,-280.,-3.));
#290 = LINE('',#291,#292);
#291 = CARTESIAN_POINT('',(-14.,-280.,-3.));
#292 = VECTOR('',#293,1.);
#293 = DIRECTION('',(1.,0.,0.));
#294 = ORIENTED_EDGE('',*,*,#295,.F.);
#295 = EDGE_CURVE('',#296,#288,#298,.T.);
#296 = VERTEX_POINT('',#297);
#297 = CARTESIAN_POINT('',(-14.,-280.,35.));
#298 = LINE('',#299,#300);
#299 = CARTESIAN_POINT('',(-14.,-280.,35.));
#300 = VECTOR('',#301,1.);
#301 = DIRECTION('',(0.,0.,-1.));
#302 = ORIENTED_EDGE('',*,*,#303,.F.);
#303 = EDGE_CURVE('',#49,#296,#304,.T.);
#304 = CIRCLE('',#305,14.);
#305 = AXIS2_PLACEMENT_3D('',#306,#307,#308);
#306 = CARTESIAN_POINT('',(0.,-280.,35.));
#307 = DIRECTION('',(0.,-1.,0.));
#308 = DIRECTION('',(1.,0.,0.));
#309 = PLANE('',#310);
#310 = AXIS2_PLACEMENT_3D('',#311,#312,#313);
#311 = CARTESIAN_POINT('',(-2.4E-15,-280.,22.118501344518));
#312 = DIRECTION('',(0.,1.,0.));
#313 = DIRECTION('',(0.,0.,1.));
#314 = ADVANCED_FACE('',(#315),#367,.F.);
#315 = FACE_BOUND('',#316,.F.);
#316 = EDGE_LOOP('',(#317,#318,#319,#327,#336,#344,#352,#360));
#317 = ORIENTED_EDGE('',*,*,#40,.F.);
#318 = ORIENTED_EDGE('',*,*,#139,.T.);
#319 = ORIENTED_EDGE('',*,*,#320,.T.);
#320 = EDGE_CURVE('',#140,#321,#323,.T.);
#321 = VERTEX_POINT('',#322);
#322 = CARTESIAN_POINT('',(1.,-290.,48.964240043769));
#323 = LINE('',#324,#325);
#324 = CARTESIAN_POINT('',(1.,-290.,45.954451150103));
#325 = VECTOR('',#326,1.);
#326 = DIRECTION('',(0.,0.,1.));
#327 = ORIENTED_EDGE('',*,*,#328,.F.);
#328 = EDGE_CURVE('',#329,#321,#331,.T.);
#329 = VERTEX_POINT('',#330);
#330 = CARTESIAN_POINT('',(14.,-290.,35.));
#331 = CIRCLE('',#332,14.);
#332 = AXIS2_PLACEMENT_3D('',#333,#334,#335);
#333 = CARTESIAN_POINT('',(0.,-290.,35.));
#334 = DIRECTION('',(0.,-1.,0.));
#335 = DIRECTION('',(1.,0.,0.));
#336 = ORIENTED_EDGE('',*,*,#337,.F.);
#337 = EDGE_CURVE('',#338,#329,#340,.T.);
#338 = VERTEX_POINT('',#339);
#339 = CARTESIAN_POINT('',(14.,-290.,21.9999));
#340 = LINE('',#341,#342);
#341 = CARTESIAN_POINT('',(14.,-290.,-3.));
#342 = VECTOR('',#343,1.);
#343 = DIRECTION('',(0.,0.,1.));
#344 = ORIENTED_EDGE('',*,*,#345,.T.);
#345 = EDGE_CURVE('',#338,#346,#348,.T.);
#346 = VERTEX_POINT('',#347);
#347 = CARTESIAN_POINT('',(-14.,-290.,21.9999));
#348 = LINE('',#349,#350);
#349 = CARTESIAN_POINT('',(14.,-290.,21.9999));
#350 = VECTOR('',#351,1.);
#351 = DIRECTION('',(-1.,0.,0.));
#352 = ORIENTED_EDGE('',*,*,#353,.F.);
#353 = EDGE_CURVE('',#354,#346,#356,.T.);
#354 = VERTEX_POINT('',#355);
#355 = CARTESIAN_POINT('',(-14.,-290.,35.));
#356 = LINE('',#357,#358);
#357 = CARTESIAN_POINT('',(-14.,-290.,35.));
#358 = VECTOR('',#359,1.);
#359 = DIRECTION('',(0.,0.,-1.));
#360 = ORIENTED_EDGE('',*,*,#361,.F.);
#361 = EDGE_CURVE('',#41,#354,#362,.T.);
#362 = CIRCLE('',#363,14.);
#363 = AXIS2_PLACEMENT_3D('',#364,#365,#366);
#364 = CARTESIAN_POINT('',(0.,-290.,35.));
#365 = DIRECTION('',(0.,-1.,0.));
#366 = DIRECTION('',(1.,0.,0.));
#367 = PLANE('',#368);
#368 = AXIS2_PLACEMENT_3D('',#369,#370,#371);
#369 = CARTESIAN_POINT('',(-2.4E-15,-290.,22.118501344518));
#370 = DIRECTION('',(0.,1.,0.));
#371 = DIRECTION('',(0.,0.,1.));
#372 = ADVANCED_FACE('',(#373),#384,.T.);
#373 = FACE_BOUND('',#374,.F.);
#374 = EDGE_LOOP('',(#375,#376,#377,#383));
#375 = ORIENTED_EDGE('',*,*,#48,.T.);
#376 = ORIENTED_EDGE('',*,*,#361,.T.);
#377 = ORIENTED_EDGE('',*,*,#378,.F.);
#378 = EDGE_CURVE('',#296,#354,#379,.T.);
#379 = LINE('',#380,#381);
#380 = CARTESIAN_POINT('',(-14.,-280.,35.));
#381 = VECTOR('',#382,1.);
#382 = DIRECTION('',(0.,-1.,2.2E-16));
#383 = ORIENTED_EDGE('',*,*,#303,.F.);
#384 = CYLINDRICAL_SURFACE('',#385,14.);
#385 = AXIS2_PLACEMENT_3D('',#386,#387,#388);
#386 = CARTESIAN_POINT('',(0.,-280.,35.));
#387 = DIRECTION('',(0.,1.,-2.2E-16));
#388 = DIRECTION('',(1.,0.,0.));
#389 = ADVANCED_FACE('',(#390),#403,.T.);
#390 = FACE_BOUND('',#391,.T.);
#391 = EDGE_LOOP('',(#392,#393,#394,#395,#401,#402));
#392 = ORIENTED_EDGE('',*,*,#89,.T.);
#393 = ORIENTED_EDGE('',*,*,#148,.F.);
#394 = ORIENTED_EDGE('',*,*,#320,.T.);
#395 = ORIENTED_EDGE('',*,*,#396,.F.);
#396 = EDGE_CURVE('',#167,#321,#397,.T.);
#397 = LINE('',#398,#399);
#398 = CARTESIAN_POINT('',(1.,-280.,48.964240043769));
#399 = VECTOR('',#400,1.);
#400 = DIRECTION('',(0.,-1.,2.2E-16));
#401 = ORIENTED_EDGE('',*,*,#166,.F.);
#402 = ORIENTED_EDGE('',*,*,#114,.F.);
#403 = PLANE('',#404);
#404 = AXIS2_PLACEMENT_3D('',#405,#406,#407);
#405 = CARTESIAN_POINT('',(1.,-280.,45.954451150103));
#406 = DIRECTION('',(-1.,0.,0.));
#407 = DIRECTION('',(0.,2.2E-16,1.));
#408 = ADVANCED_FACE('',(#409),#436,.F.);
#409 = FACE_BOUND('',#410,.F.);
#410 = EDGE_LOOP('',(#411,#412,#420,#428,#434,#435));
#411 = ORIENTED_EDGE('',*,*,#353,.T.);
#412 = ORIENTED_EDGE('',*,*,#413,.T.);
#413 = EDGE_CURVE('',#346,#414,#416,.T.);
#414 = VERTEX_POINT('',#415);
#415 = CARTESIAN_POINT('',(-14.,-290.,14.));
#416 = LINE('',#417,#418);
#417 = CARTESIAN_POINT('',(-14.,-290.,35.));
#418 = VECTOR('',#419,1.);
#419 = DIRECTION('',(0.,-2.2E-16,-1.));
#420 = ORIENTED_EDGE('',*,*,#421,.T.);
#421 = EDGE_CURVE('',#414,#422,#424,.T.);
#422 = VERTEX_POINT('',#423);
#423 = CARTESIAN_POINT('',(-14.,-290.,-3.));
#424 = LINE('',#425,#426);
#425 = CARTESIAN_POINT('',(-14.,-290.,35.));
#426 = VECTOR('',#427,1.);
#427 = DIRECTION('',(0.,0.,-1.));
#428 = ORIENTED_EDGE('',*,*,#429,.F.);
#429 = EDGE_CURVE('',#288,#422,#430,.T.);
#430 = LINE('',#431,#432);
#431 = CARTESIAN_POINT('',(-14.,-280.,-3.));
#432 = VECTOR('',#433,1.);
#433 = DIRECTION('',(0.,-1.,2.2E-16));
#434 = ORIENTED_EDGE('',*,*,#295,.F.);
#435 = ORIENTED_EDGE('',*,*,#378,.T.);
#436 = PLANE('',#437);
#437 = AXIS2_PLACEMENT_3D('',#438,#439,#440);
#438 = CARTESIAN_POINT('',(-14.,-280.,35.));
#439 = DIRECTION('',(1.,0.,0.));
#440 = DIRECTION('',(0.,-2.2E-16,-1.));
#441 = ADVANCED_FACE('',(#442),#453,.T.);
#442 = FACE_BOUND('',#443,.F.);
#443 = EDGE_LOOP('',(#444,#450,#451,#452));
#444 = ORIENTED_EDGE('',*,*,#445,.T.);
#445 = EDGE_CURVE('',#175,#329,#446,.T.);
#446 = LINE('',#447,#448);
#447 = CARTESIAN_POINT('',(14.,-280.,35.));
#448 = VECTOR('',#449,1.);
#449 = DIRECTION('',(0.,-1.,2.2E-16));
#450 = ORIENTED_EDGE('',*,*,#328,.T.);
#451 = ORIENTED_EDGE('',*,*,#396,.F.);
#452 = ORIENTED_EDGE('',*,*,#174,.F.);
#453 = CYLINDRICAL_SURFACE('',#454,14.);
#454 = AXIS2_PLACEMENT_3D('',#455,#456,#457);
#455 = CARTESIAN_POINT('',(0.,-280.,35.));
#456 = DIRECTION('',(0.,1.,-2.2E-16));
#457 = DIRECTION('',(1.,0.,0.));
#458 = ADVANCED_FACE('',(#459),#477,.F.);
#459 = FACE_BOUND('',#460,.F.);
#460 = EDGE_LOOP('',(#461,#462,#470,#476));
#461 = ORIENTED_EDGE('',*,*,#429,.T.);
#462 = ORIENTED_EDGE('',*,*,#463,.T.);
#463 = EDGE_CURVE('',#422,#464,#466,.T.);
#464 = VERTEX_POINT('',#465);
#465 = CARTESIAN_POINT('',(-7.2,-290.,-3.));
#466 = LINE('',#467,#468);
#467 = CARTESIAN_POINT('',(-14.,-290.,-3.));
#468 = VECTOR('',#469,1.);
#469 = DIRECTION('',(1.,0.,0.));
#470 = ORIENTED_EDGE('',*,*,#471,.F.);
#471 = EDGE_CURVE('',#280,#464,#472,.T.);
#472 = LINE('',#473,#474);
#473 = CARTESIAN_POINT('',(-7.2,-280.,-3.));
#474 = VECTOR('',#475,1.);
#475 = DIRECTION('',(0.,-1.,2.2E-16));
#476 = ORIENTED_EDGE('',*,*,#287,.F.);
#477 = PLANE('',#478);
#478 = AXIS2_PLACEMENT_3D('',#479,#480,#481);
#479 = CARTESIAN_POINT('',(-14.,-280.,-3.));
#480 = DIRECTION('',(0.,2.2E-16,1.));
#481 = DIRECTION('',(1.,0.,0.));
#482 = ADVANCED_FACE('',(#483),#510,.F.);
#483 = FACE_BOUND('',#484,.F.);
#484 = EDGE_LOOP('',(#485,#486,#487,#488,#496,#504));
#485 = ORIENTED_EDGE('',*,*,#337,.T.);
#486 = ORIENTED_EDGE('',*,*,#445,.F.);
#487 = ORIENTED_EDGE('',*,*,#183,.F.);
#488 = ORIENTED_EDGE('',*,*,#489,.T.);
#489 = EDGE_CURVE('',#184,#490,#492,.T.);
#490 = VERTEX_POINT('',#491);
#491 = CARTESIAN_POINT('',(14.,-290.,-3.));
#492 = LINE('',#493,#494);
#493 = CARTESIAN_POINT('',(14.,-280.,-3.));
#494 = VECTOR('',#495,1.);
#495 = DIRECTION('',(0.,-1.,2.2E-16));
#496 = ORIENTED_EDGE('',*,*,#497,.T.);
#497 = EDGE_CURVE('',#490,#498,#500,.T.);
#498 = VERTEX_POINT('',#499);
#499 = CARTESIAN_POINT('',(14.,-290.,14.));
#500 = LINE('',#501,#502);
#501 = CARTESIAN_POINT('',(14.,-290.,-3.));
#502 = VECTOR('',#503,1.);
#503 = DIRECTION('',(0.,0.,1.));
#504 = ORIENTED_EDGE('',*,*,#505,.T.);
#505 = EDGE_CURVE('',#498,#338,#506,.T.);
#506 = LINE('',#507,#508);
#507 = CARTESIAN_POINT('',(14.,-290.,-3.));
#508 = VECTOR('',#509,1.);
#509 = DIRECTION('',(0.,2.2E-16,1.));
#510 = PLANE('',#511);
#511 = AXIS2_PLACEMENT_3D('',#512,#513,#514);
#512 = CARTESIAN_POINT('',(14.,-280.,-3.));
#513 = DIRECTION('',(-1.,0.,0.));
#514 = DIRECTION('',(0.,2.2E-16,1.));
#515 = ADVANCED_FACE('',(#516),#534,.F.);
#516 = FACE_BOUND('',#517,.F.);
#517 = EDGE_LOOP('',(#518,#519,#527,#533));
#518 = ORIENTED_EDGE('',*,*,#471,.T.);
#519 = ORIENTED_EDGE('',*,*,#520,.T.);
#520 = EDGE_CURVE('',#464,#521,#523,.T.);
#521 = VERTEX_POINT('',#522);
#522 = CARTESIAN_POINT('',(-7.2,-290.,3.));
#523 = LINE('',#524,#525);
#524 = CARTESIAN_POINT('',(-7.2,-290.,-3.));
#525 = VECTOR('',#526,1.);
#526 = DIRECTION('',(0.,0.,1.));
#527 = ORIENTED_EDGE('',*,*,#528,.F.);
#528 = EDGE_CURVE('',#272,#521,#529,.T.);
#529 = LINE('',#530,#531);
#530 = CARTESIAN_POINT('',(-7.2,-280.,3.));
#531 = VECTOR('',#532,1.);
#532 = DIRECTION('',(0.,-1.,2.2E-16));
#533 = ORIENTED_EDGE('',*,*,#279,.F.);
#534 = PLANE('',#535);
#535 = AXIS2_PLACEMENT_3D('',#536,#537,#538);
#536 = CARTESIAN_POINT('',(-7.2,-280.,-3.));
#537 = DIRECTION('',(-1.,0.,0.));
#538 = DIRECTION('',(0.,2.2E-16,1.));
#539 = ADVANCED_FACE('',(#540),#558,.F.);
#540 = FACE_BOUND('',#541,.F.);
#541 = EDGE_LOOP('',(#542,#550,#556,#557));
#542 = ORIENTED_EDGE('',*,*,#543,.T.);
#543 = EDGE_CURVE('',#192,#544,#546,.T.);
#544 = VERTEX_POINT('',#545);
#545 = CARTESIAN_POINT('',(7.2,-290.,-3.));
#546 = LINE('',#547,#548);
#547 = CARTESIAN_POINT('',(7.2,-280.,-3.));
#548 = VECTOR('',#549,1.);
#549 = DIRECTION('',(0.,-1.,2.2E-16));
#550 = ORIENTED_EDGE('',*,*,#551,.T.);
#551 = EDGE_CURVE('',#544,#490,#552,.T.);
#552 = LINE('',#553,#554);
#553 = CARTESIAN_POINT('',(7.2,-290.,-3.));
#554 = VECTOR('',#555,1.);
#555 = DIRECTION('',(1.,0.,0.));
#556 = ORIENTED_EDGE('',*,*,#489,.F.);
#557 = ORIENTED_EDGE('',*,*,#191,.F.);
#558 = PLANE('',#559);
#559 = AXIS2_PLACEMENT_3D('',#560,#561,#562);
#560 = CARTESIAN_POINT('',(7.2,-280.,-3.));
#561 = DIRECTION('',(0.,2.2E-16,1.));
#562 = DIRECTION('',(1.,0.,0.));
#563 = ADVANCED_FACE('',(#564),#582,.F.);
#564 = FACE_BOUND('',#565,.F.);
#565 = EDGE_LOOP('',(#566,#567,#575,#581));
#566 = ORIENTED_EDGE('',*,*,#528,.T.);
#567 = ORIENTED_EDGE('',*,*,#568,.T.);
#568 = EDGE_CURVE('',#521,#569,#571,.T.);
#569 = VERTEX_POINT('',#570);
#570 = CARTESIAN_POINT('',(-10.2,-290.,3.));
#571 = LINE('',#572,#573);
#572 = CARTESIAN_POINT('',(-7.2,-290.,3.));
#573 = VECTOR('',#574,1.);
#574 = DIRECTION('',(-1.,0.,0.));
#575 = ORIENTED_EDGE('',*,*,#576,.F.);
#576 = EDGE_CURVE('',#264,#569,#577,.T.);
#577 = LINE('',#578,#579);
#578 = CARTESIAN_POINT('',(-10.2,-280.,3.));
#579 = VECTOR('',#580,1.);
#580 = DIRECTION('',(0.,-1.,2.2E-16));
#581 = ORIENTED_EDGE('',*,*,#271,.F.);
#582 = PLANE('',#583);
#583 = AXIS2_PLACEMENT_3D('',#584,#585,#586);
#584 = CARTESIAN_POINT('',(-7.2,-280.,3.));
#585 = DIRECTION('',(-0.,-2.2E-16,-1.));
#586 = DIRECTION('',(-1.,0.,0.));
#587 = ADVANCED_FACE('',(#588),#606,.F.);
#588 = FACE_BOUND('',#589,.F.);
#589 = EDGE_LOOP('',(#590,#598,#604,#605));
#590 = ORIENTED_EDGE('',*,*,#591,.T.);
#591 = EDGE_CURVE('',#200,#592,#594,.T.);
#592 = VERTEX_POINT('',#593);
#593 = CARTESIAN_POINT('',(7.2,-290.,3.));
#594 = LINE('',#595,#596);
#595 = CARTESIAN_POINT('',(7.2,-280.,3.));
#596 = VECTOR('',#597,1.);
#597 = DIRECTION('',(0.,-1.,2.2E-16));
#598 = ORIENTED_EDGE('',*,*,#599,.T.);
#599 = EDGE_CURVE('',#592,#544,#600,.T.);
#600 = LINE('',#601,#602);
#601 = CARTESIAN_POINT('',(7.2,-290.,3.));
#602 = VECTOR('',#603,1.);
#603 = DIRECTION('',(0.,0.,-1.));
#604 = ORIENTED_EDGE('',*,*,#543,.F.);
#605 = ORIENTED_EDGE('',*,*,#199,.F.);
#606 = PLANE('',#607);
#607 = AXIS2_PLACEMENT_3D('',#608,#609,#610);
#608 = CARTESIAN_POINT('',(7.2,-280.,3.));
#609 = DIRECTION('',(1.,0.,0.));
#610 = DIRECTION('',(0.,-2.2E-16,-1.));
#611 = ADVANCED_FACE('',(#612),#630,.F.);
#612 = FACE_BOUND('',#613,.F.);
#613 = EDGE_LOOP('',(#614,#615,#623,#629));
#614 = ORIENTED_EDGE('',*,*,#576,.T.);
#615 = ORIENTED_EDGE('',*,*,#616,.T.);
#616 = EDGE_CURVE('',#569,#617,#619,.T.);
#617 = VERTEX_POINT('',#618);
#618 = CARTESIAN_POINT('',(-10.2,-290.,10.2));
#619 = LINE('',#620,#621);
#620 = CARTESIAN_POINT('',(-10.2,-290.,3.));
#621 = VECTOR('',#622,1.);
#622 = DIRECTION('',(0.,0.,1.));
#623 = ORIENTED_EDGE('',*,*,#624,.F.);
#624 = EDGE_CURVE('',#256,#617,#625,.T.);
#625 = LINE('',#626,#627);
#626 = CARTESIAN_POINT('',(-10.2,-280.,10.2));
#627 = VECTOR('',#628,1.);
#628 = DIRECTION('',(0.,-1.,2.2E-16));
#629 = ORIENTED_EDGE('',*,*,#263,.F.);
#630 = PLANE('',#631);
#631 = AXIS2_PLACEMENT_3D('',#632,#633,#634);
#632 = CARTESIAN_POINT('',(-10.2,-280.,3.));
#633 = DIRECTION('',(-1.,0.,0.));
#634 = DIRECTION('',(0.,2.2E-16,1.));
#635 = ADVANCED_FACE('',(#636),#654,.F.);
#636 = FACE_BOUND('',#637,.F.);
#637 = EDGE_LOOP('',(#638,#646,#652,#653));
#638 = ORIENTED_EDGE('',*,*,#639,.T.);
#639 = EDGE_CURVE('',#208,#640,#642,.T.);
#640 = VERTEX_POINT('',#641);
#641 = CARTESIAN_POINT('',(10.2,-290.,3.));
#642 = LINE('',#643,#644);
#643 = CARTESIAN_POINT('',(10.2,-280.,3.));
#644 = VECTOR('',#645,1.);
#645 = DIRECTION('',(0.,-1.,2.2E-16));
#646 = ORIENTED_EDGE('',*,*,#647,.T.);
#647 = EDGE_CURVE('',#640,#592,#648,.T.);
#648 = LINE('',#649,#650);
#649 = CARTESIAN_POINT('',(10.2,-290.,3.));
#650 = VECTOR('',#651,1.);
#651 = DIRECTION('',(-1.,0.,0.));
#652 = ORIENTED_EDGE('',*,*,#591,.F.);
#653 = ORIENTED_EDGE('',*,*,#207,.F.);
#654 = PLANE('',#655);
#655 = AXIS2_PLACEMENT_3D('',#656,#657,#658);
#656 = CARTESIAN_POINT('',(10.2,-280.,3.));
#657 = DIRECTION('',(-0.,-2.2E-16,-1.));
#658 = DIRECTION('',(-1.,0.,0.));
#659 = ADVANCED_FACE('',(#660),#678,.F.);
#660 = FACE_BOUND('',#661,.F.);
#661 = EDGE_LOOP('',(#662,#663,#671,#677));
#662 = ORIENTED_EDGE('',*,*,#624,.T.);
#663 = ORIENTED_EDGE('',*,*,#664,.T.);
#664 = EDGE_CURVE('',#617,#665,#667,.T.);
#665 = VERTEX_POINT('',#666);
#666 = CARTESIAN_POINT('',(-3.,-290.,10.2));
#667 = LINE('',#668,#669);
#668 = CARTESIAN_POINT('',(-10.2,-290.,10.2));
#669 = VECTOR('',#670,1.);
#670 = DIRECTION('',(1.,0.,0.));
#671 = ORIENTED_EDGE('',*,*,#672,.F.);
#672 = EDGE_CURVE('',#248,#665,#673,.T.);
#673 = LINE('',#674,#675);
#674 = CARTESIAN_POINT('',(-3.,-280.,10.2));
#675 = VECTOR('',#676,1.);
#676 = DIRECTION('',(0.,-1.,2.2E-16));
#677 = ORIENTED_EDGE('',*,*,#255,.F.);
#678 = PLANE('',#679);
#679 = AXIS2_PLACEMENT_3D('',#680,#681,#682);
#680 = CARTESIAN_POINT('',(-10.2,-280.,10.2));
#681 = DIRECTION('',(0.,2.2E-16,1.));
#682 = DIRECTION('',(1.,0.,0.));
#683 = ADVANCED_FACE('',(#684),#702,.F.);
#684 = FACE_BOUND('',#685,.F.);
#685 = EDGE_LOOP('',(#686,#694,#700,#701));
#686 = ORIENTED_EDGE('',*,*,#687,.T.);
#687 = EDGE_CURVE('',#216,#688,#690,.T.);
#688 = VERTEX_POINT('',#689);
#689 = CARTESIAN_POINT('',(10.2,-290.,10.2));
#690 = LINE('',#691,#692);
#691 = CARTESIAN_POINT('',(10.2,-280.,10.2));
#692 = VECTOR('',#693,1.);
#693 = DIRECTION('',(0.,-1.,2.2E-16));
#694 = ORIENTED_EDGE('',*,*,#695,.T.);
#695 = EDGE_CURVE('',#688,#640,#696,.T.);
#696 = LINE('',#697,#698);
#697 = CARTESIAN_POINT('',(10.2,-290.,10.2));
#698 = VECTOR('',#699,1.);
#699 = DIRECTION('',(0.,0.,-1.));
#700 = ORIENTED_EDGE('',*,*,#639,.F.);
#701 = ORIENTED_EDGE('',*,*,#215,.F.);
#702 = PLANE('',#703);
#703 = AXIS2_PLACEMENT_3D('',#704,#705,#706);
#704 = CARTESIAN_POINT('',(10.2,-280.,10.2));
#705 = DIRECTION('',(1.,0.,0.));
#706 = DIRECTION('',(0.,-2.2E-16,-1.));
#707 = ADVANCED_FACE('',(#708),#726,.F.);
#708 = FACE_BOUND('',#709,.F.);
#709 = EDGE_LOOP('',(#710,#711,#719,#725));
#710 = ORIENTED_EDGE('',*,*,#672,.T.);
#711 = ORIENTED_EDGE('',*,*,#712,.T.);
#712 = EDGE_CURVE('',#665,#713,#715,.T.);
#713 = VERTEX_POINT('',#714);
#714 = CARTESIAN_POINT('',(-3.,-290.,7.2));
#715 = LINE('',#716,#717);
#716 = CARTESIAN_POINT('',(-3.,-290.,10.2));
#717 = VECTOR('',#718,1.);
#718 = DIRECTION('',(0.,0.,-1.));
#719 = ORIENTED_EDGE('',*,*,#720,.F.);
#720 = EDGE_CURVE('',#240,#713,#721,.T.);
#721 = LINE('',#722,#723);
#722 = CARTESIAN_POINT('',(-3.,-280.,7.2));
#723 = VECTOR('',#724,1.);
#724 = DIRECTION('',(0.,-1.,2.2E-16));
#725 = ORIENTED_EDGE('',*,*,#247,.F.);
#726 = PLANE('',#727);
#727 = AXIS2_PLACEMENT_3D('',#728,#729,#730);
#728 = CARTESIAN_POINT('',(-3.,-280.,10.2));
#729 = DIRECTION('',(1.,0.,0.));
#730 = DIRECTION('',(0.,-2.2E-16,-1.));
#731 = ADVANCED_FACE('',(#732),#750,.F.);
#732 = FACE_BOUND('',#733,.F.);
#733 = EDGE_LOOP('',(#734,#742,#748,#749));
#734 = ORIENTED_EDGE('',*,*,#735,.T.);
#735 = EDGE_CURVE('',#224,#736,#738,.T.);
#736 = VERTEX_POINT('',#737);
#737 = CARTESIAN_POINT('',(3.,-290.,10.2));
#738 = LINE('',#739,#740);
#739 = CARTESIAN_POINT('',(3.,-280.,10.2));
#740 = VECTOR('',#741,1.);
#741 = DIRECTION('',(0.,-1.,2.2E-16));
#742 = ORIENTED_EDGE('',*,*,#743,.T.);
#743 = EDGE_CURVE('',#736,#688,#744,.T.);
#744 = LINE('',#745,#746);
#745 = CARTESIAN_POINT('',(3.,-290.,10.2));
#746 = VECTOR('',#747,1.);
#747 = DIRECTION('',(1.,0.,0.));
#748 = ORIENTED_EDGE('',*,*,#687,.F.);
#749 = ORIENTED_EDGE('',*,*,#223,.F.);
#750 = PLANE('',#751);
#751 = AXIS2_PLACEMENT_3D('',#752,#753,#754);
#752 = CARTESIAN_POINT('',(3.,-280.,10.2));
#753 = DIRECTION('',(0.,2.2E-16,1.));
#754 = DIRECTION('',(1.,0.,0.));
#755 = ADVANCED_FACE('',(#756),#774,.F.);
#756 = FACE_BOUND('',#757,.F.);
#757 = EDGE_LOOP('',(#758,#759,#767,#773));
#758 = ORIENTED_EDGE('',*,*,#720,.T.);
#759 = ORIENTED_EDGE('',*,*,#760,.T.);
#760 = EDGE_CURVE('',#713,#761,#763,.T.);
#761 = VERTEX_POINT('',#762);
#762 = CARTESIAN_POINT('',(3.,-290.,7.2));
#763 = LINE('',#764,#765);
#764 = CARTESIAN_POINT('',(-3.,-290.,7.2));
#765 = VECTOR('',#766,1.);
#766 = DIRECTION('',(1.,0.,0.));
#767 = ORIENTED_EDGE('',*,*,#768,.F.);
#768 = EDGE_CURVE('',#232,#761,#769,.T.);
#769 = LINE('',#770,#771);
#770 = CARTESIAN_POINT('',(3.,-280.,7.2));
#771 = VECTOR('',#772,1.);
#772 = DIRECTION('',(0.,-1.,2.2E-16));
#773 = ORIENTED_EDGE('',*,*,#239,.F.);
#774 = PLANE('',#775);
#775 = AXIS2_PLACEMENT_3D('',#776,#777,#778);
#776 = CARTESIAN_POINT('',(-3.,-280.,7.2));
#777 = DIRECTION('',(0.,2.2E-16,1.));
#778 = DIRECTION('',(1.,0.,0.));
#779 = ADVANCED_FACE('',(#780),#791,.F.);
#780 = FACE_BOUND('',#781,.F.);
#781 = EDGE_LOOP('',(#782,#783,#789,#790));
#782 = ORIENTED_EDGE('',*,*,#768,.T.);
#783 = ORIENTED_EDGE('',*,*,#784,.T.);
#784 = EDGE_CURVE('',#761,#736,#785,.T.);
#785 = LINE('',#786,#787);
#786 = CARTESIAN_POINT('',(3.,-290.,7.2));
#787 = VECTOR('',#788,1.);
#788 = DIRECTION('',(0.,0.,1.));
#789 = ORIENTED_EDGE('',*,*,#735,.F.);
#790 = ORIENTED_EDGE('',*,*,#231,.F.);
#791 = PLANE('',#792);
#792 = AXIS2_PLACEMENT_3D('',#793,#794,#795);
#793 = CARTESIAN_POINT('',(3.,-280.,7.2));
#794 = DIRECTION('',(-1.,0.,0.));
#795 = DIRECTION('',(0.,2.2E-16,1.));
#796 = ADVANCED_FACE('',(#797),#822,.F.);
#797 = FACE_BOUND('',#798,.T.);
#798 = EDGE_LOOP('',(#799,#807,#808,#816));
#799 = ORIENTED_EDGE('',*,*,#800,.F.);
#800 = EDGE_CURVE('',#338,#801,#803,.T.);
#801 = VERTEX_POINT('',#802);
#802 = CARTESIAN_POINT('',(14.,-297.9999,14.));
#803 = LINE('',#804,#805);
#804 = CARTESIAN_POINT('',(14.,-300.99995,10.99995));
#805 = VECTOR('',#806,1.);
#806 = DIRECTION('',(-0.,-0.707106781187,-0.707106781187));
#807 = ORIENTED_EDGE('',*,*,#345,.T.);
#808 = ORIENTED_EDGE('',*,*,#809,.T.);
#809 = EDGE_CURVE('',#346,#810,#812,.T.);
#810 = VERTEX_POINT('',#811);
#811 = CARTESIAN_POINT('',(-14.,-297.9999,14.));
#812 = LINE('',#813,#814);
#813 = CARTESIAN_POINT('',(-14.,-293.99995,17.99995));
#814 = VECTOR('',#815,1.);
#815 = DIRECTION('',(0.,-0.707106781187,-0.707106781187));
#816 = ORIENTED_EDGE('',*,*,#817,.F.);
#817 = EDGE_CURVE('',#801,#810,#818,.T.);
#818 = LINE('',#819,#820);
#819 = CARTESIAN_POINT('',(14.,-297.9999,14.));
#820 = VECTOR('',#821,1.);
#821 = DIRECTION('',(-1.,0.,0.));
#822 = PLANE('',#823);
#823 = AXIS2_PLACEMENT_3D('',#824,#825,#826);
#824 = CARTESIAN_POINT('',(14.,-293.99995,17.99995));
#825 = DIRECTION('',(0.,0.707106781187,-0.707106781187));
#826 = DIRECTION('',(1.,0.,0.));
#827 = ADVANCED_FACE('',(#828),#863,.F.);
#828 = FACE_BOUND('',#829,.F.);
#829 = EDGE_LOOP('',(#830,#838,#846,#854,#860,#861,#862));
#830 = ORIENTED_EDGE('',*,*,#831,.T.);
#831 = EDGE_CURVE('',#810,#832,#834,.T.);
#832 = VERTEX_POINT('',#833);
#833 = CARTESIAN_POINT('',(-14.,-298.,14.));
#834 = LINE('',#835,#836);
#835 = CARTESIAN_POINT('',(-14.,-290.,14.));
#836 = VECTOR('',#837,1.);
#837 = DIRECTION('',(0.,-1.,2.2E-16));
#838 = ORIENTED_EDGE('',*,*,#839,.T.);
#839 = EDGE_CURVE('',#832,#840,#842,.T.);
#840 = VERTEX_POINT('',#841);
#841 = CARTESIAN_POINT('',(-14.,-298.,-14.));
#842 = LINE('',#843,#844);
#843 = CARTESIAN_POINT('',(-14.,-298.,14.));
#844 = VECTOR('',#845,1.);
#845 = DIRECTION('',(0.,0.,-1.));
#846 = ORIENTED_EDGE('',*,*,#847,.F.);
#847 = EDGE_CURVE('',#848,#840,#850,.T.);
#848 = VERTEX_POINT('',#849);
#849 = CARTESIAN_POINT('',(-14.,-290.,-14.));
#850 = LINE('',#851,#852);
#851 = CARTESIAN_POINT('',(-14.,-290.,-14.));
#852 = VECTOR('',#853,1.);
#853 = DIRECTION('',(0.,-1.,2.2E-16));
#854 = ORIENTED_EDGE('',*,*,#855,.F.);
#855 = EDGE_CURVE('',#422,#848,#856,.T.);
#856 = LINE('',#857,#858);
#857 = CARTESIAN_POINT('',(-14.,-290.,14.));
#858 = VECTOR('',#859,1.);
#859 = DIRECTION('',(0.,0.,-1.));
#860 = ORIENTED_EDGE('',*,*,#421,.F.);
#861 = ORIENTED_EDGE('',*,*,#413,.F.);
#862 = ORIENTED_EDGE('',*,*,#809,.T.);
#863 = PLANE('',#864);
#864 = AXIS2_PLACEMENT_3D('',#865,#866,#867);
#865 = CARTESIAN_POINT('',(-14.,-290.,14.));
#866 = DIRECTION('',(1.,0.,0.));
#867 = DIRECTION('',(0.,-2.2E-16,-1.));
#868 = ADVANCED_FACE('',(#869,#899),#910,.T.);
#869 = FACE_BOUND('',#870,.T.);
#870 = EDGE_LOOP('',(#871,#872,#873,#874,#875,#876,#877,#878,#879,#880,
    #881,#882,#883,#884,#885,#893));
#871 = ORIENTED_EDGE('',*,*,#855,.F.);
#872 = ORIENTED_EDGE('',*,*,#463,.T.);
#873 = ORIENTED_EDGE('',*,*,#520,.T.);
#874 = ORIENTED_EDGE('',*,*,#568,.T.);
#875 = ORIENTED_EDGE('',*,*,#616,.T.);
#876 = ORIENTED_EDGE('',*,*,#664,.T.);
#877 = ORIENTED_EDGE('',*,*,#712,.T.);
#878 = ORIENTED_EDGE('',*,*,#760,.T.);
#879 = ORIENTED_EDGE('',*,*,#784,.T.);
#880 = ORIENTED_EDGE('',*,*,#743,.T.);
#881 = ORIENTED_EDGE('',*,*,#695,.T.);
#882 = ORIENTED_EDGE('',*,*,#647,.T.);
#883 = ORIENTED_EDGE('',*,*,#599,.T.);
#884 = ORIENTED_EDGE('',*,*,#551,.T.);
#885 = ORIENTED_EDGE('',*,*,#886,.F.);
#886 = EDGE_CURVE('',#887,#490,#889,.T.);
#887 = VERTEX_POINT('',#888);
#888 = CARTESIAN_POINT('',(14.,-290.,-14.));
#889 = LINE('',#890,#891);
#890 = CARTESIAN_POINT('',(14.,-290.,-14.));
#891 = VECTOR('',#892,1.);
#892 = DIRECTION('',(0.,0.,1.));
#893 = ORIENTED_EDGE('',*,*,#894,.F.);
#894 = EDGE_CURVE('',#848,#887,#895,.T.);
#895 = LINE('',#896,#897);
#896 = CARTESIAN_POINT('',(-14.,-290.,-14.));
#897 = VECTOR('',#898,1.);
#898 = DIRECTION('',(1.,0.,0.));
#899 = FACE_BOUND('',#900,.T.);
#900 = EDGE_LOOP('',(#901));
#901 = ORIENTED_EDGE('',*,*,#902,.F.);
#902 = EDGE_CURVE('',#903,#903,#905,.T.);
#903 = VERTEX_POINT('',#904);
#904 = CARTESIAN_POINT('',(-3.3,-290.,6.2E-14));
#905 = CIRCLE('',#906,3.3);
#906 = AXIS2_PLACEMENT_3D('',#907,#908,#909);
#907 = CARTESIAN_POINT('',(0.,-290.,6.222E-14));
#908 = DIRECTION('',(0.,1.,-2.2E-16));
#909 = DIRECTION('',(-1.,0.,0.));
#910 = PLANE('',#911);
#911 = AXIS2_PLACEMENT_3D('',#912,#913,#914);
#912 = CARTESIAN_POINT('',(-2.03E-15,-290.,6.446E-14));
#913 = DIRECTION('',(0.,1.,0.));
#914 = DIRECTION('',(0.,0.,1.));
#915 = ADVANCED_FACE('',(#916),#944,.F.);
#916 = FACE_BOUND('',#917,.F.);
#917 = EDGE_LOOP('',(#918,#926,#927,#928,#929,#930,#938));
#918 = ORIENTED_EDGE('',*,*,#919,.F.);
#919 = EDGE_CURVE('',#801,#920,#922,.T.);
#920 = VERTEX_POINT('',#921);
#921 = CARTESIAN_POINT('',(14.,-298.,14.));
#922 = LINE('',#923,#924);
#923 = CARTESIAN_POINT('',(14.,-290.,14.));
#924 = VECTOR('',#925,1.);
#925 = DIRECTION('',(0.,-1.,2.2E-16));
#926 = ORIENTED_EDGE('',*,*,#800,.F.);
#927 = ORIENTED_EDGE('',*,*,#505,.F.);
#928 = ORIENTED_EDGE('',*,*,#497,.F.);
#929 = ORIENTED_EDGE('',*,*,#886,.F.);
#930 = ORIENTED_EDGE('',*,*,#931,.T.);
#931 = EDGE_CURVE('',#887,#932,#934,.T.);
#932 = VERTEX_POINT('',#933);
#933 = CARTESIAN_POINT('',(14.,-298.,-14.));
#934 = LINE('',#935,#936);
#935 = CARTESIAN_POINT('',(14.,-290.,-14.));
#936 = VECTOR('',#937,1.);
#937 = DIRECTION('',(0.,-1.,2.2E-16));
#938 = ORIENTED_EDGE('',*,*,#939,.T.);
#939 = EDGE_CURVE('',#932,#920,#940,.T.);
#940 = LINE('',#941,#942);
#941 = CARTESIAN_POINT('',(14.,-298.,-14.));
#942 = VECTOR('',#943,1.);
#943 = DIRECTION('',(0.,0.,1.));
#944 = PLANE('',#945);
#945 = AXIS2_PLACEMENT_3D('',#946,#947,#948);
#946 = CARTESIAN_POINT('',(14.,-290.,-14.));
#947 = DIRECTION('',(-1.,0.,0.));
#948 = DIRECTION('',(0.,2.2E-16,1.));
#949 = ADVANCED_FACE('',(#950),#961,.F.);
#950 = FACE_BOUND('',#951,.F.);
#951 = EDGE_LOOP('',(#952,#953,#959,#960));
#952 = ORIENTED_EDGE('',*,*,#919,.T.);
#953 = ORIENTED_EDGE('',*,*,#954,.T.);
#954 = EDGE_CURVE('',#920,#832,#955,.T.);
#955 = LINE('',#956,#957);
#956 = CARTESIAN_POINT('',(14.,-298.,14.));
#957 = VECTOR('',#958,1.);
#958 = DIRECTION('',(-1.,0.,0.));
#959 = ORIENTED_EDGE('',*,*,#831,.F.);
#960 = ORIENTED_EDGE('',*,*,#817,.F.);
#961 = PLANE('',#962);
#962 = AXIS2_PLACEMENT_3D('',#963,#964,#965);
#963 = CARTESIAN_POINT('',(14.,-290.,14.));
#964 = DIRECTION('',(-0.,-2.2E-16,-1.));
#965 = DIRECTION('',(-1.,0.,0.));
#966 = ADVANCED_FACE('',(#967,#978),#989,.F.);
#967 = FACE_BOUND('',#968,.F.);
#968 = EDGE_LOOP('',(#969,#970,#971,#972));
#969 = ORIENTED_EDGE('',*,*,#839,.F.);
#970 = ORIENTED_EDGE('',*,*,#954,.F.);
#971 = ORIENTED_EDGE('',*,*,#939,.F.);
#972 = ORIENTED_EDGE('',*,*,#973,.F.);
#973 = EDGE_CURVE('',#840,#932,#974,.T.);
#974 = LINE('',#975,#976);
#975 = CARTESIAN_POINT('',(-14.,-298.,-14.));
#976 = VECTOR('',#977,1.);
#977 = DIRECTION('',(1.,0.,0.));
#978 = FACE_BOUND('',#979,.F.);
#979 = EDGE_LOOP('',(#980));
#980 = ORIENTED_EDGE('',*,*,#981,.T.);
#981 = EDGE_CURVE('',#982,#982,#984,.T.);
#982 = VERTEX_POINT('',#983);
#983 = CARTESIAN_POINT('',(-5.5,-298.,6.4E-14));
#984 = CIRCLE('',#985,5.5);
#985 = AXIS2_PLACEMENT_3D('',#986,#987,#988);
#986 = CARTESIAN_POINT('',(0.,-298.,6.4E-14));
#987 = DIRECTION('',(0.,-1.,2.2E-16));
#988 = DIRECTION('',(-1.,0.,0.));
#989 = PLANE('',#990);
#990 = AXIS2_PLACEMENT_3D('',#991,#992,#993);
#991 = CARTESIAN_POINT('',(-2.03E-15,-298.,6.646E-14));
#992 = DIRECTION('',(0.,1.,0.));
#993 = DIRECTION('',(0.,0.,1.));
#994 = ADVANCED_FACE('',(#995),#1001,.F.);
#995 = FACE_BOUND('',#996,.F.);
#996 = EDGE_LOOP('',(#997,#998,#999,#1000));
#997 = ORIENTED_EDGE('',*,*,#847,.T.);
#998 = ORIENTED_EDGE('',*,*,#973,.T.);
#999 = ORIENTED_EDGE('',*,*,#931,.F.);
#1000 = ORIENTED_EDGE('',*,*,#894,.F.);
#1001 = PLANE('',#1002);
#1002 = AXIS2_PLACEMENT_3D('',#1003,#1004,#1005);
#1003 = CARTESIAN_POINT('',(-14.,-290.,-14.));
#1004 = DIRECTION('',(0.,2.2E-16,1.));
#1005 = DIRECTION('',(1.,0.,0.));
#1006 = ADVANCED_FACE('',(#1007),#1026,.F.);
#1007 = FACE_BOUND('',#1008,.T.);
#1008 = EDGE_LOOP('',(#1009,#1017,#1024,#1025));
#1009 = ORIENTED_EDGE('',*,*,#1010,.F.);
#1010 = EDGE_CURVE('',#1011,#903,#1013,.T.);
#1011 = VERTEX_POINT('',#1012);
#1012 = CARTESIAN_POINT('',(-3.3,-291.6,6.3E-14));
#1013 = LINE('',#1014,#1015);
#1014 = CARTESIAN_POINT('',(-3.3,-291.6,6.258E-14));
#1015 = VECTOR('',#1016,1.);
#1016 = DIRECTION('',(5.E-17,1.,-2.2E-16));
#1017 = ORIENTED_EDGE('',*,*,#1018,.T.);
#1018 = EDGE_CURVE('',#1011,#1011,#1019,.T.);
#1019 = CIRCLE('',#1020,3.3);
#1020 = AXIS2_PLACEMENT_3D('',#1021,#1022,#1023);
#1021 = CARTESIAN_POINT('',(0.,-291.6,6.258E-14));
#1022 = DIRECTION('',(0.,-1.,2.2E-16));
#1023 = DIRECTION('',(-1.,0.,0.));
#1024 = ORIENTED_EDGE('',*,*,#1010,.T.);
#1025 = ORIENTED_EDGE('',*,*,#902,.T.);
#1026 = CYLINDRICAL_SURFACE('',#1027,3.3);
#1027 = AXIS2_PLACEMENT_3D('',#1028,#1029,#1030);
#1028 = CARTESIAN_POINT('',(0.,-291.6,6.258E-14));
#1029 = DIRECTION('',(0.,1.,-2.2E-16));
#1030 = DIRECTION('',(-1.,0.,0.));
#1031 = ADVANCED_FACE('',(#1032),#1051,.F.);
#1032 = FACE_BOUND('',#1033,.T.);
#1033 = EDGE_LOOP('',(#1034,#1042,#1043,#1044));
#1034 = ORIENTED_EDGE('',*,*,#1035,.F.);
#1035 = EDGE_CURVE('',#982,#1036,#1038,.T.);
#1036 = VERTEX_POINT('',#1037);
#1037 = CARTESIAN_POINT('',(-5.5,-291.6,6.3E-14));
#1038 = LINE('',#1039,#1040);
#1039 = CARTESIAN_POINT('',(-5.5,-298.,6.4E-14));
#1040 = VECTOR('',#1041,1.);
#1041 = DIRECTION('',(0.,1.,-2.2E-16));
#1042 = ORIENTED_EDGE('',*,*,#981,.T.);
#1043 = ORIENTED_EDGE('',*,*,#1035,.T.);
#1044 = ORIENTED_EDGE('',*,*,#1045,.F.);
#1045 = EDGE_CURVE('',#1036,#1036,#1046,.T.);
#1046 = CIRCLE('',#1047,5.5);
#1047 = AXIS2_PLACEMENT_3D('',#1048,#1049,#1050);
#1048 = CARTESIAN_POINT('',(0.,-291.6,6.258E-14));
#1049 = DIRECTION('',(0.,-1.,2.2E-16));
#1050 = DIRECTION('',(-1.,0.,0.));
#1051 = CYLINDRICAL_SURFACE('',#1052,5.5);
#1052 = AXIS2_PLACEMENT_3D('',#1053,#1054,#1055);
#1053 = CARTESIAN_POINT('',(0.,-298.,6.4E-14));
#1054 = DIRECTION('',(0.,1.,-2.2E-16));
#1055 = DIRECTION('',(-1.,0.,0.));
#1056 = ADVANCED_FACE('',(#1057,#1060),#1063,.T.);
#1057 = FACE_BOUND('',#1058,.T.);
#1058 = EDGE_LOOP('',(#1059));
#1059 = ORIENTED_EDGE('',*,*,#1045,.T.);
#1060 = FACE_BOUND('',#1061,.T.);
#1061 = EDGE_LOOP('',(#1062));
#1062 = ORIENTED_EDGE('',*,*,#1018,.F.);
#1063 = PLANE('',#1064);
#1064 = AXIS2_PLACEMENT_3D('',#1065,#1066,#1067);
#1065 = CARTESIAN_POINT('',(0.,-291.6,6.258E-14));
#1066 = DIRECTION('',(0.,-1.,2.2E-16));
#1067 = DIRECTION('',(-1.,0.,0.));
#1068 = ( GEOMETRIC_REPRESENTATION_CONTEXT(3) 
GLOBAL_UNCERTAINTY_ASSIGNED_CONTEXT((#1072)) 
GLOBAL_UNIT_ASSIGNED_CONTEXT((#1069,#1070,#1071)) REPRESENTATION_CONTEXT
('Context #1','3D Context with UNIT and UNCERTAINTY') );
#1069 = ( LENGTH_UNIT() NAMED_UNIT(*) SI_UNIT(.MILLI.,.METRE.) );
#1070 = ( NAMED_UNIT(*) PLANE_ANGLE_UNIT() SI_UNIT($,.RADIAN.) );
#1071 = ( NAMED_UNIT(*) SI_UNIT($,.STERADIAN.) SOLID_ANGLE_UNIT() );
#1072 = UNCERTAINTY_MEASURE_WITH_UNIT(LENGTH_MEASURE(5.E-06),#1069,
  'distance_accuracy_value','confusion accuracy');
#1073 = PRODUCT_RELATED_PRODUCT_CATEGORY('part',$,(#7));
#1074 = MECHANICAL_DESIGN_GEOMETRIC_PRESENTATION_REPRESENTATION('',(
    #1075),#1068);
#1075 = STYLED_ITEM('color',(#1076),#15);
#1076 = PRESENTATION_STYLE_ASSIGNMENT((#1077,#1083));
#1077 = SURFACE_STYLE_USAGE(.BOTH.,#1078);
#1078 = SURFACE_SIDE_STYLE('',(#1079));
#1079 = SURFACE_STYLE_FILL_AREA(#1080);
#1080 = FILL_AREA_STYLE('',(#1081));
#1081 = FILL_AREA_STYLE_COLOUR('',#1082);
#1082 = COLOUR_RGB('',0.666666687201,0.,1.);
#1083 = CURVE_STYLE('',#1084,POSITIVE_LENGTH_MEASURE(0.1),#1085);
#1084 = DRAUGHTING_PRE_DEFINED_CURVE_FONT('continuous');
#1085 = COLOUR_RGB('',9.803921802644E-02,9.803921802644E-02,
  9.803921802644E-02);
ENDSEC;
END-ISO-10303-21;
