ISO-10303-21;
HEADER;
FILE_DESCRIPTION(('FreeCAD Model'),'2;1');
FILE_NAME('Open CASCADE Shape Model','2025-11-04T09:15:05',(''),(''),
  'Open CASCADE STEP processor 7.9','FreeCAD','Unknown');
FILE_SCHEMA(('AUTOMOTIVE_DESIGN { 1 0 10303 214 1 1 1 1 }'));
ENDSEC;
DATA;
#1 = APPLICATION_PROTOCOL_DEFINITION('international standard',
  'automotive_design',2000,#2);
#2 = APPLICATION_CONTEXT(
  'core data for automotive mechanical design processes');
#3 = SHAPE_DEFINITION_REPRESENTATION(#4,#10);
#4 = PRODUCT_DEFINITION_SHAPE('','',#5);
#5 = PRODUCT_DEFINITION('design','',#6,#9);
#6 = PRODUCT_DEFINITION_FORMATION('','',#7);
#7 = PRODUCT('TensionerB','TensionerB','',(#8));
#8 = PRODUCT_CONTEXT('',#2,'mechanical');
#9 = PRODUCT_DEFINITION_CONTEXT('part definition',#2,'design');
#10 = ADVANCED_BREP_SHAPE_REPRESENTATION('',(#11,#15),#863);
#11 = AXIS2_PLACEMENT_3D('',#12,#13,#14);
#12 = CARTESIAN_POINT('',(0.,0.,0.));
#13 = DIRECTION('',(0.,0.,1.));
#14 = DIRECTION('',(1.,0.,-0.));
#15 = MANIFOLD_SOLID_BREP('',#16);
#16 = CLOSED_SHELL('',(#17,#68,#147,#179,#248,#273,#345,#369,#431,#459,
    #522,#549,#573,#602,#624,#652,#669,#692,#709,#721,#745,#783,#800,
    #817,#834,#851));
#17 = ADVANCED_FACE('',(#18),#63,.T.);
#18 = FACE_BOUND('',#19,.F.);
#19 = EDGE_LOOP('',(#20,#30,#39,#47,#56));
#20 = ORIENTED_EDGE('',*,*,#21,.F.);
#21 = EDGE_CURVE('',#22,#24,#26,.T.);
#22 = VERTEX_POINT('',#23);
#23 = CARTESIAN_POINT('',(-11.5,44.000002078432,-6.));
#24 = VERTEX_POINT('',#25);
#25 = CARTESIAN_POINT('',(-5.5,44.000002078432,-6.));
#26 = LINE('',#27,#28);
#27 = CARTESIAN_POINT('',(-11.5,44.000002078432,-6.));
#28 = VECTOR('',#29,1.);
#29 = DIRECTION('',(1.,-4.4E-16,-1.1E-16));
#30 = ORIENTED_EDGE('',*,*,#31,.F.);
#31 = EDGE_CURVE('',#32,#22,#34,.T.);
#32 = VERTEX_POINT('',#33);
#33 = CARTESIAN_POINT('',(-11.5,43.999999999975,6.));
#34 = CIRCLE('',#35,6.);
#35 = AXIS2_PLACEMENT_3D('',#36,#37,#38);
#36 = CARTESIAN_POINT('',(-11.5,44.,-1.7763568394E-14));
#37 = DIRECTION('',(1.,8.9E-16,1.E-15));
#38 = DIRECTION('',(-8.9E-16,1.,-7.8E-16));
#39 = ORIENTED_EDGE('',*,*,#40,.T.);
#40 = EDGE_CURVE('',#32,#41,#43,.T.);
#41 = VERTEX_POINT('',#42);
#42 = CARTESIAN_POINT('',(-5.5,43.999999999975,6.));
#43 = LINE('',#44,#45);
#44 = CARTESIAN_POINT('',(-11.5,43.999999999975,6.));
#45 = VECTOR('',#46,1.);
#46 = DIRECTION('',(1.,-4.4E-16,-1.1E-16));
#47 = ORIENTED_EDGE('',*,*,#48,.T.);
#48 = EDGE_CURVE('',#41,#49,#51,.T.);
#49 = VERTEX_POINT('',#50);
#50 = CARTESIAN_POINT('',(-5.5,38.,-4.4E-14));
#51 = CIRCLE('',#52,6.);
#52 = AXIS2_PLACEMENT_3D('',#53,#54,#55);
#53 = CARTESIAN_POINT('',(-5.5,44.,-3.886E-14));
#54 = DIRECTION('',(1.,5.6E-16,6.7E-16));
#55 = DIRECTION('',(-6.699999999977E-16,-4.17337E-12,1.));
#56 = ORIENTED_EDGE('',*,*,#57,.T.);
#57 = EDGE_CURVE('',#49,#24,#58,.T.);
#58 = CIRCLE('',#59,6.);
#59 = AXIS2_PLACEMENT_3D('',#60,#61,#62);
#60 = CARTESIAN_POINT('',(-5.5,44.,-3.886E-14));
#61 = DIRECTION('',(1.,5.6E-16,6.7E-16));
#62 = DIRECTION('',(5.6E-16,-1.,8.7E-16));
#63 = CYLINDRICAL_SURFACE('',#64,6.);
#64 = AXIS2_PLACEMENT_3D('',#65,#66,#67);
#65 = CARTESIAN_POINT('',(-11.5,44.,-3.292E-14));
#66 = DIRECTION('',(-1.,2.2E-16,-1.1E-16));
#67 = DIRECTION('',(2.2E-16,1.,-7.8E-16));
#68 = ADVANCED_FACE('',(#69),#142,.T.);
#69 = FACE_BOUND('',#70,.T.);
#70 = EDGE_LOOP('',(#71,#72,#80,#88,#96,#104,#112,#120,#128,#136));
#71 = ORIENTED_EDGE('',*,*,#21,.F.);
#72 = ORIENTED_EDGE('',*,*,#73,.F.);
#73 = EDGE_CURVE('',#74,#22,#76,.T.);
#74 = VERTEX_POINT('',#75);
#75 = CARTESIAN_POINT('',(-11.5,76.,-6.));
#76 = LINE('',#77,#78);
#77 = CARTESIAN_POINT('',(-11.5,76.,-6.));
#78 = VECTOR('',#79,1.);
#79 = DIRECTION('',(8.9E-16,-1.,7.8E-16));
#80 = ORIENTED_EDGE('',*,*,#81,.T.);
#81 = EDGE_CURVE('',#74,#82,#84,.T.);
#82 = VERTEX_POINT('',#83);
#83 = CARTESIAN_POINT('',(11.5,76.,-6.));
#84 = LINE('',#85,#86);
#85 = CARTESIAN_POINT('',(-11.5,76.,-6.));
#86 = VECTOR('',#87,1.);
#87 = DIRECTION('',(1.,-4.4E-16,-1.1E-16));
#88 = ORIENTED_EDGE('',*,*,#89,.T.);
#89 = EDGE_CURVE('',#82,#90,#92,.T.);
#90 = VERTEX_POINT('',#91);
#91 = CARTESIAN_POINT('',(11.5,44.000002078432,-6.));
#92 = LINE('',#93,#94);
#93 = CARTESIAN_POINT('',(11.5,76.,-6.));
#94 = VECTOR('',#95,1.);
#95 = DIRECTION('',(8.9E-16,-1.,7.8E-16));
#96 = ORIENTED_EDGE('',*,*,#97,.F.);
#97 = EDGE_CURVE('',#98,#90,#100,.T.);
#98 = VERTEX_POINT('',#99);
#99 = CARTESIAN_POINT('',(5.5,44.000002078432,-6.));
#100 = LINE('',#101,#102);
#101 = CARTESIAN_POINT('',(-11.5,44.000002078432,-6.));
#102 = VECTOR('',#103,1.);
#103 = DIRECTION('',(1.,-4.4E-16,-1.1E-16));
#104 = ORIENTED_EDGE('',*,*,#105,.F.);
#105 = EDGE_CURVE('',#106,#98,#108,.T.);
#106 = VERTEX_POINT('',#107);
#107 = CARTESIAN_POINT('',(5.5,68.,-6.));
#108 = LINE('',#109,#110);
#109 = CARTESIAN_POINT('',(5.5,68.,-6.));
#110 = VECTOR('',#111,1.);
#111 = DIRECTION('',(5.6E-16,-1.,6.7E-16));
#112 = ORIENTED_EDGE('',*,*,#113,.F.);
#113 = EDGE_CURVE('',#114,#106,#116,.T.);
#114 = VERTEX_POINT('',#115);
#115 = CARTESIAN_POINT('',(4.5,68.,-6.));
#116 = LINE('',#117,#118);
#117 = CARTESIAN_POINT('',(-3.5,68.,-6.));
#118 = VECTOR('',#119,1.);
#119 = DIRECTION('',(1.,-1.1E-16,3.3E-16));
#120 = ORIENTED_EDGE('',*,*,#121,.F.);
#121 = EDGE_CURVE('',#122,#114,#124,.T.);
#122 = VERTEX_POINT('',#123);
#123 = CARTESIAN_POINT('',(-4.5,68.,-6.));
#124 = LINE('',#125,#126);
#125 = CARTESIAN_POINT('',(-3.5,68.,-6.));
#126 = VECTOR('',#127,1.);
#127 = DIRECTION('',(1.,-1.1E-16,3.3E-16));
#128 = ORIENTED_EDGE('',*,*,#129,.T.);
#129 = EDGE_CURVE('',#122,#130,#132,.T.);
#130 = VERTEX_POINT('',#131);
#131 = CARTESIAN_POINT('',(-5.5,68.,-6.));
#132 = LINE('',#133,#134);
#133 = CARTESIAN_POINT('',(-3.5,68.,-6.));
#134 = VECTOR('',#135,1.);
#135 = DIRECTION('',(-1.,1.1E-16,-3.3E-16));
#136 = ORIENTED_EDGE('',*,*,#137,.F.);
#137 = EDGE_CURVE('',#24,#130,#138,.T.);
#138 = LINE('',#139,#140);
#139 = CARTESIAN_POINT('',(-5.5,44.000002078432,-6.));
#140 = VECTOR('',#141,1.);
#141 = DIRECTION('',(-5.6E-16,1.,-6.7E-16));
#142 = PLANE('',#143);
#143 = AXIS2_PLACEMENT_3D('',#144,#145,#146);
#144 = CARTESIAN_POINT('',(-11.5,76.,-6.));
#145 = DIRECTION('',(7.8E-16,1.1E-16,-1.));
#146 = DIRECTION('',(6.7E-16,-1.,-1.1E-16));
#147 = ADVANCED_FACE('',(#148),#174,.T.);
#148 = FACE_BOUND('',#149,.F.);
#149 = EDGE_LOOP('',(#150,#158,#167,#173));
#150 = ORIENTED_EDGE('',*,*,#151,.F.);
#151 = EDGE_CURVE('',#152,#49,#154,.T.);
#152 = VERTEX_POINT('',#153);
#153 = CARTESIAN_POINT('',(-4.5,39.,-4.5E-14));
#154 = LINE('',#155,#156);
#155 = CARTESIAN_POINT('',(-5.5,38.,-3.472E-14));
#156 = VECTOR('',#157,1.);
#157 = DIRECTION('',(-0.707106781187,-0.707106781187,3.3E-16));
#158 = ORIENTED_EDGE('',*,*,#159,.T.);
#159 = EDGE_CURVE('',#152,#160,#162,.T.);
#160 = VERTEX_POINT('',#161);
#161 = CARTESIAN_POINT('',(-4.5,44.000001732027,-5.));
#162 = CIRCLE('',#163,5.);
#163 = AXIS2_PLACEMENT_3D('',#164,#165,#166);
#164 = CARTESIAN_POINT('',(-4.5,44.,-3.864E-14));
#165 = DIRECTION('',(1.,5.6E-16,6.7E-16));
#166 = DIRECTION('',(5.6E-16,-1.,8.7E-16));
#167 = ORIENTED_EDGE('',*,*,#168,.T.);
#168 = EDGE_CURVE('',#160,#24,#169,.T.);
#169 = LINE('',#170,#171);
#170 = CARTESIAN_POINT('',(-5.5,44.000002078432,-6.));
#171 = VECTOR('',#172,1.);
#172 = DIRECTION('',(-0.707106781187,2.4494559654E-07,-0.707106781187));
#173 = ORIENTED_EDGE('',*,*,#57,.F.);
#174 = CONICAL_SURFACE('',#175,6.,0.785398163397);
#175 = AXIS2_PLACEMENT_3D('',#176,#177,#178);
#176 = CARTESIAN_POINT('',(-5.5,44.,-3.886E-14));
#177 = DIRECTION('',(-1.,-1.1E-16,-2.2E-16));
#178 = DIRECTION('',(1.1E-16,-1.,8.7E-16));
#179 = ADVANCED_FACE('',(#180,#198,#232),#243,.F.);
#180 = FACE_BOUND('',#181,.F.);
#181 = EDGE_LOOP('',(#182,#183,#184,#192));
#182 = ORIENTED_EDGE('',*,*,#31,.T.);
#183 = ORIENTED_EDGE('',*,*,#73,.F.);
#184 = ORIENTED_EDGE('',*,*,#185,.F.);
#185 = EDGE_CURVE('',#186,#74,#188,.T.);
#186 = VERTEX_POINT('',#187);
#187 = CARTESIAN_POINT('',(-11.5,76.,6.));
#188 = LINE('',#189,#190);
#189 = CARTESIAN_POINT('',(-11.5,76.,6.));
#190 = VECTOR('',#191,1.);
#191 = DIRECTION('',(1.E-15,5.6E-16,-1.));
#192 = ORIENTED_EDGE('',*,*,#193,.F.);
#193 = EDGE_CURVE('',#32,#186,#194,.T.);
#194 = LINE('',#195,#196);
#195 = CARTESIAN_POINT('',(-11.5,43.999999999975,6.));
#196 = VECTOR('',#197,1.);
#197 = DIRECTION('',(-8.9E-16,1.,-7.8E-16));
#198 = FACE_BOUND('',#199,.T.);
#199 = EDGE_LOOP('',(#200,#210,#218,#226));
#200 = ORIENTED_EDGE('',*,*,#201,.T.);
#201 = EDGE_CURVE('',#202,#204,#206,.T.);
#202 = VERTEX_POINT('',#203);
#203 = CARTESIAN_POINT('',(-11.5,70.,-4.));
#204 = VERTEX_POINT('',#205);
#205 = CARTESIAN_POINT('',(-11.5,74.,-4.));
#206 = LINE('',#207,#208);
#207 = CARTESIAN_POINT('',(-11.5,70.,-4.));
#208 = VECTOR('',#209,1.);
#209 = DIRECTION('',(-8.9E-16,1.,-7.8E-16));
#210 = ORIENTED_EDGE('',*,*,#211,.T.);
#211 = EDGE_CURVE('',#204,#212,#214,.T.);
#212 = VERTEX_POINT('',#213);
#213 = CARTESIAN_POINT('',(-11.5,74.,4.));
#214 = LINE('',#215,#216);
#215 = CARTESIAN_POINT('',(-11.5,74.,-4.));
#216 = VECTOR('',#217,1.);
#217 = DIRECTION('',(-1.E-15,-5.6E-16,1.));
#218 = ORIENTED_EDGE('',*,*,#219,.T.);
#219 = EDGE_CURVE('',#212,#220,#222,.T.);
#220 = VERTEX_POINT('',#221);
#221 = CARTESIAN_POINT('',(-11.5,70.,4.));
#222 = LINE('',#223,#224);
#223 = CARTESIAN_POINT('',(-11.5,74.,4.));
#224 = VECTOR('',#225,1.);
#225 = DIRECTION('',(8.9E-16,-1.,7.8E-16));
#226 = ORIENTED_EDGE('',*,*,#227,.T.);
#227 = EDGE_CURVE('',#220,#202,#228,.T.);
#228 = LINE('',#229,#230);
#229 = CARTESIAN_POINT('',(-11.5,70.,4.));
#230 = VECTOR('',#231,1.);
#231 = DIRECTION('',(1.E-15,5.6E-16,-1.));
#232 = FACE_BOUND('',#233,.T.);
#233 = EDGE_LOOP('',(#234));
#234 = ORIENTED_EDGE('',*,*,#235,.T.);
#235 = EDGE_CURVE('',#236,#236,#238,.T.);
#236 = VERTEX_POINT('',#237);
#237 = CARTESIAN_POINT('',(-11.5,46.5,-5.5E-14));
#238 = CIRCLE('',#239,2.5);
#239 = AXIS2_PLACEMENT_3D('',#240,#241,#242);
#240 = CARTESIAN_POINT('',(-11.5,44.,-1.7763568394E-14));
#241 = DIRECTION('',(1.,8.9E-16,1.E-15));
#242 = DIRECTION('',(-8.9E-16,1.,-7.8E-16));
#243 = PLANE('',#244);
#244 = AXIS2_PLACEMENT_3D('',#245,#246,#247);
#245 = CARTESIAN_POINT('',(-11.5,59.403010213556,1.275492955699E-08));
#246 = DIRECTION('',(1.,-4.4E-16,-3.3E-16));
#247 = DIRECTION('',(3.3E-16,-5.6E-16,1.));
#248 = ADVANCED_FACE('',(#249),#268,.T.);
#249 = FACE_BOUND('',#250,.F.);
#250 = EDGE_LOOP('',(#251,#259,#266,#267));
#251 = ORIENTED_EDGE('',*,*,#252,.F.);
#252 = EDGE_CURVE('',#253,#41,#255,.T.);
#253 = VERTEX_POINT('',#254);
#254 = CARTESIAN_POINT('',(-4.5,43.999999999975,5.));
#255 = LINE('',#256,#257);
#256 = CARTESIAN_POINT('',(-5.,43.999999999975,5.5));
#257 = VECTOR('',#258,1.);
#258 = DIRECTION('',(-0.707106781187,0.,0.707106781187));
#259 = ORIENTED_EDGE('',*,*,#260,.T.);
#260 = EDGE_CURVE('',#253,#152,#261,.T.);
#261 = CIRCLE('',#262,5.);
#262 = AXIS2_PLACEMENT_3D('',#263,#264,#265);
#263 = CARTESIAN_POINT('',(-4.5,44.,-3.864E-14));
#264 = DIRECTION('',(1.,5.6E-16,6.7E-16));
#265 = DIRECTION('',(-6.699999999977E-16,-4.17337E-12,1.));
#266 = ORIENTED_EDGE('',*,*,#151,.T.);
#267 = ORIENTED_EDGE('',*,*,#48,.F.);
#268 = CONICAL_SURFACE('',#269,6.,0.785398163397);
#269 = AXIS2_PLACEMENT_3D('',#270,#271,#272);
#270 = CARTESIAN_POINT('',(-5.5,44.,-3.886E-14));
#271 = DIRECTION('',(-1.,-1.1E-16,-2.2E-16));
#272 = DIRECTION('',(-2.199999999995E-16,-4.17337E-12,1.));
#273 = ADVANCED_FACE('',(#274),#340,.T.);
#274 = FACE_BOUND('',#275,.T.);
#275 = EDGE_LOOP('',(#276,#286,#294,#300,#301,#302,#310,#318,#326,#334)
  );
#276 = ORIENTED_EDGE('',*,*,#277,.T.);
#277 = EDGE_CURVE('',#278,#280,#282,.T.);
#278 = VERTEX_POINT('',#279);
#279 = CARTESIAN_POINT('',(5.5,43.999999999975,6.));
#280 = VERTEX_POINT('',#281);
#281 = CARTESIAN_POINT('',(11.5,43.999999999975,6.));
#282 = LINE('',#283,#284);
#283 = CARTESIAN_POINT('',(-11.5,43.999999999975,6.));
#284 = VECTOR('',#285,1.);
#285 = DIRECTION('',(1.,-4.4E-16,-1.1E-16));
#286 = ORIENTED_EDGE('',*,*,#287,.T.);
#287 = EDGE_CURVE('',#280,#288,#290,.T.);
#288 = VERTEX_POINT('',#289);
#289 = CARTESIAN_POINT('',(11.5,76.,6.));
#290 = LINE('',#291,#292);
#291 = CARTESIAN_POINT('',(11.5,43.999999999975,6.));
#292 = VECTOR('',#293,1.);
#293 = DIRECTION('',(-8.9E-16,1.,-7.8E-16));
#294 = ORIENTED_EDGE('',*,*,#295,.F.);
#295 = EDGE_CURVE('',#186,#288,#296,.T.);
#296 = LINE('',#297,#298);
#297 = CARTESIAN_POINT('',(-11.5,76.,6.));
#298 = VECTOR('',#299,1.);
#299 = DIRECTION('',(1.,-4.4E-16,-1.1E-16));
#300 = ORIENTED_EDGE('',*,*,#193,.F.);
#301 = ORIENTED_EDGE('',*,*,#40,.T.);
#302 = ORIENTED_EDGE('',*,*,#303,.F.);
#303 = EDGE_CURVE('',#304,#41,#306,.T.);
#304 = VERTEX_POINT('',#305);
#305 = CARTESIAN_POINT('',(-5.5,68.,6.));
#306 = LINE('',#307,#308);
#307 = CARTESIAN_POINT('',(-5.5,68.,6.));
#308 = VECTOR('',#309,1.);
#309 = DIRECTION('',(5.6E-16,-1.,5.6E-16));
#310 = ORIENTED_EDGE('',*,*,#311,.F.);
#311 = EDGE_CURVE('',#312,#304,#314,.T.);
#312 = VERTEX_POINT('',#313);
#313 = CARTESIAN_POINT('',(-4.5,68.,6.));
#314 = LINE('',#315,#316);
#315 = CARTESIAN_POINT('',(-3.5,68.,6.));
#316 = VECTOR('',#317,1.);
#317 = DIRECTION('',(-1.,1.1E-16,-3.3E-16));
#318 = ORIENTED_EDGE('',*,*,#319,.F.);
#319 = EDGE_CURVE('',#320,#312,#322,.T.);
#320 = VERTEX_POINT('',#321);
#321 = CARTESIAN_POINT('',(4.5,68.,6.));
#322 = LINE('',#323,#324);
#323 = CARTESIAN_POINT('',(4.5,68.,6.));
#324 = VECTOR('',#325,1.);
#325 = DIRECTION('',(-1.,1.1E-16,0.));
#326 = ORIENTED_EDGE('',*,*,#327,.T.);
#327 = EDGE_CURVE('',#320,#328,#330,.T.);
#328 = VERTEX_POINT('',#329);
#329 = CARTESIAN_POINT('',(5.5,68.,6.));
#330 = LINE('',#331,#332);
#331 = CARTESIAN_POINT('',(-3.5,68.,6.));
#332 = VECTOR('',#333,1.);
#333 = DIRECTION('',(1.,-1.1E-16,3.3E-16));
#334 = ORIENTED_EDGE('',*,*,#335,.F.);
#335 = EDGE_CURVE('',#278,#328,#336,.T.);
#336 = LINE('',#337,#338);
#337 = CARTESIAN_POINT('',(5.5,43.999999999975,6.));
#338 = VECTOR('',#339,1.);
#339 = DIRECTION('',(-5.6E-16,1.,-5.6E-16));
#340 = PLANE('',#341);
#341 = AXIS2_PLACEMENT_3D('',#342,#343,#344);
#342 = CARTESIAN_POINT('',(-11.5,43.999999999975,6.));
#343 = DIRECTION('',(-7.8E-16,-1.1E-16,1.));
#344 = DIRECTION('',(-6.7E-16,1.,1.1E-16));
#345 = ADVANCED_FACE('',(#346),#364,.F.);
#346 = FACE_BOUND('',#347,.F.);
#347 = EDGE_LOOP('',(#348,#349,#357,#363));
#348 = ORIENTED_EDGE('',*,*,#168,.F.);
#349 = ORIENTED_EDGE('',*,*,#350,.T.);
#350 = EDGE_CURVE('',#160,#351,#353,.T.);
#351 = VERTEX_POINT('',#352);
#352 = CARTESIAN_POINT('',(-4.5,68.,-5.));
#353 = LINE('',#354,#355);
#354 = CARTESIAN_POINT('',(-4.5,44.000002078432,-5.));
#355 = VECTOR('',#356,1.);
#356 = DIRECTION('',(-5.6E-16,1.,-6.7E-16));
#357 = ORIENTED_EDGE('',*,*,#358,.T.);
#358 = EDGE_CURVE('',#351,#130,#359,.T.);
#359 = LINE('',#360,#361);
#360 = CARTESIAN_POINT('',(0.25,68.,-0.25));
#361 = VECTOR('',#362,1.);
#362 = DIRECTION('',(-0.707106781187,1.6E-16,-0.707106781187));
#363 = ORIENTED_EDGE('',*,*,#137,.F.);
#364 = PLANE('',#365);
#365 = AXIS2_PLACEMENT_3D('',#366,#367,#368);
#366 = CARTESIAN_POINT('',(-5.,44.000002078432,-5.5));
#367 = DIRECTION('',(-0.707106781187,1.3E-16,0.707106781187));
#368 = DIRECTION('',(-5.180761184457E-16,1.,-7.019238815543E-16));
#369 = ADVANCED_FACE('',(#370,#415),#426,.F.);
#370 = FACE_BOUND('',#371,.F.);
#371 = EDGE_LOOP('',(#372,#380,#386,#387,#388,#389,#397,#405,#411,#412,
    #413,#414));
#372 = ORIENTED_EDGE('',*,*,#373,.F.);
#373 = EDGE_CURVE('',#374,#351,#376,.T.);
#374 = VERTEX_POINT('',#375);
#375 = CARTESIAN_POINT('',(-4.5,68.,5.));
#376 = LINE('',#377,#378);
#377 = CARTESIAN_POINT('',(-4.5,68.,6.));
#378 = VECTOR('',#379,1.);
#379 = DIRECTION('',(6.7E-16,1.1E-16,-1.));
#380 = ORIENTED_EDGE('',*,*,#381,.T.);
#381 = EDGE_CURVE('',#374,#304,#382,.T.);
#382 = LINE('',#383,#384);
#383 = CARTESIAN_POINT('',(-2.75,68.,3.25));
#384 = VECTOR('',#385,1.);
#385 = DIRECTION('',(-0.707106781187,0.,0.707106781187));
#386 = ORIENTED_EDGE('',*,*,#311,.F.);
#387 = ORIENTED_EDGE('',*,*,#319,.F.);
#388 = ORIENTED_EDGE('',*,*,#327,.T.);
#389 = ORIENTED_EDGE('',*,*,#390,.T.);
#390 = EDGE_CURVE('',#328,#391,#393,.T.);
#391 = VERTEX_POINT('',#392);
#392 = CARTESIAN_POINT('',(4.5,68.,5.));
#393 = LINE('',#394,#395);
#394 = CARTESIAN_POINT('',(5.,68.,5.5));
#395 = VECTOR('',#396,1.);
#396 = DIRECTION('',(-0.707106781187,1.6E-16,-0.707106781187));
#397 = ORIENTED_EDGE('',*,*,#398,.T.);
#398 = EDGE_CURVE('',#391,#399,#401,.T.);
#399 = VERTEX_POINT('',#400);
#400 = CARTESIAN_POINT('',(4.5,68.,-5.));
#401 = LINE('',#402,#403);
#402 = CARTESIAN_POINT('',(4.5,68.,6.));
#403 = VECTOR('',#404,1.);
#404 = DIRECTION('',(6.7E-16,1.1E-16,-1.));
#405 = ORIENTED_EDGE('',*,*,#406,.F.);
#406 = EDGE_CURVE('',#106,#399,#407,.T.);
#407 = LINE('',#408,#409);
#408 = CARTESIAN_POINT('',(2.,68.,-2.5));
#409 = VECTOR('',#410,1.);
#410 = DIRECTION('',(-0.707106781187,0.,0.707106781187));
#411 = ORIENTED_EDGE('',*,*,#113,.F.);
#412 = ORIENTED_EDGE('',*,*,#121,.F.);
#413 = ORIENTED_EDGE('',*,*,#129,.T.);
#414 = ORIENTED_EDGE('',*,*,#358,.F.);
#415 = FACE_BOUND('',#416,.F.);
#416 = EDGE_LOOP('',(#417));
#417 = ORIENTED_EDGE('',*,*,#418,.F.);
#418 = EDGE_CURVE('',#419,#419,#421,.T.);
#419 = VERTEX_POINT('',#420);
#420 = CARTESIAN_POINT('',(2.4E-14,68.,2.6));
#421 = CIRCLE('',#422,2.6);
#422 = AXIS2_PLACEMENT_3D('',#423,#424,#425);
#423 = CARTESIAN_POINT('',(1.51E-14,68.,-5.818E-14));
#424 = DIRECTION('',(2.2E-16,1.,-1.1E-16));
#425 = DIRECTION('',(-3.3E-16,1.1E-16,1.));
#426 = PLANE('',#427);
#427 = AXIS2_PLACEMENT_3D('',#428,#429,#430);
#428 = CARTESIAN_POINT('',(4.5,68.,6.));
#429 = DIRECTION('',(-3.3E-16,1.,-3.3E-16));
#430 = DIRECTION('',(-1.,-3.3E-16,0.));
#431 = ADVANCED_FACE('',(#432,#443),#454,.T.);
#432 = FACE_BOUND('',#433,.T.);
#433 = EDGE_LOOP('',(#434,#435,#441,#442));
#434 = ORIENTED_EDGE('',*,*,#295,.T.);
#435 = ORIENTED_EDGE('',*,*,#436,.T.);
#436 = EDGE_CURVE('',#288,#82,#437,.T.);
#437 = LINE('',#438,#439);
#438 = CARTESIAN_POINT('',(11.5,76.,6.));
#439 = VECTOR('',#440,1.);
#440 = DIRECTION('',(1.E-15,5.6E-16,-1.));
#441 = ORIENTED_EDGE('',*,*,#81,.F.);
#442 = ORIENTED_EDGE('',*,*,#185,.F.);
#443 = FACE_BOUND('',#444,.T.);
#444 = EDGE_LOOP('',(#445));
#445 = ORIENTED_EDGE('',*,*,#446,.F.);
#446 = EDGE_CURVE('',#447,#447,#449,.T.);
#447 = VERTEX_POINT('',#448);
#448 = CARTESIAN_POINT('',(2.4E-14,76.,2.6));
#449 = CIRCLE('',#450,2.6);
#450 = AXIS2_PLACEMENT_3D('',#451,#452,#453);
#451 = CARTESIAN_POINT('',(-2.84217094304E-14,76.,-4.206E-14));
#452 = DIRECTION('',(2.2E-16,1.,1.1E-16));
#453 = DIRECTION('',(-3.3E-16,-1.1E-16,1.));
#454 = PLANE('',#455);
#455 = AXIS2_PLACEMENT_3D('',#456,#457,#458);
#456 = CARTESIAN_POINT('',(-11.5,76.,6.));
#457 = DIRECTION('',(-4.4E-16,1.,-5.6E-16));
#458 = DIRECTION('',(1.E-15,-5.6E-16,-1.));
#459 = ADVANCED_FACE('',(#460,#472,#506),#517,.T.);
#460 = FACE_BOUND('',#461,.T.);
#461 = EDGE_LOOP('',(#462,#469,#470,#471));
#462 = ORIENTED_EDGE('',*,*,#463,.T.);
#463 = EDGE_CURVE('',#280,#90,#464,.T.);
#464 = CIRCLE('',#465,6.);
#465 = AXIS2_PLACEMENT_3D('',#466,#467,#468);
#466 = CARTESIAN_POINT('',(11.5,44.,-4.973799150321E-14));
#467 = DIRECTION('',(1.,8.9E-16,1.E-15));
#468 = DIRECTION('',(-8.9E-16,1.,-7.8E-16));
#469 = ORIENTED_EDGE('',*,*,#89,.F.);
#470 = ORIENTED_EDGE('',*,*,#436,.F.);
#471 = ORIENTED_EDGE('',*,*,#287,.F.);
#472 = FACE_BOUND('',#473,.F.);
#473 = EDGE_LOOP('',(#474,#484,#492,#500));
#474 = ORIENTED_EDGE('',*,*,#475,.T.);
#475 = EDGE_CURVE('',#476,#478,#480,.T.);
#476 = VERTEX_POINT('',#477);
#477 = CARTESIAN_POINT('',(11.5,70.,-4.));
#478 = VERTEX_POINT('',#479);
#479 = CARTESIAN_POINT('',(11.5,74.,-4.));
#480 = LINE('',#481,#482);
#481 = CARTESIAN_POINT('',(11.5,70.,-4.));
#482 = VECTOR('',#483,1.);
#483 = DIRECTION('',(-8.9E-16,1.,-7.8E-16));
#484 = ORIENTED_EDGE('',*,*,#485,.T.);
#485 = EDGE_CURVE('',#478,#486,#488,.T.);
#486 = VERTEX_POINT('',#487);
#487 = CARTESIAN_POINT('',(11.5,74.,4.));
#488 = LINE('',#489,#490);
#489 = CARTESIAN_POINT('',(11.5,74.,-4.));
#490 = VECTOR('',#491,1.);
#491 = DIRECTION('',(-1.E-15,-5.6E-16,1.));
#492 = ORIENTED_EDGE('',*,*,#493,.T.);
#493 = EDGE_CURVE('',#486,#494,#496,.T.);
#494 = VERTEX_POINT('',#495);
#495 = CARTESIAN_POINT('',(11.5,70.,4.));
#496 = LINE('',#497,#498);
#497 = CARTESIAN_POINT('',(11.5,74.,4.));
#498 = VECTOR('',#499,1.);
#499 = DIRECTION('',(8.9E-16,-1.,7.8E-16));
#500 = ORIENTED_EDGE('',*,*,#501,.T.);
#501 = EDGE_CURVE('',#494,#476,#502,.T.);
#502 = LINE('',#503,#504);
#503 = CARTESIAN_POINT('',(11.5,70.,4.));
#504 = VECTOR('',#505,1.);
#505 = DIRECTION('',(1.E-15,5.6E-16,-1.));
#506 = FACE_BOUND('',#507,.F.);
#507 = EDGE_LOOP('',(#508));
#508 = ORIENTED_EDGE('',*,*,#509,.T.);
#509 = EDGE_CURVE('',#510,#510,#512,.T.);
#510 = VERTEX_POINT('',#511);
#511 = CARTESIAN_POINT('',(11.5,46.5,-4.8E-14));
#512 = CIRCLE('',#513,2.5);
#513 = AXIS2_PLACEMENT_3D('',#514,#515,#516);
#514 = CARTESIAN_POINT('',(11.5,44.,-4.973799150321E-14));
#515 = DIRECTION('',(1.,8.9E-16,1.E-15));
#516 = DIRECTION('',(-8.9E-16,1.,-7.8E-16));
#517 = PLANE('',#518);
#518 = AXIS2_PLACEMENT_3D('',#519,#520,#521);
#519 = CARTESIAN_POINT('',(11.5,59.403010213556,1.275489758257E-08));
#520 = DIRECTION('',(1.,-4.4E-16,-3.3E-16));
#521 = DIRECTION('',(3.3E-16,-5.6E-16,1.));
#522 = ADVANCED_FACE('',(#523),#544,.T.);
#523 = FACE_BOUND('',#524,.F.);
#524 = EDGE_LOOP('',(#525,#526,#535,#542,#543));
#525 = ORIENTED_EDGE('',*,*,#97,.F.);
#526 = ORIENTED_EDGE('',*,*,#527,.T.);
#527 = EDGE_CURVE('',#98,#528,#530,.T.);
#528 = VERTEX_POINT('',#529);
#529 = CARTESIAN_POINT('',(5.5,38.,-3.9E-14));
#530 = CIRCLE('',#531,6.);
#531 = AXIS2_PLACEMENT_3D('',#532,#533,#534);
#532 = CARTESIAN_POINT('',(5.5,44.,-3.664E-14));
#533 = DIRECTION('',(-1.,-5.6E-16,-6.7E-16));
#534 = DIRECTION('',(6.699998060129E-16,3.4640538508E-07,-1.));
#535 = ORIENTED_EDGE('',*,*,#536,.T.);
#536 = EDGE_CURVE('',#528,#278,#537,.T.);
#537 = CIRCLE('',#538,6.);
#538 = AXIS2_PLACEMENT_3D('',#539,#540,#541);
#539 = CARTESIAN_POINT('',(5.5,44.,-3.664E-14));
#540 = DIRECTION('',(-1.,-5.6E-16,-6.7E-16));
#541 = DIRECTION('',(5.6E-16,-1.,1.07E-15));
#542 = ORIENTED_EDGE('',*,*,#277,.T.);
#543 = ORIENTED_EDGE('',*,*,#463,.T.);
#544 = CYLINDRICAL_SURFACE('',#545,6.);
#545 = AXIS2_PLACEMENT_3D('',#546,#547,#548);
#546 = CARTESIAN_POINT('',(-11.5,44.,-3.292E-14));
#547 = DIRECTION('',(-1.,2.2E-16,-1.1E-16));
#548 = DIRECTION('',(2.2E-16,1.,-7.8E-16));
#549 = ADVANCED_FACE('',(#550),#568,.F.);
#550 = FACE_BOUND('',#551,.T.);
#551 = EDGE_LOOP('',(#552,#553,#554,#562));
#552 = ORIENTED_EDGE('',*,*,#406,.F.);
#553 = ORIENTED_EDGE('',*,*,#105,.T.);
#554 = ORIENTED_EDGE('',*,*,#555,.T.);
#555 = EDGE_CURVE('',#98,#556,#558,.T.);
#556 = VERTEX_POINT('',#557);
#557 = CARTESIAN_POINT('',(4.5,44.000002078432,-5.));
#558 = LINE('',#559,#560);
#559 = CARTESIAN_POINT('',(5.,44.000002078432,-5.5));
#560 = VECTOR('',#561,1.);
#561 = DIRECTION('',(-0.707106781187,8.E-17,0.707106781187));
#562 = ORIENTED_EDGE('',*,*,#563,.F.);
#563 = EDGE_CURVE('',#399,#556,#564,.T.);
#564 = LINE('',#565,#566);
#565 = CARTESIAN_POINT('',(4.5,68.,-5.));
#566 = VECTOR('',#567,1.);
#567 = DIRECTION('',(5.6E-16,-1.,6.7E-16));
#568 = PLANE('',#569);
#569 = AXIS2_PLACEMENT_3D('',#570,#571,#572);
#570 = CARTESIAN_POINT('',(5.,68.,-5.5));
#571 = DIRECTION('',(0.707106781187,2.8E-16,0.707106781187));
#572 = DIRECTION('',(-1.429898987322E-16,1.,-2.529898987322E-16));
#573 = ADVANCED_FACE('',(#574,#586),#597,.F.);
#574 = FACE_BOUND('',#575,.F.);
#575 = EDGE_LOOP('',(#576,#577,#578,#579,#580));
#576 = ORIENTED_EDGE('',*,*,#373,.T.);
#577 = ORIENTED_EDGE('',*,*,#350,.F.);
#578 = ORIENTED_EDGE('',*,*,#159,.F.);
#579 = ORIENTED_EDGE('',*,*,#260,.F.);
#580 = ORIENTED_EDGE('',*,*,#581,.F.);
#581 = EDGE_CURVE('',#374,#253,#582,.T.);
#582 = LINE('',#583,#584);
#583 = CARTESIAN_POINT('',(-4.5,68.,5.));
#584 = VECTOR('',#585,1.);
#585 = DIRECTION('',(5.6E-16,-1.,5.6E-16));
#586 = FACE_BOUND('',#587,.F.);
#587 = EDGE_LOOP('',(#588));
#588 = ORIENTED_EDGE('',*,*,#589,.F.);
#589 = EDGE_CURVE('',#590,#590,#592,.T.);
#590 = VERTEX_POINT('',#591);
#591 = CARTESIAN_POINT('',(-4.5,46.5,-5.3E-14));
#592 = CIRCLE('',#593,2.5);
#593 = AXIS2_PLACEMENT_3D('',#594,#595,#596);
#594 = CARTESIAN_POINT('',(-4.5,44.,-3.803E-14));
#595 = DIRECTION('',(-1.,-1.1E-16,-7.8E-16));
#596 = DIRECTION('',(-1.1E-16,1.,-8.9E-16));
#597 = PLANE('',#598);
#598 = AXIS2_PLACEMENT_3D('',#599,#600,#601);
#599 = CARTESIAN_POINT('',(-4.5,68.,6.));
#600 = DIRECTION('',(-1.,-1.1E-16,-2.2E-16));
#601 = DIRECTION('',(1.1E-16,-1.,5.6E-16));
#602 = ADVANCED_FACE('',(#603),#619,.T.);
#603 = FACE_BOUND('',#604,.T.);
#604 = EDGE_LOOP('',(#605,#611,#612,#618));
#605 = ORIENTED_EDGE('',*,*,#606,.T.);
#606 = EDGE_CURVE('',#202,#476,#607,.T.);
#607 = LINE('',#608,#609);
#608 = CARTESIAN_POINT('',(-11.5,70.,-4.));
#609 = VECTOR('',#610,1.);
#610 = DIRECTION('',(1.,-4.4E-16,-1.1E-16));
#611 = ORIENTED_EDGE('',*,*,#475,.T.);
#612 = ORIENTED_EDGE('',*,*,#613,.F.);
#613 = EDGE_CURVE('',#204,#478,#614,.T.);
#614 = LINE('',#615,#616);
#615 = CARTESIAN_POINT('',(-11.5,74.,-4.));
#616 = VECTOR('',#617,1.);
#617 = DIRECTION('',(1.,-4.4E-16,-1.1E-16));
#618 = ORIENTED_EDGE('',*,*,#201,.F.);
#619 = PLANE('',#620);
#620 = AXIS2_PLACEMENT_3D('',#621,#622,#623);
#621 = CARTESIAN_POINT('',(-11.5,70.,-4.));
#622 = DIRECTION('',(-7.8E-16,-1.1E-16,1.));
#623 = DIRECTION('',(-6.7E-16,1.,1.1E-16));
#624 = ADVANCED_FACE('',(#625,#636),#647,.T.);
#625 = FACE_BOUND('',#626,.T.);
#626 = EDGE_LOOP('',(#627,#628,#629,#635));
#627 = ORIENTED_EDGE('',*,*,#613,.T.);
#628 = ORIENTED_EDGE('',*,*,#485,.T.);
#629 = ORIENTED_EDGE('',*,*,#630,.F.);
#630 = EDGE_CURVE('',#212,#486,#631,.T.);
#631 = LINE('',#632,#633);
#632 = CARTESIAN_POINT('',(-11.5,74.,4.));
#633 = VECTOR('',#634,1.);
#634 = DIRECTION('',(1.,-4.4E-16,-1.1E-16));
#635 = ORIENTED_EDGE('',*,*,#211,.F.);
#636 = FACE_BOUND('',#637,.T.);
#637 = EDGE_LOOP('',(#638));
#638 = ORIENTED_EDGE('',*,*,#639,.T.);
#639 = EDGE_CURVE('',#640,#640,#642,.T.);
#640 = VERTEX_POINT('',#641);
#641 = CARTESIAN_POINT('',(2.4E-14,74.,2.6));
#642 = CIRCLE('',#643,2.6);
#643 = AXIS2_PLACEMENT_3D('',#644,#645,#646);
#644 = CARTESIAN_POINT('',(1.643E-14,74.,-5.884E-14));
#645 = DIRECTION('',(2.2E-16,1.,-1.1E-16));
#646 = DIRECTION('',(-3.3E-16,1.1E-16,1.));
#647 = PLANE('',#648);
#648 = AXIS2_PLACEMENT_3D('',#649,#650,#651);
#649 = CARTESIAN_POINT('',(-11.5,74.,-4.));
#650 = DIRECTION('',(4.4E-16,-1.,5.6E-16));
#651 = DIRECTION('',(-1.E-15,5.6E-16,1.));
#652 = ADVANCED_FACE('',(#653),#664,.T.);
#653 = FACE_BOUND('',#654,.T.);
#654 = EDGE_LOOP('',(#655,#656,#657,#663));
#655 = ORIENTED_EDGE('',*,*,#630,.T.);
#656 = ORIENTED_EDGE('',*,*,#493,.T.);
#657 = ORIENTED_EDGE('',*,*,#658,.F.);
#658 = EDGE_CURVE('',#220,#494,#659,.T.);
#659 = LINE('',#660,#661);
#660 = CARTESIAN_POINT('',(-11.5,70.,4.));
#661 = VECTOR('',#662,1.);
#662 = DIRECTION('',(1.,-4.4E-16,-1.1E-16));
#663 = ORIENTED_EDGE('',*,*,#219,.F.);
#664 = PLANE('',#665);
#665 = AXIS2_PLACEMENT_3D('',#666,#667,#668);
#666 = CARTESIAN_POINT('',(-11.5,74.,4.));
#667 = DIRECTION('',(7.8E-16,1.1E-16,-1.));
#668 = DIRECTION('',(6.7E-16,-1.,-1.1E-16));
#669 = ADVANCED_FACE('',(#670,#676),#687,.T.);
#670 = FACE_BOUND('',#671,.T.);
#671 = EDGE_LOOP('',(#672,#673,#674,#675));
#672 = ORIENTED_EDGE('',*,*,#658,.T.);
#673 = ORIENTED_EDGE('',*,*,#501,.T.);
#674 = ORIENTED_EDGE('',*,*,#606,.F.);
#675 = ORIENTED_EDGE('',*,*,#227,.F.);
#676 = FACE_BOUND('',#677,.T.);
#677 = EDGE_LOOP('',(#678));
#678 = ORIENTED_EDGE('',*,*,#679,.F.);
#679 = EDGE_CURVE('',#680,#680,#682,.T.);
#680 = VERTEX_POINT('',#681);
#681 = CARTESIAN_POINT('',(2.4E-14,70.,2.6));
#682 = CIRCLE('',#683,2.6);
#683 = AXIS2_PLACEMENT_3D('',#684,#685,#686);
#684 = CARTESIAN_POINT('',(1.554E-14,70.,-5.84E-14));
#685 = DIRECTION('',(2.2E-16,1.,-1.1E-16));
#686 = DIRECTION('',(-3.3E-16,1.1E-16,1.));
#687 = PLANE('',#688);
#688 = AXIS2_PLACEMENT_3D('',#689,#690,#691);
#689 = CARTESIAN_POINT('',(-11.5,70.,4.));
#690 = DIRECTION('',(-4.4E-16,1.,-5.6E-16));
#691 = DIRECTION('',(1.E-15,-5.6E-16,-1.));
#692 = ADVANCED_FACE('',(#693),#704,.F.);
#693 = FACE_BOUND('',#694,.T.);
#694 = EDGE_LOOP('',(#695,#696,#702,#703));
#695 = ORIENTED_EDGE('',*,*,#235,.F.);
#696 = ORIENTED_EDGE('',*,*,#697,.T.);
#697 = EDGE_CURVE('',#236,#590,#698,.T.);
#698 = LINE('',#699,#700);
#699 = CARTESIAN_POINT('',(-11.5,46.5,-3.486E-14));
#700 = VECTOR('',#701,1.);
#701 = DIRECTION('',(1.,-4.4E-16,-1.1E-16));
#702 = ORIENTED_EDGE('',*,*,#589,.F.);
#703 = ORIENTED_EDGE('',*,*,#697,.F.);
#704 = CYLINDRICAL_SURFACE('',#705,2.5);
#705 = AXIS2_PLACEMENT_3D('',#706,#707,#708);
#706 = CARTESIAN_POINT('',(-11.5,44.,-3.292E-14));
#707 = DIRECTION('',(-1.,2.2E-16,-1.1E-16));
#708 = DIRECTION('',(2.2E-16,1.,-7.8E-16));
#709 = ADVANCED_FACE('',(#710),#716,.F.);
#710 = FACE_BOUND('',#711,.F.);
#711 = EDGE_LOOP('',(#712,#713,#714,#715));
#712 = ORIENTED_EDGE('',*,*,#381,.F.);
#713 = ORIENTED_EDGE('',*,*,#581,.T.);
#714 = ORIENTED_EDGE('',*,*,#252,.T.);
#715 = ORIENTED_EDGE('',*,*,#303,.F.);
#716 = PLANE('',#717);
#717 = AXIS2_PLACEMENT_3D('',#718,#719,#720);
#718 = CARTESIAN_POINT('',(-5.,68.,5.5));
#719 = DIRECTION('',(-0.707106781187,-2.2E-16,-0.707106781187));
#720 = DIRECTION('',(1.55563491861E-16,-1.,1.55563491861E-16));
#721 = ADVANCED_FACE('',(#722),#740,.F.);
#722 = FACE_BOUND('',#723,.T.);
#723 = EDGE_LOOP('',(#724,#732,#733,#734));
#724 = ORIENTED_EDGE('',*,*,#725,.F.);
#725 = EDGE_CURVE('',#278,#726,#728,.T.);
#726 = VERTEX_POINT('',#727);
#727 = CARTESIAN_POINT('',(4.5,43.999999999979,5.));
#728 = LINE('',#729,#730);
#729 = CARTESIAN_POINT('',(5.5,43.999999999975,6.));
#730 = VECTOR('',#731,1.);
#731 = DIRECTION('',(-0.707106781187,2.95051E-12,-0.707106781187));
#732 = ORIENTED_EDGE('',*,*,#335,.T.);
#733 = ORIENTED_EDGE('',*,*,#390,.T.);
#734 = ORIENTED_EDGE('',*,*,#735,.F.);
#735 = EDGE_CURVE('',#726,#391,#736,.T.);
#736 = LINE('',#737,#738);
#737 = CARTESIAN_POINT('',(4.5,43.999999999975,5.));
#738 = VECTOR('',#739,1.);
#739 = DIRECTION('',(-5.6E-16,1.,-5.6E-16));
#740 = PLANE('',#741);
#741 = AXIS2_PLACEMENT_3D('',#742,#743,#744);
#742 = CARTESIAN_POINT('',(5.,43.999999999975,5.5));
#743 = DIRECTION('',(0.707106781187,-1.3E-16,-0.707106781187));
#744 = DIRECTION('',(4.630761184457E-16,-1.,6.469238815543E-16));
#745 = ADVANCED_FACE('',(#746,#767),#778,.F.);
#746 = FACE_BOUND('',#747,.F.);
#747 = EDGE_LOOP('',(#748,#749,#750,#759,#766));
#748 = ORIENTED_EDGE('',*,*,#398,.F.);
#749 = ORIENTED_EDGE('',*,*,#735,.F.);
#750 = ORIENTED_EDGE('',*,*,#751,.F.);
#751 = EDGE_CURVE('',#752,#726,#754,.T.);
#752 = VERTEX_POINT('',#753);
#753 = CARTESIAN_POINT('',(4.5,39.,-4.1E-14));
#754 = CIRCLE('',#755,5.);
#755 = AXIS2_PLACEMENT_3D('',#756,#757,#758);
#756 = CARTESIAN_POINT('',(4.5,44.,-3.686E-14));
#757 = DIRECTION('',(-1.,-5.6E-16,-6.7E-16));
#758 = DIRECTION('',(5.6E-16,-1.,1.07E-15));
#759 = ORIENTED_EDGE('',*,*,#760,.F.);
#760 = EDGE_CURVE('',#556,#752,#761,.T.);
#761 = CIRCLE('',#762,5.);
#762 = AXIS2_PLACEMENT_3D('',#763,#764,#765);
#763 = CARTESIAN_POINT('',(4.5,44.,-3.686E-14));
#764 = DIRECTION('',(-1.,-5.6E-16,-6.7E-16));
#765 = DIRECTION('',(6.699998060129E-16,3.4640538508E-07,-1.));
#766 = ORIENTED_EDGE('',*,*,#563,.F.);
#767 = FACE_BOUND('',#768,.F.);
#768 = EDGE_LOOP('',(#769));
#769 = ORIENTED_EDGE('',*,*,#770,.T.);
#770 = EDGE_CURVE('',#771,#771,#773,.T.);
#771 = VERTEX_POINT('',#772);
#772 = CARTESIAN_POINT('',(4.5,46.5,-5.E-14));
#773 = CIRCLE('',#774,2.5);
#774 = AXIS2_PLACEMENT_3D('',#775,#776,#777);
#775 = CARTESIAN_POINT('',(4.5,44.,-3.503E-14));
#776 = DIRECTION('',(-1.,-1.1E-16,-7.8E-16));
#777 = DIRECTION('',(-1.1E-16,1.,-8.9E-16));
#778 = PLANE('',#779);
#779 = AXIS2_PLACEMENT_3D('',#780,#781,#782);
#780 = CARTESIAN_POINT('',(4.5,38.,6.));
#781 = DIRECTION('',(1.,1.1E-16,2.2E-16));
#782 = DIRECTION('',(-1.1E-16,1.,-5.6E-16));
#783 = ADVANCED_FACE('',(#784),#795,.F.);
#784 = FACE_BOUND('',#785,.F.);
#785 = EDGE_LOOP('',(#786,#787,#793,#794));
#786 = ORIENTED_EDGE('',*,*,#679,.F.);
#787 = ORIENTED_EDGE('',*,*,#788,.T.);
#788 = EDGE_CURVE('',#680,#419,#789,.T.);
#789 = LINE('',#790,#791);
#790 = CARTESIAN_POINT('',(1.601E-14,76.,2.6));
#791 = VECTOR('',#792,1.);
#792 = DIRECTION('',(-0.,-1.,3.3E-16));
#793 = ORIENTED_EDGE('',*,*,#418,.T.);
#794 = ORIENTED_EDGE('',*,*,#788,.F.);
#795 = CYLINDRICAL_SURFACE('',#796,2.6);
#796 = AXIS2_PLACEMENT_3D('',#797,#798,#799);
#797 = CARTESIAN_POINT('',(1.688E-14,76.,-5.906E-14));
#798 = DIRECTION('',(2.2E-16,1.,-1.1E-16));
#799 = DIRECTION('',(-3.3E-16,1.1E-16,1.));
#800 = ADVANCED_FACE('',(#801),#812,.F.);
#801 = FACE_BOUND('',#802,.F.);
#802 = EDGE_LOOP('',(#803,#804,#810,#811));
#803 = ORIENTED_EDGE('',*,*,#446,.F.);
#804 = ORIENTED_EDGE('',*,*,#805,.T.);
#805 = EDGE_CURVE('',#447,#640,#806,.T.);
#806 = LINE('',#807,#808);
#807 = CARTESIAN_POINT('',(1.601E-14,76.,2.6));
#808 = VECTOR('',#809,1.);
#809 = DIRECTION('',(-0.,-1.,3.3E-16));
#810 = ORIENTED_EDGE('',*,*,#639,.T.);
#811 = ORIENTED_EDGE('',*,*,#805,.F.);
#812 = CYLINDRICAL_SURFACE('',#813,2.6);
#813 = AXIS2_PLACEMENT_3D('',#814,#815,#816);
#814 = CARTESIAN_POINT('',(1.688E-14,76.,-5.906E-14));
#815 = DIRECTION('',(2.2E-16,1.,-1.1E-16));
#816 = DIRECTION('',(-3.3E-16,1.1E-16,1.));
#817 = ADVANCED_FACE('',(#818),#829,.F.);
#818 = FACE_BOUND('',#819,.T.);
#819 = EDGE_LOOP('',(#820,#821,#827,#828));
#820 = ORIENTED_EDGE('',*,*,#770,.T.);
#821 = ORIENTED_EDGE('',*,*,#822,.T.);
#822 = EDGE_CURVE('',#771,#510,#823,.T.);
#823 = LINE('',#824,#825);
#824 = CARTESIAN_POINT('',(-11.5,46.5,-3.486E-14));
#825 = VECTOR('',#826,1.);
#826 = DIRECTION('',(1.,-4.4E-16,-1.1E-16));
#827 = ORIENTED_EDGE('',*,*,#509,.T.);
#828 = ORIENTED_EDGE('',*,*,#822,.F.);
#829 = CYLINDRICAL_SURFACE('',#830,2.5);
#830 = AXIS2_PLACEMENT_3D('',#831,#832,#833);
#831 = CARTESIAN_POINT('',(-11.5,44.,-3.292E-14));
#832 = DIRECTION('',(-1.,2.2E-16,-1.1E-16));
#833 = DIRECTION('',(2.2E-16,1.,-7.8E-16));
#834 = ADVANCED_FACE('',(#835),#846,.T.);
#835 = FACE_BOUND('',#836,.T.);
#836 = EDGE_LOOP('',(#837,#838,#839,#845));
#837 = ORIENTED_EDGE('',*,*,#555,.F.);
#838 = ORIENTED_EDGE('',*,*,#527,.T.);
#839 = ORIENTED_EDGE('',*,*,#840,.T.);
#840 = EDGE_CURVE('',#528,#752,#841,.T.);
#841 = LINE('',#842,#843);
#842 = CARTESIAN_POINT('',(5.5,38.,-3.19E-14));
#843 = VECTOR('',#844,1.);
#844 = DIRECTION('',(-0.707106781187,0.707106781187,-7.2E-16));
#845 = ORIENTED_EDGE('',*,*,#760,.F.);
#846 = CONICAL_SURFACE('',#847,6.,0.785398163397);
#847 = AXIS2_PLACEMENT_3D('',#848,#849,#850);
#848 = CARTESIAN_POINT('',(5.5,44.,-3.664E-14));
#849 = DIRECTION('',(1.,1.1E-16,2.2E-16));
#850 = DIRECTION('',(2.199999618954E-16,3.4640538508E-07,-1.));
#851 = ADVANCED_FACE('',(#852),#858,.T.);
#852 = FACE_BOUND('',#853,.T.);
#853 = EDGE_LOOP('',(#854,#855,#856,#857));
#854 = ORIENTED_EDGE('',*,*,#840,.F.);
#855 = ORIENTED_EDGE('',*,*,#536,.T.);
#856 = ORIENTED_EDGE('',*,*,#725,.T.);
#857 = ORIENTED_EDGE('',*,*,#751,.F.);
#858 = CONICAL_SURFACE('',#859,6.,0.785398163397);
#859 = AXIS2_PLACEMENT_3D('',#860,#861,#862);
#860 = CARTESIAN_POINT('',(5.5,44.,-3.664E-14));
#861 = DIRECTION('',(1.,1.1E-16,2.2E-16));
#862 = DIRECTION('',(1.1E-16,-1.,1.07E-15));
#863 = ( GEOMETRIC_REPRESENTATION_CONTEXT(3) 
GLOBAL_UNCERTAINTY_ASSIGNED_CONTEXT((#867)) GLOBAL_UNIT_ASSIGNED_CONTEXT
((#864,#865,#866)) REPRESENTATION_CONTEXT('Context #1',
  '3D Context with UNIT and UNCERTAINTY') );
#864 = ( LENGTH_UNIT() NAMED_UNIT(*) SI_UNIT(.MILLI.,.METRE.) );
#865 = ( NAMED_UNIT(*) PLANE_ANGLE_UNIT() SI_UNIT($,.RADIAN.) );
#866 = ( NAMED_UNIT(*) SI_UNIT($,.STERADIAN.) SOLID_ANGLE_UNIT() );
#867 = UNCERTAINTY_MEASURE_WITH_UNIT(LENGTH_MEASURE(2.E-05),#864,
  'distance_accuracy_value','confusion accuracy');
#868 = PRODUCT_RELATED_PRODUCT_CATEGORY('part',$,(#7));
#869 = MECHANICAL_DESIGN_GEOMETRIC_PRESENTATION_REPRESENTATION('',(#870)
  ,#863);
#870 = STYLED_ITEM('color',(#871),#15);
#871 = PRESENTATION_STYLE_ASSIGNMENT((#872,#878));
#872 = SURFACE_STYLE_USAGE(.BOTH.,#873);
#873 = SURFACE_SIDE_STYLE('',(#874));
#874 = SURFACE_STYLE_FILL_AREA(#875);
#875 = FILL_AREA_STYLE('',(#876));
#876 = FILL_AREA_STYLE_COLOUR('',#877);
#877 = COLOUR_RGB('',0.447058818107,0.474509808674,0.501960817233);
#878 = CURVE_STYLE('',#879,POSITIVE_LENGTH_MEASURE(0.1),#880);
#879 = DRAUGHTING_PRE_DEFINED_CURVE_FONT('continuous');
#880 = COLOUR_RGB('',9.803921802644E-02,9.803921802644E-02,
  9.803921802644E-02);
ENDSEC;
END-ISO-10303-21;
