ISO-10303-21;
HEADER;
FILE_DESCRIPTION(('FreeCAD Model'),'2;1');
FILE_NAME('Open CASCADE Shape Model','2025-11-04T09:15:09',(''),(''),
  'Open CASCADE STEP processor 7.9','FreeCAD','Unknown');
FILE_SCHEMA(('AUTOMOTIVE_DESIGN { 1 0 10303 214 1 1 1 1 }'));
ENDSEC;
DATA;
#1 = APPLICATION_PROTOCOL_DEFINITION('international standard',
  'automotive_design',2000,#2);
#2 = APPLICATION_CONTEXT(
  'core data for automotive mechanical design processes');
#3 = SHAPE_DEFINITION_REPRESENTATION(#4,#10);
#4 = PRODUCT_DEFINITION_SHAPE('','',#5);
#5 = PRODUCT_DEFINITION('design','',#6,#9);
#6 = PRODUCT_DEFINITION_FORMATION('','',#7);
#7 = PRODUCT('TensionerA','TensionerA','',(#8));
#8 = PRODUCT_CONTEXT('',#2,'mechanical');
#9 = PRODUCT_DEFINITION_CONTEXT('part definition',#2,'design');
#10 = ADVANCED_BREP_SHAPE_REPRESENTATION('',(#11,#15),#1774);
#11 = AXIS2_PLACEMENT_3D('',#12,#13,#14);
#12 = CARTESIAN_POINT('',(0.,0.,0.));
#13 = DIRECTION('',(0.,0.,1.));
#14 = DIRECTION('',(1.,0.,-0.));
#15 = MANIFOLD_SOLID_BREP('',#16);
#16 = CLOSED_SHELL('',(#17,#180,#211,#236,#268,#443,#485,#525,#550,#606,
    #623,#648,#673,#698,#738,#814,#937,#1107,#1131,#1173,#1190,#1214,
    #1256,#1273,#1297,#1344,#1361,#1378,#1395,#1412,#1429,#1463,#1489,
    #1506,#1523,#1535,#1556,#1573,#1594,#1611,#1628,#1652,#1676,#1693,
    #1718,#1743,#1755));
#17 = ADVANCED_FACE('',(#18,#142,#153,#164),#175,.T.);
#18 = FACE_BOUND('',#19,.T.);
#19 = EDGE_LOOP('',(#20,#30,#39,#48,#56,#65,#73,#81,#90,#99,#108,#117,
    #126,#135));
#20 = ORIENTED_EDGE('',*,*,#21,.F.);
#21 = EDGE_CURVE('',#22,#24,#26,.T.);
#22 = VERTEX_POINT('',#23);
#23 = CARTESIAN_POINT('',(-8.,34.55,-17.0000006136));
#24 = VERTEX_POINT('',#25);
#25 = CARTESIAN_POINT('',(-8.,35.99516671211,-14.04973672299));
#26 = LINE('',#27,#28);
#27 = CARTESIAN_POINT('',(-8.,34.55,-17.));
#28 = VECTOR('',#29,1.);
#29 = DIRECTION('',(2.E-16,0.439901769583,0.898045897));
#30 = ORIENTED_EDGE('',*,*,#31,.T.);
#31 = EDGE_CURVE('',#22,#32,#34,.T.);
#32 = VERTEX_POINT('',#33);
#33 = CARTESIAN_POINT('',(-8.,28.5,-10.95));
#34 = CIRCLE('',#35,6.05);
#35 = AXIS2_PLACEMENT_3D('',#36,#37,#38);
#36 = CARTESIAN_POINT('',(-8.,28.5,-17.));
#37 = DIRECTION('',(1.,0.,-4.4E-16));
#38 = DIRECTION('',(4.4E-16,0.,1.));
#39 = ORIENTED_EDGE('',*,*,#40,.F.);
#40 = EDGE_CURVE('',#41,#32,#43,.T.);
#41 = VERTEX_POINT('',#42);
#42 = CARTESIAN_POINT('',(-8.,20.05,-2.5));
#43 = CIRCLE('',#44,8.45);
#44 = AXIS2_PLACEMENT_3D('',#45,#46,#47);
#45 = CARTESIAN_POINT('',(-8.,28.5,-2.5));
#46 = DIRECTION('',(1.,0.,-4.4E-16));
#47 = DIRECTION('',(4.4E-16,0.,1.));
#48 = ORIENTED_EDGE('',*,*,#49,.F.);
#49 = EDGE_CURVE('',#50,#41,#52,.T.);
#50 = VERTEX_POINT('',#51);
#51 = CARTESIAN_POINT('',(-8.,20.05,19.));
#52 = LINE('',#53,#54);
#53 = CARTESIAN_POINT('',(-8.,20.05,27.45));
#54 = VECTOR('',#55,1.);
#55 = DIRECTION('',(-1.1E-16,-0.,-1.));
#56 = ORIENTED_EDGE('',*,*,#57,.F.);
#57 = EDGE_CURVE('',#58,#50,#60,.T.);
#58 = VERTEX_POINT('',#59);
#59 = CARTESIAN_POINT('',(-8.,28.5,27.45));
#60 = CIRCLE('',#61,8.45);
#61 = AXIS2_PLACEMENT_3D('',#62,#63,#64);
#62 = CARTESIAN_POINT('',(-8.,28.5,19.));
#63 = DIRECTION('',(1.,0.,-4.4E-16));
#64 = DIRECTION('',(4.4E-16,0.,1.));
#65 = ORIENTED_EDGE('',*,*,#66,.T.);
#66 = EDGE_CURVE('',#58,#67,#69,.T.);
#67 = VERTEX_POINT('',#68);
#68 = CARTESIAN_POINT('',(-8.,38.,27.45));
#69 = LINE('',#70,#71);
#70 = CARTESIAN_POINT('',(-8.,20.05,27.45));
#71 = VECTOR('',#72,1.);
#72 = DIRECTION('',(0.,1.,0.));
#73 = ORIENTED_EDGE('',*,*,#74,.T.);
#74 = EDGE_CURVE('',#67,#75,#77,.T.);
#75 = VERTEX_POINT('',#76);
#76 = CARTESIAN_POINT('',(-8.,47.745747419894,11.004992457055));
#77 = LINE('',#78,#79);
#78 = CARTESIAN_POINT('',(-8.,38.,27.45));
#79 = VECTOR('',#80,1.);
#80 = DIRECTION('',(-4.8E-16,0.509823984858,-0.860278736494));
#81 = ORIENTED_EDGE('',*,*,#82,.T.);
#82 = EDGE_CURVE('',#75,#83,#85,.T.);
#83 = VERTEX_POINT('',#84);
#84 = CARTESIAN_POINT('',(-8.,44.,11.624993880148));
#85 = CIRCLE('',#86,11.624993880148);
#86 = AXIS2_PLACEMENT_3D('',#87,#88,#89);
#87 = CARTESIAN_POINT('',(-8.,44.,7.373E-14));
#88 = DIRECTION('',(1.,0.,-2.2E-16));
#89 = DIRECTION('',(2.2E-16,0.,1.));
#90 = ORIENTED_EDGE('',*,*,#91,.T.);
#91 = EDGE_CURVE('',#83,#92,#94,.T.);
#92 = VERTEX_POINT('',#93);
#93 = CARTESIAN_POINT('',(-8.,41.702173153984,11.39563401041));
#94 = CIRCLE('',#95,11.624993880148);
#95 = AXIS2_PLACEMENT_3D('',#96,#97,#98);
#96 = CARTESIAN_POINT('',(-8.,44.,7.373E-14));
#97 = DIRECTION('',(1.,0.,-2.2E-16));
#98 = DIRECTION('',(2.2E-16,0.,1.));
#99 = ORIENTED_EDGE('',*,*,#100,.T.);
#100 = EDGE_CURVE('',#92,#101,#103,.T.);
#101 = VERTEX_POINT('',#102);
#102 = CARTESIAN_POINT('',(-8.,38.,9.956931390418));
#103 = CIRCLE('',#104,11.624993880148);
#104 = AXIS2_PLACEMENT_3D('',#105,#106,#107);
#105 = CARTESIAN_POINT('',(-8.,44.,7.373E-14));
#106 = DIRECTION('',(1.,0.,-2.2E-16));
#107 = DIRECTION('',(2.2E-16,0.,1.));
#108 = ORIENTED_EDGE('',*,*,#109,.T.);
#109 = EDGE_CURVE('',#101,#110,#112,.T.);
#110 = VERTEX_POINT('',#111);
#111 = CARTESIAN_POINT('',(-8.,35.607924,8.04447283069));
#112 = CIRCLE('',#113,11.624993880148);
#113 = AXIS2_PLACEMENT_3D('',#114,#115,#116);
#114 = CARTESIAN_POINT('',(-8.,44.,8.15E-14));
#115 = DIRECTION('',(1.,0.,-4.4E-16));
#116 = DIRECTION('',(4.4E-16,0.,1.));
#117 = ORIENTED_EDGE('',*,*,#118,.T.);
#118 = EDGE_CURVE('',#110,#119,#121,.T.);
#119 = VERTEX_POINT('',#120);
#120 = CARTESIAN_POINT('',(-8.,38.,-9.956931390418));
#121 = CIRCLE('',#122,11.624993880148);
#122 = AXIS2_PLACEMENT_3D('',#123,#124,#125);
#123 = CARTESIAN_POINT('',(-8.,44.,8.15E-14));
#124 = DIRECTION('',(1.,0.,-4.4E-16));
#125 = DIRECTION('',(4.4E-16,0.,1.));
#126 = ORIENTED_EDGE('',*,*,#127,.T.);
#127 = EDGE_CURVE('',#119,#128,#130,.T.);
#128 = VERTEX_POINT('',#129);
#129 = CARTESIAN_POINT('',(-8.,41.542420286328,-11.3622526228));
#130 = CIRCLE('',#131,11.624993880148);
#131 = AXIS2_PLACEMENT_3D('',#132,#133,#134);
#132 = CARTESIAN_POINT('',(-8.,44.,7.728E-14));
#133 = DIRECTION('',(1.,0.,-6.7E-16));
#134 = DIRECTION('',(6.7E-16,0.,1.));
#135 = ORIENTED_EDGE('',*,*,#136,.T.);
#136 = EDGE_CURVE('',#128,#24,#137,.T.);
#137 = CIRCLE('',#138,5.);
#138 = AXIS2_PLACEMENT_3D('',#139,#140,#141);
#139 = CARTESIAN_POINT('',(-8.,40.485396197108,-16.2492455709));
#140 = DIRECTION('',(1.,0.,-6.7E-16));
#141 = DIRECTION('',(6.7E-16,0.,1.));
#142 = FACE_BOUND('',#143,.T.);
#143 = EDGE_LOOP('',(#144));
#144 = ORIENTED_EDGE('',*,*,#145,.T.);
#145 = EDGE_CURVE('',#146,#146,#148,.T.);
#146 = VERTEX_POINT('',#147);
#147 = CARTESIAN_POINT('',(-8.,28.5,20.49999995374));
#148 = CIRCLE('',#149,1.49999995374);
#149 = AXIS2_PLACEMENT_3D('',#150,#151,#152);
#150 = CARTESIAN_POINT('',(-8.,28.5,19.));
#151 = DIRECTION('',(1.,0.,-4.4E-16));
#152 = DIRECTION('',(4.4E-16,0.,1.));
#153 = FACE_BOUND('',#154,.T.);
#154 = EDGE_LOOP('',(#155));
#155 = ORIENTED_EDGE('',*,*,#156,.F.);
#156 = EDGE_CURVE('',#157,#157,#159,.T.);
#157 = VERTEX_POINT('',#158);
#158 = CARTESIAN_POINT('',(-8.,24.,9.75));
#159 = CIRCLE('',#160,2.75);
#160 = AXIS2_PLACEMENT_3D('',#161,#162,#163);
#161 = CARTESIAN_POINT('',(-8.,24.,7.));
#162 = DIRECTION('',(-1.,0.,3.3E-16));
#163 = DIRECTION('',(3.3E-16,0.,1.));
#164 = FACE_BOUND('',#165,.T.);
#165 = EDGE_LOOP('',(#166));
#166 = ORIENTED_EDGE('',*,*,#167,.T.);
#167 = EDGE_CURVE('',#168,#168,#170,.T.);
#168 = VERTEX_POINT('',#169);
#169 = CARTESIAN_POINT('',(-8.,28.5,-0.999999989518));
#170 = CIRCLE('',#171,1.500000010482);
#171 = AXIS2_PLACEMENT_3D('',#172,#173,#174);
#172 = CARTESIAN_POINT('',(-8.,28.5,-2.5));
#173 = DIRECTION('',(1.,0.,-4.4E-16));
#174 = DIRECTION('',(4.4E-16,0.,1.));
#175 = PLANE('',#176);
#176 = AXIS2_PLACEMENT_3D('',#177,#178,#179);
#177 = CARTESIAN_POINT('',(-8.,32.163724944006,4.171805407339));
#178 = DIRECTION('',(-1.,3.3E-16,2.2E-16));
#179 = DIRECTION('',(3.3E-16,1.,0.));
#180 = ADVANCED_FACE('',(#181),#206,.F.);
#181 = FACE_BOUND('',#182,.F.);
#182 = EDGE_LOOP('',(#183,#184,#192,#200));
#183 = ORIENTED_EDGE('',*,*,#21,.F.);
#184 = ORIENTED_EDGE('',*,*,#185,.T.);
#185 = EDGE_CURVE('',#22,#186,#188,.T.);
#186 = VERTEX_POINT('',#187);
#187 = CARTESIAN_POINT('',(-19.,34.55,-17.0000005636));
#188 = LINE('',#189,#190);
#189 = CARTESIAN_POINT('',(-8.,34.55,-17.));
#190 = VECTOR('',#191,1.);
#191 = DIRECTION('',(-1.,0.,3.3E-16));
#192 = ORIENTED_EDGE('',*,*,#193,.F.);
#193 = EDGE_CURVE('',#194,#186,#196,.T.);
#194 = VERTEX_POINT('',#195);
#195 = CARTESIAN_POINT('',(-19.,35.99516671211,-14.04973672299));
#196 = LINE('',#197,#198);
#197 = CARTESIAN_POINT('',(-19.,38.501093516481,-8.933964429146));
#198 = VECTOR('',#199,1.);
#199 = DIRECTION('',(-4.E-16,-0.439901769583,-0.898045897));
#200 = ORIENTED_EDGE('',*,*,#201,.T.);
#201 = EDGE_CURVE('',#194,#24,#202,.T.);
#202 = LINE('',#203,#204);
#203 = CARTESIAN_POINT('',(-19.,35.99516671211,-14.04973672299));
#204 = VECTOR('',#205,1.);
#205 = DIRECTION('',(1.,0.,-6.7E-16));
#206 = PLANE('',#207);
#207 = AXIS2_PLACEMENT_3D('',#208,#209,#210);
#208 = CARTESIAN_POINT('',(-8.,34.55,-17.));
#209 = DIRECTION('',(-1.5E-16,0.898045897,-0.439901769583));
#210 = DIRECTION('',(3.E-16,0.439901769583,0.898045897));
#211 = ADVANCED_FACE('',(#212),#231,.T.);
#212 = FACE_BOUND('',#213,.T.);
#213 = EDGE_LOOP('',(#214,#223,#224,#225));
#214 = ORIENTED_EDGE('',*,*,#215,.T.);
#215 = EDGE_CURVE('',#216,#194,#218,.T.);
#216 = VERTEX_POINT('',#217);
#217 = CARTESIAN_POINT('',(-19.,41.542420286328,-11.3622526228));
#218 = CIRCLE('',#219,5.);
#219 = AXIS2_PLACEMENT_3D('',#220,#221,#222);
#220 = CARTESIAN_POINT('',(-19.,40.485396197108,-16.2492455709));
#221 = DIRECTION('',(1.,0.,-6.7E-16));
#222 = DIRECTION('',(6.7E-16,0.,1.));
#223 = ORIENTED_EDGE('',*,*,#201,.T.);
#224 = ORIENTED_EDGE('',*,*,#136,.F.);
#225 = ORIENTED_EDGE('',*,*,#226,.F.);
#226 = EDGE_CURVE('',#216,#128,#227,.T.);
#227 = LINE('',#228,#229);
#228 = CARTESIAN_POINT('',(-19.,41.542420286328,-11.3622526228));
#229 = VECTOR('',#230,1.);
#230 = DIRECTION('',(1.,0.,-6.7E-16));
#231 = CYLINDRICAL_SURFACE('',#232,5.);
#232 = AXIS2_PLACEMENT_3D('',#233,#234,#235);
#233 = CARTESIAN_POINT('',(-19.,40.485396197108,-16.2492455709));
#234 = DIRECTION('',(1.,0.,-6.7E-16));
#235 = DIRECTION('',(6.548570550458E-16,0.211404817844,0.977398589621));
#236 = ADVANCED_FACE('',(#237),#263,.F.);
#237 = FACE_BOUND('',#238,.T.);
#238 = EDGE_LOOP('',(#239,#250,#256,#257));
#239 = ORIENTED_EDGE('',*,*,#240,.F.);
#240 = EDGE_CURVE('',#241,#243,#245,.T.);
#241 = VERTEX_POINT('',#242);
#242 = CARTESIAN_POINT('',(-2.,28.5,-10.95));
#243 = VERTEX_POINT('',#244);
#244 = CARTESIAN_POINT('',(-2.,34.55,-17.0000006136));
#245 = CIRCLE('',#246,6.05);
#246 = AXIS2_PLACEMENT_3D('',#247,#248,#249);
#247 = CARTESIAN_POINT('',(-2.,28.5,-17.));
#248 = DIRECTION('',(-1.,0.,2.2E-16));
#249 = DIRECTION('',(2.2E-16,0.,1.));
#250 = ORIENTED_EDGE('',*,*,#251,.T.);
#251 = EDGE_CURVE('',#241,#32,#252,.T.);
#252 = LINE('',#253,#254);
#253 = CARTESIAN_POINT('',(-2.,28.5,-10.95));
#254 = VECTOR('',#255,1.);
#255 = DIRECTION('',(-1.,0.,3.3E-16));
#256 = ORIENTED_EDGE('',*,*,#31,.F.);
#257 = ORIENTED_EDGE('',*,*,#258,.F.);
#258 = EDGE_CURVE('',#243,#22,#259,.T.);
#259 = LINE('',#260,#261);
#260 = CARTESIAN_POINT('',(-2.,34.55,-17.0000006136));
#261 = VECTOR('',#262,1.);
#262 = DIRECTION('',(-1.,0.,3.3E-16));
#263 = CYLINDRICAL_SURFACE('',#264,6.05);
#264 = AXIS2_PLACEMENT_3D('',#265,#266,#267);
#265 = CARTESIAN_POINT('',(-2.,28.5,-17.));
#266 = DIRECTION('',(1.,0.,-3.3E-16));
#267 = DIRECTION('',(3.3E-16,0.,1.));
#268 = ADVANCED_FACE('',(#269),#438,.F.);
#269 = FACE_BOUND('',#270,.T.);
#270 = EDGE_LOOP('',(#271,#282,#289,#290,#291,#292,#293,#294,#295,#303,
    #312,#320,#329,#337,#344,#345,#346,#354,#363,#371,#380,#388,#397,
    #405,#412,#413,#422,#431));
#271 = ORIENTED_EDGE('',*,*,#272,.T.);
#272 = EDGE_CURVE('',#273,#275,#277,.T.);
#273 = VERTEX_POINT('',#274);
#274 = CARTESIAN_POINT('',(-19.,35.607924,8.04447283069));
#275 = VERTEX_POINT('',#276);
#276 = CARTESIAN_POINT('',(-19.,38.,-9.956931390418));
#277 = CIRCLE('',#278,11.624993880148);
#278 = AXIS2_PLACEMENT_3D('',#279,#280,#281);
#279 = CARTESIAN_POINT('',(-19.,44.,8.639E-14));
#280 = DIRECTION('',(1.,0.,-4.4E-16));
#281 = DIRECTION('',(4.4E-16,0.,1.));
#282 = ORIENTED_EDGE('',*,*,#283,.T.);
#283 = EDGE_CURVE('',#275,#216,#284,.T.);
#284 = CIRCLE('',#285,11.624993880148);
#285 = AXIS2_PLACEMENT_3D('',#286,#287,#288);
#286 = CARTESIAN_POINT('',(-19.,44.,8.459E-14));
#287 = DIRECTION('',(1.,0.,-6.7E-16));
#288 = DIRECTION('',(6.7E-16,0.,1.));
#289 = ORIENTED_EDGE('',*,*,#226,.T.);
#290 = ORIENTED_EDGE('',*,*,#127,.F.);
#291 = ORIENTED_EDGE('',*,*,#118,.F.);
#292 = ORIENTED_EDGE('',*,*,#109,.F.);
#293 = ORIENTED_EDGE('',*,*,#100,.F.);
#294 = ORIENTED_EDGE('',*,*,#91,.F.);
#295 = ORIENTED_EDGE('',*,*,#296,.F.);
#296 = EDGE_CURVE('',#297,#83,#299,.T.);
#297 = VERTEX_POINT('',#298);
#298 = CARTESIAN_POINT('',(-2.,44.,11.624993880148));
#299 = LINE('',#300,#301);
#300 = CARTESIAN_POINT('',(-2.,44.,11.624993880148));
#301 = VECTOR('',#302,1.);
#302 = DIRECTION('',(-1.,0.,3.3E-16));
#303 = ORIENTED_EDGE('',*,*,#304,.F.);
#304 = EDGE_CURVE('',#305,#297,#307,.T.);
#305 = VERTEX_POINT('',#306);
#306 = CARTESIAN_POINT('',(-2.,53.880529222338,-6.125));
#307 = CIRCLE('',#308,11.624993880148);
#308 = AXIS2_PLACEMENT_3D('',#309,#310,#311);
#309 = CARTESIAN_POINT('',(-2.,44.,7.815970093361E-14));
#310 = DIRECTION('',(-1.,0.,2.2E-16));
#311 = DIRECTION('',(2.2E-16,0.,1.));
#312 = ORIENTED_EDGE('',*,*,#313,.F.);
#313 = EDGE_CURVE('',#314,#305,#316,.T.);
#314 = VERTEX_POINT('',#315);
#315 = CARTESIAN_POINT('',(-9.125,53.880529222339,-6.125));
#316 = LINE('',#317,#318);
#317 = CARTESIAN_POINT('',(-2.,53.880529222339,-6.125));
#318 = VECTOR('',#319,1.);
#319 = DIRECTION('',(1.,0.,-7.8E-16));
#320 = ORIENTED_EDGE('',*,*,#321,.T.);
#321 = EDGE_CURVE('',#314,#322,#324,.T.);
#322 = VERTEX_POINT('',#323);
#323 = CARTESIAN_POINT('',(-9.125,53.880529222339,6.125));
#324 = CIRCLE('',#325,11.624993880148);
#325 = AXIS2_PLACEMENT_3D('',#326,#327,#328);
#326 = CARTESIAN_POINT('',(-9.125,44.,7.904E-14));
#327 = DIRECTION('',(1.,0.,-7.8E-16));
#328 = DIRECTION('',(7.8E-16,0.,1.));
#329 = ORIENTED_EDGE('',*,*,#330,.T.);
#330 = EDGE_CURVE('',#322,#331,#333,.T.);
#331 = VERTEX_POINT('',#332);
#332 = CARTESIAN_POINT('',(-2.,53.880529222338,6.125));
#333 = LINE('',#334,#335);
#334 = CARTESIAN_POINT('',(-2.,53.880529222339,6.125));
#335 = VECTOR('',#336,1.);
#336 = DIRECTION('',(1.,0.,-7.8E-16));
#337 = ORIENTED_EDGE('',*,*,#338,.F.);
#338 = EDGE_CURVE('',#297,#331,#339,.T.);
#339 = CIRCLE('',#340,11.624993880148);
#340 = AXIS2_PLACEMENT_3D('',#341,#342,#343);
#341 = CARTESIAN_POINT('',(-2.,44.,7.815970093361E-14));
#342 = DIRECTION('',(-1.,0.,2.2E-16));
#343 = DIRECTION('',(2.2E-16,0.,1.));
#344 = ORIENTED_EDGE('',*,*,#296,.T.);
#345 = ORIENTED_EDGE('',*,*,#82,.F.);
#346 = ORIENTED_EDGE('',*,*,#347,.T.);
#347 = EDGE_CURVE('',#75,#348,#350,.T.);
#348 = VERTEX_POINT('',#349);
#349 = CARTESIAN_POINT('',(-19.,47.745747419894,11.004992457055));
#350 = LINE('',#351,#352);
#351 = CARTESIAN_POINT('',(-8.,47.745747419894,11.004992457055));
#352 = VECTOR('',#353,1.);
#353 = DIRECTION('',(-1.,0.,3.3E-16));
#354 = ORIENTED_EDGE('',*,*,#355,.T.);
#355 = EDGE_CURVE('',#348,#356,#358,.T.);
#356 = VERTEX_POINT('',#357);
#357 = CARTESIAN_POINT('',(-19.,44.,11.624993880148));
#358 = CIRCLE('',#359,11.624993880148);
#359 = AXIS2_PLACEMENT_3D('',#360,#361,#362);
#360 = CARTESIAN_POINT('',(-19.,44.,7.616E-14));
#361 = DIRECTION('',(1.,0.,-2.2E-16));
#362 = DIRECTION('',(2.2E-16,0.,1.));
#363 = ORIENTED_EDGE('',*,*,#364,.T.);
#364 = EDGE_CURVE('',#356,#365,#367,.T.);
#365 = VERTEX_POINT('',#366);
#366 = CARTESIAN_POINT('',(-25.,44.,11.624993880148));
#367 = LINE('',#368,#369);
#368 = CARTESIAN_POINT('',(-2.,44.,11.624993880148));
#369 = VECTOR('',#370,1.);
#370 = DIRECTION('',(-1.,0.,3.3E-16));
#371 = ORIENTED_EDGE('',*,*,#372,.T.);
#372 = EDGE_CURVE('',#365,#373,#375,.T.);
#373 = VERTEX_POINT('',#374);
#374 = CARTESIAN_POINT('',(-25.,53.880529222338,6.125));
#375 = CIRCLE('',#376,11.624993880148);
#376 = AXIS2_PLACEMENT_3D('',#377,#378,#379);
#377 = CARTESIAN_POINT('',(-25.,44.,8.526512829121E-14));
#378 = DIRECTION('',(-1.,0.,2.2E-16));
#379 = DIRECTION('',(2.2E-16,0.,1.));
#380 = ORIENTED_EDGE('',*,*,#381,.T.);
#381 = EDGE_CURVE('',#373,#382,#384,.T.);
#382 = VERTEX_POINT('',#383);
#383 = CARTESIAN_POINT('',(-17.875,53.880529222339,6.125));
#384 = LINE('',#385,#386);
#385 = CARTESIAN_POINT('',(-2.,53.880529222339,6.125));
#386 = VECTOR('',#387,1.);
#387 = DIRECTION('',(1.,0.,-7.8E-16));
#388 = ORIENTED_EDGE('',*,*,#389,.F.);
#389 = EDGE_CURVE('',#390,#382,#392,.T.);
#390 = VERTEX_POINT('',#391);
#391 = CARTESIAN_POINT('',(-17.875,53.880529222339,-6.125));
#392 = CIRCLE('',#393,11.624993880148);
#393 = AXIS2_PLACEMENT_3D('',#394,#395,#396);
#394 = CARTESIAN_POINT('',(-17.875,44.,8.583E-14));
#395 = DIRECTION('',(1.,0.,-7.8E-16));
#396 = DIRECTION('',(7.8E-16,0.,1.));
#397 = ORIENTED_EDGE('',*,*,#398,.F.);
#398 = EDGE_CURVE('',#399,#390,#401,.T.);
#399 = VERTEX_POINT('',#400);
#400 = CARTESIAN_POINT('',(-25.,53.880529222338,-6.125));
#401 = LINE('',#402,#403);
#402 = CARTESIAN_POINT('',(-2.,53.880529222339,-6.125));
#403 = VECTOR('',#404,1.);
#404 = DIRECTION('',(1.,0.,-7.8E-16));
#405 = ORIENTED_EDGE('',*,*,#406,.T.);
#406 = EDGE_CURVE('',#399,#365,#407,.T.);
#407 = CIRCLE('',#408,11.624993880148);
#408 = AXIS2_PLACEMENT_3D('',#409,#410,#411);
#409 = CARTESIAN_POINT('',(-25.,44.,8.526512829121E-14));
#410 = DIRECTION('',(-1.,0.,2.2E-16));
#411 = DIRECTION('',(2.2E-16,0.,1.));
#412 = ORIENTED_EDGE('',*,*,#364,.F.);
#413 = ORIENTED_EDGE('',*,*,#414,.T.);
#414 = EDGE_CURVE('',#356,#415,#417,.T.);
#415 = VERTEX_POINT('',#416);
#416 = CARTESIAN_POINT('',(-19.,41.702173153984,11.39563401041));
#417 = CIRCLE('',#418,11.624993880148);
#418 = AXIS2_PLACEMENT_3D('',#419,#420,#421);
#419 = CARTESIAN_POINT('',(-19.,44.,7.616E-14));
#420 = DIRECTION('',(1.,0.,-2.2E-16));
#421 = DIRECTION('',(2.2E-16,0.,1.));
#422 = ORIENTED_EDGE('',*,*,#423,.T.);
#423 = EDGE_CURVE('',#415,#424,#426,.T.);
#424 = VERTEX_POINT('',#425);
#425 = CARTESIAN_POINT('',(-19.,38.,9.956931390418));
#426 = CIRCLE('',#427,11.624993880148);
#427 = AXIS2_PLACEMENT_3D('',#428,#429,#430);
#428 = CARTESIAN_POINT('',(-19.,44.,7.616E-14));
#429 = DIRECTION('',(1.,0.,-2.2E-16));
#430 = DIRECTION('',(2.2E-16,0.,1.));
#431 = ORIENTED_EDGE('',*,*,#432,.T.);
#432 = EDGE_CURVE('',#424,#273,#433,.T.);
#433 = CIRCLE('',#434,11.624993880148);
#434 = AXIS2_PLACEMENT_3D('',#435,#436,#437);
#435 = CARTESIAN_POINT('',(-19.,44.,8.639E-14));
#436 = DIRECTION('',(1.,0.,-4.4E-16));
#437 = DIRECTION('',(4.4E-16,0.,1.));
#438 = CYLINDRICAL_SURFACE('',#439,11.624993880148);
#439 = AXIS2_PLACEMENT_3D('',#440,#441,#442);
#440 = CARTESIAN_POINT('',(-2.,44.,7.262E-14));
#441 = DIRECTION('',(1.,0.,-3.3E-16));
#442 = DIRECTION('',(3.3E-16,0.,1.));
#443 = ADVANCED_FACE('',(#444),#480,.T.);
#444 = FACE_BOUND('',#445,.F.);
#445 = EDGE_LOOP('',(#446,#455,#456,#457,#465,#474));
#446 = ORIENTED_EDGE('',*,*,#447,.F.);
#447 = EDGE_CURVE('',#241,#448,#450,.T.);
#448 = VERTEX_POINT('',#449);
#449 = CARTESIAN_POINT('',(-2.,20.064805870639,-3.));
#450 = CIRCLE('',#451,8.45);
#451 = AXIS2_PLACEMENT_3D('',#452,#453,#454);
#452 = CARTESIAN_POINT('',(-2.,28.5,-2.5));
#453 = DIRECTION('',(-1.,0.,2.2E-16));
#454 = DIRECTION('',(2.2E-16,0.,1.));
#455 = ORIENTED_EDGE('',*,*,#251,.T.);
#456 = ORIENTED_EDGE('',*,*,#40,.F.);
#457 = ORIENTED_EDGE('',*,*,#458,.F.);
#458 = EDGE_CURVE('',#459,#41,#461,.T.);
#459 = VERTEX_POINT('',#460);
#460 = CARTESIAN_POINT('',(-5.5,20.05,-2.5));
#461 = LINE('',#462,#463);
#462 = CARTESIAN_POINT('',(-2.,20.05,-2.5));
#463 = VECTOR('',#464,1.);
#464 = DIRECTION('',(-1.,0.,3.3E-16));
#465 = ORIENTED_EDGE('',*,*,#466,.T.);
#466 = EDGE_CURVE('',#459,#467,#469,.T.);
#467 = VERTEX_POINT('',#468);
#468 = CARTESIAN_POINT('',(-5.5,20.064805870639,-3.));
#469 = CIRCLE('',#470,8.45);
#470 = AXIS2_PLACEMENT_3D('',#471,#472,#473);
#471 = CARTESIAN_POINT('',(-5.5,28.5,-2.5));
#472 = DIRECTION('',(1.,0.,-1.E-15));
#473 = DIRECTION('',(1.E-15,0.,1.));
#474 = ORIENTED_EDGE('',*,*,#475,.T.);
#475 = EDGE_CURVE('',#467,#448,#476,.T.);
#476 = LINE('',#477,#478);
#477 = CARTESIAN_POINT('',(-2.,20.064805870639,-3.));
#478 = VECTOR('',#479,1.);
#479 = DIRECTION('',(1.,0.,-1.E-15));
#480 = CYLINDRICAL_SURFACE('',#481,8.45);
#481 = AXIS2_PLACEMENT_3D('',#482,#483,#484);
#482 = CARTESIAN_POINT('',(-2.,28.5,-2.5));
#483 = DIRECTION('',(1.,0.,-3.3E-16));
#484 = DIRECTION('',(3.3E-16,0.,1.));
#485 = ADVANCED_FACE('',(#486),#520,.F.);
#486 = FACE_BOUND('',#487,.F.);
#487 = EDGE_LOOP('',(#488,#498,#506,#512,#513,#514));
#488 = ORIENTED_EDGE('',*,*,#489,.F.);
#489 = EDGE_CURVE('',#490,#492,#494,.T.);
#490 = VERTEX_POINT('',#491);
#491 = CARTESIAN_POINT('',(-2.,20.05,3.000000000021));
#492 = VERTEX_POINT('',#493);
#493 = CARTESIAN_POINT('',(-2.,20.05,19.));
#494 = LINE('',#495,#496);
#495 = CARTESIAN_POINT('',(-2.,20.05,-2.5));
#496 = VECTOR('',#497,1.);
#497 = DIRECTION('',(2.2E-16,-2.31E-15,1.));
#498 = ORIENTED_EDGE('',*,*,#499,.T.);
#499 = EDGE_CURVE('',#490,#500,#502,.T.);
#500 = VERTEX_POINT('',#501);
#501 = CARTESIAN_POINT('',(-5.5,20.05,3.000000000021));
#502 = LINE('',#503,#504);
#503 = CARTESIAN_POINT('',(-2.,20.05,3.000000000021));
#504 = VECTOR('',#505,1.);
#505 = DIRECTION('',(-1.,-2.2E-16,2.2E-16));
#506 = ORIENTED_EDGE('',*,*,#507,.T.);
#507 = EDGE_CURVE('',#500,#459,#508,.T.);
#508 = LINE('',#509,#510);
#509 = CARTESIAN_POINT('',(-5.5,20.05,3.000000000021));
#510 = VECTOR('',#511,1.);
#511 = DIRECTION('',(-2.2E-16,2.22E-15,-1.));
#512 = ORIENTED_EDGE('',*,*,#458,.T.);
#513 = ORIENTED_EDGE('',*,*,#49,.F.);
#514 = ORIENTED_EDGE('',*,*,#515,.F.);
#515 = EDGE_CURVE('',#492,#50,#516,.T.);
#516 = LINE('',#517,#518);
#517 = CARTESIAN_POINT('',(-2.,20.05,19.));
#518 = VECTOR('',#519,1.);
#519 = DIRECTION('',(-1.,0.,3.3E-16));
#520 = PLANE('',#521);
#521 = AXIS2_PLACEMENT_3D('',#522,#523,#524);
#522 = CARTESIAN_POINT('',(-2.,20.05,-2.5));
#523 = DIRECTION('',(0.,1.,2.31E-15));
#524 = DIRECTION('',(3.3E-16,-2.31E-15,1.));
#525 = ADVANCED_FACE('',(#526),#545,.T.);
#526 = FACE_BOUND('',#527,.F.);
#527 = EDGE_LOOP('',(#528,#537,#538,#539));
#528 = ORIENTED_EDGE('',*,*,#529,.F.);
#529 = EDGE_CURVE('',#492,#530,#532,.T.);
#530 = VERTEX_POINT('',#531);
#531 = CARTESIAN_POINT('',(-2.,28.5,27.45));
#532 = CIRCLE('',#533,8.45);
#533 = AXIS2_PLACEMENT_3D('',#534,#535,#536);
#534 = CARTESIAN_POINT('',(-2.,28.5,19.));
#535 = DIRECTION('',(-1.,0.,2.2E-16));
#536 = DIRECTION('',(2.2E-16,0.,1.));
#537 = ORIENTED_EDGE('',*,*,#515,.T.);
#538 = ORIENTED_EDGE('',*,*,#57,.F.);
#539 = ORIENTED_EDGE('',*,*,#540,.F.);
#540 = EDGE_CURVE('',#530,#58,#541,.T.);
#541 = LINE('',#542,#543);
#542 = CARTESIAN_POINT('',(-2.,28.5,27.45));
#543 = VECTOR('',#544,1.);
#544 = DIRECTION('',(-1.,0.,3.3E-16));
#545 = CYLINDRICAL_SURFACE('',#546,8.45);
#546 = AXIS2_PLACEMENT_3D('',#547,#548,#549);
#547 = CARTESIAN_POINT('',(-2.,28.5,19.));
#548 = DIRECTION('',(1.,0.,-3.3E-16));
#549 = DIRECTION('',(3.3E-16,0.,1.));
#550 = ADVANCED_FACE('',(#551),#601,.F.);
#551 = FACE_BOUND('',#552,.F.);
#552 = EDGE_LOOP('',(#553,#561,#562,#563,#571,#579,#587,#595));
#553 = ORIENTED_EDGE('',*,*,#554,.F.);
#554 = EDGE_CURVE('',#530,#555,#557,.T.);
#555 = VERTEX_POINT('',#556);
#556 = CARTESIAN_POINT('',(-2.,43.,27.45));
#557 = LINE('',#558,#559);
#558 = CARTESIAN_POINT('',(-2.,28.5,27.45));
#559 = VECTOR('',#560,1.);
#560 = DIRECTION('',(0.,1.,0.));
#561 = ORIENTED_EDGE('',*,*,#540,.T.);
#562 = ORIENTED_EDGE('',*,*,#66,.T.);
#563 = ORIENTED_EDGE('',*,*,#564,.T.);
#564 = EDGE_CURVE('',#67,#565,#567,.T.);
#565 = VERTEX_POINT('',#566);
#566 = CARTESIAN_POINT('',(-19.,38.,27.45));
#567 = LINE('',#568,#569);
#568 = CARTESIAN_POINT('',(-8.,38.,27.45));
#569 = VECTOR('',#570,1.);
#570 = DIRECTION('',(-1.,0.,2.2E-16));
#571 = ORIENTED_EDGE('',*,*,#572,.T.);
#572 = EDGE_CURVE('',#565,#573,#575,.T.);
#573 = VERTEX_POINT('',#574);
#574 = CARTESIAN_POINT('',(-19.,28.5,27.45));
#575 = LINE('',#576,#577);
#576 = CARTESIAN_POINT('',(-19.,38.,27.45));
#577 = VECTOR('',#578,1.);
#578 = DIRECTION('',(0.,-1.,0.));
#579 = ORIENTED_EDGE('',*,*,#580,.T.);
#580 = EDGE_CURVE('',#573,#581,#583,.T.);
#581 = VERTEX_POINT('',#582);
#582 = CARTESIAN_POINT('',(-25.,28.5,27.45));
#583 = LINE('',#584,#585);
#584 = CARTESIAN_POINT('',(-2.,28.5,27.45));
#585 = VECTOR('',#586,1.);
#586 = DIRECTION('',(-1.,0.,3.3E-16));
#587 = ORIENTED_EDGE('',*,*,#588,.T.);
#588 = EDGE_CURVE('',#581,#589,#591,.T.);
#589 = VERTEX_POINT('',#590);
#590 = CARTESIAN_POINT('',(-25.,43.,27.45));
#591 = LINE('',#592,#593);
#592 = CARTESIAN_POINT('',(-25.,28.5,27.45));
#593 = VECTOR('',#594,1.);
#594 = DIRECTION('',(0.,1.,0.));
#595 = ORIENTED_EDGE('',*,*,#596,.F.);
#596 = EDGE_CURVE('',#555,#589,#597,.T.);
#597 = LINE('',#598,#599);
#598 = CARTESIAN_POINT('',(-2.,43.,27.45));
#599 = VECTOR('',#600,1.);
#600 = DIRECTION('',(-1.,0.,3.3E-16));
#601 = PLANE('',#602);
#602 = AXIS2_PLACEMENT_3D('',#603,#604,#605);
#603 = CARTESIAN_POINT('',(-2.,28.5,27.45));
#604 = DIRECTION('',(-3.3E-16,0.,-1.));
#605 = DIRECTION('',(0.,1.,0.));
#606 = ADVANCED_FACE('',(#607),#618,.T.);
#607 = FACE_BOUND('',#608,.T.);
#608 = EDGE_LOOP('',(#609,#610,#611,#617));
#609 = ORIENTED_EDGE('',*,*,#74,.F.);
#610 = ORIENTED_EDGE('',*,*,#564,.T.);
#611 = ORIENTED_EDGE('',*,*,#612,.T.);
#612 = EDGE_CURVE('',#565,#348,#613,.T.);
#613 = LINE('',#614,#615);
#614 = CARTESIAN_POINT('',(-19.,38.,27.45));
#615 = VECTOR('',#616,1.);
#616 = DIRECTION('',(-8.E-17,0.509823984858,-0.860278736494));
#617 = ORIENTED_EDGE('',*,*,#347,.F.);
#618 = PLANE('',#619);
#619 = AXIS2_PLACEMENT_3D('',#620,#621,#622);
#620 = CARTESIAN_POINT('',(-13.5,42.872873709947,19.227496228528));
#621 = DIRECTION('',(-2.8E-16,-0.860278736494,-0.509823984858));
#622 = DIRECTION('',(-1.9E-16,0.509823984858,-0.860278736494));
#623 = ADVANCED_FACE('',(#624),#643,.F.);
#624 = FACE_BOUND('',#625,.T.);
#625 = EDGE_LOOP('',(#626,#635,#641,#642));
#626 = ORIENTED_EDGE('',*,*,#627,.F.);
#627 = EDGE_CURVE('',#628,#628,#630,.T.);
#628 = VERTEX_POINT('',#629);
#629 = CARTESIAN_POINT('',(-2.,28.5,20.49999995374));
#630 = CIRCLE('',#631,1.49999995374);
#631 = AXIS2_PLACEMENT_3D('',#632,#633,#634);
#632 = CARTESIAN_POINT('',(-2.,28.5,19.));
#633 = DIRECTION('',(-1.,0.,2.2E-16));
#634 = DIRECTION('',(2.2E-16,0.,1.));
#635 = ORIENTED_EDGE('',*,*,#636,.T.);
#636 = EDGE_CURVE('',#628,#146,#637,.T.);
#637 = LINE('',#638,#639);
#638 = CARTESIAN_POINT('',(-2.,28.5,20.49999995374));
#639 = VECTOR('',#640,1.);
#640 = DIRECTION('',(-1.,0.,3.3E-16));
#641 = ORIENTED_EDGE('',*,*,#145,.F.);
#642 = ORIENTED_EDGE('',*,*,#636,.F.);
#643 = CYLINDRICAL_SURFACE('',#644,1.49999995374);
#644 = AXIS2_PLACEMENT_3D('',#645,#646,#647);
#645 = CARTESIAN_POINT('',(-2.,28.5,19.));
#646 = DIRECTION('',(1.,0.,-3.3E-16));
#647 = DIRECTION('',(3.3E-16,0.,1.));
#648 = ADVANCED_FACE('',(#649),#668,.T.);
#649 = FACE_BOUND('',#650,.F.);
#650 = EDGE_LOOP('',(#651,#659,#666,#667));
#651 = ORIENTED_EDGE('',*,*,#652,.F.);
#652 = EDGE_CURVE('',#653,#157,#655,.T.);
#653 = VERTEX_POINT('',#654);
#654 = CARTESIAN_POINT('',(-19.,24.,9.75));
#655 = LINE('',#656,#657);
#656 = CARTESIAN_POINT('',(-19.,24.,9.75));
#657 = VECTOR('',#658,1.);
#658 = DIRECTION('',(1.,0.,-3.3E-16));
#659 = ORIENTED_EDGE('',*,*,#660,.F.);
#660 = EDGE_CURVE('',#653,#653,#661,.T.);
#661 = CIRCLE('',#662,2.75);
#662 = AXIS2_PLACEMENT_3D('',#663,#664,#665);
#663 = CARTESIAN_POINT('',(-19.,24.,7.));
#664 = DIRECTION('',(1.,0.,-2.2E-16));
#665 = DIRECTION('',(2.2E-16,0.,1.));
#666 = ORIENTED_EDGE('',*,*,#652,.T.);
#667 = ORIENTED_EDGE('',*,*,#156,.F.);
#668 = CYLINDRICAL_SURFACE('',#669,2.75);
#669 = AXIS2_PLACEMENT_3D('',#670,#671,#672);
#670 = CARTESIAN_POINT('',(-19.,24.,7.));
#671 = DIRECTION('',(-1.,0.,3.3E-16));
#672 = DIRECTION('',(3.3E-16,0.,1.));
#673 = ADVANCED_FACE('',(#674),#693,.F.);
#674 = FACE_BOUND('',#675,.T.);
#675 = EDGE_LOOP('',(#676,#685,#691,#692));
#676 = ORIENTED_EDGE('',*,*,#677,.F.);
#677 = EDGE_CURVE('',#678,#678,#680,.T.);
#678 = VERTEX_POINT('',#679);
#679 = CARTESIAN_POINT('',(-2.,28.5,-0.999999989518));
#680 = CIRCLE('',#681,1.500000010482);
#681 = AXIS2_PLACEMENT_3D('',#682,#683,#684);
#682 = CARTESIAN_POINT('',(-2.,28.5,-2.5));
#683 = DIRECTION('',(-1.,0.,2.2E-16));
#684 = DIRECTION('',(2.2E-16,0.,1.));
#685 = ORIENTED_EDGE('',*,*,#686,.T.);
#686 = EDGE_CURVE('',#678,#168,#687,.T.);
#687 = LINE('',#688,#689);
#688 = CARTESIAN_POINT('',(-2.,28.5,-0.999999989518));
#689 = VECTOR('',#690,1.);
#690 = DIRECTION('',(-1.,0.,3.3E-16));
#691 = ORIENTED_EDGE('',*,*,#167,.F.);
#692 = ORIENTED_EDGE('',*,*,#686,.F.);
#693 = CYLINDRICAL_SURFACE('',#694,1.500000010482);
#694 = AXIS2_PLACEMENT_3D('',#695,#696,#697);
#695 = CARTESIAN_POINT('',(-2.,28.5,-2.5));
#696 = DIRECTION('',(1.,0.,-3.3E-16));
#697 = DIRECTION('',(3.3E-16,0.,1.));
#698 = ADVANCED_FACE('',(#699),#733,.T.);
#699 = FACE_BOUND('',#700,.T.);
#700 = EDGE_LOOP('',(#701,#711,#719,#725,#726,#727));
#701 = ORIENTED_EDGE('',*,*,#702,.T.);
#702 = EDGE_CURVE('',#703,#705,#707,.T.);
#703 = VERTEX_POINT('',#704);
#704 = CARTESIAN_POINT('',(-25.,34.55,-17.0000006136));
#705 = VERTEX_POINT('',#706);
#706 = CARTESIAN_POINT('',(-25.,53.45,-17.));
#707 = LINE('',#708,#709);
#708 = CARTESIAN_POINT('',(-25.,32.626694,-17.));
#709 = VECTOR('',#710,1.);
#710 = DIRECTION('',(0.,1.,0.));
#711 = ORIENTED_EDGE('',*,*,#712,.F.);
#712 = EDGE_CURVE('',#713,#705,#715,.T.);
#713 = VERTEX_POINT('',#714);
#714 = CARTESIAN_POINT('',(-2.,53.45,-17.));
#715 = LINE('',#716,#717);
#716 = CARTESIAN_POINT('',(-2.,53.45,-17.));
#717 = VECTOR('',#718,1.);
#718 = DIRECTION('',(-1.,0.,3.3E-16));
#719 = ORIENTED_EDGE('',*,*,#720,.T.);
#720 = EDGE_CURVE('',#713,#243,#721,.T.);
#721 = LINE('',#722,#723);
#722 = CARTESIAN_POINT('',(-2.,36.704958049067,-17.));
#723 = VECTOR('',#724,1.);
#724 = DIRECTION('',(0.,-1.,0.));
#725 = ORIENTED_EDGE('',*,*,#258,.T.);
#726 = ORIENTED_EDGE('',*,*,#185,.T.);
#727 = ORIENTED_EDGE('',*,*,#728,.T.);
#728 = EDGE_CURVE('',#186,#703,#729,.T.);
#729 = LINE('',#730,#731);
#730 = CARTESIAN_POINT('',(-2.,34.55,-17.0000006136));
#731 = VECTOR('',#732,1.);
#732 = DIRECTION('',(-1.,0.,3.3E-16));
#733 = PLANE('',#734);
#734 = AXIS2_PLACEMENT_3D('',#735,#736,#737);
#735 = CARTESIAN_POINT('',(-13.5,44.,-17.00000008786));
#736 = DIRECTION('',(-5.1E-16,9.29809178E-09,-1.));
#737 = DIRECTION('',(0.,-1.,-9.29809178E-09));
#738 = ADVANCED_FACE('',(#739,#784,#787,#798),#809,.T.);
#739 = FACE_BOUND('',#740,.T.);
#740 = EDGE_LOOP('',(#741,#742,#743,#744,#745,#746,#747,#748,#749,#750,
    #751,#760,#768,#777));
#741 = ORIENTED_EDGE('',*,*,#193,.F.);
#742 = ORIENTED_EDGE('',*,*,#215,.F.);
#743 = ORIENTED_EDGE('',*,*,#283,.F.);
#744 = ORIENTED_EDGE('',*,*,#272,.F.);
#745 = ORIENTED_EDGE('',*,*,#432,.F.);
#746 = ORIENTED_EDGE('',*,*,#423,.F.);
#747 = ORIENTED_EDGE('',*,*,#414,.F.);
#748 = ORIENTED_EDGE('',*,*,#355,.F.);
#749 = ORIENTED_EDGE('',*,*,#612,.F.);
#750 = ORIENTED_EDGE('',*,*,#572,.T.);
#751 = ORIENTED_EDGE('',*,*,#752,.T.);
#752 = EDGE_CURVE('',#573,#753,#755,.T.);
#753 = VERTEX_POINT('',#754);
#754 = CARTESIAN_POINT('',(-19.,20.05,19.));
#755 = CIRCLE('',#756,8.45);
#756 = AXIS2_PLACEMENT_3D('',#757,#758,#759);
#757 = CARTESIAN_POINT('',(-19.,28.5,19.));
#758 = DIRECTION('',(1.,0.,-4.4E-16));
#759 = DIRECTION('',(4.4E-16,0.,1.));
#760 = ORIENTED_EDGE('',*,*,#761,.T.);
#761 = EDGE_CURVE('',#753,#762,#764,.T.);
#762 = VERTEX_POINT('',#763);
#763 = CARTESIAN_POINT('',(-19.,20.05,-2.5));
#764 = LINE('',#765,#766);
#765 = CARTESIAN_POINT('',(-19.,20.05,27.45));
#766 = VECTOR('',#767,1.);
#767 = DIRECTION('',(-1.1E-16,-0.,-1.));
#768 = ORIENTED_EDGE('',*,*,#769,.T.);
#769 = EDGE_CURVE('',#762,#770,#772,.T.);
#770 = VERTEX_POINT('',#771);
#771 = CARTESIAN_POINT('',(-19.,28.5,-10.95));
#772 = CIRCLE('',#773,8.45);
#773 = AXIS2_PLACEMENT_3D('',#774,#775,#776);
#774 = CARTESIAN_POINT('',(-19.,28.5,-2.5));
#775 = DIRECTION('',(1.,0.,-4.4E-16));
#776 = DIRECTION('',(4.4E-16,0.,1.));
#777 = ORIENTED_EDGE('',*,*,#778,.F.);
#778 = EDGE_CURVE('',#186,#770,#779,.T.);
#779 = CIRCLE('',#780,6.05);
#780 = AXIS2_PLACEMENT_3D('',#781,#782,#783);
#781 = CARTESIAN_POINT('',(-19.,28.5,-17.));
#782 = DIRECTION('',(1.,0.,-4.4E-16));
#783 = DIRECTION('',(4.4E-16,0.,1.));
#784 = FACE_BOUND('',#785,.T.);
#785 = EDGE_LOOP('',(#786));
#786 = ORIENTED_EDGE('',*,*,#660,.F.);
#787 = FACE_BOUND('',#788,.T.);
#788 = EDGE_LOOP('',(#789));
#789 = ORIENTED_EDGE('',*,*,#790,.F.);
#790 = EDGE_CURVE('',#791,#791,#793,.T.);
#791 = VERTEX_POINT('',#792);
#792 = CARTESIAN_POINT('',(-19.,28.5,20.49999995374));
#793 = CIRCLE('',#794,1.49999995374);
#794 = AXIS2_PLACEMENT_3D('',#795,#796,#797);
#795 = CARTESIAN_POINT('',(-19.,28.5,19.));
#796 = DIRECTION('',(1.,0.,-4.4E-16));
#797 = DIRECTION('',(4.4E-16,0.,1.));
#798 = FACE_BOUND('',#799,.T.);
#799 = EDGE_LOOP('',(#800));
#800 = ORIENTED_EDGE('',*,*,#801,.F.);
#801 = EDGE_CURVE('',#802,#802,#804,.T.);
#802 = VERTEX_POINT('',#803);
#803 = CARTESIAN_POINT('',(-19.,28.5,-0.999999989518));
#804 = CIRCLE('',#805,1.500000010482);
#805 = AXIS2_PLACEMENT_3D('',#806,#807,#808);
#806 = CARTESIAN_POINT('',(-19.,28.5,-2.5));
#807 = DIRECTION('',(1.,0.,-4.4E-16));
#808 = DIRECTION('',(4.4E-16,0.,1.));
#809 = PLANE('',#810);
#810 = AXIS2_PLACEMENT_3D('',#811,#812,#813);
#811 = CARTESIAN_POINT('',(-19.,32.163724944006,4.171805407339));
#812 = DIRECTION('',(1.,0.,-2.2E-16));
#813 = DIRECTION('',(-2.2E-16,0.,-1.));
#814 = ADVANCED_FACE('',(#815,#904,#915,#926,#929),#932,.T.);
#815 = FACE_BOUND('',#816,.T.);
#816 = EDGE_LOOP('',(#817,#818,#819,#820,#829,#838,#844,#845,#846,#854,
    #863,#872,#879,#880,#881,#882,#890,#898));
#817 = ORIENTED_EDGE('',*,*,#447,.F.);
#818 = ORIENTED_EDGE('',*,*,#240,.T.);
#819 = ORIENTED_EDGE('',*,*,#720,.F.);
#820 = ORIENTED_EDGE('',*,*,#821,.T.);
#821 = EDGE_CURVE('',#713,#822,#824,.T.);
#822 = VERTEX_POINT('',#823);
#823 = CARTESIAN_POINT('',(-2.,60.250000006478,-10.2));
#824 = CIRCLE('',#825,6.8);
#825 = AXIS2_PLACEMENT_3D('',#826,#827,#828);
#826 = CARTESIAN_POINT('',(-2.,60.25,-17.));
#827 = DIRECTION('',(-1.,0.,2.2E-16));
#828 = DIRECTION('',(2.2E-16,0.,1.));
#829 = ORIENTED_EDGE('',*,*,#830,.F.);
#830 = EDGE_CURVE('',#831,#822,#833,.T.);
#831 = VERTEX_POINT('',#832);
#832 = CARTESIAN_POINT('',(-2.,65.080049171592,-6.125));
#833 = CIRCLE('',#834,4.9);
#834 = AXIS2_PLACEMENT_3D('',#835,#836,#837);
#835 = CARTESIAN_POINT('',(-2.,60.25,-5.3));
#836 = DIRECTION('',(-1.,0.,2.2E-16));
#837 = DIRECTION('',(2.2E-16,0.,1.));
#838 = ORIENTED_EDGE('',*,*,#839,.T.);
#839 = EDGE_CURVE('',#831,#305,#840,.T.);
#840 = LINE('',#841,#842);
#841 = CARTESIAN_POINT('',(-2.,65.15,-6.125));
#842 = VECTOR('',#843,1.);
#843 = DIRECTION('',(0.,-1.,0.));
#844 = ORIENTED_EDGE('',*,*,#304,.T.);
#845 = ORIENTED_EDGE('',*,*,#338,.T.);
#846 = ORIENTED_EDGE('',*,*,#847,.F.);
#847 = EDGE_CURVE('',#848,#331,#850,.T.);
#848 = VERTEX_POINT('',#849);
#849 = CARTESIAN_POINT('',(-2.,65.080049171592,6.125));
#850 = LINE('',#851,#852);
#851 = CARTESIAN_POINT('',(-2.,65.15,6.125));
#852 = VECTOR('',#853,1.);
#853 = DIRECTION('',(0.,-1.,0.));
#854 = ORIENTED_EDGE('',*,*,#855,.F.);
#855 = EDGE_CURVE('',#856,#848,#858,.T.);
#856 = VERTEX_POINT('',#857);
#857 = CARTESIAN_POINT('',(-2.,60.250000005195,10.2));
#858 = CIRCLE('',#859,4.9);
#859 = AXIS2_PLACEMENT_3D('',#860,#861,#862);
#860 = CARTESIAN_POINT('',(-2.,60.25,5.3));
#861 = DIRECTION('',(-1.,0.,2.2E-16));
#862 = DIRECTION('',(2.2E-16,0.,1.));
#863 = ORIENTED_EDGE('',*,*,#864,.T.);
#864 = EDGE_CURVE('',#856,#865,#867,.T.);
#865 = VERTEX_POINT('',#866);
#866 = CARTESIAN_POINT('',(-2.,51.45,19.));
#867 = CIRCLE('',#868,8.8);
#868 = AXIS2_PLACEMENT_3D('',#869,#870,#871);
#869 = CARTESIAN_POINT('',(-2.,60.25,19.));
#870 = DIRECTION('',(-1.,0.,2.2E-16));
#871 = DIRECTION('',(2.2E-16,0.,1.));
#872 = ORIENTED_EDGE('',*,*,#873,.F.);
#873 = EDGE_CURVE('',#555,#865,#874,.T.);
#874 = CIRCLE('',#875,8.45);
#875 = AXIS2_PLACEMENT_3D('',#876,#877,#878);
#876 = CARTESIAN_POINT('',(-2.,43.,19.));
#877 = DIRECTION('',(-1.,0.,2.2E-16));
#878 = DIRECTION('',(2.2E-16,0.,1.));
#879 = ORIENTED_EDGE('',*,*,#554,.F.);
#880 = ORIENTED_EDGE('',*,*,#529,.F.);
#881 = ORIENTED_EDGE('',*,*,#489,.F.);
#882 = ORIENTED_EDGE('',*,*,#883,.T.);
#883 = EDGE_CURVE('',#490,#884,#886,.T.);
#884 = VERTEX_POINT('',#885);
#885 = CARTESIAN_POINT('',(-2.,6.05,3.000000000021));
#886 = LINE('',#887,#888);
#887 = CARTESIAN_POINT('',(-2.,20.05,3.000000000021));
#888 = VECTOR('',#889,1.);
#889 = DIRECTION('',(-0.,-1.,-2.22E-15));
#890 = ORIENTED_EDGE('',*,*,#891,.F.);
#891 = EDGE_CURVE('',#892,#884,#894,.T.);
#892 = VERTEX_POINT('',#893);
#893 = CARTESIAN_POINT('',(-2.,6.05,-3.));
#894 = LINE('',#895,#896);
#895 = CARTESIAN_POINT('',(-2.,6.05,-3.));
#896 = VECTOR('',#897,1.);
#897 = DIRECTION('',(2.2E-16,-2.22E-15,1.));
#898 = ORIENTED_EDGE('',*,*,#899,.F.);
#899 = EDGE_CURVE('',#448,#892,#900,.T.);
#900 = LINE('',#901,#902);
#901 = CARTESIAN_POINT('',(-2.,20.05,-3.));
#902 = VECTOR('',#903,1.);
#903 = DIRECTION('',(-0.,-1.,-2.22E-15));
#904 = FACE_BOUND('',#905,.T.);
#905 = EDGE_LOOP('',(#906));
#906 = ORIENTED_EDGE('',*,*,#907,.T.);
#907 = EDGE_CURVE('',#908,#908,#910,.T.);
#908 = VERTEX_POINT('',#909);
#909 = CARTESIAN_POINT('',(-2.,9.539601355302,1.5));
#910 = CIRCLE('',#911,1.5);
#911 = AXIS2_PLACEMENT_3D('',#912,#913,#914);
#912 = CARTESIAN_POINT('',(-2.,9.539601355302,7.007E-14));
#913 = DIRECTION('',(-1.,0.,3.3E-16));
#914 = DIRECTION('',(3.3E-16,0.,1.));
#915 = FACE_BOUND('',#916,.T.);
#916 = EDGE_LOOP('',(#917));
#917 = ORIENTED_EDGE('',*,*,#918,.T.);
#918 = EDGE_CURVE('',#919,#919,#921,.T.);
#919 = VERTEX_POINT('',#920);
#920 = CARTESIAN_POINT('',(-2.,17.039601355302,1.5));
#921 = CIRCLE('',#922,1.5);
#922 = AXIS2_PLACEMENT_3D('',#923,#924,#925);
#923 = CARTESIAN_POINT('',(-2.,17.039601355302,7.007E-14));
#924 = DIRECTION('',(-1.,0.,3.3E-16));
#925 = DIRECTION('',(3.3E-16,0.,1.));
#926 = FACE_BOUND('',#927,.T.);
#927 = EDGE_LOOP('',(#928));
#928 = ORIENTED_EDGE('',*,*,#627,.T.);
#929 = FACE_BOUND('',#930,.T.);
#930 = EDGE_LOOP('',(#931));
#931 = ORIENTED_EDGE('',*,*,#677,.T.);
#932 = PLANE('',#933);
#933 = AXIS2_PLACEMENT_3D('',#934,#935,#936);
#934 = CARTESIAN_POINT('',(-2.,38.360317696435,2.977465313597));
#935 = DIRECTION('',(1.,0.,-9.1E-16));
#936 = DIRECTION('',(-9.1E-16,0.,-1.));
#937 = ADVANCED_FACE('',(#938,#1058,#1069,#1080,#1091),#1102,.T.);
#938 = FACE_BOUND('',#939,.T.);
#939 = EDGE_LOOP('',(#940,#949,#958,#966,#974,#982,#990,#997,#998,#1007,
    #1016,#1025,#1031,#1032,#1033,#1041,#1050,#1057));
#940 = ORIENTED_EDGE('',*,*,#941,.F.);
#941 = EDGE_CURVE('',#942,#703,#944,.T.);
#942 = VERTEX_POINT('',#943);
#943 = CARTESIAN_POINT('',(-25.,28.5,-10.95));
#944 = CIRCLE('',#945,6.05);
#945 = AXIS2_PLACEMENT_3D('',#946,#947,#948);
#946 = CARTESIAN_POINT('',(-25.,28.5,-17.));
#947 = DIRECTION('',(-1.,0.,2.2E-16));
#948 = DIRECTION('',(2.2E-16,0.,1.));
#949 = ORIENTED_EDGE('',*,*,#950,.T.);
#950 = EDGE_CURVE('',#942,#951,#953,.T.);
#951 = VERTEX_POINT('',#952);
#952 = CARTESIAN_POINT('',(-25.,20.064805870639,-3.));
#953 = CIRCLE('',#954,8.45);
#954 = AXIS2_PLACEMENT_3D('',#955,#956,#957);
#955 = CARTESIAN_POINT('',(-25.,28.5,-2.5));
#956 = DIRECTION('',(-1.,0.,2.2E-16));
#957 = DIRECTION('',(2.2E-16,0.,1.));
#958 = ORIENTED_EDGE('',*,*,#959,.F.);
#959 = EDGE_CURVE('',#960,#951,#962,.T.);
#960 = VERTEX_POINT('',#961);
#961 = CARTESIAN_POINT('',(-25.,6.05,-3.));
#962 = LINE('',#963,#964);
#963 = CARTESIAN_POINT('',(-25.,20.05,-3.));
#964 = VECTOR('',#965,1.);
#965 = DIRECTION('',(-1.1E-16,1.,2.33E-15));
#966 = ORIENTED_EDGE('',*,*,#967,.F.);
#967 = EDGE_CURVE('',#968,#960,#970,.T.);
#968 = VERTEX_POINT('',#969);
#969 = CARTESIAN_POINT('',(-25.,6.05,3.));
#970 = LINE('',#971,#972);
#971 = CARTESIAN_POINT('',(-25.,6.05,3.));
#972 = VECTOR('',#973,1.);
#973 = DIRECTION('',(-2.2E-16,2.22E-15,-1.));
#974 = ORIENTED_EDGE('',*,*,#975,.F.);
#975 = EDGE_CURVE('',#976,#968,#978,.T.);
#976 = VERTEX_POINT('',#977);
#977 = CARTESIAN_POINT('',(-25.,20.05,3.));
#978 = LINE('',#979,#980);
#979 = CARTESIAN_POINT('',(-25.,20.05,3.));
#980 = VECTOR('',#981,1.);
#981 = DIRECTION('',(-0.,-1.,-2.22E-15));
#982 = ORIENTED_EDGE('',*,*,#983,.T.);
#983 = EDGE_CURVE('',#976,#984,#986,.T.);
#984 = VERTEX_POINT('',#985);
#985 = CARTESIAN_POINT('',(-25.,20.05,19.));
#986 = LINE('',#987,#988);
#987 = CARTESIAN_POINT('',(-25.,20.05,-2.5));
#988 = VECTOR('',#989,1.);
#989 = DIRECTION('',(2.2E-16,-2.31E-15,1.));
#990 = ORIENTED_EDGE('',*,*,#991,.T.);
#991 = EDGE_CURVE('',#984,#581,#992,.T.);
#992 = CIRCLE('',#993,8.45);
#993 = AXIS2_PLACEMENT_3D('',#994,#995,#996);
#994 = CARTESIAN_POINT('',(-25.,28.5,19.));
#995 = DIRECTION('',(-1.,0.,2.2E-16));
#996 = DIRECTION('',(2.2E-16,0.,1.));
#997 = ORIENTED_EDGE('',*,*,#588,.T.);
#998 = ORIENTED_EDGE('',*,*,#999,.T.);
#999 = EDGE_CURVE('',#589,#1000,#1002,.T.);
#1000 = VERTEX_POINT('',#1001);
#1001 = CARTESIAN_POINT('',(-25.,51.45,19.));
#1002 = CIRCLE('',#1003,8.45);
#1003 = AXIS2_PLACEMENT_3D('',#1004,#1005,#1006);
#1004 = CARTESIAN_POINT('',(-25.,43.,19.));
#1005 = DIRECTION('',(-1.,0.,2.2E-16));
#1006 = DIRECTION('',(2.2E-16,0.,1.));
#1007 = ORIENTED_EDGE('',*,*,#1008,.F.);
#1008 = EDGE_CURVE('',#1009,#1000,#1011,.T.);
#1009 = VERTEX_POINT('',#1010);
#1010 = CARTESIAN_POINT('',(-25.,60.250000005195,10.2));
#1011 = CIRCLE('',#1012,8.8);
#1012 = AXIS2_PLACEMENT_3D('',#1013,#1014,#1015);
#1013 = CARTESIAN_POINT('',(-25.,60.25,19.));
#1014 = DIRECTION('',(-1.,0.,2.2E-16));
#1015 = DIRECTION('',(2.2E-16,0.,1.));
#1016 = ORIENTED_EDGE('',*,*,#1017,.T.);
#1017 = EDGE_CURVE('',#1009,#1018,#1020,.T.);
#1018 = VERTEX_POINT('',#1019);
#1019 = CARTESIAN_POINT('',(-25.,65.080049171592,6.125));
#1020 = CIRCLE('',#1021,4.9);
#1021 = AXIS2_PLACEMENT_3D('',#1022,#1023,#1024);
#1022 = CARTESIAN_POINT('',(-25.,60.25,5.3));
#1023 = DIRECTION('',(-1.,0.,2.2E-16));
#1024 = DIRECTION('',(2.2E-16,0.,1.));
#1025 = ORIENTED_EDGE('',*,*,#1026,.T.);
#1026 = EDGE_CURVE('',#1018,#373,#1027,.T.);
#1027 = LINE('',#1028,#1029);
#1028 = CARTESIAN_POINT('',(-25.,65.15,6.125));
#1029 = VECTOR('',#1030,1.);
#1030 = DIRECTION('',(0.,-1.,0.));
#1031 = ORIENTED_EDGE('',*,*,#372,.F.);
#1032 = ORIENTED_EDGE('',*,*,#406,.F.);
#1033 = ORIENTED_EDGE('',*,*,#1034,.F.);
#1034 = EDGE_CURVE('',#1035,#399,#1037,.T.);
#1035 = VERTEX_POINT('',#1036);
#1036 = CARTESIAN_POINT('',(-25.,65.080049171592,-6.125));
#1037 = LINE('',#1038,#1039);
#1038 = CARTESIAN_POINT('',(-25.,65.15,-6.125));
#1039 = VECTOR('',#1040,1.);
#1040 = DIRECTION('',(0.,-1.,0.));
#1041 = ORIENTED_EDGE('',*,*,#1042,.T.);
#1042 = EDGE_CURVE('',#1035,#1043,#1045,.T.);
#1043 = VERTEX_POINT('',#1044);
#1044 = CARTESIAN_POINT('',(-25.,60.250000006478,-10.2));
#1045 = CIRCLE('',#1046,4.9);
#1046 = AXIS2_PLACEMENT_3D('',#1047,#1048,#1049);
#1047 = CARTESIAN_POINT('',(-25.,60.25,-5.3));
#1048 = DIRECTION('',(-1.,0.,2.2E-16));
#1049 = DIRECTION('',(2.2E-16,0.,1.));
#1050 = ORIENTED_EDGE('',*,*,#1051,.F.);
#1051 = EDGE_CURVE('',#705,#1043,#1052,.T.);
#1052 = CIRCLE('',#1053,6.8);
#1053 = AXIS2_PLACEMENT_3D('',#1054,#1055,#1056);
#1054 = CARTESIAN_POINT('',(-25.,60.25,-17.));
#1055 = DIRECTION('',(-1.,0.,2.2E-16));
#1056 = DIRECTION('',(2.2E-16,0.,1.));
#1057 = ORIENTED_EDGE('',*,*,#702,.F.);
#1058 = FACE_BOUND('',#1059,.T.);
#1059 = EDGE_LOOP('',(#1060));
#1060 = ORIENTED_EDGE('',*,*,#1061,.F.);
#1061 = EDGE_CURVE('',#1062,#1062,#1064,.T.);
#1062 = VERTEX_POINT('',#1063);
#1063 = CARTESIAN_POINT('',(-25.,9.539601355302,1.5));
#1064 = CIRCLE('',#1065,1.5);
#1065 = AXIS2_PLACEMENT_3D('',#1066,#1067,#1068);
#1066 = CARTESIAN_POINT('',(-25.,9.539601355302,7.105427357601E-14));
#1067 = DIRECTION('',(-1.,0.,2.2E-16));
#1068 = DIRECTION('',(2.2E-16,0.,1.));
#1069 = FACE_BOUND('',#1070,.T.);
#1070 = EDGE_LOOP('',(#1071));
#1071 = ORIENTED_EDGE('',*,*,#1072,.F.);
#1072 = EDGE_CURVE('',#1073,#1073,#1075,.T.);
#1073 = VERTEX_POINT('',#1074);
#1074 = CARTESIAN_POINT('',(-25.,17.039601355302,1.5));
#1075 = CIRCLE('',#1076,1.5);
#1076 = AXIS2_PLACEMENT_3D('',#1077,#1078,#1079);
#1077 = CARTESIAN_POINT('',(-25.,17.039601355302,7.105427357601E-14));
#1078 = DIRECTION('',(-1.,0.,2.2E-16));
#1079 = DIRECTION('',(2.2E-16,0.,1.));
#1080 = FACE_BOUND('',#1081,.T.);
#1081 = EDGE_LOOP('',(#1082));
#1082 = ORIENTED_EDGE('',*,*,#1083,.F.);
#1083 = EDGE_CURVE('',#1084,#1084,#1086,.T.);
#1084 = VERTEX_POINT('',#1085);
#1085 = CARTESIAN_POINT('',(-25.,28.5,-0.999999989518));
#1086 = CIRCLE('',#1087,1.500000010482);
#1087 = AXIS2_PLACEMENT_3D('',#1088,#1089,#1090);
#1088 = CARTESIAN_POINT('',(-25.,28.5,-2.5));
#1089 = DIRECTION('',(-1.,0.,2.2E-16));
#1090 = DIRECTION('',(2.2E-16,0.,1.));
#1091 = FACE_BOUND('',#1092,.T.);
#1092 = EDGE_LOOP('',(#1093));
#1093 = ORIENTED_EDGE('',*,*,#1094,.F.);
#1094 = EDGE_CURVE('',#1095,#1095,#1097,.T.);
#1095 = VERTEX_POINT('',#1096);
#1096 = CARTESIAN_POINT('',(-25.,28.5,20.49999995374));
#1097 = CIRCLE('',#1098,1.49999995374);
#1098 = AXIS2_PLACEMENT_3D('',#1099,#1100,#1101);
#1099 = CARTESIAN_POINT('',(-25.,28.5,19.));
#1100 = DIRECTION('',(-1.,0.,2.2E-16));
#1101 = DIRECTION('',(2.2E-16,0.,1.));
#1102 = PLANE('',#1103);
#1103 = AXIS2_PLACEMENT_3D('',#1104,#1105,#1106);
#1104 = CARTESIAN_POINT('',(-25.,38.360317696436,2.977465313596));
#1105 = DIRECTION('',(-1.,0.,7.2E-16));
#1106 = DIRECTION('',(7.2E-16,0.,1.));
#1107 = ADVANCED_FACE('',(#1108),#1126,.F.);
#1108 = FACE_BOUND('',#1109,.F.);
#1109 = EDGE_LOOP('',(#1110,#1118,#1124,#1125));
#1110 = ORIENTED_EDGE('',*,*,#1111,.T.);
#1111 = EDGE_CURVE('',#1035,#1112,#1114,.T.);
#1112 = VERTEX_POINT('',#1113);
#1113 = CARTESIAN_POINT('',(-17.875,65.080049171592,-6.125));
#1114 = LINE('',#1115,#1116);
#1115 = CARTESIAN_POINT('',(-2.,65.080049171592,-6.125));
#1116 = VECTOR('',#1117,1.);
#1117 = DIRECTION('',(1.,0.,-7.8E-16));
#1118 = ORIENTED_EDGE('',*,*,#1119,.T.);
#1119 = EDGE_CURVE('',#1112,#390,#1120,.T.);
#1120 = LINE('',#1121,#1122);
#1121 = CARTESIAN_POINT('',(-17.875,65.15,-6.125));
#1122 = VECTOR('',#1123,1.);
#1123 = DIRECTION('',(0.,-1.,0.));
#1124 = ORIENTED_EDGE('',*,*,#398,.F.);
#1125 = ORIENTED_EDGE('',*,*,#1034,.F.);
#1126 = PLANE('',#1127);
#1127 = AXIS2_PLACEMENT_3D('',#1128,#1129,#1130);
#1128 = CARTESIAN_POINT('',(-17.875,65.15,-6.125));
#1129 = DIRECTION('',(-1.1E-16,0.,-1.));
#1130 = DIRECTION('',(-1.,0.,1.1E-16));
#1131 = ADVANCED_FACE('',(#1132),#1168,.F.);
#1132 = FACE_BOUND('',#1133,.F.);
#1133 = EDGE_LOOP('',(#1134,#1145,#1151,#1152,#1153,#1162));
#1134 = ORIENTED_EDGE('',*,*,#1135,.T.);
#1135 = EDGE_CURVE('',#1136,#1138,#1140,.T.);
#1136 = VERTEX_POINT('',#1137);
#1137 = CARTESIAN_POINT('',(-17.875,65.15,5.3));
#1138 = VERTEX_POINT('',#1139);
#1139 = CARTESIAN_POINT('',(-17.875,65.080049171592,6.125));
#1140 = CIRCLE('',#1141,4.9);
#1141 = AXIS2_PLACEMENT_3D('',#1142,#1143,#1144);
#1142 = CARTESIAN_POINT('',(-17.875,60.25,5.3));
#1143 = DIRECTION('',(1.,0.,-7.8E-16));
#1144 = DIRECTION('',(7.8E-16,0.,1.));
#1145 = ORIENTED_EDGE('',*,*,#1146,.T.);
#1146 = EDGE_CURVE('',#1138,#382,#1147,.T.);
#1147 = LINE('',#1148,#1149);
#1148 = CARTESIAN_POINT('',(-17.875,65.15,6.125));
#1149 = VECTOR('',#1150,1.);
#1150 = DIRECTION('',(0.,-1.,0.));
#1151 = ORIENTED_EDGE('',*,*,#389,.F.);
#1152 = ORIENTED_EDGE('',*,*,#1119,.F.);
#1153 = ORIENTED_EDGE('',*,*,#1154,.T.);
#1154 = EDGE_CURVE('',#1112,#1155,#1157,.T.);
#1155 = VERTEX_POINT('',#1156);
#1156 = CARTESIAN_POINT('',(-17.875,65.15,-5.3));
#1157 = CIRCLE('',#1158,4.9);
#1158 = AXIS2_PLACEMENT_3D('',#1159,#1160,#1161);
#1159 = CARTESIAN_POINT('',(-17.875,60.25,-5.3));
#1160 = DIRECTION('',(1.,0.,-7.8E-16));
#1161 = DIRECTION('',(7.8E-16,0.,1.));
#1162 = ORIENTED_EDGE('',*,*,#1163,.F.);
#1163 = EDGE_CURVE('',#1136,#1155,#1164,.T.);
#1164 = LINE('',#1165,#1166);
#1165 = CARTESIAN_POINT('',(-17.875,65.15,6.125));
#1166 = VECTOR('',#1167,1.);
#1167 = DIRECTION('',(-2.2E-16,0.,-1.));
#1168 = PLANE('',#1169);
#1169 = AXIS2_PLACEMENT_3D('',#1170,#1171,#1172);
#1170 = CARTESIAN_POINT('',(-17.875,65.15,6.125));
#1171 = DIRECTION('',(1.,0.,-1.1E-16));
#1172 = DIRECTION('',(-1.1E-16,0.,-1.));
#1173 = ADVANCED_FACE('',(#1174),#1185,.F.);
#1174 = FACE_BOUND('',#1175,.F.);
#1175 = EDGE_LOOP('',(#1176,#1182,#1183,#1184));
#1176 = ORIENTED_EDGE('',*,*,#1177,.F.);
#1177 = EDGE_CURVE('',#1018,#1138,#1178,.T.);
#1178 = LINE('',#1179,#1180);
#1179 = CARTESIAN_POINT('',(-2.,65.080049171592,6.125));
#1180 = VECTOR('',#1181,1.);
#1181 = DIRECTION('',(1.,0.,-7.8E-16));
#1182 = ORIENTED_EDGE('',*,*,#1026,.T.);
#1183 = ORIENTED_EDGE('',*,*,#381,.T.);
#1184 = ORIENTED_EDGE('',*,*,#1146,.F.);
#1185 = PLANE('',#1186);
#1186 = AXIS2_PLACEMENT_3D('',#1187,#1188,#1189);
#1187 = CARTESIAN_POINT('',(-25.,65.15,6.125));
#1188 = DIRECTION('',(1.1E-16,0.,1.));
#1189 = DIRECTION('',(1.,0.,-1.1E-16));
#1190 = ADVANCED_FACE('',(#1191),#1209,.F.);
#1191 = FACE_BOUND('',#1192,.F.);
#1192 = EDGE_LOOP('',(#1193,#1201,#1207,#1208));
#1193 = ORIENTED_EDGE('',*,*,#1194,.F.);
#1194 = EDGE_CURVE('',#1195,#848,#1197,.T.);
#1195 = VERTEX_POINT('',#1196);
#1196 = CARTESIAN_POINT('',(-9.125,65.080049171592,6.125));
#1197 = LINE('',#1198,#1199);
#1198 = CARTESIAN_POINT('',(-2.,65.080049171592,6.125));
#1199 = VECTOR('',#1200,1.);
#1200 = DIRECTION('',(1.,0.,-7.8E-16));
#1201 = ORIENTED_EDGE('',*,*,#1202,.T.);
#1202 = EDGE_CURVE('',#1195,#322,#1203,.T.);
#1203 = LINE('',#1204,#1205);
#1204 = CARTESIAN_POINT('',(-9.125,65.15,6.125));
#1205 = VECTOR('',#1206,1.);
#1206 = DIRECTION('',(0.,-1.,0.));
#1207 = ORIENTED_EDGE('',*,*,#330,.T.);
#1208 = ORIENTED_EDGE('',*,*,#847,.F.);
#1209 = PLANE('',#1210);
#1210 = AXIS2_PLACEMENT_3D('',#1211,#1212,#1213);
#1211 = CARTESIAN_POINT('',(-9.125,65.15,6.125));
#1212 = DIRECTION('',(1.1E-16,0.,1.));
#1213 = DIRECTION('',(1.,0.,-1.1E-16));
#1214 = ADVANCED_FACE('',(#1215),#1251,.F.);
#1215 = FACE_BOUND('',#1216,.F.);
#1216 = EDGE_LOOP('',(#1217,#1228,#1234,#1235,#1236,#1245));
#1217 = ORIENTED_EDGE('',*,*,#1218,.F.);
#1218 = EDGE_CURVE('',#1219,#1221,#1223,.T.);
#1219 = VERTEX_POINT('',#1220);
#1220 = CARTESIAN_POINT('',(-9.125,65.080049171592,-6.125));
#1221 = VERTEX_POINT('',#1222);
#1222 = CARTESIAN_POINT('',(-9.125,65.15,-5.3));
#1223 = CIRCLE('',#1224,4.9);
#1224 = AXIS2_PLACEMENT_3D('',#1225,#1226,#1227);
#1225 = CARTESIAN_POINT('',(-9.125,60.25,-5.3));
#1226 = DIRECTION('',(1.,0.,-7.8E-16));
#1227 = DIRECTION('',(7.8E-16,0.,1.));
#1228 = ORIENTED_EDGE('',*,*,#1229,.T.);
#1229 = EDGE_CURVE('',#1219,#314,#1230,.T.);
#1230 = LINE('',#1231,#1232);
#1231 = CARTESIAN_POINT('',(-9.125,65.15,-6.125));
#1232 = VECTOR('',#1233,1.);
#1233 = DIRECTION('',(0.,-1.,0.));
#1234 = ORIENTED_EDGE('',*,*,#321,.T.);
#1235 = ORIENTED_EDGE('',*,*,#1202,.F.);
#1236 = ORIENTED_EDGE('',*,*,#1237,.F.);
#1237 = EDGE_CURVE('',#1238,#1195,#1240,.T.);
#1238 = VERTEX_POINT('',#1239);
#1239 = CARTESIAN_POINT('',(-9.125,65.15,5.3));
#1240 = CIRCLE('',#1241,4.9);
#1241 = AXIS2_PLACEMENT_3D('',#1242,#1243,#1244);
#1242 = CARTESIAN_POINT('',(-9.125,60.25,5.3));
#1243 = DIRECTION('',(1.,0.,-7.8E-16));
#1244 = DIRECTION('',(7.8E-16,0.,1.));
#1245 = ORIENTED_EDGE('',*,*,#1246,.F.);
#1246 = EDGE_CURVE('',#1221,#1238,#1247,.T.);
#1247 = LINE('',#1248,#1249);
#1248 = CARTESIAN_POINT('',(-9.125,65.15,-6.125));
#1249 = VECTOR('',#1250,1.);
#1250 = DIRECTION('',(2.2E-16,0.,1.));
#1251 = PLANE('',#1252);
#1252 = AXIS2_PLACEMENT_3D('',#1253,#1254,#1255);
#1253 = CARTESIAN_POINT('',(-9.125,65.15,-6.125));
#1254 = DIRECTION('',(-1.,0.,1.1E-16));
#1255 = DIRECTION('',(1.1E-16,0.,1.));
#1256 = ADVANCED_FACE('',(#1257),#1268,.F.);
#1257 = FACE_BOUND('',#1258,.F.);
#1258 = EDGE_LOOP('',(#1259,#1265,#1266,#1267));
#1259 = ORIENTED_EDGE('',*,*,#1260,.T.);
#1260 = EDGE_CURVE('',#1219,#831,#1261,.T.);
#1261 = LINE('',#1262,#1263);
#1262 = CARTESIAN_POINT('',(-2.,65.080049171592,-6.125));
#1263 = VECTOR('',#1264,1.);
#1264 = DIRECTION('',(1.,0.,-7.8E-16));
#1265 = ORIENTED_EDGE('',*,*,#839,.T.);
#1266 = ORIENTED_EDGE('',*,*,#313,.F.);
#1267 = ORIENTED_EDGE('',*,*,#1229,.F.);
#1268 = PLANE('',#1269);
#1269 = AXIS2_PLACEMENT_3D('',#1270,#1271,#1272);
#1270 = CARTESIAN_POINT('',(-2.,65.15,-6.125));
#1271 = DIRECTION('',(-1.1E-16,0.,-1.));
#1272 = DIRECTION('',(-1.,0.,1.1E-16));
#1273 = ADVANCED_FACE('',(#1274),#1292,.T.);
#1274 = FACE_BOUND('',#1275,.T.);
#1275 = EDGE_LOOP('',(#1276,#1277,#1278,#1286));
#1276 = ORIENTED_EDGE('',*,*,#475,.T.);
#1277 = ORIENTED_EDGE('',*,*,#899,.T.);
#1278 = ORIENTED_EDGE('',*,*,#1279,.F.);
#1279 = EDGE_CURVE('',#1280,#892,#1282,.T.);
#1280 = VERTEX_POINT('',#1281);
#1281 = CARTESIAN_POINT('',(-5.5,6.05,-3.));
#1282 = LINE('',#1283,#1284);
#1283 = CARTESIAN_POINT('',(-5.5,6.05,-3.));
#1284 = VECTOR('',#1285,1.);
#1285 = DIRECTION('',(1.,2.2E-16,-2.2E-16));
#1286 = ORIENTED_EDGE('',*,*,#1287,.F.);
#1287 = EDGE_CURVE('',#467,#1280,#1288,.T.);
#1288 = LINE('',#1289,#1290);
#1289 = CARTESIAN_POINT('',(-5.5,20.05,-3.));
#1290 = VECTOR('',#1291,1.);
#1291 = DIRECTION('',(-0.,-1.,-2.22E-15));
#1292 = PLANE('',#1293);
#1293 = AXIS2_PLACEMENT_3D('',#1294,#1295,#1296);
#1294 = CARTESIAN_POINT('',(-3.75,13.05740293532,-3.));
#1295 = DIRECTION('',(-2.2E-16,2.32E-15,-1.));
#1296 = DIRECTION('',(0.,-1.,-2.32E-15));
#1297 = ADVANCED_FACE('',(#1298,#1317,#1328),#1339,.T.);
#1298 = FACE_BOUND('',#1299,.T.);
#1299 = EDGE_LOOP('',(#1300,#1301,#1302,#1310,#1316));
#1300 = ORIENTED_EDGE('',*,*,#466,.T.);
#1301 = ORIENTED_EDGE('',*,*,#1287,.T.);
#1302 = ORIENTED_EDGE('',*,*,#1303,.F.);
#1303 = EDGE_CURVE('',#1304,#1280,#1306,.T.);
#1304 = VERTEX_POINT('',#1305);
#1305 = CARTESIAN_POINT('',(-5.5,6.05,3.000000000021));
#1306 = LINE('',#1307,#1308);
#1307 = CARTESIAN_POINT('',(-5.5,6.05,3.000000000021));
#1308 = VECTOR('',#1309,1.);
#1309 = DIRECTION('',(-2.2E-16,2.22E-15,-1.));
#1310 = ORIENTED_EDGE('',*,*,#1311,.F.);
#1311 = EDGE_CURVE('',#500,#1304,#1312,.T.);
#1312 = LINE('',#1313,#1314);
#1313 = CARTESIAN_POINT('',(-5.5,20.05,3.000000000021));
#1314 = VECTOR('',#1315,1.);
#1315 = DIRECTION('',(-0.,-1.,-2.22E-15));
#1316 = ORIENTED_EDGE('',*,*,#507,.T.);
#1317 = FACE_BOUND('',#1318,.T.);
#1318 = EDGE_LOOP('',(#1319));
#1319 = ORIENTED_EDGE('',*,*,#1320,.F.);
#1320 = EDGE_CURVE('',#1321,#1321,#1323,.T.);
#1321 = VERTEX_POINT('',#1322);
#1322 = CARTESIAN_POINT('',(-5.5,9.539601355302,1.5));
#1323 = CIRCLE('',#1324,1.5);
#1324 = AXIS2_PLACEMENT_3D('',#1325,#1326,#1327);
#1325 = CARTESIAN_POINT('',(-5.5,9.539601355302,7.123E-14));
#1326 = DIRECTION('',(-1.,0.,3.3E-16));
#1327 = DIRECTION('',(3.3E-16,0.,1.));
#1328 = FACE_BOUND('',#1329,.T.);
#1329 = EDGE_LOOP('',(#1330));
#1330 = ORIENTED_EDGE('',*,*,#1331,.F.);
#1331 = EDGE_CURVE('',#1332,#1332,#1334,.T.);
#1332 = VERTEX_POINT('',#1333);
#1333 = CARTESIAN_POINT('',(-5.5,17.039601355302,1.5));
#1334 = CIRCLE('',#1335,1.5);
#1335 = AXIS2_PLACEMENT_3D('',#1336,#1337,#1338);
#1336 = CARTESIAN_POINT('',(-5.5,17.039601355302,7.123E-14));
#1337 = DIRECTION('',(-1.,0.,3.3E-16));
#1338 = DIRECTION('',(3.3E-16,0.,1.));
#1339 = PLANE('',#1340);
#1340 = AXIS2_PLACEMENT_3D('',#1341,#1342,#1343);
#1341 = CARTESIAN_POINT('',(-5.5,13.052707627829,-1.130358935231E-03));
#1342 = DIRECTION('',(-1.,0.,2.2E-16));
#1343 = DIRECTION('',(2.2E-16,0.,1.));
#1344 = ADVANCED_FACE('',(#1345),#1356,.F.);
#1345 = FACE_BOUND('',#1346,.F.);
#1346 = EDGE_LOOP('',(#1347,#1348,#1354,#1355));
#1347 = ORIENTED_EDGE('',*,*,#883,.T.);
#1348 = ORIENTED_EDGE('',*,*,#1349,.T.);
#1349 = EDGE_CURVE('',#884,#1304,#1350,.T.);
#1350 = LINE('',#1351,#1352);
#1351 = CARTESIAN_POINT('',(-2.,6.05,3.000000000021));
#1352 = VECTOR('',#1353,1.);
#1353 = DIRECTION('',(-1.,-2.2E-16,2.2E-16));
#1354 = ORIENTED_EDGE('',*,*,#1311,.F.);
#1355 = ORIENTED_EDGE('',*,*,#499,.F.);
#1356 = PLANE('',#1357);
#1357 = AXIS2_PLACEMENT_3D('',#1358,#1359,#1360);
#1358 = CARTESIAN_POINT('',(-2.,20.05,3.000000000021));
#1359 = DIRECTION('',(-1.1E-16,2.22E-15,-1.));
#1360 = DIRECTION('',(-1.,0.,1.1E-16));
#1361 = ADVANCED_FACE('',(#1362),#1373,.T.);
#1362 = FACE_BOUND('',#1363,.F.);
#1363 = EDGE_LOOP('',(#1364,#1365,#1366,#1372));
#1364 = ORIENTED_EDGE('',*,*,#596,.T.);
#1365 = ORIENTED_EDGE('',*,*,#999,.T.);
#1366 = ORIENTED_EDGE('',*,*,#1367,.F.);
#1367 = EDGE_CURVE('',#865,#1000,#1368,.T.);
#1368 = LINE('',#1369,#1370);
#1369 = CARTESIAN_POINT('',(-2.,51.45,19.));
#1370 = VECTOR('',#1371,1.);
#1371 = DIRECTION('',(-1.,0.,3.3E-16));
#1372 = ORIENTED_EDGE('',*,*,#873,.F.);
#1373 = CYLINDRICAL_SURFACE('',#1374,8.45);
#1374 = AXIS2_PLACEMENT_3D('',#1375,#1376,#1377);
#1375 = CARTESIAN_POINT('',(-2.,43.,19.));
#1376 = DIRECTION('',(1.,0.,-3.3E-16));
#1377 = DIRECTION('',(3.3E-16,0.,1.));
#1378 = ADVANCED_FACE('',(#1379),#1390,.T.);
#1379 = FACE_BOUND('',#1380,.F.);
#1380 = EDGE_LOOP('',(#1381,#1382,#1388,#1389));
#1381 = ORIENTED_EDGE('',*,*,#752,.T.);
#1382 = ORIENTED_EDGE('',*,*,#1383,.T.);
#1383 = EDGE_CURVE('',#753,#984,#1384,.T.);
#1384 = LINE('',#1385,#1386);
#1385 = CARTESIAN_POINT('',(-2.,20.05,19.));
#1386 = VECTOR('',#1387,1.);
#1387 = DIRECTION('',(-1.,0.,3.3E-16));
#1388 = ORIENTED_EDGE('',*,*,#991,.T.);
#1389 = ORIENTED_EDGE('',*,*,#580,.F.);
#1390 = CYLINDRICAL_SURFACE('',#1391,8.45);
#1391 = AXIS2_PLACEMENT_3D('',#1392,#1393,#1394);
#1392 = CARTESIAN_POINT('',(-2.,28.5,19.));
#1393 = DIRECTION('',(1.,0.,-3.3E-16));
#1394 = DIRECTION('',(3.3E-16,0.,1.));
#1395 = ADVANCED_FACE('',(#1396),#1407,.F.);
#1396 = FACE_BOUND('',#1397,.T.);
#1397 = EDGE_LOOP('',(#1398,#1399,#1400,#1406));
#1398 = ORIENTED_EDGE('',*,*,#712,.T.);
#1399 = ORIENTED_EDGE('',*,*,#1051,.T.);
#1400 = ORIENTED_EDGE('',*,*,#1401,.F.);
#1401 = EDGE_CURVE('',#822,#1043,#1402,.T.);
#1402 = LINE('',#1403,#1404);
#1403 = CARTESIAN_POINT('',(-2.,60.250000006478,-10.2));
#1404 = VECTOR('',#1405,1.);
#1405 = DIRECTION('',(-1.,0.,3.3E-16));
#1406 = ORIENTED_EDGE('',*,*,#821,.F.);
#1407 = CYLINDRICAL_SURFACE('',#1408,6.8);
#1408 = AXIS2_PLACEMENT_3D('',#1409,#1410,#1411);
#1409 = CARTESIAN_POINT('',(-2.,60.25,-17.));
#1410 = DIRECTION('',(1.,0.,-3.3E-16));
#1411 = DIRECTION('',(3.3E-16,0.,1.));
#1412 = ADVANCED_FACE('',(#1413),#1424,.F.);
#1413 = FACE_BOUND('',#1414,.T.);
#1414 = EDGE_LOOP('',(#1415,#1416,#1422,#1423));
#1415 = ORIENTED_EDGE('',*,*,#778,.T.);
#1416 = ORIENTED_EDGE('',*,*,#1417,.T.);
#1417 = EDGE_CURVE('',#770,#942,#1418,.T.);
#1418 = LINE('',#1419,#1420);
#1419 = CARTESIAN_POINT('',(-2.,28.5,-10.95));
#1420 = VECTOR('',#1421,1.);
#1421 = DIRECTION('',(-1.,0.,3.3E-16));
#1422 = ORIENTED_EDGE('',*,*,#941,.T.);
#1423 = ORIENTED_EDGE('',*,*,#728,.F.);
#1424 = CYLINDRICAL_SURFACE('',#1425,6.05);
#1425 = AXIS2_PLACEMENT_3D('',#1426,#1427,#1428);
#1426 = CARTESIAN_POINT('',(-2.,28.5,-17.));
#1427 = DIRECTION('',(1.,0.,-3.3E-16));
#1428 = DIRECTION('',(3.3E-16,0.,1.));
#1429 = ADVANCED_FACE('',(#1430),#1458,.T.);
#1430 = FACE_BOUND('',#1431,.F.);
#1431 = EDGE_LOOP('',(#1432,#1440,#1441,#1442,#1443,#1451));
#1432 = ORIENTED_EDGE('',*,*,#1433,.F.);
#1433 = EDGE_CURVE('',#762,#1434,#1436,.T.);
#1434 = VERTEX_POINT('',#1435);
#1435 = CARTESIAN_POINT('',(-21.5,20.05,-2.5));
#1436 = LINE('',#1437,#1438);
#1437 = CARTESIAN_POINT('',(-2.,20.05,-2.5));
#1438 = VECTOR('',#1439,1.);
#1439 = DIRECTION('',(-1.,0.,3.3E-16));
#1440 = ORIENTED_EDGE('',*,*,#769,.T.);
#1441 = ORIENTED_EDGE('',*,*,#1417,.T.);
#1442 = ORIENTED_EDGE('',*,*,#950,.T.);
#1443 = ORIENTED_EDGE('',*,*,#1444,.T.);
#1444 = EDGE_CURVE('',#951,#1445,#1447,.T.);
#1445 = VERTEX_POINT('',#1446);
#1446 = CARTESIAN_POINT('',(-21.5,20.064805870639,-3.));
#1447 = LINE('',#1448,#1449);
#1448 = CARTESIAN_POINT('',(-2.,20.064805870639,-3.));
#1449 = VECTOR('',#1450,1.);
#1450 = DIRECTION('',(1.,0.,-1.E-15));
#1451 = ORIENTED_EDGE('',*,*,#1452,.F.);
#1452 = EDGE_CURVE('',#1434,#1445,#1453,.T.);
#1453 = CIRCLE('',#1454,8.45);
#1454 = AXIS2_PLACEMENT_3D('',#1455,#1456,#1457);
#1455 = CARTESIAN_POINT('',(-21.5,28.5,-2.5));
#1456 = DIRECTION('',(1.,0.,-1.E-15));
#1457 = DIRECTION('',(1.E-15,0.,1.));
#1458 = CYLINDRICAL_SURFACE('',#1459,8.45);
#1459 = AXIS2_PLACEMENT_3D('',#1460,#1461,#1462);
#1460 = CARTESIAN_POINT('',(-2.,28.5,-2.5));
#1461 = DIRECTION('',(1.,0.,-3.3E-16));
#1462 = DIRECTION('',(3.3E-16,0.,1.));
#1463 = ADVANCED_FACE('',(#1464),#1484,.F.);
#1464 = FACE_BOUND('',#1465,.F.);
#1465 = EDGE_LOOP('',(#1466,#1467,#1468,#1469,#1477,#1483));
#1466 = ORIENTED_EDGE('',*,*,#1383,.F.);
#1467 = ORIENTED_EDGE('',*,*,#761,.T.);
#1468 = ORIENTED_EDGE('',*,*,#1433,.T.);
#1469 = ORIENTED_EDGE('',*,*,#1470,.T.);
#1470 = EDGE_CURVE('',#1434,#1471,#1473,.T.);
#1471 = VERTEX_POINT('',#1472);
#1472 = CARTESIAN_POINT('',(-21.5,20.05,3.));
#1473 = LINE('',#1474,#1475);
#1474 = CARTESIAN_POINT('',(-21.5,20.05,-3.));
#1475 = VECTOR('',#1476,1.);
#1476 = DIRECTION('',(2.2E-16,-2.22E-15,1.));
#1477 = ORIENTED_EDGE('',*,*,#1478,.T.);
#1478 = EDGE_CURVE('',#1471,#976,#1479,.T.);
#1479 = LINE('',#1480,#1481);
#1480 = CARTESIAN_POINT('',(-21.5,20.05,3.));
#1481 = VECTOR('',#1482,1.);
#1482 = DIRECTION('',(-1.,-2.2E-16,2.2E-16));
#1483 = ORIENTED_EDGE('',*,*,#983,.T.);
#1484 = PLANE('',#1485);
#1485 = AXIS2_PLACEMENT_3D('',#1486,#1487,#1488);
#1486 = CARTESIAN_POINT('',(-2.,20.05,-2.5));
#1487 = DIRECTION('',(0.,1.,2.31E-15));
#1488 = DIRECTION('',(3.3E-16,-2.31E-15,1.));
#1489 = ADVANCED_FACE('',(#1490),#1501,.F.);
#1490 = FACE_BOUND('',#1491,.T.);
#1491 = EDGE_LOOP('',(#1492,#1493,#1499,#1500));
#1492 = ORIENTED_EDGE('',*,*,#790,.T.);
#1493 = ORIENTED_EDGE('',*,*,#1494,.T.);
#1494 = EDGE_CURVE('',#791,#1095,#1495,.T.);
#1495 = LINE('',#1496,#1497);
#1496 = CARTESIAN_POINT('',(-2.,28.5,20.49999995374));
#1497 = VECTOR('',#1498,1.);
#1498 = DIRECTION('',(-1.,0.,3.3E-16));
#1499 = ORIENTED_EDGE('',*,*,#1094,.T.);
#1500 = ORIENTED_EDGE('',*,*,#1494,.F.);
#1501 = CYLINDRICAL_SURFACE('',#1502,1.49999995374);
#1502 = AXIS2_PLACEMENT_3D('',#1503,#1504,#1505);
#1503 = CARTESIAN_POINT('',(-2.,28.5,19.));
#1504 = DIRECTION('',(1.,0.,-3.3E-16));
#1505 = DIRECTION('',(3.3E-16,0.,1.));
#1506 = ADVANCED_FACE('',(#1507),#1518,.F.);
#1507 = FACE_BOUND('',#1508,.T.);
#1508 = EDGE_LOOP('',(#1509,#1510,#1516,#1517));
#1509 = ORIENTED_EDGE('',*,*,#801,.T.);
#1510 = ORIENTED_EDGE('',*,*,#1511,.T.);
#1511 = EDGE_CURVE('',#802,#1084,#1512,.T.);
#1512 = LINE('',#1513,#1514);
#1513 = CARTESIAN_POINT('',(-2.,28.5,-0.999999989518));
#1514 = VECTOR('',#1515,1.);
#1515 = DIRECTION('',(-1.,0.,3.3E-16));
#1516 = ORIENTED_EDGE('',*,*,#1083,.T.);
#1517 = ORIENTED_EDGE('',*,*,#1511,.F.);
#1518 = CYLINDRICAL_SURFACE('',#1519,1.500000010482);
#1519 = AXIS2_PLACEMENT_3D('',#1520,#1521,#1522);
#1520 = CARTESIAN_POINT('',(-2.,28.5,-2.5));
#1521 = DIRECTION('',(1.,0.,-3.3E-16));
#1522 = DIRECTION('',(3.3E-16,0.,1.));
#1523 = ADVANCED_FACE('',(#1524),#1530,.F.);
#1524 = FACE_BOUND('',#1525,.T.);
#1525 = EDGE_LOOP('',(#1526,#1527,#1528,#1529));
#1526 = ORIENTED_EDGE('',*,*,#1349,.T.);
#1527 = ORIENTED_EDGE('',*,*,#1303,.T.);
#1528 = ORIENTED_EDGE('',*,*,#1279,.T.);
#1529 = ORIENTED_EDGE('',*,*,#891,.T.);
#1530 = PLANE('',#1531);
#1531 = AXIS2_PLACEMENT_3D('',#1532,#1533,#1534);
#1532 = CARTESIAN_POINT('',(-13.49999999998,6.05,5.236699962552E-12));
#1533 = DIRECTION('',(0.,1.,2.37E-15));
#1534 = DIRECTION('',(2.2E-16,-2.37E-15,1.));
#1535 = ADVANCED_FACE('',(#1536),#1551,.T.);
#1536 = FACE_BOUND('',#1537,.F.);
#1537 = EDGE_LOOP('',(#1538,#1539,#1545,#1546,#1547,#1548,#1549,#1550));
#1538 = ORIENTED_EDGE('',*,*,#1218,.T.);
#1539 = ORIENTED_EDGE('',*,*,#1540,.T.);
#1540 = EDGE_CURVE('',#1221,#1155,#1541,.T.);
#1541 = LINE('',#1542,#1543);
#1542 = CARTESIAN_POINT('',(-2.,65.15,-5.3));
#1543 = VECTOR('',#1544,1.);
#1544 = DIRECTION('',(-1.,0.,3.3E-16));
#1545 = ORIENTED_EDGE('',*,*,#1154,.F.);
#1546 = ORIENTED_EDGE('',*,*,#1111,.F.);
#1547 = ORIENTED_EDGE('',*,*,#1042,.T.);
#1548 = ORIENTED_EDGE('',*,*,#1401,.F.);
#1549 = ORIENTED_EDGE('',*,*,#830,.F.);
#1550 = ORIENTED_EDGE('',*,*,#1260,.F.);
#1551 = CYLINDRICAL_SURFACE('',#1552,4.9);
#1552 = AXIS2_PLACEMENT_3D('',#1553,#1554,#1555);
#1553 = CARTESIAN_POINT('',(-2.,60.25,-5.3));
#1554 = DIRECTION('',(1.,0.,-3.3E-16));
#1555 = DIRECTION('',(3.3E-16,0.,1.));
#1556 = ADVANCED_FACE('',(#1557),#1568,.F.);
#1557 = FACE_BOUND('',#1558,.T.);
#1558 = EDGE_LOOP('',(#1559,#1565,#1566,#1567));
#1559 = ORIENTED_EDGE('',*,*,#1560,.T.);
#1560 = EDGE_CURVE('',#856,#1009,#1561,.T.);
#1561 = LINE('',#1562,#1563);
#1562 = CARTESIAN_POINT('',(-2.,60.250000005195,10.2));
#1563 = VECTOR('',#1564,1.);
#1564 = DIRECTION('',(-1.,0.,3.3E-16));
#1565 = ORIENTED_EDGE('',*,*,#1008,.T.);
#1566 = ORIENTED_EDGE('',*,*,#1367,.F.);
#1567 = ORIENTED_EDGE('',*,*,#864,.F.);
#1568 = CYLINDRICAL_SURFACE('',#1569,8.8);
#1569 = AXIS2_PLACEMENT_3D('',#1570,#1571,#1572);
#1570 = CARTESIAN_POINT('',(-2.,60.25,19.));
#1571 = DIRECTION('',(1.,0.,-3.3E-16));
#1572 = DIRECTION('',(3.3E-16,0.,1.));
#1573 = ADVANCED_FACE('',(#1574),#1589,.T.);
#1574 = FACE_BOUND('',#1575,.F.);
#1575 = EDGE_LOOP('',(#1576,#1577,#1578,#1579,#1580,#1581,#1587,#1588));
#1576 = ORIENTED_EDGE('',*,*,#855,.F.);
#1577 = ORIENTED_EDGE('',*,*,#1560,.T.);
#1578 = ORIENTED_EDGE('',*,*,#1017,.T.);
#1579 = ORIENTED_EDGE('',*,*,#1177,.T.);
#1580 = ORIENTED_EDGE('',*,*,#1135,.F.);
#1581 = ORIENTED_EDGE('',*,*,#1582,.F.);
#1582 = EDGE_CURVE('',#1238,#1136,#1583,.T.);
#1583 = LINE('',#1584,#1585);
#1584 = CARTESIAN_POINT('',(-2.,65.15,5.3));
#1585 = VECTOR('',#1586,1.);
#1586 = DIRECTION('',(-1.,0.,3.3E-16));
#1587 = ORIENTED_EDGE('',*,*,#1237,.T.);
#1588 = ORIENTED_EDGE('',*,*,#1194,.T.);
#1589 = CYLINDRICAL_SURFACE('',#1590,4.9);
#1590 = AXIS2_PLACEMENT_3D('',#1591,#1592,#1593);
#1591 = CARTESIAN_POINT('',(-2.,60.25,5.3));
#1592 = DIRECTION('',(1.,0.,-3.3E-16));
#1593 = DIRECTION('',(3.3E-16,0.,1.));
#1594 = ADVANCED_FACE('',(#1595),#1606,.F.);
#1595 = FACE_BOUND('',#1596,.F.);
#1596 = EDGE_LOOP('',(#1597,#1598,#1604,#1605));
#1597 = ORIENTED_EDGE('',*,*,#1320,.F.);
#1598 = ORIENTED_EDGE('',*,*,#1599,.T.);
#1599 = EDGE_CURVE('',#1321,#908,#1600,.T.);
#1600 = LINE('',#1601,#1602);
#1601 = CARTESIAN_POINT('',(-25.,9.539601355302,1.5));
#1602 = VECTOR('',#1603,1.);
#1603 = DIRECTION('',(1.,0.,-3.3E-16));
#1604 = ORIENTED_EDGE('',*,*,#907,.T.);
#1605 = ORIENTED_EDGE('',*,*,#1599,.F.);
#1606 = CYLINDRICAL_SURFACE('',#1607,1.5);
#1607 = AXIS2_PLACEMENT_3D('',#1608,#1609,#1610);
#1608 = CARTESIAN_POINT('',(-25.,9.539601355302,7.773E-14));
#1609 = DIRECTION('',(-1.,0.,3.3E-16));
#1610 = DIRECTION('',(3.3E-16,0.,1.));
#1611 = ADVANCED_FACE('',(#1612),#1623,.F.);
#1612 = FACE_BOUND('',#1613,.F.);
#1613 = EDGE_LOOP('',(#1614,#1615,#1621,#1622));
#1614 = ORIENTED_EDGE('',*,*,#1331,.F.);
#1615 = ORIENTED_EDGE('',*,*,#1616,.T.);
#1616 = EDGE_CURVE('',#1332,#919,#1617,.T.);
#1617 = LINE('',#1618,#1619);
#1618 = CARTESIAN_POINT('',(-25.,17.039601355302,1.5));
#1619 = VECTOR('',#1620,1.);
#1620 = DIRECTION('',(1.,0.,-3.3E-16));
#1621 = ORIENTED_EDGE('',*,*,#918,.T.);
#1622 = ORIENTED_EDGE('',*,*,#1616,.F.);
#1623 = CYLINDRICAL_SURFACE('',#1624,1.5);
#1624 = AXIS2_PLACEMENT_3D('',#1625,#1626,#1627);
#1625 = CARTESIAN_POINT('',(-25.,17.039601355302,7.773E-14));
#1626 = DIRECTION('',(-1.,0.,3.3E-16));
#1627 = DIRECTION('',(3.3E-16,0.,1.));
#1628 = ADVANCED_FACE('',(#1629),#1647,.T.);
#1629 = FACE_BOUND('',#1630,.T.);
#1630 = EDGE_LOOP('',(#1631,#1632,#1633,#1641));
#1631 = ORIENTED_EDGE('',*,*,#959,.T.);
#1632 = ORIENTED_EDGE('',*,*,#1444,.T.);
#1633 = ORIENTED_EDGE('',*,*,#1634,.F.);
#1634 = EDGE_CURVE('',#1635,#1445,#1637,.T.);
#1635 = VERTEX_POINT('',#1636);
#1636 = CARTESIAN_POINT('',(-21.5,6.05,-3.));
#1637 = LINE('',#1638,#1639);
#1638 = CARTESIAN_POINT('',(-21.5,20.05,-3.));
#1639 = VECTOR('',#1640,1.);
#1640 = DIRECTION('',(-1.1E-16,1.,2.33E-15));
#1641 = ORIENTED_EDGE('',*,*,#1642,.F.);
#1642 = EDGE_CURVE('',#960,#1635,#1643,.T.);
#1643 = LINE('',#1644,#1645);
#1644 = CARTESIAN_POINT('',(-25.,6.05,-3.));
#1645 = VECTOR('',#1646,1.);
#1646 = DIRECTION('',(1.,2.2E-16,-2.2E-16));
#1647 = PLANE('',#1648);
#1648 = AXIS2_PLACEMENT_3D('',#1649,#1650,#1651);
#1649 = CARTESIAN_POINT('',(-23.25,13.05740293532,-3.));
#1650 = DIRECTION('',(-2.2E-16,2.53E-15,-1.));
#1651 = DIRECTION('',(0.,-1.,-2.53E-15));
#1652 = ADVANCED_FACE('',(#1653),#1671,.F.);
#1653 = FACE_BOUND('',#1654,.T.);
#1654 = EDGE_LOOP('',(#1655,#1656,#1657,#1665));
#1655 = ORIENTED_EDGE('',*,*,#967,.T.);
#1656 = ORIENTED_EDGE('',*,*,#1642,.T.);
#1657 = ORIENTED_EDGE('',*,*,#1658,.T.);
#1658 = EDGE_CURVE('',#1635,#1659,#1661,.T.);
#1659 = VERTEX_POINT('',#1660);
#1660 = CARTESIAN_POINT('',(-21.5,6.05,3.));
#1661 = LINE('',#1662,#1663);
#1662 = CARTESIAN_POINT('',(-21.5,6.05,-3.));
#1663 = VECTOR('',#1664,1.);
#1664 = DIRECTION('',(2.2E-16,-2.22E-15,1.));
#1665 = ORIENTED_EDGE('',*,*,#1666,.T.);
#1666 = EDGE_CURVE('',#1659,#968,#1667,.T.);
#1667 = LINE('',#1668,#1669);
#1668 = CARTESIAN_POINT('',(-21.5,6.05,3.));
#1669 = VECTOR('',#1670,1.);
#1670 = DIRECTION('',(-1.,-2.2E-16,2.2E-16));
#1671 = PLANE('',#1672);
#1672 = AXIS2_PLACEMENT_3D('',#1673,#1674,#1675);
#1673 = CARTESIAN_POINT('',(-13.49999999998,6.05,5.236699962552E-12));
#1674 = DIRECTION('',(0.,1.,2.37E-15));
#1675 = DIRECTION('',(2.2E-16,-2.37E-15,1.));
#1676 = ADVANCED_FACE('',(#1677),#1688,.F.);
#1677 = FACE_BOUND('',#1678,.F.);
#1678 = EDGE_LOOP('',(#1679,#1685,#1686,#1687));
#1679 = ORIENTED_EDGE('',*,*,#1680,.T.);
#1680 = EDGE_CURVE('',#1471,#1659,#1681,.T.);
#1681 = LINE('',#1682,#1683);
#1682 = CARTESIAN_POINT('',(-21.5,20.05,3.));
#1683 = VECTOR('',#1684,1.);
#1684 = DIRECTION('',(-0.,-1.,-2.22E-15));
#1685 = ORIENTED_EDGE('',*,*,#1666,.T.);
#1686 = ORIENTED_EDGE('',*,*,#975,.F.);
#1687 = ORIENTED_EDGE('',*,*,#1478,.F.);
#1688 = PLANE('',#1689);
#1689 = AXIS2_PLACEMENT_3D('',#1690,#1691,#1692);
#1690 = CARTESIAN_POINT('',(-21.5,20.05,3.));
#1691 = DIRECTION('',(-1.1E-16,2.22E-15,-1.));
#1692 = DIRECTION('',(-1.,0.,1.1E-16));
#1693 = ADVANCED_FACE('',(#1694),#1713,.F.);
#1694 = FACE_BOUND('',#1695,.F.);
#1695 = EDGE_LOOP('',(#1696,#1697,#1705,#1712));
#1696 = ORIENTED_EDGE('',*,*,#1061,.F.);
#1697 = ORIENTED_EDGE('',*,*,#1698,.T.);
#1698 = EDGE_CURVE('',#1062,#1699,#1701,.T.);
#1699 = VERTEX_POINT('',#1700);
#1700 = CARTESIAN_POINT('',(-21.5,9.539601355302,1.5));
#1701 = LINE('',#1702,#1703);
#1702 = CARTESIAN_POINT('',(-25.,9.539601355302,1.5));
#1703 = VECTOR('',#1704,1.);
#1704 = DIRECTION('',(1.,0.,-3.3E-16));
#1705 = ORIENTED_EDGE('',*,*,#1706,.T.);
#1706 = EDGE_CURVE('',#1699,#1699,#1707,.T.);
#1707 = CIRCLE('',#1708,1.5);
#1708 = AXIS2_PLACEMENT_3D('',#1709,#1710,#1711);
#1709 = CARTESIAN_POINT('',(-21.5,9.539601355302,7.656E-14));
#1710 = DIRECTION('',(-1.,0.,3.3E-16));
#1711 = DIRECTION('',(3.3E-16,0.,1.));
#1712 = ORIENTED_EDGE('',*,*,#1698,.F.);
#1713 = CYLINDRICAL_SURFACE('',#1714,1.5);
#1714 = AXIS2_PLACEMENT_3D('',#1715,#1716,#1717);
#1715 = CARTESIAN_POINT('',(-25.,9.539601355302,7.773E-14));
#1716 = DIRECTION('',(-1.,0.,3.3E-16));
#1717 = DIRECTION('',(3.3E-16,0.,1.));
#1718 = ADVANCED_FACE('',(#1719),#1738,.F.);
#1719 = FACE_BOUND('',#1720,.F.);
#1720 = EDGE_LOOP('',(#1721,#1722,#1730,#1737));
#1721 = ORIENTED_EDGE('',*,*,#1072,.F.);
#1722 = ORIENTED_EDGE('',*,*,#1723,.T.);
#1723 = EDGE_CURVE('',#1073,#1724,#1726,.T.);
#1724 = VERTEX_POINT('',#1725);
#1725 = CARTESIAN_POINT('',(-21.5,17.039601355302,1.5));
#1726 = LINE('',#1727,#1728);
#1727 = CARTESIAN_POINT('',(-25.,17.039601355302,1.5));
#1728 = VECTOR('',#1729,1.);
#1729 = DIRECTION('',(1.,0.,-3.3E-16));
#1730 = ORIENTED_EDGE('',*,*,#1731,.T.);
#1731 = EDGE_CURVE('',#1724,#1724,#1732,.T.);
#1732 = CIRCLE('',#1733,1.5);
#1733 = AXIS2_PLACEMENT_3D('',#1734,#1735,#1736);
#1734 = CARTESIAN_POINT('',(-21.5,17.039601355302,7.656E-14));
#1735 = DIRECTION('',(-1.,0.,3.3E-16));
#1736 = DIRECTION('',(3.3E-16,0.,1.));
#1737 = ORIENTED_EDGE('',*,*,#1723,.F.);
#1738 = CYLINDRICAL_SURFACE('',#1739,1.5);
#1739 = AXIS2_PLACEMENT_3D('',#1740,#1741,#1742);
#1740 = CARTESIAN_POINT('',(-25.,17.039601355302,7.773E-14));
#1741 = DIRECTION('',(-1.,0.,3.3E-16));
#1742 = DIRECTION('',(3.3E-16,0.,1.));
#1743 = ADVANCED_FACE('',(#1744),#1750,.T.);
#1744 = FACE_BOUND('',#1745,.T.);
#1745 = EDGE_LOOP('',(#1746,#1747,#1748,#1749));
#1746 = ORIENTED_EDGE('',*,*,#1246,.F.);
#1747 = ORIENTED_EDGE('',*,*,#1540,.T.);
#1748 = ORIENTED_EDGE('',*,*,#1163,.F.);
#1749 = ORIENTED_EDGE('',*,*,#1582,.F.);
#1750 = PLANE('',#1751);
#1751 = AXIS2_PLACEMENT_3D('',#1752,#1753,#1754);
#1752 = CARTESIAN_POINT('',(-2.,65.15,-5.3));
#1753 = DIRECTION('',(0.,1.,0.));
#1754 = DIRECTION('',(3.3E-16,0.,1.));
#1755 = ADVANCED_FACE('',(#1756,#1763,#1766),#1769,.T.);
#1756 = FACE_BOUND('',#1757,.T.);
#1757 = EDGE_LOOP('',(#1758,#1759,#1760,#1761,#1762));
#1758 = ORIENTED_EDGE('',*,*,#1634,.T.);
#1759 = ORIENTED_EDGE('',*,*,#1452,.F.);
#1760 = ORIENTED_EDGE('',*,*,#1470,.T.);
#1761 = ORIENTED_EDGE('',*,*,#1680,.T.);
#1762 = ORIENTED_EDGE('',*,*,#1658,.F.);
#1763 = FACE_BOUND('',#1764,.T.);
#1764 = EDGE_LOOP('',(#1765));
#1765 = ORIENTED_EDGE('',*,*,#1706,.T.);
#1766 = FACE_BOUND('',#1767,.T.);
#1767 = EDGE_LOOP('',(#1768));
#1768 = ORIENTED_EDGE('',*,*,#1731,.T.);
#1769 = PLANE('',#1770);
#1770 = AXIS2_PLACEMENT_3D('',#1771,#1772,#1773);
#1771 = CARTESIAN_POINT('',(-21.5,13.052707627829,-1.13035894581E-03));
#1772 = DIRECTION('',(1.,0.,-2.2E-16));
#1773 = DIRECTION('',(-2.2E-16,0.,-1.));
#1774 = ( GEOMETRIC_REPRESENTATION_CONTEXT(3) 
GLOBAL_UNCERTAINTY_ASSIGNED_CONTEXT((#1778)) 
GLOBAL_UNIT_ASSIGNED_CONTEXT((#1775,#1776,#1777)) REPRESENTATION_CONTEXT
('Context #1','3D Context with UNIT and UNCERTAINTY') );
#1775 = ( LENGTH_UNIT() NAMED_UNIT(*) SI_UNIT(.MILLI.,.METRE.) );
#1776 = ( NAMED_UNIT(*) PLANE_ANGLE_UNIT() SI_UNIT($,.RADIAN.) );
#1777 = ( NAMED_UNIT(*) SI_UNIT($,.STERADIAN.) SOLID_ANGLE_UNIT() );
#1778 = UNCERTAINTY_MEASURE_WITH_UNIT(LENGTH_MEASURE(1.E-04),#1775,
  'distance_accuracy_value','confusion accuracy');
#1779 = PRODUCT_RELATED_PRODUCT_CATEGORY('part',$,(#7));
#1780 = MECHANICAL_DESIGN_GEOMETRIC_PRESENTATION_REPRESENTATION('',(
    #1781),#1774);
#1781 = STYLED_ITEM('color',(#1782),#15);
#1782 = PRESENTATION_STYLE_ASSIGNMENT((#1783,#1789));
#1783 = SURFACE_STYLE_USAGE(.BOTH.,#1784);
#1784 = SURFACE_SIDE_STYLE('',(#1785));
#1785 = SURFACE_STYLE_FILL_AREA(#1786);
#1786 = FILL_AREA_STYLE('',(#1787));
#1787 = FILL_AREA_STYLE_COLOUR('',#1788);
#1788 = COLOUR_RGB('',0.447058818107,0.474509808674,0.501960817233);
#1789 = CURVE_STYLE('',#1790,POSITIVE_LENGTH_MEASURE(0.1),#1791);
#1790 = DRAUGHTING_PRE_DEFINED_CURVE_FONT('continuous');
#1791 = COLOUR_RGB('',9.803921802644E-02,9.803921802644E-02,
  9.803921802644E-02);
ENDSEC;
END-ISO-10303-21;
