ISO-10303-21;
HEADER;
FILE_DESCRIPTION(('FreeCAD Model'),'2;1');
FILE_NAME('Open CASCADE Shape Model','2025-11-04T09:14:11',(''),(''),
  'Open CASCADE STEP processor 7.9','FreeCAD','Unknown');
FILE_SCHEMA(('AUTOMOTIVE_DESIGN { 1 0 10303 214 1 1 1 1 }'));
ENDSEC;
DATA;
#1 = APPLICATION_PROTOCOL_DEFINITION('international standard',
  'automotive_design',2000,#2);
#2 = APPLICATION_CONTEXT(
  'core data for automotive mechanical design processes');
#3 = SHAPE_DEFINITION_REPRESENTATION(#4,#10);
#4 = PRODUCT_DEFINITION_SHAPE('','',#5);
#5 = PRODUCT_DEFINITION('design','',#6,#9);
#6 = PRODUCT_DEFINITION_FORMATION('','',#7);
#7 = PRODUCT('zMotorHolder','zMotorHolder','',(#8));
#8 = PRODUCT_CONTEXT('',#2,'mechanical');
#9 = PRODUCT_DEFINITION_CONTEXT('part definition',#2,'design');
#10 = ADVANCED_BREP_SHAPE_REPRESENTATION('',(#11,#15),#1074);
#11 = AXIS2_PLACEMENT_3D('',#12,#13,#14);
#12 = CARTESIAN_POINT('',(0.,0.,0.));
#13 = DIRECTION('',(0.,0.,1.));
#14 = DIRECTION('',(1.,0.,-0.));
#15 = MANIFOLD_SOLID_BREP('',#16);
#16 = CLOSED_SHELL('',(#17,#192,#239,#263,#294,#318,#359,#383,#423,#447,
    #478,#539,#580,#597,#622,#647,#672,#697,#722,#763,#797,#814,#831,
    #848,#893,#925,#942,#969,#994,#1006,#1040,#1057));
#17 = ADVANCED_FACE('',(#18,#132,#143,#154,#165,#176),#187,.F.);
#18 = FACE_BOUND('',#19,.F.);
#19 = EDGE_LOOP('',(#20,#30,#38,#46,#54,#62,#70,#78,#86,#94,#102,#110,
    #118,#126));
#20 = ORIENTED_EDGE('',*,*,#21,.T.);
#21 = EDGE_CURVE('',#22,#24,#26,.T.);
#22 = VERTEX_POINT('',#23);
#23 = CARTESIAN_POINT('',(14.,28.85,-27.15));
#24 = VERTEX_POINT('',#25);
#25 = CARTESIAN_POINT('',(14.,28.9,-27.15));
#26 = LINE('',#27,#28);
#27 = CARTESIAN_POINT('',(14.,22.85,-27.15));
#28 = VECTOR('',#29,1.);
#29 = DIRECTION('',(0.,1.,0.));
#30 = ORIENTED_EDGE('',*,*,#31,.T.);
#31 = EDGE_CURVE('',#24,#32,#34,.T.);
#32 = VERTEX_POINT('',#33);
#33 = CARTESIAN_POINT('',(14.,28.9,-21.15));
#34 = LINE('',#35,#36);
#35 = CARTESIAN_POINT('',(14.,28.9,-27.15));
#36 = VECTOR('',#37,1.);
#37 = DIRECTION('',(4.4E-16,0.,1.));
#38 = ORIENTED_EDGE('',*,*,#39,.F.);
#39 = EDGE_CURVE('',#40,#32,#42,.T.);
#40 = VERTEX_POINT('',#41);
#41 = CARTESIAN_POINT('',(14.,38.9,-21.15));
#42 = LINE('',#43,#44);
#43 = CARTESIAN_POINT('',(14.,42.083888077694,-21.15));
#44 = VECTOR('',#45,1.);
#45 = DIRECTION('',(0.,-1.,0.));
#46 = ORIENTED_EDGE('',*,*,#47,.T.);
#47 = EDGE_CURVE('',#40,#48,#50,.T.);
#48 = VERTEX_POINT('',#49);
#49 = CARTESIAN_POINT('',(14.,61.65,-21.15));
#50 = LINE('',#51,#52);
#51 = CARTESIAN_POINT('',(14.,38.9,-21.15));
#52 = VECTOR('',#53,1.);
#53 = DIRECTION('',(0.,1.,0.));
#54 = ORIENTED_EDGE('',*,*,#55,.T.);
#55 = EDGE_CURVE('',#48,#56,#58,.T.);
#56 = VERTEX_POINT('',#57);
#57 = CARTESIAN_POINT('',(14.,65.15,-17.65));
#58 = LINE('',#59,#60);
#59 = CARTESIAN_POINT('',(14.,61.65,-21.15));
#60 = VECTOR('',#61,1.);
#61 = DIRECTION('',(1.6E-16,0.707106781187,0.707106781187));
#62 = ORIENTED_EDGE('',*,*,#63,.T.);
#63 = EDGE_CURVE('',#56,#64,#66,.T.);
#64 = VERTEX_POINT('',#65);
#65 = CARTESIAN_POINT('',(14.,65.15,17.65));
#66 = LINE('',#67,#68);
#67 = CARTESIAN_POINT('',(14.,65.15,-17.65));
#68 = VECTOR('',#69,1.);
#69 = DIRECTION('',(2.2E-16,0.,1.));
#70 = ORIENTED_EDGE('',*,*,#71,.T.);
#71 = EDGE_CURVE('',#64,#72,#74,.T.);
#72 = VERTEX_POINT('',#73);
#73 = CARTESIAN_POINT('',(14.,61.65,21.15));
#74 = LINE('',#75,#76);
#75 = CARTESIAN_POINT('',(14.,65.15,17.65));
#76 = VECTOR('',#77,1.);
#77 = DIRECTION('',(1.6E-16,-0.707106781187,0.707106781187));
#78 = ORIENTED_EDGE('',*,*,#79,.T.);
#79 = EDGE_CURVE('',#72,#80,#82,.T.);
#80 = VERTEX_POINT('',#81);
#81 = CARTESIAN_POINT('',(14.,38.9,21.15));
#82 = LINE('',#83,#84);
#83 = CARTESIAN_POINT('',(14.,61.65,21.15));
#84 = VECTOR('',#85,1.);
#85 = DIRECTION('',(0.,-1.,0.));
#86 = ORIENTED_EDGE('',*,*,#87,.T.);
#87 = EDGE_CURVE('',#80,#88,#90,.T.);
#88 = VERTEX_POINT('',#89);
#89 = CARTESIAN_POINT('',(14.,28.9,21.15));
#90 = LINE('',#91,#92);
#91 = CARTESIAN_POINT('',(14.,53.458888077694,21.15));
#92 = VECTOR('',#93,1.);
#93 = DIRECTION('',(0.,-1.,0.));
#94 = ORIENTED_EDGE('',*,*,#95,.T.);
#95 = EDGE_CURVE('',#88,#96,#98,.T.);
#96 = VERTEX_POINT('',#97);
#97 = CARTESIAN_POINT('',(14.,28.9,27.15));
#98 = LINE('',#99,#100);
#99 = CARTESIAN_POINT('',(14.,28.9,21.15));
#100 = VECTOR('',#101,1.);
#101 = DIRECTION('',(4.4E-16,0.,1.));
#102 = ORIENTED_EDGE('',*,*,#103,.T.);
#103 = EDGE_CURVE('',#96,#104,#106,.T.);
#104 = VERTEX_POINT('',#105);
#105 = CARTESIAN_POINT('',(14.,28.85,27.15));
#106 = LINE('',#107,#108);
#107 = CARTESIAN_POINT('',(14.,68.9,27.15));
#108 = VECTOR('',#109,1.);
#109 = DIRECTION('',(0.,-1.,0.));
#110 = ORIENTED_EDGE('',*,*,#111,.T.);
#111 = EDGE_CURVE('',#104,#112,#114,.T.);
#112 = VERTEX_POINT('',#113);
#113 = CARTESIAN_POINT('',(14.,22.85,21.15));
#114 = LINE('',#115,#116);
#115 = CARTESIAN_POINT('',(14.,24.666944038847,22.966944038847));
#116 = VECTOR('',#117,1.);
#117 = DIRECTION('',(-8.E-17,-0.707106781187,-0.707106781187));
#118 = ORIENTED_EDGE('',*,*,#119,.T.);
#119 = EDGE_CURVE('',#112,#120,#122,.T.);
#120 = VERTEX_POINT('',#121);
#121 = CARTESIAN_POINT('',(14.,22.85,-21.15));
#122 = LINE('',#123,#124);
#123 = CARTESIAN_POINT('',(14.,22.85,27.15));
#124 = VECTOR('',#125,1.);
#125 = DIRECTION('',(-2.2E-16,0.,-1.));
#126 = ORIENTED_EDGE('',*,*,#127,.F.);
#127 = EDGE_CURVE('',#22,#120,#128,.T.);
#128 = LINE('',#129,#130);
#129 = CARTESIAN_POINT('',(14.,24.666944038847,-22.96694403884));
#130 = VECTOR('',#131,1.);
#131 = DIRECTION('',(8.E-17,-0.707106781187,0.707106781187));
#132 = FACE_BOUND('',#133,.F.);
#133 = EDGE_LOOP('',(#134));
#134 = ORIENTED_EDGE('',*,*,#135,.F.);
#135 = EDGE_CURVE('',#136,#136,#138,.T.);
#136 = VERTEX_POINT('',#137);
#137 = CARTESIAN_POINT('',(14.,59.5,-14.));
#138 = CIRCLE('',#139,1.5);
#139 = AXIS2_PLACEMENT_3D('',#140,#141,#142);
#140 = CARTESIAN_POINT('',(14.,59.5,-15.5));
#141 = DIRECTION('',(1.,0.,-2.2E-16));
#142 = DIRECTION('',(2.2E-16,0.,1.));
#143 = FACE_BOUND('',#144,.F.);
#144 = EDGE_LOOP('',(#145));
#145 = ORIENTED_EDGE('',*,*,#146,.F.);
#146 = EDGE_CURVE('',#147,#147,#149,.T.);
#147 = VERTEX_POINT('',#148);
#148 = CARTESIAN_POINT('',(14.,59.5,17.));
#149 = CIRCLE('',#150,1.5);
#150 = AXIS2_PLACEMENT_3D('',#151,#152,#153);
#151 = CARTESIAN_POINT('',(14.,59.5,15.5));
#152 = DIRECTION('',(1.,0.,-2.2E-16));
#153 = DIRECTION('',(2.2E-16,0.,1.));
#154 = FACE_BOUND('',#155,.F.);
#155 = EDGE_LOOP('',(#156));
#156 = ORIENTED_EDGE('',*,*,#157,.F.);
#157 = EDGE_CURVE('',#158,#158,#160,.T.);
#158 = VERTEX_POINT('',#159);
#159 = CARTESIAN_POINT('',(14.,28.5,-14.));
#160 = CIRCLE('',#161,1.5);
#161 = AXIS2_PLACEMENT_3D('',#162,#163,#164);
#162 = CARTESIAN_POINT('',(14.,28.5,-15.5));
#163 = DIRECTION('',(1.,0.,-2.2E-16));
#164 = DIRECTION('',(2.2E-16,0.,1.));
#165 = FACE_BOUND('',#166,.F.);
#166 = EDGE_LOOP('',(#167));
#167 = ORIENTED_EDGE('',*,*,#168,.F.);
#168 = EDGE_CURVE('',#169,#169,#171,.T.);
#169 = VERTEX_POINT('',#170);
#170 = CARTESIAN_POINT('',(14.,44.,12.5));
#171 = CIRCLE('',#172,12.5);
#172 = AXIS2_PLACEMENT_3D('',#173,#174,#175);
#173 = CARTESIAN_POINT('',(14.,44.,2.84217094304E-14));
#174 = DIRECTION('',(1.,0.,-2.2E-16));
#175 = DIRECTION('',(2.2E-16,0.,1.));
#176 = FACE_BOUND('',#177,.F.);
#177 = EDGE_LOOP('',(#178));
#178 = ORIENTED_EDGE('',*,*,#179,.F.);
#179 = EDGE_CURVE('',#180,#180,#182,.T.);
#180 = VERTEX_POINT('',#181);
#181 = CARTESIAN_POINT('',(14.,28.5,17.));
#182 = CIRCLE('',#183,1.5);
#183 = AXIS2_PLACEMENT_3D('',#184,#185,#186);
#184 = CARTESIAN_POINT('',(14.,28.5,15.5));
#185 = DIRECTION('',(1.,0.,-2.2E-16));
#186 = DIRECTION('',(2.2E-16,0.,1.));
#187 = PLANE('',#188);
#188 = AXIS2_PLACEMENT_3D('',#189,#190,#191);
#189 = CARTESIAN_POINT('',(14.,45.267776155389,3.552713678801E-14));
#190 = DIRECTION('',(1.,0.,-2.2E-16));
#191 = DIRECTION('',(2.2E-16,0.,1.));
#192 = ADVANCED_FACE('',(#193),#234,.F.);
#193 = FACE_BOUND('',#194,.F.);
#194 = EDGE_LOOP('',(#195,#196,#204,#212,#220,#228));
#195 = ORIENTED_EDGE('',*,*,#21,.F.);
#196 = ORIENTED_EDGE('',*,*,#197,.T.);
#197 = EDGE_CURVE('',#22,#198,#200,.T.);
#198 = VERTEX_POINT('',#199);
#199 = CARTESIAN_POINT('',(18.,28.85,-27.15));
#200 = LINE('',#201,#202);
#201 = CARTESIAN_POINT('',(14.,28.85,-27.15));
#202 = VECTOR('',#203,1.);
#203 = DIRECTION('',(1.,0.,-3.3E-16));
#204 = ORIENTED_EDGE('',*,*,#205,.T.);
#205 = EDGE_CURVE('',#198,#206,#208,.T.);
#206 = VERTEX_POINT('',#207);
#207 = CARTESIAN_POINT('',(18.,68.9,-27.15));
#208 = LINE('',#209,#210);
#209 = CARTESIAN_POINT('',(18.,22.85,-27.15));
#210 = VECTOR('',#211,1.);
#211 = DIRECTION('',(0.,1.,0.));
#212 = ORIENTED_EDGE('',*,*,#213,.F.);
#213 = EDGE_CURVE('',#214,#206,#216,.T.);
#214 = VERTEX_POINT('',#215);
#215 = CARTESIAN_POINT('',(14.,68.9,-27.15));
#216 = LINE('',#217,#218);
#217 = CARTESIAN_POINT('',(14.,68.9,-27.15));
#218 = VECTOR('',#219,1.);
#219 = DIRECTION('',(1.,0.,-3.3E-16));
#220 = ORIENTED_EDGE('',*,*,#221,.T.);
#221 = EDGE_CURVE('',#214,#222,#224,.T.);
#222 = VERTEX_POINT('',#223);
#223 = CARTESIAN_POINT('',(14.,38.9,-27.15));
#224 = LINE('',#225,#226);
#225 = CARTESIAN_POINT('',(14.,68.9,-27.15));
#226 = VECTOR('',#227,1.);
#227 = DIRECTION('',(0.,-1.,0.));
#228 = ORIENTED_EDGE('',*,*,#229,.T.);
#229 = EDGE_CURVE('',#222,#24,#230,.T.);
#230 = LINE('',#231,#232);
#231 = CARTESIAN_POINT('',(14.,68.9,-27.15));
#232 = VECTOR('',#233,1.);
#233 = DIRECTION('',(0.,-1.,0.));
#234 = PLANE('',#235);
#235 = AXIS2_PLACEMENT_3D('',#236,#237,#238);
#236 = CARTESIAN_POINT('',(14.,22.85,-27.15));
#237 = DIRECTION('',(3.3E-16,0.,1.));
#238 = DIRECTION('',(0.,1.,0.));
#239 = ADVANCED_FACE('',(#240),#258,.T.);
#240 = FACE_BOUND('',#241,.T.);
#241 = EDGE_LOOP('',(#242,#243,#244,#252));
#242 = ORIENTED_EDGE('',*,*,#127,.F.);
#243 = ORIENTED_EDGE('',*,*,#197,.T.);
#244 = ORIENTED_EDGE('',*,*,#245,.T.);
#245 = EDGE_CURVE('',#198,#246,#248,.T.);
#246 = VERTEX_POINT('',#247);
#247 = CARTESIAN_POINT('',(18.,22.85,-21.15));
#248 = LINE('',#249,#250);
#249 = CARTESIAN_POINT('',(18.,24.666944038847,-22.96694403884));
#250 = VECTOR('',#251,1.);
#251 = DIRECTION('',(8.E-17,-0.707106781187,0.707106781187));
#252 = ORIENTED_EDGE('',*,*,#253,.F.);
#253 = EDGE_CURVE('',#120,#246,#254,.T.);
#254 = LINE('',#255,#256);
#255 = CARTESIAN_POINT('',(14.,22.85,-21.15));
#256 = VECTOR('',#257,1.);
#257 = DIRECTION('',(1.,0.,-3.3E-16));
#258 = PLANE('',#259);
#259 = AXIS2_PLACEMENT_3D('',#260,#261,#262);
#260 = CARTESIAN_POINT('',(14.,25.85,-24.15));
#261 = DIRECTION('',(-1.6E-16,-0.707106781187,-0.707106781187));
#262 = DIRECTION('',(1.,5.686291501015E-17,-2.831370849898E-16));
#263 = ADVANCED_FACE('',(#264),#289,.F.);
#264 = FACE_BOUND('',#265,.T.);
#265 = EDGE_LOOP('',(#266,#274,#275,#283));
#266 = ORIENTED_EDGE('',*,*,#267,.F.);
#267 = EDGE_CURVE('',#24,#268,#270,.T.);
#268 = VERTEX_POINT('',#269);
#269 = CARTESIAN_POINT('',(4.,38.9,-27.15));
#270 = LINE('',#271,#272);
#271 = CARTESIAN_POINT('',(1.5,41.4,-27.15));
#272 = VECTOR('',#273,1.);
#273 = DIRECTION('',(-0.707106781187,0.707106781187,3.1E-16));
#274 = ORIENTED_EDGE('',*,*,#31,.T.);
#275 = ORIENTED_EDGE('',*,*,#276,.T.);
#276 = EDGE_CURVE('',#32,#277,#279,.T.);
#277 = VERTEX_POINT('',#278);
#278 = CARTESIAN_POINT('',(4.,38.9,-21.15));
#279 = LINE('',#280,#281);
#280 = CARTESIAN_POINT('',(9.,33.9,-21.15));
#281 = VECTOR('',#282,1.);
#282 = DIRECTION('',(-0.707106781187,0.707106781187,3.1E-16));
#283 = ORIENTED_EDGE('',*,*,#284,.F.);
#284 = EDGE_CURVE('',#268,#277,#285,.T.);
#285 = LINE('',#286,#287);
#286 = CARTESIAN_POINT('',(4.,38.9,-27.15));
#287 = VECTOR('',#288,1.);
#288 = DIRECTION('',(4.4E-16,0.,1.));
#289 = PLANE('',#290);
#290 = AXIS2_PLACEMENT_3D('',#291,#292,#293);
#291 = CARTESIAN_POINT('',(9.,33.9,-27.15));
#292 = DIRECTION('',(0.707106781187,0.707106781187,-1.6E-16));
#293 = DIRECTION('',(-3.331370849898E-16,1.068629150102E-16,-1.));
#294 = ADVANCED_FACE('',(#295),#313,.F.);
#295 = FACE_BOUND('',#296,.F.);
#296 = EDGE_LOOP('',(#297,#298,#306,#312));
#297 = ORIENTED_EDGE('',*,*,#119,.F.);
#298 = ORIENTED_EDGE('',*,*,#299,.T.);
#299 = EDGE_CURVE('',#112,#300,#302,.T.);
#300 = VERTEX_POINT('',#301);
#301 = CARTESIAN_POINT('',(18.,22.85,21.15));
#302 = LINE('',#303,#304);
#303 = CARTESIAN_POINT('',(14.,22.85,21.15));
#304 = VECTOR('',#305,1.);
#305 = DIRECTION('',(1.,0.,-3.3E-16));
#306 = ORIENTED_EDGE('',*,*,#307,.T.);
#307 = EDGE_CURVE('',#300,#246,#308,.T.);
#308 = LINE('',#309,#310);
#309 = CARTESIAN_POINT('',(18.,22.85,27.15));
#310 = VECTOR('',#311,1.);
#311 = DIRECTION('',(-2.2E-16,0.,-1.));
#312 = ORIENTED_EDGE('',*,*,#253,.F.);
#313 = PLANE('',#314);
#314 = AXIS2_PLACEMENT_3D('',#315,#316,#317);
#315 = CARTESIAN_POINT('',(14.,22.85,27.15));
#316 = DIRECTION('',(0.,1.,0.));
#317 = DIRECTION('',(-3.3E-16,0.,-1.));
#318 = ADVANCED_FACE('',(#319),#354,.F.);
#319 = FACE_BOUND('',#320,.F.);
#320 = EDGE_LOOP('',(#321,#329,#337,#345,#351,#352,#353));
#321 = ORIENTED_EDGE('',*,*,#322,.T.);
#322 = EDGE_CURVE('',#277,#323,#325,.T.);
#323 = VERTEX_POINT('',#324);
#324 = CARTESIAN_POINT('',(-6.,38.9,-21.15));
#325 = LINE('',#326,#327);
#326 = CARTESIAN_POINT('',(14.,38.9,-21.15));
#327 = VECTOR('',#328,1.);
#328 = DIRECTION('',(-1.,0.,3.3E-16));
#329 = ORIENTED_EDGE('',*,*,#330,.F.);
#330 = EDGE_CURVE('',#331,#323,#333,.T.);
#331 = VERTEX_POINT('',#332);
#332 = CARTESIAN_POINT('',(-16.,48.9,-21.15));
#333 = LINE('',#334,#335);
#334 = CARTESIAN_POINT('',(-3.5,36.4,-21.15));
#335 = VECTOR('',#336,1.);
#336 = DIRECTION('',(0.707106781187,-0.707106781187,-3.1E-16));
#337 = ORIENTED_EDGE('',*,*,#338,.T.);
#338 = EDGE_CURVE('',#331,#339,#341,.T.);
#339 = VERTEX_POINT('',#340);
#340 = CARTESIAN_POINT('',(-16.,61.65,-21.15));
#341 = LINE('',#342,#343);
#342 = CARTESIAN_POINT('',(-16.,38.9,-21.15));
#343 = VECTOR('',#344,1.);
#344 = DIRECTION('',(0.,1.,0.));
#345 = ORIENTED_EDGE('',*,*,#346,.F.);
#346 = EDGE_CURVE('',#48,#339,#347,.T.);
#347 = LINE('',#348,#349);
#348 = CARTESIAN_POINT('',(14.,61.65,-21.15));
#349 = VECTOR('',#350,1.);
#350 = DIRECTION('',(-1.,0.,3.3E-16));
#351 = ORIENTED_EDGE('',*,*,#47,.F.);
#352 = ORIENTED_EDGE('',*,*,#39,.T.);
#353 = ORIENTED_EDGE('',*,*,#276,.T.);
#354 = PLANE('',#355);
#355 = AXIS2_PLACEMENT_3D('',#356,#357,#358);
#356 = CARTESIAN_POINT('',(14.,38.9,-21.15));
#357 = DIRECTION('',(-3.3E-16,0.,-1.));
#358 = DIRECTION('',(0.,1.,0.));
#359 = ADVANCED_FACE('',(#360),#378,.T.);
#360 = FACE_BOUND('',#361,.F.);
#361 = EDGE_LOOP('',(#362,#363,#371,#377));
#362 = ORIENTED_EDGE('',*,*,#111,.F.);
#363 = ORIENTED_EDGE('',*,*,#364,.T.);
#364 = EDGE_CURVE('',#104,#365,#367,.T.);
#365 = VERTEX_POINT('',#366);
#366 = CARTESIAN_POINT('',(18.,28.85,27.15));
#367 = LINE('',#368,#369);
#368 = CARTESIAN_POINT('',(14.,28.85,27.15));
#369 = VECTOR('',#370,1.);
#370 = DIRECTION('',(1.,0.,-3.3E-16));
#371 = ORIENTED_EDGE('',*,*,#372,.T.);
#372 = EDGE_CURVE('',#365,#300,#373,.T.);
#373 = LINE('',#374,#375);
#374 = CARTESIAN_POINT('',(18.,24.666944038847,22.966944038847));
#375 = VECTOR('',#376,1.);
#376 = DIRECTION('',(-8.E-17,-0.707106781187,-0.707106781187));
#377 = ORIENTED_EDGE('',*,*,#299,.F.);
#378 = PLANE('',#379);
#379 = AXIS2_PLACEMENT_3D('',#380,#381,#382);
#380 = CARTESIAN_POINT('',(14.,25.85,24.15));
#381 = DIRECTION('',(1.6E-16,-0.707106781187,0.707106781187));
#382 = DIRECTION('',(-1.,5.686291501015E-17,2.831370849898E-16));
#383 = ADVANCED_FACE('',(#384),#418,.F.);
#384 = FACE_BOUND('',#385,.F.);
#385 = EDGE_LOOP('',(#386,#387,#395,#403,#411,#417));
#386 = ORIENTED_EDGE('',*,*,#103,.F.);
#387 = ORIENTED_EDGE('',*,*,#388,.T.);
#388 = EDGE_CURVE('',#96,#389,#391,.T.);
#389 = VERTEX_POINT('',#390);
#390 = CARTESIAN_POINT('',(14.,38.9,27.15));
#391 = LINE('',#392,#393);
#392 = CARTESIAN_POINT('',(14.,38.9,27.15));
#393 = VECTOR('',#394,1.);
#394 = DIRECTION('',(0.,1.,0.));
#395 = ORIENTED_EDGE('',*,*,#396,.T.);
#396 = EDGE_CURVE('',#389,#397,#399,.T.);
#397 = VERTEX_POINT('',#398);
#398 = CARTESIAN_POINT('',(14.,68.9,27.15));
#399 = LINE('',#400,#401);
#400 = CARTESIAN_POINT('',(14.,38.9,27.15));
#401 = VECTOR('',#402,1.);
#402 = DIRECTION('',(0.,1.,0.));
#403 = ORIENTED_EDGE('',*,*,#404,.T.);
#404 = EDGE_CURVE('',#397,#405,#407,.T.);
#405 = VERTEX_POINT('',#406);
#406 = CARTESIAN_POINT('',(18.,68.9,27.15));
#407 = LINE('',#408,#409);
#408 = CARTESIAN_POINT('',(14.,68.9,27.15));
#409 = VECTOR('',#410,1.);
#410 = DIRECTION('',(1.,0.,-3.3E-16));
#411 = ORIENTED_EDGE('',*,*,#412,.T.);
#412 = EDGE_CURVE('',#405,#365,#413,.T.);
#413 = LINE('',#414,#415);
#414 = CARTESIAN_POINT('',(18.,68.9,27.15));
#415 = VECTOR('',#416,1.);
#416 = DIRECTION('',(0.,-1.,0.));
#417 = ORIENTED_EDGE('',*,*,#364,.F.);
#418 = PLANE('',#419);
#419 = AXIS2_PLACEMENT_3D('',#420,#421,#422);
#420 = CARTESIAN_POINT('',(14.,68.9,27.15));
#421 = DIRECTION('',(-3.3E-16,0.,-1.));
#422 = DIRECTION('',(0.,-1.,0.));
#423 = ADVANCED_FACE('',(#424),#442,.F.);
#424 = FACE_BOUND('',#425,.F.);
#425 = EDGE_LOOP('',(#426,#427,#435,#441));
#426 = ORIENTED_EDGE('',*,*,#346,.T.);
#427 = ORIENTED_EDGE('',*,*,#428,.T.);
#428 = EDGE_CURVE('',#339,#429,#431,.T.);
#429 = VERTEX_POINT('',#430);
#430 = CARTESIAN_POINT('',(-16.,65.15,-17.65));
#431 = LINE('',#432,#433);
#432 = CARTESIAN_POINT('',(-16.,61.65,-21.15));
#433 = VECTOR('',#434,1.);
#434 = DIRECTION('',(1.6E-16,0.707106781187,0.707106781187));
#435 = ORIENTED_EDGE('',*,*,#436,.F.);
#436 = EDGE_CURVE('',#56,#429,#437,.T.);
#437 = LINE('',#438,#439);
#438 = CARTESIAN_POINT('',(14.,65.15,-17.65));
#439 = VECTOR('',#440,1.);
#440 = DIRECTION('',(-1.,0.,3.3E-16));
#441 = ORIENTED_EDGE('',*,*,#55,.F.);
#442 = PLANE('',#443);
#443 = AXIS2_PLACEMENT_3D('',#444,#445,#446);
#444 = CARTESIAN_POINT('',(14.,61.65,-21.15));
#445 = DIRECTION('',(-2.4E-16,0.707106781187,-0.707106781187));
#446 = DIRECTION('',(2.4E-16,0.707106781187,0.707106781187));
#447 = ADVANCED_FACE('',(#448),#473,.F.);
#448 = FACE_BOUND('',#449,.F.);
#449 = EDGE_LOOP('',(#450,#458,#459,#467));
#450 = ORIENTED_EDGE('',*,*,#451,.T.);
#451 = EDGE_CURVE('',#452,#96,#454,.T.);
#452 = VERTEX_POINT('',#453);
#453 = CARTESIAN_POINT('',(4.,38.9,27.15));
#454 = LINE('',#455,#456);
#455 = CARTESIAN_POINT('',(9.,33.9,27.15));
#456 = VECTOR('',#457,1.);
#457 = DIRECTION('',(0.707106781187,-0.707106781187,-3.1E-16));
#458 = ORIENTED_EDGE('',*,*,#95,.F.);
#459 = ORIENTED_EDGE('',*,*,#460,.F.);
#460 = EDGE_CURVE('',#461,#88,#463,.T.);
#461 = VERTEX_POINT('',#462);
#462 = CARTESIAN_POINT('',(4.,38.9,21.15));
#463 = LINE('',#464,#465);
#464 = CARTESIAN_POINT('',(3.3125,39.5875,21.15));
#465 = VECTOR('',#466,1.);
#466 = DIRECTION('',(0.707106781187,-0.707106781187,-3.1E-16));
#467 = ORIENTED_EDGE('',*,*,#468,.T.);
#468 = EDGE_CURVE('',#461,#452,#469,.T.);
#469 = LINE('',#470,#471);
#470 = CARTESIAN_POINT('',(4.,38.9,21.15));
#471 = VECTOR('',#472,1.);
#472 = DIRECTION('',(4.4E-16,0.,1.));
#473 = PLANE('',#474);
#474 = AXIS2_PLACEMENT_3D('',#475,#476,#477);
#475 = CARTESIAN_POINT('',(9.,33.9,21.15));
#476 = DIRECTION('',(0.707106781187,0.707106781187,-1.6E-16));
#477 = DIRECTION('',(3.331370849898E-16,-1.068629150102E-16,1.));
#478 = ADVANCED_FACE('',(#479,#523),#534,.F.);
#479 = FACE_BOUND('',#480,.F.);
#480 = EDGE_LOOP('',(#481,#482,#483,#491,#500,#509,#517));
#481 = ORIENTED_EDGE('',*,*,#63,.F.);
#482 = ORIENTED_EDGE('',*,*,#436,.T.);
#483 = ORIENTED_EDGE('',*,*,#484,.T.);
#484 = EDGE_CURVE('',#429,#485,#487,.T.);
#485 = VERTEX_POINT('',#486);
#486 = CARTESIAN_POINT('',(-16.,65.15,-2.521904042583));
#487 = LINE('',#488,#489);
#488 = CARTESIAN_POINT('',(-16.,65.15,-17.65));
#489 = VECTOR('',#490,1.);
#490 = DIRECTION('',(2.2E-16,0.,1.));
#491 = ORIENTED_EDGE('',*,*,#492,.T.);
#492 = EDGE_CURVE('',#485,#493,#495,.T.);
#493 = VERTEX_POINT('',#494);
#494 = CARTESIAN_POINT('',(-11.,65.15,-5.6));
#495 = CIRCLE('',#496,5.6);
#496 = AXIS2_PLACEMENT_3D('',#497,#498,#499);
#497 = CARTESIAN_POINT('',(-11.,65.15,1.42108547152E-14));
#498 = DIRECTION('',(0.,-1.,-0.));
#499 = DIRECTION('',(-2.2E-16,0.,-1.));
#500 = ORIENTED_EDGE('',*,*,#501,.T.);
#501 = EDGE_CURVE('',#493,#502,#504,.T.);
#502 = VERTEX_POINT('',#503);
#503 = CARTESIAN_POINT('',(-16.,65.15,2.521904042584));
#504 = CIRCLE('',#505,5.6);
#505 = AXIS2_PLACEMENT_3D('',#506,#507,#508);
#506 = CARTESIAN_POINT('',(-11.,65.15,1.42108547152E-14));
#507 = DIRECTION('',(0.,-1.,-0.));
#508 = DIRECTION('',(-2.2E-16,0.,-1.));
#509 = ORIENTED_EDGE('',*,*,#510,.T.);
#510 = EDGE_CURVE('',#502,#511,#513,.T.);
#511 = VERTEX_POINT('',#512);
#512 = CARTESIAN_POINT('',(-16.,65.15,17.65));
#513 = LINE('',#514,#515);
#514 = CARTESIAN_POINT('',(-16.,65.15,-17.65));
#515 = VECTOR('',#516,1.);
#516 = DIRECTION('',(2.2E-16,0.,1.));
#517 = ORIENTED_EDGE('',*,*,#518,.F.);
#518 = EDGE_CURVE('',#64,#511,#519,.T.);
#519 = LINE('',#520,#521);
#520 = CARTESIAN_POINT('',(14.,65.15,17.65));
#521 = VECTOR('',#522,1.);
#522 = DIRECTION('',(-1.,0.,3.3E-16));
#523 = FACE_BOUND('',#524,.F.);
#524 = EDGE_LOOP('',(#525));
#525 = ORIENTED_EDGE('',*,*,#526,.T.);
#526 = EDGE_CURVE('',#527,#527,#529,.T.);
#527 = VERTEX_POINT('',#528);
#528 = CARTESIAN_POINT('',(6.,65.15,-5.6));
#529 = CIRCLE('',#530,5.6);
#530 = AXIS2_PLACEMENT_3D('',#531,#532,#533);
#531 = CARTESIAN_POINT('',(6.,65.15,1.42108547152E-14));
#532 = DIRECTION('',(0.,-1.,-0.));
#533 = DIRECTION('',(-2.2E-16,0.,-1.));
#534 = PLANE('',#535);
#535 = AXIS2_PLACEMENT_3D('',#536,#537,#538);
#536 = CARTESIAN_POINT('',(14.,65.15,-17.65));
#537 = DIRECTION('',(0.,1.,0.));
#538 = DIRECTION('',(3.3E-16,0.,1.));
#539 = ADVANCED_FACE('',(#540),#575,.F.);
#540 = FACE_BOUND('',#541,.F.);
#541 = EDGE_LOOP('',(#542,#550,#551,#552,#553,#561,#569));
#542 = ORIENTED_EDGE('',*,*,#543,.F.);
#543 = EDGE_CURVE('',#461,#544,#546,.T.);
#544 = VERTEX_POINT('',#545);
#545 = CARTESIAN_POINT('',(-6.,38.9,21.15));
#546 = LINE('',#547,#548);
#547 = CARTESIAN_POINT('',(14.,38.9,21.15));
#548 = VECTOR('',#549,1.);
#549 = DIRECTION('',(-1.,0.,3.3E-16));
#550 = ORIENTED_EDGE('',*,*,#460,.T.);
#551 = ORIENTED_EDGE('',*,*,#87,.F.);
#552 = ORIENTED_EDGE('',*,*,#79,.F.);
#553 = ORIENTED_EDGE('',*,*,#554,.T.);
#554 = EDGE_CURVE('',#72,#555,#557,.T.);
#555 = VERTEX_POINT('',#556);
#556 = CARTESIAN_POINT('',(-16.,61.65,21.15));
#557 = LINE('',#558,#559);
#558 = CARTESIAN_POINT('',(14.,61.65,21.15));
#559 = VECTOR('',#560,1.);
#560 = DIRECTION('',(-1.,0.,3.3E-16));
#561 = ORIENTED_EDGE('',*,*,#562,.T.);
#562 = EDGE_CURVE('',#555,#563,#565,.T.);
#563 = VERTEX_POINT('',#564);
#564 = CARTESIAN_POINT('',(-16.,48.9,21.15));
#565 = LINE('',#566,#567);
#566 = CARTESIAN_POINT('',(-16.,61.65,21.15));
#567 = VECTOR('',#568,1.);
#568 = DIRECTION('',(0.,-1.,0.));
#569 = ORIENTED_EDGE('',*,*,#570,.F.);
#570 = EDGE_CURVE('',#544,#563,#571,.T.);
#571 = LINE('',#572,#573);
#572 = CARTESIAN_POINT('',(-9.1875,42.0875,21.15));
#573 = VECTOR('',#574,1.);
#574 = DIRECTION('',(-0.707106781187,0.707106781187,3.1E-16));
#575 = PLANE('',#576);
#576 = AXIS2_PLACEMENT_3D('',#577,#578,#579);
#577 = CARTESIAN_POINT('',(14.,61.65,21.15));
#578 = DIRECTION('',(3.3E-16,0.,1.));
#579 = DIRECTION('',(0.,-1.,0.));
#580 = ADVANCED_FACE('',(#581),#592,.F.);
#581 = FACE_BOUND('',#582,.F.);
#582 = EDGE_LOOP('',(#583,#584,#590,#591));
#583 = ORIENTED_EDGE('',*,*,#518,.T.);
#584 = ORIENTED_EDGE('',*,*,#585,.T.);
#585 = EDGE_CURVE('',#511,#555,#586,.T.);
#586 = LINE('',#587,#588);
#587 = CARTESIAN_POINT('',(-16.,65.15,17.65));
#588 = VECTOR('',#589,1.);
#589 = DIRECTION('',(1.6E-16,-0.707106781187,0.707106781187));
#590 = ORIENTED_EDGE('',*,*,#554,.F.);
#591 = ORIENTED_EDGE('',*,*,#71,.F.);
#592 = PLANE('',#593);
#593 = AXIS2_PLACEMENT_3D('',#594,#595,#596);
#594 = CARTESIAN_POINT('',(14.,65.15,17.65));
#595 = DIRECTION('',(2.4E-16,0.707106781187,0.707106781187));
#596 = DIRECTION('',(2.4E-16,-0.707106781187,0.707106781187));
#597 = ADVANCED_FACE('',(#598),#617,.F.);
#598 = FACE_BOUND('',#599,.T.);
#599 = EDGE_LOOP('',(#600,#608,#615,#616));
#600 = ORIENTED_EDGE('',*,*,#601,.T.);
#601 = EDGE_CURVE('',#136,#602,#604,.T.);
#602 = VERTEX_POINT('',#603);
#603 = CARTESIAN_POINT('',(18.,59.5,-14.));
#604 = LINE('',#605,#606);
#605 = CARTESIAN_POINT('',(14.,59.5,-14.));
#606 = VECTOR('',#607,1.);
#607 = DIRECTION('',(1.,0.,-3.3E-16));
#608 = ORIENTED_EDGE('',*,*,#609,.T.);
#609 = EDGE_CURVE('',#602,#602,#610,.T.);
#610 = CIRCLE('',#611,1.5);
#611 = AXIS2_PLACEMENT_3D('',#612,#613,#614);
#612 = CARTESIAN_POINT('',(18.,59.5,-15.5));
#613 = DIRECTION('',(1.,0.,-2.2E-16));
#614 = DIRECTION('',(2.2E-16,0.,1.));
#615 = ORIENTED_EDGE('',*,*,#601,.F.);
#616 = ORIENTED_EDGE('',*,*,#135,.F.);
#617 = CYLINDRICAL_SURFACE('',#618,1.5);
#618 = AXIS2_PLACEMENT_3D('',#619,#620,#621);
#619 = CARTESIAN_POINT('',(14.,59.5,-15.5));
#620 = DIRECTION('',(-1.,0.,3.3E-16));
#621 = DIRECTION('',(3.3E-16,0.,1.));
#622 = ADVANCED_FACE('',(#623),#642,.F.);
#623 = FACE_BOUND('',#624,.T.);
#624 = EDGE_LOOP('',(#625,#633,#640,#641));
#625 = ORIENTED_EDGE('',*,*,#626,.T.);
#626 = EDGE_CURVE('',#147,#627,#629,.T.);
#627 = VERTEX_POINT('',#628);
#628 = CARTESIAN_POINT('',(18.,59.5,17.));
#629 = LINE('',#630,#631);
#630 = CARTESIAN_POINT('',(14.,59.5,17.));
#631 = VECTOR('',#632,1.);
#632 = DIRECTION('',(1.,0.,-3.3E-16));
#633 = ORIENTED_EDGE('',*,*,#634,.T.);
#634 = EDGE_CURVE('',#627,#627,#635,.T.);
#635 = CIRCLE('',#636,1.5);
#636 = AXIS2_PLACEMENT_3D('',#637,#638,#639);
#637 = CARTESIAN_POINT('',(18.,59.5,15.5));
#638 = DIRECTION('',(1.,0.,-2.2E-16));
#639 = DIRECTION('',(2.2E-16,0.,1.));
#640 = ORIENTED_EDGE('',*,*,#626,.F.);
#641 = ORIENTED_EDGE('',*,*,#146,.F.);
#642 = CYLINDRICAL_SURFACE('',#643,1.5);
#643 = AXIS2_PLACEMENT_3D('',#644,#645,#646);
#644 = CARTESIAN_POINT('',(14.,59.5,15.5));
#645 = DIRECTION('',(-1.,0.,3.3E-16));
#646 = DIRECTION('',(3.3E-16,0.,1.));
#647 = ADVANCED_FACE('',(#648),#667,.F.);
#648 = FACE_BOUND('',#649,.T.);
#649 = EDGE_LOOP('',(#650,#658,#665,#666));
#650 = ORIENTED_EDGE('',*,*,#651,.T.);
#651 = EDGE_CURVE('',#158,#652,#654,.T.);
#652 = VERTEX_POINT('',#653);
#653 = CARTESIAN_POINT('',(18.,28.5,-14.));
#654 = LINE('',#655,#656);
#655 = CARTESIAN_POINT('',(14.,28.5,-14.));
#656 = VECTOR('',#657,1.);
#657 = DIRECTION('',(1.,0.,-3.3E-16));
#658 = ORIENTED_EDGE('',*,*,#659,.T.);
#659 = EDGE_CURVE('',#652,#652,#660,.T.);
#660 = CIRCLE('',#661,1.5);
#661 = AXIS2_PLACEMENT_3D('',#662,#663,#664);
#662 = CARTESIAN_POINT('',(18.,28.5,-15.5));
#663 = DIRECTION('',(1.,0.,-2.2E-16));
#664 = DIRECTION('',(2.2E-16,0.,1.));
#665 = ORIENTED_EDGE('',*,*,#651,.F.);
#666 = ORIENTED_EDGE('',*,*,#157,.F.);
#667 = CYLINDRICAL_SURFACE('',#668,1.5);
#668 = AXIS2_PLACEMENT_3D('',#669,#670,#671);
#669 = CARTESIAN_POINT('',(14.,28.5,-15.5));
#670 = DIRECTION('',(-1.,0.,3.3E-16));
#671 = DIRECTION('',(3.3E-16,0.,1.));
#672 = ADVANCED_FACE('',(#673),#692,.F.);
#673 = FACE_BOUND('',#674,.T.);
#674 = EDGE_LOOP('',(#675,#683,#690,#691));
#675 = ORIENTED_EDGE('',*,*,#676,.T.);
#676 = EDGE_CURVE('',#169,#677,#679,.T.);
#677 = VERTEX_POINT('',#678);
#678 = CARTESIAN_POINT('',(18.,44.,12.5));
#679 = LINE('',#680,#681);
#680 = CARTESIAN_POINT('',(14.,44.,12.5));
#681 = VECTOR('',#682,1.);
#682 = DIRECTION('',(1.,0.,-3.3E-16));
#683 = ORIENTED_EDGE('',*,*,#684,.T.);
#684 = EDGE_CURVE('',#677,#677,#685,.T.);
#685 = CIRCLE('',#686,12.5);
#686 = AXIS2_PLACEMENT_3D('',#687,#688,#689);
#687 = CARTESIAN_POINT('',(18.,44.,2.84217094304E-14));
#688 = DIRECTION('',(1.,0.,-2.2E-16));
#689 = DIRECTION('',(2.2E-16,0.,1.));
#690 = ORIENTED_EDGE('',*,*,#676,.F.);
#691 = ORIENTED_EDGE('',*,*,#168,.F.);
#692 = CYLINDRICAL_SURFACE('',#693,12.5);
#693 = AXIS2_PLACEMENT_3D('',#694,#695,#696);
#694 = CARTESIAN_POINT('',(14.,44.,2.688E-14));
#695 = DIRECTION('',(-1.,0.,3.3E-16));
#696 = DIRECTION('',(3.3E-16,0.,1.));
#697 = ADVANCED_FACE('',(#698),#717,.F.);
#698 = FACE_BOUND('',#699,.T.);
#699 = EDGE_LOOP('',(#700,#708,#715,#716));
#700 = ORIENTED_EDGE('',*,*,#701,.T.);
#701 = EDGE_CURVE('',#180,#702,#704,.T.);
#702 = VERTEX_POINT('',#703);
#703 = CARTESIAN_POINT('',(18.,28.5,17.));
#704 = LINE('',#705,#706);
#705 = CARTESIAN_POINT('',(14.,28.5,17.));
#706 = VECTOR('',#707,1.);
#707 = DIRECTION('',(1.,0.,-3.3E-16));
#708 = ORIENTED_EDGE('',*,*,#709,.T.);
#709 = EDGE_CURVE('',#702,#702,#710,.T.);
#710 = CIRCLE('',#711,1.5);
#711 = AXIS2_PLACEMENT_3D('',#712,#713,#714);
#712 = CARTESIAN_POINT('',(18.,28.5,15.5));
#713 = DIRECTION('',(1.,0.,-2.2E-16));
#714 = DIRECTION('',(2.2E-16,0.,1.));
#715 = ORIENTED_EDGE('',*,*,#701,.F.);
#716 = ORIENTED_EDGE('',*,*,#179,.F.);
#717 = CYLINDRICAL_SURFACE('',#718,1.5);
#718 = AXIS2_PLACEMENT_3D('',#719,#720,#721);
#719 = CARTESIAN_POINT('',(14.,28.5,15.5));
#720 = DIRECTION('',(-1.,0.,3.3E-16));
#721 = DIRECTION('',(3.3E-16,0.,1.));
#722 = ADVANCED_FACE('',(#723),#758,.F.);
#723 = FACE_BOUND('',#724,.F.);
#724 = EDGE_LOOP('',(#725,#733,#734,#735,#736,#744,#752));
#725 = ORIENTED_EDGE('',*,*,#726,.F.);
#726 = EDGE_CURVE('',#268,#727,#729,.T.);
#727 = VERTEX_POINT('',#728);
#728 = CARTESIAN_POINT('',(-6.,38.9,-27.15));
#729 = LINE('',#730,#731);
#730 = CARTESIAN_POINT('',(14.,38.9,-27.15));
#731 = VECTOR('',#732,1.);
#732 = DIRECTION('',(-1.,0.,3.3E-16));
#733 = ORIENTED_EDGE('',*,*,#267,.F.);
#734 = ORIENTED_EDGE('',*,*,#229,.F.);
#735 = ORIENTED_EDGE('',*,*,#221,.F.);
#736 = ORIENTED_EDGE('',*,*,#737,.T.);
#737 = EDGE_CURVE('',#214,#738,#740,.T.);
#738 = VERTEX_POINT('',#739);
#739 = CARTESIAN_POINT('',(-16.,68.9,-27.15));
#740 = LINE('',#741,#742);
#741 = CARTESIAN_POINT('',(14.,68.9,-27.15));
#742 = VECTOR('',#743,1.);
#743 = DIRECTION('',(-1.,0.,3.3E-16));
#744 = ORIENTED_EDGE('',*,*,#745,.T.);
#745 = EDGE_CURVE('',#738,#746,#748,.T.);
#746 = VERTEX_POINT('',#747);
#747 = CARTESIAN_POINT('',(-16.,48.9,-27.15));
#748 = LINE('',#749,#750);
#749 = CARTESIAN_POINT('',(-16.,68.9,-27.15));
#750 = VECTOR('',#751,1.);
#751 = DIRECTION('',(0.,-1.,0.));
#752 = ORIENTED_EDGE('',*,*,#753,.T.);
#753 = EDGE_CURVE('',#746,#727,#754,.T.);
#754 = LINE('',#755,#756);
#755 = CARTESIAN_POINT('',(-11.,43.9,-27.15));
#756 = VECTOR('',#757,1.);
#757 = DIRECTION('',(0.707106781187,-0.707106781187,-3.1E-16));
#758 = PLANE('',#759);
#759 = AXIS2_PLACEMENT_3D('',#760,#761,#762);
#760 = CARTESIAN_POINT('',(14.,68.9,-27.15));
#761 = DIRECTION('',(3.3E-16,0.,1.));
#762 = DIRECTION('',(0.,-1.,0.));
#763 = ADVANCED_FACE('',(#764,#777,#780,#783,#786,#789),#792,.T.);
#764 = FACE_BOUND('',#765,.T.);
#765 = EDGE_LOOP('',(#766,#767,#768,#769,#770,#771));
#766 = ORIENTED_EDGE('',*,*,#412,.T.);
#767 = ORIENTED_EDGE('',*,*,#372,.T.);
#768 = ORIENTED_EDGE('',*,*,#307,.T.);
#769 = ORIENTED_EDGE('',*,*,#245,.F.);
#770 = ORIENTED_EDGE('',*,*,#205,.T.);
#771 = ORIENTED_EDGE('',*,*,#772,.T.);
#772 = EDGE_CURVE('',#206,#405,#773,.T.);
#773 = LINE('',#774,#775);
#774 = CARTESIAN_POINT('',(18.,68.9,-27.15));
#775 = VECTOR('',#776,1.);
#776 = DIRECTION('',(2.2E-16,0.,1.));
#777 = FACE_BOUND('',#778,.F.);
#778 = EDGE_LOOP('',(#779));
#779 = ORIENTED_EDGE('',*,*,#684,.T.);
#780 = FACE_BOUND('',#781,.F.);
#781 = EDGE_LOOP('',(#782));
#782 = ORIENTED_EDGE('',*,*,#609,.T.);
#783 = FACE_BOUND('',#784,.F.);
#784 = EDGE_LOOP('',(#785));
#785 = ORIENTED_EDGE('',*,*,#659,.T.);
#786 = FACE_BOUND('',#787,.F.);
#787 = EDGE_LOOP('',(#788));
#788 = ORIENTED_EDGE('',*,*,#634,.T.);
#789 = FACE_BOUND('',#790,.F.);
#790 = EDGE_LOOP('',(#791));
#791 = ORIENTED_EDGE('',*,*,#709,.T.);
#792 = PLANE('',#793);
#793 = AXIS2_PLACEMENT_3D('',#794,#795,#796);
#794 = CARTESIAN_POINT('',(18.,45.267776155389,2.84217094304E-14));
#795 = DIRECTION('',(1.,0.,-2.2E-16));
#796 = DIRECTION('',(2.2E-16,0.,1.));
#797 = ADVANCED_FACE('',(#798),#809,.F.);
#798 = FACE_BOUND('',#799,.F.);
#799 = EDGE_LOOP('',(#800,#801,#802,#803));
#800 = ORIENTED_EDGE('',*,*,#213,.T.);
#801 = ORIENTED_EDGE('',*,*,#772,.T.);
#802 = ORIENTED_EDGE('',*,*,#404,.F.);
#803 = ORIENTED_EDGE('',*,*,#804,.T.);
#804 = EDGE_CURVE('',#397,#214,#805,.T.);
#805 = LINE('',#806,#807);
#806 = CARTESIAN_POINT('',(14.,68.9,27.15));
#807 = VECTOR('',#808,1.);
#808 = DIRECTION('',(-2.2E-16,0.,-1.));
#809 = PLANE('',#810);
#810 = AXIS2_PLACEMENT_3D('',#811,#812,#813);
#811 = CARTESIAN_POINT('',(14.,68.9,-27.15));
#812 = DIRECTION('',(0.,-1.,0.));
#813 = DIRECTION('',(3.3E-16,0.,1.));
#814 = ADVANCED_FACE('',(#815),#826,.F.);
#815 = FACE_BOUND('',#816,.F.);
#816 = EDGE_LOOP('',(#817,#818,#824,#825));
#817 = ORIENTED_EDGE('',*,*,#726,.T.);
#818 = ORIENTED_EDGE('',*,*,#819,.T.);
#819 = EDGE_CURVE('',#727,#323,#820,.T.);
#820 = LINE('',#821,#822);
#821 = CARTESIAN_POINT('',(-6.,38.9,-27.15));
#822 = VECTOR('',#823,1.);
#823 = DIRECTION('',(4.4E-16,0.,1.));
#824 = ORIENTED_EDGE('',*,*,#322,.F.);
#825 = ORIENTED_EDGE('',*,*,#284,.F.);
#826 = PLANE('',#827);
#827 = AXIS2_PLACEMENT_3D('',#828,#829,#830);
#828 = CARTESIAN_POINT('',(14.,38.9,-27.15));
#829 = DIRECTION('',(0.,1.,0.));
#830 = DIRECTION('',(3.3E-16,0.,1.));
#831 = ADVANCED_FACE('',(#832),#843,.T.);
#832 = FACE_BOUND('',#833,.F.);
#833 = EDGE_LOOP('',(#834,#835,#841,#842));
#834 = ORIENTED_EDGE('',*,*,#753,.F.);
#835 = ORIENTED_EDGE('',*,*,#836,.T.);
#836 = EDGE_CURVE('',#746,#331,#837,.T.);
#837 = LINE('',#838,#839);
#838 = CARTESIAN_POINT('',(-16.,48.9,-27.15));
#839 = VECTOR('',#840,1.);
#840 = DIRECTION('',(4.4E-16,0.,1.));
#841 = ORIENTED_EDGE('',*,*,#330,.T.);
#842 = ORIENTED_EDGE('',*,*,#819,.F.);
#843 = PLANE('',#844);
#844 = AXIS2_PLACEMENT_3D('',#845,#846,#847);
#845 = CARTESIAN_POINT('',(-11.,43.9,-27.15));
#846 = DIRECTION('',(-0.707106781187,-0.707106781187,1.6E-16));
#847 = DIRECTION('',(-3.331370849898E-16,1.068629150102E-16,-1.));
#848 = ADVANCED_FACE('',(#849),#888,.F.);
#849 = FACE_BOUND('',#850,.F.);
#850 = EDGE_LOOP('',(#851,#861,#867,#868,#869,#870,#877,#878,#879,#880,
    #881,#882));
#851 = ORIENTED_EDGE('',*,*,#852,.F.);
#852 = EDGE_CURVE('',#853,#855,#857,.T.);
#853 = VERTEX_POINT('',#854);
#854 = CARTESIAN_POINT('',(-16.,48.9,27.15));
#855 = VERTEX_POINT('',#856);
#856 = CARTESIAN_POINT('',(-16.,68.9,27.15));
#857 = LINE('',#858,#859);
#858 = CARTESIAN_POINT('',(-16.,38.9,27.15));
#859 = VECTOR('',#860,1.);
#860 = DIRECTION('',(0.,1.,0.));
#861 = ORIENTED_EDGE('',*,*,#862,.F.);
#862 = EDGE_CURVE('',#563,#853,#863,.T.);
#863 = LINE('',#864,#865);
#864 = CARTESIAN_POINT('',(-16.,48.9,21.15));
#865 = VECTOR('',#866,1.);
#866 = DIRECTION('',(4.4E-16,0.,1.));
#867 = ORIENTED_EDGE('',*,*,#562,.F.);
#868 = ORIENTED_EDGE('',*,*,#585,.F.);
#869 = ORIENTED_EDGE('',*,*,#510,.F.);
#870 = ORIENTED_EDGE('',*,*,#871,.T.);
#871 = EDGE_CURVE('',#502,#485,#872,.T.);
#872 = HYPERBOLA('',#873,5.,5.);
#873 = AXIS2_PLACEMENT_3D('',#874,#875,#876);
#874 = CARTESIAN_POINT('',(-16.,70.75,2.088E-14));
#875 = DIRECTION('',(1.,0.,-3.3E-16));
#876 = DIRECTION('',(0.,-1.,0.));
#877 = ORIENTED_EDGE('',*,*,#484,.F.);
#878 = ORIENTED_EDGE('',*,*,#428,.F.);
#879 = ORIENTED_EDGE('',*,*,#338,.F.);
#880 = ORIENTED_EDGE('',*,*,#836,.F.);
#881 = ORIENTED_EDGE('',*,*,#745,.F.);
#882 = ORIENTED_EDGE('',*,*,#883,.F.);
#883 = EDGE_CURVE('',#855,#738,#884,.T.);
#884 = LINE('',#885,#886);
#885 = CARTESIAN_POINT('',(-16.,68.9,27.15));
#886 = VECTOR('',#887,1.);
#887 = DIRECTION('',(-2.2E-16,0.,-1.));
#888 = PLANE('',#889);
#889 = AXIS2_PLACEMENT_3D('',#890,#891,#892);
#890 = CARTESIAN_POINT('',(-16.,58.327349944655,4.263256414561E-14));
#891 = DIRECTION('',(1.,0.,-2.2E-16));
#892 = DIRECTION('',(2.2E-16,0.,1.));
#893 = ADVANCED_FACE('',(#894),#920,.F.);
#894 = FACE_BOUND('',#895,.F.);
#895 = EDGE_LOOP('',(#896,#904,#910,#911,#917,#918,#919));
#896 = ORIENTED_EDGE('',*,*,#897,.T.);
#897 = EDGE_CURVE('',#452,#898,#900,.T.);
#898 = VERTEX_POINT('',#899);
#899 = CARTESIAN_POINT('',(-6.,38.9,27.15));
#900 = LINE('',#901,#902);
#901 = CARTESIAN_POINT('',(14.,38.9,27.15));
#902 = VECTOR('',#903,1.);
#903 = DIRECTION('',(-1.,0.,3.3E-16));
#904 = ORIENTED_EDGE('',*,*,#905,.T.);
#905 = EDGE_CURVE('',#898,#853,#906,.T.);
#906 = LINE('',#907,#908);
#907 = CARTESIAN_POINT('',(-3.5,36.4,27.15));
#908 = VECTOR('',#909,1.);
#909 = DIRECTION('',(-0.707106781187,0.707106781187,3.1E-16));
#910 = ORIENTED_EDGE('',*,*,#852,.T.);
#911 = ORIENTED_EDGE('',*,*,#912,.F.);
#912 = EDGE_CURVE('',#397,#855,#913,.T.);
#913 = LINE('',#914,#915);
#914 = CARTESIAN_POINT('',(14.,68.9,27.15));
#915 = VECTOR('',#916,1.);
#916 = DIRECTION('',(-1.,0.,3.3E-16));
#917 = ORIENTED_EDGE('',*,*,#396,.F.);
#918 = ORIENTED_EDGE('',*,*,#388,.F.);
#919 = ORIENTED_EDGE('',*,*,#451,.F.);
#920 = PLANE('',#921);
#921 = AXIS2_PLACEMENT_3D('',#922,#923,#924);
#922 = CARTESIAN_POINT('',(14.,38.9,27.15));
#923 = DIRECTION('',(-3.3E-16,0.,-1.));
#924 = DIRECTION('',(0.,1.,0.));
#925 = ADVANCED_FACE('',(#926),#937,.F.);
#926 = FACE_BOUND('',#927,.F.);
#927 = EDGE_LOOP('',(#928,#929,#935,#936));
#928 = ORIENTED_EDGE('',*,*,#543,.T.);
#929 = ORIENTED_EDGE('',*,*,#930,.T.);
#930 = EDGE_CURVE('',#544,#898,#931,.T.);
#931 = LINE('',#932,#933);
#932 = CARTESIAN_POINT('',(-6.,38.9,21.15));
#933 = VECTOR('',#934,1.);
#934 = DIRECTION('',(4.4E-16,0.,1.));
#935 = ORIENTED_EDGE('',*,*,#897,.F.);
#936 = ORIENTED_EDGE('',*,*,#468,.F.);
#937 = PLANE('',#938);
#938 = AXIS2_PLACEMENT_3D('',#939,#940,#941);
#939 = CARTESIAN_POINT('',(14.,38.9,21.15));
#940 = DIRECTION('',(0.,1.,0.));
#941 = DIRECTION('',(3.3E-16,0.,1.));
#942 = ADVANCED_FACE('',(#943),#964,.F.);
#943 = FACE_BOUND('',#944,.T.);
#944 = EDGE_LOOP('',(#945,#953,#954,#955,#956,#957));
#945 = ORIENTED_EDGE('',*,*,#946,.F.);
#946 = EDGE_CURVE('',#493,#947,#949,.T.);
#947 = VERTEX_POINT('',#948);
#948 = CARTESIAN_POINT('',(-11.,68.,-2.75));
#949 = LINE('',#950,#951);
#950 = CARTESIAN_POINT('',(-11.,65.15,-5.6));
#951 = VECTOR('',#952,1.);
#952 = DIRECTION('',(1.6E-16,0.707106781187,0.707106781187));
#953 = ORIENTED_EDGE('',*,*,#501,.T.);
#954 = ORIENTED_EDGE('',*,*,#871,.T.);
#955 = ORIENTED_EDGE('',*,*,#492,.T.);
#956 = ORIENTED_EDGE('',*,*,#946,.T.);
#957 = ORIENTED_EDGE('',*,*,#958,.F.);
#958 = EDGE_CURVE('',#947,#947,#959,.T.);
#959 = CIRCLE('',#960,2.75);
#960 = AXIS2_PLACEMENT_3D('',#961,#962,#963);
#961 = CARTESIAN_POINT('',(-11.,68.,1.42108547152E-14));
#962 = DIRECTION('',(0.,-1.,-0.));
#963 = DIRECTION('',(-2.2E-16,0.,-1.));
#964 = CONICAL_SURFACE('',#965,5.6,0.785398163397);
#965 = AXIS2_PLACEMENT_3D('',#966,#967,#968);
#966 = CARTESIAN_POINT('',(-11.,65.15,1.42108547152E-14));
#967 = DIRECTION('',(-0.,-1.,-0.));
#968 = DIRECTION('',(-2.2E-16,0.,-1.));
#969 = ADVANCED_FACE('',(#970),#989,.F.);
#970 = FACE_BOUND('',#971,.T.);
#971 = EDGE_LOOP('',(#972,#980,#981,#982));
#972 = ORIENTED_EDGE('',*,*,#973,.F.);
#973 = EDGE_CURVE('',#527,#974,#976,.T.);
#974 = VERTEX_POINT('',#975);
#975 = CARTESIAN_POINT('',(6.,68.,-2.75));
#976 = LINE('',#977,#978);
#977 = CARTESIAN_POINT('',(6.,65.15,-5.6));
#978 = VECTOR('',#979,1.);
#979 = DIRECTION('',(1.6E-16,0.707106781187,0.707106781187));
#980 = ORIENTED_EDGE('',*,*,#526,.T.);
#981 = ORIENTED_EDGE('',*,*,#973,.T.);
#982 = ORIENTED_EDGE('',*,*,#983,.F.);
#983 = EDGE_CURVE('',#974,#974,#984,.T.);
#984 = CIRCLE('',#985,2.75);
#985 = AXIS2_PLACEMENT_3D('',#986,#987,#988);
#986 = CARTESIAN_POINT('',(6.,68.,1.42108547152E-14));
#987 = DIRECTION('',(0.,-1.,-0.));
#988 = DIRECTION('',(-2.2E-16,0.,-1.));
#989 = CONICAL_SURFACE('',#990,5.6,0.785398163397);
#990 = AXIS2_PLACEMENT_3D('',#991,#992,#993);
#991 = CARTESIAN_POINT('',(6.,65.15,1.42108547152E-14));
#992 = DIRECTION('',(-0.,-1.,-0.));
#993 = DIRECTION('',(-2.2E-16,0.,-1.));
#994 = ADVANCED_FACE('',(#995),#1001,.T.);
#995 = FACE_BOUND('',#996,.T.);
#996 = EDGE_LOOP('',(#997,#998,#999,#1000));
#997 = ORIENTED_EDGE('',*,*,#570,.F.);
#998 = ORIENTED_EDGE('',*,*,#930,.T.);
#999 = ORIENTED_EDGE('',*,*,#905,.T.);
#1000 = ORIENTED_EDGE('',*,*,#862,.F.);
#1001 = PLANE('',#1002);
#1002 = AXIS2_PLACEMENT_3D('',#1003,#1004,#1005);
#1003 = CARTESIAN_POINT('',(-11.,43.9,21.15));
#1004 = DIRECTION('',(-0.707106781187,-0.707106781187,1.6E-16));
#1005 = DIRECTION('',(3.331370849898E-16,-1.068629150102E-16,1.));
#1006 = ADVANCED_FACE('',(#1007,#1013,#1024),#1035,.F.);
#1007 = FACE_BOUND('',#1008,.F.);
#1008 = EDGE_LOOP('',(#1009,#1010,#1011,#1012));
#1009 = ORIENTED_EDGE('',*,*,#912,.T.);
#1010 = ORIENTED_EDGE('',*,*,#883,.T.);
#1011 = ORIENTED_EDGE('',*,*,#737,.F.);
#1012 = ORIENTED_EDGE('',*,*,#804,.F.);
#1013 = FACE_BOUND('',#1014,.F.);
#1014 = EDGE_LOOP('',(#1015));
#1015 = ORIENTED_EDGE('',*,*,#1016,.T.);
#1016 = EDGE_CURVE('',#1017,#1017,#1019,.T.);
#1017 = VERTEX_POINT('',#1018);
#1018 = CARTESIAN_POINT('',(-11.,68.9,-2.75));
#1019 = CIRCLE('',#1020,2.75);
#1020 = AXIS2_PLACEMENT_3D('',#1021,#1022,#1023);
#1021 = CARTESIAN_POINT('',(-11.,68.9,1.922E-14));
#1022 = DIRECTION('',(0.,1.,0.));
#1023 = DIRECTION('',(-2.2E-16,0.,-1.));
#1024 = FACE_BOUND('',#1025,.F.);
#1025 = EDGE_LOOP('',(#1026));
#1026 = ORIENTED_EDGE('',*,*,#1027,.T.);
#1027 = EDGE_CURVE('',#1028,#1028,#1030,.T.);
#1028 = VERTEX_POINT('',#1029);
#1029 = CARTESIAN_POINT('',(6.,68.9,-2.75));
#1030 = CIRCLE('',#1031,2.75);
#1031 = AXIS2_PLACEMENT_3D('',#1032,#1033,#1034);
#1032 = CARTESIAN_POINT('',(6.,68.9,1.733E-14));
#1033 = DIRECTION('',(0.,1.,0.));
#1034 = DIRECTION('',(-2.2E-16,0.,-1.));
#1035 = PLANE('',#1036);
#1036 = AXIS2_PLACEMENT_3D('',#1037,#1038,#1039);
#1037 = CARTESIAN_POINT('',(14.,68.9,27.15));
#1038 = DIRECTION('',(0.,-1.,0.));
#1039 = DIRECTION('',(-3.3E-16,-0.,-1.));
#1040 = ADVANCED_FACE('',(#1041),#1052,.F.);
#1041 = FACE_BOUND('',#1042,.T.);
#1042 = EDGE_LOOP('',(#1043,#1049,#1050,#1051));
#1043 = ORIENTED_EDGE('',*,*,#1044,.F.);
#1044 = EDGE_CURVE('',#947,#1017,#1045,.T.);
#1045 = LINE('',#1046,#1047);
#1046 = CARTESIAN_POINT('',(-11.,68.,-2.75));
#1047 = VECTOR('',#1048,1.);
#1048 = DIRECTION('',(0.,1.,2.E-17));
#1049 = ORIENTED_EDGE('',*,*,#958,.T.);
#1050 = ORIENTED_EDGE('',*,*,#1044,.T.);
#1051 = ORIENTED_EDGE('',*,*,#1016,.T.);
#1052 = CYLINDRICAL_SURFACE('',#1053,2.75);
#1053 = AXIS2_PLACEMENT_3D('',#1054,#1055,#1056);
#1054 = CARTESIAN_POINT('',(-11.,68.,1.42108547152E-14));
#1055 = DIRECTION('',(0.,1.,0.));
#1056 = DIRECTION('',(-2.2E-16,0.,-1.));
#1057 = ADVANCED_FACE('',(#1058),#1069,.F.);
#1058 = FACE_BOUND('',#1059,.T.);
#1059 = EDGE_LOOP('',(#1060,#1066,#1067,#1068));
#1060 = ORIENTED_EDGE('',*,*,#1061,.F.);
#1061 = EDGE_CURVE('',#974,#1028,#1062,.T.);
#1062 = LINE('',#1063,#1064);
#1063 = CARTESIAN_POINT('',(6.,68.,-2.75));
#1064 = VECTOR('',#1065,1.);
#1065 = DIRECTION('',(0.,1.,2.E-17));
#1066 = ORIENTED_EDGE('',*,*,#983,.T.);
#1067 = ORIENTED_EDGE('',*,*,#1061,.T.);
#1068 = ORIENTED_EDGE('',*,*,#1027,.T.);
#1069 = CYLINDRICAL_SURFACE('',#1070,2.75);
#1070 = AXIS2_PLACEMENT_3D('',#1071,#1072,#1073);
#1071 = CARTESIAN_POINT('',(6.,68.,1.42108547152E-14));
#1072 = DIRECTION('',(0.,1.,0.));
#1073 = DIRECTION('',(-2.2E-16,0.,-1.));
#1074 = ( GEOMETRIC_REPRESENTATION_CONTEXT(3) 
GLOBAL_UNCERTAINTY_ASSIGNED_CONTEXT((#1078)) 
GLOBAL_UNIT_ASSIGNED_CONTEXT((#1075,#1076,#1077)) REPRESENTATION_CONTEXT
('Context #1','3D Context with UNIT and UNCERTAINTY') );
#1075 = ( LENGTH_UNIT() NAMED_UNIT(*) SI_UNIT(.MILLI.,.METRE.) );
#1076 = ( NAMED_UNIT(*) PLANE_ANGLE_UNIT() SI_UNIT($,.RADIAN.) );
#1077 = ( NAMED_UNIT(*) SI_UNIT($,.STERADIAN.) SOLID_ANGLE_UNIT() );
#1078 = UNCERTAINTY_MEASURE_WITH_UNIT(LENGTH_MEASURE(2.E-05),#1075,
  'distance_accuracy_value','confusion accuracy');
#1079 = PRODUCT_RELATED_PRODUCT_CATEGORY('part',$,(#7));
#1080 = MECHANICAL_DESIGN_GEOMETRIC_PRESENTATION_REPRESENTATION('',(
    #1081),#1074);
#1081 = STYLED_ITEM('color',(#1082),#15);
#1082 = PRESENTATION_STYLE_ASSIGNMENT((#1083,#1089));
#1083 = SURFACE_STYLE_USAGE(.BOTH.,#1084);
#1084 = SURFACE_SIDE_STYLE('',(#1085));
#1085 = SURFACE_STYLE_FILL_AREA(#1086);
#1086 = FILL_AREA_STYLE('',(#1087));
#1087 = FILL_AREA_STYLE_COLOUR('',#1088);
#1088 = COLOUR_RGB('',0.447058818107,0.474509808674,0.501960817233);
#1089 = CURVE_STYLE('',#1090,POSITIVE_LENGTH_MEASURE(0.1),#1091);
#1090 = DRAUGHTING_PRE_DEFINED_CURVE_FONT('continuous');
#1091 = COLOUR_RGB('',9.803921802644E-02,9.803921802644E-02,
  9.803921802644E-02);
ENDSEC;
END-ISO-10303-21;
