ISO-10303-21;
HEADER;
FILE_DESCRIPTION(('FreeCAD Model'),'2;1');
FILE_NAME('Open CASCADE Shape Model','2025-11-04T09:08:49',(''),(''),
  'Open CASCADE STEP processor 7.9','FreeCAD','Unknown');
FILE_SCHEMA(('AUTOMOTIVE_DESIGN { 1 0 10303 214 1 1 1 1 }'));
ENDSEC;
DATA;
#1 = APPLICATION_PROTOCOL_DEFINITION('international standard',
  'automotive_design',2000,#2);
#2 = APPLICATION_CONTEXT(
  'core data for automotive mechanical design processes');
#3 = SHAPE_DEFINITION_REPRESENTATION(#4,#10);
#4 = PRODUCT_DEFINITION_SHAPE('','',#5);
#5 = PRODUCT_DEFINITION('design','',#6,#9);
#6 = PRODUCT_DEFINITION_FORMATION('','',#7);
#7 = PRODUCT('Tensioner','Tensioner','',(#8));
#8 = PRODUCT_CONTEXT('',#2,'mechanical');
#9 = PRODUCT_DEFINITION_CONTEXT('part definition',#2,'design');
#10 = ADVANCED_BREP_SHAPE_REPRESENTATION('',(#11,#15),#430);
#11 = AXIS2_PLACEMENT_3D('',#12,#13,#14);
#12 = CARTESIAN_POINT('',(0.,0.,0.));
#13 = DIRECTION('',(0.,0.,1.));
#14 = DIRECTION('',(1.,0.,-0.));
#15 = MANIFOLD_SOLID_BREP('',#16);
#16 = CLOSED_SHELL('',(#17,#68,#110,#166,#222,#239,#264,#289,#309,#329,
    #357,#374,#408,#418));
#17 = ADVANCED_FACE('',(#18,#52),#63,.T.);
#18 = FACE_BOUND('',#19,.T.);
#19 = EDGE_LOOP('',(#20,#30,#38,#46));
#20 = ORIENTED_EDGE('',*,*,#21,.T.);
#21 = EDGE_CURVE('',#22,#24,#26,.T.);
#22 = VERTEX_POINT('',#23);
#23 = CARTESIAN_POINT('',(-3.E-14,1.2E-14,18.));
#24 = VERTEX_POINT('',#25);
#25 = CARTESIAN_POINT('',(10.,0.,18.));
#26 = LINE('',#27,#28);
#27 = CARTESIAN_POINT('',(-2.998E-14,-1.399E-14,18.));
#28 = VECTOR('',#29,1.);
#29 = DIRECTION('',(1.,-6.7E-16,-3.3E-16));
#30 = ORIENTED_EDGE('',*,*,#31,.T.);
#31 = EDGE_CURVE('',#24,#32,#34,.T.);
#32 = VERTEX_POINT('',#33);
#33 = CARTESIAN_POINT('',(10.,36.,18.));
#34 = LINE('',#35,#36);
#35 = CARTESIAN_POINT('',(10.,-1.354E-14,18.));
#36 = VECTOR('',#37,1.);
#37 = DIRECTION('',(-1.55E-15,1.,-1.22E-15));
#38 = ORIENTED_EDGE('',*,*,#39,.F.);
#39 = EDGE_CURVE('',#40,#32,#42,.T.);
#40 = VERTEX_POINT('',#41);
#41 = CARTESIAN_POINT('',(-2.6E-14,36.,18.));
#42 = LINE('',#43,#44);
#43 = CARTESIAN_POINT('',(-7.794E-14,36.,18.));
#44 = VECTOR('',#45,1.);
#45 = DIRECTION('',(1.,-6.7E-16,-3.3E-16));
#46 = ORIENTED_EDGE('',*,*,#47,.F.);
#47 = EDGE_CURVE('',#22,#40,#48,.T.);
#48 = LINE('',#49,#50);
#49 = CARTESIAN_POINT('',(-2.998E-14,-1.799E-14,18.));
#50 = VECTOR('',#51,1.);
#51 = DIRECTION('',(-1.55E-15,1.,-1.22E-15));
#52 = FACE_BOUND('',#53,.T.);
#53 = EDGE_LOOP('',(#54));
#54 = ORIENTED_EDGE('',*,*,#55,.F.);
#55 = EDGE_CURVE('',#56,#56,#58,.T.);
#56 = VERTEX_POINT('',#57);
#57 = CARTESIAN_POINT('',(5.,26.45,18.));
#58 = CIRCLE('',#59,1.55);
#59 = AXIS2_PLACEMENT_3D('',#60,#61,#62);
#60 = CARTESIAN_POINT('',(5.,28.,18.));
#61 = DIRECTION('',(1.1E-16,7.8E-16,1.));
#62 = DIRECTION('',(1.11E-15,-1.,7.8E-16));
#63 = PLANE('',#64);
#64 = AXIS2_PLACEMENT_3D('',#65,#66,#67);
#65 = CARTESIAN_POINT('',(-2.998E-14,-1.399E-14,18.));
#66 = DIRECTION('',(-1.44E-15,-5.6E-16,1.));
#67 = DIRECTION('',(-1.33E-15,1.,5.6E-16));
#68 = ADVANCED_FACE('',(#69,#94),#105,.T.);
#69 = FACE_BOUND('',#70,.T.);
#70 = EDGE_LOOP('',(#71,#81,#87,#88));
#71 = ORIENTED_EDGE('',*,*,#72,.T.);
#72 = EDGE_CURVE('',#73,#75,#77,.T.);
#73 = VERTEX_POINT('',#74);
#74 = CARTESIAN_POINT('',(0.,0.,0.));
#75 = VERTEX_POINT('',#76);
#76 = CARTESIAN_POINT('',(10.,-1.2E-14,6.E-15));
#77 = LINE('',#78,#79);
#78 = CARTESIAN_POINT('',(0.,0.,0.));
#79 = VECTOR('',#80,1.);
#80 = DIRECTION('',(1.,-6.7E-16,-3.3E-16));
#81 = ORIENTED_EDGE('',*,*,#82,.T.);
#82 = EDGE_CURVE('',#75,#24,#83,.T.);
#83 = LINE('',#84,#85);
#84 = CARTESIAN_POINT('',(10.,4.44E-15,-2.48689957516E-14));
#85 = VECTOR('',#86,1.);
#86 = DIRECTION('',(-1.67E-15,-1.E-15,1.));
#87 = ORIENTED_EDGE('',*,*,#21,.F.);
#88 = ORIENTED_EDGE('',*,*,#89,.F.);
#89 = EDGE_CURVE('',#73,#22,#90,.T.);
#90 = LINE('',#91,#92);
#91 = CARTESIAN_POINT('',(0.,0.,0.));
#92 = VECTOR('',#93,1.);
#93 = DIRECTION('',(-1.67E-15,-1.E-15,1.));
#94 = FACE_BOUND('',#95,.T.);
#95 = EDGE_LOOP('',(#96));
#96 = ORIENTED_EDGE('',*,*,#97,.F.);
#97 = EDGE_CURVE('',#98,#98,#100,.T.);
#98 = VERTEX_POINT('',#99);
#99 = CARTESIAN_POINT('',(5.,-1.E-15,6.65));
#100 = CIRCLE('',#101,2.35);
#101 = AXIS2_PLACEMENT_3D('',#102,#103,#104);
#102 = CARTESIAN_POINT('',(5.,-4.66E-15,9.));
#103 = DIRECTION('',(-3.3E-16,-1.,-3.3E-16));
#104 = DIRECTION('',(6.7E-16,3.3E-16,-1.));
#105 = PLANE('',#106);
#106 = AXIS2_PLACEMENT_3D('',#107,#108,#109);
#107 = CARTESIAN_POINT('',(0.,0.,0.));
#108 = DIRECTION('',(1.11E-15,-1.,1.E-15));
#109 = DIRECTION('',(-1.67E-15,1.E-15,1.));
#110 = ADVANCED_FACE('',(#111),#161,.F.);
#111 = FACE_BOUND('',#112,.T.);
#112 = EDGE_LOOP('',(#113,#114,#122,#130,#138,#146,#154,#160));
#113 = ORIENTED_EDGE('',*,*,#47,.T.);
#114 = ORIENTED_EDGE('',*,*,#115,.T.);
#115 = EDGE_CURVE('',#40,#116,#118,.T.);
#116 = VERTEX_POINT('',#117);
#117 = CARTESIAN_POINT('',(-1.9E-14,36.,14.));
#118 = LINE('',#119,#120);
#119 = CARTESIAN_POINT('',(-8.593E-14,36.,18.));
#120 = VECTOR('',#121,1.);
#121 = DIRECTION('',(1.67E-15,1.E-15,-1.));
#122 = ORIENTED_EDGE('',*,*,#123,.T.);
#123 = EDGE_CURVE('',#116,#124,#126,.T.);
#124 = VERTEX_POINT('',#125);
#125 = CARTESIAN_POINT('',(-2.3E-14,6.,14.));
#126 = LINE('',#127,#128);
#127 = CARTESIAN_POINT('',(-7.927E-14,36.,14.));
#128 = VECTOR('',#129,1.);
#129 = DIRECTION('',(1.55E-15,-1.,1.22E-15));
#130 = ORIENTED_EDGE('',*,*,#131,.T.);
#131 = EDGE_CURVE('',#124,#132,#134,.T.);
#132 = VERTEX_POINT('',#133);
#133 = CARTESIAN_POINT('',(-6.E-15,6.,4.));
#134 = LINE('',#135,#136);
#135 = CARTESIAN_POINT('',(-3.264E-14,6.,14.));
#136 = VECTOR('',#137,1.);
#137 = DIRECTION('',(1.67E-15,1.E-15,-1.));
#138 = ORIENTED_EDGE('',*,*,#139,.T.);
#139 = EDGE_CURVE('',#132,#140,#142,.T.);
#140 = VERTEX_POINT('',#141);
#141 = CARTESIAN_POINT('',(-3.E-15,36.,4.));
#142 = LINE('',#143,#144);
#143 = CARTESIAN_POINT('',(-1.599E-14,6.,4.));
#144 = VECTOR('',#145,1.);
#145 = DIRECTION('',(-1.55E-15,1.,-1.22E-15));
#146 = ORIENTED_EDGE('',*,*,#147,.T.);
#147 = EDGE_CURVE('',#140,#148,#150,.T.);
#148 = VERTEX_POINT('',#149);
#149 = CARTESIAN_POINT('',(4.E-15,36.,-6.4E-14));
#150 = LINE('',#151,#152);
#151 = CARTESIAN_POINT('',(-6.262E-14,36.,4.));
#152 = VECTOR('',#153,1.);
#153 = DIRECTION('',(1.67E-15,1.E-15,-1.));
#154 = ORIENTED_EDGE('',*,*,#155,.T.);
#155 = EDGE_CURVE('',#148,#73,#156,.T.);
#156 = LINE('',#157,#158);
#157 = CARTESIAN_POINT('',(-5.596E-14,36.,-4.396E-14));
#158 = VECTOR('',#159,1.);
#159 = DIRECTION('',(1.55E-15,-1.,1.22E-15));
#160 = ORIENTED_EDGE('',*,*,#89,.T.);
#161 = PLANE('',#162);
#162 = AXIS2_PLACEMENT_3D('',#163,#164,#165);
#163 = CARTESIAN_POINT('',(-4.186E-14,17.285714285714,9.));
#164 = DIRECTION('',(1.,-6.7E-16,-5.6E-16));
#165 = DIRECTION('',(5.6E-16,-1.E-15,1.));
#166 = ADVANCED_FACE('',(#167),#217,.T.);
#167 = FACE_BOUND('',#168,.F.);
#168 = EDGE_LOOP('',(#169,#170,#178,#186,#194,#202,#210,#216));
#169 = ORIENTED_EDGE('',*,*,#31,.T.);
#170 = ORIENTED_EDGE('',*,*,#171,.T.);
#171 = EDGE_CURVE('',#32,#172,#174,.T.);
#172 = VERTEX_POINT('',#173);
#173 = CARTESIAN_POINT('',(10.,36.,14.));
#174 = LINE('',#175,#176);
#175 = CARTESIAN_POINT('',(10.,36.,18.));
#176 = VECTOR('',#177,1.);
#177 = DIRECTION('',(1.67E-15,1.E-15,-1.));
#178 = ORIENTED_EDGE('',*,*,#179,.T.);
#179 = EDGE_CURVE('',#172,#180,#182,.T.);
#180 = VERTEX_POINT('',#181);
#181 = CARTESIAN_POINT('',(10.,6.,14.));
#182 = LINE('',#183,#184);
#183 = CARTESIAN_POINT('',(10.,36.,14.));
#184 = VECTOR('',#185,1.);
#185 = DIRECTION('',(1.55E-15,-1.,1.22E-15));
#186 = ORIENTED_EDGE('',*,*,#187,.T.);
#187 = EDGE_CURVE('',#180,#188,#190,.T.);
#188 = VERTEX_POINT('',#189);
#189 = CARTESIAN_POINT('',(10.,6.,4.));
#190 = LINE('',#191,#192);
#191 = CARTESIAN_POINT('',(10.,6.,14.));
#192 = VECTOR('',#193,1.);
#193 = DIRECTION('',(1.67E-15,1.E-15,-1.));
#194 = ORIENTED_EDGE('',*,*,#195,.T.);
#195 = EDGE_CURVE('',#188,#196,#198,.T.);
#196 = VERTEX_POINT('',#197);
#197 = CARTESIAN_POINT('',(10.,36.,4.));
#198 = LINE('',#199,#200);
#199 = CARTESIAN_POINT('',(10.,6.,4.));
#200 = VECTOR('',#201,1.);
#201 = DIRECTION('',(-1.55E-15,1.,-1.22E-15));
#202 = ORIENTED_EDGE('',*,*,#203,.T.);
#203 = EDGE_CURVE('',#196,#204,#206,.T.);
#204 = VERTEX_POINT('',#205);
#205 = CARTESIAN_POINT('',(10.,36.,-5.8E-14));
#206 = LINE('',#207,#208);
#207 = CARTESIAN_POINT('',(10.,36.,4.));
#208 = VECTOR('',#209,1.);
#209 = DIRECTION('',(1.67E-15,1.E-15,-1.));
#210 = ORIENTED_EDGE('',*,*,#211,.T.);
#211 = EDGE_CURVE('',#204,#75,#212,.T.);
#212 = LINE('',#213,#214);
#213 = CARTESIAN_POINT('',(10.,36.,-6.927791673661E-14));
#214 = VECTOR('',#215,1.);
#215 = DIRECTION('',(1.55E-15,-1.,1.22E-15));
#216 = ORIENTED_EDGE('',*,*,#82,.T.);
#217 = PLANE('',#218);
#218 = AXIS2_PLACEMENT_3D('',#219,#220,#221);
#219 = CARTESIAN_POINT('',(10.,17.285714285714,9.));
#220 = DIRECTION('',(1.,-6.7E-16,-5.6E-16));
#221 = DIRECTION('',(5.6E-16,-1.E-15,1.));
#222 = ADVANCED_FACE('',(#223),#234,.T.);
#223 = FACE_BOUND('',#224,.T.);
#224 = EDGE_LOOP('',(#225,#226,#227,#233));
#225 = ORIENTED_EDGE('',*,*,#39,.T.);
#226 = ORIENTED_EDGE('',*,*,#171,.T.);
#227 = ORIENTED_EDGE('',*,*,#228,.F.);
#228 = EDGE_CURVE('',#116,#172,#229,.T.);
#229 = LINE('',#230,#231);
#230 = CARTESIAN_POINT('',(-7.128E-14,36.,14.));
#231 = VECTOR('',#232,1.);
#232 = DIRECTION('',(1.,-6.7E-16,-3.3E-16));
#233 = ORIENTED_EDGE('',*,*,#115,.F.);
#234 = PLANE('',#235);
#235 = AXIS2_PLACEMENT_3D('',#236,#237,#238);
#236 = CARTESIAN_POINT('',(-7.794E-14,36.,18.));
#237 = DIRECTION('',(-1.11E-15,1.,-1.E-15));
#238 = DIRECTION('',(1.67E-15,-1.E-15,-1.));
#239 = ADVANCED_FACE('',(#240),#259,.F.);
#240 = FACE_BOUND('',#241,.F.);
#241 = EDGE_LOOP('',(#242,#243,#251,#258));
#242 = ORIENTED_EDGE('',*,*,#55,.F.);
#243 = ORIENTED_EDGE('',*,*,#244,.T.);
#244 = EDGE_CURVE('',#56,#245,#247,.T.);
#245 = VERTEX_POINT('',#246);
#246 = CARTESIAN_POINT('',(5.,26.45,14.));
#247 = LINE('',#248,#249);
#248 = CARTESIAN_POINT('',(5.,26.45,18.));
#249 = VECTOR('',#250,1.);
#250 = DIRECTION('',(1.E-15,3.3E-16,-1.));
#251 = ORIENTED_EDGE('',*,*,#252,.T.);
#252 = EDGE_CURVE('',#245,#245,#253,.T.);
#253 = CIRCLE('',#254,1.55);
#254 = AXIS2_PLACEMENT_3D('',#255,#256,#257);
#255 = CARTESIAN_POINT('',(5.,28.,14.));
#256 = DIRECTION('',(1.1E-16,7.8E-16,1.));
#257 = DIRECTION('',(8.9E-16,-1.,7.8E-16));
#258 = ORIENTED_EDGE('',*,*,#244,.F.);
#259 = CYLINDRICAL_SURFACE('',#260,1.55);
#260 = AXIS2_PLACEMENT_3D('',#261,#262,#263);
#261 = CARTESIAN_POINT('',(5.,28.,18.));
#262 = DIRECTION('',(-7.8E-16,-1.1E-16,1.));
#263 = DIRECTION('',(8.9E-16,-1.,-1.1E-16));
#264 = ADVANCED_FACE('',(#265),#284,.F.);
#265 = FACE_BOUND('',#266,.F.);
#266 = EDGE_LOOP('',(#267,#268,#276,#283));
#267 = ORIENTED_EDGE('',*,*,#97,.F.);
#268 = ORIENTED_EDGE('',*,*,#269,.T.);
#269 = EDGE_CURVE('',#98,#270,#272,.T.);
#270 = VERTEX_POINT('',#271);
#271 = CARTESIAN_POINT('',(5.,6.,6.65));
#272 = LINE('',#273,#274);
#273 = CARTESIAN_POINT('',(5.,-2.4E-15,6.65));
#274 = VECTOR('',#275,1.);
#275 = DIRECTION('',(-3.3E-16,1.,-5.6E-16));
#276 = ORIENTED_EDGE('',*,*,#277,.T.);
#277 = EDGE_CURVE('',#270,#270,#278,.T.);
#278 = CIRCLE('',#279,2.35);
#279 = AXIS2_PLACEMENT_3D('',#280,#281,#282);
#280 = CARTESIAN_POINT('',(5.,6.,9.));
#281 = DIRECTION('',(-3.3E-16,-1.,-1.1E-16));
#282 = DIRECTION('',(6.7E-16,1.1E-16,-1.));
#283 = ORIENTED_EDGE('',*,*,#269,.F.);
#284 = CYLINDRICAL_SURFACE('',#285,2.35);
#285 = AXIS2_PLACEMENT_3D('',#286,#287,#288);
#286 = CARTESIAN_POINT('',(5.,-2.66E-15,9.));
#287 = DIRECTION('',(1.1E-16,-1.,3.3E-16));
#288 = DIRECTION('',(6.7E-16,-3.3E-16,-1.));
#289 = ADVANCED_FACE('',(#290,#301),#304,.T.);
#290 = FACE_BOUND('',#291,.T.);
#291 = EDGE_LOOP('',(#292,#293,#294,#300));
#292 = ORIENTED_EDGE('',*,*,#228,.T.);
#293 = ORIENTED_EDGE('',*,*,#179,.T.);
#294 = ORIENTED_EDGE('',*,*,#295,.F.);
#295 = EDGE_CURVE('',#124,#180,#296,.T.);
#296 = LINE('',#297,#298);
#297 = CARTESIAN_POINT('',(-3.131E-14,6.,14.));
#298 = VECTOR('',#299,1.);
#299 = DIRECTION('',(1.,-6.7E-16,-3.3E-16));
#300 = ORIENTED_EDGE('',*,*,#123,.F.);
#301 = FACE_BOUND('',#302,.T.);
#302 = EDGE_LOOP('',(#303));
#303 = ORIENTED_EDGE('',*,*,#252,.T.);
#304 = PLANE('',#305);
#305 = AXIS2_PLACEMENT_3D('',#306,#307,#308);
#306 = CARTESIAN_POINT('',(-7.128E-14,36.,14.));
#307 = DIRECTION('',(1.44E-15,5.6E-16,-1.));
#308 = DIRECTION('',(1.33E-15,-1.,-5.6E-16));
#309 = ADVANCED_FACE('',(#310,#321),#324,.T.);
#310 = FACE_BOUND('',#311,.T.);
#311 = EDGE_LOOP('',(#312,#313,#314,#320));
#312 = ORIENTED_EDGE('',*,*,#295,.T.);
#313 = ORIENTED_EDGE('',*,*,#187,.T.);
#314 = ORIENTED_EDGE('',*,*,#315,.F.);
#315 = EDGE_CURVE('',#132,#188,#316,.T.);
#316 = LINE('',#317,#318);
#317 = CARTESIAN_POINT('',(-1.465E-14,6.,4.));
#318 = VECTOR('',#319,1.);
#319 = DIRECTION('',(1.,-6.7E-16,-3.3E-16));
#320 = ORIENTED_EDGE('',*,*,#131,.F.);
#321 = FACE_BOUND('',#322,.T.);
#322 = EDGE_LOOP('',(#323));
#323 = ORIENTED_EDGE('',*,*,#277,.T.);
#324 = PLANE('',#325);
#325 = AXIS2_PLACEMENT_3D('',#326,#327,#328);
#326 = CARTESIAN_POINT('',(-3.131E-14,6.,14.));
#327 = DIRECTION('',(-1.11E-15,1.,-1.E-15));
#328 = DIRECTION('',(1.67E-15,-1.E-15,-1.));
#329 = ADVANCED_FACE('',(#330,#341),#352,.T.);
#330 = FACE_BOUND('',#331,.T.);
#331 = EDGE_LOOP('',(#332,#333,#334,#340));
#332 = ORIENTED_EDGE('',*,*,#315,.T.);
#333 = ORIENTED_EDGE('',*,*,#195,.T.);
#334 = ORIENTED_EDGE('',*,*,#335,.F.);
#335 = EDGE_CURVE('',#140,#196,#336,.T.);
#336 = LINE('',#337,#338);
#337 = CARTESIAN_POINT('',(-5.462E-14,36.,4.));
#338 = VECTOR('',#339,1.);
#339 = DIRECTION('',(1.,-6.7E-16,-3.3E-16));
#340 = ORIENTED_EDGE('',*,*,#139,.F.);
#341 = FACE_BOUND('',#342,.T.);
#342 = EDGE_LOOP('',(#343));
#343 = ORIENTED_EDGE('',*,*,#344,.F.);
#344 = EDGE_CURVE('',#345,#345,#347,.T.);
#345 = VERTEX_POINT('',#346);
#346 = CARTESIAN_POINT('',(5.,26.45,4.));
#347 = CIRCLE('',#348,1.55);
#348 = AXIS2_PLACEMENT_3D('',#349,#350,#351);
#349 = CARTESIAN_POINT('',(5.,28.,4.));
#350 = DIRECTION('',(1.1E-16,7.8E-16,1.));
#351 = DIRECTION('',(8.9E-16,-1.,7.8E-16));
#352 = PLANE('',#353);
#353 = AXIS2_PLACEMENT_3D('',#354,#355,#356);
#354 = CARTESIAN_POINT('',(-1.465E-14,6.,4.));
#355 = DIRECTION('',(-1.44E-15,-5.6E-16,1.));
#356 = DIRECTION('',(-1.33E-15,1.,5.6E-16));
#357 = ADVANCED_FACE('',(#358),#369,.T.);
#358 = FACE_BOUND('',#359,.T.);
#359 = EDGE_LOOP('',(#360,#361,#362,#368));
#360 = ORIENTED_EDGE('',*,*,#335,.T.);
#361 = ORIENTED_EDGE('',*,*,#203,.T.);
#362 = ORIENTED_EDGE('',*,*,#363,.F.);
#363 = EDGE_CURVE('',#148,#204,#364,.T.);
#364 = LINE('',#365,#366);
#365 = CARTESIAN_POINT('',(-4.796E-14,36.,-4.396E-14));
#366 = VECTOR('',#367,1.);
#367 = DIRECTION('',(1.,-6.7E-16,-3.3E-16));
#368 = ORIENTED_EDGE('',*,*,#147,.F.);
#369 = PLANE('',#370);
#370 = AXIS2_PLACEMENT_3D('',#371,#372,#373);
#371 = CARTESIAN_POINT('',(-5.462E-14,36.,4.));
#372 = DIRECTION('',(-1.11E-15,1.,-1.E-15));
#373 = DIRECTION('',(1.67E-15,-1.E-15,-1.));
#374 = ADVANCED_FACE('',(#375),#403,.F.);
#375 = FACE_BOUND('',#376,.F.);
#376 = EDGE_LOOP('',(#377,#385,#386,#387,#396));
#377 = ORIENTED_EDGE('',*,*,#378,.F.);
#378 = EDGE_CURVE('',#345,#379,#381,.T.);
#379 = VERTEX_POINT('',#380);
#380 = CARTESIAN_POINT('',(5.,26.45,0.5));
#381 = LINE('',#382,#383);
#382 = CARTESIAN_POINT('',(5.,26.45,18.));
#383 = VECTOR('',#384,1.);
#384 = DIRECTION('',(1.E-15,3.3E-16,-1.));
#385 = ORIENTED_EDGE('',*,*,#344,.F.);
#386 = ORIENTED_EDGE('',*,*,#378,.T.);
#387 = ORIENTED_EDGE('',*,*,#388,.F.);
#388 = EDGE_CURVE('',#389,#379,#391,.T.);
#389 = VERTEX_POINT('',#390);
#390 = CARTESIAN_POINT('',(5.,29.55,0.5));
#391 = CIRCLE('',#392,1.55);
#392 = AXIS2_PLACEMENT_3D('',#393,#394,#395);
#393 = CARTESIAN_POINT('',(5.,28.,0.5));
#394 = DIRECTION('',(7.8E-16,-2.2E-16,-1.));
#395 = DIRECTION('',(0.,1.,-2.2E-16));
#396 = ORIENTED_EDGE('',*,*,#397,.F.);
#397 = EDGE_CURVE('',#379,#389,#398,.T.);
#398 = CIRCLE('',#399,1.55);
#399 = AXIS2_PLACEMENT_3D('',#400,#401,#402);
#400 = CARTESIAN_POINT('',(5.,28.,0.5));
#401 = DIRECTION('',(7.8E-16,-2.2E-16,-1.));
#402 = DIRECTION('',(0.,1.,-2.2E-16));
#403 = CYLINDRICAL_SURFACE('',#404,1.55);
#404 = AXIS2_PLACEMENT_3D('',#405,#406,#407);
#405 = CARTESIAN_POINT('',(5.,28.,18.));
#406 = DIRECTION('',(-7.8E-16,-1.1E-16,1.));
#407 = DIRECTION('',(8.9E-16,-1.,-1.1E-16));
#408 = ADVANCED_FACE('',(#409),#413,.T.);
#409 = FACE_BOUND('',#410,.F.);
#410 = EDGE_LOOP('',(#411,#412));
#411 = ORIENTED_EDGE('',*,*,#388,.T.);
#412 = ORIENTED_EDGE('',*,*,#397,.T.);
#413 = PLANE('',#414);
#414 = AXIS2_PLACEMENT_3D('',#415,#416,#417);
#415 = CARTESIAN_POINT('',(5.,28.,0.5));
#416 = DIRECTION('',(-1.44E-15,-1.1E-16,1.));
#417 = DIRECTION('',(1.,-2.2E-16,1.44E-15));
#418 = ADVANCED_FACE('',(#419),#425,.T.);
#419 = FACE_BOUND('',#420,.T.);
#420 = EDGE_LOOP('',(#421,#422,#423,#424));
#421 = ORIENTED_EDGE('',*,*,#363,.T.);
#422 = ORIENTED_EDGE('',*,*,#211,.T.);
#423 = ORIENTED_EDGE('',*,*,#72,.F.);
#424 = ORIENTED_EDGE('',*,*,#155,.F.);
#425 = PLANE('',#426);
#426 = AXIS2_PLACEMENT_3D('',#427,#428,#429);
#427 = CARTESIAN_POINT('',(5.,18.,-2.72E-14));
#428 = DIRECTION('',(5.6E-16,-1.67E-15,-1.));
#429 = DIRECTION('',(0.,-1.,1.67E-15));
#430 = ( GEOMETRIC_REPRESENTATION_CONTEXT(3) 
GLOBAL_UNCERTAINTY_ASSIGNED_CONTEXT((#434)) GLOBAL_UNIT_ASSIGNED_CONTEXT
((#431,#432,#433)) REPRESENTATION_CONTEXT('Context #1',
  '3D Context with UNIT and UNCERTAINTY') );
#431 = ( LENGTH_UNIT() NAMED_UNIT(*) SI_UNIT(.MILLI.,.METRE.) );
#432 = ( NAMED_UNIT(*) PLANE_ANGLE_UNIT() SI_UNIT($,.RADIAN.) );
#433 = ( NAMED_UNIT(*) SI_UNIT($,.STERADIAN.) SOLID_ANGLE_UNIT() );
#434 = UNCERTAINTY_MEASURE_WITH_UNIT(LENGTH_MEASURE(1.E-07),#431,
  'distance_accuracy_value','confusion accuracy');
#435 = PRODUCT_RELATED_PRODUCT_CATEGORY('part',$,(#7));
#436 = MECHANICAL_DESIGN_GEOMETRIC_PRESENTATION_REPRESENTATION('',(#437)
  ,#430);
#437 = STYLED_ITEM('color',(#438),#15);
#438 = PRESENTATION_STYLE_ASSIGNMENT((#439,#445));
#439 = SURFACE_STYLE_USAGE(.BOTH.,#440);
#440 = SURFACE_SIDE_STYLE('',(#441));
#441 = SURFACE_STYLE_FILL_AREA(#442);
#442 = FILL_AREA_STYLE('',(#443));
#443 = FILL_AREA_STYLE_COLOUR('',#444);
#444 = COLOUR_RGB('',0.447058818107,0.474509808674,0.501960817233);
#445 = CURVE_STYLE('',#446,POSITIVE_LENGTH_MEASURE(0.1),#447);
#446 = DRAUGHTING_PRE_DEFINED_CURVE_FONT('continuous');
#447 = COLOUR_RGB('',9.803921802644E-02,9.803921802644E-02,
  9.803921802644E-02);
ENDSEC;
END-ISO-10303-21;
